<?xml version="1.0" encoding="UTF-8" standalone="no"?>
<!-- Created with Inkscape (http://www.inkscape.org/) -->

<svg
   xmlns:dc="http://purl.org/dc/elements/1.1/"
   xmlns:cc="http://creativecommons.org/ns#"
   xmlns:rdf="http://www.w3.org/1999/02/22-rdf-syntax-ns#"
   xmlns:svg="http://www.w3.org/2000/svg"
   xmlns="http://www.w3.org/2000/svg"
   xmlns:sodipodi="http://sodipodi.sourceforge.net/DTD/sodipodi-0.dtd"
   xmlns:inkscape="http://www.inkscape.org/namespaces/inkscape"
   width="744.09448"
   height="1052.3622"
   id="svg10511"
   version="1.1"
   inkscape:version="0.48.1 r9760"
   sodipodi:docname="New document 84">
  <defs
     id="defs10513" />
  <sodipodi:namedview
     id="base"
     pagecolor="#ffffff"
     bordercolor="#666666"
     borderopacity="1.0"
     inkscape:pageopacity="0.0"
     inkscape:pageshadow="2"
     inkscape:zoom="0.35"
     inkscape:cx="532.14286"
     inkscape:cy="662.85714"
     inkscape:document-units="px"
     inkscape:current-layer="layer1"
     showgrid="false"
     showguides="true"
     inkscape:guide-bbox="true"
     units="mm"
     inkscape:window-width="1280"
     inkscape:window-height="776"
     inkscape:window-x="0"
     inkscape:window-y="24"
     inkscape:window-maximized="1">
    <sodipodi:guide
       orientation="0,1"
       position="-620,1371.4286"
       id="guide10604" />
  </sodipodi:namedview>
  <metadata
     id="metadata10516">
    <rdf:RDF>
      <cc:Work
         rdf:about="">
        <dc:format>image/svg+xml</dc:format>
        <dc:type
           rdf:resource="http://purl.org/dc/dcmitype/StillImage" />
        <dc:title></dc:title>
      </cc:Work>
    </rdf:RDF>
  </metadata>
  <g
     inkscape:label="Layer 1"
     inkscape:groupmode="layer"
     id="layer1"
     transform="translate(0,-2.5390623e-6)">
    <g
       transform="matrix(0.7830461,-0.18888411,0.18888411,0.7830461,94.006954,-173.94225)"
       style="font-size:40px;font-style:normal;font-weight:normal;line-height:125%;letter-spacing:0px;word-spacing:0px;fill:#000000;fill-opacity:1;stroke:none;display:inline;font-family:Sans"
       id="flowRoot3516-3-8-26-1-56">
      <path
         d="m -31.6225,558.52748 -8.12,0.2 -0.72,-25.16 6.56,-0.12 0.28,14.88 8.16,-15 6.72,-0.16 -12.88,25.36"
         style="font-variant:normal;font-weight:800;font-stretch:condensed;text-align:center;line-height:88.99999857%;text-anchor:middle;font-family:Crickx;-inkscape-font-specification:Crickx Ultra-Bold Condensed"
         id="path9422-7"
         inkscape:connector-curvature="0" />
      <path
         d="m -7.18,543.08748 -2.72,6.44 3.2,0.24 -0.48,-6.68 m -5.44,11.2 -2.32,4.52 -7.44,0.08 c 8.186659,-15.25332 12.6799882,-23.86665 13.48,-25.84 l 7.44,-0.04 1.84,25.4 -6.4,0.2 -0.32,-4.2 -6.28,-0.12"
         style="font-variant:normal;font-weight:800;font-stretch:condensed;text-align:center;line-height:88.99999857%;text-anchor:middle;font-family:Crickx;-inkscape-font-specification:Crickx Ultra-Bold Condensed"
         id="path9424-0"
         inkscape:connector-curvature="0" />
      <path
         d="m 10.640625,558.76748 -6.88,-0.08 5.2,-25 c 4.213323,-0.15998 7.239986,-0.18665 9.08,-0.08 4.15998,-0.0267 6.239978,2.30668 6.24,7 -0.08002,0.96001 -0.293355,1.88001 -0.64,2.76 -0.853353,2.16001 -2.333352,3.98667 -4.44,5.48 l 4.44,10.12 -6.88,0.04 -2.48,-8.72 -2.12,0.36 -1.52,8.12 m 6.72,-17.76 c -1.5e-5,-1.09332 -0.613347,-1.63999 -1.84,-1.64 -0.08001,10e-6 -0.520012,0.08 -1.32,0.24 l -1.12,6 c 2.45332,-0.71999 3.879986,-2.25332 4.28,-4.6"
         style="font-variant:normal;font-weight:800;font-stretch:condensed;text-align:center;line-height:88.99999857%;text-anchor:middle;font-family:Crickx;-inkscape-font-specification:Crickx Ultra-Bold Condensed"
         id="path9426-8"
         inkscape:connector-curvature="0" />
      <path
         d="m 33.085625,558.88748 -5.68,0 3.6,-25.04 5.84,-0.24 -3.76,25.28"
         style="font-variant:normal;font-weight:800;font-stretch:condensed;text-align:center;line-height:88.99999857%;text-anchor:middle;font-family:Crickx;-inkscape-font-specification:Crickx Ultra-Bold Condensed"
         id="path9428-7"
         inkscape:connector-curvature="0" />
      <path
         d="m 52.35125,543.08748 -2.72,6.44 3.2,0.24 -0.48,-6.68 m -5.44,11.2 -2.32,4.52 -7.44,0.08 c 8.186659,-15.25332 12.679988,-23.86665 13.48,-25.84 l 7.44,-0.04 1.84,25.4 -6.4,0.2 -0.32,-4.2 -6.28,-0.12"
         style="font-variant:normal;font-weight:800;font-stretch:condensed;text-align:center;line-height:88.99999857%;text-anchor:middle;font-family:Crickx;-inkscape-font-specification:Crickx Ultra-Bold Condensed"
         id="path9430-0"
         inkscape:connector-curvature="0" />
      <path
         d="m 76.491875,540.56748 c -1.4e-5,-0.47999 -0.173347,-0.87999 -0.52,-1.2 -0.34668,-0.31999 -0.760013,-0.47998 -1.24,-0.48 l -1.32,0 -0.76,4.48 c 1.359988,-0.10666 2.399987,-0.59999 3.12,-1.48 0.479986,-0.53332 0.719986,-0.97332 0.72,-1.32 m -5.44,12 c 0.666657,0.0533 1.666656,0.0267 3,-0.08 1.066654,-0.26666 1.599987,-0.97333 1.6,-2.12 -1.3e-5,-0.32 -0.18668,-0.65333 -0.56,-1 -0.693346,-0.58666 -1.813344,-0.83999 -3.36,-0.76 l -0.68,3.96 m 8.2,-19.12 c 1.226648,0.26669 2.239981,0.89335 3.04,1.88 0.906646,1.12002 1.359979,2.49335 1.36,4.12 -0.08002,0.72001 -0.266688,1.41335 -0.56,2.08 -0.72002,1.65334 -1.960019,3.10668 -3.72,4.36 2.31998,1.54667 3.573313,3.84 3.76,6.88 -2.1e-5,1.70667 -0.80002,3.17333 -2.4,4.4 -0.986684,0.72 -2.080016,1.26666 -3.28,1.64 l -14.16,0 4.6,-25.16 6.44,-0.08 4.92,-0.12"
         style="font-variant:normal;font-weight:800;font-stretch:condensed;text-align:center;line-height:88.99999857%;text-anchor:middle;font-family:Crickx;-inkscape-font-specification:Crickx Ultra-Bold Condensed"
         id="path9432-44"
         inkscape:connector-curvature="0" />
      <path
         d="m 98.15,558.80748 -12.28,0.32 4.32,-25.04 6.76,-0.16 -3.12,18.76 5.56,-0.12 -1.24,6.24"
         style="font-variant:normal;font-weight:800;font-stretch:condensed;text-align:center;line-height:88.99999857%;text-anchor:middle;font-family:Crickx;-inkscape-font-specification:Crickx Ultra-Bold Condensed"
         id="path9434-01"
         inkscape:connector-curvature="0" />
      <path
         d="m 116.6,538.72748 -5.36,0.2 -0.72,4.64 5.32,-0.16 -0.8,4.96 -5.48,0.16 -0.52,4.64 5.24,-0.12 -1.08,5.56 -11,0.12 c 0.66666,-3.62667 2,-12.03999 4,-25.24 l 11.04,-0.08 -0.64,5.32"
         style="font-variant:normal;font-weight:800;font-stretch:condensed;text-align:center;line-height:88.99999857%;text-anchor:middle;font-family:Crickx;-inkscape-font-specification:Crickx Ultra-Bold Condensed"
         id="path9436-1"
         inkscape:connector-curvature="0" />
    </g>
    <g
       transform="matrix(0.7830461,-0.18888411,0.18888411,0.7830461,40.252017,-159.1775)"
       style="font-size:40px;font-style:normal;font-weight:normal;line-height:125%;letter-spacing:0px;word-spacing:0px;fill:#000000;fill-opacity:1;stroke:none;display:inline;font-family:Sans"
       id="flowRoot3516-3-7-5-02-8-5">
      <path
         d="m -26.195703,508.1515 -5.4,0.16 c 0.02666,-0.26665 0.03999,-0.51998 0.04,-0.76 -1.2e-5,-1.35998 -0.426678,-2.03998 -1.28,-2.04 -0.773343,2e-5 -1.400009,0.44002 -1.88,1.32 -0.373342,1.92002 -0.906675,4.80001 -1.6,8.64 -0.08001,0.50667 -0.01334,0.94667 0.2,1.32 0.239992,0.37334 0.599992,0.56001 1.08,0.56 1.466657,10e-6 2.293322,-1.19999 2.48,-3.6 0.826655,-0.0533 2.679986,-0.15999 5.56,-0.32 -0.02668,0.32001 -0.106683,0.84001 -0.24,1.56 -1.146682,6.05334 -4.066679,9.08 -8.76,9.08 -2.293339,0 -4.02667,-0.6 -5.2,-1.8 -0.853335,-0.88 -1.280001,-1.82666 -1.28,-2.84 -10e-7,-0.95999 0.279998,-3.17333 0.84,-6.64 0.639997,-3.86665 1.239997,-6.62665 1.8,-8.28 0.586662,-1.67998 1.773328,-3.02664 3.56,-4.04 1.626658,-0.93331 3.333323,-1.39997 5.12,-1.4 1.039986,0.08 1.933319,0.30669 2.68,0.68 1.78665,0.82669 2.746649,2.30669 2.88,4.44 l -0.6,3.96"
         style="font-variant:normal;font-weight:800;font-stretch:condensed;text-align:center;line-height:88.99999857%;text-anchor:middle;font-family:Crickx;-inkscape-font-specification:Crickx Ultra-Bold Condensed"
         id="path9439-6"
         inkscape:connector-curvature="0" />
      <path
         d="m -6.1332031,504.1115 c -0.6133511,3.81335 -1.4800169,8.90668 -2.6,15.28 -0.2666822,1.44 -0.8533483,2.68 -1.7599999,3.72 -1.333346,1.49333 -3.186678,2.24 -5.56,2.24 -4.506671,0 -6.840002,-1.65333 -7,-4.96 -0.02667,-0.26666 -0.02667,-0.54666 0,-0.84 0.02667,-0.34666 0.04,-0.67999 0.04,-1 -2e-6,-0.31999 0.173332,-1.63999 0.52,-3.96 0.426664,-3.01332 0.959997,-5.81332 1.6,-8.4 0.586662,-2.37331 2.119994,-4.14664 4.6,-5.32 1.626657,-0.79998 2.959989,-1.15998 4,-1.08 0.666654,2e-5 1.146653,0.0267 1.44,0.08 2.8533167,0.50669 4.4266484,1.92002 4.7199999,4.24 m -9.3199999,3.92 -0.04,0 c -0.213342,0.61335 -0.560009,2.34668 -1.04,5.2 -0.453341,2.69334 -0.680007,4.22667 -0.68,4.6 -7e-6,0.82667 0.399992,1.24001 1.2,1.24 0.773324,10e-6 1.346657,-0.21333 1.72,-0.64 0.293323,-0.31999 0.439989,-0.67999 0.44,-1.08 -1.1e-5,-0.10666 -0.01334,-0.27999 -0.04,-0.52 l 1.88,-10.4 c -0.240012,-0.21332 -0.573345,-0.31998 -1,-0.32 -0.506678,2e-5 -1.013344,0.21335 -1.52,0.64 -0.506676,0.40002 -0.813343,0.82668 -0.92,1.28"
         style="font-variant:normal;font-weight:800;font-stretch:condensed;text-align:center;line-height:88.99999857%;text-anchor:middle;font-family:Crickx;-inkscape-font-specification:Crickx Ultra-Bold Condensed"
         id="path9441-9"
         inkscape:connector-curvature="0" />
      <path
         d="m 11.838047,524.7115 -6.4000001,-0.08 1.68,-7.8 -2.24,-4.12 -2.32,12 -6.2,0.12 4.43999997,-25.84 5.00000003,0.12 3.2,6.92 1.2400001,-6.76 6.16,0.2 -4.56,25.24"
         style="font-variant:normal;font-weight:800;font-stretch:condensed;text-align:center;line-height:88.99999857%;text-anchor:middle;font-family:Crickx;-inkscape-font-specification:Crickx Ultra-Bold Condensed"
         id="path9443-6"
         inkscape:connector-curvature="0" />
      <path
         d="m 35.779797,506.4475 -4.914,0.168 c -0.05601,-1.37198 -0.672013,-2.12798 -1.848,-2.268 -0.644011,2e-5 -1.204011,0.26602 -1.68,0.798 -0.44801,0.50402 -0.672009,0.96602 -0.672,1.386 -9e-6,0.92402 0.60199,1.76402 1.806,2.52 1.203988,0.75601 2.393986,1.49801 3.57,2.226 1.371984,1.12001 2.197983,2.52001 2.478,4.2 -0.140017,1.54001 -0.588017,3.27601 -1.344,5.208 -0.336016,0.924 -1.148015,1.778 -2.436,2.562 -1.568012,0.924 -3.36001,1.386 -5.376,1.386 -1.988006,0 -3.626005,-0.434 -4.914,-1.302 -1.036002,-0.672 -1.554002,-1.33 -1.554,-1.974 -2e-6,-0.364 0.265998,-2.226 0.798,-5.586 l 5.082,0.042 c -0.168007,0.61601 -0.266007,1.10601 -0.294,1.47 -7e-6,1.06401 0.517992,1.59601 1.554,1.596 1.51199,10e-6 2.267989,-1.21799 2.268,-3.654 -0.252011,-0.86799 -1.52601,-2.07199 -3.822,-3.612 -2.212005,-1.45599 -3.332004,-2.57598 -3.36,-3.36 0.111996,-1.00798 0.391996,-2.60398 0.84,-4.788 0.419995,-1.48398 1.595994,-2.71598 3.528,-3.696 1.51199,-0.78397 2.869989,-1.17597 4.074,-1.176 1.371986,3e-5 2.645985,0.32203 3.822,0.966 1.343982,0.72802 2.155982,1.72202 2.436,2.982 0.167981,0.86802 0.153981,2.17002 -0.042,3.906"
         style="font-size:42px;line-height:88.99999857%"
         id="path9445-4"
         inkscape:connector-curvature="0" />
      <path
         d="m 54.391328,504.9115 -4,0.12 -3,19.52 -6.48,0.2 2.8,-19.44 -5.08,0.12 0.96,-5.68 15.56,-0.4 -0.76,5.56"
         style="line-height:88.99999857%;letter-spacing:-3px;word-spacing:0px"
         id="path9447-04"
         inkscape:connector-curvature="0" />
      <path
         d="m 67.571953,508.9115 -2.72,6.44 3.2,0.24 -0.48,-6.68 m -5.44,11.2 -2.32,4.52 -7.44,0.08 c 8.186659,-15.25332 12.679988,-23.86664 13.48,-25.84 l 7.44,-0.04 1.84,25.4 -6.4,0.2 -0.32,-4.2 -6.28,-0.12"
         style="font-variant:normal;font-weight:800;font-stretch:condensed;text-align:center;line-height:88.99999857%;text-anchor:middle;font-family:Crickx;-inkscape-font-specification:Crickx Ultra-Bold Condensed"
         id="path9449-1"
         inkscape:connector-curvature="0" />
      <path
         d="m 94.232578,524.7115 -6.4,-0.08 1.68,-7.8 -2.24,-4.12 -2.32,12 -6.2,0.12 4.44,-25.84 5,0.12 3.2,6.92 1.24,-6.76 6.16,0.2 -4.56,25.24"
         style="font-variant:normal;font-weight:800;font-stretch:condensed;text-align:center;line-height:88.99999857%;text-anchor:middle;font-family:Crickx;-inkscape-font-specification:Crickx Ultra-Bold Condensed"
         id="path9451-3"
         inkscape:connector-curvature="0" />
      <path
         d="m 117.01633,504.9115 -4,0.12 -3,19.52 -6.48,0.2 2.8,-19.44 -5.08,0.12 0.96,-5.68 15.56,-0.4 -0.76,5.56"
         style="font-variant:normal;font-weight:800;font-stretch:condensed;text-align:center;line-height:88.99999857%;text-anchor:middle;font-family:Crickx;-inkscape-font-specification:Crickx Ultra-Bold Condensed"
         id="path9453-8"
         inkscape:connector-curvature="0" />
    </g>
    <path
       style="fill:#000000;fill-opacity:1;fill-rule:nonzero;stroke:none;display:inline"
       d="m 105.5173,696.50892 c -4.28317,0 -7.718571,3.43549 -7.718571,7.71862 l 0,91.62151 c 0,4.28322 3.435401,7.75085 7.718571,7.75085 l 215.76442,0 c 4.28315,0 7.75086,-3.46763 7.75086,-7.75085 l 0,-91.62151 c 0,-4.28313 -3.46771,-7.71862 -7.75086,-7.71862 l -215.76442,0 z m 139.32162,24.60907 0.45212,4.65051 -3.19722,0.87192 1.3887,16.37363 -5.23183,1.42099 -1.51789,-16.27679 -4.10148,1.09814 -0.32295,-4.7797 12.53055,-3.3587 z m -15.34024,3.81073 1.22721,21.31485 -5.19952,1.16263 -0.16148,-6.62046 -2.61591,-2.90658 0.45212,10.17295 -4.97346,1.2918 -1.45329,-21.76687 4.0692,-0.87203 3.94003,4.97346 -0.32296,-5.7163 5.03806,-1.03345 z m -20.76584,4.45684 6.42675,20.18448 -5.13494,1.42098 -1.06573,-3.3587 -5.10265,1.13039 -1.00115,4.13379 -6.00691,1.51782 c 3.64746,-13.94162 5.61552,-21.79013 5.87772,-23.54327 l 6.00691,-1.48549 z m -14.59743,3.93993 0.48442,4.65051 -3.22952,0.87202 1.3887,16.40598 -5.19954,1.42099 -1.51787,-16.2768 -4.10149,1.0657 -0.32296,-4.7797 12.49826,-3.3587 z m 112.45198,0.19387 0.51673,4.42439 -4.29527,1.19487 0.32295,3.90778 4.29527,-1.16263 0.32295,4.16614 -4.42444,1.19486 0.48442,3.87544 4.23068,-1.13039 0.19377,4.7152 -8.88118,2.22833 c -0.16845,-3.065 -0.72118,-10.11331 -1.67936,-21.18568 l 8.91348,-2.22831 z m -131.63536,4.0046 c 0.54693,0.006 1.07608,0.0802 1.61477,0.22603 1.22971,0.32677 2.07877,0.97277 2.55132,1.93771 0.30538,0.66967 0.56253,1.72182 0.74279,3.16492 l -3.94001,1.09804 c -0.31315,-1.09927 -0.95873,-1.60184 -1.93772,-1.48557 -0.52115,0.12582 -0.91357,0.47776 -1.19492,1.0012 -0.26416,0.49522 -0.37265,0.88732 -0.29066,1.22711 0.18035,0.74781 0.84811,1.33491 1.97001,1.7117 1.12189,0.3768 2.20032,0.7385 3.29411,1.09804 1.32889,0.63857 2.28745,1.60173 2.84199,2.90657 0.1873,1.27351 0.17005,2.77801 -0.0646,4.48899 -0.0916,0.81342 -0.59634,1.6655 -1.48558,2.55137 -1.08852,1.0538 -2.4378,1.77029 -4.0692,2.16383 -1.60876,0.38806 -3.01895,0.35406 -4.23067,-0.0969 -0.96955,-0.34155 -1.52135,-0.77063 -1.64705,-1.2918 -0.071,-0.29453 -0.22679,-1.8599 -0.45214,-4.68276 l 4.13379,-0.96895 c -0.0157,0.5313 -0.0161,0.95955 0.0323,1.25956 0.20767,0.86107 0.74407,1.20334 1.58246,1.0012 1.22356,-0.29515 1.60584,-1.452 1.13034,-3.4234 -0.37338,-0.65313 -1.65223,-1.3657 -3.81084,-2.16371 -2.07425,-0.74647 -3.18301,-1.43795 -3.35871,-2.0669 -0.106,-0.8376 -0.19458,-2.18202 -0.25838,-4.03695 0.0503,-1.28284 0.75935,-2.5114 2.1315,-3.68155 1.07053,-0.9296 2.09373,-1.50895 3.06805,-1.74405 0.55513,-0.13385 1.10014,-0.19967 1.64705,-0.19369 z m 115.32627,0.38755 1.13033,15.76008 4.48904,-1.16264 0.19377,5.29642 -9.85005,2.6481 -1.38869,-21.12097 5.4256,-1.42099 z m -84.22596,0.74274 -0.93656,5.74855 2.64821,-0.45214 -1.71165,-5.29641 z m 69.82229,2.32525 c 1.04471,-0.0236 1.96969,0.26199 2.80969,0.90427 0.95232,0.7294 1.58787,1.75169 1.90541,3.06799 0.0759,0.59838 0.0749,1.21183 -0.0323,1.80854 -0.25994,1.47855 -0.9842,2.87299 -2.16379,4.23072 2.17933,0.79875 3.64768,2.42065 4.39215,4.84429 0.33314,1.3811 -0.0428,2.73191 -1.09804,4.03695 -0.65791,0.77519 -1.42706,1.4336 -2.32525,1.96996 l -11.46481,2.74504 -1.19492,-21.25015 5.19953,-1.32416 3.97232,-1.03345 z m -113.0656,0.0323 1.22722,21.31485 -5.16723,1.16262 -0.19377,-6.62057 -2.61592,-2.90656 0.48443,10.17305 -5.00576,1.2918 -1.45329,-21.76709 4.0692,-0.87191 3.94002,4.97346 -0.29066,-5.7162 5.00576,-1.03345 z m 95.81995,3.74625 6.45904,20.18446 -5.13494,1.42099 -1.09804,-3.3587 -5.10265,1.13039 -1.00115,4.10143 -6.00691,1.51783 c 3.64746,-13.94151 5.61554,-21.79014 5.87774,-23.54318 l 6.00691,-1.45322 z m 14.92039,1.45322 c -0.0943,0.005 -0.19355,0.009 -0.29065,0.0322 l -1.06575,0.25837 0.25836,3.77858 c 1.07974,-0.35177 1.81749,-0.95582 2.22837,-1.80852 0.28432,-0.5253 0.3906,-0.9144 0.32295,-1.19498 -0.0936,-0.38837 -0.30291,-0.68062 -0.6459,-0.87192 -0.25726,-0.14344 -0.52457,-0.21061 -0.80738,-0.19376 z m -132.7011,0.41979 c 2.40791,-0.14685 3.96026,0.69893 4.65053,2.51914 0.24802,3.20555 0.53421,7.50954 0.87196,12.88574 0.0652,1.21741 -0.17981,2.3078 -0.71049,3.32636 -0.78749,1.46874 -2.14864,2.44337 -4.0692,2.90667 -3.64697,0.87968 -5.8456,-0.004 -6.62052,-2.64831 -0.0736,-0.21051 -0.12583,-0.4356 -0.16148,-0.67815 -0.0461,-0.28575 -0.0991,-0.54845 -0.16147,-0.80732 -0.0625,-0.25899 -0.18293,-1.38132 -0.35525,-3.32647 -0.24294,-2.52182 -0.36825,-4.88676 -0.35525,-7.10495 0.0113,-2.03506 0.90262,-3.76588 2.6805,-5.19948 1.16018,-0.96493 2.17852,-1.50883 3.03576,-1.6471 0.53947,-0.13012 0.94712,-0.21197 1.19491,-0.22613 z m 100.72882,2.74515 1.90543,21.18568 -4.61823,1.09803 -1.97,-20.95955 4.6828,-1.32416 z m -116.10134,0.48438 c 0.38357,0.005 0.72718,0.051 1.06575,0.12918 1.60718,0.32027 2.67287,1.33553 3.19722,3.03585 l 0.29065,3.29402 -4.32756,1.19497 c -0.0305,-0.22095 -0.0822,-0.41937 -0.12918,-0.61356 -0.26548,-1.10061 -0.73045,-1.58758 -1.42098,-1.42099 -0.62583,0.15089 -1.04287,0.64745 -1.25952,1.45324 0.0728,1.62664 0.19903,4.05596 0.38754,7.29871 0.0341,0.42569 0.17431,0.77303 0.41984,1.03345 0.26709,0.25526 0.58041,0.31975 0.96886,0.22601 1.18686,-0.28626 1.64153,-1.4123 1.3241,-3.39093 0.65855,-0.20453 2.12506,-0.63248 4.42445,-1.32407 0.0408,0.26415 0.0965,0.68312 0.12918,1.29182 0.25367,5.12238 -1.5307,8.15876 -5.32872,9.07491 -1.85586,0.44769 -3.36988,0.28987 -4.55362,-0.45214 -0.86234,-0.54555 -1.38466,-1.21461 -1.58246,-2.03455 -0.18742,-0.77694 -0.42239,-2.64015 -0.64592,-5.55477 -0.23686,-3.25402 -0.29192,-5.59313 -0.16147,-7.04047 0.1468,-1.47401 0.85115,-2.80343 2.09919,-3.97226 1.13416,-1.07282 2.42958,-1.7827 3.87543,-2.13149 0.4286,-0.0691 0.84363,-0.10137 1.22722,-0.0969 z m 15.30793,2.19607 c -0.14528,-0.01 -0.31178,0.023 -0.48442,0.0648 -0.41003,0.099 -0.77131,0.36315 -1.09804,0.80733 -0.33195,0.42257 -0.48661,0.83957 -0.48442,1.22722 l -0.0322,0 c -0.053,0.53801 -0.008,1.98949 0.16147,4.39215 0.15888,2.268 0.28236,3.57335 0.35525,3.87543 0.16136,0.66895 0.54753,0.93123 1.19493,0.77508 0.6258,-0.15098 1.07297,-0.45378 1.29181,-0.87192 0.17489,-0.31624 0.20725,-0.64518 0.12917,-0.96896 -0.0208,-0.0863 -0.0608,-0.19842 -0.12917,-0.38754 l -0.51673,-8.7843 c -0.118,-0.0627 -0.24227,-0.11863 -0.38755,-0.12919 z m 86.77729,0.77509 c 2.67362,-0.22281 4.39788,1.32736 5.19952,4.65051 0.12263,0.79255 0.14104,1.57786 0.0323,2.3576 -0.26892,1.91458 -1.10575,3.6767 -2.51902,5.29643 l 5.55477,7.33096 -5.55477,1.38875 -3.71395,-6.58823 -1.64707,0.71049 0.35525,6.87894 -5.55477,1.25946 -0.6782,-21.25026 c 3.37834,-0.95191 5.82119,-1.56795 7.33101,-1.84078 0.42015,-0.10425 0.81298,-0.16193 1.19493,-0.19387 z m 28.4198,1.19497 -0.93657,5.71632 2.61592,-0.4199 -1.67935,-5.29642 z m 18.40828,0.38754 c -0.47791,0.006 -1.02906,0.10738 -1.64706,0.29071 l 0.22606,3.32637 c 0.5499,-0.0871 1.33168,-0.29929 2.38985,-0.64592 0.81112,-0.42402 1.12809,-1.10661 0.90427,-2.03453 -0.0625,-0.25899 -0.27613,-0.47064 -0.6459,-0.67827 -0.33782,-0.16968 -0.74933,-0.26517 -1.22722,-0.25836 z m -63.94456,1.93773 6.45905,20.21681 -5.13495,1.38874 -1.06574,-3.32645 -5.13493,1.13037 -0.96887,4.10145 -6.00691,1.51783 c 3.64745,-13.94152 5.58324,-21.79014 5.84544,-23.54318 l 6.00691,-1.48557 z m 15.66319,1.77617 c -0.19946,-0.01 -0.43004,0.005 -0.6782,0.0648 -0.0648,0.0156 -0.38501,0.16649 -1.00115,0.45203 l 0.25836,5.07041 c 1.84475,-1.06156 2.68569,-2.57649 2.55133,-4.55369 -0.16008,-0.66347 -0.53198,-1.00212 -1.13034,-1.03344 z m -29.61472,1.74405 -5.4579,23.02645 -6.52363,1.74394 -5.4902,-20.21681 5.26413,-1.38875 3.13264,12.01383 3.68166,-13.75767 5.3933,-1.42099 z m 11.30332,5.74845 -0.93656,5.74865 2.61592,-0.41989 -1.67936,-5.32876 z"
       id="rect5641-7-9-6-9-1-8-6-6-3-8"
       inkscape:connector-curvature="0" />
    <path
       style="fill:none;stroke:#000000;stroke-width:4.08543301;stroke-miterlimit:4;stroke-dasharray:none;display:inline"
       d="m 93.808334,188.95882 208.788076,0 c 4.14454,0 7.48111,3.33658 7.48111,7.48111 l 0,88.66999 c 0,4.14452 -3.33657,7.4811 -7.48111,7.4811 l -208.788076,0 c -4.14454,0 -7.48112,-3.33658 -7.48112,-7.4811 l 0,-88.67 c 0,-4.14452 3.33658,-7.4811 7.48112,-7.4811 z"
       id="rect5641-7-9-69-59"
       inkscape:connector-curvature="0" />
    <g
       transform="matrix(0.80534995,-0.01580683,0.01580683,0.80534995,519.90307,-187.27645)"
       style="font-size:40px;font-style:normal;font-weight:normal;line-height:125%;letter-spacing:0px;word-spacing:0px;fill:#000000;fill-opacity:1;stroke:none;display:inline;font-family:Sans"
       id="flowRoot3516-3-8-26-1-56-5">
      <path
         d="m -31.6225,558.52748 -8.12,0.2 -0.72,-25.16 6.56,-0.12 0.28,14.88 8.16,-15 6.72,-0.16 -12.88,25.36"
         style="font-variant:normal;font-weight:800;font-stretch:condensed;text-align:center;line-height:88.99999857%;text-anchor:middle;font-family:Crickx;-inkscape-font-specification:Crickx Ultra-Bold Condensed"
         id="path9422-7-4"
         inkscape:connector-curvature="0" />
      <path
         d="m -7.18,543.08748 -2.72,6.44 3.2,0.24 -0.48,-6.68 m -5.44,11.2 -2.32,4.52 -7.44,0.08 c 8.186659,-15.25332 12.6799882,-23.86665 13.48,-25.84 l 7.44,-0.04 1.84,25.4 -6.4,0.2 -0.32,-4.2 -6.28,-0.12"
         style="font-variant:normal;font-weight:800;font-stretch:condensed;text-align:center;line-height:88.99999857%;text-anchor:middle;font-family:Crickx;-inkscape-font-specification:Crickx Ultra-Bold Condensed"
         id="path9424-0-9"
         inkscape:connector-curvature="0" />
      <path
         d="m 10.640625,558.76748 -6.88,-0.08 5.2,-25 c 4.213323,-0.15998 7.239986,-0.18665 9.08,-0.08 4.15998,-0.0267 6.239978,2.30668 6.24,7 -0.08002,0.96001 -0.293355,1.88001 -0.64,2.76 -0.853353,2.16001 -2.333352,3.98667 -4.44,5.48 l 4.44,10.12 -6.88,0.04 -2.48,-8.72 -2.12,0.36 -1.52,8.12 m 6.72,-17.76 c -1.5e-5,-1.09332 -0.613347,-1.63999 -1.84,-1.64 -0.08001,10e-6 -0.520012,0.08 -1.32,0.24 l -1.12,6 c 2.45332,-0.71999 3.879986,-2.25332 4.28,-4.6"
         style="font-variant:normal;font-weight:800;font-stretch:condensed;text-align:center;line-height:88.99999857%;text-anchor:middle;font-family:Crickx;-inkscape-font-specification:Crickx Ultra-Bold Condensed"
         id="path9426-8-8"
         inkscape:connector-curvature="0" />
      <path
         d="m 33.085625,558.88748 -5.68,0 3.6,-25.04 5.84,-0.24 -3.76,25.28"
         style="font-variant:normal;font-weight:800;font-stretch:condensed;text-align:center;line-height:88.99999857%;text-anchor:middle;font-family:Crickx;-inkscape-font-specification:Crickx Ultra-Bold Condensed"
         id="path9428-7-0"
         inkscape:connector-curvature="0" />
      <path
         d="m 52.35125,543.08748 -2.72,6.44 3.2,0.24 -0.48,-6.68 m -5.44,11.2 -2.32,4.52 -7.44,0.08 c 8.186659,-15.25332 12.679988,-23.86665 13.48,-25.84 l 7.44,-0.04 1.84,25.4 -6.4,0.2 -0.32,-4.2 -6.28,-0.12"
         style="font-variant:normal;font-weight:800;font-stretch:condensed;text-align:center;line-height:88.99999857%;text-anchor:middle;font-family:Crickx;-inkscape-font-specification:Crickx Ultra-Bold Condensed"
         id="path9430-0-7"
         inkscape:connector-curvature="0" />
      <path
         d="m 76.491875,540.56748 c -1.4e-5,-0.47999 -0.173347,-0.87999 -0.52,-1.2 -0.34668,-0.31999 -0.760013,-0.47998 -1.24,-0.48 l -1.32,0 -0.76,4.48 c 1.359988,-0.10666 2.399987,-0.59999 3.12,-1.48 0.479986,-0.53332 0.719986,-0.97332 0.72,-1.32 m -5.44,12 c 0.666657,0.0533 1.666656,0.0267 3,-0.08 1.066654,-0.26666 1.599987,-0.97333 1.6,-2.12 -1.3e-5,-0.32 -0.18668,-0.65333 -0.56,-1 -0.693346,-0.58666 -1.813344,-0.83999 -3.36,-0.76 l -0.68,3.96 m 8.2,-19.12 c 1.226648,0.26669 2.239981,0.89335 3.04,1.88 0.906646,1.12002 1.359979,2.49335 1.36,4.12 -0.08002,0.72001 -0.266688,1.41335 -0.56,2.08 -0.72002,1.65334 -1.960019,3.10668 -3.72,4.36 2.31998,1.54667 3.573313,3.84 3.76,6.88 -2.1e-5,1.70667 -0.80002,3.17333 -2.4,4.4 -0.986684,0.72 -2.080016,1.26666 -3.28,1.64 l -14.16,0 4.6,-25.16 6.44,-0.08 4.92,-0.12"
         style="font-variant:normal;font-weight:800;font-stretch:condensed;text-align:center;line-height:88.99999857%;text-anchor:middle;font-family:Crickx;-inkscape-font-specification:Crickx Ultra-Bold Condensed"
         id="path9432-44-6"
         inkscape:connector-curvature="0" />
      <path
         d="m 98.15,558.80748 -12.28,0.32 4.32,-25.04 6.76,-0.16 -3.12,18.76 5.56,-0.12 -1.24,6.24"
         style="font-variant:normal;font-weight:800;font-stretch:condensed;text-align:center;line-height:88.99999857%;text-anchor:middle;font-family:Crickx;-inkscape-font-specification:Crickx Ultra-Bold Condensed"
         id="path9434-01-6"
         inkscape:connector-curvature="0" />
      <path
         d="m 116.6,538.72748 -5.36,0.2 -0.72,4.64 5.32,-0.16 -0.8,4.96 -5.48,0.16 -0.52,4.64 5.24,-0.12 -1.08,5.56 -11,0.12 c 0.66666,-3.62667 2,-12.03999 4,-25.24 l 11.04,-0.08 -0.64,5.32"
         style="font-variant:normal;font-weight:800;font-stretch:condensed;text-align:center;line-height:88.99999857%;text-anchor:middle;font-family:Crickx;-inkscape-font-specification:Crickx Ultra-Bold Condensed"
         id="path9436-1-4"
         inkscape:connector-curvature="0" />
    </g>
    <g
       transform="matrix(0.80534995,-0.01580683,0.01580683,0.80534995,464.22975,-184.4354)"
       style="font-size:40px;font-style:normal;font-weight:normal;line-height:125%;letter-spacing:0px;word-spacing:0px;fill:#000000;fill-opacity:1;stroke:none;display:inline;font-family:Sans"
       id="flowRoot3516-3-7-5-02-8-5-2">
      <path
         d="m -26.195703,508.1515 -5.4,0.16 c 0.02666,-0.26665 0.03999,-0.51998 0.04,-0.76 -1.2e-5,-1.35998 -0.426678,-2.03998 -1.28,-2.04 -0.773343,2e-5 -1.400009,0.44002 -1.88,1.32 -0.373342,1.92002 -0.906675,4.80001 -1.6,8.64 -0.08001,0.50667 -0.01334,0.94667 0.2,1.32 0.239992,0.37334 0.599992,0.56001 1.08,0.56 1.466657,10e-6 2.293322,-1.19999 2.48,-3.6 0.826655,-0.0533 2.679986,-0.15999 5.56,-0.32 -0.02668,0.32001 -0.106683,0.84001 -0.24,1.56 -1.146682,6.05334 -4.066679,9.08 -8.76,9.08 -2.293339,0 -4.02667,-0.6 -5.2,-1.8 -0.853335,-0.88 -1.280001,-1.82666 -1.28,-2.84 -10e-7,-0.95999 0.279998,-3.17333 0.84,-6.64 0.639997,-3.86665 1.239997,-6.62665 1.8,-8.28 0.586662,-1.67998 1.773328,-3.02664 3.56,-4.04 1.626658,-0.93331 3.333323,-1.39997 5.12,-1.4 1.039986,0.08 1.933319,0.30669 2.68,0.68 1.78665,0.82669 2.746649,2.30669 2.88,4.44 l -0.6,3.96"
         style="font-variant:normal;font-weight:800;font-stretch:condensed;text-align:center;line-height:88.99999857%;text-anchor:middle;font-family:Crickx;-inkscape-font-specification:Crickx Ultra-Bold Condensed"
         id="path9439-6-5"
         inkscape:connector-curvature="0" />
      <path
         d="m -6.1332031,504.1115 c -0.6133511,3.81335 -1.4800169,8.90668 -2.6,15.28 -0.2666822,1.44 -0.8533483,2.68 -1.7599999,3.72 -1.333346,1.49333 -3.186678,2.24 -5.56,2.24 -4.506671,0 -6.840002,-1.65333 -7,-4.96 -0.02667,-0.26666 -0.02667,-0.54666 0,-0.84 0.02667,-0.34666 0.04,-0.67999 0.04,-1 -2e-6,-0.31999 0.173332,-1.63999 0.52,-3.96 0.426664,-3.01332 0.959997,-5.81332 1.6,-8.4 0.586662,-2.37331 2.119994,-4.14664 4.6,-5.32 1.626657,-0.79998 2.959989,-1.15998 4,-1.08 0.666654,2e-5 1.146653,0.0267 1.44,0.08 2.8533167,0.50669 4.4266484,1.92002 4.7199999,4.24 m -9.3199999,3.92 -0.04,0 c -0.213342,0.61335 -0.560009,2.34668 -1.04,5.2 -0.453341,2.69334 -0.680007,4.22667 -0.68,4.6 -7e-6,0.82667 0.399992,1.24001 1.2,1.24 0.773324,10e-6 1.346657,-0.21333 1.72,-0.64 0.293323,-0.31999 0.439989,-0.67999 0.44,-1.08 -1.1e-5,-0.10666 -0.01334,-0.27999 -0.04,-0.52 l 1.88,-10.4 c -0.240012,-0.21332 -0.573345,-0.31998 -1,-0.32 -0.506678,2e-5 -1.013344,0.21335 -1.52,0.64 -0.506676,0.40002 -0.813343,0.82668 -0.92,1.28"
         style="font-variant:normal;font-weight:800;font-stretch:condensed;text-align:center;line-height:88.99999857%;text-anchor:middle;font-family:Crickx;-inkscape-font-specification:Crickx Ultra-Bold Condensed"
         id="path9441-9-0"
         inkscape:connector-curvature="0" />
      <path
         d="m 11.838047,524.7115 -6.4000001,-0.08 1.68,-7.8 -2.24,-4.12 -2.32,12 -6.2,0.12 4.43999997,-25.84 5.00000003,0.12 3.2,6.92 1.2400001,-6.76 6.16,0.2 -4.56,25.24"
         style="font-variant:normal;font-weight:800;font-stretch:condensed;text-align:center;line-height:88.99999857%;text-anchor:middle;font-family:Crickx;-inkscape-font-specification:Crickx Ultra-Bold Condensed"
         id="path9443-6-1"
         inkscape:connector-curvature="0" />
      <path
         d="m 35.779797,506.4475 -4.914,0.168 c -0.05601,-1.37198 -0.672013,-2.12798 -1.848,-2.268 -0.644011,2e-5 -1.204011,0.26602 -1.68,0.798 -0.44801,0.50402 -0.672009,0.96602 -0.672,1.386 -9e-6,0.92402 0.60199,1.76402 1.806,2.52 1.203988,0.75601 2.393986,1.49801 3.57,2.226 1.371984,1.12001 2.197983,2.52001 2.478,4.2 -0.140017,1.54001 -0.588017,3.27601 -1.344,5.208 -0.336016,0.924 -1.148015,1.778 -2.436,2.562 -1.568012,0.924 -3.36001,1.386 -5.376,1.386 -1.988006,0 -3.626005,-0.434 -4.914,-1.302 -1.036002,-0.672 -1.554002,-1.33 -1.554,-1.974 -2e-6,-0.364 0.265998,-2.226 0.798,-5.586 l 5.082,0.042 c -0.168007,0.61601 -0.266007,1.10601 -0.294,1.47 -7e-6,1.06401 0.517992,1.59601 1.554,1.596 1.51199,10e-6 2.267989,-1.21799 2.268,-3.654 -0.252011,-0.86799 -1.52601,-2.07199 -3.822,-3.612 -2.212005,-1.45599 -3.332004,-2.57598 -3.36,-3.36 0.111996,-1.00798 0.391996,-2.60398 0.84,-4.788 0.419995,-1.48398 1.595994,-2.71598 3.528,-3.696 1.51199,-0.78397 2.869989,-1.17597 4.074,-1.176 1.371986,3e-5 2.645985,0.32203 3.822,0.966 1.343982,0.72802 2.155982,1.72202 2.436,2.982 0.167981,0.86802 0.153981,2.17002 -0.042,3.906"
         style="font-size:42px;line-height:88.99999857%"
         id="path9445-4-3"
         inkscape:connector-curvature="0" />
      <path
         d="m 54.391328,504.9115 -4,0.12 -3,19.52 -6.48,0.2 2.8,-19.44 -5.08,0.12 0.96,-5.68 15.56,-0.4 -0.76,5.56"
         style="line-height:88.99999857%;letter-spacing:-3px;word-spacing:0px"
         id="path9447-04-6"
         inkscape:connector-curvature="0" />
      <path
         d="m 67.571953,508.9115 -2.72,6.44 3.2,0.24 -0.48,-6.68 m -5.44,11.2 -2.32,4.52 -7.44,0.08 c 8.186659,-15.25332 12.679988,-23.86664 13.48,-25.84 l 7.44,-0.04 1.84,25.4 -6.4,0.2 -0.32,-4.2 -6.28,-0.12"
         style="font-variant:normal;font-weight:800;font-stretch:condensed;text-align:center;line-height:88.99999857%;text-anchor:middle;font-family:Crickx;-inkscape-font-specification:Crickx Ultra-Bold Condensed"
         id="path9449-1-0"
         inkscape:connector-curvature="0" />
      <path
         d="m 94.232578,524.7115 -6.4,-0.08 1.68,-7.8 -2.24,-4.12 -2.32,12 -6.2,0.12 4.44,-25.84 5,0.12 3.2,6.92 1.24,-6.76 6.16,0.2 -4.56,25.24"
         style="font-variant:normal;font-weight:800;font-stretch:condensed;text-align:center;line-height:88.99999857%;text-anchor:middle;font-family:Crickx;-inkscape-font-specification:Crickx Ultra-Bold Condensed"
         id="path9451-3-5"
         inkscape:connector-curvature="0" />
      <path
         d="m 117.01633,504.9115 -4,0.12 -3,19.52 -6.48,0.2 2.8,-19.44 -5.08,0.12 0.96,-5.68 15.56,-0.4 -0.76,5.56"
         style="font-variant:normal;font-weight:800;font-stretch:condensed;text-align:center;line-height:88.99999857%;text-anchor:middle;font-family:Crickx;-inkscape-font-specification:Crickx Ultra-Bold Condensed"
         id="path9453-8-3"
         inkscape:connector-curvature="0" />
    </g>
    <path
       style="fill:none;stroke:#000000;stroke-width:4.08543301;stroke-miterlimit:4;stroke-dasharray:none;display:inline"
       d="m 441.55111,167.06546 203.88836,44.96669 c 4.04727,0.89261 6.58694,4.86949 5.69433,8.91676 l -19.09686,86.58912 c -0.8926,4.04727 -4.86948,6.58695 -8.91674,5.69434 L 419.23184,268.26568 c -4.04728,-0.89261 -6.58695,-4.86949 -5.69434,-8.91676 l 19.09686,-86.58913 c 0.8926,-4.04727 4.86948,-6.58694 8.91675,-5.69433 z"
       id="rect5641-7-9-69-59-6"
       inkscape:connector-curvature="0" />
    <path
       style="fill:#000000;fill-opacity:1;fill-rule:nonzero;stroke:none;display:inline"
       d="m 459.52307,680.15358 c -4.13615,-1.11251 -8.34599,1.31275 -9.45849,5.44888 l -23.79785,88.4769 c -1.11253,4.13622 1.30427,8.37715 5.44042,9.48966 l 208.35904,56.04285 c 4.13614,1.11251 8.38552,-1.33539 9.49805,-5.47161 l 23.79786,-88.4769 c 1.1125,-4.13613 -1.34386,-8.35442 -5.48,-9.46693 L 459.52307,680.15358 z m 128.14789,59.95196 -0.77132,4.60834 -3.31396,0.0112 -2.91187,16.17236 -5.42134,0.0132 2.76195,-16.11238 -4.24595,-0.005 0.92962,-4.69955 12.97287,0.0112 z m -15.80353,-0.30457 -4.35124,20.90204 -5.32306,-0.22788 1.56367,-6.43517 -1.77117,-3.48628 -2.20573,9.94123 -5.13828,-0.0444 4.25033,-21.39729 4.15604,0.21483 2.51298,5.82615 1.17288,-5.604 5.13358,0.31062 z m -21.21074,-1.08988 0.96343,21.161 -5.32778,0.0385 -0.15675,-3.52023 -5.22114,-0.23373 -2.0405,3.73186 -6.195,-0.0945 c 7.14349,-12.51572 11.08258,-19.58368 11.79115,-21.20855 l 6.18659,0.12563 z m -15.1198,0.0131 -0.74012,4.61674 -3.34518,0.004 -2.92027,16.20358 -5.39018,0.0217 2.76198,-16.11241 -4.23752,-0.0363 0.9296,-4.69954 12.94169,0.002 z m 108.54209,29.39561 -0.6502,4.40675 -4.4582,0.0383 -0.70314,3.85754 4.44982,-0.007 -0.77025,4.10702 -4.58294,0.005 -0.53881,3.86825 4.37908,0.007 -1.03761,4.60369 -9.15515,-0.15489 c 0.63343,-3.00356 1.93041,-9.95353 3.88106,-20.89475 l 9.18634,0.16334 z M 515.92142,737.79594 c 0.52652,0.14809 1.01828,0.357 1.50062,0.6377 1.10264,0.63495 1.75476,1.47933 1.96046,2.53389 0.121,0.726 0.096,1.80883 -0.10475,3.24923 l -4.09,0.037 c -0.0169,-1.14289 -0.50975,-1.79589 -1.48533,-1.9379 -0.53594,-0.0145 -1.00632,0.22407 -1.41397,0.65647 -0.38372,0.40961 -0.59033,0.76008 -0.59942,1.1095 -0.0196,0.769 0.47227,1.50938 1.4578,2.16464 0.98551,0.65526 1.93299,1.28466 2.89584,1.91596 1.11742,0.96183 1.79291,2.14091 1.9895,3.545 -0.14995,1.27845 -0.55735,2.72684 -1.22839,4.31813 -0.29976,0.76171 -1.00846,1.45345 -2.09728,2.07795 -1.32488,0.7349 -2.81395,1.07633 -4.49157,1.03261 -1.65434,-0.0431 -3.0073,-0.44223 -4.06031,-1.19243 -0.84755,-0.58165 -1.26897,-1.13935 -1.25499,-1.67526 0.007,-0.30287 0.26409,-1.85497 0.77969,-4.63949 l 4.24358,0.13802 c -0.15321,0.50897 -0.26481,0.92243 -0.29601,1.22471 -0.0235,0.88544 0.40598,1.3553 1.2681,1.37786 1.25823,0.0331 1.92785,-0.98506 1.98073,-3.0123 -0.19092,-0.72771 -1.24079,-1.74799 -3.11803,-3.0793 -1.80917,-1.25961 -2.70027,-2.21535 -2.70659,-2.86835 0.11525,-0.83637 0.37888,-2.15766 0.79905,-3.9655 0.38174,-1.22576 1.3856,-2.22796 3.0146,-3.00156 1.27524,-0.61963 2.4138,-0.91334 3.41575,-0.88729 0.57084,0.0152 1.11424,0.0929 1.64083,0.24076 z m 111.26741,30.3292 -3.00201,15.51277 4.63695,0.0433 -1.18857,5.16497 -10.1998,-10e-4 4.14496,-20.75677 5.60847,0.0371 z m -81.5281,-21.15967 -2.39755,5.30797 2.67476,0.25124 -0.27721,-5.55921 z m 66.8219,20.38115 c 1.01499,0.24854 1.83404,0.7646 2.47838,1.60302 0.73018,0.95173 1.07839,2.104 1.04313,3.4576 -0.0821,0.59755 -0.24246,1.18969 -0.50089,1.73809 -0.63506,1.36029 -1.69666,2.51875 -3.18842,3.5235 1.89706,1.3374 2.89374,3.28503 2.98315,5.81885 -0.0371,1.42023 -0.75088,2.62704 -2.10892,3.61319 -0.83668,0.57769 -1.75044,1.01372 -2.75712,1.29837 l -11.78432,-0.327 4.36562,-20.83117 5.36502,0.0718 4.10441,0.0337 z m -109.19338,-29.33663 -4.35123,20.90205 -5.29187,-0.21942 1.5325,-6.44369 -1.77117,-3.48627 -2.17455,9.94973 -5.16949,-0.0528 4.25039,-21.39747 4.15601,0.21495 2.51299,5.82615 1.20405,-5.5955 5.10239,0.30221 z m 91.5582,28.50604 0.99462,21.16938 -5.32779,0.0385 -0.18796,-3.52863 -5.22112,-0.23372 -2.0321,3.70062 -6.195,-0.0945 c 7.14347,-12.51562 11.08261,-19.58369 11.79114,-21.20845 l 6.17821,0.15695 z m 14.03083,5.27878 c -0.0923,-0.0197 -0.18918,-0.0419 -0.28905,-0.0444 l -1.09629,-0.027 -0.73196,3.716 c 1.13405,-0.0592 2.00338,-0.45095 2.62165,-1.16765 0.41099,-0.43342 0.6147,-0.78156 0.62225,-1.07007 0.0104,-0.39938 -0.11573,-0.73594 -0.39726,-1.00978 -0.21118,-0.20534 -0.45187,-0.33962 -0.72935,-0.39682 z m -128.2556,-34.06252 c 2.3634,0.48363 3.64279,1.70358 3.83657,3.6406 -0.5931,3.15995 -1.43465,7.39057 -2.50491,12.66997 -0.2532,1.19257 -0.77306,2.18188 -1.55009,3.02765 -1.14195,1.21378 -2.70955,1.80142 -4.68453,1.74997 -3.75029,-0.0978 -5.64399,-1.52196 -5.70542,-4.27704 -0.0164,-0.22241 -0.009,-0.45333 0.0206,-0.69681 0.0296,-0.28792 0.0468,-0.55537 0.0537,-0.82155 0.008,-0.26634 0.18214,-1.38142 0.52096,-3.30457 0.42041,-2.49837 0.91368,-4.81468 1.50239,-6.95337 0.53945,-1.9623 1.84979,-3.40218 3.93902,-4.3248 1.371,-0.63045 2.49565,-0.89118 3.35939,-0.80205 0.55474,0.0149 0.96966,0.0412 1.21264,0.092 z m 96.5586,28.81433 -3.66275,20.95346 -4.74493,-0.1392 3.54167,-20.75187 4.86601,-0.0624 z M 464.93892,736.85808 c 0.36911,0.1045 0.68898,0.23815 0.99562,0.40158 1.46883,0.72673 2.23425,1.98395 2.29895,3.76211 l -0.57491,3.25645 -4.48943,0.0299 c 0.028,-0.2213 0.0295,-0.42635 0.0346,-0.62606 0.029,-1.13181 -0.29304,-1.72282 -1.00314,-1.74131 -0.64352,-0.0169 -1.17524,0.35435 -1.59375,1.07621 -0.35225,1.58971 -0.8613,3.96846 -1.52152,7.14888 -0.0776,0.41993 -0.0324,0.79177 0.13698,1.10703 0.19162,0.31587 0.47744,0.45952 0.87692,0.4699 1.22047,0.0323 1.95201,-0.93746 2.15941,-2.93062 0.68907,-0.0265 2.2164,-0.0588 4.6165,-0.12941 -0.0293,0.26566 -0.0841,0.68472 -0.21079,1.28102 -1.08552,5.01246 -3.59732,7.48115 -7.50294,7.37936 -1.90845,-0.0501 -3.32953,-0.59537 -4.27991,-1.61938 -0.69104,-0.7508 -1.02165,-1.53258 -0.9997,-2.37575 0.0204,-0.79895 0.27788,-2.65924 0.81906,-5.53189 0.61648,-3.20385 1.17087,-5.477 1.67277,-6.84078 0.52462,-1.38528 1.55011,-2.48613 3.0589,-3.29067 1.3739,-0.74141 2.80923,-1.09045 4.29606,-1.05173 0.43185,0.0445 0.841,0.12113 1.21026,0.2252 z m 14.21212,6.09681 c -0.1377,-0.0475 -0.30705,-0.0588 -0.4846,-0.0634 -0.42169,-0.0112 -0.83917,0.15035 -1.27006,0.49441 -0.43031,0.32185 -0.68798,0.68436 -0.78655,1.05929 l -0.0312,-0.009 c -0.19093,0.50579 -0.52399,1.91925 -0.98489,4.28334 -0.43567,2.23143 -0.65547,3.52406 -0.66355,3.8347 -0.0179,0.6879 0.28686,1.04148 0.95259,1.05885 0.64355,0.0169 1.15402,-0.15952 1.47396,-0.50647 0.25101,-0.25995 0.36771,-0.5692 0.37641,-0.90215 0.002,-0.0888 -0.006,-0.20737 -0.024,-0.40778 l 1.78267,-8.61703 c -0.0976,-0.0913 -0.20315,-0.17749 -0.3407,-0.22541 z m 83.59764,23.2881 c 2.63972,0.47929 3.90217,2.42412 3.81314,5.84143 -0.0875,0.7972 -0.27364,1.56034 -0.58123,2.28505 -0.75699,1.77902 -2.02279,3.26331 -3.80826,4.46036 l 3.45997,8.52215 -5.72485,-0.10175 -1.87525,-7.32675 -1.77506,0.25829 -1.44369,6.7351 -5.69126,-0.22659 4.86464,-20.69709 c 3.50966,-0.0417 6.02866,-0.002 7.55754,0.1266 0.4328,0.009 0.82712,0.0548 1.20426,0.12313 z m 27.13399,8.53575 -2.38918,5.27685 2.6352,0.27398 -0.24602,-5.55083 z m 17.67583,5.15563 c -0.46314,-0.11813 -1.02164,-0.16361 -1.66604,-0.1471 l -0.64569,3.27091 c 0.55365,0.0587 1.3637,0.0569 2.47559,-0.002 0.89341,-0.19879 1.37681,-0.77562 1.40168,-1.72982 0.007,-0.26634 -0.1444,-0.52622 -0.44756,-0.82277 -0.28214,-0.2516 -0.65473,-0.4507 -1.11798,-0.56823 z m -62.25318,-14.7378 0.98622,21.2006 -5.31941,0.008 -0.16515,-3.4891 -5.25229,-0.24218 -2.00094,3.70903 -6.19498,-0.0945 c 7.14345,-12.51563 11.0514,-19.59206 11.75993,-21.21684 l 6.18662,0.12563 z m 14.66425,5.78357 c -0.19002,-0.0615 -0.41657,-0.10687 -0.67174,-0.11362 -0.0666,-0.001 -0.41504,0.0607 -1.0842,0.17647 l -1.0675,4.96349 c 2.05716,-0.54597 3.26274,-1.79047 3.64654,-3.73472 0.0177,-0.68227 -0.25342,-1.10589 -0.82312,-1.29155 z m -29.05129,-6.00796 -11.2515,20.8185 -6.7527,-0.01 -0.0506,-20.94896 5.44418,0.0261 -0.0954,12.41518 7.12874,-12.32921 5.57729,0.0286 z m 9.42226,8.48709 -2.39757,5.30809 2.6352,0.27397 -0.23763,-5.58206 z"
       id="rect5641-7-9-6-9-1-8-6-6-3-8-1"
       inkscape:connector-curvature="0" />
  </g>
</svg>
