<?xml version="1.0" encoding="UTF-8" standalone="no"?>
<!-- Created with Inkscape (http://www.inkscape.org/) -->

<svg
   xmlns:dc="http://purl.org/dc/elements/1.1/"
   xmlns:cc="http://creativecommons.org/ns#"
   xmlns:rdf="http://www.w3.org/1999/02/22-rdf-syntax-ns#"
   xmlns:svg="http://www.w3.org/2000/svg"
   xmlns="http://www.w3.org/2000/svg"
   xmlns:sodipodi="http://sodipodi.sourceforge.net/DTD/sodipodi-0.dtd"
   xmlns:inkscape="http://www.inkscape.org/namespaces/inkscape"
   width="225"
   height="104.88189"
   id="svg22401"
   version="1.1"
   inkscape:version="0.48.2 r9819"
   sodipodi:docname="logo_sticker_rood.svg">
  <defs
     id="defs22403" />
  <sodipodi:namedview
     id="base"
     pagecolor="#ffffff"
     bordercolor="#666666"
     borderopacity="1.0"
     inkscape:pageopacity="0.0"
     inkscape:pageshadow="2"
     inkscape:zoom="1.46"
     inkscape:cx="4.7260274"
     inkscape:cy="8.5714286"
     inkscape:document-units="mm"
     inkscape:current-layer="layer1"
     showgrid="false"
     units="mm"
     inkscape:window-width="1366"
     inkscape:window-height="744"
     inkscape:window-x="0"
     inkscape:window-y="24"
     inkscape:window-maximized="1" />
  <metadata
     id="metadata22406">
    <rdf:RDF>
      <cc:Work
         rdf:about="">
        <dc:format>image/svg+xml</dc:format>
        <dc:type
           rdf:resource="http://purl.org/dc/dcmitype/StillImage" />
        <dc:title></dc:title>
      </cc:Work>
    </rdf:RDF>
  </metadata>
  <g
     inkscape:label="Layer 1"
     inkscape:groupmode="layer"
     id="layer1"
     transform="translate(0,-947.4803)">
    <rect
       style="fill:#ff5034;fill-opacity:1;fill-rule:nonzero;stroke:none;display:inline"
       id="rect21234-0-9-6"
       width="224.67682"
       height="104.55873"
       x="0"
       y="947.80347"
       rx="11.458396"
       ry="11.458396" />
    <path
       style="fill:#000000;fill-opacity:1;fill-rule:nonzero;stroke:#000000;stroke-width:0.32317552;stroke-miterlimit:4;stroke-opacity:1;stroke-dasharray:none;stroke-dashoffset:0;display:inline"
       d="m 11.630339,948.18823 c -6.3480012,0 -11.46875124,5.08962 -11.46875124,11.4375 l 0,41.81257 224.68762224,0 0,-41.81257 c 0,-6.34788 -5.12087,-11.4375 -11.46887,-11.4375 l -201.750001,0 z m 162.687501,11.90625 c 5.20512,0 7.90537,1.89975 8.09375,5.71875 0.0312,0.30787 0.03,0.62987 0,0.96875 -0.03,0.40037 -0.0312,0.78675 -0.0312,1.15625 3.7e-4,0.36962 -0.19588,1.8825 -0.59375,4.5625 -0.48938,3.48075 -1.10738,6.7305 -1.84375,9.71875 -0.675,2.74175 -2.44938,4.76712 -5.3125,6.125 -1.87788,0.92575 -3.42375,1.3725 -4.625,1.28125 -0.77,7.5e-4 -1.31738,-0.0325 -1.65613,-0.0937 -3.29625,-0.58225 -5.1275,-2.227 -5.46887,-4.90625 0.70437,-4.405 1.71325,-10.29388 3,-17.65625 0.30637,-1.6635 0.98512,-3.07913 2.03125,-4.28125 1.53837,-1.72625 3.66512,-2.59113 6.40625,-2.59375 z m -14.34363,0.59375 -5.09387,29.875 -5.78113,-0.15625 -3.68762,-7.96875 -1.43738,7.8125 -7.09387,-0.25 5.21887,-29.15625 7.40613,0.0937 -1.9375,9 2.59375,4.78125 2.65625,-13.875 7.15637,-0.15625 z m -95.156371,0.0937 -5.093625,29.84375 -5.781375,-0.125 -3.6875,-8 -1.4375,7.8125 -7.125,-0.21875 5.25,-29.15625 7.406375,0.0937 -1.937625,9 2.59375,4.75 2.65625,-13.84375 7.15625,-0.15625 z m 43.718751,0.0625 -3.21875,22.4375 5.875,-0.125 -1.125,6.5625 -17.968627,0.46875 0.875,-6.40625 4.625,-0.15625 3.437377,-22.5625 7.5,-0.21875 z m -72.343751,0.0625 -3.218625,22.46875 5.875,-0.15625 -1.093875,6.5625 -17.96875,0.46875 0.875,-6.40625 4.59375,-0.15625 3.468875,-22.53125 7.468625,-0.25 z m 59.093749,0 c -9.439,17.62625 -14.609374,27.56362 -15.531249,29.84375 l -8.59375,0.0625 -2.15625,-29.34375 7.40625,-0.21875 0.34375,4.84375 7.28125,0.125 2.656249,-5.21875 8.59375,-0.0937 z m 31.187622,0.0625 c 2.296,0 4.19875,0.49887 5.68738,1.5 1.19725,0.775 1.81175,1.5375 1.81262,2.28125 2.5e-4,0.42037 -0.32675,2.55612 -0.93762,6.4375 l -5.875,-0.0312 c 0.19337,-0.71175 0.31175,-1.29838 0.34375,-1.71875 -0.001,-1.229 -0.58463,-1.84488 -1.78113,-1.84375 -1.74637,0 -2.62775,1.4365 -2.625,4.25 0.29188,1.00225 1.75263,2.38 4.40613,4.15625 2.55637,1.67925 3.873,2.9695 3.90625,3.875 -0.12825,1.16425 -0.45375,3.00825 -0.96875,5.53125 -0.4835,1.71437 -1.83213,3.14725 -4.0625,4.28125 -1.7455,0.90712 -3.32813,1.34237 -4.71875,1.34375 -1.58463,0 -3.04725,-0.35125 -4.40625,-1.09375 -1.55313,-0.83938 -2.48763,-1.9825 -2.8125,-3.4375 -0.195,-1.00238 -0.19313,-2.526 0.0312,-4.53125 l 5.68737,-0.1875 c 0.0662,1.5845 0.76663,2.4645 2.125,2.625 0.74388,-7.5e-4 1.38838,-0.3225 1.93763,-0.9375 0.517,-0.58263 0.7815,-1.10875 0.78112,-1.59375 -0.001,-1.06725 -0.70237,-2.03438 -2.09375,-2.90625 -1.39137,-0.87188 -2.76587,-1.723 -4.125,-2.5625 -1.58587,-1.29213 -2.54975,-2.935 -2.875,-4.875 0.16013,-1.77888 0.69138,-3.76788 1.56263,-6 0.38687,-1.06763 1.32562,-2.06188 2.81237,-2.96875 1.81,-1.06888 3.85913,-1.59163 6.18763,-1.59375 z m 70.875,0.5625 c 2.64863,0 4.64338,0.709 6,2.09375 0.98638,1.0155 1.49875,2.11087 1.5,3.28125 8.8e-4,1.10875 -0.32575,3.65175 -0.96887,7.65625 -0.735,4.46662 -1.4175,7.65237 -2.0625,9.5625 -0.67563,1.941 -2.0625,3.51512 -4.125,4.6875 -1.87763,1.07975 -3.84275,1.59187 -5.90625,1.59375 -1.20125,-0.0912 -2.231,-0.35088 -3.09375,-0.78125 -2.0645,-0.95288 -3.15625,-2.66125 -3.3125,-5.125 l 0.6875,-4.5625 6.21875,-0.1875 c -0.03,0.308 -0.0325,0.59787 -0.0312,0.875 0,1.57087 0.48325,2.34462 1.46887,2.34375 0.89313,-8.8e-4 1.634,-0.48313 2.18738,-1.5 0.42912,-2.218 1.01587,-5.564 1.81262,-10 0.0913,-0.58525 0.0275,-1.10025 -0.21887,-1.53125 -0.27763,-0.43088 -0.69563,-0.6255 -1.25,-0.625 -1.694,0 -2.662,1.38412 -2.875,4.15625 -0.95463,0.0625 -3.08013,0.18712 -6.40613,0.375 0.03,-0.36963 0.12813,-0.98075 0.28113,-1.8125 1.31787,-6.99275 4.673,-10.49488 10.09387,-10.5 z m -23.06262,5.8125 c -0.89325,8.7e-4 -1.56925,0.25687 -2,0.75 -0.3385,0.37 -0.50038,0.75675 -0.5,1.21875 1.2e-4,0.12375 0.0325,0.34775 0.0625,0.625 l -2.18763,12 c 0.2775,0.24612 0.6635,0.3755 1.15625,0.375 0.58525,-6.3e-4 1.1965,-0.25663 1.78138,-0.75 0.58462,-0.4625 0.93962,-0.945 1.06237,-1.46875 l 0.0312,0 c 0.24588,-0.70863 0.63638,-2.704 1.1875,-6 0.52088,-3.11138 0.78163,-4.88125 0.78125,-5.3125 -8.7e-4,-0.95475 -0.451,-1.43838 -1.375,-1.4375 z m -97.093751,4.09375 0.5625,7.71875 3.125,-7.4375 -3.6875,-0.28125 z"
       id="rect21234-0"
       inkscape:connector-curvature="0" />
    <g
       transform="matrix(1.1435663,-0.00106852,0.00106852,1.1435663,68.201364,400.7926)"
       style="font-size:40px;font-style:normal;font-weight:normal;line-height:125%;letter-spacing:0px;word-spacing:0px;fill:#000000;fill-opacity:1;stroke:none;display:inline;font-family:Sans"
       id="flowRoot3516-3-8-26-1-9-7-8">
      <path
         d="m -31.6225,558.52748 -8.12,0.2 -0.72,-25.16 6.56,-0.12 0.28,14.88 8.16,-15 6.72,-0.16 -12.88,25.36"
         style="font-variant:normal;font-weight:800;font-stretch:condensed;text-align:center;line-height:88.99999857%;text-anchor:middle;font-family:Crickx;-inkscape-font-specification:Crickx Ultra-Bold Condensed"
         id="path9422-1-9-9"
         inkscape:connector-curvature="0" />
      <path
         d="m -7.18,543.08748 -2.72,6.44 3.2,0.24 -0.48,-6.68 m -5.44,11.2 -2.32,4.52 -7.44,0.08 c 8.186659,-15.25332 12.6799882,-23.86665 13.48,-25.84 l 7.44,-0.04 1.84,25.4 -6.4,0.2 -0.32,-4.2 -6.28,-0.12"
         style="font-variant:normal;font-weight:800;font-stretch:condensed;text-align:center;line-height:88.99999857%;text-anchor:middle;font-family:Crickx;-inkscape-font-specification:Crickx Ultra-Bold Condensed"
         id="path9424-67-93-3"
         inkscape:connector-curvature="0" />
      <path
         d="m 10.640625,558.76748 -6.88,-0.08 5.2,-25 c 4.213323,-0.15998 7.239986,-0.18665 9.08,-0.08 4.15998,-0.0267 6.239978,2.30668 6.24,7 -0.08002,0.96001 -0.293355,1.88001 -0.64,2.76 -0.853353,2.16001 -2.333352,3.98667 -4.44,5.48 l 4.44,10.12 -6.88,0.04 -2.48,-8.72 -2.12,0.36 -1.52,8.12 m 6.72,-17.76 c -1.5e-5,-1.09332 -0.613347,-1.63999 -1.84,-1.64 -0.08001,10e-6 -0.520012,0.08 -1.32,0.24 l -1.12,6 c 2.45332,-0.71999 3.879986,-2.25332 4.28,-4.6"
         style="font-variant:normal;font-weight:800;font-stretch:condensed;text-align:center;line-height:88.99999857%;text-anchor:middle;font-family:Crickx;-inkscape-font-specification:Crickx Ultra-Bold Condensed"
         id="path9426-3-2-1"
         inkscape:connector-curvature="0" />
      <path
         d="m 33.085625,558.88748 -5.68,0 3.6,-25.04 5.84,-0.24 -3.76,25.28"
         style="font-variant:normal;font-weight:800;font-stretch:condensed;text-align:center;line-height:88.99999857%;text-anchor:middle;font-family:Crickx;-inkscape-font-specification:Crickx Ultra-Bold Condensed"
         id="path9428-86-4-4"
         inkscape:connector-curvature="0" />
      <path
         d="m 52.35125,543.08748 -2.72,6.44 3.2,0.24 -0.48,-6.68 m -5.44,11.2 -2.32,4.52 -7.44,0.08 c 8.186659,-15.25332 12.679988,-23.86665 13.48,-25.84 l 7.44,-0.04 1.84,25.4 -6.4,0.2 -0.32,-4.2 -6.28,-0.12"
         style="font-variant:normal;font-weight:800;font-stretch:condensed;text-align:center;line-height:88.99999857%;text-anchor:middle;font-family:Crickx;-inkscape-font-specification:Crickx Ultra-Bold Condensed"
         id="path9430-3-3-8"
         inkscape:connector-curvature="0" />
      <path
         d="m 76.491875,540.56748 c -1.4e-5,-0.47999 -0.173347,-0.87999 -0.52,-1.2 -0.34668,-0.31999 -0.760013,-0.47998 -1.24,-0.48 l -1.32,0 -0.76,4.48 c 1.359988,-0.10666 2.399987,-0.59999 3.12,-1.48 0.479986,-0.53332 0.719986,-0.97332 0.72,-1.32 m -5.44,12 c 0.666657,0.0533 1.666656,0.0267 3,-0.08 1.066654,-0.26666 1.599987,-0.97333 1.6,-2.12 -1.3e-5,-0.32 -0.18668,-0.65333 -0.56,-1 -0.693346,-0.58666 -1.813344,-0.83999 -3.36,-0.76 l -0.68,3.96 m 8.2,-19.12 c 1.226648,0.26669 2.239981,0.89335 3.04,1.88 0.906646,1.12002 1.359979,2.49335 1.36,4.12 -0.08002,0.72001 -0.266688,1.41335 -0.56,2.08 -0.72002,1.65334 -1.960019,3.10668 -3.72,4.36 2.31998,1.54667 3.573313,3.84 3.76,6.88 -2.1e-5,1.70667 -0.80002,3.17333 -2.4,4.4 -0.986684,0.72 -2.080016,1.26666 -3.28,1.64 l -14.16,0 4.6,-25.16 6.44,-0.08 4.92,-0.12"
         style="font-variant:normal;font-weight:800;font-stretch:condensed;text-align:center;line-height:88.99999857%;text-anchor:middle;font-family:Crickx;-inkscape-font-specification:Crickx Ultra-Bold Condensed"
         id="path9432-8-7-9"
         inkscape:connector-curvature="0" />
      <path
         d="m 98.15,558.80748 -12.28,0.32 4.32,-25.04 6.76,-0.16 -3.12,18.76 5.56,-0.12 -1.24,6.24"
         style="font-variant:normal;font-weight:800;font-stretch:condensed;text-align:center;line-height:88.99999857%;text-anchor:middle;font-family:Crickx;-inkscape-font-specification:Crickx Ultra-Bold Condensed"
         id="path9434-4-12-6"
         inkscape:connector-curvature="0" />
      <path
         d="m 116.6,538.72748 -5.36,0.2 -0.72,4.64 5.32,-0.16 -0.8,4.96 -5.48,0.16 -0.52,4.64 5.24,-0.12 -1.08,5.56 -11,0.12 c 0.66666,-3.62667 2,-12.03999 4,-25.24 l 11.04,-0.08 -0.64,5.32"
         style="font-variant:normal;font-weight:800;font-stretch:condensed;text-align:center;line-height:88.99999857%;text-anchor:middle;font-family:Crickx;-inkscape-font-specification:Crickx Ultra-Bold Condensed"
         id="path9436-0-2-7"
         inkscape:connector-curvature="0" />
    </g>
  </g>
</svg>
