<?xml version="1.0" encoding="UTF-8" standalone="no"?>
<!-- Created with Inkscape (http://www.inkscape.org/) -->

<svg
   xmlns:dc="http://purl.org/dc/elements/1.1/"
   xmlns:cc="http://creativecommons.org/ns#"
   xmlns:rdf="http://www.w3.org/1999/02/22-rdf-syntax-ns#"
   xmlns:svg="http://www.w3.org/2000/svg"
   xmlns="http://www.w3.org/2000/svg"
   xmlns:sodipodi="http://sodipodi.sourceforge.net/DTD/sodipodi-0.dtd"
   xmlns:inkscape="http://www.inkscape.org/namespaces/inkscape"
   width="1052.3622"
   height="744.09448"
   id="svg2"
   version="1.1"
   inkscape:version="0.48.1 r9760"
   sodipodi:docname="names.svg">
  <defs
     id="defs4">
    <inkscape:path-effect
       effect="spiro"
       id="path-effect3075"
       is_visible="true" />
    <inkscape:path-effect
       effect="spiro"
       id="path-effect3071"
       is_visible="true" />
    <inkscape:path-effect
       effect="spiro"
       id="path-effect3067"
       is_visible="true" />
    <inkscape:path-effect
       effect="spiro"
       id="path-effect3063"
       is_visible="true" />
    <inkscape:path-effect
       effect="spiro"
       id="path-effect3059"
       is_visible="true" />
    <inkscape:path-effect
       effect="spiro"
       id="path-effect3055"
       is_visible="true" />
    <inkscape:path-effect
       effect="spiro"
       id="path-effect3051"
       is_visible="true" />
  </defs>
  <sodipodi:namedview
     id="base"
     pagecolor="#ffffff"
     bordercolor="#666666"
     borderopacity="1.0"
     inkscape:pageopacity="0.0"
     inkscape:pageshadow="2"
     inkscape:zoom="0.7"
     inkscape:cx="550.9724"
     inkscape:cy="385.32817"
     inkscape:document-units="px"
     inkscape:current-layer="text3005"
     showgrid="false"
     inkscape:window-width="1366"
     inkscape:window-height="744"
     inkscape:window-x="0"
     inkscape:window-y="24"
     inkscape:window-maximized="1" />
  <metadata
     id="metadata7">
    <rdf:RDF>
      <cc:Work
         rdf:about="">
        <dc:format>image/svg+xml</dc:format>
        <dc:type
           rdf:resource="http://purl.org/dc/dcmitype/StillImage" />
        <dc:title></dc:title>
      </cc:Work>
    </rdf:RDF>
  </metadata>
  <g
     inkscape:label="Laag 1"
     inkscape:groupmode="layer"
     id="layer1"
     transform="translate(0,-308.2677)">
    <g
       style="font-size:343.2215271px;font-style:italic;font-variant:normal;font-weight:bold;font-stretch:normal;text-align:start;line-height:125%;letter-spacing:0px;word-spacing:0px;writing-mode:lr-tb;text-anchor:start;fill:#000000;fill-opacity:1;stroke:none;font-family:Crickx;-inkscape-font-specification:Crickx Bold Italic"
       id="text3005">
      <path
         d="m 247.04792,367.35235 84.77572,0 -8.23731,37.75436 -37.06793,1.02967 -4.8051,25.74161 36.38148,-1.37288 -8.58054,38.44081 -33.97893,1.71611 -12.35597,68.6443 -49.4239,0 33.29248,-171.95398"
         id="path3010"
         inkscape:connector-curvature="0" />
      <path
         d="m 235.47569,367.39995 -48.73746,0 -108.030736,171.56316 50.110346,0.68644 106.65785,-172.2496"
         id="path3012"
         inkscape:connector-curvature="0"
         sodipodi:nodetypes="ccccc" />
      <path
         d="m 360.39942,368.38201 44.6188,0 -25.39839,124.58941 39.12725,-0.34322 -10.98309,45.99169 -82.71638,0.68644 35.35181,-170.92432"
         id="path3014"
         inkscape:connector-curvature="0" />
      <path
         d="m 531.27012,365.97946 -8.92376,45.30524 c 0,0 -1.71612,-2.74577 -8.23732,-2.74577 -9.26697,0 -12.6992,12.01275 -12.6992,11.66953 l -13.38564,68.30109 c 0,0 -2.74575,8.92375 9.95343,8.92375 9.26697,0 14.07208,-6.5212 14.07208,-6.5212 l 25.05517,-124.93264 c 41.87299,10.29664 35.69503,51.82649 28.14417,88.89438 -14.41529,71.73322 -44.96205,84.43249 -77.91129,86.49182 -23.33904,1.37288 -57.31798,-12.01284 -40.84336,-95.41558 18.87716,-93.69939 84.77572,-79.97062 84.77572,-79.97062"
         id="path3016"
         inkscape:connector-curvature="0" />
      <path
         d="m 596.43425,409.91182 c 0,0 14.75857,-41.87303 61.77987,-41.87303 64.18236,0 45.30524,59.0341 45.30524,59.0341 L 662.676,425.70001 c 0,0 4.80509,-15.78819 -8.23732,-15.78819 -15.44495,0 -16.47463,12.35597 -16.47463,12.35597 -4.11865,20.93649 62.80953,16.47468 54.229,59.37732 0,0 -2.05939,57.66122 -65.89853,57.66122 -65.89847,0 -43.58914,-60.06377 -43.58914,-60.06377 l 37.75437,0 c 0,0 -6.52119,17.16108 10.98309,17.16108 12.69919,0 13.38564,-12.6992 13.38564,-12.6992 4.8051,-22.99582 -59.37732,-18.19076 -53.88578,-44.96202 l 5.49155,-28.8306"
         id="path3018"
         inkscape:connector-curvature="0" />
      <path
         d="m 730.49412,409.91182 c 0,0 14.75857,-41.87303 61.77988,-41.87303 64.18236,0 45.30524,59.0341 45.30524,59.0341 l -40.84336,-1.37288 c 0,0 4.80508,-15.78819 -8.23732,-15.78819 -15.44495,0 -16.47463,12.35597 -16.47463,12.35597 -4.11866,20.93649 62.80953,16.47468 54.229,59.37732 0,0 -2.0594,57.66122 -65.89854,57.66122 -65.89846,0 -43.58913,-60.06377 -43.58913,-60.06377 l 37.75437,0 c 0,0 -6.52119,17.16108 10.98309,17.16108 12.69918,0 13.38564,-12.6992 13.38564,-12.6992 4.80509,-22.99582 -59.37732,-18.19076 -53.88578,-44.96202 l 5.49154,-28.8306"
         id="path3020"
         inkscape:connector-curvature="0" />
    </g>
  </g>
</svg>
