<?xml version="1.0" encoding="UTF-8" standalone="no"?>
<!-- Created with Inkscape (http://www.inkscape.org/) -->

<svg
   xmlns:dc="http://purl.org/dc/elements/1.1/"
   xmlns:cc="http://creativecommons.org/ns#"
   xmlns:rdf="http://www.w3.org/1999/02/22-rdf-syntax-ns#"
   xmlns:svg="http://www.w3.org/2000/svg"
   xmlns="http://www.w3.org/2000/svg"
   xmlns:sodipodi="http://sodipodi.sourceforge.net/DTD/sodipodi-0.dtd"
   xmlns:inkscape="http://www.inkscape.org/namespaces/inkscape"
   width="265.74802"
   height="407.48032"
   id="svg4789"
   version="1.1"
   inkscape:version="0.48.1 r9760"
   sodipodi:docname="logo_stickers.svg">
  <defs
     id="defs4791" />
  <sodipodi:namedview
     id="base"
     pagecolor="#ffffff"
     bordercolor="#666666"
     borderopacity="1.0"
     inkscape:pageopacity="0.0"
     inkscape:pageshadow="2"
     inkscape:zoom="0.98994949"
     inkscape:cx="214.38115"
     inkscape:cy="191.8491"
     inkscape:document-units="mm"
     inkscape:current-layer="layer1"
     showgrid="false"
     units="mm"
     showguides="true"
     inkscape:guide-bbox="true"
     inkscape:window-width="743"
     inkscape:window-height="599"
     inkscape:window-x="63"
     inkscape:window-y="157"
     inkscape:window-maximized="0" />
  <metadata
     id="metadata4794">
    <rdf:RDF>
      <cc:Work
         rdf:about="">
        <dc:format>image/svg+xml</dc:format>
        <dc:type
           rdf:resource="http://purl.org/dc/dcmitype/StillImage" />
        <dc:title></dc:title>
      </cc:Work>
    </rdf:RDF>
  </metadata>
  <g
     inkscape:label="Laag 1"
     inkscape:groupmode="layer"
     id="layer1"
     transform="translate(0,-644.88189)">
    <path
       inkscape:connector-curvature="0"
       style="fill:none;stroke:#1a1a1a;stroke-width:0.50727105"
       d="m 14.426864,666.39537 236.894316,0 0,119.96517 -236.894316,0 z"
       id="rect3095" />
    <path
       inkscape:connector-curvature="0"
       style="fill:none;stroke:#1a1a1a;stroke-width:0.50727105"
       d="m 14.426864,797.49778 236.894316,0 0,119.96512 -236.894316,0 z"
       id="rect3095-4" />
    <path
       inkscape:connector-curvature="0"
       style="fill:none;stroke:#1a1a1a;stroke-width:0.50727105"
       d="m 14.426864,926.82845 236.894316,0 0,119.96515 -236.894316,0 z"
       id="rect3095-4-6" />
    <g
       transform="translate(29.667383,685.18568)"
       style="font-size:72px;font-style:normal;font-variant:normal;font-weight:normal;font-stretch:normal;line-height:125%;letter-spacing:0px;word-spacing:0px;fill:#000000;fill-opacity:1;stroke:none;font-family:League Gothic Extended;-inkscape-font-specification:League Gothic Extended"
       id="flowRoot3054">
      <path
         inkscape:connector-curvature="0"
         d="m 21.62725,28.549356 0,-10.396 c -2e-5,-0.919945 -0.122686,-1.747945 -0.368,-2.484 -0.184019,-0.613277 -0.521352,-1.165276 -1.012,-1.656 -0.429351,-0.551942 -1.07335,-0.827941 -1.932,-0.828 -0.858682,5.9e-5 -1.533348,0.276058 -2.024,0.828 -0.429347,0.490724 -0.736014,1.042723 -0.92,1.656 -0.245346,0.736055 -0.368013,1.564055 -0.368,2.484 l 0,40.664 c -1.3e-5,0.981345 0.122654,1.809345 0.368,2.484 0.183986,0.674677 0.490653,1.257343 0.92,1.748 0.490652,0.490675 1.165318,0.736008 2.024,0.736 0.85865,8e-6 1.502649,-0.245325 1.932,-0.736 0.490648,-0.490657 0.827981,-1.073323 1.012,-1.748 0.245314,-0.674655 0.36798,-1.502655 0.368,-2.484 l 0,-12.236 -3.956,0 0,-8.372 13.892,0 0,33.672 -5.888,0 -1.196,-3.22 c -0.920022,1.165335 -2.054687,2.116001 -3.404,2.852 -1.288018,0.736 -2.72935,1.103999 -4.324,1.104 -1.59468,-10e-7 -2.974678,-0.214667 -4.14,-0.644 -1.165343,-0.368 -2.177342,-0.889333 -3.036,-1.564 -0.7973401,-0.735998 -1.4720061,-1.53333 -2.024,-2.392 -0.552005,-0.858662 -1.0120045,-1.747994 -1.38,-2.668 -0.7973367,-2.146658 -1.1653363,-4.599989 -1.104,-7.36 l 0,-39.836 c 0.1226635,-2.69861 0.674663,-5.121275 1.656,-7.268 0.4293282,-0.9199382 0.950661,-1.8092706 1.564,-2.6680001 0.6133265,-0.9199354 1.3799924,-1.7172679 2.3,-2.392 0.919991,-0.6745999 2.023989,-1.2265994 3.312,-1.656 1.287987,-0.4292652 2.759985,-0.6439316 4.416,-0.644 1.655982,6.84e-5 3.097314,0.2147348 4.324,0.644 1.287978,0.4294006 2.391977,0.9814001 3.312,1.656 0.919975,0.6747321 1.686641,1.4720646 2.3,2.392 0.67464,0.8587295 1.226639,1.7480619 1.656,2.6680001 0.981304,2.146725 1.533304,4.56939 1.656,7.268 l 0,10.396 -9.936,0"
         style="font-size:92px"
         id="path4057" />
      <path
         inkscape:connector-curvature="0"
         d="m 36.01375,71.881356 10.212,-67.6200001 12.144,0 10.212,67.6200001 -9.66,0 -1.84,-13.8 -9.568,0 -1.84,13.8 -9.66,0 m 16.836,-45.632 -0.276,-1.748 -0.552,0 -0.276,1.748 -2.852,21.344 6.808,0 -2.852,-21.344"
         style="font-size:92px"
         id="path4059" />
      <path
         inkscape:connector-curvature="0"
         d="m 73.094063,4.2613559 9.935999,0 0,58.4200001 13.156,0 0,9.2 -23.091999,0 0,-67.6200001"
         style="font-size:92px"
         id="path4061" />
      <path
         inkscape:connector-curvature="0"
         d="m 100.22688,4.2613559 9.936,0 0,58.4200001 13.15599,0 0,9.2 -23.09199,0 0,-67.6200001"
         style="font-size:92px"
         id="path4063" />
      <path
         inkscape:connector-curvature="0"
         d="m 125.49813,71.881356 10.21199,-67.6200001 12.144,0 10.212,67.6200001 -9.66,0 -1.84,-13.8 -9.56799,0 -1.84001,13.8 -9.65999,0 m 16.83599,-45.632 -0.276,-1.748 -0.552,0 -0.276,1.748 -2.852,21.344 6.808,0 -2.852,-21.344"
         style="font-size:92px"
         id="path4065" />
      <path
         inkscape:connector-curvature="0"
         d="m 162.57844,4.2613559 9.936,0 0,67.6200001 -9.936,0 0,-67.6200001"
         style="font-size:92px"
         id="path4067" />
      <path
         inkscape:connector-curvature="0"
         d="m 176.33244,14.473356 0,-10.2120001 28.704,0 0,10.2120001 -9.384,0 0,57.408 -9.936,0 0,-57.408 -9.384,0"
         style="font-size:92px"
         id="path4069" />
    </g>
    <path
       style="font-size:343.2215271px;font-style:italic;font-variant:normal;font-weight:bold;font-stretch:normal;text-align:start;line-height:125%;letter-spacing:0px;word-spacing:0px;writing-mode:lr-tb;text-anchor:start;fill:#000000;fill-opacity:1;stroke:none;font-family:Crickx;-inkscape-font-specification:Crickx Bold Italic"
       d="m 72.528647,832.33144 24.67637,0 -2.15003,11.03881 -10.24739,0.30106 -1.47878,7.52646 9.52982,-0.40141 -2.06579,11.2395 -9.63957,0.50176 -3.90805,20.07057 -14.4508,0 9.73422,-50.27675"
       id="path3010"
       inkscape:connector-curvature="0"
       sodipodi:nodetypes="ccccccccccc" />
    <path
       style="font-size:343.2215271px;font-style:italic;font-variant:normal;font-weight:bold;font-stretch:normal;text-align:start;line-height:125%;letter-spacing:0px;word-spacing:0px;writing-mode:lr-tb;text-anchor:start;fill:#000000;fill-opacity:1;stroke:none;font-family:Crickx;-inkscape-font-specification:Crickx Bold Italic"
       d="m 69.145097,832.34536 -14.250093,0 -31.586561,50.16249 14.651511,0.20068 31.185143,-50.36317"
       id="path3012"
       inkscape:connector-curvature="0"
       sodipodi:nodetypes="ccccc" />
    <path
       style="font-size:343.2215271px;font-style:italic;font-variant:normal;font-weight:bold;font-stretch:normal;text-align:start;line-height:125%;letter-spacing:0px;word-spacing:0px;writing-mode:lr-tb;text-anchor:start;fill:#000000;fill-opacity:1;stroke:none;font-family:Crickx;-inkscape-font-specification:Crickx Bold Italic"
       d="m 105.00637,832.70634 13.30429,-0.0738 -7.02,36.42806 10.84951,-0.10035 -2.62057,13.44728 -24.185033,0.20067"
       id="path3014"
       inkscape:connector-curvature="0"
       sodipodi:nodetypes="cccccc" />
    <path
       style="font-size:343.2215271px;font-style:italic;font-variant:normal;font-weight:bold;font-stretch:normal;text-align:start;line-height:125%;letter-spacing:0px;word-spacing:0px;writing-mode:lr-tb;text-anchor:start;fill:#000000;fill-opacity:1;stroke:none;font-family:Crickx;-inkscape-font-specification:Crickx Bold Italic"
       d="m 152.70707,831.93003 -2.60918,13.24657 c 0,0 -0.50176,-0.80282 -2.40846,-0.80282 -2.70952,0 -3.71305,3.51234 -3.71305,3.41199 l -3.91376,19.97023 c 0,0 -0.80282,2.60915 2.91023,2.60915 2.70952,0 4.11446,-1.9067 4.11446,-1.9067 l 7.32575,-36.52842 c 12.24304,3.01058 10.43669,15.15328 8.22894,25.99136 -4.21482,20.97374 -13.14623,24.6868 -22.78009,25.28889 -6.82398,0.40143 -16.75891,-3.51235 -11.94198,-27.89804 5.5194,-27.39629 24.78714,-23.38221 24.78714,-23.38221"
       id="path3016"
       inkscape:connector-curvature="0" />
    <path
       style="font-size:343.2215271px;font-style:italic;font-variant:normal;font-weight:bold;font-stretch:normal;text-align:start;line-height:125%;letter-spacing:0px;word-spacing:0px;writing-mode:lr-tb;text-anchor:start;fill:#000000;fill-opacity:1;stroke:none;font-family:Crickx;-inkscape-font-specification:Crickx Bold Italic"
       d="m 171.1753,844.77519 c 0,0 4.31519,-12.24304 18.0635,-12.24304 18.76596,0 13.24657,17.26068 13.24657,17.26068 l -11.94198,-0.40141 c 0,0 1.40493,-4.61623 -2.40847,-4.61623 -4.51587,0 -4.81693,3.6127 -4.81693,3.6127 -1.20423,6.12151 18.36456,4.81696 15.85574,17.36103 0,0 -0.60213,16.85927 -19.26774,16.85927 -19.26771,0 -12.7448,-17.56173 -12.7448,-17.56173 l 11.03881,0 c 0,0 -1.9067,5.01762 3.21129,5.01762 3.71305,0 3.91376,-3.71305 3.91376,-3.71305 1.40494,-6.72363 -17.36103,-5.3187 -15.75539,-13.14622 l 1.60564,-8.42962"
       id="path3018"
       inkscape:connector-curvature="0" />
    <path
       style="font-size:343.2215271px;font-style:italic;font-variant:normal;font-weight:bold;font-stretch:normal;text-align:start;line-height:125%;letter-spacing:0px;word-spacing:0px;writing-mode:lr-tb;text-anchor:start;fill:#000000;fill-opacity:1;stroke:none;font-family:Crickx;-inkscape-font-specification:Crickx Bold Italic"
       d="m 210.37238,844.77519 c 0,0 4.31518,-12.24304 18.0635,-12.24304 18.76597,0 13.24658,17.26068 13.24658,17.26068 l -11.94199,-0.40141 c 0,0 1.40493,-4.61623 -2.40847,-4.61623 -4.51586,0 -4.81693,3.6127 -4.81693,3.6127 -1.20423,6.12151 18.36457,4.81696 15.85575,17.36103 0,0 -0.60214,16.85927 -19.26774,16.85927 -19.26772,0 -12.74481,-17.56173 -12.74481,-17.56173 l 11.03881,0 c 0,0 -1.9067,5.01762 3.21129,5.01762 3.71305,0 3.91376,-3.71305 3.91376,-3.71305 1.40493,-6.72363 -17.36103,-5.3187 -15.75539,-13.14622 l 1.60564,-8.42962"
       id="path3020"
       inkscape:connector-curvature="0" />
    <g
       transform="translate(23.108423,921.69685)"
       style="font-size:36px;font-style:normal;font-variant:normal;font-weight:normal;font-stretch:extra-condensed;text-align:start;line-height:125%;letter-spacing:0px;word-spacing:0px;writing-mode:lr-tb;text-anchor:start;fill:#000000;fill-opacity:1;stroke:none;font-family:Crickx;-inkscape-font-specification:Crickx Ultra-Condensed"
       id="flowRoot3062">
      <path
         inkscape:connector-curvature="0"
         d="m 17.95125,20.12925 0.48,-3.168 c -0.128,-1.695998 -0.896001,-2.880001 -2.304,-3.552 -0.607999,-0.288 -1.312001,-0.48 -2.144,-0.544 -1.439999,0 -2.816001,0.384001 -4.096,1.12 -1.4399986,0.831999 -2.4000004,1.888001 -2.848,3.232 -0.4479996,1.343999 -0.9280005,3.552003 -1.44,6.624 -0.4479996,2.783997 -0.672,4.544001 -0.672,5.312 0,0.831999 0.3200007,1.568001 1.024,2.272 0.9279991,0.959999 2.3040019,1.44 4.16,1.44 3.743996,0 6.080001,-2.400005 7.008,-7.264 0.096,-0.575999 0.16,-0.992 0.192,-1.248 -2.303998,0.128 -3.808001,0.224 -4.448,0.256 -0.16,1.919998 -0.832001,2.88 -1.984,2.88 -0.384,0 -0.672,-0.128 -0.864,-0.448 -0.1919998,-0.288 -0.2239999,-0.64 -0.16,-1.056 l 1.28,-6.912 c 0.384,-0.703999 0.864001,-1.056 1.504,-1.056 0.671999,0 1.024,0.544001 1.024,1.632 0,0.192 -0.032,0.416 -0.032,0.608 l 4.32,-0.128"
         style="font-size:32px;font-family:Crickx;-inkscape-font-specification:Crickx Ultra-Condensed"
         id="path4072" />
      <path
         inkscape:connector-curvature="0"
         d="m 34.00125,16.89725 c -0.256,-1.855998 -1.504002,-2.976 -3.776,-3.392 -0.256,-0.032 -0.640001,-0.064 -1.152,-0.064 -0.831999,-0.064 -1.920001,0.224001 -3.2,0.864 -1.983998,0.959999 -3.232,2.368002 -3.68,4.256 -0.511999,2.079998 -0.96,4.320002 -1.28,6.72 -0.288,1.855998 -0.416,2.912 -0.416,3.168 0,0.256 -0.032,0.544 -0.032,0.8 -0.032,0.256 -0.032,0.48 0,0.672 0.128,2.655997 1.984004,3.968 5.6,3.968 1.887998,0 3.360001,-0.576001 4.448,-1.792 0.703999,-0.831999 1.184,-1.824001 1.408,-2.976 0.895999,-5.087995 1.568001,-9.152003 2.08,-12.224 m -7.456,3.136 c 0.064,-0.352 0.32,-0.704 0.736,-1.024 0.384,-0.32 0.8,-0.512 1.216,-0.512 0.32,0 0.608,0.096 0.8,0.256 l -1.504,8.32 c 0,0.192 0.032,0.352 0.032,0.416 0,0.32 -0.128,0.608 -0.352,0.864 -0.32,0.352 -0.768001,0.512 -1.376,0.512 -0.639999,0 -0.96,-0.320001 -0.96,-0.992 0,-0.288 0.16,-1.504002 0.544,-3.68 0.384,-2.271998 0.64,-3.648001 0.832,-4.16 l 0.032,0"
         style="font-size:32px;font-family:Crickx;-inkscape-font-specification:Crickx Ultra-Condensed"
         id="path4074" />
      <path
         inkscape:connector-curvature="0"
         d="m 48.37825,33.37725 3.648,-20.192 -4.928,-0.16 -0.992,5.408 -2.56,-5.536 -4,-0.096 -3.552,20.672 4.96,-0.096 1.856,-9.6 1.792,3.296 -1.344,6.24 5.12,0.064"
         style="font-size:32px;font-family:Crickx;-inkscape-font-specification:Crickx Ultra-Condensed"
         id="path4076" />
      <path
         inkscape:connector-curvature="0"
         d="m 66.82925,19.45725 c 0.128,-1.311999 0.16,-2.304001 0.032,-2.976 -0.224,-0.959999 -0.832001,-1.696001 -1.856,-2.272 -0.895999,-0.48 -1.888001,-0.736 -2.912,-0.736 -0.927999,0 -1.952001,0.320001 -3.104,0.896 -1.471999,0.767999 -2.368,1.696001 -2.688,2.816 -0.352,1.663998 -0.576,2.880001 -0.64,3.648 0,0.607999 0.864002,1.472001 2.56,2.56 1.727998,1.183999 2.72,2.112001 2.912,2.752 0,1.855998 -0.576001,2.784 -1.728,2.784 -0.799999,0 -1.184,-0.384001 -1.184,-1.216 0,-0.256 0.096,-0.64 0.224,-1.12 l -3.872,-0.032 c -0.416,2.559997 -0.608,4 -0.608,4.256 0,0.511999 0.384001,0.992001 1.184,1.504 0.959999,0.671999 2.208002,0.992 3.744,0.992 1.535998,0 2.880001,-0.352001 4.096,-1.056 0.959999,-0.575999 1.6,-1.248001 1.856,-1.952 0.575999,-1.471999 0.896,-2.784001 1.024,-3.968 -0.224,-1.279999 -0.864001,-2.336001 -1.888,-3.2 l -2.72,-1.696 c -0.927999,-0.575999 -1.376,-1.216001 -1.376,-1.92 0,-0.32 0.16,-0.672 0.512,-1.056 0.352,-0.384 0.768001,-0.608 1.28,-0.608 0.895999,0.128 1.344,0.704001 1.408,1.728 l 3.744,-0.128"
         style="font-size:32px;font-family:Crickx;-inkscape-font-specification:Crickx Ultra-Condensed"
         id="path4078" />
      <path
         inkscape:connector-curvature="0"
         d="m 81.66775,17.53725 0.608,-4.448 -12.448,0.32 -0.768,4.544 4.064,-0.096 -2.24,15.552 5.184,-0.16 2.4,-15.616 3.2,-0.096"
         style="font-size:32px;font-family:Crickx;-inkscape-font-specification:Crickx Ultra-Condensed"
         id="path4080" />
      <path
         inkscape:connector-curvature="0"
         d="m 94.61225,20.73725 0.384,5.344 -2.56,-0.192 2.176,-5.152 m -4.352,8.96 5.024,0.096 0.256,3.36 5.12,-0.16 -1.472,-20.32 -5.952,0.032 c -0.639999,1.599998 -4.256007,8.480012 -10.784,20.672 l 5.952,-0.064 1.856,-3.616"
         style="font-size:32px;font-family:Crickx;-inkscape-font-specification:Crickx Ultra-Condensed"
         id="path4082" />
      <path
         inkscape:connector-curvature="0"
         d="m 115.94075,33.37725 3.648,-20.192 -4.928,-0.16 -0.992,5.408 -2.56,-5.536 -4,-0.096 -3.552,20.672 4.96,-0.096 1.856,-9.6 1.792,3.296 -1.344,6.24 5.12,0.064"
         style="font-size:32px;font-family:Crickx;-inkscape-font-specification:Crickx Ultra-Condensed"
         id="path4084" />
      <path
         inkscape:connector-curvature="0"
         d="m 134.16775,17.53725 0.608,-4.448 -12.448,0.32 -0.768,4.544 4.064,-0.096 -2.24,15.552 5.184,-0.16 2.4,-15.616 3.2,-0.096"
         style="font-size:32px;font-family:Crickx;-inkscape-font-specification:Crickx Ultra-Condensed"
         id="path4086" />
      <path
         inkscape:connector-curvature="0"
         d="m 141.51225,33.37725 3.008,-20.224 -4.672,0.192 -2.88,20.032 4.544,0"
         style="font-size:32px;font-family:Crickx;-inkscape-font-specification:Crickx Ultra-Condensed"
         id="path4088" />
      <path
         inkscape:connector-curvature="0"
         d="m 158.94075,33.37725 3.648,-20.192 -4.928,-0.16 -0.992,5.408 -2.56,-5.536 -4,-0.096 -3.552,20.672 4.96,-0.096 1.856,-9.6 1.792,3.296 -1.344,6.24 5.12,0.064"
         style="font-size:32px;font-family:Crickx;-inkscape-font-specification:Crickx Ultra-Condensed"
         id="path4090" />
      <path
         inkscape:connector-curvature="0"
         d="m 178.06375,16.89725 c -0.256,-1.855998 -1.504,-2.976 -3.776,-3.392 -0.256,-0.032 -0.64,-0.064 -1.152,-0.064 -0.832,-0.064 -1.92,0.224001 -3.2,0.864 -1.984,0.959999 -3.232,2.368002 -3.68,4.256 -0.512,2.079998 -0.96,4.320002 -1.28,6.72 -0.288,1.855998 -0.416,2.912 -0.416,3.168 0,0.256 -0.032,0.544 -0.032,0.8 -0.032,0.256 -0.032,0.48 0,0.672 0.128,2.655997 1.984,3.968 5.6,3.968 1.888,0 3.36,-0.576001 4.448,-1.792 0.704,-0.831999 1.184,-1.824001 1.408,-2.976 0.896,-5.087995 1.568,-9.152003 2.08,-12.224 m -7.456,3.136 c 0.064,-0.352 0.32,-0.704 0.736,-1.024 0.384,-0.32 0.8,-0.512 1.216,-0.512 0.32,0 0.608,0.096 0.8,0.256 l -1.504,8.32 c 0,0.192 0.032,0.352 0.032,0.416 0,0.32 -0.128,0.608 -0.352,0.864 -0.32,0.352 -0.768,0.512 -1.376,0.512 -0.64,0 -0.96,-0.320001 -0.96,-0.992 0,-0.288 0.16,-1.504002 0.544,-3.68 0.384,-2.271998 0.64,-3.648001 0.832,-4.16 l 0.032,0"
         style="font-size:32px;font-family:Crickx;-inkscape-font-specification:Crickx Ultra-Condensed"
         id="path4092" />
      <path
         inkscape:connector-curvature="0"
         d="m 184.69675,33.28125 c 0.288,-2.175998 0.608,-4.416002 0.992,-6.784 1.76,-0.128 3.52,-0.896001 5.28,-2.24 2.048,-1.535998 3.104,-3.328002 3.104,-5.376 0,-1.567998 -0.48,-2.880001 -1.376,-3.904 -0.896,-0.959999 -1.888,-1.408 -3.04,-1.376 -2.176,0 -4.352,0.032 -6.56,0.064 l -3.232,19.744 c 2.496,-0.064 4.096,-0.096 4.832,-0.128 m 5.312,-13.856 c 0,0.32 -0.224,0.768001 -0.608,1.28 -0.704,0.927999 -1.728,1.632 -3.072,2.112 0.32,-1.951998 0.64,-3.552001 0.928,-4.8 0.352,-0.064 0.672,-0.128 0.992,-0.128 1.152,0 1.76,0.512001 1.76,1.536"
         style="font-size:32px;font-family:Crickx;-inkscape-font-specification:Crickx Ultra-Condensed"
         id="path4094" />
      <path
         inkscape:connector-curvature="0"
         d="m 207.07375,17.24925 0.512,-4.256 -8.832,0.064 c -1.6,10.559989 -2.688,17.312003 -3.2,20.192 l 8.8,-0.096 0.864,-4.448 -4.192,0.096 0.416,-3.712 4.384,-0.128 0.64,-3.968 -4.256,0.128 0.576,-3.712 4.288,-0.16"
         style="font-size:32px;font-family:Crickx;-inkscape-font-specification:Crickx Ultra-Condensed"
         id="path4096" />
      <path
         inkscape:connector-curvature="0"
         d="m 219.18875,33.31325 0.992,-4.992 -4.448,0.096 2.496,-15.008 -5.408,0.128 -3.456,20.032 9.824,-0.256"
         style="font-size:32px;font-family:Crickx;-inkscape-font-specification:Crickx Ultra-Condensed"
         id="path4098" />
    </g>
    <path
       inkscape:connector-curvature="0"
       style="fill:none;stroke:#1a1a1a;stroke-width:1"
       d="m 221.44544,996.45387 c 0,7.69263 -6.23603,13.92863 -13.92857,13.92863 -7.69254,0 -13.92857,-6.236 -13.92857,-13.92863 0,-7.6925 6.23603,-13.9285 13.92857,-13.9285 7.69254,0 13.92857,6.236 13.92857,13.9285 z"
       id="path3781" />
    <path
       inkscape:connector-curvature="0"
       style="fill:none;stroke:#1a1a1a;stroke-width:1"
       d="m 142.51687,983.23957 c 0,7.6926 -6.23603,13.9286 -13.92857,13.9286 -7.69254,0 -13.92857,-6.236 -13.92857,-13.9286 0,-7.6925 6.23603,-13.9285 13.92857,-13.9285 7.69254,0 13.92857,6.236 13.92857,13.9285 z"
       id="path3781-7" />
    <path
       inkscape:connector-curvature="0"
       style="fill:none;stroke:#1a1a1a;stroke-width:1"
       d="m 167.51687,1018.2396 c 0,7.6926 -6.23603,13.9286 -13.92857,13.9286 -7.69254,0 -13.92857,-6.236 -13.92857,-13.9286 0,-7.6925 6.23603,-13.9285 13.92857,-13.9285 7.69254,0 13.92857,6.236 13.92857,13.9285 z"
       id="path3781-8" />
  </g>
</svg>
