<svg baseProfile="full" height="210mm" version="1.1" viewBox="0 0 148 210" width="148mm" xmlns="http://www.w3.org/2000/svg" xmlns:ev="http://www.w3.org/2001/xml-events" xmlns:xlink="http://www.w3.org/1999/xlink"><defs /><circle cx="17" cy="134" fill="none" r="9.5" stroke="black" stroke-width=".1" style="stroke-dasharray:1.2,1.2;" /><circle cx="63" cy="48" fill="none" r="9.5" stroke="black" stroke-width=".1" style="stroke-dasharray:1.2,1.2;" /><circle cx="54" cy="195" fill="none" r="9.5" stroke="black" stroke-width=".1" style="stroke-dasharray:1.2,1.2;" /><circle cx="33" cy="12" fill="none" r="9.5" stroke="black" stroke-width=".1" style="stroke-dasharray:1.2,1.2;" /><circle cx="15" cy="78" fill="none" r="9.5" stroke="black" stroke-width=".1" style="stroke-dasharray:1.2,1.2;" /><circle cx="120" cy="150" fill="none" r="9.5" stroke="black" stroke-width=".1" style="stroke-dasharray:1.2,1.2;" /><circle cx="49" cy="54" fill="none" r="9.5" stroke="black" stroke-width=".1" style="stroke-dasharray:1.2,1.2;" /><circle cx="97" cy="167" fill="none" r="9.5" stroke="black" stroke-width=".1" style="stroke-dasharray:1.2,1.2;" /><circle cx="112" cy="54" fill="none" r="9.5" stroke="black" stroke-width=".1" style="stroke-dasharray:1.2,1.2;" /><circle cx="17" cy="188" fill="none" r="9.5" stroke="black" stroke-width=".1" style="stroke-dasharray:1.2,1.2;" /><circle cx="60" cy="111" fill="none" r="9.5" stroke="black" stroke-width=".1" style="stroke-dasharray:1.2,1.2;" /><circle cx="59" cy="31" fill="none" r="9.5" stroke="black" stroke-width=".1" style="stroke-dasharray:1.2,1.2;" /><circle cx="23" cy="191" fill="none" r="9.5" stroke="black" stroke-width=".1" style="stroke-dasharray:1.2,1.2;" /><circle cx="83" cy="143" fill="none" r="9.5" stroke="black" stroke-width=".1" style="stroke-dasharray:1.2,1.2;" /><circle cx="30" cy="181" fill="none" r="9.5" stroke="black" stroke-width=".1" style="stroke-dasharray:1.2,1.2;" /><circle cx="62" cy="60" fill="none" r="9.5" stroke="black" stroke-width=".1" style="stroke-dasharray:1.2,1.2;" /><circle cx="76" cy="66" fill="none" r="9.5" stroke="black" stroke-width=".1" style="stroke-dasharray:1.2,1.2;" /><circle cx="48" cy="193" fill="none" r="9.5" stroke="black" stroke-width=".1" style="stroke-dasharray:1.2,1.2;" /><circle cx="25" cy="134" fill="none" r="9.5" stroke="black" stroke-width=".1" style="stroke-dasharray:1.2,1.2;" /><circle cx="28" cy="24" fill="none" r="9.5" stroke="black" stroke-width=".1" style="stroke-dasharray:1.2,1.2;" /><circle cx="57" cy="184" fill="none" r="9.5" stroke="black" stroke-width=".1" style="stroke-dasharray:1.2,1.2;" /><circle cx="90" cy="109" fill="none" r="9.5" stroke="black" stroke-width=".1" style="stroke-dasharray:1.2,1.2;" /><circle cx="26" cy="179" fill="none" r="9.5" stroke="black" stroke-width=".1" style="stroke-dasharray:1.2,1.2;" /><circle cx="98" cy="129" fill="none" r="9.5" stroke="black" stroke-width=".1" style="stroke-dasharray:1.2,1.2;" /><circle cx="44" cy="145" fill="none" r="9.5" stroke="black" stroke-width=".1" style="stroke-dasharray:1.2,1.2;" /><circle cx="75" cy="71" fill="none" r="9.5" stroke="black" stroke-width=".1" style="stroke-dasharray:1.2,1.2;" /><circle cx="67" cy="173" fill="none" r="9.5" stroke="black" stroke-width=".1" style="stroke-dasharray:1.2,1.2;" /><rect fill="none" height="63.5" stroke="black" stroke-width=".1" style="stroke-dasharray:1.2,1.2;" transform="rotate(36,54,96.5)" width="29.7" x="37" y="63" /><rect fill="none" height="29.6" stroke="black" stroke-width=".1" style="stroke-dasharray:1.2,1.2" transform="rotate(16,86.5,176)" width="63.5" x="53" y="159" /></svg>