<svg baseProfile="full" height="210mm" version="1.1" viewBox="0 0 148 210" width="148mm" xmlns="http://www.w3.org/2000/svg" xmlns:ev="http://www.w3.org/2001/xml-events" xmlns:xlink="http://www.w3.org/1999/xlink"><defs /><circle cx="99" cy="58" fill="none" r="9.5" stroke="black" stroke-width=".1" style="stroke-dasharray:1.2,1.2;" /><circle cx="91" cy="73" fill="none" r="9.5" stroke="black" stroke-width=".1" style="stroke-dasharray:1.2,1.2;" /><circle cx="134" cy="141" fill="none" r="9.5" stroke="black" stroke-width=".1" style="stroke-dasharray:1.2,1.2;" /><circle cx="23" cy="96" fill="none" r="9.5" stroke="black" stroke-width=".1" style="stroke-dasharray:1.2,1.2;" /><circle cx="14" cy="188" fill="none" r="9.5" stroke="black" stroke-width=".1" style="stroke-dasharray:1.2,1.2;" /><circle cx="122" cy="88" fill="none" r="9.5" stroke="black" stroke-width=".1" style="stroke-dasharray:1.2,1.2;" /><circle cx="46" cy="27" fill="none" r="9.5" stroke="black" stroke-width=".1" style="stroke-dasharray:1.2,1.2;" /><circle cx="28" cy="32" fill="none" r="9.5" stroke="black" stroke-width=".1" style="stroke-dasharray:1.2,1.2;" /><circle cx="26" cy="130" fill="none" r="9.5" stroke="black" stroke-width=".1" style="stroke-dasharray:1.2,1.2;" /><circle cx="53" cy="100" fill="none" r="9.5" stroke="black" stroke-width=".1" style="stroke-dasharray:1.2,1.2;" /><circle cx="53" cy="167" fill="none" r="9.5" stroke="black" stroke-width=".1" style="stroke-dasharray:1.2,1.2;" /><circle cx="105" cy="149" fill="none" r="9.5" stroke="black" stroke-width=".1" style="stroke-dasharray:1.2,1.2;" /><circle cx="50" cy="110" fill="none" r="9.5" stroke="black" stroke-width=".1" style="stroke-dasharray:1.2,1.2;" /><circle cx="89" cy="147" fill="none" r="9.5" stroke="black" stroke-width=".1" style="stroke-dasharray:1.2,1.2;" /><circle cx="110" cy="38" fill="none" r="9.5" stroke="black" stroke-width=".1" style="stroke-dasharray:1.2,1.2;" /><circle cx="124" cy="28" fill="none" r="9.5" stroke="black" stroke-width=".1" style="stroke-dasharray:1.2,1.2;" /><circle cx="68" cy="16" fill="none" r="9.5" stroke="black" stroke-width=".1" style="stroke-dasharray:1.2,1.2;" /><circle cx="106" cy="196" fill="none" r="9.5" stroke="black" stroke-width=".1" style="stroke-dasharray:1.2,1.2;" /><circle cx="126" cy="47" fill="none" r="9.5" stroke="black" stroke-width=".1" style="stroke-dasharray:1.2,1.2;" /><circle cx="101" cy="153" fill="none" r="9.5" stroke="black" stroke-width=".1" style="stroke-dasharray:1.2,1.2;" /><circle cx="28" cy="36" fill="none" r="9.5" stroke="black" stroke-width=".1" style="stroke-dasharray:1.2,1.2;" /><circle cx="132" cy="193" fill="none" r="9.5" stroke="black" stroke-width=".1" style="stroke-dasharray:1.2,1.2;" /><circle cx="110" cy="62" fill="none" r="9.5" stroke="black" stroke-width=".1" style="stroke-dasharray:1.2,1.2;" /><circle cx="49" cy="56" fill="none" r="9.5" stroke="black" stroke-width=".1" style="stroke-dasharray:1.2,1.2;" /><circle cx="71" cy="106" fill="none" r="9.5" stroke="black" stroke-width=".1" style="stroke-dasharray:1.2,1.2;" /><circle cx="130" cy="107" fill="none" r="9.5" stroke="black" stroke-width=".1" style="stroke-dasharray:1.2,1.2;" /><circle cx="61" cy="189" fill="none" r="9.5" stroke="black" stroke-width=".1" style="stroke-dasharray:1.2,1.2;" /><circle cx="99" cy="69" fill="none" r="9.5" stroke="black" stroke-width=".1" style="stroke-dasharray:1.2,1.2;" /><circle cx="137" cy="173" fill="none" r="9.5" stroke="black" stroke-width=".1" style="stroke-dasharray:1.2,1.2;" /><circle cx="115" cy="126" fill="none" r="9.5" stroke="black" stroke-width=".1" style="stroke-dasharray:1.2,1.2;" /><rect fill="none" height="63.5" stroke="black" stroke-width=".1" style="stroke-dasharray:1.2,1.2;" transform="rotate(41,80,205.5)" width="29.7" x="63" y="172" /><rect fill="none" height="29.6" stroke="black" stroke-width=".1" style="stroke-dasharray:1.2,1.2" transform="rotate(31,110.5,91)" width="63.5" x="77" y="74" /></svg>