<svg baseProfile="full" height="210mm" version="1.1" viewBox="0 0 148 210" width="148mm" xmlns="http://www.w3.org/2000/svg" xmlns:ev="http://www.w3.org/2001/xml-events" xmlns:xlink="http://www.w3.org/1999/xlink"><defs /><circle cx="76" cy="70" fill="none" r="9.5" stroke="black" stroke-width=".1" style="stroke-dasharray:1.2,1.2;" /><circle cx="14" cy="56" fill="none" r="9.5" stroke="black" stroke-width=".1" style="stroke-dasharray:1.2,1.2;" /><circle cx="48" cy="47" fill="none" r="9.5" stroke="black" stroke-width=".1" style="stroke-dasharray:1.2,1.2;" /><circle cx="100" cy="84" fill="none" r="9.5" stroke="black" stroke-width=".1" style="stroke-dasharray:1.2,1.2;" /><circle cx="122" cy="113" fill="none" r="9.5" stroke="black" stroke-width=".1" style="stroke-dasharray:1.2,1.2;" /><circle cx="21" cy="37" fill="none" r="9.5" stroke="black" stroke-width=".1" style="stroke-dasharray:1.2,1.2;" /><circle cx="50" cy="140" fill="none" r="9.5" stroke="black" stroke-width=".1" style="stroke-dasharray:1.2,1.2;" /><circle cx="77" cy="101" fill="none" r="9.5" stroke="black" stroke-width=".1" style="stroke-dasharray:1.2,1.2;" /><circle cx="137" cy="35" fill="none" r="9.5" stroke="black" stroke-width=".1" style="stroke-dasharray:1.2,1.2;" /><circle cx="29" cy="182" fill="none" r="9.5" stroke="black" stroke-width=".1" style="stroke-dasharray:1.2,1.2;" /><circle cx="25" cy="168" fill="none" r="9.5" stroke="black" stroke-width=".1" style="stroke-dasharray:1.2,1.2;" /><circle cx="89" cy="102" fill="none" r="9.5" stroke="black" stroke-width=".1" style="stroke-dasharray:1.2,1.2;" /><circle cx="128" cy="132" fill="none" r="9.5" stroke="black" stroke-width=".1" style="stroke-dasharray:1.2,1.2;" /><circle cx="77" cy="80" fill="none" r="9.5" stroke="black" stroke-width=".1" style="stroke-dasharray:1.2,1.2;" /><circle cx="86" cy="36" fill="none" r="9.5" stroke="black" stroke-width=".1" style="stroke-dasharray:1.2,1.2;" /><circle cx="78" cy="46" fill="none" r="9.5" stroke="black" stroke-width=".1" style="stroke-dasharray:1.2,1.2;" /><circle cx="88" cy="130" fill="none" r="9.5" stroke="black" stroke-width=".1" style="stroke-dasharray:1.2,1.2;" /><circle cx="17" cy="183" fill="none" r="9.5" stroke="black" stroke-width=".1" style="stroke-dasharray:1.2,1.2;" /><circle cx="118" cy="165" fill="none" r="9.5" stroke="black" stroke-width=".1" style="stroke-dasharray:1.2,1.2;" /><circle cx="117" cy="55" fill="none" r="9.5" stroke="black" stroke-width=".1" style="stroke-dasharray:1.2,1.2;" /><circle cx="19" cy="35" fill="none" r="9.5" stroke="black" stroke-width=".1" style="stroke-dasharray:1.2,1.2;" /><circle cx="12" cy="93" fill="none" r="9.5" stroke="black" stroke-width=".1" style="stroke-dasharray:1.2,1.2;" /><circle cx="130" cy="128" fill="none" r="9.5" stroke="black" stroke-width=".1" style="stroke-dasharray:1.2,1.2;" /><circle cx="87" cy="94" fill="none" r="9.5" stroke="black" stroke-width=".1" style="stroke-dasharray:1.2,1.2;" /><circle cx="46" cy="153" fill="none" r="9.5" stroke="black" stroke-width=".1" style="stroke-dasharray:1.2,1.2;" /><circle cx="78" cy="54" fill="none" r="9.5" stroke="black" stroke-width=".1" style="stroke-dasharray:1.2,1.2;" /><circle cx="56" cy="97" fill="none" r="9.5" stroke="black" stroke-width=".1" style="stroke-dasharray:1.2,1.2;" /><rect fill="none" height="63.5" stroke="black" stroke-width=".1" style="stroke-dasharray:1.2,1.2;" transform="rotate(17,112,126.5)" width="29.7" x="95" y="93" /><rect fill="none" height="29.6" stroke="black" stroke-width=".1" style="stroke-dasharray:1.2,1.2" transform="rotate(10,134.5,92)" width="63.5" x="101" y="75" /></svg>