<svg baseProfile="full" height="210mm" version="1.1" viewBox="0 0 148 210" width="148mm" xmlns="http://www.w3.org/2000/svg" xmlns:ev="http://www.w3.org/2001/xml-events" xmlns:xlink="http://www.w3.org/1999/xlink"><defs /><circle cx="33" cy="174" fill="none" r="9.5" stroke="black" stroke-width=".1" style="stroke-dasharray:1.2,1.2;" /><circle cx="32" cy="36" fill="none" r="9.5" stroke="black" stroke-width=".1" style="stroke-dasharray:1.2,1.2;" /><circle cx="90" cy="101" fill="none" r="9.5" stroke="black" stroke-width=".1" style="stroke-dasharray:1.2,1.2;" /><circle cx="43" cy="30" fill="none" r="9.5" stroke="black" stroke-width=".1" style="stroke-dasharray:1.2,1.2;" /><circle cx="86" cy="56" fill="none" r="9.5" stroke="black" stroke-width=".1" style="stroke-dasharray:1.2,1.2;" /><circle cx="18" cy="115" fill="none" r="9.5" stroke="black" stroke-width=".1" style="stroke-dasharray:1.2,1.2;" /><circle cx="67" cy="120" fill="none" r="9.5" stroke="black" stroke-width=".1" style="stroke-dasharray:1.2,1.2;" /><circle cx="127" cy="180" fill="none" r="9.5" stroke="black" stroke-width=".1" style="stroke-dasharray:1.2,1.2;" /><circle cx="44" cy="191" fill="none" r="9.5" stroke="black" stroke-width=".1" style="stroke-dasharray:1.2,1.2;" /><circle cx="95" cy="158" fill="none" r="9.5" stroke="black" stroke-width=".1" style="stroke-dasharray:1.2,1.2;" /><circle cx="69" cy="151" fill="none" r="9.5" stroke="black" stroke-width=".1" style="stroke-dasharray:1.2,1.2;" /><circle cx="132" cy="181" fill="none" r="9.5" stroke="black" stroke-width=".1" style="stroke-dasharray:1.2,1.2;" /><circle cx="114" cy="145" fill="none" r="9.5" stroke="black" stroke-width=".1" style="stroke-dasharray:1.2,1.2;" /><circle cx="47" cy="160" fill="none" r="9.5" stroke="black" stroke-width=".1" style="stroke-dasharray:1.2,1.2;" /><circle cx="131" cy="114" fill="none" r="9.5" stroke="black" stroke-width=".1" style="stroke-dasharray:1.2,1.2;" /><circle cx="68" cy="171" fill="none" r="9.5" stroke="black" stroke-width=".1" style="stroke-dasharray:1.2,1.2;" /><circle cx="61" cy="13" fill="none" r="9.5" stroke="black" stroke-width=".1" style="stroke-dasharray:1.2,1.2;" /><circle cx="22" cy="118" fill="none" r="9.5" stroke="black" stroke-width=".1" style="stroke-dasharray:1.2,1.2;" /><circle cx="10" cy="35" fill="none" r="9.5" stroke="black" stroke-width=".1" style="stroke-dasharray:1.2,1.2;" /><circle cx="34" cy="152" fill="none" r="9.5" stroke="black" stroke-width=".1" style="stroke-dasharray:1.2,1.2;" /><circle cx="115" cy="194" fill="none" r="9.5" stroke="black" stroke-width=".1" style="stroke-dasharray:1.2,1.2;" /><circle cx="87" cy="196" fill="none" r="9.5" stroke="black" stroke-width=".1" style="stroke-dasharray:1.2,1.2;" /><circle cx="83" cy="50" fill="none" r="9.5" stroke="black" stroke-width=".1" style="stroke-dasharray:1.2,1.2;" /><circle cx="64" cy="29" fill="none" r="9.5" stroke="black" stroke-width=".1" style="stroke-dasharray:1.2,1.2;" /><circle cx="31" cy="165" fill="none" r="9.5" stroke="black" stroke-width=".1" style="stroke-dasharray:1.2,1.2;" /><circle cx="14" cy="23" fill="none" r="9.5" stroke="black" stroke-width=".1" style="stroke-dasharray:1.2,1.2;" /><circle cx="47" cy="108" fill="none" r="9.5" stroke="black" stroke-width=".1" style="stroke-dasharray:1.2,1.2;" /><circle cx="23" cy="30" fill="none" r="9.5" stroke="black" stroke-width=".1" style="stroke-dasharray:1.2,1.2;" /><circle cx="113" cy="109" fill="none" r="9.5" stroke="black" stroke-width=".1" style="stroke-dasharray:1.2,1.2;" /><circle cx="54" cy="63" fill="none" r="9.5" stroke="black" stroke-width=".1" style="stroke-dasharray:1.2,1.2;" /><circle cx="127" cy="184" fill="none" r="9.5" stroke="black" stroke-width=".1" style="stroke-dasharray:1.2,1.2;" /><circle cx="85" cy="47" fill="none" r="9.5" stroke="black" stroke-width=".1" style="stroke-dasharray:1.2,1.2;" /><circle cx="108" cy="151" fill="none" r="9.5" stroke="black" stroke-width=".1" style="stroke-dasharray:1.2,1.2;" /><rect fill="none" height="63.5" stroke="black" stroke-width=".1" style="stroke-dasharray:1.2,1.2;" transform="rotate(22,102,142.5)" width="29.7" x="85" y="109" /><rect fill="none" height="29.6" stroke="black" stroke-width=".1" style="stroke-dasharray:1.2,1.2" transform="rotate(5,88.5,171)" width="63.5" x="55" y="154" /></svg>