<svg baseProfile="full" height="210mm" version="1.1" viewBox="0 0 148 210" width="148mm" xmlns="http://www.w3.org/2000/svg" xmlns:ev="http://www.w3.org/2001/xml-events" xmlns:xlink="http://www.w3.org/1999/xlink"><defs /><circle cx="66" cy="136" fill="none" r="9.5" stroke="black" stroke-width=".1" style="stroke-dasharray:1.2,1.2;" /><circle cx="64" cy="147" fill="none" r="9.5" stroke="black" stroke-width=".1" style="stroke-dasharray:1.2,1.2;" /><circle cx="111" cy="155" fill="none" r="9.5" stroke="black" stroke-width=".1" style="stroke-dasharray:1.2,1.2;" /><circle cx="49" cy="170" fill="none" r="9.5" stroke="black" stroke-width=".1" style="stroke-dasharray:1.2,1.2;" /><circle cx="114" cy="161" fill="none" r="9.5" stroke="black" stroke-width=".1" style="stroke-dasharray:1.2,1.2;" /><circle cx="46" cy="166" fill="none" r="9.5" stroke="black" stroke-width=".1" style="stroke-dasharray:1.2,1.2;" /><circle cx="82" cy="75" fill="none" r="9.5" stroke="black" stroke-width=".1" style="stroke-dasharray:1.2,1.2;" /><circle cx="67" cy="117" fill="none" r="9.5" stroke="black" stroke-width=".1" style="stroke-dasharray:1.2,1.2;" /><circle cx="101" cy="108" fill="none" r="9.5" stroke="black" stroke-width=".1" style="stroke-dasharray:1.2,1.2;" /><circle cx="93" cy="134" fill="none" r="9.5" stroke="black" stroke-width=".1" style="stroke-dasharray:1.2,1.2;" /><circle cx="11" cy="185" fill="none" r="9.5" stroke="black" stroke-width=".1" style="stroke-dasharray:1.2,1.2;" /><circle cx="61" cy="157" fill="none" r="9.5" stroke="black" stroke-width=".1" style="stroke-dasharray:1.2,1.2;" /><circle cx="59" cy="169" fill="none" r="9.5" stroke="black" stroke-width=".1" style="stroke-dasharray:1.2,1.2;" /><circle cx="79" cy="78" fill="none" r="9.5" stroke="black" stroke-width=".1" style="stroke-dasharray:1.2,1.2;" /><circle cx="129" cy="184" fill="none" r="9.5" stroke="black" stroke-width=".1" style="stroke-dasharray:1.2,1.2;" /><circle cx="37" cy="95" fill="none" r="9.5" stroke="black" stroke-width=".1" style="stroke-dasharray:1.2,1.2;" /><circle cx="92" cy="89" fill="none" r="9.5" stroke="black" stroke-width=".1" style="stroke-dasharray:1.2,1.2;" /><circle cx="84" cy="120" fill="none" r="9.5" stroke="black" stroke-width=".1" style="stroke-dasharray:1.2,1.2;" /><circle cx="85" cy="133" fill="none" r="9.5" stroke="black" stroke-width=".1" style="stroke-dasharray:1.2,1.2;" /><circle cx="23" cy="91" fill="none" r="9.5" stroke="black" stroke-width=".1" style="stroke-dasharray:1.2,1.2;" /><circle cx="115" cy="22" fill="none" r="9.5" stroke="black" stroke-width=".1" style="stroke-dasharray:1.2,1.2;" /><circle cx="29" cy="106" fill="none" r="9.5" stroke="black" stroke-width=".1" style="stroke-dasharray:1.2,1.2;" /><circle cx="44" cy="73" fill="none" r="9.5" stroke="black" stroke-width=".1" style="stroke-dasharray:1.2,1.2;" /><circle cx="71" cy="114" fill="none" r="9.5" stroke="black" stroke-width=".1" style="stroke-dasharray:1.2,1.2;" /><circle cx="70" cy="144" fill="none" r="9.5" stroke="black" stroke-width=".1" style="stroke-dasharray:1.2,1.2;" /><circle cx="99" cy="27" fill="none" r="9.5" stroke="black" stroke-width=".1" style="stroke-dasharray:1.2,1.2;" /><circle cx="76" cy="149" fill="none" r="9.5" stroke="black" stroke-width=".1" style="stroke-dasharray:1.2,1.2;" /><circle cx="26" cy="132" fill="none" r="9.5" stroke="black" stroke-width=".1" style="stroke-dasharray:1.2,1.2;" /><circle cx="45" cy="139" fill="none" r="9.5" stroke="black" stroke-width=".1" style="stroke-dasharray:1.2,1.2;" /><circle cx="105" cy="162" fill="none" r="9.5" stroke="black" stroke-width=".1" style="stroke-dasharray:1.2,1.2;" /><circle cx="80" cy="162" fill="none" r="9.5" stroke="black" stroke-width=".1" style="stroke-dasharray:1.2,1.2;" /><circle cx="50" cy="65" fill="none" r="9.5" stroke="black" stroke-width=".1" style="stroke-dasharray:1.2,1.2;" /><circle cx="112" cy="15" fill="none" r="9.5" stroke="black" stroke-width=".1" style="stroke-dasharray:1.2,1.2;" /><circle cx="51" cy="194" fill="none" r="9.5" stroke="black" stroke-width=".1" style="stroke-dasharray:1.2,1.2;" /><circle cx="12" cy="87" fill="none" r="9.5" stroke="black" stroke-width=".1" style="stroke-dasharray:1.2,1.2;" /><circle cx="73" cy="81" fill="none" r="9.5" stroke="black" stroke-width=".1" style="stroke-dasharray:1.2,1.2;" /><circle cx="78" cy="165" fill="none" r="9.5" stroke="black" stroke-width=".1" style="stroke-dasharray:1.2,1.2;" /><circle cx="37" cy="60" fill="none" r="9.5" stroke="black" stroke-width=".1" style="stroke-dasharray:1.2,1.2;" /><circle cx="92" cy="120" fill="none" r="9.5" stroke="black" stroke-width=".1" style="stroke-dasharray:1.2,1.2;" /><circle cx="10" cy="68" fill="none" r="9.5" stroke="black" stroke-width=".1" style="stroke-dasharray:1.2,1.2;" /><circle cx="48" cy="147" fill="none" r="9.5" stroke="black" stroke-width=".1" style="stroke-dasharray:1.2,1.2;" /><circle cx="76" cy="109" fill="none" r="9.5" stroke="black" stroke-width=".1" style="stroke-dasharray:1.2,1.2;" /><circle cx="111" cy="86" fill="none" r="9.5" stroke="black" stroke-width=".1" style="stroke-dasharray:1.2,1.2;" /><circle cx="122" cy="22" fill="none" r="9.5" stroke="black" stroke-width=".1" style="stroke-dasharray:1.2,1.2;" /><circle cx="44" cy="90" fill="none" r="9.5" stroke="black" stroke-width=".1" style="stroke-dasharray:1.2,1.2;" /><circle cx="31" cy="138" fill="none" r="9.5" stroke="black" stroke-width=".1" style="stroke-dasharray:1.2,1.2;" /><rect fill="none" height="63.5" stroke="black" stroke-width=".1" style="stroke-dasharray:1.2,1.2;" transform="rotate(6,77,190.5)" width="29.7" x="60" y="157" /><rect fill="none" height="29.6" stroke="black" stroke-width=".1" style="stroke-dasharray:1.2,1.2" transform="rotate(7,71.5,176)" width="63.5" x="38" y="159" /></svg>