<?xml version="1.0" encoding="UTF-8" standalone="no"?>
<!-- Created with Inkscape (http://www.inkscape.org/) -->

<svg
   xmlns:dc="http://purl.org/dc/elements/1.1/"
   xmlns:cc="http://creativecommons.org/ns#"
   xmlns:rdf="http://www.w3.org/1999/02/22-rdf-syntax-ns#"
   xmlns:svg="http://www.w3.org/2000/svg"
   xmlns="http://www.w3.org/2000/svg"
   xmlns:sodipodi="http://sodipodi.sourceforge.net/DTD/sodipodi-0.dtd"
   xmlns:inkscape="http://www.inkscape.org/namespaces/inkscape"
   width="850"
   height="300"
   id="svg13092"
   version="1.1"
   inkscape:version="0.48.1 r9760"
   sodipodi:docname="logo cirkels.svg">
  <defs
     id="defs13094" />
  <sodipodi:namedview
     id="base"
     pagecolor="#ffffff"
     bordercolor="#666666"
     borderopacity="1.0"
     inkscape:pageopacity="0.0"
     inkscape:pageshadow="2"
     inkscape:zoom="0.72875639"
     inkscape:cx="506.40477"
     inkscape:cy="14.380663"
     inkscape:document-units="px"
     inkscape:current-layer="layer1"
     showgrid="false"
     inkscape:window-width="1280"
     inkscape:window-height="776"
     inkscape:window-x="0"
     inkscape:window-y="24"
     inkscape:window-maximized="1" />
  <metadata
     id="metadata13097">
    <rdf:RDF>
      <cc:Work
         rdf:about="">
        <dc:format>image/svg+xml</dc:format>
        <dc:type
           rdf:resource="http://purl.org/dc/dcmitype/StillImage" />
        <dc:title />
      </cc:Work>
    </rdf:RDF>
  </metadata>
  <g
     inkscape:label="Layer 1"
     inkscape:groupmode="layer"
     id="layer1"
     transform="translate(0,-752.36218)">
    <text
       xml:space="preserve"
       style="font-size:40px;font-style:normal;font-weight:normal;line-height:125%;letter-spacing:0px;word-spacing:0px;fill:#000000;fill-opacity:1;stroke:none;font-family:Sans"
       x="82.232788"
       y="903.80518"
       id="text14921"
       sodipodi:linespacing="125%"><tspan
         sodipodi:role="line"
         id="tspan14923"
         x="82.232788"
         y="903.80518"
         style="font-size:70px;font-style:normal;font-variant:normal;font-weight:normal;font-stretch:normal;font-family:PropCourierSans;-inkscape-font-specification:PropCourierSans">CONSTANT VARIAB(E)LE</tspan></text>
    <text
       xml:space="preserve"
       style="font-size:40px;font-style:normal;font-weight:normal;line-height:125%;letter-spacing:0px;word-spacing:0px;fill:#000000;fill-opacity:1;stroke:none;font-family:Sans"
       x="87.255859"
       y="945.11932"
       id="text14921-8"
       sodipodi:linespacing="125%"><tspan
         sodipodi:role="line"
         id="tspan14923-2"
         x="87.255859"
         y="945.11932"
         style="font-size:32px;font-style:normal;font-variant:normal;font-weight:normal;font-stretch:condensed;font-family:PropCourierSans;-inkscape-font-specification:PropCourierSans">FREE / LIBRE OPEN SOURCE SOFTWARE ARTS LAB</tspan></text>
    <circle
       id="circle13213"
       style="fill:none;stroke:#000000;stroke-width:0.15618521;stroke-dasharray:1.87422248,1.87422248;stroke-miterlimit:4;stroke-dashoffset:0"
       r="12"
       cy="53"
       cx="132"
       transform="matrix(4.0016594,0,0,-4.0016594,-402.70979,1147.0918)"
       sodipodi:cx="132"
       sodipodi:cy="53"
       sodipodi:rx="12"
       sodipodi:ry="12"
       d="m 144,53 c 0,6.627417 -5.37258,12 -12,12 -6.62742,0 -12,-5.372583 -12,-12 0,-6.627417 5.37258,-12 12,-12 6.62742,0 12,5.372583 12,12 z" />
    <circle
       id="circle13215"
       style="fill:none;stroke:#000000;stroke-width:0.15618521;stroke-dasharray:1.87422248,1.87422248;stroke-miterlimit:4;stroke-dashoffset:0"
       r="12"
       cy="53"
       cx="132"
       transform="matrix(4.0016594,0,0,-4.0016594,-209.39963,1147.0918)"
       sodipodi:cx="132"
       sodipodi:cy="53"
       sodipodi:rx="12"
       sodipodi:ry="12"
       d="m 144,53 c 0,6.627417 -5.37258,12 -12,12 -6.62742,0 -12,-5.372583 -12,-12 0,-6.627417 5.37258,-12 12,-12 6.62742,0 12,5.372583 12,12 z" />
    <circle
       id="circle13217"
       style="fill:none;stroke:#000000;stroke-width:0.15618521;stroke-dasharray:1.87422248,1.87422248;stroke-miterlimit:4;stroke-dashoffset:0"
       r="12"
       cy="53"
       cx="132"
       transform="matrix(4.0016594,0,0,-4.0016594,224.71977,1147.0918)"
       sodipodi:cx="132"
       sodipodi:cy="53"
       sodipodi:rx="12"
       sodipodi:ry="12"
       d="m 144,53 c 0,6.627417 -5.37258,12 -12,12 -6.62742,0 -12,-5.372583 -12,-12 0,-6.627417 5.37258,-12 12,-12 6.62742,0 12,5.372583 12,12 z" />
    <circle
       id="circle13219"
       style="fill:none;stroke:#000000;stroke-width:0.15618521;stroke-dasharray:1.87422248,1.87422248;stroke-miterlimit:4;stroke-dashoffset:0"
       r="12"
       cy="53"
       cx="132"
       transform="matrix(4.0016594,0,0,-4.0016594,149.60496,1147.0918)"
       sodipodi:cx="132"
       sodipodi:cy="53"
       sodipodi:rx="12"
       sodipodi:ry="12"
       d="m 144,53 c 0,6.627417 -5.37258,12 -12,12 -6.62742,0 -12,-5.372583 -12,-12 0,-6.627417 5.37258,-12 12,-12 6.62742,0 12,5.372583 12,12 z" />
    <circle
       id="circle13221"
       style="fill:none;stroke:#000000;stroke-width:0.15618521;stroke-miterlimit:4;stroke-dasharray:1.87422248, 1.87422248;stroke-dashoffset:0"
       r="12"
       cy="53"
       cx="132"
       transform="matrix(4.0016594,0,0,-4.0016594,-294.4561,1147.0918)"
       sodipodi:cx="132"
       sodipodi:cy="53"
       sodipodi:rx="12"
       sodipodi:ry="12"
       d="m 144,53 c 0,6.627417 -5.37258,12 -12,12 -6.62742,0 -12,-5.372583 -12,-12 0,-6.627417 5.37258,-12 12,-12 6.62742,0 12,5.372583 12,12 z" />
    <circle
       id="circle13223"
       style="fill:none;stroke:#000000;stroke-width:0.11624194;stroke-dasharray:1.39490327,1.39490327;stroke-miterlimit:4;stroke-dashoffset:0"
       r="12"
       cy="53"
       cx="132"
       transform="matrix(5.3767169,0,0,-5.3767169,-284.86279,1219.9698)"
       sodipodi:cx="132"
       sodipodi:cy="53"
       sodipodi:rx="12"
       sodipodi:ry="12"
       d="m 144,53 c 0,6.627417 -5.37258,12 -12,12 -6.62742,0 -12,-5.372583 -12,-12 0,-6.627417 5.37258,-12 12,-12 6.62742,0 12,5.372583 12,12 z" />
    <circle
       id="circle13225"
       style="fill:none;stroke:#000000;stroke-width:0.08349879;stroke-dasharray:1.00198548,1.00198548;stroke-miterlimit:4;stroke-dashoffset:0"
       r="12"
       cy="53"
       cx="132"
       transform="matrix(7.4851384,0,0,-7.4851384,-430.61888,1331.7162)"
       sodipodi:cx="132"
       sodipodi:cy="53"
       sodipodi:rx="12"
       sodipodi:ry="12"
       d="m 144,53 c 0,6.627417 -5.37258,12 -12,12 -6.62742,0 -12,-5.372583 -12,-12 0,-6.627417 5.37258,-12 12,-12 6.62742,0 12,5.372583 12,12 z" />
  </g>
</svg>
