<svg baseProfile="full" height="210mm" version="1.1" viewBox="0 0 148 210" width="148mm" xmlns="http://www.w3.org/2000/svg" xmlns:ev="http://www.w3.org/2001/xml-events" xmlns:xlink="http://www.w3.org/1999/xlink"><defs /><circle cx="26" cy="49" fill="none" r="12" stroke="black" stroke-width=".1" style="stroke-dasharray:1.2,1.2;" /><circle cx="101" cy="154" fill="none" r="12" stroke="black" stroke-width=".1" style="stroke-dasharray:1.2,1.2;" /><circle cx="130" cy="159" fill="none" r="12" stroke="black" stroke-width=".1" style="stroke-dasharray:1.2,1.2;" /><circle cx="97" cy="122" fill="none" r="12" stroke="black" stroke-width=".1" style="stroke-dasharray:1.2,1.2;" /><circle cx="42" cy="21" fill="none" r="12" stroke="black" stroke-width=".1" style="stroke-dasharray:1.2,1.2;" /><circle cx="129" cy="131" fill="none" r="12" stroke="black" stroke-width=".1" style="stroke-dasharray:1.2,1.2;" /><circle cx="54" cy="69" fill="none" r="12" stroke="black" stroke-width=".1" style="stroke-dasharray:1.2,1.2;" /><circle cx="107" cy="57" fill="none" r="12" stroke="black" stroke-width=".1" style="stroke-dasharray:1.2,1.2;" /><circle cx="103" cy="41" fill="none" r="12" stroke="black" stroke-width=".1" style="stroke-dasharray:1.2,1.2;" /><circle cx="88" cy="151" fill="none" r="12" stroke="black" stroke-width=".1" style="stroke-dasharray:1.2,1.2;" /><circle cx="64" cy="18" fill="none" r="12" stroke="black" stroke-width=".1" style="stroke-dasharray:1.2,1.2;" /><circle cx="112" cy="71" fill="none" r="12" stroke="black" stroke-width=".1" style="stroke-dasharray:1.2,1.2;" /><circle cx="107" cy="141" fill="none" r="12" stroke="black" stroke-width=".1" style="stroke-dasharray:1.2,1.2;" /><circle cx="107" cy="42" fill="none" r="12" stroke="black" stroke-width=".1" style="stroke-dasharray:1.2,1.2;" /><circle cx="38" cy="107" fill="none" r="12" stroke="black" stroke-width=".1" style="stroke-dasharray:1.2,1.2;" /><circle cx="89" cy="13" fill="none" r="12" stroke="black" stroke-width=".1" style="stroke-dasharray:1.2,1.2;" /><circle cx="127" cy="172" fill="none" r="12" stroke="black" stroke-width=".1" style="stroke-dasharray:1.2,1.2;" /><circle cx="35" cy="131" fill="none" r="12" stroke="black" stroke-width=".1" style="stroke-dasharray:1.2,1.2;" /><circle cx="39" cy="159" fill="none" r="12" stroke="black" stroke-width=".1" style="stroke-dasharray:1.2,1.2;" /><rect fill="none" height="67" stroke="black" stroke-width=".1" style="stroke-dasharray:1.2,1.2;" transform="rotate(6,115,94.5)" width="34" x="98" y="61" /><rect fill="none" height="34" stroke="black" stroke-width=".1" style="stroke-dasharray:1.2,1.2" transform="rotate(38,107.5,94)" width="67" x="74" y="77" /></svg>