<svg baseProfile="full" height="210mm" version="1.1" viewBox="0 0 148 210" width="148mm" xmlns="http://www.w3.org/2000/svg" xmlns:ev="http://www.w3.org/2001/xml-events" xmlns:xlink="http://www.w3.org/1999/xlink"><defs /><circle cx="12" cy="130" fill="none" r="12" stroke="black" stroke-width=".1" style="stroke-dasharray:1.2,1.2;" /><circle cx="73" cy="44" fill="none" r="12" stroke="black" stroke-width=".1" style="stroke-dasharray:1.2,1.2;" /><circle cx="20" cy="154" fill="none" r="12" stroke="black" stroke-width=".1" style="stroke-dasharray:1.2,1.2;" /><circle cx="46" cy="167" fill="none" r="12" stroke="black" stroke-width=".1" style="stroke-dasharray:1.2,1.2;" /><circle cx="100" cy="162" fill="none" r="12" stroke="black" stroke-width=".1" style="stroke-dasharray:1.2,1.2;" /><circle cx="129" cy="179" fill="none" r="12" stroke="black" stroke-width=".1" style="stroke-dasharray:1.2,1.2;" /><circle cx="94" cy="58" fill="none" r="12" stroke="black" stroke-width=".1" style="stroke-dasharray:1.2,1.2;" /><circle cx="42" cy="196" fill="none" r="12" stroke="black" stroke-width=".1" style="stroke-dasharray:1.2,1.2;" /><circle cx="96" cy="80" fill="none" r="12" stroke="black" stroke-width=".1" style="stroke-dasharray:1.2,1.2;" /><circle cx="63" cy="124" fill="none" r="12" stroke="black" stroke-width=".1" style="stroke-dasharray:1.2,1.2;" /><circle cx="90" cy="43" fill="none" r="12" stroke="black" stroke-width=".1" style="stroke-dasharray:1.2,1.2;" /><circle cx="112" cy="126" fill="none" r="12" stroke="black" stroke-width=".1" style="stroke-dasharray:1.2,1.2;" /><circle cx="93" cy="194" fill="none" r="12" stroke="black" stroke-width=".1" style="stroke-dasharray:1.2,1.2;" /><circle cx="69" cy="98" fill="none" r="12" stroke="black" stroke-width=".1" style="stroke-dasharray:1.2,1.2;" /><circle cx="83" cy="68" fill="none" r="12" stroke="black" stroke-width=".1" style="stroke-dasharray:1.2,1.2;" /><circle cx="46" cy="25" fill="none" r="12" stroke="black" stroke-width=".1" style="stroke-dasharray:1.2,1.2;" /><circle cx="75" cy="105" fill="none" r="12" stroke="black" stroke-width=".1" style="stroke-dasharray:1.2,1.2;" /><circle cx="78" cy="100" fill="none" r="12" stroke="black" stroke-width=".1" style="stroke-dasharray:1.2,1.2;" /><circle cx="80" cy="124" fill="none" r="12" stroke="black" stroke-width=".1" style="stroke-dasharray:1.2,1.2;" /><circle cx="75" cy="85" fill="none" r="12" stroke="black" stroke-width=".1" style="stroke-dasharray:1.2,1.2;" /><circle cx="77" cy="194" fill="none" r="12" stroke="black" stroke-width=".1" style="stroke-dasharray:1.2,1.2;" /><circle cx="46" cy="119" fill="none" r="12" stroke="black" stroke-width=".1" style="stroke-dasharray:1.2,1.2;" /><circle cx="83" cy="174" fill="none" r="12" stroke="black" stroke-width=".1" style="stroke-dasharray:1.2,1.2;" /><circle cx="109" cy="156" fill="none" r="12" stroke="black" stroke-width=".1" style="stroke-dasharray:1.2,1.2;" /><circle cx="78" cy="73" fill="none" r="12" stroke="black" stroke-width=".1" style="stroke-dasharray:1.2,1.2;" /><circle cx="14" cy="95" fill="none" r="12" stroke="black" stroke-width=".1" style="stroke-dasharray:1.2,1.2;" /><circle cx="85" cy="13" fill="none" r="12" stroke="black" stroke-width=".1" style="stroke-dasharray:1.2,1.2;" /><circle cx="87" cy="155" fill="none" r="12" stroke="black" stroke-width=".1" style="stroke-dasharray:1.2,1.2;" /><circle cx="42" cy="96" fill="none" r="12" stroke="black" stroke-width=".1" style="stroke-dasharray:1.2,1.2;" /><circle cx="110" cy="151" fill="none" r="12" stroke="black" stroke-width=".1" style="stroke-dasharray:1.2,1.2;" /><circle cx="115" cy="32" fill="none" r="12" stroke="black" stroke-width=".1" style="stroke-dasharray:1.2,1.2;" /><circle cx="107" cy="59" fill="none" r="12" stroke="black" stroke-width=".1" style="stroke-dasharray:1.2,1.2;" /><circle cx="92" cy="143" fill="none" r="12" stroke="black" stroke-width=".1" style="stroke-dasharray:1.2,1.2;" /><circle cx="73" cy="78" fill="none" r="12" stroke="black" stroke-width=".1" style="stroke-dasharray:1.2,1.2;" /><circle cx="102" cy="151" fill="none" r="12" stroke="black" stroke-width=".1" style="stroke-dasharray:1.2,1.2;" /><circle cx="24" cy="131" fill="none" r="12" stroke="black" stroke-width=".1" style="stroke-dasharray:1.2,1.2;" /><circle cx="62" cy="172" fill="none" r="12" stroke="black" stroke-width=".1" style="stroke-dasharray:1.2,1.2;" /><circle cx="108" cy="101" fill="none" r="12" stroke="black" stroke-width=".1" style="stroke-dasharray:1.2,1.2;" /><circle cx="17" cy="73" fill="none" r="12" stroke="black" stroke-width=".1" style="stroke-dasharray:1.2,1.2;" /><circle cx="56" cy="35" fill="none" r="12" stroke="black" stroke-width=".1" style="stroke-dasharray:1.2,1.2;" /><circle cx="125" cy="114" fill="none" r="12" stroke="black" stroke-width=".1" style="stroke-dasharray:1.2,1.2;" /><circle cx="126" cy="101" fill="none" r="12" stroke="black" stroke-width=".1" style="stroke-dasharray:1.2,1.2;" /><circle cx="55" cy="43" fill="none" r="12" stroke="black" stroke-width=".1" style="stroke-dasharray:1.2,1.2;" /><circle cx="41" cy="61" fill="none" r="12" stroke="black" stroke-width=".1" style="stroke-dasharray:1.2,1.2;" /><circle cx="57" cy="120" fill="none" r="12" stroke="black" stroke-width=".1" style="stroke-dasharray:1.2,1.2;" /><circle cx="78" cy="152" fill="none" r="12" stroke="black" stroke-width=".1" style="stroke-dasharray:1.2,1.2;" /><circle cx="20" cy="182" fill="none" r="12" stroke="black" stroke-width=".1" style="stroke-dasharray:1.2,1.2;" /><circle cx="117" cy="102" fill="none" r="12" stroke="black" stroke-width=".1" style="stroke-dasharray:1.2,1.2;" /><circle cx="45" cy="22" fill="none" r="12" stroke="black" stroke-width=".1" style="stroke-dasharray:1.2,1.2;" /><rect fill="none" height="67" stroke="black" stroke-width=".1" style="stroke-dasharray:1.2,1.2;" transform="rotate(7,89,135.5)" width="34" x="72" y="102" /><rect fill="none" height="34" stroke="black" stroke-width=".1" style="stroke-dasharray:1.2,1.2" transform="rotate(11,93.5,95)" width="67" x="60" y="78" /></svg>