<svg baseProfile="full" height="210mm" version="1.1" viewBox="0 0 148 210" width="148mm" xmlns="http://www.w3.org/2000/svg" xmlns:ev="http://www.w3.org/2001/xml-events" xmlns:xlink="http://www.w3.org/1999/xlink"><defs /><circle cx="47" cy="42" fill="none" r="12" stroke="black" stroke-width=".1" style="stroke-dasharray:1.2,1.2;" /><circle cx="86" cy="97" fill="none" r="12" stroke="black" stroke-width=".1" style="stroke-dasharray:1.2,1.2;" /><circle cx="20" cy="128" fill="none" r="12" stroke="black" stroke-width=".1" style="stroke-dasharray:1.2,1.2;" /><circle cx="77" cy="81" fill="none" r="12" stroke="black" stroke-width=".1" style="stroke-dasharray:1.2,1.2;" /><circle cx="81" cy="48" fill="none" r="12" stroke="black" stroke-width=".1" style="stroke-dasharray:1.2,1.2;" /><circle cx="27" cy="98" fill="none" r="12" stroke="black" stroke-width=".1" style="stroke-dasharray:1.2,1.2;" /><circle cx="117" cy="50" fill="none" r="12" stroke="black" stroke-width=".1" style="stroke-dasharray:1.2,1.2;" /><circle cx="18" cy="33" fill="none" r="12" stroke="black" stroke-width=".1" style="stroke-dasharray:1.2,1.2;" /><circle cx="90" cy="150" fill="none" r="12" stroke="black" stroke-width=".1" style="stroke-dasharray:1.2,1.2;" /><circle cx="90" cy="79" fill="none" r="12" stroke="black" stroke-width=".1" style="stroke-dasharray:1.2,1.2;" /><circle cx="13" cy="112" fill="none" r="12" stroke="black" stroke-width=".1" style="stroke-dasharray:1.2,1.2;" /><circle cx="31" cy="136" fill="none" r="12" stroke="black" stroke-width=".1" style="stroke-dasharray:1.2,1.2;" /><circle cx="55" cy="132" fill="none" r="12" stroke="black" stroke-width=".1" style="stroke-dasharray:1.2,1.2;" /><circle cx="85" cy="56" fill="none" r="12" stroke="black" stroke-width=".1" style="stroke-dasharray:1.2,1.2;" /><circle cx="75" cy="14" fill="none" r="12" stroke="black" stroke-width=".1" style="stroke-dasharray:1.2,1.2;" /><circle cx="125" cy="163" fill="none" r="12" stroke="black" stroke-width=".1" style="stroke-dasharray:1.2,1.2;" /><circle cx="88" cy="54" fill="none" r="12" stroke="black" stroke-width=".1" style="stroke-dasharray:1.2,1.2;" /><circle cx="125" cy="97" fill="none" r="12" stroke="black" stroke-width=".1" style="stroke-dasharray:1.2,1.2;" /><circle cx="14" cy="16" fill="none" r="12" stroke="black" stroke-width=".1" style="stroke-dasharray:1.2,1.2;" /><circle cx="30" cy="29" fill="none" r="12" stroke="black" stroke-width=".1" style="stroke-dasharray:1.2,1.2;" /><circle cx="110" cy="75" fill="none" r="12" stroke="black" stroke-width=".1" style="stroke-dasharray:1.2,1.2;" /><circle cx="77" cy="131" fill="none" r="12" stroke="black" stroke-width=".1" style="stroke-dasharray:1.2,1.2;" /><circle cx="22" cy="122" fill="none" r="12" stroke="black" stroke-width=".1" style="stroke-dasharray:1.2,1.2;" /><circle cx="96" cy="114" fill="none" r="12" stroke="black" stroke-width=".1" style="stroke-dasharray:1.2,1.2;" /><circle cx="103" cy="62" fill="none" r="12" stroke="black" stroke-width=".1" style="stroke-dasharray:1.2,1.2;" /><circle cx="60" cy="25" fill="none" r="12" stroke="black" stroke-width=".1" style="stroke-dasharray:1.2,1.2;" /><circle cx="132" cy="53" fill="none" r="12" stroke="black" stroke-width=".1" style="stroke-dasharray:1.2,1.2;" /><circle cx="132" cy="120" fill="none" r="12" stroke="black" stroke-width=".1" style="stroke-dasharray:1.2,1.2;" /><circle cx="26" cy="165" fill="none" r="12" stroke="black" stroke-width=".1" style="stroke-dasharray:1.2,1.2;" /><circle cx="12" cy="81" fill="none" r="12" stroke="black" stroke-width=".1" style="stroke-dasharray:1.2,1.2;" /><circle cx="75" cy="166" fill="none" r="12" stroke="black" stroke-width=".1" style="stroke-dasharray:1.2,1.2;" /><circle cx="131" cy="131" fill="none" r="12" stroke="black" stroke-width=".1" style="stroke-dasharray:1.2,1.2;" /><circle cx="13" cy="17" fill="none" r="12" stroke="black" stroke-width=".1" style="stroke-dasharray:1.2,1.2;" /><rect fill="none" height="67" stroke="black" stroke-width=".1" style="stroke-dasharray:1.2,1.2;" transform="rotate(23,71,69.5)" width="34" x="54" y="36" /><rect fill="none" height="34" stroke="black" stroke-width=".1" style="stroke-dasharray:1.2,1.2" transform="rotate(5,84.5,176)" width="67" x="51" y="159" /></svg>