<svg baseProfile="full" height="210mm" version="1.1" viewBox="0 0 148 210" width="148mm" xmlns="http://www.w3.org/2000/svg" xmlns:ev="http://www.w3.org/2001/xml-events" xmlns:xlink="http://www.w3.org/1999/xlink"><defs /><circle cx="128" cy="58" fill="none" r="12" stroke="black" stroke-width=".1" style="stroke-dasharray:1.2,1.2;" /><circle cx="108" cy="109" fill="none" r="12" stroke="black" stroke-width=".1" style="stroke-dasharray:1.2,1.2;" /><circle cx="50" cy="27" fill="none" r="12" stroke="black" stroke-width=".1" style="stroke-dasharray:1.2,1.2;" /><circle cx="115" cy="88" fill="none" r="12" stroke="black" stroke-width=".1" style="stroke-dasharray:1.2,1.2;" /><circle cx="96" cy="27" fill="none" r="12" stroke="black" stroke-width=".1" style="stroke-dasharray:1.2,1.2;" /><circle cx="103" cy="178" fill="none" r="12" stroke="black" stroke-width=".1" style="stroke-dasharray:1.2,1.2;" /><circle cx="60" cy="185" fill="none" r="12" stroke="black" stroke-width=".1" style="stroke-dasharray:1.2,1.2;" /><circle cx="104" cy="34" fill="none" r="12" stroke="black" stroke-width=".1" style="stroke-dasharray:1.2,1.2;" /><circle cx="16" cy="72" fill="none" r="12" stroke="black" stroke-width=".1" style="stroke-dasharray:1.2,1.2;" /><circle cx="46" cy="103" fill="none" r="12" stroke="black" stroke-width=".1" style="stroke-dasharray:1.2,1.2;" /><circle cx="104" cy="91" fill="none" r="12" stroke="black" stroke-width=".1" style="stroke-dasharray:1.2,1.2;" /><circle cx="121" cy="43" fill="none" r="12" stroke="black" stroke-width=".1" style="stroke-dasharray:1.2,1.2;" /><circle cx="12" cy="180" fill="none" r="12" stroke="black" stroke-width=".1" style="stroke-dasharray:1.2,1.2;" /><circle cx="116" cy="132" fill="none" r="12" stroke="black" stroke-width=".1" style="stroke-dasharray:1.2,1.2;" /><circle cx="69" cy="22" fill="none" r="12" stroke="black" stroke-width=".1" style="stroke-dasharray:1.2,1.2;" /><circle cx="27" cy="119" fill="none" r="12" stroke="black" stroke-width=".1" style="stroke-dasharray:1.2,1.2;" /><circle cx="19" cy="188" fill="none" r="12" stroke="black" stroke-width=".1" style="stroke-dasharray:1.2,1.2;" /><circle cx="66" cy="107" fill="none" r="12" stroke="black" stroke-width=".1" style="stroke-dasharray:1.2,1.2;" /><circle cx="92" cy="20" fill="none" r="12" stroke="black" stroke-width=".1" style="stroke-dasharray:1.2,1.2;" /><circle cx="48" cy="26" fill="none" r="12" stroke="black" stroke-width=".1" style="stroke-dasharray:1.2,1.2;" /><circle cx="24" cy="101" fill="none" r="12" stroke="black" stroke-width=".1" style="stroke-dasharray:1.2,1.2;" /><circle cx="32" cy="128" fill="none" r="12" stroke="black" stroke-width=".1" style="stroke-dasharray:1.2,1.2;" /><circle cx="95" cy="120" fill="none" r="12" stroke="black" stroke-width=".1" style="stroke-dasharray:1.2,1.2;" /><circle cx="115" cy="60" fill="none" r="12" stroke="black" stroke-width=".1" style="stroke-dasharray:1.2,1.2;" /><circle cx="32" cy="159" fill="none" r="12" stroke="black" stroke-width=".1" style="stroke-dasharray:1.2,1.2;" /><circle cx="26" cy="108" fill="none" r="12" stroke="black" stroke-width=".1" style="stroke-dasharray:1.2,1.2;" /><circle cx="128" cy="52" fill="none" r="12" stroke="black" stroke-width=".1" style="stroke-dasharray:1.2,1.2;" /><circle cx="116" cy="167" fill="none" r="12" stroke="black" stroke-width=".1" style="stroke-dasharray:1.2,1.2;" /><circle cx="113" cy="104" fill="none" r="12" stroke="black" stroke-width=".1" style="stroke-dasharray:1.2,1.2;" /><circle cx="74" cy="92" fill="none" r="12" stroke="black" stroke-width=".1" style="stroke-dasharray:1.2,1.2;" /><circle cx="130" cy="75" fill="none" r="12" stroke="black" stroke-width=".1" style="stroke-dasharray:1.2,1.2;" /><circle cx="51" cy="187" fill="none" r="12" stroke="black" stroke-width=".1" style="stroke-dasharray:1.2,1.2;" /><circle cx="58" cy="167" fill="none" r="12" stroke="black" stroke-width=".1" style="stroke-dasharray:1.2,1.2;" /><circle cx="108" cy="27" fill="none" r="12" stroke="black" stroke-width=".1" style="stroke-dasharray:1.2,1.2;" /><circle cx="55" cy="130" fill="none" r="12" stroke="black" stroke-width=".1" style="stroke-dasharray:1.2,1.2;" /><circle cx="28" cy="84" fill="none" r="12" stroke="black" stroke-width=".1" style="stroke-dasharray:1.2,1.2;" /><circle cx="82" cy="127" fill="none" r="12" stroke="black" stroke-width=".1" style="stroke-dasharray:1.2,1.2;" /><circle cx="26" cy="67" fill="none" r="12" stroke="black" stroke-width=".1" style="stroke-dasharray:1.2,1.2;" /><circle cx="36" cy="181" fill="none" r="12" stroke="black" stroke-width=".1" style="stroke-dasharray:1.2,1.2;" /><rect fill="none" height="67" stroke="black" stroke-width=".1" style="stroke-dasharray:1.2,1.2;" transform="rotate(10,70,85.5)" width="34" x="53" y="52" /><rect fill="none" height="34" stroke="black" stroke-width=".1" style="stroke-dasharray:1.2,1.2" transform="rotate(36,136.5,166)" width="67" x="103" y="149" /></svg>