<svg baseProfile="full" height="210mm" version="1.1" viewBox="0 0 148 210" width="148mm" xmlns="http://www.w3.org/2000/svg" xmlns:ev="http://www.w3.org/2001/xml-events" xmlns:xlink="http://www.w3.org/1999/xlink"><defs /><circle cx="59" cy="75" fill="none" r="12" stroke="black" stroke-width=".1" style="stroke-dasharray:1.2,1.2;" /><circle cx="88" cy="72" fill="none" r="12" stroke="black" stroke-width=".1" style="stroke-dasharray:1.2,1.2;" /><circle cx="18" cy="163" fill="none" r="12" stroke="black" stroke-width=".1" style="stroke-dasharray:1.2,1.2;" /><circle cx="39" cy="125" fill="none" r="12" stroke="black" stroke-width=".1" style="stroke-dasharray:1.2,1.2;" /><circle cx="32" cy="114" fill="none" r="12" stroke="black" stroke-width=".1" style="stroke-dasharray:1.2,1.2;" /><circle cx="78" cy="124" fill="none" r="12" stroke="black" stroke-width=".1" style="stroke-dasharray:1.2,1.2;" /><circle cx="120" cy="183" fill="none" r="12" stroke="black" stroke-width=".1" style="stroke-dasharray:1.2,1.2;" /><circle cx="98" cy="133" fill="none" r="12" stroke="black" stroke-width=".1" style="stroke-dasharray:1.2,1.2;" /><circle cx="17" cy="77" fill="none" r="12" stroke="black" stroke-width=".1" style="stroke-dasharray:1.2,1.2;" /><circle cx="115" cy="160" fill="none" r="12" stroke="black" stroke-width=".1" style="stroke-dasharray:1.2,1.2;" /><circle cx="64" cy="27" fill="none" r="12" stroke="black" stroke-width=".1" style="stroke-dasharray:1.2,1.2;" /><circle cx="97" cy="68" fill="none" r="12" stroke="black" stroke-width=".1" style="stroke-dasharray:1.2,1.2;" /><circle cx="51" cy="144" fill="none" r="12" stroke="black" stroke-width=".1" style="stroke-dasharray:1.2,1.2;" /><circle cx="69" cy="40" fill="none" r="12" stroke="black" stroke-width=".1" style="stroke-dasharray:1.2,1.2;" /><circle cx="26" cy="156" fill="none" r="12" stroke="black" stroke-width=".1" style="stroke-dasharray:1.2,1.2;" /><circle cx="59" cy="148" fill="none" r="12" stroke="black" stroke-width=".1" style="stroke-dasharray:1.2,1.2;" /><circle cx="98" cy="63" fill="none" r="12" stroke="black" stroke-width=".1" style="stroke-dasharray:1.2,1.2;" /><circle cx="114" cy="29" fill="none" r="12" stroke="black" stroke-width=".1" style="stroke-dasharray:1.2,1.2;" /><circle cx="33" cy="138" fill="none" r="12" stroke="black" stroke-width=".1" style="stroke-dasharray:1.2,1.2;" /><circle cx="115" cy="54" fill="none" r="12" stroke="black" stroke-width=".1" style="stroke-dasharray:1.2,1.2;" /><circle cx="34" cy="165" fill="none" r="12" stroke="black" stroke-width=".1" style="stroke-dasharray:1.2,1.2;" /><circle cx="125" cy="105" fill="none" r="12" stroke="black" stroke-width=".1" style="stroke-dasharray:1.2,1.2;" /><circle cx="81" cy="168" fill="none" r="12" stroke="black" stroke-width=".1" style="stroke-dasharray:1.2,1.2;" /><circle cx="42" cy="191" fill="none" r="12" stroke="black" stroke-width=".1" style="stroke-dasharray:1.2,1.2;" /><circle cx="25" cy="71" fill="none" r="12" stroke="black" stroke-width=".1" style="stroke-dasharray:1.2,1.2;" /><circle cx="50" cy="60" fill="none" r="12" stroke="black" stroke-width=".1" style="stroke-dasharray:1.2,1.2;" /><circle cx="127" cy="46" fill="none" r="12" stroke="black" stroke-width=".1" style="stroke-dasharray:1.2,1.2;" /><circle cx="89" cy="43" fill="none" r="12" stroke="black" stroke-width=".1" style="stroke-dasharray:1.2,1.2;" /><circle cx="45" cy="182" fill="none" r="12" stroke="black" stroke-width=".1" style="stroke-dasharray:1.2,1.2;" /><circle cx="118" cy="170" fill="none" r="12" stroke="black" stroke-width=".1" style="stroke-dasharray:1.2,1.2;" /><circle cx="55" cy="112" fill="none" r="12" stroke="black" stroke-width=".1" style="stroke-dasharray:1.2,1.2;" /><circle cx="113" cy="113" fill="none" r="12" stroke="black" stroke-width=".1" style="stroke-dasharray:1.2,1.2;" /><circle cx="27" cy="46" fill="none" r="12" stroke="black" stroke-width=".1" style="stroke-dasharray:1.2,1.2;" /><circle cx="61" cy="184" fill="none" r="12" stroke="black" stroke-width=".1" style="stroke-dasharray:1.2,1.2;" /><circle cx="123" cy="167" fill="none" r="12" stroke="black" stroke-width=".1" style="stroke-dasharray:1.2,1.2;" /><circle cx="97" cy="115" fill="none" r="12" stroke="black" stroke-width=".1" style="stroke-dasharray:1.2,1.2;" /><circle cx="89" cy="46" fill="none" r="12" stroke="black" stroke-width=".1" style="stroke-dasharray:1.2,1.2;" /><circle cx="119" cy="81" fill="none" r="12" stroke="black" stroke-width=".1" style="stroke-dasharray:1.2,1.2;" /><circle cx="66" cy="82" fill="none" r="12" stroke="black" stroke-width=".1" style="stroke-dasharray:1.2,1.2;" /><circle cx="25" cy="110" fill="none" r="12" stroke="black" stroke-width=".1" style="stroke-dasharray:1.2,1.2;" /><circle cx="62" cy="26" fill="none" r="12" stroke="black" stroke-width=".1" style="stroke-dasharray:1.2,1.2;" /><circle cx="77" cy="30" fill="none" r="12" stroke="black" stroke-width=".1" style="stroke-dasharray:1.2,1.2;" /><circle cx="65" cy="44" fill="none" r="12" stroke="black" stroke-width=".1" style="stroke-dasharray:1.2,1.2;" /><circle cx="30" cy="141" fill="none" r="12" stroke="black" stroke-width=".1" style="stroke-dasharray:1.2,1.2;" /><circle cx="36" cy="109" fill="none" r="12" stroke="black" stroke-width=".1" style="stroke-dasharray:1.2,1.2;" /><circle cx="27" cy="65" fill="none" r="12" stroke="black" stroke-width=".1" style="stroke-dasharray:1.2,1.2;" /><circle cx="103" cy="53" fill="none" r="12" stroke="black" stroke-width=".1" style="stroke-dasharray:1.2,1.2;" /><circle cx="122" cy="158" fill="none" r="12" stroke="black" stroke-width=".1" style="stroke-dasharray:1.2,1.2;" /><circle cx="76" cy="82" fill="none" r="12" stroke="black" stroke-width=".1" style="stroke-dasharray:1.2,1.2;" /><rect fill="none" height="67" stroke="black" stroke-width=".1" style="stroke-dasharray:1.2,1.2;" transform="rotate(29,104,82.5)" width="34" x="87" y="49" /><rect fill="none" height="34" stroke="black" stroke-width=".1" style="stroke-dasharray:1.2,1.2" transform="rotate(28,87.5,141)" width="67" x="54" y="124" /></svg>