<?xml version="1.0" standalone="no"?>
<!DOCTYPE svg PUBLIC "-//W3C//DTD SVG 1.1//EN" "http://www.w3.org/Graphics/SVG/1.1/DTD/svg11.dtd" >
<svg viewBox="0 -200 1000 1000">
  <g transform="matrix(1 0 0 -1 0 800)">
   <path fill="currentColor"
d="M91 -137.5q0 0.5 -13 0.5l-12 1h-1v1v26q1 31 4 101q3 53 6 123q3 59 5 75q1 11 1 18q0 20 2 38q1 7 1 13v7v1l1 2l1 10q0 10 0.5 11t0.5 9v9l1 3l1 2v7q0 31 5 63l1 4l1 1h1l6 1q7 0 14 1l14 2q6 1 10.5 1.5t12 0.5t17.5 1t17 1q17 1 26 3l8 2l4 1l6 2q6 3 9 4
q10 3 21 9l3 1q2 0 17 6q5 2 16 8l11 5l12 8l18 11l23 15l8 6l8 8l9 8l7 9l8.5 11t5.5 8q16 22 26 39l5 10q11 21 15 34l2 8q4 16 6 22q0 3 1 6q4 14 7 29q4 24 4 51l1 14l3 1h3l32 -1q32 0 45 -1t31 -1q36 -1 43 -2q35 -2 41 -2q4 0 17.5 -1t25.5 -1.5t12.5 -0.5t11 -0.5
t14 -0.5t16.5 -1t29 -2q17 0 28 -1q38 -2 76 -5q8 -1 13 -1h6v-1l1 -1l1 -7q0 -6 1 -27.5t2 -32t2 -24.5l2 -29l1 -16l-1 -16q-1 -16 -1.5 -26.5t-1.5 -21t-1 -21.5l-1 -12v-34v-33l1 -26q0 -26 1 -39t1 -41l1 -28v-63v-62l-1 -45q-2 -141 -4 -170q-1 -35 -2 -51l-1 -12
l-1 -1l-1 -2h-2q-1 0 -12 -0.5t-21 -0.5q-66 -4 -157 -5q-45 0 -73 -1q-65 0 -150 -1q-45 0 -59 -1q-12 0 -183.5 -0.5t-171.5 0zM300 -110q43 2 282 1h84h43l21 1q21 1 35 2l27 1q12 1 26 2l36 3q26 2 32 4l3 2l1 2q0 3 1.5 36t1.5 45q1 11 1.5 27t1.5 29.5t2 28.5l1 24
q1 31 1 54q0 13 1 16v55.5v51.5q-1 1 -2 88q-1 42 -1 59l-1 16v60q0 151 -4 172l-1 3l-1 1q-2 2 -15 3l-9 1h-1q-1 1 -2 3l-1 1l-2 1l-2 1l-16 1l-25 2q-9 0 -22.5 1t-21 1.5t-8 0.5h-7.5q-44 5 -103 7q-24 0 -38 1q-8 1 -23 2l-30 2l-14 1h-14h-14l-3 -2l-3 -1l-1 -3l-1 -3
l-2 -13q-3 -24 -5 -37q-1 -6 -1 -9v-3l2 -3l1 -2l4 -2l12 -4q10 -4 22 -7l3 -1h13h14l6 1l12.5 3.5t7.5 1.5q11 3 18 6q5 2 6 2t5.5 1.5t12.5 3.5l8 2h3h3l4 -1q4 -1 8 -3l8 -2q4 -1 7 -3l8 -3l5 -2.5t5.5 -2t10.5 -4.5q11 -4 25 -8l8 -2h7l7 -1l7 1q7 0 15 1l9 1h3l4 -1v-6
q4 -32 0 -32q-2 0 -3.5 -0.5t-7 -1t-11.5 -1.5t-12 -1l-5 -1l-8 1q-25 2 -31 6q-1 2 -1.5 2t-2.5 1l-2 1h-2l-2 1l-4 3l-5 2l-3 1q-2 1 -3 2t-9 3l-7 2l-9 2q-10 1 -14 2h-4h-8q-9 -1 -12 -2q-11 -2 -16 -5q-9 -5 -13 -6q-1 -1 -7 -4q-13 -6 -26 -9l-6 -1h-12h-13l-5 1
q-12 3 -20 6.5t-10 4.5l-2 1h-6h-6l-2 -2q-2 -3 -4 -7q-24 -55 -33 -67q-2 -2 -6 -8l-6 -9t-3 -4q-3 -5 -9 -12l-2 -3l-1 -2v-2v-3q0 -4 4 -11q4 -9 21 -28l5 -6l5 -4q13 -9 48 -24q19 -8 60 -17q36 -8 52 -15l4 -3l5 -4l6 -4l2 -4q3 -3 7 -10l8 -13q4 -6 6 -8l2 -2l2 -3
q2 -6 12 -17.5t16 -15.5l3 -2v-1q0 -1 -6.5 -11.5t-7.5 -12.5t-2 -2h-1l-2 1q-1 1 -5 3l-8 5q-4 2 -10 7l-6 4l-5 6l-9 10q-5 4 -8 8l-3 5l-2 1l-4 2q-3 2 -6 7l-1 3l-3 2q-2 1 -4.5 2t-4.5 3q-7 5 -17 9q-3 1 -6 3t-10 4.5t-9 4t-10.5 4.5l-11.5 4l-3 2h-4q-4 1 -23 7
q-6 2 -7 2t-3 1q-6 3 -11 4l-9 4l-4 1l-4 2t-9 4l-4 1l-2 2l-1 2h-2h-2l-3 3q-3 2 -5.5 3.5t-6.5 5.5l-7 8q-5 5 -8 10q-2 2 -8 10q-3 4 -5 7l-2 4l-2 1l-2 1h-2q-5 0 -8 -3q-1 -1 -2 -1t-7 -3l-5 -2l-1 -1q-1 -2 -2 -2t-9 -5q-2 -1 -4.5 -3t-3.5 -2t-4 -1l-3 -1v-1
q-1 -2 -3.5 -3.5t-5 -3.5t-3.5 -2t-4.5 -3.5t-4 -3.5t-3.5 -2q-5 -3 -8 -5q-3 -1 -5 -3t-5 -4l-3 -2l-1 -1l-1 -2l1 -11v-11l2 -8q2 -7 4 -13l1 -6l7 -13q6 -14 8 -16q8 -12 33 -36l16 -17l8 -9q32 -39 41 -70q3 -9 5 -49q1 -14 6 -41l1 -7v-1l-1 -1h-1q-2 0 -9 -1l-20 -4
l-5 -1l-1 1l-1 1l-1 7q-1 7 -1 12q-2 30 -5 47l-2 7l-2 7q-9 26 -24 46l-8 10q-5 7 -19 22q-45 49 -59 84l-4 13q-2 5 -6 21l-2 5v10v10l-2 1l-1 2h-2q-20 0 -39 -3q-4 -1 -10 -1h-6l-1 -1q-1 -1 -1.5 -1t-4.5 -2l-3 -2l-1 -1q0 -1 -2 -6q-4 -10 -5 -18q0 -3 -1 -7l-1 -3v-8
l-1 -8l1 -8q1 -9 1 -10.5v-7.5l1 -6l2 -8q3 -15 17 -39l9 -16q5 -10 11 -20q7 -15 9 -28q2 -11 2 -27l1 -10l-1 -4q0 -4 -1 -13.5t-2 -13.5t-2 -11l-7 -47l-1 -8l-1 -1l-1 -1l-12 -1q-12 -1 -13 -1h-2v34v35l-2 7q-7 51 -15 61q0 1 -3 8l-12 26q-10 21 -11 24q-1 2 -3.5 7.5
t-3 7t-1.5 5.5q-4 8 -5 16q0 5 -1 8l-1 3l1 3v11v7l1 2l2 6q0 6 3 13q1 4 1 7l1 3l1 1l1 2v1q0 1 1 2.5t2 7t3 11t2 8.5l1 2l-1 2l-1 1h-15h-14l-3 -2l-4 -2v-1q-1 -1 -1.5 -7.5t-1.5 -11t-0.5 -5t-0.5 -6.5q-1 -9 -1 -34q-1 -10 -1.5 -18.5t-1 -25.5t-1 -25t-1.5 -29
t-1 -30q-2 -18 -3 -106q-1 -39 -1 -45t-0.5 -18t-0.5 -20l-1 -8v-24v-24l1 -2q1 -2 3 -3l1 -1l11 -1q39 -4 107 -5q13 0 44.5 0.5t35.5 0.5z" />
  </g>

</svg>
