<?xml version="1.0" standalone="no"?>
<!DOCTYPE svg PUBLIC "-//W3C//DTD SVG 1.1//EN" "http://www.w3.org/Graphics/SVG/1.1/DTD/svg11.dtd" >
<svg viewBox="0 -200 1530 1488">
  <g transform="matrix(1 0 0 -1 0 800)">
   <path fill="currentColor"
d="M811 54q-47 3 -88 10l-21 3q-24 4 -47 9q-22 4 -30 7l-20 7q-60 22 -96 39q-36 18 -76 45q-20 14 -42 34l-24 20q-46 40 -76 75q-26 31 -39 49q-20 27 -48 77q-21 38 -41 85q-15 35 -19 54l-3 9q-8 20 -11 34q-1 6 -2.5 11t-2.5 11.5t-2 10.5t0 6t-2 14q-5 25 -9 70
q-1 10 -1 12q-1 1 -1 26t1 32q0 9 1 20q1 18 3 39q0 6 1 13t1 13q1 7 2 10.5t1 4.5q0 2 11 52q1 6 2 7.5t1 5.5q2 10 5 16q1 2 3 9q1 3 2 10q1 6 3 9q1 1 1.5 3.5t1.5 2.5q3 0 2 5q0 1 1.5 3.5t0.5 4t0 2.5t1 2q-1 4 2 4q1 0 1 3q0 4 4 11q2 4 1.5 4.5t0.5 2.5q7 7 8 15
q0 4 3 7.5t3 4.5t1.5 3.5t1.5 4t1.5 3t2.5 4.5t3 3.5t2 3.5t2 5.5t2 4.5q3 8 6 10t3 6t1.5 4t3 2.5t1.5 4.5t1 2q4 0 7 7q1 3 0 5l-2 1l2 1q4 2 4 7q0 2 1.5 3.5t1.5 2.5q0 6 6 10q2 2 3 4.5t3 2.5t2.5 0.5t0.5 1.5q-1 2 1 2t2.5 0.5t1.5 0.5t2.5 1t0.5 2.5t-0.5 2.5
t2.5 0.5t2 2.5t1.5 3t1 1.5t0 1.5t0.5 -1t1.5 -1t1.5 2.5t1.5 6.5t3.5 4t2.5 1.5t2.5 2t2 2.5q0 3 6 6q3 1 3.5 4.5t3.5 4.5t3 2q0 4 4 5q2 2 3 4t2 2t2 2q3 3 10 3q7 1 3 3.5t4 10.5q6 5 7 5t2.5 2t4.5 3t3.5 3t2 2t2.5 2t5 4.5t7 2.5q1 0 0.5 2.5t0.5 3.5q9 2 9 4t1.5 2
t5.5 4q7 9 11 9q2 0 3 1q1 3 6.5 7.5t7.5 5.5q4 1 6 4q8 10 15 12q2 1 3.5 2t3 1t1.5 1q0 2 6 6.5t9 4.5q1 0 3.5 2.5t4.5 2t2.5 1t1.5 1.5t2.5 1.5t7 4.5t6.5 3.5t3 1t2.5 1.5t2 0.5t3.5 1.5q4 3 7 5q2 0 2.5 1.5t2 1.5t3 1t3 1t3.5 2q5 5 18 10q4 2 6.5 3t3.5 1t3 1.5
t3.5 2t2.5 0.5q6 4 9 4l4.5 2t7.5 3t10.5 4.5t9 3.5t1.5 1q2 1 11 4l12.5 4t11.5 4q10 3 29 7q6 1 11 3q4 2 19.5 4.5t16 2t1.5 0.5q3 1 15 3l14 2q6 0 14.5 0.5t14.5 2t6.5 1t12.5 1t21.5 1t11.5 -0.5h37q27 -1 32 -3q1 0 10.5 -0.5t16.5 -1.5q7 0 15 -1q25 -3 32 -5
q8 -2 15 -2q14 -2 15 -3q2 -1 7.5 -1.5t11.5 -2.5t9.5 -2t3.5 -1q0 -2 9 -3q7 -1 9 -1t3 -1t2 -0.5t1 1.5q0 3 2 1q1 0 1 -2q0 -3 3 -3t4.5 1.5t6.5 0.5t6 -4q0 -2 2.5 -2t2.5 -1.5t3 -1.5t6 -0.5t3 0.5q0 2 4 0t5 -2q7 0 24 -9q5 -2 8.5 -3t5.5 -3t3 -2q3 0 29 -14
q19 -10 26 -15q5 -3 9 -6q26 -14 53 -35l10 -7l12 -9q8 -6 11 -8q5 -3 35 -35l47 -51q9 -10 10 -11l5 -5q3 -4 11 -13q20 -23 25 -36q1 -1 5 -7l9 -14l10 -19l10 -18l16 -29q11 -21 13.5 -26.5t11.5 -23.5q7 -16 21 -58q9 -25 18 -63q6 -26 10 -79q1 -16 3 -36q1 -19 1 -42
q-1 -22 -1 -50q-1 -33 -3 -49t-16 -88q-4 -21 -17 -52q-3 -8 -3 -8.5t-2 -5.5l-7 -18l-10 -25l-7 -17l-5 -10l-5 -12q-18 -39 -32 -62q-8 -12 -19 -27q-4 -5 -5.5 -7.5t-3.5 -4.5t-6 -8q-10 -15 -47 -52q-57 -57 -70 -67l-7 -6q-24 -19 -26 -19q-1 0 -5 -4l-15 -9
q-3 -2 -6.5 -4t-11.5 -7l-29 -16q-8 -5 -16 -9t-9 -5q-18 -10 -36 -16q-23 -9 -25 -9l-3.5 -1.5t-4.5 -1.5t-11 -3q-43 -13 -67 -18q-16 -4 -24 -5q-7 0 -19 -2q-14 -3 -38 -5q-23 -2 -32 -4q-4 -1 -32.5 -1h-39.5zM506 472q35 3 45 9q2 1 5 1q2 0 9 2.5t9 3.5q1 1 6.5 3.5
t6.5 2.5q2 0 21 10q15 7 27 18l7 7l6 5l9 6q6 5 6.5 5t2.5 2t6 4q16 12 22 18q2 2 6 10q6 9 12 17q3 4 6 9l7 12q7 10 13 26q15 37 20 63q1 5 2 11t1.5 10.5t2.5 9.5q1 5 0.5 21t-1.5 23q-1 5 -1 11q0 21 -4 46q-5 30 -15 54q-13 32 -40 61q-47 51 -83 68q-17 8 -28 11
q-5 2 -9 4q-7 3 -18 6l-11 3q-32 9 -94 10q-25 0 -35 -4q-7 -3 -12 -4t-11.5 -4t-8 -3t-7.5 -2q-9 -3 -13 -4q-2 0 -8 -3t-8 -3t-10 -4t-9.5 -4t-4.5 -2t-5 -3t-6 -4t-14 -9q-18 -13 -23 -18q-3 -4 -5 -6q-6 -4 -14 -16q-3 -4 -5.5 -6.5t-4.5 -6t-3 -4.5q-2 -1 -10 -15
l-6 -9q-3 -3 -6 -9q-1 -3 -2.5 -4t-3 -4.5t-2 -3.5t-3 -5t-3.5 -6t-5.5 -10t-6.5 -11.5t-2 -5t-1 -6.5t-1 -5.5t-1.5 -5t-2.5 -9.5q-1 -10 -3 -15q-1 -1 -1 -7t-1 -12t-1 -10t-1 -7.5t-0.5 -5.5t0 -7t0 -8t0 -13.5t0 -12.5t1.5 -10.5t2 -13.5t1 -10l2 -14q1 -5 1.5 -10.5
t1 -6t0.5 -4.5t1.5 -6.5t1.5 -5.5q-1 -9 1 -11q0 -1 0.5 -5t9 -16.5t8.5 -14.5q2 -5 20 -22l6.5 -10t6 -9.5t2.5 -5.5t3 -4t3 -4q3 -4 12 -10q5 -4 6 -5.5t4.5 -3t10.5 -8l7 -6.5q2 0 10 -6q2 -2 8 -5.5t8.5 -5.5t6.5 -4l14 -7q10 -4 20.5 -6.5t14.5 -3t6.5 -1.5t7.5 -2
t8 -2q10 -3 34 -6q6 -1 15 -1t13 -1q15 -1 38 1zM490 1060.5v1.5l-6 0.5t-6 -1.5t7 -2q5 0 5 1.5zM245 1192.5q0 0.5 -1 1.5t-1.5 0.5t0 -1.5t1.5 -1t1 0.5zM379 1206l-0.5 0.5t-0.5 -0.5h1zM282 1212q0 1 -1 1t-1 -1t1 -1t1 1zM291 1212.5q0 0.5 -1 0.5q-1 1 -1 0.5v-1.5
t1 -1q1 1 1 1.5zM866 1237q27 9 31 38q1 5 0.5 13.5t-1.5 11t-2 5.5q-3 7 -11.5 15t-15.5 10l-8 2q-8 3 -14 1q-3 -1 -8 -2q-9 -1 -20 -13q-8 -9 -12 -20q-2 -6 -2 -16q0 -13 5 -23q10 -21 34 -25q11 -2 24 3zM300 1239q0 1 -1 1t-0.5 -1t1 -1t0.5 1zM310 1242q-1 0 -1 -0.5
t0.5 -0.5t0.5 1zM335 1283q0 3 -2 3q-1 0 0 -2q1 -1 2 -1zM353 1285q-1 1 -1.5 0.5t0 -1.5t1.5 -0.5t0 1.5zM357.5 1299q-0.5 1 -1.5 0.5t-0.5 -1.5t1.5 -0.5t0.5 1.5zM386 1312h-2q0 -2 1.5 -2t0.5 2zM379 1317.5q0 1.5 -1 2t-1 -1.5t1 -2t1 1.5zM399 1341v1q-1 0 -0.5 -1
t1 -1t-0.5 1zM304 1267q0 1 1 1t1 -1t-1 -1t-1 1zM304 1267zM821 53q-9 1 -21 1.5t-20 1.5l-21 2q-26 3 -54 8l-18 2.5t-18.5 3.5t-11.5 2q-21 4 -31 8q-84 29 -128 52q-18 9 -19 10t-4.5 2.5t-10.5 6.5l-16 10q-8 5 -11.5 7.5t-6 4t-10 7.5t-9.5 7.5l-6.5 5l-6.5 5t-6 5.5
t-11.5 10t-8.5 7q-5 6 -11 8q-1 0 -2 3q-2 3 -15 13l-3 3q-2 3 -23 23q-16 15 -29 32l-15 19q-33 40 -54 77q-39 67 -58 114q-12 28 -18 52q-2 6 -7 18q-9 24 -13 51q-2 9 -2 11t0.5 4.5t-1.5 10.5q-4 17 -7 47q-3 24 -4 56q-1 24 0 46q2 34 6 78q1 16 10 53q14 58 32 109
q7 19 17 39l9 17q4 10 5 11t2 5q10 18 12 20l3 6l3 6l4 8q13 26 22 37l6 7l4.5 4.5t6 7.5t8.5 9.5t4.5 4.5t8.5 10l11 12q3 4 4 4t14 12q11 11 16 14q3 3 9.5 8.5t9.5 7.5t5 4q7 6 16 13q5 3 6 4.5t10 8.5q10 7 23 18q12 10 12.5 10t10.5 7t13 8.5t6 2.5q14 11 18 11
q1 0 8 4l11 5q4 2 7 4.5t5 3.5q8 1 10 5q5 5 38 17q7 3 10 5q1 1 5.5 2l4.5 1q2 4 13 6q11 3 23 8q4 1 7.5 2t6.5 3q6 3 22 5q9 2 20 5.5t19 4.5q16 2 24 4q13 2 21 3q7 1 18 2t15 2t16 2h47.5t39.5 -1q8 -1 18 -2q19 -1 53 -4q14 -1 22.5 -3t12.5 -2q10 2 18 -1
q3 -1 7.5 -1t8 -1t9.5 -2t16 -4l21 -5q11 -3 22 -7q35 -12 44 -17q23 -10 46 -22q5 -2 7.5 -4t10.5 -6q45 -26 73 -47l9 -8l13 -9q9 -7 34.5 -32.5t30.5 -31.5l31 -35q30 -32 43 -55l8 -11l11 -19l10 -19q5 -8 8 -14q8 -17 18 -33q14 -25 27 -58l5 -14q12 -31 17 -49
q12 -45 15 -61q3 -18 6 -56l3 -31q3 -31 1 -110q-1 -34 -3 -44l-3 -20q-2 -11 -3 -16t-3 -12q-1 -5 -3 -16t-2 -15q-4 -30 -20 -65q-2 -3 -2 -4.5t-1 -4t-2.5 -7t-4.5 -10.5q-3 -7 -4 -12q-2 -5 -8 -18.5t-6.5 -15.5t-3 -6t-2.5 -6q-1 -3 -8.5 -18t-9.5 -18t-2 -4t-5.5 -12
t-8.5 -15q-4 -5 -5 -7.5t-3.5 -5.5t-5.5 -7.5t-5.5 -7.5t-4.5 -7t-6 -8t-6 -8t-5 -7t-5 -6q-3 -5 -29 -30q-7 -7 -8.5 -9.5t-4 -3.5t-5 -5t-5 -5.5t-18.5 -17.5l-21 -21l-10 -8q-4 -4 -8.5 -7t-5.5 -4q-19 -17 -27 -20q-2 -1 -6 -5q-6 -4 -12 -7q-2 -1 -6 -4t-5 -3
t-3.5 -2.5t-9.5 -6t-8 -4.5t-2 -1t-3 -2.5t-4 -2.5q-5 0 -14 -8q-2 -1 -4.5 -1.5t-4 -1.5t-3 -1t-2 -1.5t-4 -4t-4.5 -1.5q-2 0 -6 -2t-5 -3q-1 -2 -2 -2t-6 -2.5t-7 -2.5t-3 -1t-2.5 -1t-5.5 -2.5t-7.5 -2.5t-6.5 -1.5t-4 -1.5q-3 0 -4 -2q0 -2 -12 -3q-5 -1 -7 -3t-6.5 -3
t-5.5 -2t-5.5 -0.5t-9.5 -1t-10 -2.5q-11 -2 -14 -5q-1 -1 -5.5 -1.5t-6.5 -1.5q-4 -1 -20 -3q-6 -1 -14 -2t-11 -2l-19 -1q-15 -2 -21 -2.5t-13.5 -1t-10 -1.5t-6.5 -2q-4 0 -29.5 -0.5t-32.5 0.5zM502 472q15 1 27 5q5 1 5.5 1t8 2t8.5 3q2 1 4.5 0.5t5 1t5 2t9.5 4t11 5
t8 3.5t10 4q15 7 21 13q3 2 5 3.5t8.5 7l9.5 8t6 4.5q8 7 9 7t4 2.5l8 6.5q13 10 15.5 13t9.5 13l8.5 12.5t5.5 8.5l6 8q11 16 12 22l2 4q9 14 19 54q6 22 8 38q1 7 2 12q2 10 -1 43q0 9 -1 23q-2 32 -10 61q-7 25 -13 34q-3 5 -5 9q-6 13 -22 32q-10 12 -28.5 30.5
t-27.5 25.5q-32 23 -60 32q-9 3 -13.5 5t-10.5 3.5t-8 2.5t-5 1.5t-9 2.5q-21 6 -57 7q-12 0 -22.5 0.5t-24.5 -0.5t-19 -3q-12 -6 -18 -6q-2 0 -3 -1t-7 -3.5t-8 -2.5q-7 0 -10 -4q0 -1 -5 -2q-11 -1 -14 -4h-2.5t-3 -1.5t-3.5 -1.5t-2 -0.5t-4 -2.5q-6 -3 -8 -5
q-1 0 -6 -2t-8 -4l-7 -6q-16 -13 -21 -13q-1 0 -5 -4t-4.5 -6t-4 -4t-5.5 -6t-3 -4t-3.5 -2.5t-2.5 -3.5t-2 -3t-2 -2.5t-2.5 -3.5t-3.5 -5t-4.5 -6t-5 -7.5t-2 -3.5t-4.5 -5.5t-4.5 -7.5t-2.5 -4.5t-2.5 -4.5t-4.5 -6q-8 -10 -8 -15q0 -1 -1 -2t-3 -5t-3 -4.5t-1.5 -3
t-2.5 -4.5q-5 -7 -10 -38q-1 -6 -1.5 -7t-0.5 -5.5t-1.5 -10t-1 -13.5t-0.5 -9.5t0 -5.5t0 -6t-1 -17.5t1 -25.5q3 -32 8 -61l2 -13l2 -14q1 -7 9 -20l8 -12q3 -5 11 -13t14 -17q11 -20 19 -27q3 -4 18 -14q3 -3 9.5 -8t8 -6t7.5 -6q20 -14 28 -17q1 0 9.5 -4.5t15.5 -6.5
q17 -5 23 -5q2 0 4 -1t6.5 -1.5t9 -2t9.5 -2.5l9 -1q12 -2 29 -3l20 -2q11 -1 29 0zM861 1237q24 7 33 28q7 18 1 35q-5 15 -17 24q-6 4 -13.5 6t-15.5 2q-14 -1 -22 -6q-15 -10 -22 -28q-4 -14 -1 -28q4 -14 14.5 -23t23.5 -11q11 -1 19 1zM861 1237zM834 49q-1 2 -35 5
q-11 0 -17 1t-21 3q-23 2 -39 5q-24 3 -37 5q-9 2 -17 4q-9 2 -14 2q-20 4 -30 8l-13 4l-13 5l-18 6q-11 4 -17.5 7t-8.5 4q-10 3 -31 13q-8 4 -10 4.5t-3 1l-15.5 8t-15.5 8.5t-5 2.5t-10.5 6.5t-8.5 6q-11 6 -20 13q-4 3 -4.5 3t-3 2t-10 7t-10 7.5t-3 2.5t-3.5 2.5
t-4 2.5q-2 0 -10 9q-3 4 -4 4q-4 0 -13 10q-4 5 -5.5 5t-2.5 1t-2.5 1t-3.5 3.5t-4 5.5q-8 7 -11 9q-3 1 -3 2t-4 5.5t-6 5.5q-2 2 -2 2.5t-7 7.5q-16 16 -27 30q-5 7 -8.5 11t-6.5 8t-7 8q-25 30 -53 78q-44 77 -65 135q-6 18 -8 23q-5 18 -9 26q-8 19 -12 50
q-1 10 -0.5 13t-2.5 12q-7 34 -10 86q-3 38 0 76l2 21q1 10 1.5 18.5t1.5 19.5q2 17 10 55q13 55 33 111q6 18 16 39l14 27l3 6l7 13l17 31q13 26 22 36l11 13q28 31 32 34q1 1 3.5 4t4 4.5t14 12.5l20 17.5l11 9.5t4 3t5.5 4q14 12 28 22l12 10q22 18 31 24l9 6q5 4 17 11
q14 8 15 9q2 2 10 5q15 7 19 11l4 2q8 2 10 5t21 10q3 1 9 4t9.5 4t6.5 3.5t4 2.5q3 0 13 4q5 3 10 4t6.5 2t9.5 4l17 5q16 6 19 6q16 3 28 6q8 3 15 4t9.5 1.5t7.5 1t9 1.5q14 4 39 6q11 0 14 1.5t7.5 1.5t5.5 1t4 0.5t35 -0.5q50 -1 55 -2t20 -1.5t16 -1.5q3 -1 40 -3
q10 -1 11 -1.5t14.5 -1.5t18.5 -2t6 -1q2 1 59 -14q14 -3 23 -7l17 -6q20 -7 24 -9l6 -3q5 -1 31 -15t34 -19q5 -4 14 -9q11 -6 40 -26l26 -19l10 -8q6 -4 15 -13q30 -28 47 -47l11 -12l16 -18l21 -24q15 -17 28 -38l9 -15q5 -8 10.5 -18t6.5 -11t11 -20l6 -11
q18 -33 28 -56q9 -19 12 -28q0 -2 3 -8q14 -35 23 -70l3 -14q9 -31 12 -80q1 -11 2.5 -30t2.5 -40q1 -86 -3 -113q-4 -28 -8 -45q-1 -6 -2 -13.5t-3 -12.5q-1 -6 -2 -15q-5 -26 -18 -60q-4 -9 -4 -9.5t-2 -4.5l-3 -9q-11 -31 -18 -45q-1 -2 -2.5 -6.5t-3.5 -7.5t-3 -6.5
t-3 -7t-3 -7.5t-3 -6t-4 -7t-3 -6.5t-3.5 -6.5t-3.5 -6.5t-3.5 -7.5t-6.5 -11t-5 -8t-5 -7.5t-5.5 -7.5t-4.5 -6t-6 -11q-1 -2 -3.5 -3.5t-7.5 -9t-7 -9.5t-2 -3q0 -2 -17 -19l-11 -11l-10 -10l-20 -20q-5 -5 -5 -5.5t-4.5 -4.5l-16.5 -15q-19 -18 -26 -23q-5 -2 -5.5 -3
t-2.5 -2.5t-5 -5.5q-6 -8 -10 -8q-1 0 -3 -2t-5.5 -3.5t-5.5 -4.5t-3.5 -3t-5.5 -2.5t-4 -3t-2 -0.5t-6 -4t-5.5 -4t-1.5 -1t-1.5 -1t-3.5 -2q-5 -3 -7 -3q-1 0 -6.5 -6t-8 -5.5t-4 0t-4 -1.5t-3 -3t-2 -2.5t-4 -2.5t-5 -2t-3.5 -1q-2 -5 -3 -5t-2.5 -1.5t-2.5 -0.5
q-4 1 -10 -4l-5 -5l-2 1q-2 1 -5.5 -1t-3.5 -4q0 -5 -3 -1q-2 2 -3 1t-1 -2t-4 -1t-4.5 -1.5t-2.5 -1.5t-3 -1q-1 -5 -5 -2q0 3 -6 -1q-1 0 -5.5 -2.5t-6.5 -3.5t-4 -0.5t-4.5 -0.5t-3 -1t-3.5 -1.5t-7 -3t-5 -3.5t-8 0q-2 0 -5 -2q-4 -4 -10 -3h-4q-1 -4 -16 -4
q-6 0 -10 -4q-2 -2 -4 -1.5t-3.5 0.5t-2.5 1l-1 1l-3 2q-1 0 -1.5 -2t-3.5 -2t-7 -1.5t-5.5 -1t-3.5 -0.5q-2 -3 -3 1q0 1 -3 2t-6 0q-2 -1 -4.5 0t-8 0.5t-6 -1t-6.5 -0.5q-24 1 -30 -2q-3 -2 -12 -2q-16 -1 -27 -1q-4 -1 -7 -2q-7 -3 -10 0zM507 474q15 1 23 4q4 1 8.5 2
t9 2.5l7.5 2.5q9 2 13 4q9 5 19.5 8t30.5 14q6 4 17 14q5 5 10 8l7 5l20 15q18 14 23 21q25 37 31 48q24 42 36 111q1 10 1 27q-1 55 -6 80q-3 16 -5 22q-1 4 -4 12q-5 19 -10 27q-3 3 -5 8q-10 20 -32 44q-29 32 -46 44q-19 14 -31 20q-11 5 -31 12q-11 4 -15 5q-7 4 -23 8
q-2 0 -6 2q-18 5 -53 5q-18 0 -20.5 1t-16 0.5t-19.5 -1.5t-8.5 -1t-6.5 -2t-5 -2t-2 -1t-3 -1t-3.5 -1t-7.5 -2.5t-9 -3t-7.5 -3t-7 -2.5t-9.5 -3q-17 -5 -26 -11l-12.5 -6t-7.5 -4.5t-4 -2.5t-6 -4.5t-5 -4.5t-6 -4t-5.5 -3t-6.5 -4.5t-5.5 -6.5t-1 -2t-4 -3.5l-4.5 -4.5
q0 -2 -5 -7t-5 -6t-3 -4.5t-4.5 -6.5t-3.5 -4q-4 -1 -4 -6q0 -2 -2 -4l-4 -4q-2 -2 -5 -8t-4 -7t-1 -2t-3.5 -7t-4 -7t-2.5 -4q-3 -2 -14 -24q-5 -10 -9 -25q-1 -4 -2.5 -17t-2 -15.5t-1 -13.5t-1.5 -13t-0.5 -27t1.5 -35q1 -11 1 -17t1 -10t1.5 -11t1.5 -9.5t1 -5t1 -5
t2 -15.5q2 -11 3.5 -14t9.5 -16q10 -15 18 -22q4 -3 10 -13q10 -18 16.5 -25t22.5 -19l10 -7q24 -18 34 -24q2 -1 15 -7q18 -10 52 -16q6 -1 10 -2q7 -2 30 -5q12 -2 36 -3q8 0 8.5 -0.5t10 0t15.5 1.5zM860 1237q19 5 28 18q14 21 6 46q-4 10 -11 18q-8 8 -20 11t-23 0
q-13 -3 -22 -13q-13 -13 -15 -33q-1 -27 22 -41q8 -5 17 -6q9 -2 18 0zM979 57l1 1v-2zM979 57zM835 48q-1 3 -36 6q-11 0 -17 1t-21 3q-23 2 -39 5q-24 3 -37 5q-9 2 -17 4q-9 2 -14 2q-21 4 -31 8q-7 3 -13 5l-12 4l-18 6q-11 4 -16 6.5t-11 4.5q-19 7 -32 13q-6 4 -8 4.5
t-5.5 2.5t-11.5 5.5t-9 4.5t-4.5 2.5t-6.5 3.5t-4.5 2t-5.5 4t-6 4.5t-4 2t-3 1.5t-2 1.5t-4.5 3t-6 3.5t-4.5 2q-3 1 -10 8.5t-11 7.5q-2 0 -2 1.5t-5 3t-6 3.5q-2 6 -6 6q-1 0 -10 11q-2 2 -3 2t-5 3t-5 3t-2.5 2t-1.5 3t-7 5q-4 2 -6 5q-8 11 -16 13q-3 0 -3 3
q0 1 -2.5 5t-3.5 4t-3 2t-2 3t-3.5 3t-3.5 3t-1 1t-4.5 3t-3.5 5q-1 3 -15 17q-5 4 -7 8.5t-4.5 6.5t-2.5 3t-2.5 3t-3.5 4.5t-7 8.5q-8 10 -13 17l-7 11q-4 4 -10.5 14.5t-7 11t-3 5t-3.5 5t-3.5 6t-5.5 10t-3 5t-7 12.5q-33 58 -53 114q-6 18 -8 23q-5 18 -9 26
q-8 19 -12 50q-1 10 -0.5 13t-2.5 12q-11 51 -11 116q0 36 3 63q2 25 4 47q1 16 9 49q14 58 26 93q8 26 13 38l20 41l21 39l10 20q12 21 19.5 31t40.5 46q10 11 14 15l11 10q22 20 35 29q3 3 8 7q9 8 27 21q9 7 17 14l30 23l9 6q2 2 6 4t10 6t8 5l4 2q4 3 15 7q6 2 11 6
q6 6 9 5q1 0 2 1t3 1q3 0 3 3t9 5q2 0 8 3t7.5 3t3 2t2.5 2t4 1.5t5 1.5t4 2q5 5 12 5q2 0 6.5 3t10 4t8.5 2l9 3t6.5 2.5t10.5 4t11.5 3.5t3.5 1q4 2 17 3q3 0 13.5 3.5t12.5 4.5q1 1 2 0q3 -2 13 1q4 1 10 1.5t10 1.5t13 2t10 2t12.5 1t13.5 1q5 3 2 3q-1 0 -1 1h5
q2 -2 4 0q0 2 11 0q6 -1 33 -1q47 0 53 -1q5 -1 19 -2t26 -2l23 -2l21.5 -2t18.5 -2q8 0 10 -1t8.5 -1.5t12.5 -2.5l18 -4q34 -8 42 -11q3 -2 7 -3q3 -1 14 -5l17 -6q6 -2 12 -5l13 -6q18 -8 34 -17q32 -18 38 -23l11 -7q28 -17 44 -30q26 -20 33 -26q31 -29 54 -55l38 -43
l10 -12q14 -15 34 -48l24 -44l7 -13l13 -23q18 -33 27 -61q1 -3 8 -19q9 -25 21 -68q8 -31 10 -48q0 -5 0.5 -6t0.5 -6q0 -4 1 -12q1 -7 2 -12q0 -6 2 -25q3 -43 2 -80q-1 -73 -4 -95q-2 -10 -2 -15q-1 -6 -2.5 -13.5l-3 -14.5t-2.5 -10l-2 -9q-1 -5 -1 -8q0 -10 -9 -36
q-2 -8 -2 -9t-1.5 -4t-3 -7.5t-2 -5t-0.5 -1.5q0 -4 -5 -12q-1 -2 -2.5 -8t-2 -6.5t-1 -3.5t-2.5 -6l-3 -8q-2 -4 -4 -8.5t-3 -8t-2 -5.5q-3 -6 -5 -11q-1 -3 -2.5 -5.5t-2.5 -6.5t-4 -9.5t-3 -7t-2.5 -4.5t-2.5 -4q0 -4 -5 -10q-2 -3 -3 -5t-1.5 -2.5t-0.5 -3t-1 -3.5
t-4.5 -6.5t-5.5 -9t-5 -9.5t-6.5 -9.5t-3.5 -4.5t-4 -5.5t-5 -8t-7 -8.5t-5.5 -6.5t-2 -5.5t-5 -5.5t-2.5 -2.5t-2.5 -3.5t-2.5 -4t-2 -4t-3 -2.5q-4 0 -9 -8q-1 -2 -3.5 -2.5t-2.5 -2.5q0 -5 -4 -5t-4 -4q0 -2 -2 -3t-4 -3t-5 -4t-4.5 -6.5t-4 -5t-4 -3t-4.5 -3.5t-3.5 -4
t-2 -3.5t-4 -2.5t-3.5 -2t-3.5 -3t-10 -10.5t-7.5 -8.5t-2 -1.5t-2 -2.5t-1.5 -2t-3.5 -2q-3 -4 -7 -4q-1 0 0 -2v-1q-1 1 -2 1t-1 -1l-3.5 -2.5t-4.5 -2.5t-4.5 -4.5t-3.5 -6.5q-1 -1 -3.5 -0.5t-2.5 -1.5q-3 -6 -14 -11q-3 -2 -6 -3.5t-3.5 -1t-1.5 -1t-2 -1.5q-3 0 -4 -4
q-1 -1 -4 -3l-6 -4t-5.5 -2t-2.5 -2q0 -5 -4 -1q-3 2 -4 -2q-1 -2 -3 -3t-2 -1.5t-2.5 -1.5t-2.5 -2t-1.5 -2.5t-3.5 -1t-4.5 -1.5t-5 -3.5t-3.5 -4t-4 -3.5q-4 -1 -6 0q-1 0 -3.5 -1.5t-2.5 -2.5q0 -3 -6 -4q-2 0 -2 -2q-1 -4 -5 -3q-3 1 -3 0l-4 -2h-1q-1 1 -2 1t-1 -2.5
t-1.5 -4t-2.5 -0.5t-3.5 1.5l-5 1t-3.5 -1.5q-2 -5 -5 -5q-1 0 -2 -2q-2 -2 -5 -1q-1 1 -2.5 -1t-6.5 -2t-5.5 -1.5t-5.5 -1.5t-7 -4q0 -1 -6 -1t-6 -1q0 -4 -6 -4q-3 0 -5.5 -1t-4.5 -1q-6 0 -9 -4q-6 -3 -9 1l-1 1q-2 0 -3 -3q-2 -3 -4.5 -3.5t-4 1.5t-4.5 1.5t-6 -3
t-5 -2.5t-3 -1t-3.5 -2t-5.5 0q-7 2 -10 0q-2 -2 -5 -2t-2.5 1.5t-3.5 2.5q-7 0 -7 -4t-5 0q-2 2 -2 4.5t-2 2.5t-3.5 -2t-4.5 -2t-4.5 -1t0 0.5t2 3.5t-2 1t-3.5 -2t-10 -2q-3 -1 -5 0q-3 3 -4.5 -0.5t-5.5 1t-6 0.5q-2 -3 -22 -3q-14 0 -15 -0.5t-2 0.5q-6 3 -12 -2
q-6 -4 -7 0zM978 60q0 1 -0.5 1t-0.5 -1.5t0.5 -1t0.5 1.5zM1020 65q0 1 -1 1t-1 -1t1 -1t1 1zM1085.5 83q-0.5 1 -2 1t-1 -1t2 -1t1 1zM507 473q11 2 21 5q6 1 10.5 2t9 2.5t8 2t7.5 2.5q4 1 17 7q6 3 7.5 3t17.5 8q15 7 28 19q16 14 17 14t3.5 2.5t7.5 5.5q25 18 29 22
t29 42q30 45 43 123q1 10 1 27q-1 55 -6 80q-3 16 -5 22q-1 4 -4 12q-5 19 -10 27q-3 3 -5 8q-10 20 -32 44q-29 32 -46 44q-19 14 -31 20q-11 5 -31 12q-11 4 -15 5q-7 4 -23 8q-2 0 -6 2q-18 5 -54 5q-17 0 -19.5 1t-16 0.5t-19.5 -1.5t-8.5 -1t-6.5 -2t-5 -2t-2 -1
t-3.5 -1t-4 -1.5t-6 -2.5t-8.5 -2.5t-8.5 -3t-7 -2.5t-9.5 -3q-17 -5 -26 -11l-12.5 -6t-7.5 -4.5t-4 -2.5t-6 -4.5t-5 -4.5t-6 -4t-5.5 -3t-6.5 -4.5t-5.5 -6.5t-1 -2t-4 -3.5l-4.5 -4.5q0 -2 -5 -7t-5 -6.5t-2 -3t-4.5 -6t-4.5 -5.5q-4 -1 -4 -6q0 -2 -2 -4q-6 -6 -9 -12
t-4 -7t-1 -2t-4 -7.5t-4 -8.5t-2 -3q-3 -1 -7 -10l-3 -6q-9 -15 -8 -19q0 -2 -1 -3q-5 -5 -5 -14q0 -3 -1.5 -16t-2 -13.5t-1 -12t-1.5 -13.5t-0.5 -27t1.5 -35q1 -11 1 -17t1 -10t1.5 -11t1.5 -9.5t1 -5t1 -5t2 -15.5q2 -11 3.5 -14t9.5 -16q10 -15 18 -22q4 -3 10 -13
q10 -18 16.5 -25t22.5 -19l10 -7q24 -18 34 -24q2 -1 15 -7q18 -10 52 -16q6 -1 10 -2q7 -2 30 -5q12 -2 36 -3q8 0 8.5 -0.5t10 0t15.5 0.5zM302 986q0 1 0.5 1t0.5 -0.5t-1 -0.5zM862 1240q7 2 16 7q14 10 18 29q3 18 -6 34q-6 10 -16 16t-23 6t-23 -6q-12 -7 -18 -19
q-11 -21 -5 -40q3 -8 11 -15.5t17 -10.5q13 -5 29 -1zM1105.5 89q0.5 1 0.5 0q2 -1 0 -1q-1 0 -0.5 1zM1105 89zM843 43q-2 2 -17 3q-4 0 -5.5 2t-8.5 2l-14 2q-9 2 -11.5 1.5t-7.5 0.5q-6 1 -21 3q-9 1 -11.5 1.5t-8.5 1.5q-17 1 -20 3l-5.5 0.5t-10.5 1.5t-9 2
q-20 2 -22 3q-1 0 -20.5 4t-27 7t-13.5 5q-9 3 -17 6q-15 6 -18 6t-4 1q-5 4 -8 4q-2 0 -3.5 1t-6 2.5t-7.5 3.5l-9 4q-6 2 -14 6t-10 4.5t-6.5 3t-7.5 3t-6.5 3.5t-6.5 4t-7.5 4t-6.5 3.5t-6.5 4t-6.5 4t-3 1.5q-4 3 -9 4q-3 1 -8 3q-4 2 -4.5 3t-0.5 2t-1.5 3t-2.5 2
t-3.5 2t-4 1t-1.5 0t-2 3t-4 2q-1 0 -3 2t-3 2t-5.5 4.5t-5.5 4.5t-5.5 4t-4.5 5t-4.5 3.5t-5.5 3.5t-2 1t-12 11q-4 4 -7 5.5t-5 5t-4 4.5t-4 4t-4.5 4t-3 2.5t-1 1.5t-1.5 2q0 1 -3.5 4.5l-3.5 3.5q-1 0 -4 3t-3.5 3t-1.5 2t-2.5 3.5t-5.5 6.5l-8 9q-15 16 -16 19
q0 1 -5.5 7t-7 9.5t-2.5 3.5t-18 24q-19 25 -37 57q-29 51 -44 84t-32 84q-3 11 -5 15t-7 23q-9 35 -6 39q0 2 -2 12q-3 14 -6 37q-1 5 -2 18l-2 22q-4 42 3 123q1 8 1 20q3 28 18 86.5t30 94.5q8 20 23 48l20 38l10 20q12 21 19.5 31t40.5 46q10 11 14 15l11 10
q22 20 35 29q3 3 8 7q9 8 27 21q9 7 17 14l30 23l9 6q2 2 6 4t10 6t8 5l4 2q4 3 15 7q6 2 11 6q6 6 9 5q1 0 2 1t3 1q3 0 3 3t9 5q2 0 8 3t7.5 3t3 2t2.5 2t4 1.5t5 1.5t4 2q5 5 12 5q2 0 6.5 3t10 4t8.5 2l9 3t6.5 2.5t10.5 4t12 3.5t3 1t6 1.5t6 1t3.5 0t3.5 0.5l-1 2
q-4 1 0 3q2 2 6 2t5 -2q3 -3 13 3q2 0 3.5 -0.5t4 0t3.5 0t2.5 1t6.5 1.5q8 0 14 3h3t2 0.5t9.5 1t12 2t7 1t4.5 0t3.5 0.5t4.5 2q6 4 11 2q2 -1 3.5 0.5t4.5 0.5q9 -2 40 -2q47 0 53 -1q5 -1 19 -2t26 -2l23 -2l21.5 -2t18.5 -2q8 0 10 -1t8.5 -1.5t12.5 -2.5l18 -4
q34 -8 42 -11q3 -2 7 -3q3 -1 14 -5l17 -6q6 -2 12 -5l13 -6q18 -8 34 -17q32 -18 38 -23l11 -7q28 -17 44 -30q26 -20 33 -26q31 -29 54 -55l38 -43l10 -12q14 -15 34 -48l24 -44l7 -13l13 -23q17 -30 28 -62q1 -4 7 -19q8 -22 14 -43q14 -49 18 -84q2 -19 3 -33
q1 -8 3 -32q2 -26 1 -63q-1 -74 -4 -96q-2 -10 -2 -15q-1 -6 -2.5 -13.5l-3 -14.5t-2.5 -10l-2 -9q-1 -5 -1 -8q0 -10 -9 -36q-2 -8 -2 -9t-1.5 -4t-3 -7.5t-2 -5t-0.5 -1.5q0 -4 -5 -12q-1 -2 -2.5 -8t-2 -6.5t-1 -3.5t-2.5 -6l-3 -8q-2 -4 -4 -8.5t-3 -8t-2 -5.5
q-3 -6 -5 -11q-1 -3 -2.5 -5.5t-2.5 -6.5t-4 -9.5t-3 -7t-2.5 -4.5t-2.5 -4q0 -4 -5 -10q-2 -3 -3 -5t-1.5 -2.5t-0.5 -3t-1 -3.5t-4.5 -6.5t-5.5 -9t-5 -9.5t-6.5 -9.5t-3.5 -4.5t-4 -5.5t-5 -8t-7 -8.5t-5.5 -6.5t-2 -5.5t-5 -5.5t-2.5 -2.5t-2.5 -3.5t-2.5 -4t-2 -4
t-3.5 -2.5t-4.5 -4q-4 -4 -10 -12q-2 -2 -4.5 -3t-2.5 -3q-1 -2 -3 -4t-4 -2q-1 0 -1.5 -1t-3.5 -3t-4.5 -6.5t-4 -5t-4 -3t-4.5 -3.5t-3.5 -4t-2.5 -4q-8 -4 -12 -9t-10 -10.5t-6 -6.5t-2 -1.5t-2 -2.5t-1.5 -2t-3 -1.5t-5 -3.5t-2.5 -3h-1q0 1 -1 0.5t-1 -1t-3.5 -3
t-4.5 -2.5t-2 -2t-3.5 -4.5t-3 -4t-1.5 -1.5q-5 2 -5 -1t-7 -8q-6 -4 -7 -4l-4 -2l-4 -2t-2 -1.5t-2 -0.5q-3 0 -4 -4q-1 -1 -4 -3l-6 -4t-5 -2t-3 -2q0 -4 -4 -1q-2 1 -3 -0.5t-1 -2.5t-1 -1t-3.5 -2.5t-4 -2.5t-1.5 -1t-2 -2.5t-3 -0.5q-2 0 -4.5 -2t-5 -3.5t-3.5 -3.5
q-1 -4 -9 -5q-3 -1 -3.5 -2t-1.5 -1t-3 -2t-4.5 -2t-2.5 -2t-6 -4t-7 -1t-2 0t-1 -3t-1.5 -3t-2.5 0t-4.5 -0.5t-5.5 -1t-4 -1t-3 -1.5t-2 -2t-3.5 -2t-4.5 -1t-6 -1t-5 -1t-2 -1t-3.5 -2t-3.5 -2q-3 2 -3 0q-1 -2 -4.5 -2.5t-9.5 -3t-8 -2.5h-3q-4 -3 -10 -3q-1 0 -3 -2
t-5.5 -2t-4.5 2l-1 2l-2 -3q-5 -7 -9 -3q-1 1 -2 0t-3.5 -0.5t-6.5 -2.5q-9 -5 -15 -3q-8 2 -10 -1q-2 -1 -3.5 -0.5t-3.5 -0.5q-3 -3 -7 2q-1 2 -2.5 1t-1.5 -3t-3 -1.5t-5 2.5q-3 2 -13 0q-2 0 -2 1l-2 2q-2 0 -4 -2q-3 -2 -4 -1t-3.5 1t-3 1t-2 1t-2.5 -1q-3 -3 -5 0
q-4 4 -7 1t-14 -3q-5 0 -6.5 -2t-3.5 0h-8q1 -3 16 -4q6 0 7 -1l-8 -1h-2q-8 0 -19 -0.5t-12 1.5zM1085 83q0 1 -1 1t-1 -1t1 -1t1 1zM502 474q5 0 14.5 1.5t11.5 2.5t8.5 2.5t11 3t12 3.5t10 3.5t3.5 1.5t5 2q8 3 11 4l9 4.5t7.5 3.5t8.5 4q8 5 23 17q7 6 10.5 8.5t6 5
t6.5 5.5q25 17 30 23q3 3 18 26l10 15q26 38 39 104q6 26 5 46q0 37 -4 71q-2 12 -8 34q-6 23 -17 43q-10 17 -23 33q-12 14 -30.5 32t-25.5 23q-3 2 -8 6q-18 13 -43 22q-53 19 -90 23q-4 1 -12.5 1t-13.5 -1q-1 0 -8 1q-16 3 -28 1q-3 -1 -9 -2q-13 -2 -17 -4
q-2 -1 -3.5 -1t-3.5 -1t-3.5 -1t-4 -1.5t-6.5 -2t-9 -3.5t-6.5 -3h-2.5q-8 -4 -11 -5q-3 0 -6 -1.5t-6.5 -2t-5 -2t-3.5 -1.5t-4.5 -2t-4 -2t-2 -1t-4 -2.5t-4.5 -3t-4 -2t-5.5 -3t-6 -4t-7 -5t-5.5 -4.5t-3 -2.5t-4 -2.5q-8 -3 -14 -13q-4 -5 -5 -5t-1.5 -1.5t-5 -6
t-6 -8.5t-4 -5.5t-5 -5.5l-2.5 -4q-1 0 -4 -7q0 -2 -1.5 -2.5t-2 -2t-2.5 -2.5t-3 -4q0 -5 -10 -17q-3 -5 -3 -8t-2 -4q-6 -3 -9 -13q0 -3 -2 -4q-7 -5 -8 -17q0 -3 -1 -4q-5 -8 -5 -16q0 -4 -1 -7q-1 -9 -4 -31q-2 -21 -2 -52q1 -20 1 -23.5t1 -11t1 -9.5q-1 -9 4 -28
q1 -5 0.5 -5.5t0.5 -4t1 -5.5t0.5 -3.5t2 -11.5t2.5 -12q5 -10 17 -26q4 -4 9.5 -9t8.5 -10q6 -13 17 -26q5 -7 35 -30q28 -21 31 -21q1 0 3 -2q14 -9 32 -15q14 -4 22 -5q4 -1 6 -1q1 -1 30 -6q18 -3 31 -4q10 -1 18 -1q21 -2 31 0zM862 1240q7 2 16 7q10 8 15 20q3 5 3 16
t-2 16q-6 15 -19 24q-8 5 -22 6q-20 1 -34 -13q-8 -8 -12 -19q-2 -5 -2 -16q0 -14 5 -22q8 -13 23 -18q13 -5 29 -1zM643 1465h-2l-1 -1q-1 -1 1 -0.5t2 1.5zM643 1465zM967 37q0 1 -9 1q-20 1 -22 2l-2 1h2q2 1 4 1l2 1l-2 1q-2 1 -4 0.5t-3.5 -0.5t-1 -1.5t-0.5 -2
t-14.5 -0.5h-16.5q-12 3 -63 -1q-11 -1 -14 2l-4 2t-4 3t-4 0.5t-7 1t-4.5 0.5t-3.5 1t-6 2q-7 0 -14 2q-3 1 -10 2t-7.5 0.5t-2.5 -0.5q-8 3 -26 5q-27 4 -33 6q-4 0 -8 1q-14 1 -21 3q-5 1 -9.5 2t-8.5 2t-11 2q-13 3 -23 8q-4 2 -7.5 2.5t-5 1.5t-3.5 1t-8 2q-11 5 -14 3
t-9 4q-5 4 -6.5 4t-4 2t-5 2t-3 0.5t-2.5 0.5t-3.5 1.5t-7.5 4t-8 2.5q-7 0 -7 3t-6 3q-2 0 -2 0.5t-2 0.5t-4 2t-4 2t-2.5 1t-2 1t-2 1t-2.5 1t-3 -1t-1.5 -0.5t-0.5 2.5t-1.5 2t-2.5 1t-2.5 1t-4.5 3.5t-4.5 3.5t-2 1t-2.5 1q-4 1 -9 6q-1 1 -4 0.5t-4.5 1.5t-4.5 2.5
t-5.5 2.5t-5.5 4t-5.5 4t-3.5 1.5t-4 1.5t-4 2t-3 2l-3 3l-6 6t-7 5q-3 0 -11 9q-2 2 -4 3t-2.5 2.5t-1.5 1.5t-3 2q-2 3 -7 4q-2 1 -3.5 3t-5 5.5t-3.5 4.5t-3.5 3l-3.5 2q0 3 -14 15q-10 9 -10 11q0 1 -5 5q-10 8 -12 14q-1 1 -2 1t-2 2q-4 8 -7 9q-2 1 -5 5.5l-5.5 8
t-4 6t-6.5 7.5t-6 8.5t-5 6.5t-5 6t-3 4.5t-4 5.5t-4 6q-9 10 -26 38l-22 39q-18 32 -29 55q-5 10 -13 31q-9 21 -23 61q-3 9 -6 17t-4 12q-1 5 -4 17q-6 26 -5 34q1 3 -2 14q-5 25 -10 71q-1 12 -1 44q0 39 5 84q1 8 1 20q2 25 15 75t27 90q13 36 18 41q0 1 9 19l13 23
l23 44q10 19 25 35l8 9q28 33 37 41l11 10q22 20 35 29q3 3 8 7q9 8 27 21q9 7 17 14l30 23l9 6q2 2 6 4t10.5 6.5t8.5 5l2 0.5q1 2 15 7q6 3 16 10q3 2 5 2t3 1.5t2 1.5t2 2q2 3 9 5q3 0 9.5 3.5t7 3t2 1.5t2.5 2t4 1.5t5.5 2t3.5 1.5q6 5 13 5q2 0 6.5 3t10.5 4q12 3 25 8
q9 4 19 7q4 0 5.5 2t6 2t4.5 1t4.5 3.5t7.5 2.5q3 1 11 1t9 1t1.5 0t2 -1t1.5 2t2.5 1.5t4.5 0.5t5 -0.5t4 -1t4.5 1t6.5 2t4 0.5q1 0 1 0.5v0.5q0 2 2 2q4 -1 8.5 -1h5.5q11 4 15 3q2 -1 3.5 0t3.5 1t4 1.5t7 1.5t7.5 0.5t9.5 -1t35 -1.5q47 0 53 -1q5 -1 19 -2t26 -2
l23 -2l21.5 -2t18.5 -2q8 0 10 -1t8.5 -1.5t12.5 -2.5l18 -4q34 -8 42 -11q3 -2 7 -3q3 -1 14 -5l17 -6q6 -2 12 -5l13 -6q18 -8 34 -17q32 -18 38 -23l11 -7q28 -17 44 -30q26 -20 33 -26q31 -29 54 -55l38 -43l11 -13q7 -7 20 -28l17 -27l12 -21q7 -12 10 -18l12 -23
q14 -26 22 -44l5.5 -11t1 -3t8.5 -22q15 -38 23 -72l4 -14q9 -31 12 -80l2 -20l1 -20q1 -10 1 -11q2 -2 0 -87q-1 -37 -2 -48l-5 -28q-1 -8 -3 -16.5t-2 -11.5t-1 -7q-2 -5 -5 -24q-4 -23 -12 -44q-2 -5 -2 -6t-1 -3q-4 -8 -5 -12q0 -2 -3 -10q-3 -7 -4 -11q-3 -11 -9 -22
q0 -1 -2.5 -7t-3.5 -8q-6 -12 -6 -15q0 -2 -1.5 -3t-2.5 -5.5t-3 -7.5t-2.5 -6.5t-2.5 -5.5q-5 -6 -5 -12q0 -2 -2 -3q-6 -6 -6 -10q0 -2 -3 -6l-3 -4q0 -2 -2.5 -6.5t-3.5 -5.5t-3 -5q-7 -14 -16 -24q-3 -3 -3.5 -5.5t-5.5 -7.5q-6 -6 -10 -15q-1 -3 -2.5 -3.5t-1.5 -1
t-1 -2.5q-7 -7 -9 -11q-1 -2 -4 -3t-3.5 -3t-1.5 -2q-3 0 -7 -10q-1 -2 -4.5 -4t-5.5 -5.5t-4.5 -4t-4.5 -2.5t-4 -3t-3 -4.5t-2 -4.5q-3 -1 -8 -6q-3 -3 -3 -6t-3.5 -4t-4 -2t-2.5 -1t-4.5 -3.5t-5.5 -6.5q-19 -16 -21 -23q0 -1 -2.5 -1t-7.5 -5t-7 -4.5t-5 -4t-3.5 -4.5
t-3 -2.5t-4.5 -2.5t-3 -2.5t-3 -3t-5 -3.5t-5 -4q-6 -3 -12 -8q-2 -2 -4 -2.5t-5 -3.5q-6 -5 -8 -5q-2 -1 -3 -2t-2.5 -1t-4.5 -3t-4.5 -3t-2 -1.5t-3 -1.5t-3 -0.5t-4 -2t-4 -4.5t-3 -4t-4 -2.5t-3 -0.5t-3 -0.5t-4 -1.5t-4 -2.5t-3 -2.5t-3 -2.5t-3 -3t-3.5 -2t-3 -1.5
t-2.5 -2t-4.5 -2.5t-4.5 -2t-2.5 0.5q-1 3 -4 -1q-2 -1 -3.5 -1.5t-4 -2.5t-7.5 -2l-5 -1h1q3 -2 -1 -3h-3q-4 1 -5 -0.5t-3.5 -1.5t-3 -1t-3.5 -3t-5 -1t-4.5 1t-2.5 -1v-2q0 -1 -2.5 -2t-4 -0.5t-3 -0.5t-2.5 0q-2 3 -5 -2q-2 -3 -4 -2.5t-3 1t-2 -1t-5 -1.5
q-2 0 -2.5 -0.5t-0.5 -2.5q1 -2 -0.5 -2t-3 1t-3 0.5t-4.5 -0.5t-6 -3l-3 -3l-2 2q-2 1 -3.5 0t-3.5 0q-4 2 -4 -1q-1 -4 -11 -4q-5 1 -6 0t-4 -0.5t-4.5 -1.5t-0.5 -2.5t1 -1.5t-1 -2q-3 -1 -4 0zM966 40q-1 1 -1 3q-1 0 -3 -1q0 -1 1 -2h3zM924 43q-1 1 -2 0l1 -1zM894 45
q1 2 -2.5 3.5t-6.5 -0.5l-1 -1l2 -2q7 -4 8 0zM502 474q6 1 7 1q2 -1 27 6l14 3q14 4 20 7q3 2 4 2t6 2t8.5 3t16.5 8q15 8 31 21q5 5 9.5 8t8.5 6.5t8 6.5q7 4 18 12.5t23 27.5l9 13q2 3 2 3.5t5 7.5q29 43 42 121q3 18 -1 66q-3 35 -7 52q-8 35 -17 50l-7 13q-9 15 -23 32
q-10 12 -27.5 28.5t-25.5 21.5l-10 7q-12 10 -31 17l-14 5q-50 19 -80 20q-5 0 -10.5 0.5t-9.5 0t-16 0.5q-8 1 -21 0.5t-14 -1.5q-1 0 -6 -0.5t-7 -0.5l-16 -6q-6 -3 -11 -3q-7 -1 -13 -5q-7 -4 -10 -4q-2 0 -3.5 -1.5t-3 -1.5t-6 -2t-8.5 -2.5t-6 -2.5t-4 -1.5t-4 -1.5
q-5 -5 -9 -5q-1 0 -2 -2t-3 -2t-4 -2t-4 -2.5t-6 -4t-5.5 -4t-1.5 -1t-3.5 -2t-4.5 -3.5t-2 -2t-4 -2.5t-4 -2.5q-2 0 -9 -10q-2 -4 -3.5 -4t-2.5 -2q-1 -3 -8 -10q-3 -3 -3 -5t-4 -6.5t-6 -7.5t-2.5 -3t-1.5 -3t-5 -6.5t-3 -4.5q1 -5 -7 -12q-2 -1 -2 -2t-2.5 -4t-3 -6
t-4.5 -7q-6 -5 -7 -13q-1 -6 -5 -10q-3 -2 -3.5 -6.5t-1.5 -5.5t-1 -2t-2.5 -6t-2.5 -9.5t-1 -6.5t-2 -9q-5 -35 -5 -45v-22q0 -41 4 -60q0 -4 1 -11t2 -11.5t1.5 -9.5t1.5 -9.5t1 -10.5q1 -7 10 -21q11 -16 19 -22q4 -4 8 -10q14 -26 29 -38q40 -32 70 -47q19 -10 41 -14
q5 0 5.5 -1t6.5 -2l13 -2q19 -3 27 -4q4 0 4.5 -0.5t20 -1.5t19.5 -2h8.5t11.5 1zM862 1240q8 2 17 8q10 7 15 22q5 14 0 28q-6 16 -19 25q-8 5 -22 6q-20 1 -33 -12q-9 -8 -13 -20q-6 -15 -1 -29q6 -19 26 -27q13 -5 30 -1zM636 1463h-2l1 -1zM642 1464q0 2 -0.5 2t-1 -1
t0.5 -1q1 -2 1 0zM974 38q-1 1 -0.5 1t1.5 -0.5l1 -0.5h-2zM811 44q1 1 2 1v-1q-1 -2 -2 -2v2zM1005 47q0 1 0.5 0.5t0.5 -1.5q-1 0 -1 1zM1066 67q0 1 0.5 1t0.5 -1t-0.5 -1t-0.5 1zM1066 67zM911 22l-9 3q-7 2 -3 2q3 1 3 2t0.5 1.5t1 0.5t-0.5 -2q0 -1 0.5 -1.5t3.5 -1.5
q10 -4 10 -5zM880 24q2 3 14 3q2 0 0 -1q-2 -3 -13 -3q-2 0 -1 1zM891 32q-3 3 1 3t1 -2q-2 -2 -2 -1zM904.5 33q-0.5 1 -4 1.5t-4.5 2.5q-2 4 -9 0q-5 -3 -10 2q-2 1 -12.5 0.5t-14.5 -1.5t-19.5 -1t-17.5 2h-7l1 -1q2 -1 -1 -2h-2q-4 0 -2 2t-2 5q-3 1 -5 0.5t-4 0.5t-4 0
t-2 -0.5t-1 2t-1 3t-4.5 1t-4.5 0t-3.5 0.5t-4.5 1.5t-6.5 1t-8.5 0.5t-7 2.5t-5 0t-2 0.5q-2 3 -5 0q-1 -1 -4 1l-5 2q-2 1 -11.5 2t-10.5 1t-1.5 -1t-2.5 0t-4 3q-1 1 -4.5 1.5t-4.5 -0.5t-2.5 -0.5t-5 1.5t-6.5 2.5t-4.5 1t-4.5 0.5h-3q0 -1 -1.5 -2t-3.5 1q-5 5 -14 6
q-7 1 -11 2.5t-8 2.5t-6 3t-8.5 2.5t-11 1.5t-8.5 1t-5 2l-1 1q-1 -1 -4.5 -0.5t-6 3t-3.5 2.5t-2 2t-4 3t-4.5 2t-4 -0.5t-6 -0.5t-3.5 3q0 4 -4 4l-1 -1l1 -2q2 0 2 -1.5t-1.5 -1.5t-1.5 1q0 2 -5 7q-2 2 -4 1.5t-2.5 0.5t-3.5 2t-5 0t-4.5 0.5t-6.5 1.5q-6 1 -3 3l-2 2
q-9 1 -14 5q-3 3 -7 5l-5 2.5t-1.5 0t-4.5 -0.5q-8 0 -7 5q0 2 -0.5 2.5t-2.5 0.5q-4 1 -7 4t-4.5 2.5t-3.5 0t-2 3t-2 2.5t-2.5 0.5t-4 2t-3.5 3.5q-1 2 -7 4q-2 0 -2.5 1.5t-1.5 1.5q-2 1 -7 4q-4 2 -4 3q0 2 -4.5 5t-6.5 3q-1 0 -2 2t-3 3t-2.5 3.5t-4.5 3.5
q-3 0 -3.5 2.5t-1 2.5t-3.5 2.5t-5.5 3t-5 3l-4.5 4.5q-6 2 -6 6q0 1 -2.5 3.5t-4.5 5.5t-5 4q-4 1 -3 4l-2 1q-3 2 -9 8.5t-8 9.5q-1 2 -3 3q-10 6 -10 9q0 1 -2 2.5t-2.5 4.5t-5.5 5t-6 8q0 4 -4 7t-4 5t-2 5.5t-3 3.5q-4 0 -8 8q-1 2 -1.5 4.5t-4.5 6t-5 6t-2 3.5t-3 5.5
t-5 7.5q-5 5 -9 14q-10 17 -14 20q-2 1 -2 2t-2.5 5.5t-3.5 6.5t-5 8.5t-6 11.5l-9 15l-19 37q-21 42 -39 96q-5 17 -8 24q-4 11 -9.5 35t-3.5 28q1 2 -2 12q-5 23 -8 55q-6 62 1 147q2 12 2 21q1 17 10 54q3 11 3 14q3 13 11 40q12 43 23 70l6 13q7 18 38 75l6 11
q12 24 15 27q2 2 3 5q3 6 19 23q35 39 64 65q10 10 29 25l14 10q6 6 12.5 10.5t13.5 10.5q38 32 52 39l7.5 5t19 10t18.5 10t7 5q8 3 11 6q3 2 8 4t7 3l10 5l17 8q9 4 13 4.5t8.5 3t10 4t11 3.5t6.5 2t5 2l6 2q14 5 24 9q4 2 7.5 3t5.5 2q4 3 13 3q4 1 10.5 2l13.5 2
q17 2 23 4t11 1q2 -1 3 0t3.5 1t4 0.5t10 1.5t13.5 2q11 3 27 1q7 -1 40 -1.5t50 -2.5q16 -1 37 -3q31 -3 46 -4q7 -1 17.5 -1.5t11 -1t9.5 -2t10.5 -2t8.5 -2.5q12 -2 30 -7l17 -4q4 -1 8 -3t7.5 -3t14.5 -5l16 -6q6 -2 9 -3.5l7 -3.5q23 -9 44 -22q5 -3 11.5 -6.5
t10.5 -6.5q5 -3 10.5 -5.5t5.5 -3.5q3 -4 17 -11q2 -1 8 -5l13 -9q6 -4 10.5 -7.5l9.5 -7.5q20 -14 39 -32l41 -42l10 -12q5 -6 9 -10q8 -10 31 -35q4 -5 6 -7l17 -26q3 -5 6 -8q3 -4 21 -37q5 -8 5.5 -9l4.5 -9q9 -17 12 -22q19 -33 31 -65l5 -12q1 -4 4 -12t4 -10
q5 -11 10 -30l3 -12q3 -8 5 -15l3 -12q8 -30 8 -40q0 -2 1 -8q3 -21 3 -28q0 -4 1 -11q4 -36 4 -78q-1 -81 -2 -94l-2 -13q0 -7 -1 -9t-1.5 -9t-1.5 -11t-1.5 -8.5t-1.5 -6t-1 -7.5q-1 -8 -4 -18q-1 -7 -3.5 -21.5t-4.5 -19.5t-3 -10t-3 -8.5t-2 -5t-1 -3.5q-3 -7 -3 -11
q0 -1 -2 -4t-2.5 -6t-1.5 -5q-2 -4 -5 -16q-2 -4 -4.5 -9.5t-2.5 -7.5t-1 -3t-1.5 -4t-3 -7.5t-4.5 -10.5t-3 -7t-1 -2.5t-2 -4t-3.5 -9t-3.5 -8.5q-3 -4 -3 -8q0 -7 -5 -9q-3 -1 -4 -7q0 -4 -2 -6q-5 -5 -6 -11q0 -3 -2 -5.5t-2 -4.5q0 -3 -6 -10q-2 -3 -4 -9q-1 -1 -3 -2
t-2 -2t-2.5 -4t-2.5 -5q0 -6 -6 -6q-3 0 -3 -1q0 -5 -5 -8q-1 -1 -1 -2t-1.5 -2t-1.5 -2.5t-1.5 -3t-1.5 -2.5t-2.5 -3t-3.5 -5t-3.5 -4.5t-2.5 -2.5t-1.5 -3t-5.5 -2l-2 -2q2 0 3 -1.5t-2 -2.5t-5 -5q-3 -6 -9 -6q-3 1 -3 -0.5t-2 -6t-2.5 -5t-2.5 0.5h-1.5t-1.5 -1t1 -1
q5 -2 -2 -5q-4 -1 -5 -3t-3 -5.5t-5 -3.5t-5.5 -4.5t-2 -6.5t-2.5 -3.5t-6.5 -1t-3.5 -2.5q-1 -6 -1 -7t-2 -1.5t-3 0.5q-4 1 -4 -4q1 -1 0 -3q-2 -4 -4 -1q-1 2 -4 1q-6 0 0 -3l2 -1q0 -3 -4 -2q-5 1 -5 -3q0 -8 -4 -9l-3 -3t-4 -2t-5 -2t-3 -4t-1 -2v1t-1 1q-2 1 -2 -1
q0 -1 -1 -3q-5 -3 -4 -6v-1t-3 -1t-5 -3l-2 -2l-2 2q-1 2 -2 1.5t0 -2.5q2 -2 -2 -3q-2 -1 -1.5 -2.5t-1 -2t-2.5 0.5q-3 3 -3 -2q0 -4 -5 -9q-2 -2 -6 -1t-4 0.5t-3 -6.5q-4 -8 -9 -6q-2 1 -1.5 2.5t-1 0.5t-4.5 -2l-1.5 -1.5t-0.5 -1.5l1 -2q0 -1 -1.5 -2.5t-3.5 -1.5
q-3 0 -4 -3q-5 -7 -8 -7q-3 1 -7 -1.5t-4 -3.5t-3 -3.5t-6 -2.5q-4 1 -4 -3q1 -2 -5 -4q-4 -1 -4.5 -2.5t-1.5 -1.5q-1 -1 0 -3q1 0 0 -1.5t-2.5 -0.5t-1.5 2q-2 1 -5 0q-1 -2 -2 -2t-3 -2.5t-5 -2t-5 -1.5q-5 -4 -9 -4q-4 1 -4 0q1 -2 0 -2.5t-4 -0.5q-8 0 -9 -4
q-1 -2 -10 -2q-5 0 -5 -2t-5 -2q-3 0 -4 -1.5t-3 -1.5t-6 -2t-5 -1q-4 3 -8 -1q-3 -3 -16 -3q-2 0 -7.5 -2t-5.5 -3q-1 -1 -4 -1.5t-4.5 0.5t-3.5 1t-2.5 -0.5t-3.5 -0.5t-5 -1t-8 -1t-8 -0.5t-10 0.5l-12 1q-3 0 -7 1q-5 1 -20.5 0.5t-17.5 -1.5q-1 -1 -2.5 0t-3.5 1l-1 -1
q4 -2 1 -4q-1 0 -1.5 1zM1222 135q0 1 -2 3q-4 4 -4 0q0 -2 1.5 -2t2 -1t1.5 -1t1 1zM467 141.5q0 0.5 -1 0.5t-0.5 -0.5t1 -0.5t0.5 0.5zM507 475q11 1 30 7l14 4q12 3 17 5q6 3 20 8q17 6 29 14q5 3 12 9q16 14 18 15q1 1 3.5 2.5t2.5 2.5q2 2 9.5 7t22.5 16q6 4 16 21
l8 11q5 7 5 7.5t3 5.5q27 38 40 107q6 27 5 42q-2 64 -8 88q-6 28 -12 43q-3 6 -6 11t-4 7q-5 11 -21 31q-20 24 -44 46q-18 16 -37 26q-18 10 -24 10q-1 0 -5 2q-5 2 -29 10q-8 3 -16 4.5t-12.5 3t-9.5 1.5t-6 1q-3 1 -55 2q-29 0 -37 -3q-2 -1 -3.5 -1t-5.5 -2
q-8 -3 -15 -5q-4 -1 -7.5 -2.5t-7.5 -2.5t-5.5 -2.5t-5 -1.5t-4.5 -1.5t-5 -2.5t-6 -2.5t-6.5 -3t-7 -3t-4.5 -1.5t-4 -2t-5.5 -3t-4.5 -2.5t-2.5 -1.5t-5.5 -3t-4.5 -3t-6.5 -5t-10.5 -8l-7.5 -5l-7 -5q-3 -3 -6 -7t-9.5 -10.5t-7.5 -9.5t-4.5 -6.5t-3.5 -4.5t-2.5 -4
t-5 -7t-4.5 -5.5t-2 -3t-1.5 -3.5t-1.5 -3q0 -2 -9 -13q-2 -3 -2.5 -6t-3 -6t-4 -6t-2.5 -4.5t-2.5 -5t-3.5 -6t-2 -5t-2 -3.5t-2 -3q0 -3 -3 -10q-1 -2 -1 -4t-2 -8q-4 -8 -5 -20q-3 -29 -3 -30q-2 -3 -2 -37q1 -43 4 -54q1 -2 1 -7t1 -7q2 -4 3 -19q1 -7 2 -12t1 -8
q0 -4 10 -18q8 -12 16 -20t11 -14q9 -16 17 -26q5 -6 32 -25l12 -10l17 -11q26 -15 37 -18q3 -1 5 -2q6 -2 19 -4q3 -1 6.5 -2t13.5 -3l19 -2q16 -3 29 -4l20 -2q17 -1 33 1zM859 1242q7 1 14 6q16 10 20 23q2 6 2 15q-1 19 -13 31q-11 11 -29 12q-20 1 -35 -14
q-21 -21 -11 -49q2 -5 7 -10q13 -13 20 -13q2 0 4 -1q7 -3 21 0zM793 37h3l-2 -1zM793 37z" />
  </g>

</svg>
