<?xml version="1.0" standalone="no"?>
<!DOCTYPE svg PUBLIC "-//W3C//DTD SVG 1.1//EN" "http://www.w3.org/Graphics/SVG/1.1/DTD/svg11.dtd" >
<svg viewBox="0 -200 1000 1000">
  <g transform="matrix(1 0 0 -1 0 800)">
   <path fill="currentColor"
d="M880 513q1 114 0 227v-114v-128v15zM393 367q-21 -16 -30 -35t-8 -45q0 -36 16 -62q8 -12 23 -24t29 -17q7 -3 23 -3q26 0 50 10q21 9 34 22q29 28 31 71q2 30 -12 52q-10 17 -22 27q-39 31 -82 26q-27 -3 -52 -22zM492 374q0 -1 -6 -6l-17.5 -14.5t-13.5 -9.5t-8 7
l-8 12.5l-5 7.5t-2 3.5v0.5q10 4 27 4.5t27 -2.5q6 -2 6 -3zM542 325q4 -8 3.5 -8.5t-14.5 1.5l-24 3q-7 1 -8 1.5t-1 3.5q1 4 2 21q1 22 2 22q2 0 9 -5q21 -16 31 -39zM422 323q-1 0 -21.5 3.5t-21.5 4.5q-2 2 21 24q8 7 14 10q5 2 6 1.5t1 -4.5q1 -5 2 -22t-1 -17z
M466 302q0 -7 1.5 -8.5t7.5 -0.5t6 -0.5t-3 -1.5t-2.5 -5t-0.5 -6.5t1 -3.5l-1 -1q-4 0 -6 -4q-3 -9 4 -15q4 -2 2 -2q-4 0 -10 9q-2 4 -1 8l1 4h-3.5t-4.5 -3q-4 -9 3 -17q2 -3 1 -3q-1 -2 -5 2q-7 6 -6 15q0 3 -0.5 3t-3.5 -3q-5 -4 1 -13q3 -4 2.5 -5.5t-3.5 1.5
q-6 6 -5 11q1 3 -2 4.5t-4 -1.5t0 -6t-1 -3q-6 0 -4 10q1 3 -2 5q-7 5 -7 12q0 3 4 9t4 8q0 10 5 10q2 0 1 -4q-4 -9 1 -9q4 0 4 7q0 3 3 7.5t5.5 4.5t1.5 -2q-1 0 -2 -2q-9 -11 -3 -14q2 -1 3 0.5t4 7.5q5 9 7 9q1 -1 -2 -4q-2 -4 -3.5 -8.5t-0.5 -7.5t4 -3q2 0 2 6t1 9
q2 3 7.5 8t6.5 4l-4 -5t-4 -13zM412 285q1 0 1 -2q0 -3 -22 -20q-14 -10 -15 -7q-7 15 -7 34.5t5 26.5q0 1 1 1t18.5 -16.5t18.5 -16.5zM540 244q-5 -10 -7 -10q-1 0 -12 22t-10 23q2 2 19 12t18 10q3 0 3 -8q0 -29 -11 -49zM438 221q5 -18 6 -24q2 -4 1.5 -5t-3.5 -1
q-19 0 -42 21q-6 5 -13.5 15t-7.5 12t17 1t27 -1q7 0 9 -2t6 -16zM518.5 228q6.5 -2 7.5 -3q0 -1 -3.5 -4l-9 -7.5t-9.5 -6.5q-9 -5 -24.5 -10.5t-17.5 -3.5q-1 1 9 24t12 23l14.5 -5t21 -7z" />
  </g>

</svg>
