<?xml version="1.0" standalone="no"?>
<!DOCTYPE svg PUBLIC "-//W3C//DTD SVG 1.1//EN" "http://www.w3.org/Graphics/SVG/1.1/DTD/svg11.dtd" >
<svg viewBox="0 -302 1116 1000">
  <g transform="matrix(1 0 0 -1 0 800)">
   <path fill="currentColor"
d="M621.5 687q100.5 0 192 -39.5t158 -105.5t105.5 -157.5t39 -192t-39 -192.5t-105.5 -158t-158 -105t-192 -39t-192 39t-158 105t-105.5 158t-39 192.5t39 192t105.5 157.5t158 105.5t192 39.5zM543 609zM633 608l-90 1q-77 -10 -166 -56l131 -99l8 -121l-148 15l-82 106
q-55 -73 -76 -168l156 44l154 -14l45 -242l-199 80l-162 23l48 -153l110 113l196 -81l-75 -82l-151 -53q44 -82 151 -121l15 160l72 86l100 -125l-71 -140q100 -18 190 26l-208 250l218 162l10 -203l82 -167q27 11 72 60.5t49 78.5l-188 31l-6 196l232 -123q14 82 -12 190
l-135 -92l-98 53l36 100l179 25q-66 102 -135 159l-96 -278l-252 81l146 102l119 136q-92 37 -169 40z" />
  </g>

</svg>
