<?xml version="1.0" standalone="no"?>
<!DOCTYPE svg PUBLIC "-//W3C//DTD SVG 1.1//EN" "http://www.w3.org/Graphics/SVG/1.1/DTD/svg11.dtd" >
<svg viewBox="0 -200 1000 1000">
  <g transform="matrix(1 0 0 -1 0 800)">
   <path fill="currentColor"
d="M182 -36l4 2h4h4l1 -1v-1l-1 -1h-8h-8zM718 -20l-2 2v1h-1h-1v1v1v-1h-1v1l-1 1v0l1 -1h-1l-1 1h1v1h-1h-2l1 1l-1 1q-1 1 -1.5 1t-2 1.5t-1.5 2t-1.5 1t-2.5 1.5l-1 1h-1l1 1l-3 2q-5 5 -5.5 5t-1 1l-0.5 1l-1 1q-1 0 -1 1l-1 1h-1h-1h1v1q-1 0 -3 2l-1 1l-1 1q0 1 -1 1
t-1 1h-1h-1l-1 2l-1 2l-2 1q-2 1 -2 1.5t-1 1.5l-1 1v2v1l1 3q1 3 1 3.5t1 1.5q2 1 1 4v1h1l1 2v1q1 0 1 1v1h1v1v1l1 1q1 2 2 5v1l1 1l2 2h-1v1l1 1l2 4q0 1 1 1v1l-1 1h1l1 1l1 1.5t1 2.5t2 4.5t2 4.5t0.5 1.5t1 2.5t1.5 2q2 2 2 5v1v-1h1l1 2q0 2 0.5 3t1.5 2t1 2
q0 4 3 6v0.5t1.5 4t2.5 3.5v1q0 1 1.5 3.5t1.5 3.5t0.5 1t1 1t1.5 2.5t0.5 1.5t0.5 2l1 1v1l1 1q0 1 2 4.5t2 4t0.5 2t1.5 1.5l1 2q0 2 0.5 2.5t0.5 1.5v1q1 0 2 3l2 3l1 2l1 3h1v0v1l1 1l1 1v1h-1h1q1 0 1 3q0 1 1 2.5l1 1.5h1l-1 1l1 2l1 1q0 4 3 6q1 0 1 1t1 3l1 2v-1h1
l-1 1l1 1q1 1 0.5 1.5t1 2.5t4 7l2.5 5l1 1h-1v1h1h1v2v1h1l-1 1l1 1q1 0 0.5 0.5t1.5 3.5q3 5 4 5h1v1h-1l1 1l1 1v1v2v1q1 1 2 3.5t2 2.5v1l-1 1h1l1 -1v2v2h1v0.5t1.5 3t2.5 4.5v2h1v0.5t1 1.5l1 2l1 2q1 2 1 3v1l-2 2l-2 2v1v2h-1l-1 2l-1 2l-1 -1v2q-1 2 -2 2l-1 2v2
h-1h-1v1v1q-1 0 -1 1t-2 4t-2 3.5t-0.5 0.5t-0.5 1t-1.5 3t-2.5 3q-2 6 -4 7q-1 1 -2 4l-1.5 1.5t-0.5 1.5v1l-1 1q-1 1 -1 2v1l-1 -1l-1 2q0 1 -0.5 1t-1.5 2q-3 7 -6 12l-2.5 5t-2.5 4l-2 1l1 1l-1 1q0 1 -1 3q-3 5 -4 5q0 1 -2 4.5l-2 3.5h-1v2v2l-1 1v1v0h-1l1 1h-1v1
q0 4 -4 6v1v0h-1l1 2v1h-1l-1 2q-1 2 -2 2q0 1 -3 7q-6 13 -7 16l-1 1h-1l1 1l-1 1q-1 0 -1 0.5t-1 3.5l-1 3v1v1h-1v0q0 1 -1.5 3.5t-2.5 6t-1.5 4t-0.5 1t-1 2.5t-1 3v2h-1v0v1q-1 1 -1 1.5t-1 2.5t-1 5l-1 3h-1v1v1h-1h-1l1 1v1h-1v1l-1 2q-1 1 -0.5 1.5t-0.5 2.5l-1 2
q1 1 -4 4l-1 1l1 1l1 2l-2 3q-1 2 -1 3h1h-1q-1 0 -2 3l-1 2h-1h-1l-1 -1q-2 -1 -3.5 -1.5t-1.5 -1t-3.5 -2l-3.5 -1.5l-2 -1q-2 -1 -2 -2q-1 0 -2.5 -1t-3 -1h-1.5q-1 -1 -14 -1h-4l-1 -1q-1 -1 -5 -1l-5 -1l1 -1h-1q-1 0 -1.5 -0.5l-0.5 -0.5q-3 0 -3 -1t-1 -1h-1v-1v-1
l-1 -1h-1l-1 -1q-1 0 -2 -1l-2 -2t-1.5 -1t-2 -1.5t-2 -1t-2 -0.5t-2 -0.5t-0.5 -0.5v-1h-1v0v-1h1l-1 -1h1h1l-1 -1h1v1h1l1 -1h1v1l1 -1v-2v-1l-1 1l-2 -2l-2 -2l-1 1l-1 1l-1 -1l-1 -1h-1v-1v-1h-1l-1 1v-1h0.5t0.5 -1v-1l-1 -1v-1v-1h-1h-1l-1 -1q-1 -2 -1.5 -2t-1.5 -1
l-1 -1q-1 1 -6 -3q-1 -1 -2.5 -1.5t-2.5 -1.5q-4 -3 -5 -2v-1l-2.5 -1t-2.5 -1.5t-1 -0.5l-2 -1l-0.5 -0.5l-1.5 -1.5q-2 -1 -2 -1.5t-1 -0.5h-1v-1l-3 -1q-5 -2 -7 -5q-1 0 -2.5 -1t-3.5 -2l-1 -1v1l-1 -1q-1 -1 -4 -3l-3 -2h-1h-1l-1 -1v-1h-1h-1.5t-0.5 -1l-1 -1h-1l-2 1
q-1 0 -1 1t-1 1h-1l1 -1v-1h-1v1q-1 0 -3 -1v-1l1 1v1v1l1 -1q1 -2 0 -3t-1 -2v-1l1 -1h-1h-1v-1l-1 -1v1h-1v-1q0 -1 -1 -1t-1.5 -1t-1.5 -1t-5.5 -3l-4.5 -3l-2.5 -1t-2.5 -2q-2 -2 -6 -3l-1 -1v-1h-1v0q-1 -1 -3 -2l-2 -1q-3 -3 -9 -6q-2 -1 -2 -1.5t-1 -0.5t-4 -3
q-2 -1 -2.5 -1t-0.5 -1v-1h-1q-1 0 -1.5 -0.5t-1.5 -0.5t-2 -1.5t-1.5 -1.5t-2.5 -1.5t-2.5 -1.5t-0.5 -0.5t-3.5 -2.5l-3.5 -2l-1 -1q-4 -3 -9 -5q-2 -1 -2 -1.5t-2.5 -2l-6.5 -4l-4 -2.5h-1v-1v-1h-1q-1 0 -3 -1.5t-2.5 -1.5t-2.5 -1.5t-3 -1.5t-2 -1v-1h-1h-1
q0 -1 -2.5 -2.5t-3 -2t-1.5 -0.5h-1v-1v0h-1v-1l-3 -1l-3 -2l-1 -1l-1 -1l-2 -1q-2 -1 -3 -2t-2 -1v-1h-1h-1h-1l-2 -2t-2 -1h-1v-1v0h-1v-1v0q-1 0 -2 -1l-1 -1q-2 1 -2 -2v-1l-1 1l-1 1v-1l-2 -1l-2 -1v-1l-2 -1q-2 -1 -4 -2.5t-3 -2l-1 -0.5v-1l-1 1l-1 -1l-2 -2h-1l1 -1
l-1 1h-1v-1v-1l-1 1l-1 1v-1l1 -1h-1v-1v1l-2 -2l-2 -2l-1 1l-1 -2l-1 -1h-1l-1 1v-1q-1 -2 -2 -2h-1v-1h-1h-1l-1 -1q-3 -4 -6 -4l-2 -2l-1 -1v1l-2 -2q-2 -1 -3 -1h-1v-1h1h-1h-1l-1 -2q-2 -1 -4 -2.5t-2 -2t-3 -1.5h-2l1 -1v-1l-1 1l-4 -2l-3 -3h-1q-1 0 -1 -0.5t-1 -1.5
h-2l1 -1h-1h-1.5t-2.5 -2l-2 -2l-1 -1l-2 -1h-1q0 -1 -1 -1t-4 -3l-2 -1h-1v-1v-1h-1h-1l-1 -1l-1 -1q-1 0 -3 -1l-1 -1v-1h-1h-1l-2 -1q-4 -3 -8 -5q-2 -2 -2.5 -2t-0.5 -1h-1l-3 -2l-4 -2v-1v-1v1h-1l-1 -1l-3 -2t-5 -4l-2 -1v1l-2 -1q-3 -3 -4 -3t-3 -2l-2 -2v1v-1
q0 -1 -0.5 -1h-1.5l-3 -3q-2 0 -2 -2h-1h-1h-1q0 -1 -0.5 -1h-1.5l-1 -1h1l-1 -1q-1 -1 -2 -1v-1h-1q-1 0 -2 -1l-2 -1h-1v-1v-1h-2q-2 -1 -3 -2l-1 -1h-1v-1h-1h-1l-2 -2l-1 -1l1 1l-3 -2q-3 -2 -4 -2.5t-1.5 -1.5l-0.5 -1q-3 0 -7 -4q-1 -1 -2 -1l-1 -1v-1l-1 1h-1v-1v-1
l-1 1v-1l-1 -1h-1q-1 0 -1 -1h-1h1l-1 -1l-3 -1v-1v-1h-1h-1l-1 -1v-1h-1h-1v-1q-1 1 -2 0v0v-1h-1q-1 0 -1.5 -0.5l-1.5 -1.5l-2 -2l-1 1l-1 -2q-2 -2 -2.5 -2t-2.5 -2l-2 -1h-1v-1v0q-1 0 -3.5 -1.5t-2.5 -2.5v0h-1v-1v-1l-1 1h-1l-1 -1l-2 -2h-1v-1h1h-1q-1 0 -3 -1.5
t-2 -2t-1 -0.5t-2 -1l-1 -1h-1h-1h1v-1h-1q-1 0 -1 -0.5t-2 -1.5l-2 -1v-1v-1l-1 1l-2 -2l-1 -1h-1v1v-1v-1l-1 -1h-1h-1h-1l1 -1h-1h-1l-1 -2v-1h-1q-1 0 -1 -0.5t-2 -1.5l-3 -1l-1 1l-2 1v-1l-1 1v1l1 1h-1v1l-1 1v1l-1 3v3h-1l-1 1h1h1h-1v1l-1 2v3v1h-1h-1h1l1 1l-1 1
q0 1 -1 1l-1 1l1 2v1l-1 1l-1 1l1 1v1h-1v1v1l-1 1v1l1 1l-1 2q-2 2 -2 3t-0.5 1.5t-0.5 1.5v1l1 -1h1l-1 1l-1 1h1v1l-1 -1v2l-1 3h-1l1 1v2h-1v1v2h-1v1v1l-1 1l-1 2l1 1q1 1 0 1h-1v1v2h-1l-1 1v1h1v-1v1q0 1 -1 2l-1 1v2v1h-1v1v5q-1 1 -1 2t-1 3v2l-1 1h-1h1h1l-1 2
q-1 1 -1 1.5t-1 0.5v1v1h1v1q-1 0 -2 1v1v2l1 1h-1h-1v1v1v1h-1v2v1h-1v2l1 2h-1h-1v1h1l1 -1l-1 1l-1 1v2v3v1l1 -1h1l1 1l1 1h-1v1h1q1 0 1.5 0.5t1.5 0.5v0h1l1 2h1h2v1q2 0 3 1t3 2l3 1v1v1l1 -1l3 1l2 2h2l1 1v2h1l1 -1v1l1 1q3 0 3 2v1l1 -1v-1v1l2 1q1 0 2 1h1v0v1
l3 1l2 1v1v1v-1l1 -1v1q1 1 4 2.5t4 2.5l1 1l1 -1h1h-1v1l1 1l2 1v-1h1l1 2q2 1 3 1h1v1l1 1h2h1l1 2v1h1l2 1l2 1h1v0v1l2 1q2 0 2.5 1t1.5 1h1v1h1h1l1 1l1 1h1h1q1 1 6 4l2 1v1h1h2v1v1l1 -1h1v1v1h1v-1l1 1q1 1 2 1t2 2l2 1v-1h1l1 2v1h1q1 0 2 1l1 1v-1h1v1h-1h1h1v1v1
l1 -1l1 1h2v1l3 2q3 1 3.5 1t0.5 1h1h1l1 2l1 1h1h1v1l1 -1l1 2q2 1 3 1l1 1v1h1h1v1h1h1l1 1v1l1 -1h1v1v1v-1h1l2 2l3 1h1v1h1h1l-1 1h1l1 -1v1q1 1 2.5 1.5t1.5 1.5h1h1v1l1 1h1h1h-1v1h1h2t2 1l1 1q0 -1 2 1q4 3 11 6q10 6 11 6q0 1 1 1t1 1h1l-1 -1h1h1v1h2h3h1h2l1 -1
l2 1l1 1h-1h-1v1v1h-1h-2l1 1l1 1h1v1v1v-1l2 1q1 1 1.5 1t2 1.5t2 1.5t2.5 1.5t4 1.5h1v1v1l3 1q3 1 4 2t3 1h1v1l2 1h1v1h1q1 0 2 1h1v-1l1 1v1h1v0.5t2.5 1.5t4.5 2l1 1h1v1l1 1h1h1v1h1l1 -1v1l1 1q11 5 12 6q0 1 0.5 0.5t3 1.5t3 2t0.5 0.5t1 0.5t2 1t4.5 3l3.5 2v1
l1 -1l1 1l1 1l1 -1v1v1l1 -1h1v1l5 3t6 3t1.5 0.5t3.5 2.5q8 4 9 6h2t1.5 1t1.5 1h2v1l1 1l2 1q2 1 4.5 2.5t4 2t1.5 1t2 1.5l4 2l5 2.5t3 2.5h1l2 1l2 2l5 2.5t5.5 2.5t2.5 2l2 1v-1l2 1q1 2 8 5q2 1 2.5 2t1.5 1h1v1v-1l2 1l1 1h1v1h1v0v1h1q1 0 1 0.5t1 0.5q5 2 6 3v1
q1 0 2 0.5l1 0.5v1h2h1v1h1q2 1 2 1.5t3 2t3 2t1 0.5h1v1h1l1 -1v1v1h2l2 1h-1v1h1h1l-1 1h1l1 -1l1 1l2.5 1.5l6 3.5t5.5 3t2.5 1.5t1.5 0.5h1v1l1 1h1q1 0 2 1t1.5 1t2.5 1.5t4 1.5v1h-1h1h1h1v1q3 1 3 1.5t1 0.5h1v1h1h1v1h1q1 0 1 0.5t3 1.5q1 1 2 1.5l1 0.5q0 1 1 1h2
v1h1q1 0 1 0.5t4.5 3t5.5 3t1.5 0.5t1.5 1l1 1h1h1v1h1v1h2h1q0 1 3 2.5t3.5 1.5t1 0.5l1.5 1.5q5 3 7 4l1 1h1h1v1l5 2q6 4 8 5l1 1h1v-1v1v1h1.5t1.5 1v1h1h1v1h1l1 1h2v1h0.5t3 1.5t3 1.5t0.5 1l8 4q2 1 2 1.5t1 0.5t1 0.5t2 1.5l2 1h1q0 1 0.5 1t4.5 2.5t4 1.5l2 1
q1 2 1.5 2t2 1t2.5 1h1v1l1 1l1 -1l1 1q2 3 3 3t2.5 1t2 1t1.5 1l1 1q3 0 5 2q1 1 2.5 1.5t2.5 1.5t2 1.5l2 1t3 2l2 1.5v1h1h1v1v1h2h2l2 -2q5 -5 5 -6t1 -1t3 -3l3 -2v-1h-1h1h1v-1l2.5 -2.5l2.5 -2.5l1 -1q4 -3 4 -4t0.5 -1t1.5 -1q7 -8 9 -10l1 -2v-1l-1 -1h1l1 1v-1v-1
l1 -1h-1l-1 1l1 -1q0 -1 0.5 -1t1.5 -1.5t2 -3.5l1 -2h-1l-1 1l1 -2v-2h-1v-2l-1 -2l1 1h1v-1h-1l1 -1q1 0 3 -1l3 -1v1q0 2 0.5 2t-0.5 3q-1 1 -1 2v1h1v1l1 -1q5 -3 6 -6q2 -4 2 -7q-1 -1 0 -1.5t1 -1.5q0 -4 2 -11q1 -1 0.5 -1.5t0.5 -2.5t1 -2.5t1 -2.5q1 -6 2 -10v-2h1
v-2q1 -3 1.5 -3t0.5 -1.5t0.5 -3t0.5 -2.5t0.5 -1.5t1 -3t1.5 -2.5v-1l-1 -1l1 -1q1 0 1.5 -3t1 -4t0.5 -1.5v-0.5h1v-2q1 -3 1 -4v-1v1h1v-2q0 -2 1 -4l1 -2l-1 -1v-1v-1q1 0 1 -0.5t1 -1t1 -1.5v-2l1 -1v-1q1 -3 2 -5t1 -2.5t0.5 -1.5t0.5 -2v-2h-1v-1l1 -1l-1 1h-1l-1 -1
l-1 1v-3v-2h1v1l1 -1v-1h2h1h1l2 -1l-1 -1l1 -1q1 -2 2 -4.5t1 -3.5q2 -1 2 -4q0 -1 1 -2.5t1.5 -3t1.5 -3.5l1 -1l-1 -1h1v-1v0h1v-2v-1h1v-1v-2l1 -1q1 -1 1 -2v-1q1 0 1 -0.5t1 -3t1 -3v-0.5h1v-1l-1 -1l1 -1q3 -5 4 -7q0 -1 0.5 -1t0.5 -1t1 -2l1 -1v-2q1 -3 1.5 -3
t1 -1t0.5 -1.5t0.5 -2t1 -1.5t0.5 -1t1.5 -3t1.5 -4l1 -1l1 -1v0v-1l1 -3l2 -2l1 -1l-1 -1h1v-1q0 -3 1 -3h1l-1 -1l1 -1q1 -1 1 -2v-1l1 -1q1 -1 1 -3v-1h1l2 -3q0 -1 0.5 -2l0.5 -1h1v-1l-1 -1h1l1 -1.5t1 -2.5v0q1 0 2 -3q4 -7 5 -8v-1v-1h1v-1l1 -1v-2v0h1l1 -3
q1 -3 1.5 -3t1.5 -1t1 -3t0.5 -2t1.5 -1.5t1 -2t1 -2.5t3 -4v-1l1 -2q2 -2 2 -4l1 -1l1 -1h-1l1 -1l1 -1h-1l-1 -1h1v-1v-1l-1 1v0v-2l1 -1h2q4 0 4 -2l1 -1.5t2 -2.5q0 -1 4.5 -7.5t6.5 -8.5q1 -1 1 -1.5t9 -12.5q2 -4 2 -4.5t1.5 -2l1.5 -1.5l1 -1t1 -2q1 0 1 -2l1 -1h1
v-2h-1h-1v1h-1h-1v0q0 3 -5 3h-1q0 1 -2 1.5l-2 0.5v1l-1 -1l-2 1q-2 2 -2.5 1.5t-0.5 0.5h-2l-2 1v1t-0.5 1t-1.5 1l-2 2h-2v2l1 1l-2 -1l-1 -1l1 2l1 1h-1v0q0 2 -2 4q-3 3 -2 4h1v2v1l-2 1q-6 5 -7 5h-1v1l-1 1q-2 2 -3 2l-2 1l-1 2l-1 1l-1 1l-1 2h-1l-2 -2h1q1 0 1 -1
v-1v-1h1h1v-1v-1.5t1 -1.5l1 -1l1 1v-2v-1h1l1 -1v-2h1l1 -1v-1h1h1l-1 -1h-1h1l1 -1v-2h1l2 -1v-1q1 -2 2 -2.5t1 -1.5t1 -1l1 -1l1 1v-1l-1 -1l1 -1q1 0 1 -0.5t3 -4.5q1 -1 1 -2h2h1v-1h1h1h1v1v-1v-1h1q1 0 2 -1l1 -1h1h1l1 -1q1 -1 2.5 -1.5t1.5 -1.5q1 0 2 -1l1 -1h-1
l-1 1l1 -2q2 -1 3 -1v-1v-1h1h1l-1 -1h-1l1 -1h1l1 1v-1q-1 -1 -1 -2h1l1 -1q1 0 1 -1v-1v1l1 1v1h-1h1h1v-1h-1l2 -1q1 0 1 -0.5v-2.5v-2h1v1v2v-1l1 -1l1 2v2h-1v1v1v1q-2 0 -1 2v1h1q3 0 3 -2l1 -1t2 -3v-1h1v0v-1l1 -1v-1l1 -1l1 -1v-1l2 -2q2 -2 2 -3t1 -1v-1v-1v-1h1
l1 -1v-1v-1l1 -1v-1h1v-1v-1h1h1v-1h1l-1 -1l1 -2l2 -1l1 1l-1 -1v-1h1l2 -1l-1 -1l2 -1l1 -1h1v-1v-1v1h1v-1v-1l1 1v-1v-1h2h1h1l1 1v-1v-1h1h1v-1l1 -1h1l-1 -1h1h1l5 -5q5 -5 6 -7l1 -1h1q0 -1 2 -3l4 -5l3 -2q0 -1 4 -4.5t4 -4.5h-1h1l1 -1l2 -2h1v-1v-1l2 -1
q3 -2 8 -7q4 -5 5 -5h1h-1v-1h1h0.5t0.5 -1v-1h1h1v-2v-1l-2 -3q-3 -2 -2.5 -2t-1 -2t-1.5 -2.5t-2 -2.5l-2 -2h-2h-1l-2 2l-2 2l1 1h-1l-1 -1l-1 2v1h-1h-1l1 1h-1q-1 0 -1 0.5t-1 0.5h-1v1v1h-1v1v0l-1 -1l-3 3l-3 3l-1 1q-1 1 -1.5 1t-5.5 5q-7 8 -10 9l-1 1h1l-2 1l-2 2
h1l-1 1l-1 1l-4 3l-7 7q-3 3 -3 3.5t-4.5 5t-4.5 5.5v1l-1 -1h-1l-1 2l-2.5 2.5t-1.5 2l-1 1.5h-1l1 1h-1q-1 0 -2.5 2t-3.5 3l-1 2v1v1l-1 -1h-1v1q0 1 -2.5 3.5t-2.5 3t-2 1.5h-1v1v2v-1h-1q0 1 -2 3t-2 3l-1 1v-1h-1v1q0 1 -3 4q-2 1 -3 4l-1 1v-1l-1 1l-4 4q-5 6 -4 6
l-1 1l-2 2v1l-1 1q-1 0 -1 1q-1 3 -4 6q-1 1 -1 1.5t-1 1.5t-1 1.5t-1 1.5t-2 2.5t-1.5 2t-0.5 1t-1.5 1.5t-3.5 3.5l-2 2.5h-1h1v1h-1l-1 1v1h-1l-1 1l1 1l-2 1q-1 0 -1 1v1h-1v0v1h-1v-1l-1 1l-1 1l-1 -1l-1 2v2l1 1q1 1 1 2v1h-1q-3 1 -5 0h-1v-1l-1 -1q0 -1 -1 -3l-1 -3
h-2h-2l1 -1q0 -1 1 -1h-1h-2t-1 1v1l-1 -1v-1h-1v0l1 -1l-2 -1l-1 -1l1 -1l-1 -1l-1 -1v-1l1 -1h-1l-1 -1v-1h1v0v-1h-1v1l-1 -2v-1l1 -1h1l-1 -2v-1.5t-1 -1.5v1h-1q-1 -1 -1 -2v-1l1 -1v-2v-1l2 -2l2 -1h-1h-1q0 -1 1 -1v0v-1h1l1 -1h-1v-2h1v-1l-1 -1l1 -1v0v1l1 -1
q1 0 1 -2l1 -2h-1q0 -1 -1 -3t-1 -3v-1q-1 0 -1 -1t-1 -3.5t-1 -3t-0.5 -2.5t-1.5 -2v-1v-1h-1v-1v-1h-1v-1v-1v-1l-1 -1h-1l1 -1v-1h-1v-2l-1 -2v-1l-1 -1v-1l-1 -1l1 -1h-1v0q0 -1 -2 -4q0 -1 -0.5 -3t-1 -3t-0.5 -1.5t-0.5 -1t-1.5 -3.5t-2 -5v-1l-1 -2v-2t-2 -5l-2 -3
v-2v-2l-1 -1q-1 -2 -0.5 -2.5t-0.5 -0.5l-1 -1l1 -1v-1h-1h-1v-1q0 -2 -2 -7v-2v-1l-1 1l-1 -3q0 -3 -1 -4.5t-1 -3.5t-1 -3t-1 -2v-2l-1 -1l-1 -1v-1l1 -1h-1q-1 0 -1 -3q0 -1 -0.5 -2l-0.5 -1v-1l-1 -1v-1l-1 -2q0 -1 -1 -2v-2v-1v-1h-1v-2v-3h-1l-1 -1h1l-1 -1h-1v-1
l1 -2h-1l-1 -1h1v-1l-1 -1h-1l1 -1v-1l-1 -1q1 0 0 -2t-1 -3t-1 -3v-2h-1q0 -1 -1 -2h-1h1l1 -1l-1 -1q0 -1 -0.5 -2t-1.5 -5v-1h-1v1v-1v-1l-1 -1v-1v-1l1 -1h-1l-1 1v-2q0 -1 -1 -3v-3v0q-1 0 -1 -1q0 -3 -1 -5q0 -1 -0.5 -2t-1 -1.5t-0.5 -1v-1.5v-1l-1 1h-1v-1zM941 94
l-1 1h-1l-1 1v2h-1h-1v-1q1 -1 1 -2v0h1l-1 1h1v-1v-1h1h1v-1h-1h1q2 -1 1 1zM879 158v1h-1l-1 1v1v1h-1l-1 1l-1 1v-1h1h-1q-1 0 -1 2v1v-2v-2h1q1 -3 5 -4zM812 230h1v1v1h-1q-2 0 -2 -1v-1q1 -1 2 0zM324 298l2 1v-1l1 2l1 2v-2v-1h1h1h-1l1 1l1 1v-1h1q1 0 1 0.5v1.5
l1 2h-2h-1v-2v-1l-1 1q0 2 -0.5 2h-1.5l-2 -2l-1 -1h-1l-2 1l1 -2v-2h-1v1v1l-1 -1v-1v-1v-1h1h1zM321 303l-1 1h1q1 1 1 0h1v1h1l1 -1l1 -1l-1 1v1h1l1 1v-1h1l2 1v1v1h1v1l1 -1h1l2 1l3 1l2 -1h2v1q1 1 1 2v1l-1 -1h-1l1 1v1h-1q-1 0 -1.5 0.5t-3.5 0.5h-2v-1h-2
q-2 0 -5 -1h-2v1h-1l-1 -1l1 1v1l-1 -1v-1l-1 1h-1v-1h-1h-2l-1 -1l1 -1l1 -1h-1q-1 -1 -2 0h-2l1 -1h1h1v-3l-1 -2h1v-1v-1l2 1h2v-1h1h1zM242 317h1v1v0q1 -1 1 -2l2 1l2 1h1h1v1l1 -1l1 -2v1v1h2h2h1l1 1q2 2 3 2v1h1l1 -1v1v1h1h1v1h1h1l-1 1h-1h1h1l-1 1v2v1h-1
q0 1 1 1h2l-2 1l-1 1h-2q-2 0 -5 -1h-2l-1 1l-1 1v-1l-1 -1v1l1 1h-1h-1v-1h-1h-1l-1 -1v-1h-1l-1 -1q-1 -2 -1 -3v-1h-2h-2v-1h-1l-2 1v-2v-2h-1h1l1 -1l-1 -1v-1l1 1v-1h-1l1 -1v-1h1v1h1zM726 381q1 1 1.5 1t0.5 1l1 1v1l2 2q2 2 2 3l1 1l-1 1q-1 2 -1.5 2t-2.5 1l-1 2
v-1l-2 1l-1 1l-1 -1l-1 -1l1 -1v0h-1q0 -1 -1 -2h-1v-2v-1q-1 0 -1 -1q0 -3 -1 -4l-1 -1h1h1l-1 -1v-1v-1l1 -1h3h3v1zM718 482l1 1l-1 1l-1 1h1h1l-1 1q0 1 -0.5 3.5t-1.5 4.5l-1 3h-1v1h1l-1 1v2t-1 1.5t-1 1.5h-1l-2 1v-1v-1h-2h-3v0h-1h-1l-1 -1h-1l1 -2v-1l-1 -1h-0.5
h-1.5q0 -1 -2 -1t-3 1h-1l-1 -1l-1 -1l1 1h-1v-1v-1v-1h1l2 -1q2 0 2.5 -0.5t2 -0.5t1.5 -1h1h1v-1q1 0 1 -1v-1h2h3l1 -1q1 0 2 -1q2 -2 4 -2h1h1l1 -1q0 -1 1 -1zM711 505v1h1v1v1l-1 1h-2h-1v-2v-1l1 -1h2v0zM691 525v1h-1h-1l1 1h1l-2 2q-2 3 -3 3h-1l1 -1l1 -1h-1
q-1 -1 -1 -2h-1h-1v-1v-1v1h1l1 -1l2 -2v1h2h2v-1h-1h1h1z" />
  </g>

</svg>
