<?xml version="1.0" standalone="no"?>
<!DOCTYPE svg PUBLIC "-//W3C//DTD SVG 1.1//EN" "http://www.w3.org/Graphics/SVG/1.1/DTD/svg11.dtd" >
<svg viewBox="0 -200 1000 1000">
  <g transform="matrix(1 0 0 -1 0 800)">
   <path fill="currentColor"
d="M506 648zM504 646l2 2l6 -6q23 -24 23 -25t2 -3q14 -14 17 -18l4 -4l5 -6q2 -3 5 -6l4 -4q2 -3 6 -7q2 -2 5 -6t4 -4.5t2 -2t3.5 -4.5l5 -6t5 -5.5t3.5 -4t3.5 -4.5t2.5 -3.5t2.5 -2.5t4 -4.5t4 -4.5t2.5 -2.5t3 -4l6.5 -7.5t4 -5t2.5 -3l5 -5l2 -3v-1q0 1 2.5 -1.5
t2.5 -3t1.5 -2t3.5 -4.5q4 -5 5 -5t1.5 -1.5t2 -2.5t1.5 -1.5t1.5 -1.5t6.5 -8q6 -7 6 -16q0 -5 1 -6q-1 0 -1 -6.5t-0.5 -21t-0.5 -15.5q1 -6 0.5 -6.5t-0.5 -6.5t-0.5 -10t-0.5 -16.5t-0.5 -13.5t0.5 -1q-1 -1 -1 -28q-1 -13 -1 -14.5t0.5 -3.5t0 -2t-0.5 -7.5t0 -7
t-1 -5.5v-26l-0.5 -1t-0.5 -3v-4v-9v-1q1 0 0.5 -0.5t0 -2.5t0 -2.5t-0.5 -2.5q-1 -2 -7 -2q-5 -1 -5.5 -1h-1t-4.5 0.5t-5 0.5h-1q0 -2 -2 0l-1 1q0 -1 -7.5 -1t-7.5 1h-1h-8h-6h-1h-2t-2 -0.5t-1 0.5q0 1 -5.5 0.5t-5 0t-4.5 0.5q-8 0 -10 -0.5t-2 -4.5q0 -5 -4 -5
q-1 0 -1 -0.5t-0.5 0t-1 0t-2 -1t-2.5 -1t1 -2.5t4 -3.5t2 -2.5t1 -1t1.5 -1l1 -2t0.5 -2q-2 -6 -1 -12v-4t0.5 -3t0 -1t-1 -1t0 -1t0.5 -4t-0.5 -4t-2.5 -2q-1 0 -1 -0.5v-0.5h-2q-2 0 -3 -1l-1 -1l-1 -1q-2 -4 1 -5l3.5 -3.5t3.5 -3t2 -1.5v-5v-7v-3l1 -4v-2v1q0 1 -1 0.5
t-0.5 -3t0.5 -3.5q1 -1 1 -2q-1 0 -1 -2q0 -4 -4 -5q-2 -1 -3 -2h-1v1q-1 -1 -2 -1q-2 -1 -3 -1q1 0 1 -1t-1 -1t-1 -0.5t1.5 -2t2.5 -1.5t1 -1t1 -0.5t1.5 -1t1.5 -1.5t1.5 -1t1.5 -1l2 -7h-1q1 0 1 -2t-0.5 -4.5t-0.5 -4.5q-1 -2 -2.5 -2.5t-1.5 -1t-1 -0.5t-1 -0.5
t-1 -0.5q-3 0 -3 -3h-1h-1q0 -3 6 -9q5 -5 6 -8q0 -2 -0.5 -12.5t-0.5 -12.5v-1.5t-2 -2.5l-4 -4q-3 -2 -3.5 -2t-0.5 -0.5t-1 -0.5t-1 -1t-0.5 -0.5t-1.5 -1t-1.5 -1.5t-2.5 -2l-2 -2l-5 -3v-1q-1 1 -3 -1t-2.5 -2t-1.5 -1q-6 -6 -7 -6t-6 -4q-1 -1 -2 -1t-1 -1l-1 -1
q0 1 -2 -1.5t-2.5 -2.5t-1.5 -1t-2 -1t-1 -1t-1 -1t-1.5 -1t-1 -0.5t-0.5 -0.5q-1 -2 -4 -3q-2 -1 -3 -11q-1 -6 -4 -6q-1 0 -2 -0.5t-1 0t-2.5 0.5h-2.5l-14 1q-2 0 -3 1l-1 -1q0 1 -2.5 1t-5.5 0.5t-8 0.5t-5.5 0.5t-0.5 3v4.5v2v1v2.5v4.5v3q0 3 -2 3l-1 1q0 -1 -5 4
q-2 1 -2.5 1t-1.5 1.5t-2 1.5t-2 1q-9 8 -11 7q-1 1 -2.5 2l-1.5 1l-1 1l-3 1.5l-3 1.5q-2 0 -6 5q-1 1 -2 1t-1.5 0.5t-1 0.5t-1.5 1t-2 1t-1 1l-1.5 1t-2.5 1t-1 1t-1 1t-1 0.5t-1 0.5t-1 1h-1l-1 1q-1 0 -2 1l-2 1l1 13q0 13 0.5 14t3 1.5t3 1t1.5 0.5t1 0.5t2 1.5
q5 3 2 3l-0.5 1t-2 1t-1.5 0.5t-2 1t-2 1t-2 1.5q-4 1 -3 4q1 21 1 25q1 2 5 3q6 2 7 4q1 0 -1.5 2.5t-5.5 3.5q-5 2 -4 5v4q1 2 1 8q1 11 2 12l4 1.5t6 2.5t2.5 1t2.5 1q2 3 -1 4q-2 0 -2 1q-1 -1 -1.5 0t-1.5 1t-2 1t-2.5 1.5t-3 1.5t-1.5 4t-1 4q1 0 1 3q-1 0 -0.5 0.5
t0.5 7.5q0 9 4 11q2 1 3.5 2l1.5 1q4 2 3 5q-1 0 -1 0.5t-1 0t-1 0.5t-1 1q0 1 -1 1t-1.5 1t-1 0.5t-1 0.5t-1.5 1l-1 1q1 0 0 1q-3 1 -1 5q0 1 -0.5 1t-0.5 4.5v5.5t-0.5 1.5t0.5 1.5q1 4 -2 4q-3 1 -9 1t-7 -0.5t-1.5 0t-1 0.5t-10.5 -0.5t-12 -0.5t-2.5 0.5t-1.5 -0.5
t-3.5 0t-2.5 0.5t-16 -0.5q-14 0 -15.5 0.5t-0.5 3.5q0 3 -0.5 4.5t0 1.5t0.5 1v8v1q-1 1 -0.5 2t0 2.5t0.5 2t0 1.5v19v23v3v8t-0.5 7t0.5 1q1 1 1 10v14q1 6 1 13t0.5 12t0.5 14q1 13 2 21v5.5t0.5 5t-0.5 4.5t0 1q1 2 1 18q0 8 0.5 8.5t0 1t0 3t0 3.5t0 1.5t0.5 8
t0.5 7.5t0.5 2.5v3.5q3 4 46 44q24 23 26 26q1 2 2 29q0 15 0.5 15.5t0.5 5.5t0.5 5.5t0.5 14.5q1 30 2 31l14.5 0.5t15 0.5h3.5h3v-27q-1 -26 0 -26t1 -1t1 -1h2l-2 -1q-1 0 -1 -1q0 -2 13 11l15 15l11 10q11 10 11 12h1.5t0.5 0.5t7.5 8t8.5 9.5zM429 209h2q6 -1 7 -2h3
l2 -1q1 0 1.5 0.5t0.5 -0.5h1l2 -1q1 -1 2 -0.5t1 0t1 -0.5t1.5 -0.5t1 0t0.5 0t2.5 -1t3.5 -0.5l1.5 -0.5t3.5 -1t2.5 -1t3.5 -0.5t4 -0.5t4.5 -1.5t4 -1.5t3 -0.5t2.5 -0.5t2 -1t3 -0.5h3q2 -1 2 -1.5t1 -0.5l4 -1q1 0 1 -0.5t1 -0.5h3q1 0 3 -1t2.5 -1t1 -0.5t1.5 0.5
t1 -0.5t0.5 -1.5t0.5 1t1 0t3.5 -1t2.5 -0.5t3 -0.5t3.5 -1t0 -1t0 -0.5t1 0t2.5 -0.5t2 -0.5t1 0.5l3 -1h1q1 0 0.5 -1t1.5 -1h1h-1v1l1 -1l1 -1q-1 0 -0.5 -1t0 -1t-0.5 0.5t-1 0.5t-1 0.5t-2 0.5q-3 0 -6 1q-2 1 -2.5 0.5t-1.5 0.5t-1.5 0.5t-2 0t-1.5 1t-4 1t-4.5 1
t-1.5 0.5q-6 0 -6 1q-1 1 -3.5 1t-7.5 1.5t-6.5 1.5h-2.5l-6 2q-4 0 -8 1q-1 1 -2 1t-3 0.5t-4 0.5l-4 1h-1q-11 2 -14 4h-3q-4 1 -9 3h-2v0q0 1 -1.5 1t-2 0.5l-0.5 0.5q-4 0 -5 2v1q1 0 0.5 1t0.5 1q0 1 1 1zM592 201q-1 -1 -1 -2h5q0 2 -4 2zM429.5 164q-1.5 0 -1.5 -1
l-1 -5v-3l3 -1l5 -2q1 -1 2.5 -1t2.5 -1q6 -2 9 -2q1 0 2 -1q0 -1 12 -4q3 -1 5 -1.5l10 -2.5t9 -2.5t3 -0.5t2.5 -0.5t1 -0.5t6.5 -2t7.5 -2t2 -0.5t2.5 -0.5t2 -0.5t2 -1.5q7 -1 9 -2l1 1q2 -3 22 -6h5q0 1 1 1v4l-1 2q0 -1 -3 2q-2 1 -5 2q-1 0 -2 0.5t-2 0.5q0 1 -2 0
q-1 1 -2 1l-1 1q-2 0 -2.5 -0.5t-1.5 1t-1.5 1t-1 0t-1 0t-1.5 -0.5t-1 1t-1 0.5t-1.5 0.5t-3 1t-4.5 1t-3.5 1t-2.5 1h-1q-1 1 -2 0.5t-1 0.5l-2 1h-1q-1 0 -3.5 1t-3.5 1l-1 1h-1q-2 0 -2.5 0.5t-1.5 0.5t-2 0.5t-3 0.5q-5 1 -5.5 2t-3 1t-3 0.5t-1 0.5t-4 1t-4 1.5
t-1.5 0t-1 0t-1.5 0.5t-2.5 1q-3 2 -8 2q-1 0 -1 0.5t-3 1t-3 1t-1 0t-1 0t-3 1t-5 1.5h-3.5zM429 118q3 0 3.5 -0.5t1 -0.5t2 -0.5t2.5 -0.5t1 -0.5t1.5 -0.5t2.5 -1h1h1q2 -1 4 -1h2l2 -1q2 0 2.5 -0.5t1 -0.5t5 -1.5t5.5 -1.5t1.5 -0.5t1.5 0.5v-1q0 -1 1 -0.5t1 0
t2 -0.5t2 -0.5t1.5 -0.5t4 -1t2.5 0v-1q0 -1 1.5 -0.5t1.5 -0.5q1 1 1.5 0t3.5 -1.5t5.5 -1t3.5 -0.5t1.5 -1t1.5 -1t2 -1l1 1q1 -1 2 -1q0 -1 4 -1q3 0 3 -1q1 1 2 0l1 -1l4 -2q1 -1 1 0t0.5 1t0.5 -1l1 -1h2h1h0.5t0.5 -1h1t2.5 -0.5t1.5 0.5h1q1 -2 2 -1v-1q-1 -1 1 0
q2 0 6 -3l-1 -2q-1 1 -1.5 0t-1 -0.5t-3.5 1t-5 1t-4 0.5t-3 0.5l-3 1.5h-5q0 1 -1 0l-1 1h-1q-2 0 -6 1t-5.5 1t-1.5 0.5t-1 0.5t-3 1q-1 0 -5 1q-4 0 -4.5 0.5t-1.5 0.5l-6 1l-11 3q-6 1 -7 1.5t-3.5 1t-3.5 1t-2.5 1t-2 0.5t-4.5 1t-4 1.5v0.5q-3 -1 -6 1q-1 1 -4.5 2.5
t-5 2.5t-2.5 1.5t-1 2.5l1 2l0.5 0.5t3.5 0.5zM430 74q-1 -1 -1.5 -0.5t-1 -0.5t-1.5 0h-1v-2q-1 0 0 -5q0 -1 0.5 -1.5t1.5 -0.5q0 -1 1.5 -1t2 -0.5t6.5 -1.5q1 0 3 -1q5 -1 10 -1h1q0 -1 1 -1t7.5 -1t9 -1.5t3.5 -1.5h2l3.5 -0.5t4 -0.5t1 -0.5t2 -0.5t4 -0.5l5 -1t4 -1
t4 -0.5t3.5 -0.5t4 -1t7 -1.5t4 0v-1q1 0 5 -1q6 -1 6 -2h2q6 0 7 -1t1.5 -0.5t3 0.5t2.5 0.5t-1 -0.5l-1 1q1 1 -2 2q-4 1 -3 2h-1q-1 -1 -2 0q-2 2 -7 2v0l-1 1h-1h-1h-1q-2 0 -2 0.5t-1 0.5t-1 1h-1l-2 0.5t-4 0.5t-2.5 1t-1.5 0.5t-1 0t-3 0.5q-1 0 -1 0.5t-1.5 0.5
t-3 0.5l-1.5 0.5l-3 1h-1q-4 1 -4.5 1.5t-1.5 0.5t-2.5 0.5t-2.5 0.5t-2 1l-2 1q0 -1 -1 0l-5 1q-3 0 -5 0.5t-2 1t-1 0t-1 0t-1 0.5t-1 0.5t-1 0.5t-1 0.5t-1 0t-3.5 0.5t-3.5 1h-1l-2 1q-1 -1 -1 0t-1 0.5t-2 0.5t-8 1q-1 0 -1 0.5t-2 1t-4 0.5q-1 1 -2 1zM429 30
q3 0 3 -1h1q3 0 3 -0.5t1 -0.5q2 0 8 -1q1 -1 2 -1h1.5t2 -0.5t4 -1t4.5 -1l2 -0.5q0 -1 3 -1t6 -1t3.5 -0.5t1 0t1 -0.5t1 -0.5t3.5 -1t4 -1t2 -0.5t3.5 -0.5t4 -1t3.5 -1t3 0t1 0t1 -0.5t3 -1t3 -1t1.5 -0.5t1.5 0t2.5 -0.5t2.5 -0.5t1 0t2.5 -0.5t3.5 -1.5t1 -0.5t1.5 0
t2 -0.5t0.5 -0.5t1 -1q-1 -1 -6 0h-6t-4 0.5t-3 0.5l-16 2t-15 2q-1 0 -1 0.5t-3 0.5t-8 1t-6 1h-1q0 1 -1 0.5t-4 0.5t-4 1t-8.5 1.5t-8 1t-1 0.5t-2.5 1t-4 1q-4 1 -4 2q-1 4 0 5t5 2h1z" />
  </g>

</svg>
