<?xml version="1.0" standalone="no"?>
<!DOCTYPE svg PUBLIC "-//W3C//DTD SVG 1.1//EN" "http://www.w3.org/Graphics/SVG/1.1/DTD/svg11.dtd" >
<svg viewBox="0 -200 1065 1000">
  <g transform="matrix(1 0 0 -1 0 800)">
   <path fill="currentColor"
d="M191 -54q-7 2 -51 4q-16 1 -25 2l-10 1l-2 1l-3 1h5l4 -1l-1 1l-1 2l-1 -1h-1l1 1l1 1v1v1l4 3q3 2 3.5 3t1.5 1t5 3l3 3h1h1l2 3q2 2 3 2t4 3l2 3h1h2v2l1 2l2 2q3 1 5.5 3.5t10.5 9t8 7t4 3.5l3 2l3 3q4 3 4 4.5t1 1.5t7 5.5t10 8.5l10 9l11 10l9 8l4 3h1l1 -1v1l-1 1
l4 3q3 3 5.5 4.5t7 6t10 8.5t7.5 6t4.5 3.5t3.5 2.5l3 3q3 2 7.5 6.5t5.5 4.5t4.5 4t6 5t6.5 5l11 9q4 3 8 6.5t7 5.5l7 6l8 6t4 3.5t4.5 4t5.5 4t4.5 3t6 5t7 5.5t7.5 5.5t5 3.5l2 1l1 2v1l7 5q7 5 8 6l17 15q5 4 7 6q18 14 23 19q0 1 3 2l2 2v-2l-1 -2h1l2 -1l1 1l1 1
l-2 1l-1 1v1v2l1 1l6 5q5 3 11 10l6 6h-1v1h1v2v2l2 -1h1l-1 1l-1 1h1v1l-2 2l-1 2v1l1 1l-5 4q-4 5 -3.5 5t-2.5 3l-3 3v1v1l-1 3q-1 3 -0.5 3t-1.5 2t-2 2.5t-1.5 1t-3.5 2t-2 2.5v1h-2h-1v1v2l-3 1l-3 1v2l-1 1h-2h-2v1v1h1l1 -1l-1 1v1l-1 -1h-2l1 1v2h-1h-1l-2 1
q-2 2 -5 4l-3 2v1q0 1 -1 1t-3 1l-2 2v1v2l-1 -2v-2l-1 2v1h-1l-1 -1v1v1l-4 3q-4 2 -5 4l-2 1l1 1h-1h-2v1v1h-2h-1l-1 2v1h-2h-1l-1 1v2l-1 -1h-1v1l1 1l-1 1l-1 -1l-1 -1v2v1l-2 -1h-1v1v1.5t-3.5 2t-3.5 2.5t-1 1t-4 2l-2 2l-1 -1h-2h1v1l-2 2l-3 3l-2 1v1v1h-2l-2 1
l-3 3l-3 3h-2h-2l1 1v2l-1 -1l-1 -1v1l-1 2l-2 2q-3 1 -4 1.5t-4 1.5l-2 1v1l1 1h-1q-1 0 -2.5 1.5t-2.5 1.5q-2 1 -5 4q-3 2 -9 5l-3 2v1v1l-2 1q-3 1 -4.5 2.5t-5 3t-4.5 3t-5 3.5l-5 2l-1 2l-2 1h-2h-1v1v2v1h-2h-2v1l-1 1l-2 1h-2v1v1h-1h-1l-1 1l-2 2l-1 -1h-1v1v1
l-4 4l-4 3v-1h-1h-1v1v2h-2l-2 1v2l-1 2h-1l-1 -1l-1 1l-2.5 2.5t-4.5 3.5l-4 3l-1 -1v1v1l-4 3l-4 3v1v1h-1h10h12l3 2l3 1h4h3l1 2l1 1l3 1q2 0 3 1v1h2h1l4 2q3 3 6 5.5t3 2t2 1.5t2 2.5t1.5 2t2.5 1.5t4.5 5t4.5 6q0 2 3 8q1 3 1 5v1h1l2 1l4 -5l5 -4l10 -7
q11 -8 42 -29q5 -4 10 -7q8 -5 33 -22q8 -5 9 -6t2.5 -2l7.5 -5l16 -11q5 -4 7 -5l7 -5l10 -7q5 -3 7 -5q14 -10 15 -10t8 -5q14 -9 20 -12q1 -1 7 -5q10 -8 20 -13q1 -1 5 -4q10 -8 19 -13q2 -1 3 -2t4 -3l3 -1l1 1l1 1v-1v-1h3l2 -1l6 4q6 3 10 6t4.5 3t3.5 2t4 2v-3v-2h2
l2 1l2 2q3 3 3 4t2 2l2 1h1h1l1 2l1 1l3 2q3 2 3 3t3 2l2 1l2 3l2 2l3 1q3 2 4.5 3.5t2.5 1.5h1v1h1q1 0 3 2l1 2l1 -1h1v1v1l5 1l4 1l3 4q4 6 7 10q8 7 9 7q0 -1 3 2t4 3t2.5 1.5t2 1.5t2.5 2t2.5 1.5t3.5 2.5l3 3l1 -1h1l-1 1l-1 1l6 3q5 3 6 5l1 1l1 -1h1l-1 1v1l4 2
q4 2 5.5 3.5t2 1.5t2.5 2l3 3h1h1l1 2q1 1 2 1t3 2q4 4 7 5l3 3q6 5 8 4v1v1h1h1l1 1q1 1 2 1h1l1 2q2 2 7 6l8 5l3 2h-1v1l2 1q3 1 3 2l1 1h2h1l1 2v1l4 2l3 2v1l-1 1l1 -1h1l3 3q4 2 4 1.5t2.5 2t5.5 4.5l3 2l1 1v1h1l1 -1l2 2q2 2 2.5 2t2.5 2l6 5l4 3l1 -1l2 3
q3 2 3.5 2t3 2.5t3.5 2.5h1l3 3q2 2 2.5 2t3.5 3l2 3h1h1l2 2l2 1h1h1q0 1 2 2q8 4 9 6q0 1 1 1h1l2 1q1 2 4 3l2 2h2h1l2 -4q1 -3 1 -4t2.5 -6.5t3 -6t2.5 -3.5l2 -3l8 -8q7 -8 8 -8t2 -2l2 -3l1 1h1v-1v-1l4 -2q4 -2 4.5 -2.5t3.5 -1.5l2 -1v-1v-1h2h2l-3 -2l-2 -1l-1 -1
v-2l-2 1h-2l-3 -3l-3 -4h-2h-3l-1 -1l1 -2v-1h-1h-1l-2 -2q-2 -2 -2.5 -2t-2.5 -2t-6 -4l-3 -2v-1v-1h-1v1l-3 -3l-2 -4l-1 1l-3 -2q-2 -3 -3 -3t-5 -3l-4 -4l1 -1l2 -2l-2 1h-2v-1l-1 -1h-1h-1v-1v-1l-2 1h-1v-1v-1q0 -3 -7 -4l-2 -1v-1h-1t-5 -4.5t-4.5 -4.5t-5.5 -4.5
t-5.5 -4.5t-2.5 -1.5t-3 -1.5h-1v-1l-1 -1l-4 -3q-4 -3 -3.5 -3.5t-2.5 -3.5l-3 -2l-3 -2q-4 -2 -7.5 -5.5t-5.5 -3.5l-1 -1l-1 -2l-1 -2h-1h-1l-3 -1q-3 -2 -3 -2.5t-2 -1.5h-1v-2v-1h-2h-1v-1h-1h-1l-1 -2v-1h-1q-1 0 -3 -1.5t-4.5 -3t-3.5 -2.5l-2 -1v-1l1 -1h-2l-2 -1
v-1h-1h-1l-2 -2l-3 -2h-1h-1v-1v-1l-3 -1l-2 -1q0 -1 -4 -4q-5 -4 -9 -5l-2 -1l-1 -1v-2h-1h-2v-1v-1l-3 -2q-4 -1 -4 -1.5t-3 -2t-5.5 -4t-2.5 -2t-4 -2.5q-6 -6 -8 -6h-2h-1l1 -1v-1h-1h-1l-2 -1q-1 -2 -5 -2q-1 0 -1 -1q-4 -3 -10 -6l-3 -1l1 -2v-1l-1 1h-2l-1 -1v-3v-1
l-1 1l-2 2h-1v-1l1 -1l-4 -2l-3 -1v-2v-2l-1 1l-1 1l-2 -2q-2 -2 -3 -2h-1v-1l-1 -2h-1h-1l-1 -1v-2l-2 -1q-2 0 -5 -3t-3 -4t-1 -2l-2 -1v-1v-2h-1v-1v-1l-1 -1l-1 -1v-2v-2l3 -4l4 -6q3 -3 10 -9.5t9 -6.5q1 0 4 -2q14 -10 21 -17q4 -3 17 -12q8 -6 11.5 -9l9.5 -8
q18 -13 27 -21l10 -7.5l10.5 -8l10 -7.5t7.5 -6t8 -6l25 -20l16 -13l9 -7q18 -15 24 -19q4 -3 5.5 -4.5t7.5 -5.5q13 -10 19 -15l27 -22l13 -10l8 -6l14 -12l18 -14l10 -8.5t8 -5.5t9 -6.5l7 -6t4 -3.5l2 -2v-1v-1h-2q-2 1 -8 1h-5l3 1l3 1h-1h-1l-2 2l-1 1h-2h-1h-1
q-3 2 -10 3q-1 0 -4 -1t-6.5 -1.5t-4.5 -0.5l-1 -1l-2 1l-2 1v-1l-1 -1h-1l-2 1v-1v-1l-2 1l-1 1h-4h-4l-2 -1l-1 -1l-2 1l-2 1l-3 -1q-4 0 -8.5 -0.5t-7.5 -0.5l-4 -1l-1 1l-1 1h-4h-4l-1 -1q0 -1 -2 -1h-2l1 -2v-3h-3h-5.5t-3 -0.5t-1.5 -0.5v1v1l-2 -1l-1 -2h-3h-2l-1 -1
l-1 -1l1 3l2 3v1l-1 -1v-1h-2h-2v-2v-1l-1 -2l-2 -1h-3l-2 1l-1 2q-2 1 -2.5 1t-1.5 2l-2 1v-1v-1l-1 1l-1 2l-1 2h-1l-1 -1h1v-1h-1l-1 1l-2 -2l-3 -1v1h-1l2 1l1 1l-2 1l-1 1v1h1l-1 1l-1 1h1l-3.5 4l-3.5 4v1h-3h-3v1h-1h-2v-1v-2l-1 2v1v1l1 1h-1h-1v1l1 2l-2 -1h-2v1
l-1 2l-1 -1l-1 -2l-1 2l-1 2v-1l-1 -1h-1l-1 1l-1 -1l-2 -1v1l-1 1l1 2l1 1l-1 1q0 2 -1 2q-2 0 0 -3l-2 1l-2 2l1 1l1 1v1l-1 -1l-1 -1l-1 1q-1 0 -1 1v2l-1 -1h-1v1h-1h-2v1v1h-1l-1 -1v1l1 1l-2 1l-1 1h-1v1h-1l-1 -1h-3l-2 1h1h2l1 1v1v1v-1h-1l-1 1l-1 2h1l1 1h-3h-2
v-1q0 -1 -1 -1h-1v2v2h1h1l-2 1l-2 2v2l-1 1h-1h-1v-1l1 -1l-1 1l-2 1v-1v-1v1q0 1 -2 3l-1 1h-2h-2v1v1l-2 2l-1 2l-1 -1l-1 -2l1 -1h-1l-1 -1v2v2h1h-1v1h1l1 -1v1q0 1 -1 2l-1 2l-1 -1l-1 -1l-3 2l-2 2l1 1l1 1q-1 1 -3 2l-1 1l1 -1q1 -1 1 -2h-2h-1l1 -1v-1h-2h-3v1v1
l1 -1h1v1l-1 1h-2l1 1v1h-1h-1l1 2v1h-1h-2h-2v2v1l-2 1l-2 1l-1 -1l-2 -1l2 1l1 2h-2h-2v1v1l-1 1l-1 1v-1v-1h-2h-1v2v1l2 1h2h-2l-1 1v1l-1 1h-1l-1 -1l-1 1v1l-1 -1v-1l-3 2l-2 2v-1h-1v2l-1 -2v-1h-2q-1 1 -1 2h1h2v1v1l2 -1l2 -1v1v2h-2l-1 1l-1 -1q-1 -1 -3 -1h-2
l1 1v1v2l-1 3h-1h-2l1 1v1h-1q-1 0 -2 -1l-1 -1v1v1l-1 -1l-1 -1v2v1l-3 1l-2 1h-2h-2l2 2l1 3l-1 1h-1l-2 -1l-2 -1v1v1h-1l-1 -1v1v1v-1v-1h-1h-1v1q-1 0 -2 2l-1 1v1v1h-1v-1h-2l-2 -1v1v1l-1 -1v1q0 1 2 2l2 1l-1 1q-2 1 -2 1.5t-1 0.5l-1 2l-2 3v-1v-1l-1 1h-2h-1
l-2 -1l-1 2l-2 2v1v1l-1 1h-1v1l1 1h-1v-1l-2 2l-1 1v-1l-1 -1h-1v1l1 1l-2 1h-2v-1v-1l-1 1l-1 1v1l1 2l-2 1l-1 2h-2l-2 1l1 1h-1h-1l-1 1v1h-2l-2 1v-1q0 -1 2 -1l1 -1l-1 -1l-1 -1l-1 1l-1 2v1l1 1l-1 -1h-2l1 1v2h-2h-2v1l1 1h-2l-2 -1v1q0 1 1 1l1 1l-1 1l-2 1h2h1v1
v1l-2 1l-3 1v-1h-1h-1l1 1l1 1l1 -1h1h1l1 1l-3 1l-4 1h-1l-1 -1v1h1l-2 2l-1 1v1l1 1l-1 -1h-1l-1 1v1h-2h-1l-1 -1v-1v2v2l-1 -2l-2 -1l2 -1l1 -2l-2 1h-1v3l1 2h-2l-2 1l1 1l1 2h-1q-1 1 -2 1h-1v1v1l-1 -1h-2l-1 1l-1 2l1 1v1l-1 1l-1 1l-1 -1l-2 -1l1 1q0 1 -1 3v2
l-2 -1l-2 -1l-1 2q-1 4 -2 2q-1 -1 -2 -1h-1v2v2v2l-1 1v-1v-1h-2l-2 1l-1 2l-1 2h-2l-2 -1v1l1 1l-2 2l-2 2v1l1 2l-2 -1l-1 -1v1v1h-1q-2 1 -3 0h-2l-1 1l-1 1l1 1l1 1l-2 1h-1l1 2v1l-1 -1v-1l-2 1l-1 1h1v1v1l-1 1v-1l-1 -1l-2 2l-2 3h-2h-1v1h-2h-2v1l-1 1l-3 1h-2v-1
h1h-2h-2h-1l-1 -1v2v1l-3 1l-4 2l-2 1l2 -2l2 -1h-3h-2l-1 1l-2 1l1 1l1 1h-1l-2 -1l1 1v1h-1h-1v1l1 1h-3l-3 -1v1h-4l2 -1l2 -1h-2h-1l-1 2l-1 1h-3q-2 0 -4 -2l-3 -1v1q-1 0 -1 2v2l2 1h2l-1 1h-1h1h1l-1 3v2l-2 1l-1 2l-3 -1l-3 -1l-3 -1q-3 -3 -2 -4l-1 -2l-2 -1l1 -1
l2 -1l-1 -1l2 1l1 1l2 -3l2 -2h1q1 0 2 -1l1 -1h-3h-3l-1 1l-1 1l-1 -2l-1 -1h-1v1l-2 -2l-2 -1h1h1v-2v-2h-1v1v2l-5 -1h-4l1 -1l1 -2l-1 1l-2 1v-1v-1h-1h-2v-1v-1v1l-1 1l-1 -2l-1 -2h-1h-2v-2v-2h-1q-1 0 -1 1l-1 1h1h1v1q0 3 -2 0l-1 -1v-1l-1 1l-1 1l-3 -3l-4 -2l3 1
h1l1 -1v-1h-1v-1l1 -1h-2h-1v-1v-1l-1 2l-1 1h-2h-2l-1 -1v-1h-2l-2 1l1 -2l2 -2h-1h-2v-1v-1l-2 1h-3l1 -1q1 -1 1 -4v-2q0 1 -1 1h-1l1 -2v-1h-1q-1 0 -2 -1l-1 -2h-1h-4h-1v-2v-3v1q-1 1 -3 2h-1v-2v-1h-1l-1 1v-3l1 -3l-1 1l-1 1l-1 -1l-1 -1h-2h-1l-1 -3l-1 -2l-4 1h-3
v-1q0 -1 1 -1l2 -1l-2 -1l-1 -1v-1l-1 -2l-1 -1h-1v1v-1v-1h-2l-1 1v-1v-1h-2h-2l-1 1l-1 1v-1v-2l1 1h1v-2v-3l-1 2l-1 2l-1 -1q0 -2 -1 -2h-1l1 1v1h-1l-1 -1v-1q-1 -2 -2 -3l-1 -1l-1 1h-1h-1h-1h-1v1h-2l-2 -1h1h1l-1 -2v-1l1 -1v1v1h2h1h-1q-1 -1 -1 -3l-1 -1l-1 1
l-1 -1v-2l-1 1l-1 1v-1v-1l-1 -1h-1l2 -2l2 -2l-2 1h-2l-1 -1h-1h1h1l-1 -1l-1 -1l-1 1l-1 2l-1 -1v-1h1q1 0 1 -1v-1l-3 -1l-3 -1v-1v-1l-1 -3l-1 -3v1q-1 3 -4 0l-1 -1l1 -1l1 -2l-1 1l-2 2v-1l-1 -1h-2l-2 1l2 -2q3 -3 1 -3t-3 -1l-1 -1h-3l-2 1l1 -1l2 -1h-2h-1v-1
l-1 -1h1h1l-1 -2l-2 -1h-1l1 1v1h-2q-1 1 -1.5 0.5t0.5 -1.5q2 -2 0 -2q-1 0 -2 -2l-1 -1l-2 1h-2v-1v-3v-2l-2 -1l-3 -1l-1 1v2l1 1h-1q-1 0 -2 -2l-2 -2l2 1h1v-1v-1l-1 -2l-2 -1l-2 1l-1 1l-1 -1l-2 -2l2 1h2v-1l1 -2h-3q-3 1 -4 1l-1 1l1 -1l1 -1l-1 -2l-1 -2l-1 1v1
l-1 -1h-1l-2 1h-1l-2 -1v-1l1 1v-1l1 -1l-1 -2l-1 -2l-1 1h-1v-1v-3v-1h-3l-4 1v-1v-1h-1l-1 1l-1 -1l-1 -2l1 1h1v-2v-2h-1l-1 1v1l-1 -2l-1 -1l-1 1v1h-1l1 -2l2 -1v1h2h1v-1v-1h-1v-1v-1l-1 -1h-2l1 1v1h-1h-1v-1v-1l-1 1l-1 1v-1l-1 -2l1 -1l1 -1h-1h-2l1 1v1h-1l-1 1
l-1 -1l-1 -1l-1 1v1l-1 -1v-2h1h1l-2 -3l-2 -2h1h2l-1 -1h-1l-3 1l-2 1l-1 -1v1v1h-2h-2l1 -1h1v-1v-1h2l1 1v-1q0 -1 -1 -2h-1l-1 1q-2 1 -3 1h1l1 -1l-1 -1q-2 -2 -2 -2.5t-3 -1.5h-2l1 1v1h-2l-1 -1l-2 -2q-1 -2 -2 -3l-1 -1v-1l1 -2l-1 -1v-1h-2l-2 1l-1 -2v-2h-1h-1
l1 2v1l-1 1l-1 1l1 1v2l1 -1l1 -1h2h2l-2 1q-2 0 -3.5 1t-2.5 1h-1l-1 -1v-1l2 1h1v-1l-1 -2l-1 1h-2l-1 -1h-1h-1l-1 -1l-2 -1v-1l1 -1l-2 1h-1l-4 -2l-3 -3l-2 -2l-2 -3v1l-3 -1l-3 -3q-5 -5 -15 -13q-6 -4 -10 -8q-2 -2 -5 -4t-6 -5l-4 -4h-2l-1 -1l-4 -3q-3 -4 -3 -3
l-1 -1q-1 -1 -6 -5l-13 -10l-2 -3h-1h-1l-5 -5l-9 -8l-3 -3h-3l-4 -1zM179 -51h-1h1zM184 -50l-1 1h-2h-1v-1q0 -1 4 -1h2zM182 -50v1l1 -1v-1h-1h-1zM148 -49.5q0 0.5 -1 0.5q0 -1 0.5 -1t0.5 0.5zM161 -49h-1v-1h1h1zM136 -48v1h-2l-2 1l-1 -1l-1 -1h3q3 -1 3 0zM140 -48
q0 1 -1 1t-2 -1v-1h1h2v1zM154 -48.5q0 0.5 -1 1.5h-2l-1 -1l-1 -1h3q2 0 2 0.5zM173 -48q-1 0 -1 -0.5t0.5 -0.5t0.5 1zM189 -48h-1v-1h1h1zM126 -47.5v0.5v-1v0.5zM119 -47l-1 1v-1h-1h1h1zM121 -47v1l-1 -1h1h1h-1zM116 -46h-1h0.5h0.5zM111 -41.5q0 0.5 -0.5 0.5
t-0.5 -1q1 0 1 0.5zM942 -20q-1 0 -1 -0.5t0.5 -0.5t0.5 1zM957 -20v1h-1h-1v-1q0 -1 0.5 -1t1.5 1zM946 -19l1 1h-1l-1 1l-1 -2l-1 -1h1h1zM949 -19.5q0 0.5 -0.5 0.5t-0.5 -1q1 0 1 0.5zM955 -17v2q-2 2 -2 -1l-1 -1l1 1h1v-1v-1h-1h-2v-1v-1l1 1q2 1 3 2zM930 -19v1
l-1 -1h-1h1h2h-1zM926 -17v1h-1h-1l1 -1q0 -1 0.5 -1t0.5 1zM957 -16q0 1 -0.5 1t-0.5 -0.5t1 -0.5zM1003 -12q-1 0 -1 -0.5t0.5 -0.5t0.5 1zM920 -11l1 1q-1 0 -1 -1v-1v1zM1010 -9h-1h0.5h0.5zM913 -7.5q0 0.5 -1 0.5q0 -1 0.5 -1t0.5 0.5zM1018 -7q-1 0 -1 -0.5t0.5 -0.5
t0.5 1zM911 -6q0 1 -1 1t-1 -1t1 -1t1 1zM879 6l-1 1v-2v-1l1 1v1zM881 6v1h-1v-1v-1zM899 5.5q0 0.5 -1 0.5q0 -1 0.5 -1t0.5 0.5zM896 7q-1 1 -1 3l-1 1h-1l-2 1v-1l2 -1l1 -1v-1v-2h1h1v1zM878 11q-1 0 -1 -0.5t0.5 -0.5t0.5 1zM887 14v2l-1 -1h-1v1l1 1l-2 1q-1 0 -2 1
h-1l-1 -1l-2 -1h1l1 1l1 -1q2 -4 6 -4v1zM871 14.5q0 0.5 -0.5 0.5t-0.5 -1q1 0 1 0.5zM864 18h-1v-1v-1h1v1v1zM863 22v1h-1h-1v-1l1 -1zM873 24h-1h1zM872 26l1 1h-1l-1 -1v1v1v-1l-1 -1v-1q1 -1 2 1zM870 32q-1 1 -2 1h-2v-1q0 -1 2 -2h2h1v1zM845 36q-1 0 -1 -0.5
t0.5 -0.5t0.5 1zM858 36q-1 0 -1 -0.5t0.5 -0.5t0.5 1zM856 36.5q0 0.5 -0.5 0.5t-0.5 -1q1 0 1 0.5zM854 43l-1 1h-2h-2v1l-2 2l-2 1v-1l-1 -1l1 -1l1 -1l1 1h1v-2l1 -2h2h1l1 -1v-1h-1v-1l1 -1h1v2l1 3zM853 42.5v0.5v-1v0.5zM326 38v0v0zM329 38l-1 1v-1h-1h1h1zM317 40
v1h-2h-1l1 -1v-2l1 1q1 0 1 1zM323 39q-1 0 -1 -0.5t0.5 -0.5t0.5 1zM839 41.5q0 0.5 -0.5 0.5t-0.5 -1q1 0 1 0.5zM328 43v1h-1v-1l-1 2v1h1v2v1h-1q-2 0 -2 -5v-1h2h1h1zM323 44v1h-1h-1v-1q0 -1 0.5 -1t1.5 1zM331 47l-2 1h-1v-1h3zM843 48v2v1h-2l-1 -1l-1 2l-1 1v-2v-1
l3 -2l2 -1v1zM825 49v1h-1v-1v-2l1 1v1zM340 49v1l-1 1l-2 1q1 -2 3 -3zM823 50h-1h-1v-1h1h1v1zM823 51.5q0 0.5 -0.5 0.5t-0.5 -1q1 0 1 0.5zM333 52h-1h1zM837 53.5q0 0.5 -1 0.5l-1 1v-1v-1h1q1 0 1 0.5zM838 57v1h-2h-1v-1l-1 -1h2h2v1zM339 57l-1 1l-1 -1h-1h1h2z
M343 57h-1h0.5h0.5zM811 59.5q0 0.5 -0.5 0.5t-0.5 -1q1 0 1 0.5zM353 60.5q0 0.5 -0.5 0.5t-0.5 -1q1 0 1 0.5zM358 62v1l-1 -1l-1 -1h1l2 1h-1zM349 62.5q0 0.5 -1 0.5q0 -1 0.5 -1t0.5 0.5zM352 63h-1l-1 -1h1h1v1zM823 62.5q0 0.5 -1 0.5q0 -1 0.5 -1t0.5 0.5zM820 65v1
l-1 2q-7 7 -11 7h-1l2 -3l1 -2l3 -2q4 -2 5 -3l1 -2l1 1v1zM812 70l1 1l1 -1h-1h-2h1zM359 65q0 1 -0.5 1t-0.5 -1t0.5 -1t0.5 1zM354 65.5v0.5v-1v0.5zM348 66.5q0 0.5 -1 0.5q0 -1 0.5 -1t0.5 0.5zM804 67q-1 0 -1 -0.5t0.5 -0.5t0.5 1zM350 68q-1 0 -1 -0.5t0.5 -0.5
t0.5 1zM355 71h-1h1zM363 74v1l-1 -1v-1q1 0 1 1zM787 76v1v-2v-1v1h1zM790 75h-1h1zM370 76q0 1 -0.5 1t-0.5 -1l-1 -1h1h1v1zM807 76q0 1 -0.5 1t-0.5 -1t0.5 -1t0.5 1zM371 79.5q0 0.5 -0.5 0.5t-0.5 -1q1 0 1 0.5zM787 80v0v0zM781 82l-1 1v-1v-2l1 1v1zM797 82v-0.5
v-0.5v1zM373 84v1l-1 -1v-1zM794 85q0 1 -1 2l-2 2h-2h-3v-1v-1h1h2l1 -1l1 -1h2h1zM380 86q-1 0 -1 -0.5t0.5 -0.5t0.5 1zM386 85.5q0 0.5 -1 0.5q0 -1 0.5 -1t0.5 0.5zM383 87q0 1 -0.5 1t-0.5 -0.5t1 -0.5zM379 88q0 1 -0.5 1t-0.5 -0.5t1 -0.5zM396 92v-1v-1v1h1z
M388 94h-1h1zM779 98h1l-2 2q-2 1 -4 1l-1 1v-1q0 -1 1.5 -2t1.5 -1.5v-0.5v-1l1 1q1 0 2 1zM405 97.5q0 0.5 -0.5 0.5t-0.5 -1q1 0 1 0.5zM752 99q0 1 -0.5 1t-0.5 -1l-1 -1h1h1v1zM755 100v-1v-1v1h1zM771 102v1h-1l-1 1v-2q0 -2 2 0zM405 102.5v0.5v-1v0.5zM404 104l-1 1
l-1 -1v-1h1h1v1zM757 104q-1 0 -1 -0.5t0.5 -0.5t0.5 1zM769 106v1l-3 1l-2 1h1h1l-1 1l-2 2h-2v-1v-1h-1h-1l2 -1q2 -1 3 -2l1 -1l1 1l1 -1q0 -2 1 -2h1v2zM783 104.5q0 0.5 -1 0.5q0 -1 0.5 -1t0.5 0.5zM411 105q0 1 -0.5 1t-0.5 -0.5t1 -0.5zM409 106.5q0 0.5 -0.5 0.5
t-0.5 -1q1 0 1 0.5zM409 108.5q0 0.5 -1 0.5q0 -1 0.5 -1t0.5 0.5zM417 110q-1 0 -1 -0.5t0.5 -0.5t0.5 1zM422 113l-1 1v-2v-1l1 1v1zM738 113l-1 1h-1q-1 0 -1 -1t2 -1h1v1zM424 113v1l-1 -1l-1 -1h2h1zM736 115.5q0 0.5 -0.5 0.5t-0.5 -1q1 0 1 0.5zM420 116q0 1 -0.5 1
t-0.5 -0.5t1 -0.5zM738 116q0 1 -0.5 1t-0.5 -0.5t1 -0.5zM424 119v-0.5v-0.5v1zM435 123h-2l-1 -1h1l2 -1l1 1zM745 124v2h-1h-1v-2v-1h1h1v1zM432 124.5q0 0.5 -0.5 0.5t-0.5 -1q1 0 1 0.5zM436 127l2 -1v1v1h-1h-2l-2 -1l1 -1l1 -1v1v1h1zM709 130q0 1 -0.5 1t-0.5 -0.5
t1 -0.5zM442 132.5q0 0.5 -1 0.5q0 -1 0.5 -1t0.5 0.5zM446 134l-1 1l-1 -1h1h1zM709 134q0 1 -0.5 1t-0.5 -0.5t1 -0.5zM447 138v-1v-1v1h1zM443 139.5v0.5v-1v0.5zM707 142.5q0 0.5 -1 0.5q0 -1 0.5 -1t0.5 0.5zM693 151v1l-1 -1l-1 -1l1 -1zM739 154l-1 1v-1h-1h1h1z
M477 157v1l-2 -1h-1l1 -1l1 -1v1zM701 157v1h-1h-1l-1 1l-1 2h-1h-2v-1v-1h2h1l1 -1l1 -2h1h1v1zM681 157q0 1 -0.5 1t-0.5 -0.5t1 -0.5zM684 157.5q0 0.5 -0.5 0.5t-0.5 -1q1 0 1 0.5zM687 157q0 1 -0.5 1t-0.5 -0.5t1 -0.5zM692 163l1 1l-2 1h-1.5t0.5 -1q1 -2 2 -1z
M484 164v0v0zM490 167l-1 1v-1h-1h1h2h-1zM488 168.5q0 0.5 -1 0.5q0 -1 0.5 -1t0.5 0.5zM450 171h-1l-1 -1h1h1v1zM451 175.5q0 0.5 -0.5 0.5t-0.5 -1q1 0 1 0.5zM501 177q0 1 -0.5 1t-0.5 -0.5t1 -0.5zM674 179v1h-1q-1 0 -2 2l-2 2l-1 -1l2 -3l3 -2h1v1zM500 179
q-1 0 -1 -0.5t0.5 -0.5t0.5 1zM506 180l1 1h-2l-1 1l1 -1v-1h-1h-1l1 -1q2 -1 2 1zM498 180v-0.5v-0.5v1zM507 182.5q0 0.5 -1 0.5q0 -1 0.5 -1t0.5 0.5zM667 184v1h-1l-3 1q0 -1 1.5 -2t2.5 0zM649 187h-1h1zM383 188q-1 0 -1 -0.5t0.5 -0.5t0.5 1zM670 187.5q0 0.5 -1 0.5
q0 -1 0.5 -1t0.5 0.5zM658 192q0 1 -1 3l-2 1h-1h-1l-1 1v2l-1 -1v-2zM521 195.5q0 0.5 -0.5 0.5t-0.5 -1q1 0 1 0.5zM522 197.5q0 0.5 -1 0.5q0 -1 0.5 -1t0.5 0.5zM649 199q-1 0 -1 -0.5t0.5 -0.5t0.5 1zM646 200v1v-1v-1l1 1h-1zM646 201.5q0 0.5 -1 1.5h-2v-1l-1 -1h2
q2 0 2 0.5zM537 204h-1h-1l-1 -1h2h1v1zM628 204.5q0 0.5 -0.5 0.5t-0.5 -1q1 0 1 0.5zM643 206v1l-1 1q-1 0 -2 2l-1 2l-1 -1h-1l-1 1q-1 2 -4 3l-3 1q0 -1 4 -3l4 -2v-1l-1 -1l3 -2q3 -2 4 -2v1zM552 214l-1 1v-2v-1h1v1v1zM606 212.5q0 0.5 -1 0.5q0 -1 0.5 -1t0.5 0.5z
M603 213q0 1 -0.5 1t-0.5 -0.5t1 -0.5zM608 215h-1h1zM557 217q-1 0 -1 -0.5t0.5 -0.5t0.5 1zM604 217.5q0 0.5 -0.5 0.5t-0.5 -1q1 0 1 0.5zM626 219q-1 2 -2 3l-2 1l2 -1h1l-2 1q-3 3 -3 1q0 -1 2.5 -3.5l2.5 -2.5h1v1zM625 226q-1 0 -1 -0.5t0.5 -0.5t0.5 1zM583 234
l-1 1h-1l-1 -1v1l-1 1h-1h-1l1 -1l1 -1q1 0 2 -0.5t2 -0.5v1zM588 233l1 1l-2 1l-2 1h-1v-1v-1l1 -1h1h2zM592 236h-1l-1 -1h2h1zM564 237.5v0.5v-1v0.5zM584 237q0 1 -0.5 1t-0.5 -0.5t1 -0.5zM616 241q0 1 -0.5 1t-0.5 -0.5t1 -0.5zM470 252q0 1 -1 1h-1v-1h2h1h-1z
M559 257l-1 2l-1 1l-1 -1v-1l1 -1q2 -3 2 0zM554 260v-1v-1l1 1zM562 259l1 1l2 1q2 1 5 2l10 5l9 4h2h1l1 1q0 1 3.5 3t4.5 2t3 1q6 6 8 6q1 0 3.5 1.5t5.5 3.5q7 3 12 7l6 4l3 1v2q1 2 2 5v2l2 -1h2v1v1l-1 1l-1 1h-2l-1 -1l-1 2q-1 1 -1 2v1h-1h-2v2v1l-2 1h-2l-1 2v2h-1
h-1l-2 2l-1 3l1 1h-3h-3v2l1 1l-1 -1l-1 -1h-2h-7h-5v-1l-1 -1h-2q-3 0 -9 -4q-1 0 -4 -2l-2 -1v-1l1 -1h-1l-1 1l-2 -2l-1 -1h-2h-2v-2l-1 -1q-1 1 -2 1h-1l1 -1v-1l-1 1l-1 1l-3 -2q-2 -3 -5 -4t-3 -2l-1 -1v1v1h-1h-1v-2l1 -1l-2 -1q-3 -1 -3 -2v-1v1h-1l-2 -1
q-1 -1 -1.5 -1h-0.5h-1v-1v-1h-1h-2v-1v-1h-1h-1l-1 -1v-1h-1l-1 1l1 -1v-2v1h-1l-1 -1l-1 -1h-1l-1 1l1 -2q0 -2 1 -5v-3l1 -2q1 -3 7 -12l5 -10l2 -1q2 -2 3 -2h1v1zM543 292q1 0 1 -0.5t-0.5 -0.5t-0.5 1zM544 294h1h1h-1l-1 -1v1zM549 293q0 1 0.5 1t0.5 -0.5t-1 -0.5z
M646 313h1h-1zM609 330q0 1 0.5 1t0.5 -0.5t-1 -0.5zM618 331h1h-1zM554 262v0v0zM605 278.5q0 0.5 -0.5 0.5t-0.5 -1q1 0 1 0.5zM491 292v1h-1l-1 1v-2q0 -2 2 0zM553 304.5q0 0.5 -1 0.5q0 -1 0.5 -1t0.5 0.5zM648 323q0 1 -1 2h-1v-1q1 -2 2 -2v1zM636 324q-1 0 -1 -0.5
t0.5 -0.5t0.5 1zM592 326.5v0.5v-1v0.5zM606 332v-0.5v-0.5v1zM638 332.5q0 0.5 -1 1.5l-2 1l1 -1v-2h1q1 0 1 0.5zM614 334.5q0 0.5 -0.5 0.5t-0.5 -1q1 0 1 0.5zM615 335.5v0.5v-1v0.5zM632 337.5q0 0.5 -3 2.5l-3 3v-1l-1 -1l2 -2l3 -2h1q1 0 1 0.5zM741 349.5
q0 0.5 -0.5 0.5t-0.5 -1q1 0 1 0.5zM407 381q0 1 -0.5 1t-0.5 -0.5t1 -0.5zM685 406h-1h0.5h0.5zM859 432q0 1 -0.5 1t-0.5 -1l-1 -1h1h1v1zM276 -37h1h-0.5h-0.5zM916 -24v1q1 1 2 1h1q0 -1 -1 -2l-1 -1zM965 -20h1v-1h-1h-1zM971 -20q2 1 3 1h2l-2 -1q-1 -1 -3 -1h-1z
M984 -20h3l1 -1h-3h-2zM1000 -20l1 1v-1h1h-1h-1zM1003 -19.5q0 0.5 0.5 0.5t0.5 -1q-1 0 -1 0.5zM1008 -20l2 1h-1v1h7h6l1 1l1 2l4 -1h5v1v2l1 -1v-2v-2h2q9 0 10 -1h-1.5h-4h-5.5q-12 0 -21 -1h-9h3zM958 -18h1h-1zM985 -18h1h-1zM901 -16l-1 1h1h1v-1q0 -1 -0.5 -1
t-0.5 1zM896 -11.5q0 0.5 1 0.5q0 -1 -0.5 -1t-0.5 0.5zM900 -10h1v-1h-1h-1zM897 -10q0 1 0.5 1t0.5 -0.5t-1 -0.5zM898 -8q0 1 0.5 1t1.5 -1v-1h-1h-1v1zM878 -6l1 1v-1q0 -1 -1 -1v1zM896 -5.5q0 0.5 0.5 0.5t0.5 -1q-1 0 -1 0.5zM885 -4h1h-0.5h-0.5zM881 -3.5
q0 0.5 1 0.5q0 -1 -0.5 -1t-0.5 0.5zM295 -1.5q0 0.5 0.5 0.5t0.5 -1q-1 0 -1 0.5zM880 -1.5v0.5v-1v0.5zM872 0l-1 1h1v1l1 -1v-1v-1zM297 0q0 1 0.5 1t0.5 -0.5t-1 -0.5zM880 0.5v0.5v-1v0.5zM876 1h1h-0.5h-0.5zM293 2v1h1q1 -1 1 -1.5t-1 -0.5h-1v1zM869 2h1l1 -1h-2h-1
zM315 3q0 1 0.5 1t0.5 -0.5t-1 -0.5zM293 6v-0.5v-0.5v1zM313 8.5q0 0.5 0.5 0.5t0.5 -1q-1 0 -1 0.5zM862 8.5v0.5v-1v0.5zM864 9v1l1 -1q1 0 1 -1zM300 10h1h-1zM868 10h1h-0.5h-0.5zM316 11q1 0 1 -0.5t-0.5 -0.5t-0.5 1zM849 12.5q0 0.5 0.5 0.5t0.5 -1q-1 0 -1 0.5z
M302 13q0 1 0.5 1t0.5 -0.5t-1 -0.5zM312 13.5v0.5v-1v0.5zM307 14.5q0 0.5 0.5 0.5t0.5 -1q-1 0 -1 0.5zM859 14q0 1 0.5 1t0.5 -0.5t-1 -0.5zM862 14.5q0 0.5 0.5 0.5t0.5 -1q-1 0 -1 0.5zM851 15l1 1v-1h1h-1h-1zM299 15.5q0 0.5 1 0.5q0 -1 -0.5 -1t-0.5 0.5zM312 17
v-0.5v-0.5v1zM306 18q0 1 0.5 1t0.5 -0.5t-1 -0.5zM326 18.5q0 0.5 0.5 0.5t0.5 -1q-1 0 -1 0.5zM847 22v1.5t1 -1.5l1 -1l-1 -1zM314 22q0 1 0.5 1t0.5 -0.5t-1 -0.5zM843 22.5v0.5v-1v0.5zM309 24h-1h2h2h-1q0 -1 -2 0zM318 24.5q0 0.5 1 0.5q0 -1 -0.5 -1t-0.5 0.5z
M310 26q0 1 0.5 1t0.5 -0.5t-1 -0.5zM313 26.5q0 0.5 0.5 0.5t0.5 -1q-1 0 -1 0.5zM316 27h1l1 -1h-1h-2zM842 28.5q0 0.5 1 1.5v-1v-1q-1 0 -1 0.5zM323 31v2l1 -1v-3l-1 -1v3zM312 30h1l1 -1h-2h-1zM330 30q1 0 1 -0.5t-0.5 -0.5t-0.5 1zM310 31q1 0 1 -0.5t-0.5 -0.5
t-0.5 1zM318 30.5q0 0.5 1 0.5q0 -1 -0.5 -1t-0.5 0.5zM313 32l-1 1l1 -1q1 0 1 -1zM316 33v1h1h1v-1l-1 -1l-1 -1v2zM839 32v1l1 -1q1 0 1 -0.5t-1 -0.5h-1v1zM342 33v1l1 -1h-1h-1h1zM314 34v1l1 -1v-1h-1h-1zM327 34v1h1h1l-1 -1q0 -1 -0.5 -1t-0.5 1zM836 34l-1 1v1
l1 -1l1 -1l-1 -1v1zM332 35.5q0 0.5 1 0.5q0 -1 -0.5 -1t-0.5 0.5zM318 37l-1 1l1 -1l1 -1q-1 0 -1 1zM830 36v1l1 -1h-1h-1h1zM345 37.5q0 0.5 0.5 0.5t0.5 -1q-1 0 -1 0.5zM828 38h1h-1zM340 40v1h1v-1v-2zM346 40.5q0 0.5 0.5 0.5t0.5 -1q-1 0 -1 0.5zM344 42q0 1 0.5 1
t0.5 -0.5t-1 -0.5zM336 43q0 1 1 1t1 -1h-1h-2h1zM354 43h1h-0.5h-0.5zM350 44.5q0 0.5 1 0.5q0 -1 -0.5 -1t-0.5 0.5zM339 45q0 1 0.5 1t0.5 -0.5t-1 -0.5zM821 46v1l1 -1q2 0 2 -0.5t-2 -0.5h-1v1zM342 46q0 1 0.5 1t0.5 -0.5t-1 -0.5zM815 47h1h-0.5h-0.5zM818 47h1h-1z
M814 48q1 0 1 -0.5t-0.5 -0.5t-0.5 1zM810 50q0 1 0.5 1t0.5 -0.5t-1 -0.5zM807 52v1l1 -1v-1l-1 -1v2zM808 54q1 0 1 -0.5t-0.5 -0.5t-0.5 1zM806 55l-1 1l1 -1h1v1l1 1v-1q0 -1 -1 -2zM801 55.5q0 0.5 0.5 0.5t0.5 -1q-1 0 -1 0.5zM784 56.5q0 0.5 0.5 0.5t0.5 -1
q-1 0 -1 0.5zM358 58q1 0 1 -0.5t-0.5 -0.5t-0.5 1zM370 60q0 1 0.5 1t0.5 -0.5t-1 -0.5zM376 61h1h-1zM378 61.5q0 0.5 1 0.5q0 -1 -0.5 -1t-0.5 0.5zM794 63q1 0 1 -0.5t-0.5 -0.5t-0.5 1zM786 64q0 1 0.5 1t0.5 -0.5t-1 -0.5zM372 68l1 2l-1 -1l-2 -2v2l-1 1l2 1l2 2
l1 -1l1 -1h-1q0 -1 -1 -3l-1 -2v2zM791 68q1 0 1 -0.5t-0.5 -0.5t-0.5 1zM375 68q0 1 0.5 1t0.5 -0.5t-1 -0.5zM778 71v1l1 -1h1l-1 -1l-1 -1v2zM377 71l1 1h1v-1h-2zM785 71v1h1v-1l-1 -1v1zM769 72.5q0 0.5 1 0.5q0 -1 -0.5 -1t-0.5 0.5zM385 73q0 1 0.5 1t0.5 -0.5
t-1 -0.5zM379 74.5q0 0.5 0.5 0.5t0.5 -1q-1 0 -1 0.5zM397 74.5q0 0.5 0.5 0.5t0.5 -1q-1 0 -1 0.5zM775 75l1 1v-1h1h-1h-1zM776 80.5q0 0.5 1 0.5t1 -0.5t-1 -0.5t-1 0.5zM384 81q1 0 1 -0.5t-0.5 -0.5t-0.5 1zM771 81l1 1v-1q0 -1 -1 -1v1zM389 83q-1 1 -0.5 1t1.5 -0.5
t0.5 -1t-1.5 0.5zM392 84.5q0 0.5 0.5 0.5t0.5 -1q-1 0 -1 0.5zM399 84q0 1 0.5 1t0.5 -0.5t-1 -0.5zM757 91l-2 1v1l2 -1h1l1 1l1 2v-1l1 -1l-1 -1l-1 -2zM421 91.5q0 0.5 1 0.5q0 -1 -0.5 -1t-0.5 0.5zM754 93q0 1 0.5 1t0.5 -0.5t-1 -0.5zM419 97h1l1 -1h-2h-1zM407 98v1
l1 -1v-1h-1v1zM424 101.5q0 0.5 0.5 0.5t0.5 -1q-1 0 -1 0.5zM418 103h1v0v-1zM421 103v1l1 -1h-1h-1h1zM745 104v-0.5v-0.5v1zM419 104.5q0 0.5 1 0.5q0 -1 -0.5 -1t-0.5 0.5zM741 105.5q0 0.5 0.5 0.5t0.5 -1q-1 0 -1 0.5zM419 106.5q0 0.5 0.5 0.5t0.5 -1q-1 0 -1 0.5z
M423 107l1 1v-1h1h-1h-2h1zM429 107.5v0.5v-1v0.5zM739 108l1 1v-1h1l-2 -1h-1zM433 108v0v0zM736 108.5q0 0.5 1 0.5q0 -1 -0.5 -1t-0.5 0.5zM434 109.5q0 0.5 1 0.5q0 -1 -0.5 -1t-0.5 0.5zM442 115q0 1 0.5 1t0.5 -0.5t-1 -0.5zM448 115.5q0 0.5 0.5 0.5t0.5 -1
q-1 0 -1 0.5zM724 116q0 1 0.5 1t0.5 -0.5t-1 -0.5zM437 119q0 1 0.5 1t0.5 -0.5t-1 -0.5zM443 122v0v0zM719 124.5q0 0.5 0.5 0.5t0.5 -1q-1 0 -1 0.5zM711 126h1h-1zM445 127l-1 1h1l1 -2q-1 0 -1 1zM451 134q0 1 0.5 1t0.5 -0.5t-1 -0.5zM452 136v1l1 -1h-1h-1h1z
M457 137l-1 1h1l1 -1h-1zM463 138h1v-1h-1h-1zM466 138v-0.5v-0.5v1zM455 140h1h-1zM470 140.5q0 0.5 1 0.5q0 -1 -0.5 -1t-0.5 0.5zM461 142v1h1l1 -1h-1l-1 -1v1zM697 143q1 0 1 -0.5t-0.5 -0.5t-0.5 1zM690 143.5q0 0.5 0.5 0.5t0.5 -1q-1 0 -1 0.5zM465 145v1h1l1 -1
l-1 -1zM470 145h1h-0.5h-0.5zM463 146v1l1 -1v-1h-1h-1zM690 146v1l1 -1v-1h-1h-1zM469 147q0 1 0.5 1t0.5 -0.5t-1 -0.5zM688 147q0 1 0.5 1t0.5 -0.5t-1 -0.5zM685 152.5v0.5v-1v0.5zM481 155.5q0 0.5 1 0.5q0 -1 -0.5 -1t-0.5 0.5zM481 158v1l1 -1q2 -1 0 -1h-2zM482 160
q1 0 1 -0.5t-0.5 -0.5t-0.5 1zM484 160q0 1 1 1t1 -1t-1 -1t-1 1zM672 159.5q0 0.5 1 0.5q0 -1 -0.5 -1t-0.5 0.5zM480 161h1v-1h-1h-1zM494 161v-0.5v-0.5v1zM667 161.5q0 0.5 0.5 0.5t0.5 -1q-1 0 -1 0.5zM664 163q0 1 0.5 1t0.5 -0.5t-1 -0.5zM666 165v-0.5v-0.5v1z
M494 166v-0.5v-0.5v1zM496 167l-1 2h1h1v-2q0 -2 -0.5 -2t-0.5 2zM669 167v1l1 -1q1 0 1 -0.5t-1 -0.5h-1v1zM664 167l1 1l-1 1l-1 1v1h1l1 -1q1 -1 1 -2v-1h-1h-1zM500 171v1l1 -1v-1h-1v1zM502 172l1 1h2l2 -1h-2q-1 -1 -2 -1h-1v1zM654 176v1l1 -1v-1h-1v1zM509 177l1 1
l1 -1h-1h-2h1zM655 178h1h-1zM513 178.5q0 0.5 1 0.5q0 -1 -0.5 -1t-0.5 0.5zM648 178.5q0 0.5 1 0.5q0 -1 -0.5 -1t-0.5 0.5zM513 183v1h2h2v-1v-1h-2h-2v1zM511 186v1h1l1 -1v-1q-1 0 -2 1zM520 192l-2 1h2h2v-1h-2zM526 192h1h-0.5h-0.5zM630 193.5q0 0.5 1 0.5
q0 -1 -0.5 -1t-0.5 0.5zM531 196.5l-1 0.5v1h1h2v-1v-1h-1zM528 196.5q0 0.5 1 0.5q0 -1 -0.5 -1t-0.5 0.5zM538 197q1 0 1 -0.5t-0.5 -0.5t-0.5 1zM627 199q1 0 1 -0.5t-0.5 -0.5t-0.5 1zM537 199.5q0 0.5 0.5 0.5t0.5 -1q-1 0 -1 0.5zM622 203q0 1 0.5 1t0.5 -0.5t-1 -0.5
zM550 204.5q0 0.5 0.5 0.5t0.5 -1q-1 0 -1 0.5zM549 208h1l1 -1h-1h-2zM601 210v1v-1q1 0 1 -0.5t-1 -0.5v1zM568 212v-0.5v-0.5v1zM570 212.5q0 0.5 1 0.5q0 -1 -0.5 -1t-0.5 0.5zM573 215q0 1 0.5 1.5t1 0.5t-0.5 -1zM582 215v2l1 -1l1 -1h-1l-1 -1v1zM585 216q1 0 1 -0.5
t-0.5 -0.5t-0.5 1zM576 218q0 1 1 1t1 -1t-1 -1t-1 1zM564 218.5q0 0.5 0.5 0.5t0.5 -1q-1 0 -1 0.5zM561 222q1 0 1 -0.5t-0.5 -0.5t-0.5 1zM563 222q1 0 1 -0.5t-0.5 -0.5t-0.5 1zM697 315q0 1 0.5 1t0.5 -0.5t-1 -0.5zM468 321q0 1 0.5 1t0.5 -0.5t-1 -0.5zM456 330l1 1
v-1h1h-1h-2h1zM458 330.5q0 0.5 0.5 0.5t0.5 -1q-1 0 -1 0.5zM395 378h1h-1zM345 412.5q0 0.5 1 0.5q0 -1 -0.5 -1t-0.5 0.5zM342 416q1 0 1 -0.5t-0.5 -0.5t-0.5 1zM330 423q0 1 0.5 1t0.5 -0.5t-1 -0.5zM874 442q0 1 0.5 1t0.5 -0.5t-1 -0.5zM289 450v-0.5v-0.5v1z
M893 456q0 1 0.5 1t0.5 -0.5t-1 -0.5zM915 473v1h1v-2zM935 492q1 0 1 -0.5t-0.5 -0.5t-0.5 1zM950 504v1l1 -1h1h-2h-1h1zM964 514v-0.5v-0.5v1zM175 548q-2 2 -7 6q-3 3 -3 4t4 1h4v-1q1 -1 3 -6t1 -6z" />
  </g>

</svg>
