<?xml version="1.0" standalone="no"?>
<!DOCTYPE svg PUBLIC "-//W3C//DTD SVG 1.1//EN" "http://www.w3.org/Graphics/SVG/1.1/DTD/svg11.dtd" >
<svg viewBox="0 -200 1000 1000">
  <g transform="matrix(1 0 0 -1 0 800)">
   <path fill="currentColor"
d="M38 -42h-1v2q0 2 -0.5 24.5t-0.5 23.5v23.5t-0.5 28t-0.5 39.5v41q-1 20 -1 82q-1 38 -1 58q-1 101 0 309v48q1 1 1 0.5t20 -0.5t21 -1h246h250.5t28 -0.5t31.5 -0.5q9 0 26.5 -0.5t28.5 -0.5h31q23 -1 52 -1l23 -1h21h20l20 -1h21q10 0 15 -0.5t19 -0.5h20q5 -1 25 -1
h21v-1v-26.5t0.5 -28t0.5 -17.5v-25l1 -20v-20q1 -57 2 -102q0 -25 0.5 -29t0.5 -26v-36.5t0.5 -50.5t0.5 -39t0.5 -36t0.5 -41t1 -138v-18l-2 -1h-1h-24q-24 -1 -33 -1q-27 0 -34 -1h-13.5h-17.5l-17 -1h-12.5t-19 -0.5t-18 -0.5t-18 -0.5t-16 -0.5h-18.5q-20 -1 -37 -1
q-13 -1 -36 -1h-18q-3 -1 -18.5 -1t-19.5 0.5t-15.5 0t-28 -1t-17.5 -0.5q-3 0 -79 -1q-30 0 -48.5 -0.5t-54.5 -0.5h-72l-4 -1h-19h-57l-40 1v-1q-1 0 -1 -1l-1 -1h-1q-2 0 -23 -0.5t-26.5 -0.5t-25 -0.5l-19.5 -0.5h-20h-19zM620 -22l1 1l3 5l4 6v0.5t1.5 2.5t2.5 3.5
t1.5 2.5t0.5 2q2 1 2 3l1.5 2.5t2 3t0.5 1.5l4 7l1.5 2t2.5 4t2 3.5t1 2t1.5 2.5l1.5 2l2.5 4l2.5 4l5.5 8l7.5 11l5 9q4 5 4 6q3 3 3 5t3 4q1 0 1.5 1.5t12.5 19.5q2 3 2 3.5t3 4.5l6 9q14 23 21 32l3 3q22 26 50 45l4 4q22 17 35 25t14 8t3 2l23 12q5 2 10 5q13 8 35 17
q22 10 27 17l1 2v1q-1 1 -12 -4q-3 -2 -6 -3l-3 -1q-2 -2 -32 -14q-3 -1 -10 -4l-10 -5q-4 -2 -15 -7l-11 -6l-4 -2l-9 -6l-13 -9l-6 -4l-13 -9q-5 -4 -7 -6q-5 -5 -10 -9q-2 -1 -2.5 -1.5l-3.5 -3.5q-5 -4 -21.5 -21t-17.5 -19q-1 -1 -4 -5q-8 -10 -16 -23q-3 -5 -3.5 -6
t-3.5 -6q-8 -14 -15 -23q-2 -2 -2 -2.5t-1 -2t-1 -2t-0.5 -0.5t-2.5 -3l-6 -9l-5 -7.5t-1 -2t-0.5 -0.5t-1.5 -1l-2 -4q-2 -2 -3 -4.5t-1.5 -2.5t-0.5 -0.5t-2 -3l-2 -2.5l-0.5 -1t-1 -1.5t-1.5 -2.5t-1.5 -2.5t-0.5 -1t-0.5 -1t-3 -5t-2.5 -5.5h-1v-1h1l-1 -1q-1 0 -2 -3
l-3 -5q-3 -2 -3 -5v-1v0l-1 -2q-1 -3 -3 -6.5t-2 -4t-1 -1.5l-1 -2h1v-1l-1 -1h-1l1 -1v-1l-1 -1h1l-2 -1l-1 -2v-1h-1q-2 -2 -2 -4v0h-1v-1h1l-1 -1q-1 0 -1 -0.5t-1 -0.5l-1 -1l-2 -2q-2 -3 0 -5zM610 -17h-1v1l1 1h-1v1v1v3q-1 2 -1 5q-1 5 -2 12v4.5t-0.5 4t-0.5 5.5
t-0.5 5.5t-0.5 5.5q0 5 -2 18q-1 5 -1 7t-0.5 2.5t-1.5 5.5q-2 15 -3 18l-1 1h1v1h-1v1l-1 2q-1 1 -1 2v1v0v0l-1 2q-1 1 -1 1.5t-1 3t-1 3t-2 4.5q-1 1 -2 4l-1 4v4v5v3l2 6l1 3l2 4q3 5 3.5 5.5t1 2t1.5 1.5q1 1 3 4.5t3 6l1 2.5h-3h-8.5h-10.5q-22 0 -24 1h-37.5h-47.5
q-8 -1 -38 -1h-35t-13.5 -0.5t-9 -0.5t-7.5 -1q-12 0 -23 -1h-8q-6 -1 -8 -1q-3 0 -6.5 -0.5t-5.5 -0.5q-18 -1 -20 -2h-5q-17 -1 -29 0h-6l-5 -1q-6 0 -14 -1q-3 -1 -5 -1t-4 -1h-3h-6h-7q-1 -1 -0.5 -1.5t2.5 -0.5l2 -1h5q5 -1 10 -1l6 -1l6 1q5 0 7 0.5t13.5 1t18.5 1.5
q13 1 35 2q23 1 36 1q9 1 22 1q46 0 50 1q3 1 30 2h8.5h22.5h21h12q11 0 15 -0.5t8.5 -0.5t18.5 -1q13 -1 19 -1h7v-1v-1l-1 -2q-3 -5 -5 -7l-7 -14v-2l-1 -3v-4l1 -2l1.5 -3t0.5 -1.5t2 -4.5t3 -10q0 -2 1 -7t1 -6t1 -5q2 -5 3 -10q1 -2 2 -9q1 -9 2 -16q1 -2 1 -4l1 -8
q1 -6 2 -10t2 -6q1 -7 3 -14q2 -5 3 -9q1 -1 1 -2q1 -1 2 -5q1 -1 1.5 -2.5l0.5 -1.5h1v-1v-1v1v1v1zM619 1l2 5l2 7q2 3 2.5 3.5t0.5 1.5l4 9l2 6q0 1 2 5l4 7l9 18q1 1 2 2.5t1.5 2.5t3.5 6q4 6 10 16l2 3l12 18l5 7l0.5 1t3.5 5l8 10l6 8q11 13 29 31q30 32 47 48l17 14
l6 5l6 4q6 3 6.5 3.5t2.5 1.5q4 3 11 6q6 4 23 11q20 9 40 17q4 2 5 2t4.5 1.5t5.5 2.5q5 2 8 3t4 2q4 2 11 5q3 1 5 2l2 1v1l-1 2q-1 1 -1.5 1t-0.5 0.5t-3 1.5l-2 2l-5 3q-6 2 -7.5 3t-2.5 1.5l-9 4.5l-16 8l-38 19q-11 6 -12.5 7t-2 1t-1.5 1t-4 2q-6 4 -9 5l-8 5l-7 4
l-7 5q-1 0 -4 2l-4 2l-8 5q-8 5 -9 6l-9 4l-6 4l-0.5 0.5t-2.5 1.5l-24 15q-22 15 -38 34l-5 5q-6 7 -21 26l-3 4l-17 23l-9 12q-1 2 -7 11l-11 15q-1 2 -5 7t-4 5.5t-3 4.5l-3 4h-1l-1 1l-1 -1l-1 -2q-2 -9 6 -44q2 -11 7 -28q4 -16 9 -39q1 -1 2 -8l1 -6v-4v-5v-3
q-1 -5 -4 -12l-1 -2l-4 -3q-10 -10 -19 -11q-5 -1 -5.5 -1h-3.5q-4 -1 -11 -1q-5 0 -5 -1h-18h-21q-18 1 -26 2q-2 0 -5.5 0.5t-5.5 0.5q-4 0 -13 1h-8q-10 2 -33 2t-53 1h-13q-32 1 -39 2h-10q-14 1 -22 2q-7 1 -10.5 1t-5 0.5t-3.5 0.5q-16 1 -25 3q-16 4 -42 14
q-9 4 -10 4h-1l-1 -1v-1v-2q1 -2 1.5 -5t1.5 -7q7 -32 29 -59l4 -5l2 -3l11 -11q19 -19 29 -26l4 -3l5 -2q5 -2 6 -2.5t2 -1.5l16 -6l6 -1l5 -1l5 -1h2h2v-1q0 -1 -17 -5q-4 -1 -12 -6q-10 -6 -12.5 -8.5t-7.5 -13.5l-3 -6q-1 -4 -3 -7l-1 -4v-3l-1 -4v-12q-1 -12 -1 -19v-7
l-2 -6q-4 -12 -4 -14q-2 -4 -7 -8l-6 -5l-3 -4q0 -1 4 -1q11 0 33 2q7 1 13 1q29 2 49 3h12q4 1 19 1h26q11 1 39 1h38h38h31h12q17 -1 28 -2q10 -1 18 -1h5l6 -2l7 -1h1v-1h-1q-4 -1 -10 -2h-3l-1 -1q-3 -1 -4 -3h-1q-5 -3 -10 -8l-3 -3l-1 -2q-4 -8 -4 -9l-1 -1
q-1 -3 -2 -10v-2q-1 -1 2 -8l3 -9l4 -11q5 -13 8 -38l1 -5v-12q1 -12 1 -15t0.5 -8.5t0.5 -8.5q1 -3 1 -8v-2q1 0 2 4z" />
  </g>

</svg>
