<?xml version="1.0" standalone="no"?>
<!DOCTYPE svg PUBLIC "-//W3C//DTD SVG 1.1//EN" "http://www.w3.org/Graphics/SVG/1.1/DTD/svg11.dtd" >
<svg viewBox="0 -200 2441 1000">
  <g transform="matrix(1 0 0 -1 0 800)">
   <path fill="currentColor"
d="M2058 -124q-3 6 -3 17v3h2q7 -2 34 -3h14l1 3q1 2 2 11q1 11 3 28l1 11v46v45l-1 1q-3 2 -7 -3q-3 -5 -4 -5h-1l-4 4l-3 4l2 4q6 10 10 14q2 2 2 2.5t2 3.5l3 3h11h15l2 -1l1 -4q0 -3 -0.5 -13t-1.5 -37q-1 -47 -6 -90q-2 -13 -2 -16v-4l2 -2l2 -2h13q44 -1 50 3
q1 0 11 -1l10 -1q1 -1 1 -8l1 -7l-3 -1q-2 -1 -34 -1q-36 -1 -79 -4q-14 -1 -22 -1q-9 -1 -16 -1l-7 -1zM181 114q-3 2 -5 5q-1 1 -2.5 3t-2.5 3q-2 3 -4 5q-23 28 -35 50q-5 9 -5.5 9t-0.5 1q0 5 -12 24q-8 15 -7 64l1 4l1 -2v-1v4v5h1q2 1 2 2.5t1 2t0 1.5t0.5 3.5t2 4.5
t2.5 4l1 2h-1l-1 1l1 2q2 3 2.5 3.5t1 4.5t1 4.5t1.5 3.5l2 2l-1 1l-1 2l1 -1l1 -1v3v3l2 2l2 1v4v3l1 1h2v3v3l1 1h2v2q0 2 0.5 2.5t1 2.5t1.5 3t1 3v3l1 2q7 6 5 9q-1 1 2 4.5t2 4t1 2t1.5 2.5t2.5 5.5t3 6t3 5t3 5t0.5 1.5t3 5.5t3.5 8.5l2 3l16 37q0 4 1 7l1 2l2 1v1
q1 1 2.5 1t1.5 2l3 9v1l2 2q3 3 3 4.5t1.5 3.5t2.5 4v1l3 6l3 1v3l4 8q0 1 1 2t2 2.5t2 2.5q1 2 2 5q6 7 6 10q0 1 0.5 1t1.5 3t2 4l10 14l3 7l1 1l1 2l2 4l4 3l10 9l2 3l2 1q1 1 3 2q0 1 1 1t3.5 3t5.5 5t3 3t1.5 1.5t3.5 4.5q6 9 8 7l2 2q2 3 4 4.5t7.5 6.5t6.5 5t1 1.5
t5 6.5l12 11q7 7 8 7t1 1q1 2 3.5 3.5t6.5 5.5l8 7q4 4 6 6.5t3.5 2.5t1.5 1t0.5 1t10.5 10l17 16l8 8l1 2l2 -2q6 -2 -2 -14l-7 -11q-1 -2 -3.5 -5t-2.5 -4q-2 0 -4 -2.5t-3 -3.5q-6 -4 -19 -17q-5 -6 -6.5 -6t-2 -1.5t-6.5 -8.5q-22 -22 -22 -23t-3 -3l-3 -3h-1l-2 -2
q-1 -3 -1 -4t-1 -1t-7.5 -6.5t-6.5 -7t-5.5 -6t-8 -9t-3.5 -5.5q-5 -5 -11 -14l-5 -5l-1 -2q1 0 -1.5 -3t-2.5 -4t-2.5 -3.5t-2 -3t-1 -2t-1.5 -3t-1 -1.5t-3 -3t-4 -5.5t-1 -2.5l-0.5 -1l-1.5 -3t-3 -4q-5 -9 -5 -10t-2.5 -4t-3 -5.5t-1 -3.5t-0.5 -3t-2 -2q-5 -3 -4 -8
q1 -1 -1 -4t-3 -3t0 -1l1 -1l-2 -2q-2 -3 -3.5 -7.5t-2.5 -5t-1 -2t-1.5 -3t-1.5 -3.5t-1 -2t-5 -10q-2 -3 -2.5 -5t-0.5 -3.5t-2 -4.5l-2 -2l1 -2l1 -2l-1 -3l-2 -5l-1 -3v-5l1 -11v-1l3 1q5 1 14 9l7 5.5t3 2.5t2 1h1l1 3l1 1l1 -1l1 2q1 1 1.5 0.5t2 1t2.5 1.5h2l-1 2v1
h2h2l-1 1v1h1l2 -1v2l1 1l2 -1l1 3l2 2h2h2v2l1 1l2 -1v2l1 1l2 -1l3 3q1 1 2 1h1l7 5l3 1l3 1l7 1h4l1 2h6h3l4 1q4 1 10 1t8 1h2h1v-1h6l6 1l1 -1l1 -1v1l3 1l1 -2l1 2h2v-1l8 -1l12 -1.5t6 -0.5t8 -2l9 -2l1 -2v1q1 0 3 -1q8 -4 10 -4q1 0 3 -2l3 -2h2q3 0 4 -1
q2 -1 8.5 -4t8.5 -3t2 -0.5t7 -4.5t8 -4t2.5 -1.5t2.5 -1t4.5 -2t3.5 -1.5l1 -1q2 -2 8.5 -7t7 -5.5t8.5 -9.5l13 -15l6 -7l1 -3q2 -10 4 -18l1 -3h2q2 0 3 1l2 2l-2 1h-1h1q1 0 5 7t5 9.5t1.5 2.5t2.5 5l4 7q1 2 3.5 6t2.5 5t4 7t5 8.5t4 5t3 4t1 2.5h2l2 5q2 4 3 5t7 9.5
t6 9t3.5 4l3.5 3.5q0 2 8 11q2 2 2 3t2 3t2 2.5t3 4.5t4 5q3 6 23 31q2 2 6 8l11 15q5 6 6 6.5t1 1t2.5 4t14.5 18.5l20 24q8 9 8 9.5t3 4t6 7.5t10 11q11 12 23 27q6 7 9 9l2 1v-3q-1 -3 -2.5 -5t-1.5 -4t-9 -19l-8 -17l-1 1l-1 1l1 -1l1 -2l-4 -6q-3 -7 -3 -8t-3 -3
q-6 -4 -17 -18q-6 -6 -10 -11q-8 -8 -8 -10q0 -1 -1 -1t-4 -4l-11 -14q-1 -1 -1 -2t-2.5 -3t-8.5 -11l-7 -8v-3v-3l-6 -7l-7 -7l-2 -5q-3 -5 -3 -6q-1 0 -10 -17q-5 -9 -5 -11q-2 -2 -5 -11q-6 -12 -7 -23q0 -3 -1 -4t-1 -3t-3 -11l-3 -12l-1 -4l1 -2l1 -3l3 1q3 0 6.5 3
t4.5 3t5 3q27 19 63 25l7 1h14q50 1 92 -17q2 -2 6 -3t7 -2l12 -4l10 -3q1 -1 2 -1q6 -2 13 -5q5 -2 8 -2q5 -1 16 -7.5t16 -12.5q31 -32 40 -92q2 -16 3 -17l1 -1l1 2l1 8q2 6 4.5 20t3 18t2.5 12t3.5 12.5t1.5 6.5q0 4 11 37l7 18q3 10 6 17q13 27 13 31q0 1 6 13l11 23
q7 15 10 15q1 0 10.5 9l12.5 12q18 14 30 21l5 3l-6 -7q-6 -6 -10 -11.5t-5 -6.5t-9 -13q-1 -2 -2 -3t-6.5 -12t-6.5 -13.5t-1 -4.5t-1 -3t-5 -12t-4 -13q-5 -11 -6 -17q-1 -3 -2.5 -6t-1.5 -5.5t-1 -3.5q-3 -5 -6 -26q-2 -8 -2 -15l1 -3l1 1q1 0 15 13q33 33 53 41
q3 1 5 2.5t6 2.5l4 1h7q30 -2 58 -27l6 -6l8 -13q15 -23 22 -28l5 -3l3 -1h3l1 4l2 4l2 14q3 25 5 29q1 1 1 3q1 9 8 26q2 3 2 5t1 4t2 5.5t2 6.5l3 6q11 31 19 42q2 2 2 3t0.5 1.5t3.5 5.5q10 14 14 18q6 5 20 12.5t16 6.5l1 -1l-2 -1q-1 -2 -6 -7t-4 -5t-2 -3
q-16 -22 -16 -24q0 -1 -3 -5.5t-4 -6.5t-4 -7t-4 -9t-5 -17q-12 -36 -16 -59q0 -2 -2 -8q-1 -6 -2 -10q-1 -3 -1.5 -7t-0.5 -10v-5l1 -1q2 -3 22 14q2 2 7 5.5t7 5.5q15 14 52 24l5 1h11h11l8 -1q33 -7 54 -24q16 -13 21.5 -21t10.5 -26l3 -12l3 -14l2 -15l-1 -13
q0 -13 -1 -22l-2 -9l-2 -4q-2 -4 -8 -12l-7 -9q-17 -21 -25 -27q-2 -1 -4 -3q-7 -7 -21 -15q-22 -12 -38 -15q-11 -1 -26 -3l-14 -2l-12 1h-12l-9 4q-18 7 -31 21l-7 8l-4 7q-14 24 -22 36q-2 3 -6.5 11t-5.5 9v1h-3l-2 -1l-9 -7q-8 -8 -8.5 -9t-3 -3.5t-6 -7t-5.5 -6.5
t-3.5 -5t-4.5 -6.5t-3 -4t-9 -11.5l-8 -10l-11 -10q-14 -14 -15 -14l-5 -3q-15 -11 -33 -13q-2 0 -5 -1t-7.5 -1.5l-13.5 -1.5l-10 -1l-8 1h-8l-4 2q-21 8 -32 18q-2 2 -10 8.5t-10 8.5l-5 6q-3 3 -7 8.5t-5 5.5h-1l-2 -8l-3 -8l-6 -13l-7 -13l-10 -16q-11 -16 -12 -17
q-6 -12 -22 -25q-4 -2 -8 -7q-5 -5 -25 -18q-13 -9 -37 -20q-5 -2 -6.5 -3t-3 -1t-4.5 -1q-15 -7 -21 -7q-2 0 -6 -1q-6 -3 -32 -3t-29 2q-1 0 -7 1q-13 1 -43 9.5t-44 14.5q-7 3 -13.5 5.5t-10.5 5t-10 5.5t-11.5 7.5t-8.5 6.5q-22 16 -43 44q-11 16 -14 26l-5 17
q-3 10 -6 28q-1 8 -2 9h-1l-2 -4q-2 -4 -5 -13q-8 -22 -12 -30l-2 -5h-1q-1 0 -1 -1.5t-1.5 -2t-2.5 -2.5t-3 -4.5l-8.5 -10.5t-7.5 -8t-4 -3q-9 -9 -10 -9t-4 -3q-18 -18 -22 -18q-1 0 -6 -4t-5 -5t-2 -1t-4 -2q-9 -6 -15 -6q-3 0 -3.5 -0.5t-4.5 -1t-5 -1.5q-4 -3 -49 -2
t-57 5q-2 0 -11.5 2t-12.5 3l-4 2l-4 -1h-3l1 1h-2l-1 -1v2v1h-3l-3 -1l-1 2l-2 2h-2h-3zM300 146q2 0 4 2l3 2v1q0 2 1.5 2.5t2 3t1.5 2.5v2l1 3l-3 7q0 1 -1 1.5t-1 1.5v1l-3 2l-3 3l-7 1l-5 -1v-1q-1 -1 -2.5 -1t-4 -2t-2.5 -3t-2 -2l-2 -2v-4v-3l2 -7l1 -3q1 -3 2 -2
q1 -2 3 -2t2 -0.5t5 -0.5l3 -1h5zM702 153q5 2 9 3q7 2 7 6q0 1 2 4q7 8 3 28l-2 9l-2 2q-3 2 -17 9t-16 7q-11 0 -32 -13l-4 -2l1 -4q2 -11 13 -31q6 -11 11 -14q14 -6 27 -4zM1318 201l3 1l2 4q2 5 4 13l3 8l-1 7v6l-2 3q-3 2 -7 3l-3 2l-12 -1l-11 -1l-1 -1q-2 -3 -5 -14
t-3 -13v-2l5 -5q11 -10 18 -10q3 0 5 -1t5 1zM1056 217l5 4l-1 11l-1 10l-4 7l-4 7h-6q-9 0 -19.5 -3t-11.5 -6q-2 -5 6 -21l3 -7l3 -2q4 -2 16 -5l6 -1h2zM2136 101h-2v4q0 16 3 32q2 10 -2 13l-3 1l-11 2l-23 4l-12 2l1 7q0 7 2 12l1 5h3q4 -1 13.5 -2t18.5 -1l8 -1l2 2
q3 4 4 27q0 5 1 5.5t10 1.5h9v-20l-1 -19l3 -2l2 -2h5q5 0 19 -2l14 -2v-1q0 -2 -2 -19l-1 -5l-1 1q-2 0 -18 2l-15 1l-2 -1q-2 -1 -3 -3q0 -7 -1 -21q0 -13 -1 -17l-1 -5l-8 1h-12zM1565 158q-31 7 -51 20l-9 6l-11 11l-11 11l-4 7l-3 8l-2 7l-1 7l1 20v20l3 13q4 25 15 64
q3 9 3.5 11.5t1 3.5t2.5 6q10 30 14 38q1 1 2.5 5.5t6.5 15.5t6 14.5t7 14.5l11 20q5 9 7 12q12 16 12 17l1 2l6 7l6 9q2 2 6 9q5 7 19 24l1 2l1 -2q0 -1 -6 -11q-12 -20 -21 -43q-6 -15 -6 -16t-6 -11l-11 -25l-5 -11q-3 -7 -5 -14q-3 -5 -3.5 -7t-3.5 -9t-3 -9
q-5 -9 -8.5 -28t-2.5 -24l1 -3h1q1 0 5 5q11 17 30.5 37t31.5 28l4 3h17l18 1l11 -2l11 -1l6 -3q13 -7 22 -17.5t19 -32.5l2 -4l2 -1l3 -1l1 -6q1 -6 0 -20v-14l1 -2q1 -3 1.5 -3t4.5 6t4 7t10 16.5t12.5 20t4.5 6.5l2 3l2 10q12 58 29 87q4 6 4 6.5t1 0.5t1 1t4.5 9t5.5 9
q6 14 20 29q4 4 12 14l7 10l14 13q23 23 22 19q-1 -1 -3 -4l-6 -9l-9 -12q-17 -25 -17 -26t-2.5 -4t-2.5 -4t-20 -32q-5 -8 -13 -24q-8 -15 -9.5 -17.5t-1.5 -3.5t-1 -2q-2 0 -12 -22q-6 -12 -12 -31l-4 -12l1 -3q1 -5 7 0l2 2l9 7q35 30 59 36l6 2h10q24 1 46.5 -10
t34.5 -28l6 -9l4 -11q5 -10 5 -11q0 -6 5 -16l1 -2l1 1q0 1 3 6q28 53 59 76l14 12q13 11 14 10t-3 -3q-10 -9 -28 -33t-27 -41q-6 -13 -6 -18l1 -2h1l2 -1l8 5l8 4l19 7q22 7 29 5l4 -2l6 -4q11 -11 22 -26q5 -8 8 -12l3 -4h2h1l3 6q2 5 3 8.5t1.5 4.5t2.5 6q4 11 8 16
q2 2 2 3q0 3 18.5 21t22.5 18h1l-1 -1q-1 -1 -9.5 -8t-10 -9.5t-4.5 -5.5q-18 -19 -22 -47q-1 -9 -1 -9.5t1 -2.5l1 -2l1 1q2 0 10 11l8 12l3 2q3 1 9 4l6 3l11 1l12 1l10 -3q26 -5 37.5 -20t11.5 -44v-3l-11 -10q-10 -10 -12 -14l-3 -3l-4 -2q-4 -2 -9 -4q-22 -11 -35 -11
h-7l-8 1q-9 1 -14 4l-6 2l-5 5q-4 4 -10.5 12t-6.5 9.5t-3.5 5t-5 3.5t-7.5 -6q-22 -29 -34 -37q-3 -2 -6 -4.5t-6 -4.5l-2 -1l-8 -1q-8 -1 -14 -1h-6l-9 2q-8 3 -23 10l-15 8l-4 4q-4 4 -8 9q-5 6 -8 2q-9 -17 -10 -18q-3 -2 -3 -6t-13.5 -15t-21.5 -14l-12 -5t-8.5 -3
t-4.5 -1.5t-9 -2.5l-8 -1l-11 2l-11 2l-12 4q-20 6 -36 17l-5 3l-6 8q-20 24 -20 30q0 1 -4 8.5t-5 7.5l-2 1l-2 -1q-7 -3 -20 -19q-7 -8 -7.5 -8.5t-0.5 -2t-1.5 -2t-6 -6t-5 -6t-5 -6t-5.5 -6.5l-7 -8q-14 -17 -23 -23q-8 -6 -9.5 -7.5t-2.5 -1.5t-3 -1q-3 -4 -11 -8
q-7 -3 -7 -4q-2 -2 -15 -6l-9 -3h-12l-13 -1zM1589 211l4 1l2 4q9 14 12 24l1 4l-2 5q-3 5 -7 11l-5 6l-3 3l-4 2l-3 -1q-3 -1 -5 -1h-3l-3 -3q-9 -10 -13 -18l-2 -4l1 -8v-7l2 -4q3 -6 13 -13l5 -4l3 1q3 1 7 2zM1843 252q4 3 4 12q-1 21 -11 28l-2 1h-7h-6l-5 -4l-5 -4
l-1 -3l-1 -4v-5q1 -11 4 -17l2 -4h2q6 -2 17 -3h6zM2176 272q5 3 9 7l4 3l-1 10v10l-2 3l-1 3h-5q-11 -1 -27 -9l-7 -3v-5q1 -5 3 -9l1 -5l5 -2q13 -7 21 -3zM2021 276q10 1 14 6l2 2l1 7q1 6 2 11v5l-5 3q-4 3 -9 6l-5 2l-9 -2l-9 -2l-1 -4l-2 -3l1 -8v-8l3 -6q4 -6 6 -8
l2 -3l1 1q2 1 8 1zM2230 219l-2 1l9 3l9 4l1 2l1 1l-4 4q-4 4 -8 7l-4 3l-1 6q-1 6 -1 8v2l3 4l3 3h3q3 0 10 -3l7 -3l5 -4l4 -5l-1 -4q-2 -18 -12 -23q-4 -1 -10 -4q-8 -4 -12 -2zM2363.5 260.5q-8.5 2.5 -9.5 4t-6 11t-6 13.5l-1 4h-2h-3l-5 -8q-5 -7 -11 -12l-5 -6l-7 -2
l-7 -3l-6 2q-14 3 -22 10l-4 5l-2 4q-1 5 -2 9l-1 4l2 5q6 18 16 34q4 5 11 22q6 12 15 25t12 13q2 0 -5 -10q-17 -25 -20 -33l-1 -4v-2l1 -3h1q2 0 7 3l6 3l5 -2q9 -4 19 -9.5t16 -10.5l4 -5l5 3q4 2 8 6q9 9 13 9l-4 -5q-6 -5 -5 -7t9 -3l6 -1l5 -2q8 -4 14 -11l4 -3l1 -5
q2 -5 2 -11v-6l-9 -9q-9 -10 -16 -14q-2 -1 -5 -3l-3 -3l-3 1q-3 0 -11.5 2.5zM2378 289l1 2l-1 5l-2 5l-1 1q-2 1 -5 1h-3l-1 -1q-4 -14 7 -15h4zM2306 295l3 4v4l1 4l-2 2l-2 2l-6 -1q-6 -1 -7 -2l-2 -1l-1 -4l-1 -4l1 -3q4 -5 11 -6h2zM2438 710q-1 2 -0.5 2t1.5 -1l2 -2
h-1q-1 -1 -2 1z" />
  </g>

</svg>
