<?xml version="1.0" standalone="no"?>
<!DOCTYPE svg PUBLIC "-//W3C//DTD SVG 1.1//EN" "http://www.w3.org/Graphics/SVG/1.1/DTD/svg11.dtd" >
<svg viewBox="0 -200 1000 1000">
  <g transform="matrix(1 0 0 -1 0 800)">
   <path fill="currentColor"
d="M538 738q5 0 45 -10q7 -2 10 -2q3 -1 5 -2h2l-1 -5q-1 -20 -3 -40v-7.5v-4.5q-1 -6 -2 -25q0 -5 -1 -9v-7q-1 -23 -2 -29q-1 -4 -0.5 -8t0 -7t-1 -12t1.5 -11q5 -8 14 -14q2 -1 3 -5q2 -9 -1 -18q-1 -4 -6 -9q-3 -2 -3 -3.5t-0.5 -2t0 -1.5t0 -2t0 -1.5t0.5 -6t-0.5 -6
t-1.5 -0.5t-2 -1.5t-2 -1.5q-4 -2 -4 -6t7 -9l8 -8q4 -4 6.5 -5.5t3.5 -3.5q5 -7 7 -13q2 -12 -2 -32q-1 -7 -3 -8q-12 -6 -18 -13q-2 -3 2 -5q2 -1 2.5 -2t4.5 -5q10 -10 16 -23q5 -12 10 -34q2 -12 2 -26q0 -13 -7 -28q-2 -2 -7 -9.5t-6 -7.5t-3 -2.5t-7 -7t-5.5 -6
t3.5 -6.5q8 -12 13 -21q2 -5 5 -21q1 -7 2 -21q0 -20 -9 -52q-5 -18 -9 -23q-1 -1 -1 -2q0 -2 -18 -26q-23 -31 -44 -45q-12 -8 -44 -16q-11 -3 -31 -5q-15 -1 -16 -1q-2 -2 -14 -72l-3 -18q0 -3 -5 -2l-7 1l-12 3q-9 2 -11 3q-4 0 -4.5 1.5t0.5 8.5q1 5 3 17l4 26
q2 15 4 24q1 10 0.5 11.5t-2 2t-4 1.5t-7.5 2q-10 4 -14 6q-13 8 -29 26q-6 6 -8 12q-4 11 -5 24q0 7 1 10q1 6 7 19q4 8 4 10q3 6 15 17q5 5 12 10q16 14 26 18q7 4 23 9q7 3 7.5 3.5t2.5 10.5t2 13q0 1 -0.5 1.5t-5.5 1.5q-7 1 -29 7q-10 3 -19.5 7.5t-21 16t-15.5 20.5
q-5 9 -7 19q-2 7 -1 12q2 6 10 13q8 9 29 18q8 4 23 6q27 5 51 3q3 -1 4 0t4 21l8 51q1 2 -0.5 3t-6.5 1l-15 2q-27 4 -36 9l-3 1q-3 0 -13 8q-19 14 -19 20q0 1 2 2q4 4 15 6l7 2q16 3 28 2q17 -1 41 -5q8 -2 9 -1t3 7q1 6 3 14q8 36 8 38.5t-9 3.5q-5 1 -9.5 2.5t-5.5 1.5
t-6 2.5t-6 3.5t0 2.5t0.5 2t0.5 0.5t2 0.5t1.5 -0.5t1 -0.5t2 0t3 -0.5t3 -0.5t6 -0.5t6 -0.5t4.5 0t6 0.5q4 -1 5 0.5t3 11.5q2 11 -1 13q-9 5 -15 15q-1 2 -1 4q3 5 10 9q6 4 14 5q3 1 4 2q4 5 13 49q3 19 3 20t-2 5q-5 10 3 17q3 2 3 3q2 8 7 56q1 14 3 14zM550 687
q-1 0 -2 -0.5t-0.5 -2t1.5 -1.5t1.5 2t-0.5 2zM551 473q-1 0 -3 -8q0 -2 -1 -5q-1 -2 -5.5 -19t-4.5 -20q0 -2 3 -3t5 -1.5t5.5 -1.5t8 1t4.5 3t2 1q4 0 8 3q2 2 1 4q0 2 2 4q2 0 1.5 1t-1.5 1t-1 -1q-2 -1 -2 0v3q0 6 -2 6l-0.5 -1.5t-1.5 -0.5q-1 0 0 2q0 1 -4 2
q-1 0 -1 -1l-5 6l-1 1.5t-1 2.5t-2 2.5t-1.5 3.5t0 2t-0.5 2.5t0.5 3.5t0 2.5t-1.5 2t-1 1.5v1zM451 432h-3l-8 -2q-10 -1 -12 -5q-3 -4 0 -6l3 -3q7 -3 28 -6q10 -1 10.5 0t2 8t1.5 8q-1 2 -9 4q-9 2 -13 2zM530 384h-1q-2 -2 -10 -42q-5 -25 -7 -31v-4v-3l8 -4
q13 -6 21 -12l6 -3q7 -4 11 -8q2 -2 4.5 -4t4.5 -1q4 2 5 6q9 17 17 40q4 11 4 21q0 6 -2 9q-5 9 -8 9q-1 0 -2 1t-2 1t-3.5 1.5t-3.5 2t-2.5 3.5t-2.5 3q-3 3 -3 5q1 0 -0.5 1.5t-2 3t-3.5 2.5t-10.5 1.5t-12.5 1.5h-5zM435 304q-20 0 -44 -11q-17 -7 -19 -19q-1 -5 1 -16
q2 -8 7 -13q5 -6 18 -8q40 -9 43 -5q1 0 3 18q1 8 2 15q2 6 2 9q0 4 2 13q2 13 1 14q-3 2 -16 3zM508 285q-1 0 -2 -5q-9 -42 -9 -45v-2h2q15 1 30 7q5 2 12.5 7.5t7.5 7.5q0 1 -3 4q-14 15 -32 24q-5 2 -6 2zM576 219l-4 -2l-6 -3q-2 -2 -4 -3t-5 -3l-8 -4q-10 -6 -18 -8
q-12 -5 -20 -6q-3 0 -12.5 -0.5t-10.5 -1.5t-2 -6t-1 -6t12 -1q16 -1 39 -3q9 -1 12 -3l5 -4l-7 1q-20 3 -39 3q-20 0 -23 -2q-1 0 -2 -5l-2 -9q-2 -10 -11 -58l-11 -58q-3 -12 -2.5 -14t2.5 -2q7 -1 25 7l9 4q55 24 74 52q7 10 10 18q4 13 10 39q4 19 4 33q0 11 -1 17
q-2 9 -5 16q-6 12 -8 12zM429 154q-5 0 -21 -9q-22 -12 -29 -23q-9 -15 -13 -34q-1 -10 1 -20q3 -15 17 -25q25 -17 27 -13q0 1 2 9l3 20q2 11 3 18q1 6 2 18l4 22q1 11 3 22q2 14 1 15z" />
  </g>

</svg>
