<?xml version="1.0" standalone="no"?>
<!DOCTYPE svg PUBLIC "-//W3C//DTD SVG 1.1//EN" "http://www.w3.org/Graphics/SVG/1.1/DTD/svg11.dtd" >
<svg viewBox="0 -200 1000 1000">
  <g transform="matrix(1 0 0 -1 0 800)">
   <path fill="currentColor"
d="M141 757q-24 -22 -38 -73q-4 -13 -4.5 -15.5t-2 -8.5t-2 -9t-1 -5.5t-1 -6.5t-0.5 -6q-1 -4 -3 -13q0 -5 -0.5 -7t-1 -8.5t-1 -9t-1 -11.5t-1 -12.5t-1 -22t1.5 -23.5l5 -10l5 -12q3 -6 3 -6.5t4 -9.5l5 -12l9 -18l8 -18l12 -28l13 -29l5 -11l5 -11q3 -6 3 -6.5t3.5 -8
t3.5 -8t-9 -14.5t-10 -14l-1 -1q1 0 -3 -5t-23.5 -35t-20.5 -30v-1q1 0 -0.5 -0.5t-12.5 -17.5l-23 -35l-22 -33q-11 -15 -11 -14l-1 -1q0 -2 -16 -26l-16 -24l34 -43q34 -44 35 -43.5t82 141.5l81 141l11 -11q19 -20 42 -31q24 -12 47 -16h5q3 -2 29 -2q29 0 32 1
q1 1 6 1.5t9.5 1.5t6.5 1q14 3 36 10q82 29 99 72q9 22 5 44l-1 6q-6 29 -30 67q-18 29 -24 35q-1 2 -5 8q-19 24 -22 27q-1 1 -6 6.5t-6 7.5l-5 6l-13 16l-17 18l-20 22l-14 15l-15 15l-16 18l-16 17l-18 19l-17 18l-16 17q-29 31 -42 42q-35 31 -64 38q-2 0 -10.5 0.5
t-11.5 -0.5q-16 -2 -30 -15zM256.5 577.5q3.5 -0.5 4.5 -1t4 -0.5q5 -1 37 -8.5l32 -7.5q4 -4 83 -112l10 -15l32 -43q27 -37 27 -37.5t-4 -1.5t-4 -2t-1 -1t-12.5 -5.5t-12 -6t-1 -0.5t-11.5 -5t-11.5 -6t-1.5 -0.5t-1 -0.5t-1 -1t-11 -4.5t-10.5 -5.5t-1.5 -0.5t-1 -0.5
t-1 -1t-12.5 -5.5l-11.5 -5.5l-1 -1q0 1 -6 -2t-6.5 -3.5t-8 -4t-8.5 -3.5t-4 4l-25 33l-25 33q-14 19 -17 22q-1 1 -3 4.5t-3 4.5t-20 27l-22 29q-3 3 -5 6l-9 12q-7 9 -7 10t-0.5 1.5t-1 9t-1 10.5t-1 9.5t-1 9.5t-1 9t-1 9.5t-1 9.5t-1 9t-1 9.5t-1 9.5t-1 9t-1 11t1 4
t30 -6.5t32 -7z" />
  </g>

</svg>
