<?xml version="1.0" standalone="no"?>
<!DOCTYPE svg PUBLIC "-//W3C//DTD SVG 1.1//EN" "http://www.w3.org/Graphics/SVG/1.1/DTD/svg11.dtd" >
<svg viewBox="0 -200 1000 1000">
  <g transform="matrix(1 0 0 -1 0 800)">
   <path fill="currentColor"
d="M742 588q0 -1 1 -1h5q7 0 12 1q3 0 3 -2q0 -1 0.5 -1t0.5 -2.5t0.5 -3t0.5 -4v-5.5q1 -1 1 -3.5t0.5 -4.5t0.5 -2.5v-1v-1.5v-1v-4q1 -5 0 -6h1v-1v-2q0 -2 0.5 -2t0.5 -2v-2v-1l1 -5v-2v-1v-1v-1q0 -4 1 -5v-1v-2v-4v-2l0.5 -1.5t0.5 -2.5h-1q1 -1 1 -3t0.5 -3t0 -1.5
t0 -1.5t0.5 -1.5v-1.5v-1v-1v-1v-1v-2.5t0.5 -1.5t0.5 -4.5t0.5 -4.5t0 -1t0 -1t0.5 -0.5t-1 -1.5q1 -1 1 -8v-3v-1l1 -1q-1 -2 -0.5 -3t-0.5 -1q1 0 1 -2.5v-2.5q0 -1 1 -4v-1v-1v-1v-1v-1q-1 0 0 -2q0 -1 0.5 -3t1 -2.5t0 -0.5t-0.5 -1v-3.5t0.5 -2.5t0.5 -2v-1v-1
q-1 -1 -1 -1.5v-1t-1 -1t-1 -1v-0.5q-1 0 -1 -0.5t-0.5 -0.5t-2 -1.5t-2.5 -1.5t-1 -0.5t-0.5 -0.5t-0.5 -0.5t-2 -1.5l-2 -1l-1 -1q-2 -2 -4 -3l-2 -1v-1q-1 1 -1.5 0t-1.5 -1.5t-2.5 -2t-2.5 -2t-1 -1t-1 -0.5v0q-1 -1 -1.5 -1t-0.5 -0.5t-0.5 -0.5t-0.5 -0.5t-1 -0.5
q0 -1 -1 -1v-1h-1q0 -1 -1 -1t-1 -1v0h-1l-1 -1l-2 -1l-1 -1l-3 -2l-1 -1l-1 -0.5t-1 -1t-1 -0.5v0q0 -1 -0.5 -1t-1 -0.5t-1 -0.5t-0.5 -0.5t-1 -0.5l-0.5 -0.5l-1.5 -1.5t-3 -1v-1q0 -1 -2 -1q1 -1 0 -0.5t-1.5 -1t-1 -1t-2 -0.5l-1.5 -1q0 -1 -1 -1.5l-1 -0.5h-1h1l-1 -1
q-2 0 -4 -3l-1 -0.5t-0.5 -2t3 -4t3.5 -3t2 -2t1.5 -1.5h1.5q2 -3 4 -3l0.5 -0.5l0.5 -0.5l1.5 -1.5t2 -1t0.5 -0.5t1 -1t1.5 -1t1.5 -1q2 -1 2 -3h1l1 -0.5l1 -0.5l1.5 -1t2.5 -1.5t1 -1t1 -1.5t2 -1q0 -1 1 -1.5l1 -0.5l1 -1q3 -3 3.5 -2.5t3 -2t4 -3t1.5 -1t0.5 -0.5
t2 -1.5t2 -1.5t0.5 -0.5t0.5 -0.5t2 -1.5t2 -1.5t1.5 -1l1 -1q0 -1 0.5 -1t2 -1t2 -1t2 -1.5t1.5 -1t1.5 -0.5l1.5 -1l0.5 -1t1 -0.5t1 -0.5t1 -0.5t1 0t0.5 -1.5v0l1 -1h1v-1l0.5 -1t0.5 -1.5v-0.5l1 -1l-1 -5q1 0 1 -5t0.5 -5t-0.5 -1t0 -1q-1 -2 0 -3v-1.5v-2.5
q1 -1 1 -5q0 -1 -1 -3l1 -1v-1v-1v-1v0v-2t-0.5 -2t0.5 -1.5t0.5 -0.5t-0.5 -1v-1v-1t-0.5 -1t0 -0.5t0.5 -3t1 -3.5h-1v-1t0.5 -1t0.5 -0.5t-1 -0.5v-1q1 0 0 -1q0 -2 1 -2v-3v-3v-4t0.5 -4l0.5 -1v-2v-8q0 -2 1 -2l-1 -1v-1l1 -1v-2l-0.5 -1t0 -1t0.5 -1t0.5 -1.5
t-0.5 -0.5v-1v-1v-1v-3.5t1 -4.5v-1.5v-0.5h-1h1.5t0.5 -1q-1 -6 0 -11v-1v-1v-3.5t1 -3.5q-1 0 -0.5 -1t0 -1t0.5 -1v-1.5v-0.5q1 1 1 0.5t-0.5 -1t0 -1t0.5 -2.5v-1v-1q-1 -1 -0.5 -1.5t0.5 -1.5v0q0 -1 0.5 -1.5t0.5 0.5v-1v-0.5t-1 -1.5l1 -1l-1 -1h1v-1v-1v-4t1 -1
l-1 -1q1 -2 0 -3q0 -1 0.5 -1.5t0.5 -1.5v-1v-1q0 -2 0.5 -2.5t0 -0.5t-0.5 -1t1 -1v-5v-2h1v-1q0 1 1 0q0 -1 -0.5 -0.5t-1.5 -0.5t1 -1v-1l-1 -1q1 0 0 -1h1q1 0 1 -0.5t-1 -0.5q1 -1 0 -1v-1l-1 -1l1 1h1v-1v-1v-2v-1l1 -1h-1q-1 0 -1 -1h1q0 -1 0.5 -1t0.5 1q1 0 0.5 -1
l-0.5 -1q-1 0 -1 -4q0 -2 -0.5 -1.5t-1 -0.5l-0.5 -1q1 -1 0.5 -1.5t-1 0t-0.5 -0.5q-1 -1 -2.5 -1.5t-1.5 0.5v0v1l-1.5 -0.5t-0.5 -1.5h-1v1v1q-1 -1 -1 0q-1 0 -1 -1v-1q0 1 -1 1h-1v0q-1 -1 -1.5 -0.5t-1.5 0t-2 0.5q0 -1 -1 -1l-1 1v-1q-1 0 -1 0.5t-1 0.5t-1 -0.5
v-0.5v1q-1 0 -1 -1l-1 1h-1h-1q0 -1 -0.5 -1.5t-1 -0.5t0.5 1l-2 1h-1v1q-1 0 -1 -1v0l-1 1q-1 0 0 -1h-4h-1v-2v1.5v0.5q-1 0 -1 -2h-1v1h-1h-1.5t-0.5 1l-2 1q0 -1 1 -1l1 -1q0 -1 -0.5 -1t-0.5 0.5t-2 0.5h-1q0 1 -0.5 1.5t-1.5 0.5l1 -1l-3 -2q1 1 1.5 1t0.5 0.5
t-2.5 0.5h-2.5h-1.5t0.5 1h-1q0 -1 -1 -1t0 -1q-1 0 -1 1t-0.5 0.5t-2 -0.5t-1.5 0.5t-1 0.5l-1 -1q-1 0 -0.5 0.5t-0.5 1.5v-1h-1h-1h0.5t0.5 -0.5t-1 -0.5t-1 1t-1.5 1t-1.5 -1t-1 0h-2v1l-1 -0.5t-1 0t-1 0t-1.5 0.5t-1.5 0.5t0 -1.5q-1 0 -1 0.5t-0.5 0.5t-0.5 -1h-2v1
q0 1 -1 0q-1 1 -1.5 0.5l-0.5 -0.5v-1q-2 0 -2 2h-1q0 -1 -0.5 -0.5t-1 0t-1 0t-1.5 0t-1 0t-1 0t-1 0.5q-1 -1 -2 0v-1q-1 -1 -1 0l-2 1h-1q-1 1 -1 0h-1h-1h-2h-1h-1l1 1q-1 0 -1 -1h-1v0h-2h-1v1q-1 0 -1 -0.5t-1 -0.5h-1l-1 1v-1h-1q0 1 -0.5 1t-0.5 -0.5t-1 -0.5h-1
q-1 1 -2 1h-1q-1 0 -2 -0.5t-1 0t-0.5 1t0 -0.5t0 -1t-0.5 0.5t-1 0.5q-1 1 -1 0.5t-1.5 -0.5h-2.5t-1 0.5t-1 0.5t-1 -1q-1 1 -1.5 0.5l-0.5 -0.5v1h-1h-4h-1.5t-0.5 1v-1h-1h-1q-2 0 -2.5 0.5l-0.5 0.5h-1q-1 0 -1 -1l-2 1h-1h-1q0 -1 -1 0h-3q-1 1 -3 0.5t-2.5 0t-1 0
t-1.5 0t-1 0t-1 0.5h-1h-1h-2t-2 1q0 -1 -1 -1h-1h-1q-1 0 -1 0.5t-1 0t-2 -0.5l-4 1h-2h-2h-1h-1q-1 -1 -1.5 0t-1.5 0l-0.5 0.5l-0.5 0.5h-1v-1q-1 1 -1 0h-1q0 1 -0.5 0.5t-0.5 0.5h-1h-4h-1h-2h-2q0 1 -0.5 1t-0.5 -0.5v-0.5h-1q1 0 0 0.5t-1 0t-1 0.5l-2 -1q-1 1 -2 1
t-1 -1l-1 1h-2q-2 0 -3 0.5t-2 -0.5q0 1 -0.5 1.5t-1.5 0.5l-1 1l-1.5 1.5t-0.5 1.5q-1 0 -1.5 2t-1 2t-1 1t-1 1.5t0 1.5t-0.5 1t-1.5 1l-1 2l-0.5 1q1 0 -2 3q-1 1 -0.5 1.5t0 0.5t-0.5 0.5t-1 1.5v1l-1 1q0 1 -1 1q1 0 0 1l-1 1q0 1 -0.5 1t-0.5 1l-1 1l-0.5 1.5
l-0.5 1.5q0 1 -1 1v0.5t-0.5 0.5t-0.5 1t-0.5 1.5l-0.5 0.5v0.5t-1 0.5l-1 1.5t-0.5 1.5t0 0.5l-0.5 0.5h-1q1 2 0 2t-1 1t-0.5 1t-0.5 0.5t-0.5 2t-1 2t-1.5 0.5l-1 3v1h-0.5t-0.5 1t-1 1l-0.5 0.5t-0.5 1.5q0 2 -1 2v1t-0.5 1t-0.5 1h-1v1l-1 2l-1 1v1q1 0 -1 2l-1 1
l-0.5 1t-1.5 2.5l-1 1.5l-0.5 1t-1.5 1t-1 1q-1 -1 -2 -1q-1 1 -4 -3l-2 -1l-1 -1t-1.5 -1t-3.5 -3t-4 -3v-1l-2 -2q-1 0 -2 -1v-1l-1 -1l-1 -1l-1 -1l-0.5 -0.5t-1 -0.5t-1 -0.5l-0.5 -0.5l-1 -1l-2 -2l-2 -2q-1 0 -1 -1t-0.5 -1t-3 -2t-2.5 -3q-1 0 -1 -0.5t-0.5 -0.5
t-0.5 -0.5t-2 -2t-2 -2.5v-1h-1l-0.5 -1t-1.5 -1l-1 -1q0 1 -0.5 0l-0.5 -1h-1v-1q0 1 -0.5 0t-1.5 -1v-1q-1 -1 -1.5 -1t-1.5 -1l-1 -1v-1l-1 -1t-2 -1q0 -1 -0.5 -1t-0.5 -1t-0.5 -1h-0.5q-3 -2 -4 -4q-1 -1 -1.5 -0.5t0 -0.5t0 -1t-1.5 -1v-1q0 1 -1 0t-1 -1.5t-1 -1
t-1 -1.5t-0.5 -0.5t-0.5 -0.5t-1 -1h-1q-1 -1 -1.5 -2t0.5 -1h-1l-1 -2h-1h-1q0 -1 -2 -1h-1h-1h-2.5h-3t-0.5 -0.5t-0.5 0t-9.5 0.5h-2h-1h-1.5t-1.5 1q-1 -1 -4.5 -0.5t-4 0.5h-0.5h-2h-1q-1 0 -1 0.5t-1 0t-1 0t-1 0t-1 0t-0.5 0.5t-0.5 -1l-2 1q-1 0 -2 -0.5t-1.5 0
t-2.5 0t-3 0t-1 0t-1 0t-2 0.5h-1h-1h-2l-1 1h-4q0 -1 -2 -0.5t-3.5 0.5h-2h-0.5h-0.5h-1h-3.5q-12 0 -12 1h-4q-9 0 -15 1q-3 0 -3.5 0.5t-0.5 0t-1 -0.5h-3q-5 0 -7 1h-1h-3.5h-6.5t-3 0.5t-2 0t-3 0.5h-1h-1h-1h-2q-5 0 -6 1l-0.5 -0.5t-1.5 -0.5h-1q0 1 -6 1
q-3 0 -3 0.5t-1 -0.5q0 1 -1.5 0.5t-2.5 0.5q0 -1 -1 -1t-1 0.5t-2 0.5h-2v1q-1 -1 -2 0l-1 1l-0.5 0.5t-0.5 3v2.5v1v2q1 0 1 3t0.5 3.5l0.5 0.5h-1v1v1.5t0.5 0.5t0 1t0 1t0.5 6q0 1 1 1v1q-1 0 -0.5 1.5l0.5 1.5v1v1t0.5 1t0.5 0.5t-1 0.5v1q1 1 0 1q1 0 1 1l-1 1
q1 0 0.5 0.5t0 1t0.5 1v1.5v2t1 1l-1 1v1v2l1 1q1 4 0 6v1l1 1v2l1 4q-1 1 -0.5 3t0.5 4.5t0.5 3t0.5 1.5v4t-0.5 3.5t0.5 1t0.5 1.5t0 1t0.5 1q-1 0 -1 0.5v0.5q0 1 1 1t0 1v1v4v3q1 0 0 1v1h1v1q-1 0 -0.5 1l0.5 1v3t0.5 3.5t0.5 1.5h-1q0 1 0.5 1t0.5 1v2v1v1
q0 1 0.5 1.5t0.5 1.5t1 1l-1 1v0q-1 1 -0.5 1t0.5 1v1h1l-0.5 0.5t0 1t0.5 1.5t-0.5 1t0 0.5t0.5 2t0.5 1.5t0 1t0 1t0.5 1.5t-1 1.5v1q1 0 1 2v3q1 1 1 9v1.5v2v2.5v0q0 1 0.5 2l0.5 1v1v4.5t0.5 3.5t0.5 1.5v1.5v2v1q1 1 0.5 1t0 1t0.5 3v3q0 3 3 3l1 1h2t1.5 1t1.5 0.5
t1 0.5t0.5 0.5t0.5 0t1 0.5l1 1h1t2 1t2 1q0 1 1 0.5t1 0t0.5 0.5t1.5 1t1 0.5t1.5 0.5t2 1h0.5v1q1 -1 1.5 0t1.5 1t1.5 0.5t2 1t1.5 1t1 0.5t2 0.5l1 0.5l1 1q1 0 1.5 0.5l0.5 0.5l2 1t2.5 1.5t1 0.5t2 1t2 1h0.5q1 3 6 3v1l1 -1v1l1.5 0.5t2 1t1.5 0.5v1q1 -1 1 0l1 1v1
q1 2 -2 5l-1 2h-1v2q-1 0 -1 0.5t-0.5 1t-1 1.5t-1.5 1v1q-1 0 -1 1l-1 1v0q0 1 -1 1t-1 1l-1 1t-0.5 1t-2 2.5t-2.5 3v0.5q-3 3 -3 4v0l-1 1l-1 1v1q-1 0 -1 1t-1 1l-1 1q0 1 -1.5 2t-1 1t-0.5 1l-1 1v1l-2 2l-1 1l-1 1v1q-1 0 -1.5 1.5l-0.5 1.5h-1q1 0 0 1l-1 1
q-1 1 -0.5 1.5t-1.5 1.5q-4 4 -4 5q-1 0 -1 0.5t-1.5 2.5l-1.5 2l-1 1l-0.5 1t-0.5 0l-1 1q1 1 0 1q-2 1 -3 5v2.5t0.5 0.5h0.5q-1 0 -1 2t1 2q0 1 -1 2h1v1v1v2q0 3 1 5q1 1 0.5 1.5t0 1t-0.5 1.5q1 1 0.5 3t0.5 2v2.5t0.5 2.5l0.5 1v1q-1 0 0 2v1l1 2v1l-1 1l1 3q-1 0 0 2
t0.5 2.5t-0.5 1.5t0.5 1.5t0.5 2.5t0.5 3t0 1t0 1t0 1t0 1t0.5 2v4l1 3v2v1q0 2 0.5 3t0.5 2v2v1v1.5v1t0.5 1.5t-0.5 1q1 1 0.5 1.5t0 0.5t0.5 2l1 3v2q0 2 0.5 2.5t0 1l-0.5 0.5v3l0.5 0.5t0.5 -0.5v1v1v1v1q0 7 0.5 8t0.5 2.5t0.5 2.5t0.5 2v1v1v1v1l1 1q-1 5 0 5v1
t0.5 1.5t0 1.5l-0.5 1l1 1v1q0 2 -0.5 2t0.5 1.5t0.5 2t0.5 0.5v1h-1q1 1 1 7q0 2 0.5 2t0.5 1v2v2.5t0.5 1.5t0.5 0.5t0.5 0.5t0.5 0.5t2 0.5l1 -1h4t3.5 0.5t0.5 0t1 0t2 0.5h1h2h6t5.5 0.5t1 0t1.5 0t1.5 0t1 0t3.5 0t3 0t1 0t1.5 0t2 0.5h4.5h5h1q1 1 2.5 1h1.5h1h3h1h1
h5t5 1v-1l1 0.5t3 0.5h2.5h4.5h4.5t1 0.5t2.5 0l2 -0.5h1q1 0 4 0.5l3 0.5h11q6 0 7.5 0.5t2 0.5h2h2h0.5h3q1 1 1 0h9q2 1 3 0q0 1 1 0.5t1 0t1.5 0t1.5 0.5h3.5h2.5h5.5t5 -0.5t0.5 -0.5q2 -1 3 -3l1 -2v-2q1 0 1.5 -1.5t1.5 -2.5q0 -4 2 -4q-1 -1 0 -1q2 -2 2 -3t0.5 -1
t0.5 -1t0.5 -1t0.5 -1.5t1 -2t1 -1.5l1 -2q0 -1 1 -3q1 0 1 -1l1 -2l1 -1v-2l1 -1l1 -1q1 -2 1 -3q2 -2 2 -3t1 -1l2 -4l1 -2q1 -2 1 -2.5v-0.5q1 0 2 -4q1 -1 1 -1.5v-0.5h1v-1l0.5 -0.5t0.5 -1.5l1 -1v-1q3 -3 3 -6q1 -1 2 -3q0 -1 0.5 -1t0.5 -0.5t1 -2t1.5 -1.5h1.5l1 1
l1 1q1 0 1 1t0.5 1t0.5 0.5v0.5q0 1 0.5 1.5t2.5 4t2.5 3.5t0 1t0.5 1q0 1 0.5 1t0.5 1q1 0 1 0.5t0.5 1t0.5 1t1 2.5t1.5 2t0.5 1v2l0.5 0.5l0.5 0.5q1 1 1 1.5t1 1.5v1l1 1l1 2.5t2 3.5l2 4q3 5 4 7q1 1 1 2q2 1 2 4l1 1v1q1 1 2 2.5t1.5 2.5l0.5 1v1l1 2h1q0 1 0.5 2
l0.5 1q0 1 1 1q0 1 2.5 4.5l2.5 3.5q1 0 1 1t0.5 1t0.5 0.5t0.5 0.5h0.5q1 2 10 1h5h2h1h2t3.5 0.5t2 0t0.5 0t6 0.5h6.5t0.5 -0.5t0.5 0t2.5 0.5h2h0.5h2h2.5h2h1q0 -1 1 -0.5t4.5 0.5t4 0.5t1 0t2.5 -0.5h3t2 0.5t1 0t3.5 -0.5h4.5v0h1h1q1 0 2 1q1 -1 8 -1h2q3 0 5.5 0.5
t2.5 0t0.5 0t11.5 -0.5q3 0 5.5 0.5t4 0.5h1.5h2h1q-1 0 5 0h6h1h3h3h4.5h5.5h3.5h7.5h4.5h1.5h2h3h1v0h1zM283 446v-1q1 1 0 1zM794 138v-1v1zM798 120h-1v-1zM800.5 94q-0.5 0 -0.5 -1q1 0 1 0.5t-0.5 0.5zM799 91h-1h1v0zM715 91v-1v0v1zM738 90v-1l-1 1h1zM708 90v-1
v0.5v0.5zM737 90v-1h-1q0 1 1 1zM779 89v0v0zM752 89v-1v-1v1v1zM797 88v0h1l1 -1l-1 1h-1zM762 88v-1v1zM763 88h1v-1q-1 0 -1 1zM772 87l-1 -1h1l1 1h-1zM768 87q-1 0 0 -1h1q0 1 -1 1zM782 87v-1l1 1h-1zM745 86v0v0zM777 86v-1h1zM743 86v-1v1v0zM790 86v-1h1q0 1 -1 1z
M753 86v-1h1v1h-1zM785 81l0.5 -0.5t0.5 0t-1 0.5zM792 76l1 -1v1h-1zM820 75v-1v1v0zM819 72v-1v-1v1v1zM793 68v-1h1zM806 66v-1l1 1h-1zM802 58v-1v1zM788 52l1 -1v0.5t-1 0.5zM791 44v0h1h-1zM810.5 43q-0.5 0 -0.5 -1q1 0 1 0.5t-0.5 0.5zM751 41q0 -1 1 -1v1h-1z
M754 41q-1 -1 -1 -1.5t0.5 -0.5t0.5 1v1zM816 36l-1 -1h1v1zM807 35v0v0zM759 33v0v-1l1 1h-1zM820 33zM763 30v-1q1 0 1 1h-1zM818 29h-1q0 -1 1 0zM801 29v0v0zM791 29h-1l1 -1v1zM783 26l-1 -1h1v1zM798 25q-1 0 -1 -0.5t0.5 -0.5t0.5 1zM774 25v-1h1l1 -1l-1 1q0 1 -1 1
zM808 24h1l1 -1q0 1 -1 1h-1zM818 23v0v0zM794 23q-1 0 -1 -1h1v1zM816 23v-1v0v1zM795 23v-1h1z" />
  </g>

</svg>
