<?xml version="1.0" standalone="no"?>
<!DOCTYPE svg PUBLIC "-//W3C//DTD SVG 1.1//EN" "http://www.w3.org/Graphics/SVG/1.1/DTD/svg11.dtd" >
<svg viewBox="0 -200 1000 1000">
  <g transform="matrix(1 0 0 -1 0 800)">
   <path fill="currentColor"
d="M0 1v1l1 -1q1 3 1 17l1 13h1q0 -1 1 -1q4 0 75 1h7h3l2 3q1 2 1.5 2.5t0.5 1t1.5 2t1.5 2v1.5q4 5 15 24t18 29q1 2 1.5 2t1.5 2t1 2.5t1 2.5t2 2q0 1 5 10q1 2 1.5 2.5t4.5 9.5l3 6l2 3q5 10 6 11q0 2 3 6q0 1 1 2.5t1.5 2.5l2 4l1.5 3l3 5q7 16 8 16t1 1t1 3l2 4l1.5 3
t1.5 2.5l1 1.5v1l7 13l16 31q4 9 5 10.5l1 1.5q0 4 4 8q1 1 1.5 2.5t5.5 10.5t5.5 11t1 2t0.5 0.5t1.5 2.5t2.5 4.5t2 5.5q11 20 11 21v1h1l2 5q12 25 12 26q0 4 2 4v1q0 4 -5 10v1l-1 1q-1 0 -0.5 1t0 1t-2 2.5t-1.5 3.5q-1 0 -3 6q-2 3 -2.5 3t-2 3.5t-3 5t-1.5 2.5
t-0.5 1t-0.5 1t-1 1t-1 0.5t1 0.5v1q-1 0 -2.5 3.5t-2 4t-0.5 1.5q-1 0 -2 2t-1 3q-1 0 -2 3q0 2 -2 2v1q1 1 -1 3q-1 0 -2.5 4t-2.5 4l-2 5l-1 1q-1 1 -3 5t-2.5 4t0 0.5t-1 1.5t-1.5 1.5t-1.5 3t-2 4.5t-1.5 3t-3 4.5l-2 3.5q-3 3 -2 5l-1.5 1.5t-1.5 2t-1.5 3.5t-1.5 3.5
t-0.5 1t-2 3.5t-2.5 3.5t-1 1.5t-1.5 3t-2 4t-2.5 3q-2 3 -2 6l-1 1t-2 3.5t-2 3.5t-1 1.5t-1 1.5t-1 1.5t-1 2.5q-4 6 -4 8l-1 1.5t-2 3.5t-2.5 4t-1.5 3q-1 1 -2 3t-1.5 2.5t-0.5 1.5t-1.5 3t-2 4t-1 2t-0.5 1t-0.5 1t-1.5 1.5t-1 2t-1.5 3t-2.5 3.5t-1 2h-1q1 4 -1 4
q-1 0 -1 1q0 3 -2 5q-1 0 -1.5 1l-1.5 3t-1 2.5t-1 0.5v1l-0.5 1.5t-1.5 1.5q1 1 0.5 1t-2.5 3.5t-2.5 4l-0.5 0.5q0 1 -0.5 2l-0.5 1l-2 4t-3 5l-0.5 1t-0.5 2q-1 1 -7 13l-4 8l-4 6l-2 4l-2 3q0 2 -5.5 11t-5.5 10q-1 0 -1 -1h-1q-1 0 -6.5 0.5t-7.5 0.5q-1 -1 -1 0
q-6 1 -14 1t-16 0.5t-11 0.5q-8 -1 -12 0l-1 14v4.5v3.5v2t1 1q10 0 30 -1.5t27 -1.5h8h8q16 -1 17 -1h8t6 1q5 0 5 -1h2q1 1 1.5 0.5t2.5 0t2 -0.5l3 1h6.5h9h2.5h7h7q4 -2 4 -5l4 -6t5 -7q7 -12 9 -15q1 -1 2.5 -3t3.5 -5.5t3 -5.5q3 -5 5 -7q1 -1 2 -3q2 -4 4 -6
q1 -2 3 -5t2.5 -3.5t0.5 -1t3 -4.5t3 -5l1 -1.5t2.5 -3.5t1.5 -2.5v-1.5l6 -8l2 -4t3 -5l3 -5q1 -2 1.5 -2t0.5 -1t1.5 -3t1.5 -2.5t1.5 -2t1.5 -3t1 -2t1 -1.5v-1q1 0 5 -8q1 -1 2.5 -3t3 -4.5t1.5 -3t1 -2.5t2.5 -4t2 -3t1 -1.5t1 -2t1 -2t0.5 -1t2 -3.5t2.5 -4t1.5 -2
t1 -1.5t1 -2.5q1 -1 5 -8q1 -2 1.5 -2.5t0.5 -1t1 -2.5q3 -4 3 -5t2 -3.5t2 -3t1.5 -2.5t3.5 -5.5l2 -3.5l1 -1q1 -3 2 -3.5t1 -1.5q2 -1 2 -5l1 -1t1 -1.5v-0.5l1 -1q1 -3 4 -7q3 -5 5 -8q1 -2 3 -5q1 -3 1.5 -4t2 -2.5t2.5 -3.5l2 -4l1.5 -3t1.5 -2.5t1 -2.5t0.5 -1
t1.5 -2l1 -2q2 -2 3 -5q0 -1 2 -4l2 -3l2.5 -4t3 -4.5t2 -3.5t2.5 -4.5l1 -1.5l2.5 -4t3 -5.5t1 -2t1 -2l0.5 -1.5q1 0 6 -11l3 -3t1 -2.5t0.5 -1.5t1 -1t-0.5 -1.5t-2 -0.5t-2 -1.5t-1 -2.5q0 -3 -1 -3l-1 -1.5t-2.5 -4t-1.5 -3t-1 -1.5t-0.5 -1.5t-1 -2t-0.5 -2.5
q-1 0 -2.5 -3.5t-2.5 -3.5v-1l-0.5 -1.5t-1 -1.5t-1 -1l-2 -4t-1.5 -3.5t-1 -1.5l-1 -1v-1q-1 0 -1.5 -1t-0.5 -2h-1l1 -1q-3 -1 -3 -3q0 -1 -1 -2.5t-2 -4.5l-3 -6q-1 -2 -2 -3.5t-2 -2.5t-0.5 -1.5t-0.5 -0.5t-2 -2.5t-3 -6.5q-4 -6 -6 -11l-1 -2q-1 -1 -14 -26
q-5 -8 -15 -27.5l-15 -29.5l-2 -4l-2 -3t-4 -7l-7 -13q-1 0 -2 -3q-2 -5 -3 -6.5t-1.5 -2t-1.5 -2.5q-2 -6 -4 -7v-1.5t-1 -1l-1 -0.5q0 -2 -1 -3q-2 -2 -4 -7q0 -1 -0.5 -1.5t-1 -2t-1 -1.5t-3.5 -6q-1 -3 -3 -6q-1 -2 -1.5 -2.5t-2 -3t-2 -3.5l-0.5 -1l-4 -7q-3 -5 -7 -11
t-9.5 -12.5t-8.5 -10.5q-1 -3 -2 -3.5t-1 -1.5l-2 -2q0 -1 -1.5 -3t-1.5 -4l-2 -2t-1.5 -2.5t-1.5 -2t-1 -1.5t-1 -1.5t-3 -2.5l-5 -8q-3 -5 -4 -6t-1.5 -2t-1.5 -2t-2.5 -3.5t-3 -3t-5 -0.5h-4h-6.5q-21 -1 -30 -1q-4 0 -12 -1h-14q-18 -1 -26 -1q-16 -1 -24 -1
q-4 0 -16.5 -0.5t-21.5 -0.5t-9 1zM0 1z" />
  </g>

</svg>
