<?xml version="1.0" standalone="no"?>
<!DOCTYPE svg PUBLIC "-//W3C//DTD SVG 1.1//EN" "http://www.w3.org/Graphics/SVG/1.1/DTD/svg11.dtd" >
<svg viewBox="-355 -200 1000 1005">
  <g transform="matrix(1 0 0 -1 0 800)">
   <path fill="currentColor"
d="M834.5 -120.5q-10.5 -0.5 -21.5 -0.5q-16 0 -49 -2h-10.5h-13.5l-21 -1h-21q-12 0 -23 -1q-11 0 -22 -1t-17.5 -0.5t-22.5 -0.5t-26 -1t-22.5 -0.5t-20.5 0t-16 0.5t-14 0.5t-15 0.5h-15q-16 0 -41 1h-13t-21.5 0.5t-20 0.5h-20.5l-22 1q-27 0 -36 -1h-9q-11 0 -69 -3
h-26h-53h-83l-22 1h-22q-10 1 -23.5 1t-19 0.5t-11.5 0.5t-25 1t-31 1t-24.5 0.5t-24 0.5t-17.5 1h-21q-3 -1 -14 0h-35q-19 0 -35 1q-5 0 -6 -0.5t-9.5 0t-21.5 0.5q-25 0 -31 1l-5 1v5q0 5 -1 28.5t-1 32.5v13t-1 18v25q-1 13 -1 27q-1 14 -1 26.5t-1 35t-1.5 42t-1.5 34
t-1 27.5q0 14 -1 28q-2 58 -2 63t-1 42q-1 8 -1.5 24.5t-0.5 18.5q-1 9 -1 38q0 5 -1 20l-1 22v14q0 9 -0.5 20.5t-0.5 26.5q-1 27 -2 77q0 16 -0.5 28t-0.5 24.5v24.5q-1 20 -1 52v19v20q0 26 -1 48v18.5v17.5v18v17q1 34 1 43q0 8 -0.5 23.5t0 22.5t0.5 16.5t1 10t23 1
t23 1t4 0t13 0t12.5 0t8 0t17.5 0.5t19.5 0.5t15 0t14.5 -0.5l18 1q11 0 13.5 -0.5t8.5 0t16 1t13 0.5q3 -1 10.5 -0.5t25 0.5h32.5h19.5h8.5q6 0 43 1q14 0 18.5 -0.5t12.5 -0.5q12 1 24 1q4 0 13 0.5t10.5 0t13 0t12 0t9.5 0.5h32q10 -1 19 0q19 0 32 -1q7 0 12 0.5t9 0
t11 -0.5q21 0 27 -1q3 0 0 -2q-2 -1 -4 -1q-4 -2 -6 -3.5t-5 -3.5q-9 -7 -12 -17q0 -3 0.5 -13.5t3 -17t2.5 -8t4 -6.5q10 -12 22 -17q10 -3 19 -2q15 1 28 13q12 11 12 27q0 5 2 5q1 2 0 3l-1 5.5t-0.5 6.5t0.5 4.5t-2 3.5t-7.5 5t-6 5t-7 4t-8.5 4q-11 -1 -17 4
q-2 1 -0.5 1.5t4.5 0t7 -0.5t5 -0.5t3.5 0.5t3 0.5t14.5 0.5q37 3 39 1q1 0 6 0.5t8 -1.5q5 -4 7 -1q1 2 4.5 2t4.5 -2q2 -2 5.5 -1t4.5 2q3 2 6 0t4.5 -0.5t4.5 1t7 -0.5t4.5 -0.5t6.5 0.5t7 0q2 -1 9 -0.5t8 0.5q1 1 4 1h6q3 0 3.5 -1.5t3.5 -0.5q4 2 5 -1q0 -1 1.5 -1
t1.5 2t1 2t3 -1q2 -2 3.5 -1t2.5 0.5t6.5 -0.5t6.5 -1t2 0.5t2 0.5t11 1h7.5h6.5q1 -1 14 0q7 0 8.5 -0.5t6.5 -0.5q14 1 18 -1q1 0 4.5 0.5t9.5 0t16.5 0t13 -0.5t10.5 -0.5t11.5 -0.5t6.5 0h6t5.5 -0.5t5 0.5t9 0t13.5 0q18 1 20 0q1 -1 14 -0.5t16.5 0t10.5 -0.5t11 -0.5
t6 -0.5t11.5 -0.5t21.5 0.5q16 0 34 -1q22 0 47 -2h13q19 0 21 -2v-21t-1 -29q0 -5 -3 -67q-2 -65 -3 -89v-10.5v-17.5l-1 -38q-2 -93 -4 -138q-3 -46 -3 -106v-33v-23q-1 -24 -1 -37q0 -6 -0.5 -14.5t-0.5 -15.5l-1 -34q-1 -34 -11 -159q-4 -44 -4 -50q-5 -68 -10 -110
q-1 -4 -1.5 -14.5t-1 -13.5t-1 -9t-1.5 -17l-2 -20q-3 -36 -3.5 -38.5t-7.5 -3t-17.5 -1zM499 -32q10 2 20 4.5t11 2.5q3 0 20 5q3 2 8 3.5t12.5 5.5t8.5 4t6 3t10 5t7 3.5t6 3t5.5 3t5 4l5.5 4t7 4.5q15 8 27 21l29 36q19 24 27 40q11 24 12 30q0 3 1.5 6.5t3 13.5t2.5 12
q2 5 3 15q1 12 2 22q1 4 0 21q0 36 -6 60q-2 6 -2 11q-2 12 -5 16q-1 2 -2 5q-5 15 -10 19q-1 1 -1 2q0 6 -8 13q-2 2 -4 7t-4.5 7.5t-4.5 5.5q-8 10 -18 18q-2 2 -3 4q-8 11 -12 13q-3 2 -4 4t-6 6t-4.5 6t2 2t7 5t12.5 10.5t8 7t4 3t9 8t9 9.5q11 11 27 32l8 9
q3 4 4.5 6.5t3.5 6.5q9 12 12 22q2 3 4 8q5 10 5 12q0 1 1 4q4 10 4 15q1 3 1 5q3 6 3 14q3 21 2 31q-1 8 -1 17t-0.5 9.5t-1.5 9.5q-4 31 -9 41l-2 6q-2 8 -5 13l-2 4q-1 3 -3 8t-5 10.5t-5.5 11t-4.5 7.5l-3 7q-2 4 -3.5 5t-2.5 4t-3 6q-3 2 -8 8q-5 8 -15 19q-8 8 -13 12
q-1 2 -4 5q-11 15 -15 14q-1 0 -5 3.5t-9 6t-6.5 4t-7 3.5t-9.5 4t-6 2t-7 2.5t-6 2.5t-2 1t-10 4t-10 3t-6 2q-17 6 -18 6q-5 -1 -9 1q-7 3 -10 3q-2 0 -8.5 1.5t-9 1t-4 0.5t-5 1t-8 0.5t-7 0t-3 0.5t-5.5 0.5t-11 -0.5q-15 1 -16 0t-3.5 -0.5t-5.5 -1t-6.5 -1.5t-6 -1.5
t-8.5 -1.5q-9 1 -9 -2q-1 -2 -5 -3q-11 -1 -13 -3q-1 -2 -3 -2.5t-2 -1.5t-6.5 -1.5t-8 -3t-4.5 -2t-5 -1.5t-3 -2t-3.5 -3t-6 -2.5t-6.5 -1.5t-4 -3t-4.5 -2.5t-6.5 -4t-4.5 -3t-3 -2t-5 -4t-10.5 -9.5t-11 -10.5t-6 -6t-4 -2.5t-6 -5q-10 -12 -11 -13q-1 0 -3.5 -2.5
t-9.5 -7.5t-7.5 -4.5t-3 4.5t-2.5 5t-2 4t-3 6q-8 15 -15 23l-8 9l-22 22q-17 16 -24 18q-1 1 -8 6.5t-12 7.5l-11 7q-16 10 -25 14l-9 5q-14 7 -32 9q-11 1 -13.5 1t-10.5 1q-40 4 -80 -2q-14 -2 -25 -3q-17 -2 -29 -7q-4 -1 -10.5 -3l-11 -3.5t-8.5 -2.5q-11 -3 -16 -6
q-2 -1 -8.5 -3.5t-7.5 -3.5t-5.5 -2t-7 -3t-4 -3t-4.5 -3.5t-4 -2.5q-2 0 -15 -13l-6 -4t-20 -20q-10 -12 -11 -14q-4 -8 -10 -14q-2 -3 -4 -6.5t-6 -8.5q-11 -11 -10 -16q0 -1 -3 -5q-2 -2 -9 -18t-7 -18l-2 -6l-5 -11q-2 -5 -1.5 -6.5t-2 -6.5t-2.5 -8.5t-1 -6t-2.5 -9.5
t0 -16t0.5 -12q-4 -10 -2 -39q2 -12 6.5 -24t5.5 -15.5t2.5 -5t1.5 -3t2 -4.5t5 -9q5 -9 21 -27q6 -7 8 -9q3 -4 12 -13q8 -7 12 -11q1 -2 4.5 -5.5t9.5 -10.5l17 -17l11 -9q25 -24 47 -33q4 -2 7.5 -4t6.5 -4q15 -6 21 -8q2 0 2.5 -0.5t0.5 -1.5t-8 -3q-31 -10 -46 -19
l-8 -4t-4.5 -3.5t-4 -2.5t-2.5 -2.5t-3.5 -3.5t-3.5 -3t-4 -2q-5 -1 -5 -4l-3.5 -2t-6 -4t-3.5 -2t-2.5 -2t-2 -2t-4 -3.5t-8 -6.5t-7.5 -8t-7 -7.5t-8 -7.5l-6 -9q-3 -4 -5 -7q-6 -11 -10 -15q-5 -6 -5 -10q-1 -2 -1.5 -4t-1.5 -4t-1 -3q-4 -7 -4 -10l-1 -3.5l-3 -10.5
l-3 -12q-2 -4 -2.5 -8.5t-2 -11.5t-2 -12t-2.5 -10q-5 -27 -6 -43q0 -15 3 -22q0 -1 2 -9q3 -17 7 -20q1 -1 2.5 -4t3 -5.5t6.5 -11.5t8 -12l4 -4q0 -3 17 -22q6 -8 8 -11q3 -4 20 -23q7 -7 8.5 -9t5 -5.5t5 -5.5t20 -16.5t21.5 -16t10 -5.5l12 -8q6 -4 12 -6l24 -7
q13 -4 18 -3q1 0 10 -2q9 -1 25 -2h4t17 1q19 1 39 6l11 3q6 1 12 3q23 5 38 11q11 5 19 7.5t12 4.5l9 3q12 5 17 8q6 4 19 21q6 8 9 11t5 6t13 16l36 42q2 4 3 4t4 -4q21 -27 33 -37q5 -3 7 -6q9 -9 39 -28l10 -6q3 -2 9 -4.5t9 -4.5q15 -9 30 -11q2 -1 3.5 -2.5t3.5 -0.5
q9 1 15 -3q2 -1 5.5 -1t11.5 -3q9 -3 29 -2q25 1 45 4zM395 908q0 1 -1 1l-0.5 -0.5t-0.5 -1t1 -1.5q1 1 1 2zM402 914l2 1l-2 1q-5 2 -4 -2q0 -2 1.5 -1t2.5 1zM421 921q-1 3 -4 0l-2 -2l3 1q3 0 3 1zM374.5 916.5q0.5 0.5 -0.5 1.5t-1.5 0.5t0 -1.5t1 -1t1 0.5zM185 900
q0 1 -3.5 4t-4.5 3q-2 -1 -4 2q-4 5 -6 3q-1 -1 0.5 -2.5t3.5 -2.5q1 0 7 -4q7 -5 7 -3zM378 919q0 1 -0.5 1t-0.5 -1v-1q1 0 1 1zM408 923q0 1 -1.5 2t-2.5 0t0 -2q2 -2 4 0zM459 928.5q0 0.5 -1 0t-2 -0.5v-1q1 0 2 0.5t1 1zM400 924q1 2 1 3.5t1 2.5q3 1 1 5l-2 2l-1 -2
l-3 -1.5t-1 -3t-0.5 -3t-0.5 -2.5t1 -2q2 -2 4 1zM446 927.5q0 0.5 -1 1t-1.5 2.5t-1.5 2t-2 -2q-1 -3 1 -2q1 1 1.5 0.5t-0.5 -1.5q0 -1 2 -1t2 0.5zM377 923q0 3 -3 1q0 -1 1 -2q2 0 2 1zM436 930q0 2 -1.5 1.5t-1.5 -2.5l2 -1q1 0 1 2zM455 934v0.5t-1 0.5t-1 -1h2z
M427 932q0 1 -1 1t-0.5 -1t1.5 0zM451 960q0 1 -1 2t-2 0t1 -2t2 0zM484 966q2 1 1 5t-1.5 4.5t-2 -1t-1 -2.5t-0.5 -3q-2 -4 2 -4zM501 971l-2 -2q1 -1 2 0t0 2zM505 973v4q-3 0 -3 -3q1 -2 3 -1zM532 976q-1 1 -2 0l1 -1zM533 981l-0.5 0.5t-1.5 0.5t-1 -2q1 0 3 1z
M527 983q0 4 -2 6q-2 1 -2 -2q-1 -1 0.5 -4t2.5 -3t1 3zM507 980q0 1 -1 1t-0.5 -1t1 -1t0.5 1zM412 976q-1 1 -2 1q-3 0 0 -2h1t1 1zM518 987q-1 3 -3 1q-1 -1 -0.5 -1.5t2 -0.5t1.5 1zM561 992q0 1 -1 1h-0.5t-0.5 -1q0 -2 2 0zM444 982q0 1 -0.5 1.5t-1.5 0.5
q-3 -1 -1 -3q1 -1 1.5 -0.5zM368 977.5q-1 0.5 -1.5 0t0 -1t1.5 0t0 1zM535 994q0 2 -2.5 1.5t-3 0.5t-1 0.5t0.5 -2.5q3 -1 6 0zM426 993q-1 1 -2 1q-3 0 -1 -2q1 -1 2 -0.5t1 1.5zM389 991l1 1q-4 0 -4 -3q1 0 3 2zM397 991.5q0 0.5 -1 0.5q0 1 -0.5 0.5l-0.5 -0.5
q0 -1 1 -1t1 0.5zM410 993.5q0 0.5 -2.5 1.5t-2.5 0.5t-0.5 -1.5t2.5 -1t3 0.5zM830 -122q-15 0 -44 -1q-18 -1 -28.5 -1t-20 -0.5t-20 -0.5h-16.5h-10t-13.5 -0.5t-10 0t-13 -0.5t-20 -1t-20.5 -1q-24 -2 -32 -1h-12q-17 -1 -31 0q-24 1 -42 1h-18t-19 1h-31q-7 0 -22 0.5
t-19.5 0.5t-20 0.5t-25.5 0.5h-28q-7 -1 -18.5 -1t-13.5 -1q-27 -2 -73 -2h-9.5h-19.5h-27h-31h-30h-33q-44 2 -57 2q-16 1 -24 1q-9 0 -50 2q-20 0 -28 1q-23 1 -45 0q-11 0 -20.5 0.5t-26.5 0.5h-22.5h-15.5h-16.5h-14t-15.5 0.5t-17.5 0t-12 0.5t-5.5 0q-2 0 -9.5 1
t-8 1.5t-1 17.5t-1.5 43l-1 38q0 12 -0.5 20.5t-0.5 12t-0.5 17.5t-0.5 27t-1 35.5t-1.5 42t-1 34l-1 28.5t-1.5 28q-2 58 -2 63q0 8 -3 76q-1 37 -1 53q0 11 -1 21q-1 13 -2 49v27q-1 14 -1 30.5t-0.5 29t-0.5 28.5q-1 15 -1 27v29.5t-0.5 31.5t-0.5 20.5v18.5v43v24.5
t-0.5 20t-0.5 17.5q0 19 1 44q0 8 -0.5 14t0 13t0.5 17q-1 33 0 44v16.5t1 10.5q2 1 34 1q5 0 10.5 0.5t12.5 0.5h8h7.5t12.5 0.5t17.5 0t22 0.5t14 0.5t12.5 0t9.5 0t10.5 0t13.5 0t6.5 -0.5q3 1 14.5 1.5t15.5 -0.5q6 -1 7.5 0t13.5 1h21q53 1 100 0h25l21 1q28 1 30 0
q1 -1 12 0t13.5 0.5t9 0t13.5 0.5h15t11 -0.5t11 0t9.5 0t8.5 -0.5h14h11.5t8.5 -0.5t14.5 0t16.5 0t18 -0.5h13h12q33 2 44 2q22 1 33 0q6 0 15.5 0.5t15 0t10.5 -0.5h11.5t18.5 0.5t13.5 0t12 -0.5t14.5 -0.5t11 -0.5q22 1 45 0h17q5 0 11.5 -0.5t13.5 -0.5t8.5 -0.5
t10.5 0t13 0.5q9 -1 18 -1q5 0 6 -0.5t16.5 -0.5h21.5h16.5t12.5 -0.5t14.5 0t18.5 -0.5t15.5 -0.5t22.5 -0.5t24 -1q13 1 25 0q9 0 61 -2q15 -1 20 -1t5.5 -0.5t0.5 -10v-16.5q0 -9 -3 -83q-2 -58 -3 -82t-1 -30.5t-1 -28.5q-2 -110 -4 -161q-3 -50 -3 -107v-32t-0.5 -24
t-0.5 -22.5t-1 -28.5q-1 -75 -4 -101q0 -4 -3 -36q-5 -70 -8 -102q-1 -12 -1 -17l-1 -12l-2 -14q-4 -55 -6 -76q-1 -11 -2.5 -25l-2 -18.5t-0.5 -8.5t-1.5 -17.5t-2 -18.5l-1.5 -14.5t-1 -14t-1 -6.5v-2l-12 -2q-12 -1 -18 -1zM480 -33q3 1 12 2q21 3 26 5q2 0 11 2
q13 3 20 5l9 3q6 2 11 5q22 12 27 13q2 0 4.5 2.5t6 4t7 4t5.5 2.5t3 3q5 5 9 6q3 0 6 3t9.5 8t9.5 8t5 4.5t2 3t2.5 3t3.5 4.5t3.5 4t2 2.5t1.5 3t8.5 9.5t7 9t3.5 4t4.5 5.5t5 7.5t3.5 5.5t1.5 2.5t4.5 9t3.5 7.5t7.5 16.5q1 4 1 5.5t1.5 7.5t2.5 12t3 11q3 10 2 13
q0 2 1 8q1 9 2 19q1 5 0 13t-0.5 16t-0.5 8.5t-2 14.5q-3 27 -5 32q-1 3 -2.5 10.5t-3 11t-2.5 6.5q-2 7 -4 9q-1 1 -3 4q-7 14 -11 20q-4 4 -5 8q-3 7 -10 13q-1 1 -4.5 5.5t-6.5 6.5q-9 8 -12 13q-3 4 -4 5t-1 2t-3 3t-4 4t-7 6.5t-6 6t2 1.5q3 1 18 14q8 7 13 10
q10 7 11 11l4 4q12 9 30 34q3 4 6 7q6 8 10 15q2 3 3.5 4t2 3t2.5 5.5t3 5t2.5 3.5t2.5 5t1.5 3.5t0.5 2.5t2 4q4 3 4 9q-1 2 0.5 4.5t1.5 3.5t1.5 3.5t1.5 7t1.5 5.5t1 2.5t0.5 3.5t1.5 8.5t1.5 15.5t-0.5 17.5t-0.5 9.5t-1 9l-2 15q-4 26 -7 32q-1 2 -0.5 4.5t-1 4.5t-2 4
l-1.5 6l-5 10q-3 7 -4.5 11.5t-4 7.5t-5.5 10t-5 10l-7 12q-4 9 -5 9q-3 1 -12 13q-2 4 -8 11l-6 7q-2 0 -14 15l-6.5 6.5l-3 3t-5 3t-9.5 6.5q-9 7 -25 13q-4 2 -4.5 2.5t-3 0.5t-3.5 1t-7 3t-6.5 2.5t-6 2.5t-6.5 2t-6 2q-14 5 -17 5q-1 0 -2 1t-7.5 1.5t-7.5 1.5
q-3 3 -11 4q-16 2 -20 2q-2 1 -7 1t-6 0.5t-7 0t-9 0.5t-4.5 0.5t-8.5 0.5q-9 0 -16 -2q-4 -1 -7.5 -1t-6.5 -2q-7 -4 -14 -1q-7 2 -7 -2q1 -4 -7 -4q-10 -1 -12 -4q-1 -1 -2.5 -1t-2.5 -2t-6.5 -2t-7 -2t-8.5 -4.5t-8 -4.5q-2 -5 -7 -3q-4 1 -9 -3q-2 -2 -5 -2q-4 -1 -7 -8
q-1 -3 -4 -2.5t-3.5 -0.5t-5.5 -5q-9 -6 -20 -18q-2 -2 -4 -3t-3 -3t-3 -3q-5 -2 -11 -12q-2 -3 -5.5 -5l-3.5 -2q0 -1 -7.5 -7t-9.5 -7q-1 0 -2.5 1.5t-3.5 5.5q-9 18 -18 30q-10 16 -28 31l-9 9q-7 6 -13 10.5l-13 9.5t-12.5 8t-16 10t-14.5 9l-13 6l-9 4q-1 0 -7.5 2.5
l-6.5 2.5q-2 2 -26 3h-7q-2 1 -19 2h-8q-1 1 -11.5 1h-11.5h-1t-12.5 -1t-12.5 -2t-8 -1q-27 -3 -41 -7q-6 -2 -8.5 -1.5t-4 -1.5t-5.5 -2.5t-10.5 -2.5t-10.5 -3q-11 -3 -20 -8q-3 -2 -7 -3t-6.5 -2.5t-4.5 -1.5q-8 -1 -10 -5q0 -1 -3.5 -3t-5 -3.5t-3 -2t-2.5 -1.5t-9 -7
q-3 -2 -6.5 -5.5t-4.5 -3.5t-4.5 -4t-5 -5.5t-8 -9.5t-7.5 -8t-3 -4q-5 -8 -11 -16q-2 -2 -3 -4.5t-4 -6.5q-13 -14 -12 -18q0 -1 -4 -6.5t-4 -6t-7 -17.5t-7.5 -20t-2 -4t-2 -3.5t-1.5 -3.5t-1 -3t-2 -8t-2 -9t-1.5 -5t-2 -7t-1.5 -7.5t0.5 -12t0 -11.5t-0.5 -4.5t0 -6
t-1 -8t-0.5 -11t0.5 -7.5t1 -5q0 -2 1.5 -8t2.5 -7q2 -1 3 -10q1 -4 2 -5q1 0 2 -2.5t1.5 -4t0 -1.5t1 -2.5t1.5 -4t1.5 -3t5.5 -7.5q10 -19 25 -32q1 -1 3 -4t4 -5l7 -7l16 -16q5 -5 14 -15l9 -9l9 -8q30 -30 54 -41q5 -2 8 -4q2 -1 11 -5t10 -4l3.5 -1.5t6.5 -3t2.5 -1.5
t-9.5 -3q-12 -4 -28 -10q-13 -4 -19 -9q-2 -3 -6 -4t-5 -3.5t-3 -3t-3 -3t-6 -4.5q-2 0 -3 -2t-4 -2t-4 -2t-3.5 -3.5t-4.5 -3t-7 -4.5t-6.5 -5.5t-2.5 -2.5t-4 -2.5t-5 -4t-3 -4.5q-2 -4 -8 -10q-11 -9 -11 -12q0 -1 -3 -4q-7 -8 -10 -15q-2 -3 -6 -8t-4 -7q-1 -4 -5 -15
q-6 -14 -5 -16l-2 -4t-2 -7t-1.5 -6t-2 -7.5t-1.5 -7t-1 -4t-1 -4t-1 -3.5q1 -5 -2 -13q0 -3 -1.5 -13t-3 -16t-1.5 -8.5t-0.5 -6.5t0.5 -13t2 -10t2 -9q1 -10 4 -15q1 -1 1 -3t2 -3t2 -3q1 -6 6 -9q1 -1 1 -2q0 -3 5 -10t7 -9q3 -2 3.5 -4.5t5 -8t4.5 -6t5 -5t5 -5.5
t2 -2.5t2.5 -4t4 -5.5t6.5 -7.5t10 -11.5t8.5 -9t5 -5.5t4.5 -5.5q2 -3 21 -17.5t22 -15.5q4 -2 4 -2.5t4 -2.5t9 -5.5t7 -4t3 -1.5t5 -2q9 -2 21 -6q5 -2 6.5 -2t8 -1.5t9 -1t5.5 -0.5q5 -2 22 -2q9 0 10 -1q3 0 30 2q12 1 26 5q5 1 11 3q40 10 52 15t18 7q3 1 7 2l11 4
q7 3 9 4l4 2q5 0 13 9q5 6 11 14q12 16 29 36q6 6 10.5 12t6.5 7l12 15q6 7 8 8.5t4 -0.5t5 -6l9 -10q14 -17 22 -24l10 -9q20 -17 47 -31q28 -15 42 -19q5 -1 7.5 -2t9 -2t9.5 -2t5.5 -1t9.5 -2.5t19 -2.5t19.5 0.5t10.5 0.5q3 -1 7 1zM400 915.5q0 0.5 -1 0.5h-1
q0 -1 1 -1t1 0.5zM296 909q10 3 18 11q12 13 11 25q-1 6 2 7l2 2q-1 1 -2 6t-0.5 6t0.5 4.5t-2.5 3.5t-6.5 4.5t-6.5 5.5t-8 4.5t-7.5 3.5q-7 -1 -19 4q-4 1 -13 -1t-12 -5q-2 -1 -5 -3q-9 -7 -11 -17q-1 -3 0 -13t4 -19t6 -13q5 -8 18 -15q14 -7 32 -1zM378 919q0 1 -0.5 1
t-0.5 -1v-1q1 0 1 1zM375.5 922.5q0.5 0.5 0 1.5t-1.5 0.5t-1 -1.5t1 -1t1.5 0.5zM401 927v6l-1 1h-2q-2 -1 -2 -4t1 -4q4 -3 4 1zM484.5 966q1.5 1 1 4.5t-1.5 4.5t-2.5 -0.5t-1 -2.5t-0.5 -3q-2 -4 2 -4q1 0 2.5 1zM517 987.5q-1 0.5 -1.5 0.5t-0.5 -0.5t1.5 -0.5t0.5 0.5
zM525 988v1h-1t-1 -1t0.5 -1t1.5 1zM561 992q0 1 -1 1h-0.5t-0.5 -1q0 -2 2 0zM368 977.5q-1 0.5 -1.5 0t0 -1t1.5 0t0 1zM830 -122q-15 0 -44 -1q-18 -1 -28.5 -1t-20 -0.5t-20 -0.5h-16.5h-10t-13.5 -0.5t-10 0t-13 -0.5t-20 -1t-20.5 -1q-24 -2 -32 -1h-12q-17 -1 -31 0
q-24 1 -42 1h-18t-19 1h-31q-7 0 -22 0.5t-19.5 0.5t-20 0.5t-25.5 0.5h-28q-7 -1 -18.5 -1t-13.5 -1q-27 -2 -73 -2h-9.5h-19.5h-27h-31h-30h-33q-44 2 -57 2q-16 1 -24 1q-9 0 -50 2q-20 0 -28 1q-23 1 -45 0q-11 0 -20.5 0.5t-26.5 0.5h-22.5h-15.5h-16.5h-14t-15.5 0.5
t-17.5 0t-12 0.5t-5.5 0q-2 0 -9.5 1t-8 1.5t-1 17.5t-1.5 43l-1 38q0 12 -0.5 20.5t-0.5 12t-0.5 17.5t-0.5 27t-1 35.5t-1.5 42t-1 34l-1 28.5t-1.5 28q-2 58 -2 63q0 8 -3 76q-1 37 -1 53q0 11 -1 21q-1 13 -2 49v27q-1 14 -1 30.5t-0.5 29t-0.5 28.5q-1 15 -1 27v29.5
t-0.5 31.5t-0.5 20.5v18.5v43v24.5t-0.5 20t-0.5 17.5q0 19 1 44q0 8 -0.5 14t0 13t0.5 17q-1 33 0 44v16.5t1 10.5q2 1 34 1q5 0 10.5 0.5t12.5 0.5h8h7.5t12.5 0.5t17.5 0t22 0.5t14 0.5t12.5 0t9.5 0t10.5 0t13.5 0t6.5 -0.5q3 1 14.5 1.5t15.5 -0.5q6 -1 7.5 0t13.5 1
h21q53 1 100 0h25l21 1q28 1 30 0q1 -1 12 0t13.5 0.5t9 0t13.5 0.5h15t11 -0.5t11 0t9.5 0t8.5 -0.5h14h11.5t8.5 -0.5t14.5 0t16.5 0t18 -0.5h13h12q33 2 44 2q22 1 33 0q6 0 15.5 0.5t15 0t10.5 -0.5h11.5t18.5 0.5t13.5 0t12 -0.5t14.5 -0.5t11 -0.5q22 1 45 0h17
q5 0 11.5 -0.5t13.5 -0.5t8.5 -0.5t10.5 0t13 0.5q9 -1 18 -1q5 0 6 -0.5t16.5 -0.5h21.5h16.5t12.5 -0.5t14.5 0t18.5 -0.5t15.5 -0.5t22.5 -0.5t24 -1q13 1 25 0q9 0 61 -2q15 -1 20 -1t5.5 -0.5t0.5 -10v-16.5q0 -9 -3 -83q-2 -58 -3 -82t-1 -30.5t-1 -28.5
q-2 -110 -4 -161q-3 -50 -3 -107v-32t-0.5 -24t-0.5 -22.5t-1 -28.5q-1 -75 -4 -101q0 -4 -3 -36q-5 -70 -8 -102q-1 -12 -1 -17l-1 -12l-2 -14q-4 -55 -6 -76q-1 -11 -2.5 -25l-2 -18.5t-0.5 -8.5t-1.5 -17.5t-2 -18.5l-1.5 -14.5t-1 -14t-1 -6.5v-2l-12 -2q-12 -1 -18 -1z
M504 -29q13 2 14.5 2.5t10.5 2.5q16 3 28 8q4 2 5.5 2t7.5 3q25 14 27 15q1 0 5 2l8 4q3 2 9.5 7t14.5 9q14 9 25 22l16 19q30 36 30 39q0 1 3 6t3 5.5t2.5 5t2.5 5.5t1.5 4t3.5 8.5t3 8.5t0.5 4t3.5 15q4 18 5 25l2 12q5 35 -2 81q-6 35 -8 40q-2 3 -3 6q-2 7 -4 9
q-1 1 -3 4q-7 14 -11 20q-4 4 -5 8q-3 7 -10 13q-1 1 -4.5 5.5t-6.5 6.5q-9 8 -12.5 13.5t-19.5 17.5q-6 5 -6 6.5t4 4.5q5 3 17 13l13 10q10 7 11 11l4 4q12 9 30 34q3 4 6 7q12 15 12 18q0 1 3.5 5.5t3 5t2.5 4.5t2.5 6t1.5 4q6 6 6 13q-1 1 0 3q4 9 6 17q1 4 1.5 8.5
t1 8.5t1.5 11q3 23 0 54.5t-9 45.5q-1 3 -1.5 5.5t-1.5 6.5l-5 10q-3 7 -4.5 11.5t-4 7.5t-5.5 10t-5 10l-7 12q-4 9 -5 9q-3 1 -12 13q-2 4 -8 11l-6 7q-2 0 -14 15l-6.5 6.5l-3 3t-5 3t-9.5 6.5q-9 7 -25 13q-4 2 -4.5 2.5t-3 0.5t-3.5 1t-7 3t-6.5 2.5t-6 2.5t-6.5 2
t-6 2q-14 5 -17 5q-1 0 -2 1t-7.5 1.5t-7.5 1.5q-3 3 -11 4q-16 2 -20 2q-2 1 -7 1t-6 0.5t-7 0t-9 0.5t-4.5 0.5t-8.5 0.5q-9 0 -16 -2q-4 -1 -7.5 -1t-6.5 -2q-7 -4 -14 -1q-7 2 -7 -2q1 -4 -7 -4q-10 -1 -12 -4q-1 -1 -2.5 -1t-2.5 -2t-6.5 -2t-7 -2t-8.5 -4.5t-8 -4.5
q-2 -5 -7 -3q-4 1 -9 -3q-2 -2 -5 -2q-4 -1 -7 -8q-1 -3 -4 -2.5t-3.5 -0.5t-5.5 -5q-9 -6 -20 -18q-2 -2 -4 -3t-3 -3t-3 -3q-5 -2 -11 -12q-2 -3 -5.5 -5l-3.5 -2q0 -1 -7.5 -7t-9.5 -7q-1 0 -2.5 1.5t-3.5 5.5q-9 18 -18 30q-10 16 -28 31l-9 9q-7 6 -13 10.5l-13 9.5
t-13 8l-14 9q-15 9 -27 15q-21 10 -52 12q-15 2 -18 2.5t-6 0.5h-7q-18 3 -67 -4q-42 -6 -46 -10q-1 -1 -5 -1.5t-10.5 -2.5t-10.5 -3q-9 -2 -19 -7q-15 -8 -20 -8q-7 -1 -9 -5q0 -1 -3.5 -3t-5 -3.5t-3 -2t-2.5 -1.5t-9 -7q-3 -2 -6.5 -5.5t-4.5 -3.5t-4.5 -4t-5 -5.5
t-8 -9.5t-7.5 -8t-3 -4q-4 -8 -11 -16q-2 -2 -3 -4.5t-4 -6.5q-13 -14 -12 -18q0 -1 -4 -6.5t-4 -6t-6 -15t-6 -15.5t-4.5 -12t-4 -12t-2 -6t-2.5 -8.5t-1 -6.5q-3 -9 -2 -23q2 -13 0.5 -15t-1.5 -4.5t-0.5 -9t1 -21.5t5.5 -28q12 -31 23 -45t17 -19q1 -1 3 -4t4 -5l7 -7
l16 -16q5 -5 14 -15l9 -9l9 -8q30 -30 54 -41q5 -2 8 -4t11 -5l13 -5q3 -2 7.5 -3.5t4 -2t-8.5 -3.5l-17 -5q-8 -3 -11 -4q-15 -5 -23 -11q-2 -2 -5.5 -3t-4.5 -3.5t-3 -2.5t-3 -2.5t-6 -4.5q-2 0 -3 -2t-4 -2t-4 -2t-3.5 -3.5t-4.5 -3t-7 -4.5t-6.5 -5.5t-2.5 -2.5t-4 -2.5
t-5 -4t-3 -4.5q-2 -4 -8 -10q-11 -9 -11 -12q0 -1 -3 -4q-7 -8 -10 -15q-2 -3 -6 -8t-4 -7l-5 -15q-3 -8 -5 -16l-3 -11q-3 -7 -4 -14t-2 -8.5t-1 -6.5q-1 -8 -4 -23q-2 -8 -2.5 -13.5t-2.5 -13.5q-3 -18 5 -46q4 -13 12 -26q19 -31 35 -50l13 -16q6 -7 11 -12t13.5 -14.5
t11.5 -13.5q21 -19 37 -28q7 -4 18.5 -11.5t18.5 -9.5q34 -10 39 -10q4 0 15 -2q41 -6 81 5q5 1 11 3q40 10 52 15t18 7q3 1 7 2l11 4q7 3 9 4l4 2q5 0 13 9q5 6 11 14q12 16 29 36q6 6 10.5 12t6.5 7l12 15q6 7 8 8.5t4 -0.5t5 -6l9 -10q14 -17 22 -24l10 -9q20 -17 47 -31
q28 -15 42 -19q5 -1 7.5 -2t9 -2t9.5 -2t5 -1t10 -2q8 -3 18 -3q35 1 62 6zM296 909q22 7 28 28q3 11 -2 27q-4 11 -15 18q-4 2 -4.5 2t-3.5 1.5t-7.5 2t-6.5 1.5q-8 3 -18 2q-14 -3 -21 -10q-16 -17 -6 -43q3 -9 6 -13q5 -8 18 -15q14 -7 32 -1zM822.5 -122
q-13.5 0 -23.5 -0.5t-25 -1.5t-23.5 -0.5t-19.5 -0.5q-20 -1 -40 -1q-16 0 -40 -2q-15 -1 -17.5 0t-20.5 -1q-27 -2 -29 -1t-31 -1q-6 0 -8.5 1t-21.5 1q-8 0 -11 0.5t-11.5 0t-18.5 0t-22 1.5h-31q-7 0 -22 0.5t-19.5 0.5t-20 0.5t-25.5 0.5q-16 0 -30 -1h-16t-13 -0.5
t-9.5 -0.5t-16.5 -1q-32 -2 -70 -1h-34h-31h-30h-33q-44 2 -57 2q-16 1 -24 1q-9 0 -50 2q-20 0 -28 1q-24 1 -42 0q-7 0 -16.5 0.5t-11.5 -0.5t-6 0t-18 1h-20.5h-16.5h-16.5h-14.5q-7 0 -14.5 0.5t-16 0t-11 0t-6.5 0.5q-8 0 -17 2q-2 0 -2 5q0 17 -3 102q-1 20 -1 24.5
v18.5q-1 15 -1 27.5t-1 35.5t-1.5 29t-1 27t-1 34t-1 22t-0.5 22l-1 20q-2 62 -3 88q0 14 -0.5 29t-1 34t-1.5 41q-1 23 -2 60q0 12 -0.5 27t-0.5 24.5t-1 27.5q-1 40 -1 65v24q0 11 -1 27v44q-1 34 0 43v14.5v19.5q-1 8 -1 18q0 13 1 44q0 9 -0.5 14.5t0 12.5t0.5 17
q-1 35 0 44v17v10l4 1h14.5t22.5 1q57 1 63 1q4 -1 16 0t20 0.5t23 0t19.5 0.5t15.5 0.5t17.5 0t17.5 0.5h37h10h8t13 0.5t15 0.5h15h13.5h18.5t14 -0.5t10 0.5q7 0 27.5 0.5t23.5 -0.5q3 0 35 1h15h26q1 -1 7 -0.5t11 0.5h29q9 0 16 -0.5t14 -0.5h19q4 -1 20 -0.5t17 0
t15 0.5t25 2h17h19q14 -1 24 0q5 0 7 -0.5t11 0t10 -0.5q3 -1 25 1h11q6 -1 17 -1h14q23 -1 23.5 -0.5t9.5 0.5h14t8.5 -0.5t10 -0.5t24 -0.5t23.5 0t11 -0.5h12q15 -1 32 -1q10 0 15 -0.5t19 0t16 0t11.5 -0.5t21 -0.5t16.5 -0.5h6q3 -1 29 -1q21 0 43 -1h12.5t11 -0.5
t11.5 -0.5l12 -1q31 -1 32 -1q1 -1 1 -10.5v-16.5q0 -6 -1 -16l-2 -67q-2 -57 -3 -75l-1 -24v-10v-18q-1 -53 -2 -61v-29q-1 -42 -3 -74q-3 -61 -3 -118v-29v-19l-1 -23q0 -16 -0.5 -21.5t0 -15.5t0 -15t-1.5 -26q-1 -32 -3 -66l-1 -14q-1 -8 -2 -18l-4 -48q-3 -39 -4 -51
t-1.5 -17t-0.5 -12l-2 -14q-4 -53 -6 -76l-2 -23t-2 -18t-1 -11q-1 -9 -4 -46q-1 -9 -1.5 -14t-1.5 -9v-4l-12 -2q-12 -1 -25.5 -1zM504 -29q13 2 13.5 2.5t9.5 2.5q17 3 30 8q4 2 5.5 2t7.5 3q25 14 27 15q1 0 5 2l8 4q3 2 9.5 7t14.5 9q14 9 25 22l16 19q30 36 30 39
q0 1 3 6t3 5.5t2.5 5t2.5 5.5t1.5 4t3.5 8.5t3 8.5t0.5 4t3.5 15q4 18 5 25l2 12q4 23 1 55q-1 17 -8 51q-2 14 -6 15q0 1 -0.5 4t-1.5 4t-3.5 7t-4.5 8t-2.5 3.5t-3 5t-2.5 4.5t-1.5 2.5t-3.5 4.5q-3 8 -8 11q-3 3 -6 7q-5 7 -12 14q-7 6 -8 10q0 4 -8 10q-17 13 -17 14
q-1 1 1.5 3t3.5 3l5 4l12 10q15 11 23 19l6 6q9 8 27.5 31t18.5 26q0 1 3.5 5.5t3 5t2.5 4.5t2.5 6t1.5 4q6 6 6 13q-1 1 0 3q4 9 6 17q1 4 1.5 8.5t1 8.5t1.5 11q8 54 -11 106q-2 5 -3 8.5t-2 6.5q-5 8 -7 12q-1 4 -3.5 8t-2.5 5q-1 9 -7 14q-2 1 -2 3t-7 11q-1 2 -1 3.5
t-2 2.5t-4 4.5t-3.5 4.5t-2.5 3t-4 4.5t-6.5 7.5t-5.5 7q-10 8 -13 14q-2 2 -3.5 3t-3.5 3.5t-5 4.5t-9.5 7t-10 6t-6.5 3.5t-4.5 2.5t-5 1.5t-4.5 1.5t-3 1.5t-5 2t-5 2t-3.5 1.5t-2 0.5t-2 0.5t-3.5 1.5t-7 3t-7 3t-4.5 0.5t-4.5 0.5t-3 1t-3 1t-7 2t-7 2t-4 1t-4 0.5
q-5 3 -24 5q-3 0 -6.5 1t-5 1t-2 1t-3 0t-7 -0.5t-7 0.5t-5.5 0.5t-4 0t-3 0t-3.5 -0.5t-4.5 0q-3 0 -13 -1.5t-11 -2.5q0 -1 -3.5 -0.5t-8 -1.5t-5.5 -2q-6 1 -10 -3h-3.5t-4.5 -1.5t-4.5 -1.5t-7 -3t-6 -3t-4 -1.5t-3.5 -0.5q-3 1 -4 -4q-1 -4 -4 -1h-4t-6 -3t-4.5 -4
t-4 -2t-5 -2t-6.5 -2.5t-3.5 -1.5t-3.5 -3t-6.5 -4.5t-5.5 -4t-3 -2.5q-1 -1 -5 -3.5t-4 -3.5q-1 -2 -4 -3q-2 -1 -6.5 -6t-4.5 -6q0 -2 -8 -4q-2 -1 -8 -8q-13 -14 -15 -14l-4.5 -3.5t-6.5 -4.5t-3.5 0.5t-5.5 10.5q-2 4 -2.5 4.5t-5.5 8.5q-5 9 -18 25q-6 9 -19 20
q-4 3 -6 6q-5 5 -35 26q-10 7 -34 21q-15 9 -30 14q-11 3 -33 5q-16 2 -19 2q-13 2 -32 2q-26 -1 -54 -6q-9 -2 -17 -3q-20 -3 -24 -6q-1 -1 -5 -1.5t-13.5 -4t-14.5 -4.5t-10.5 -4t-9.5 -4t-7 -3t-7.5 -3t-6.5 -3t-4.5 -3.5t-4 -3t-3 -2t-6 -4.5t-6 -5t-4.5 -4.5t-5 -4
t-5 -4.5t-4.5 -4.5t-5.5 -6.5q-6 -6 -10 -11q-4 -4 -6 -7.5t-4.5 -6t-2 -3.5t-2 -3t-3.5 -4.5t-6 -9.5q-11 -13 -10 -16q0 -1 -4 -6t-4 -5.5t-6 -15t-6 -15.5t-4.5 -12t-4 -12t-2 -6t-2.5 -8.5t-1 -6.5q-3 -9 -2 -23q2 -13 0.5 -15t-1.5 -4.5t-0.5 -9t1 -21.5t5.5 -28
q12 -31 23 -45t17 -19q1 -1 3 -4.5t3 -4t6 -5.5l23 -24q3 -2 6 -6q15 -17 37 -35q20 -17 52 -32l8 -4q22 -7 21 -9q0 -1 -8 -4l-17 -5q-8 -3 -11 -4q-15 -5 -23 -11q-2 -2 -5.5 -3t-4.5 -3t-3 -2.5t-2 -2.5q0 -1 -3 -4t-4 -3q-1 -1 -1.5 -2.5t-4 -2t-5 -2.5t-4 -2.5
t-3.5 -2.5q-3 -6 -9 -6q-1 0 -5.5 -4.5t-8.5 -7.5q-7 -3 -10 -11l-3 -3q-3 -2 -6.5 -6t-3.5 -5t-2 -3q-5 -4 -13 -18q-2 -4 -6 -8t-4.5 -7.5t-3.5 -10.5q-3 -8 -6 -19l-3 -11q-3 -7 -4 -14t-2 -8.5t-1 -6.5q-1 -8 -4 -23q-2 -8 -2.5 -13.5t-2.5 -13.5q-3 -18 5 -46
q4 -13 12 -26q19 -31 35 -50l13 -16q6 -7 11 -12t13.5 -14.5t11.5 -13.5q21 -19 37 -28q7 -4 18.5 -11.5t18.5 -9.5q34 -10 39 -10q4 0 14 -2q12 -2 43 0q19 0 51 8q31 8 45 13l16 6q11 5 19 7q3 1 11 4t9 4q5 0 12 9q4 4 11 12q14 19 36 45l14 16q17 21 18 21q2 0 12 -13
q12 -17 27 -29l10 -9q19 -17 47 -31q27 -15 42 -19q5 -1 7.5 -2t5.5 -2q8 0 13 -2q4 -1 6 -1t9 -2q8 -3 19 -3q33 1 61 6zM296 910q22 8 28 28q3 10 -2 26q-4 11 -15 18q-4 2 -4.5 2t-3.5 1.5t-7.5 2t-6.5 1.5q-8 3 -18 2q-14 -3 -21 -10q-16 -17 -6 -44q5 -13 16 -21
q9 -6 16 -8q14 -2 24 2zM824.5 -122q-11.5 0 -15.5 -0.5t-6 0t-14 -0.5l-20 -1q-10 -1 -19 0q-19 0 -52 -2q-7 -1 -9 0t-9 0t-8 -2t-4.5 0.5t-11.5 0.5l-7 -1q4 -2 1 -5q-1 -1 -2 1q-3 3 -9 1q-2 -2 -3.5 -1.5t-1.5 2.5t-1.5 2.5t-7 -1t-7.5 -1.5q-22 -1 -28 -3
q-4 -1 -6.5 1t-8.5 1.5t-9.5 -1.5t-5.5 1t-4.5 0.5t-5.5 -1.5t-4 1t-3 1h-4l-2 -1l-2 1q-3 1 -11.5 1t-11.5 0.5t-11.5 0t-18.5 0t-22 1.5h-31q-7 0 -22 0.5t-19.5 0.5t-20.5 0.5t-25 0.5q-25 0 -27 -1h-4q-5 1 -28 -1h-9.5t-17 -1t-30.5 -1l-18 -1q-3 0 -25 1h-30h-31h-30
h-33q-43 2 -57 2q-16 1 -24 1q-9 0 -50 2q-20 0 -28 1q-24 1 -42 0q-6 0 -17 0.5t-11 -0.5q0 -3 -6 0q-5 2 -28 1h-11.5h-6.5h-25h-14.5t-15 0.5t-16 0t-11 0t-6.5 0.5q-8 0 -17 2q-2 0 -2 5q0 17 -3 102q-1 20 -1 24.5v18.5q-1 15 -1 27.5t-1 35.5t-1.5 29t-1 27t-1 34
t-1 22t-0.5 22l-1 40q-1 14 -1.5 33t-1 29.5t-0.5 14t-0.5 19.5t-1 35t-1.5 41q-1 23 -2 60q0 12 -0.5 27t-0.5 24.5t-1 27.5q-1 40 -1 65v24q0 11 -1 27v44q-1 34 0 43v14.5v19.5q-1 8 -1 18q0 13 1 44q0 9 -0.5 14.5t0 12.5t0.5 17q-1 35 0 44v17t0.5 11t18 1.5t25.5 1
t8.5 0t9.5 0t18 0.5q22 0 39 1h12.5h5.5q47 1 75 1q9 0 18.5 0.5t29.5 0.5q46 0 52 1q5 0 8 -0.5t13.5 0t18.5 0t15 0.5h30h10h11q18 0 46 1h42q13 -1 35 0q12 0 16.5 -0.5t7 0t11.5 -0.5h26q9 0 14.5 -0.5t13.5 0t12 0.5h21q30 2 43 2h24h16q6 0 6.5 0.5t2.5 -1t5.5 -0.5
t6 0.5t16.5 0.5q14 0 22 -0.5t14 -0.5q6 1 24.5 0.5t22.5 -0.5q4 -1 10.5 -1t7.5 0.5t15.5 0t20.5 -0.5t9 -0.5t3.5 0t8.5 0t14.5 -0.5h11h7.5q16 0 23 -1q4 -1 6 0t5 0t3.5 -0.5t16 0t24 -0.5t13.5 -0.5t17.5 -0.5h18.5q27 -1 45 -1q7 0 12.5 -0.5t13.5 -0.5q10 0 22 -1
q3 0 21 -1q38 -1 42 -1q3 -1 5 0q4 0 5 -2v-11.5v-15.5q0 -6 -1 -16l-2 -67q-2 -57 -3 -75l-1 -24v-10v-18q-1 -53 -2 -61v-29q-1 -42 -3 -74q-3 -61 -3 -118v-29v-19l-1 -23v-22q-1 -22 0 -26q1 -2 0 -2.5t-2 -28.5q-1 -32 -3 -65l-1 -14q-1 -8 -2 -18l-4 -48
q-3 -39 -4 -51t-1.5 -17t-0.5 -12l-2 -14q-4 -53 -6 -76l-2 -23t-2 -18t-1 -11q-1 -9 -4 -46q-1 -9 -1.5 -14t-1.5 -9v-4l-12 -2q-12 -1 -23.5 -1zM504 -29q13 2 13.5 2.5t9.5 2.5q17 3 30 8q4 2 5.5 2t7.5 3q25 14 27 15q1 0 5 2l8 4q3 2 9.5 7t14.5 9q14 9 25 22l16 19
q30 36 30 39q0 1 3 6t3 5.5t2.5 5t2.5 5.5t1.5 4t3.5 8.5t3 8.5t0.5 4t3.5 15q4 18 5 25l2 12q4 23 1 55q-1 17 -8 51q-2 12 -6 15q0 1 -0.5 4t-1.5 4t-3.5 7t-4.5 8t-2 3t-1.5 2t-1.5 2q-1 7 -6 9q-6 2 -7 11q0 2 -3 4t-3.5 4t-3 2.5t-3 2.5t-2.5 3t-2 3t-2.5 4t-3 1.5
t-2 1t-1.5 2.5q0 2 -2 5l-2 5q-2 3 -18 15q-6 5 -6 6q-1 1 1.5 3t3.5 3q1 0 2 1q3 5 9 8q2 1 6 5t5 4q4 0 18 15l10 11q7 6 7 7t4.5 5t9.5 11l11 15q10 12 10 14q0 1 3.5 5.5t3 5t2.5 4.5t2.5 6t1.5 4q6 6 6 13q-1 1 0 3q4 9 6 17q1 4 1.5 8.5t1 8.5t1.5 11q8 54 -11 106
q-2 5 -3 8.5t-2 6.5q-5 8 -7 12q-1 4 -3.5 8t-2.5 5q-1 9 -7 14q-2 1 -2 3t-7 11q-1 2 -1 3.5t-2 2.5t-4 4.5t-3.5 4.5t-3.5 4t-4.5 4t-2.5 2q0 5 -4 6q-1 1 -0.5 2t-2.5 3t-6 5l-6 6q-2 2 -2.5 4t-2.5 3t-4 4t-5.5 4.5t-9.5 6.5t-10 5.5t-5 2.5q-3 4 -6 3q-2 0 -4.5 1
t-3.5 1t-3.5 2.5t-5.5 3t-5 2t-3.5 1.5t-2 0.5t-2 0.5t-3.5 2q-3 2 -5 0q-1 -1 -2.5 1t-3 2t-3.5 2t-4 1h-8q0 1 -2.5 2.5t-5.5 2t-4 -0.5t-3 -0.5t-2 1.5q0 3 -5 2q-1 0 -7 2q-14 5 -19 2q-1 -1 -4 1.5t-6.5 2.5t-4 0.5t-2 0.5t0 -1.5t0 -2.5t-3.5 1t-4.5 1t-6 -0.5t-4 1.5
t-3 1.5t-5 -1t-5.5 -1t-7.5 -0.5t-5.5 0q-2 2 -4 -1q-2 -1 -4 -1.5t-3 1.5q-1 1 -4 -1q-8 -5 -9 -3l-6 -1q-9 -1 -12 -4q-6 -5 -10 -3q-2 1 -6 -1.5t-5 -3.5t-4 -1.5t-4 -1.5t-3 0t-3.5 -0.5t-1.5 -2.5q0 -2 -2 -3t-4 1q-3 4 -7 -1q-2 -3 -1 -4l-1 -1t-3 -1.5t-5 -1.5
t-3.5 -2t-4 -2t-5 -2t-3 -1t-4 -2.5t-4.5 -2.5t-1.5 -1.5t-2 -3.5t-4.5 -2q-1 0 -3.5 -1.5t-4 -3l-1.5 -1.5q0 -1 -1.5 -2t-3.5 -2q-6 -2 -11 -12q-1 -2 -2 -2t-0.5 -1t-2.5 -1q-4 0 -12 -9q-12 -13 -14 -13l-4.5 -3.5t-6.5 -4.5t-3.5 0.5t-5.5 10.5q-2 4 -2.5 4.5t-5.5 8.5
q-5 9 -18 25q-6 9 -19 20q-4 3 -6 6q-5 5 -35 26q-10 7 -34 21q-15 9 -30 14q-11 3 -33 5q-16 2 -19 2q-13 2 -32 2q-26 -1 -54 -6q-9 -2 -17 -3q-20 -3 -24 -6q-1 -1 -5 -1.5t-13.5 -4t-14.5 -4.5t-10.5 -4t-9.5 -4t-7 -3t-7.5 -3t-6.5 -3t-4.5 -3.5t-4 -3t-3 -2t-6 -4.5
t-6 -5t-4.5 -4.5t-5 -4t-5 -4.5t-4.5 -4.5t-5.5 -6.5q-6 -6 -10 -11q-4 -4 -6 -7.5t-4.5 -6t-2 -3.5t-2 -3t-3.5 -4.5t-6 -9.5q-11 -13 -10 -16q0 -1 -4 -6t-4 -5.5t-6 -15t-6 -15.5t-4.5 -12t-4 -12t-2 -6t-2.5 -8.5t-1 -6.5q-3 -9 -2 -23q2 -13 0.5 -15t-1.5 -4.5t-0.5 -9
t1 -21.5t5.5 -28q12 -31 23 -45t17 -19q1 -1 3 -4t4 -5l7 -7l16 -16q3 -4 6 -6l19 -20q12 -12 26 -23q15 -14 34 -23q6 -3 9.5 -5t9.5 -4t13 -5t8 -3l4 -4q-1 -1 -9 -3l-16 -6q-8 -2 -11 -3q-15 -5 -23 -11q-2 -2 -5.5 -3t-4.5 -3t-3 -2.5t-2 -2.5t-2.5 -4.5t-4 -4.5
t-5.5 -2.5t-5.5 -2.5t-3.5 -2q-5 -2 -4 -6q0 -2 -1 -2q-3 0 -4.5 -1.5t-4 -1.5t-7 -4.5t-7.5 -5.5q-2 -1 -5.5 -5t-3.5 -6l-3 -3q-11 -7 -10 -11q0 -1 -2 -3q-5 -4 -13 -18q-2 -4 -6 -8t-4.5 -7.5t-3.5 -10.5q-3 -8 -6 -19l-3 -11q-3 -7 -4 -14t-2 -8.5t-1 -6.5
q-1 -8 -4 -23q-2 -8 -2.5 -13.5t-2.5 -13.5q-3 -18 5 -46q4 -13 12 -26q19 -31 35 -50l13 -16q6 -7 11 -12t13.5 -14.5t11.5 -13.5q21 -19 37 -28q7 -4 18.5 -11.5t18.5 -9.5q34 -10 39 -10q4 0 14 -2q12 -2 43 0q19 0 51 8q31 8 45 13l16 6q11 5 19 7q3 1 11 4t9 4
q5 0 12 9q4 4 11 12q14 19 36 45l14 16q17 21 18 21q2 0 12 -13q12 -17 27 -29l10 -9q19 -17 47 -31q27 -15 42 -19q5 -1 7.5 -2t5.5 -2q8 0 13 -2q4 -1 6 -1t9 -2q8 -3 19 -3q33 1 61 6zM300 913q6 3 9 5t4 2.5t3 3t2 3t2 4.5q6 8 5 19q-2 15 -7 22q-2 4 -7 7q-7 5 -9 5
l-3 1.5t-7.5 2t-6.5 1.5q-8 3 -18 2q-14 -3 -21 -10q-16 -17 -6 -44q4 -9 6 -12q8 -9 21 -14q17 -6 33 2zM612 -132q0 1 0.5 1t0.5 -0.5t-1 -0.5v0zM835 -123q-1 1 -59 -1q-23 -1 -29 -1t-23 -0.5t-25 -0.5t-18.5 -1t-14 -0.5t-9.5 0.5q-5 -1 -6 -1t0 -2q0 -2 -1 -3t-2 1
q-3 3 -9 1q-5 -3 -5.5 0t-8.5 2q-5 0 -8.5 -0.5t-3.5 -1.5q0 -2 -2 0h-8.5t-10.5 -1q-6 -2 -8 0q-2 1 -6 1q-17 -2 -19 0q-1 1 -4 0q-5 -2 -10 0q-3 1 -5 0.5t-3 0t-5 0.5t-12 0.5t-20.5 0.5h-17.5q-9 1 -39 1q-7 0 -14 0.5t-22 0.5t-19.5 0.5t-20 0.5h-25.5h-29
q-8 -1 -15.5 -1t-15 -0.5t-9 0t-18 -1t-21.5 -1.5h-32q-31 1 -49 0h-23q-58 0 -73 1q-15 0 -25.5 0.5t-16 0.5h-12.5q-16 1 -25 1q-6 1 -25.5 1.5t-27.5 0.5q-47 2 -62 2h-19.5t-13.5 -1t-6 0q-5 2 -19 1q-5 -1 -5.5 0t-5.5 0.5t-10 -0.5h-13h-9h-8t-8 0.5t-7 0t-7.5 0
t-9.5 0.5l-17 -1q-7 0 -9 0.5t-7 0.5q-14 0 -18 3q-1 1 -1 17q-1 16 -1 43q-1 27 -1.5 39t-0.5 20v12t-1 18.5t-1 27t-1 35t-2 42.5q0 20 -1 34l-1 29l-2 63q-1 21 -1 26q0 11 -2 78q-1 14 -2 33q-1 34 -1 55q-1 13 -1 34q-1 12 -1.5 32.5t-1 36t-0.5 23.5q-1 31 -1 79
q0 18 -0.5 31t-0.5 20v19v21v58q-1 11 -0.5 17.5t0.5 12.5v15v39v8v11v8v28v20.5v16.5t1 11t18.5 1.5t25.5 1t8.5 0t9.5 0t18 0.5q22 0 39 1h12.5h5.5q47 1 75 1q9 0 18.5 0.5t29.5 0.5q46 0 52 1q5 0 8 -0.5t13.5 0t18.5 0t15 0.5h30h10h11q18 0 46 1h42q13 -1 35 0
q12 0 16.5 -0.5t7 0t11.5 -0.5h26q9 0 14.5 -0.5t13.5 0t12 0.5h21q30 2 43 2h24h16q6 0 6.5 0.5t2.5 -1t5.5 -0.5t6 0.5t16.5 0.5q14 0 22 -0.5t14 -0.5q6 1 24.5 0.5t22.5 -0.5q4 -1 10.5 -1t7.5 0.5t15.5 0t20.5 -0.5t9 -0.5t3.5 0t8.5 0t14.5 -0.5h11h7.5q16 0 23 -1
q4 -1 6 0t5 0t3.5 -0.5t16 0t24 -0.5t13.5 -0.5t17.5 -0.5h18.5q27 -1 45 -1q7 0 12.5 -0.5t13.5 -0.5q10 0 22 -1q3 0 21 -1q38 -1 42 -1q3 -1 5.5 -0.5t4 -0.5t1.5 -12v-16q-3 -46 -7 -171v-24q-1 -7 -1 -29q-2 -111 -4.5 -161.5t-2.5 -105.5q0 -59 -1 -93q-1 -7 -1 -19
t-0.5 -21t-0.5 -24q-1 -19 -2 -34q-5 -77 -12 -156q-1 -12 -2 -17l-1 -12l-1 -14l-6 -76q-1 -11 -3 -25q-1 -13 -1.5 -18t-0.5 -9l-2 -21q-3 -28 -4 -44l-1 -9l-13 -2q-12 -1 -13 -1zM490 -30.5q6 1.5 12 2.5t13.5 2.5l12.5 2.5q11 2 23 6q6 2 9.5 3t8.5 4q20 11 27 14
q16 7 27 17q1 0 6 4q16 10 25 20t11 12.5t5.5 6.5l10.5 12l9 11q10 12 13 20q2 2 4 5t3.5 7.5t3 6t1.5 2.5t1.5 4t3.5 9l3 9q0 3 1 6.5l3 10.5t4 19q7 42 3 84q-5 46 -12 55q-2 3 -2 5t-2 4.5t-2.5 5t-3 6.5t-3.5 6q-5 9 -9 13q-2 2 -4 6t-6 8t-4.5 5.5t-3 3t-2.5 2.5
q0 3 -8 10q-7 6 -8 10q0 5 -7 9q-4 2 -5.5 4.5t-4 3.5t-6.5 5l-4 3l2 2q1 2 4 3.5t6 4.5t12 10q19 14 23 20l5 5q10 7 22 24l9 10q16 21 16 24q0 1 3 5t4.5 7.5t2.5 4.5t1 2.5t2.5 5.5t4 8.5t2.5 7t0.5 3.5t1.5 5.5t3 8.5t1.5 8.5t1.5 7.5q4 32 1 62q-3 31 -7 41
q-2 4 -1.5 4.5t-0.5 3t-2 6t-1.5 4t-1.5 4.5t-2 5q-3 3 -7 15q-1 3 -4 7t-3 6q-1 7 -6 13q-2 2 -2 4q-1 1 -6 8.5t-5.5 7t-1.5 2t-2.5 4t-5 6t-5 5.5t-1.5 2q-1 4 -9 11l-4 4q-8 7 -9 10q0 1 -2.5 2t-4.5 4.5t-6.5 6.5l-10.5 7t-7 3q-1 0 -5.5 3.5t-7 3.5t-7 2.5t-9.5 4.5
t-7 2.5t-3 0.5t-4.5 2t-5 1.5t-2.5 1t-4 1.5t-4 1t-6 1.5t-8 2.5t-7.5 2t-6 1t-3 1t-5.5 2q-7 4 -10 1q-1 -1 -2 -0.5t-1 1.5t-3 1t-4 1t-2.5 0t-6.5 1l-10 2q1 -1 -0.5 -2t-3 0.5t-7.5 1t-9.5 1.5t-4.5 1t-13 -2.5t-16 -1.5q-13 -3 -13.5 -3.5t-1.5 0.5t-5 -1t-6.5 -2.5
t-4 -1t-4 -1t-4 -1.5t-5.5 -1.5t-8 -3.5t-6.5 -3t-4 -1.5t-3.5 -1.5t-3.5 -2.5t-3.5 -2t-5.5 0.5t-3.5 -2t-4 -4q-9 -4 -15 -6q-4 -1 -4.5 -2t-1.5 -1t-3.5 -3t-4 -3t-5.5 -4t-6 -4q-3 0 -9 -6q-2 -2 -4.5 -3.5t-4 -4t-3.5 -3.5t-3 -4t-2 -3q-7 -1 -13 -9q-3 -4 -5 -5.5
t-5 -4.5t-6.5 -5t-5.5 -4q-3 -3 -8 -4l-2 4l-3 5q-1 2 -4 7q-10 18 -14 22q-3 4 -3 4.5t-2.5 3t-2.5 3t-2.5 3t-2.5 3.5q-1 2 -6 7q-2 1 -4.5 4t-3.5 3t-4 3.5t-10 8.5q-20 16 -40 29l-10 6q-31 19 -36 19l-6 1q-12 5 -35 6q-17 2 -19 2q-2 1 -16.5 1h-24.5
q-13 -1 -27.5 -3.5t-15.5 -2.5q-3 0 -17 -2t-24 -6q-5 -2 -8 -2.5t-11 -3.5t-10 -3q-3 0 -21 -8l-11 -5q-6 -2 -7 -3t-3 -1t-2.5 -1t-3.5 -3t-4 -3q-2 -2 -15 -12q-3 -2 -6.5 -5t-4.5 -3.5t-5 -4.5l-7 -8q-3 -3 -5.5 -6.5t-4.5 -4.5l-3 -4l-2 -3q-1 -1 -10 -14
q-3 -3 -5.5 -7.5t-5.5 -7.5t-4 -5.5t-3.5 -6t-3 -5.5t-4 -6.5t-3.5 -5.5t-8 -20q-4 -8 -4 -9.5t-1 -4.5l-2 -6t-3 -6.5t-2.5 -6.5t-2 -6t-2 -8t-1 -6t-2 -6.5t0 -18t-0.5 -14.5q-2 -4 -1.5 -25t3.5 -28q1 -2 4 -12q12 -33 28 -50l15 -18l20 -20l18 -19q10 -11 27 -27
q25 -22 47 -32q4 -2 7 -4t11 -5l12 -5l10 -4q8 -2 2 -4q-2 -1 -4.5 -2t-7.5 -2.5t-12.5 -4t-11.5 -3.5q-16 -5 -22 -11q-2 -1 -5 -3q-4 -1 -5 -5q0 -1 -2 -1t-3 -2.5t-2.5 -3.5t-4.5 -4.5t-6 -3t-5 -2t-4 -3t-3 -3.5t-2 -3h-2q-1 0 -3 -1.5t-3 -1t-4 -2.5q-9 -10 -12 -10
q-1 0 -4 -4.5t-3 -5t-2 -2t-6.5 -6.5t-4.5 -6t-3.5 -4.5t-5.5 -6.5l-3 -4q-1 -1 -1 -3q-3 -8 -9 -12q-2 -2 -3 -6.5t-1.5 -5t-1 -2.5t-1.5 -4q-6 -10 -6 -16q0 -1 -0.5 -1.5t-2 -6.5t-3 -11t-2 -9.5t-1.5 -6.5t-1.5 -6.5t-1 -7.5t-1 -6.5t-1.5 -9t-2 -8.5l-1 -11
q-3 -18 -2 -25q1 -13 6 -32q3 -9 13 -25q15 -24 21 -32q18 -24 37 -44q3 -3 11 -12t12 -13q24 -22 36 -29q6 -3 18.5 -11t17 -9.5t8.5 -2.5q22 -7 36 -8q7 -1 12 -2q12 -2 43 -1q17 1 30.5 4t15 3.5l6 2t10.5 2.5q19 4 33 10l16 6q12 5 19 7q18 5 25 10q6 4 17 18
q15 20 25 31q9 11 12 15t10 12q12 14 16 20q4 5 6 5q1 0 7 -6l10 -13q3 -4 4.5 -5.5l6.5 -6.5q17 -19 39 -33l13 -8q17 -12 25 -15q2 0 9 -4q21 -11 27 -10q1 0 4.5 -1.5t5.5 -2.5q18 -2 30 -6q6 -2 13.5 -1.5t11 0t16 0.5t13 0.5t2.5 0zM300 913q18 9 23 24q3 10 -2 25
q-3 11 -12 17q-11 8 -19 8q-2 0 -7 1q-14 6 -30 -3q-18 -10 -16 -33q1 -14 9 -26q7 -10 21 -15q17 -6 33 2zM829 -124q-3 1 -17.5 0t-15.5 -0.5t-5 0t-6.5 -1.5t-5.5 0t-10.5 -0.5t-10.5 -0.5q-6 1 -9 -1q-2 -1 -3.5 1t-7.5 1t-7 -0.5t-2 -0.5t-6 0q-20 0 -23 -1
q-2 -2 -6.5 -2t-5.5 2q-4 2 -6 -1q0 -2 -1 -2.5t-3 0.5t-9 0t-9 0q-4 1 -8 -3q-1 -1 -4.5 -1t-7 -0.5t-8.5 1.5h-8l1 -1q3 -3 -4 -4q-3 0 -4 1q-1 2 -3 1q0 -1 -2 -2t-5 0t-6 1t-3.5 1.5t-4 1.5t-5 -2.5t-0.5 -4.5t-1.5 -1.5t-5.5 0.5t-4.5 0.5t-5.5 0t-5 0t-5 -0.5t-6 1
q-3 3 -7 0l-6 -1q0 1 1.5 2.5t3.5 1.5t3 1.5t2 0.5h4q0 2 -6 2q-4 0 -5 1q-4 3 -8 -1q-2 -2 -4 -2t-3.5 1.5t-3 1.5t-5 2t-5 1.5t-4 0.5t-15.5 0q-14 0 -22 1q-7 1 -34 1q-7 0 -13 0.5t-18.5 0.5h-17.5h-36q-9 0 -14.5 0.5t-15.5 0.5t-11 -1.5t-4 -0.5q-7 3 -10 -1
q-1 0 -6 1q-15 3 -26 -4q-5 -4 -10 0q-3 2 -5 2q-6 -1 -6 -3q0 -1 -3 -2t-4 -0.5t-4 0.5q-2 0 -3 2q2 2 0 2h-3q-3 -1 -3.5 -2.5t-2.5 -1.5t-2.5 1.5t-5 1t-7.5 -1.5t-5 0q-6 3 -11 3q-4 1 -13.5 1h-11.5q-3 -1 -5 -0.5t-15 0.5h-21h-30q-22 0 -40 0.5t-28 1t-15.5 0.5h-13
t-16 0.5t-15 0.5t-25.5 1t-32 1q-32 1 -33.5 1h-13.5h-30q-3 0 -5 -1q-2 -3 -8 0q-1 1 -9 1.5t-13 -0.5h-11q-8 -1 -8 -3q1 -1 0.5 -1.5t-2.5 0.5t-2 2q-1 2 -12 2h-7t-3 -1l-2 -1l-1 1q-1 1 -4 0.5t-4 0.5q-1 2 -4.5 1t-4.5 -3q-3 -3 -5 1q-2 3 -4 2q-5 -2 -12 -1
q-4 1 -7 -0.5t-4.5 -0.5t-4 0.5t-4 0.5t-9 0.5t-8 0.5t-4.5 2l-4 2v9q-1 9 -1 26q-2 87 -4 129q0 8 -1 34t-1.5 36t-0.5 29q-3 74 -4 110q-1 21 -1 32.5t-1 34.5t-2 37q-2 73 -3 95q0 14 -1 52q-3 81 -3 134q-1 38 -1 60v24.5t-0.5 20t0.5 20.5q0 25 -1 45v36q1 8 0.5 27.5
t0 31t0.5 29.5q-1 61 1 62q2 2 25 2q10 0 18 0.5t9 0t9.5 0t26 0.5t30.5 1q18 0 48 1q44 0 46 1q2 0 7 -0.5t15.5 0t11 0.5h12.5q13 1 30 1h26.5h9.5h10q36 1 43 0q2 0 13.5 0.5t16.5 0.5h11q43 -1 61 0q6 1 21 1q23 -1 42 -1q10 1 17 1l14 -1h18.5t18.5 -0.5t16 0t16.5 0
t20.5 0.5q50 2 70 2h14.5t8.5 -0.5t8 -0.5q6 1 23 1t26.5 -0.5t19.5 -0.5q16 0 34 -1q10 0 14 0.5t16.5 0t18.5 -0.5q31 -1 31.5 -1h8t14.5 -0.5t15.5 -0.5t11.5 -0.5t5.5 0t5 0t6.5 -0.5h25h15t10 -0.5t30 -0.5q6 0 22 -0.5t26.5 -1t13.5 -0.5q12 -1 22 -1h13q9 -1 35 -1
l35 -2h5q3 -2 2 -22q-1 -35 -2 -51q0 -15 -0.5 -25t-1 -30t-1 -26t-1.5 -26q0 -20 -0.5 -27t-0.5 -13.5v-15t-0.5 -18t-0.5 -22.5t-0.5 -23t-0.5 -26t-0.5 -21.5t-0.5 -9.5q0 -17 -1 -34q0 -15 -1 -24q-1 -11 -1 -32q0 -11 -0.5 -13t-0.5 -14v-23q-1 -11 -1 -20v-49v-15.5
t-0.5 -11t-0.5 -14.5v-22q-1 -11 0 -13.5t0 -3.5t-1 -8v-14l-1 -20q-1 -18 -2 -34q-1 -11 -1 -16t-0.5 -9.5t-1 -9.5t-1 -12l-2 -27.5t-2.5 -29t-1.5 -15t-0.5 -9.5q-3 -20 -4 -43q-1 -33 -8 -99q-1 -9 -1.5 -13t-1 -9t-0.5 -10l-3 -32l-2 -16q0 -7 -1 -11q-1 -6 -2 -23
q-1 -8 -5 -9q-21 -3 -28 -3zM584 -138l-4 -1q0 -1 2 -0.5t2 1.5zM492 -30q11 2 15.5 3t8.5 2t10 2q22 4 32 9q2 1 4 1.5t6 2.5q24 14 28 14q5 1 30 19q3 2 4 2q4 1 17 12q4 4 11 12l16 18q30 35 29 39q0 1 3 5t5 9q3 7 6 12q1 4 6 18q0 3 1 6.5l3 10.5q3 14 7 37q2 17 2 34
q0 8 -2.5 32t-4.5 30l-2 10t-4.5 11.5t-4 9t-2 4t-2 4t-1.5 3t-1.5 2.5t-4.5 7t-4.5 8t-1.5 3q-2 1 -6 5t-4 5q0 3 -5.5 9t-7 6t-1.5 1q0 2 -4 6t-7 4q-2 0 -2 4.5t-1 6t0 2.5q2 4 -6 8q-3 2 -5 4.5t-4.5 3.5t-6.5 5l-4 3l2 3q2 4 4 5q10 6 19 13q4 4 5 4t5 4.5t6 6t5.5 5
l6.5 6.5q12 10 25 27q2 3 6 8q9 11 15 21q4 8 6 11t2 4t1.5 2t1.5 2.5t1.5 4.5t7.5 16q1 3 0.5 4t2 6t2 6t1.5 8t2 10l1 12q1 8 2 17q1 15 -2.5 41t-6.5 32q-1 3 -1.5 6t-1.5 4.5t-1.5 3.5t-1.5 4t-1.5 5t-2 4.5t-2 3.5t-2 4.5t-3.5 7.5t-4 7.5t-2 5.5q-2 7 -6 11q-2 2 -2 4
q-1 5 -7 9q-2 2 -3 4.5t-2 3.5t-2.5 3.5t-3.5 4.5t-2 2.5t-2.5 3t-3.5 2.5q-4 0 -5 4q0 1 -2 3t-2 3.5t-2 3t-2.5 2.5t-6 6t-5.5 6t-3 2.5t-5 4.5q-2 5 -5 5q-1 0 -4.5 2.5t-5 3t-3.5 3t-3.5 2.5t-2.5 0.5t-6 2t-8 3.5t-7.5 4.5t-8 2t-5.5 1.5q-3 4 -10 4q-2 0 -4 1
q-7 5 -15 3q-9 1 -10 4l-1 2h-4q-8 2 -11 2q-2 0 -3 1t-2.5 0.5t-5.5 0.5t-5 3h-2q0 -1 -1 -1.5t-2 0.5t-13 2q-4 1 -5 0q-2 -2 -9 3q-3 1 -5 -0.5t-3 -0.5q-5 4 -10 1t-6 -1q-2 2 -19 0q-11 -1 -13 -2.5t-7.5 -1.5t-6 -1t-3.5 -2.5t-4.5 -1t-6.5 -1.5t-8.5 -3t-4.5 -3
q-2 -4 -13 -5q-5 0 -5 -2t-3.5 -2.5t-5.5 0.5h-2.5t0.5 -1q2 -3 -2 -4t-6.5 -2t-4 -1.5t-3 -1.5t-5 -2t-4 -2.5t-3 -2t-3.5 -2.5t-3 -1.5t-7 -5t-10.5 -8.5t-6 -3.5t-2 -1t-4 -5.5t-4.5 -5t-2.5 -1.5t-3.5 -2.5q-5 -1 -15 -13q-5 -5 -7.5 -6.5t-2.5 -2t-1 -1.5q-7 0 -7 -4
q0 -1 -4 -2q-6 -2 -8 3q-1 3 -3.5 6t-2.5 3.5t-3.5 6.5t-5.5 10.5t-2.5 4t-4.5 4.5q-9 13 -11 15q-1 1 -1 2t-3.5 3t-3.5 3t-4.5 4.5t-9 8.5t-7 6.5t-7 5t-12.5 8.5t-13 9q-10 8 -30.5 19.5t-23.5 10.5q-1 0 -4 2q-15 7 -44 6q-3 0 -7 1q-11 2 -31 2q-25 0 -48 -5
q-8 -2 -9 -2q-3 0 -16 -2q-22 -4 -23.5 -5t-6.5 -2t-7 -2q-4 -2 -18 -6q-6 -1 -10 -3q-18 -8 -20 -10q-2 -1 -5 -1.5t-3.5 -1l-1.5 -1.5q-5 0 -12 -7q-2 -3 -4 -3.5t-5 -3.5t-5.5 -4.5t-4 -4t-5 -4.5t-6.5 -5.5t-5.5 -5.5t-5.5 -6.5t-4.5 -5t-2.5 -3t-3 -3.5t-3 -4
t-4.5 -6.5t-3 -4.5t-1 -2t-4.5 -5.5t-6.5 -8.5t-3.5 -4.5t-3 -5t-2.5 -6t-3 -6t-7 -13t-5.5 -11.5t-3.5 -8t-2.5 -7t-2 -6.5t-3 -7.5t-2.5 -6t-2 -6t-2 -8t-0.5 -6q-4 -6 -3 -25q2 -12 0.5 -14.5t-1.5 -7t-1 -9.5q0 -5 1.5 -19t2.5 -16.5t5 -13.5q12 -34 34 -56l7 -9l21 -22
l16 -16q17 -18 32 -31q21 -19 32 -24q3 -2 5 -3q10 -6 44 -20q7 -3 7 -5q0 -1 -14 -5q-5 -2 -12.5 -4.5t-11.5 -3.5q-5 -1 -13.5 -5.5t-8.5 -5.5q-1 -1 -5 -2q-6 -2 -2 -7q1 -1 -1 -3t-3.5 -2t-5.5 -4q-6 -7 -13 -7l-1.5 -2.5t-2.5 -2.5q-4 1 -5 -3q-1 -3 -6 -6t-7.5 -2.5
t-4 -2t-5.5 -5t-4 -3t-2.5 -2t-3.5 -4.5t-3 -4t-3.5 -3.5t-4 -4t-2.5 -3.5q-1 -4 -6 -7q-2 0 -1.5 -1t-2 -4t-4 -7t-6 -9t-4.5 -6t-4 -9q-12 -27 -12 -35q1 -1 -0.5 -4t-2 -7t-2.5 -10t-2 -10q0 -5 -4 -26q-5 -29 -4 -38q3 -31 11 -43l9 -15q15 -26 30 -43q8 -10 10 -12
q4 -6 18 -21l15 -17q21 -23 45 -37q8 -4 19 -11.5t15.5 -8.5t9.5 -2.5t8 -2.5l9 -2q6 -2 12 -3q28 -3 62 -2q15 0 20.5 1.5t14.5 3.5t15.5 4t13.5 3q19 5 48 17q4 1 11 3q22 8 28 11q6 4 18 19l25 32l12 14l11 12q10 13 15 19q5 7 7 7t13 -15q13 -17 26 -27q5 -4 7 -7
q8 -7 23 -17l12 -8q14 -9 20 -12q5 -1 14 -6q21 -11 27 -10q1 0 3.5 -1.5t10.5 -2.5t11.5 -2t4.5 -1t8 -2.5t15 -2t11 -0.5q14 -1 41 4zM347.5 853.5q-0.5 1.5 0.5 1.5t1 -1t-0.5 -1.5t-1 1zM303 916q9 4 14 12q10 16 4 34q-3 11 -12 17q-11 8 -19 8q-2 0 -7 1
q-9 4 -19.5 1.5t-17.5 -9.5q-11 -12 -9 -29q3 -15 10 -25q1 -2 9 -7q13 -9 28 -8q7 0 12 2.5t7 2.5zM610.5 -142.5q-0.5 0.5 0.5 1t1 -0.5t-0.5 -1t-1 0.5z" />
  </g>

</svg>
