<?xml version="1.0" standalone="no"?>
<!DOCTYPE svg PUBLIC "-//W3C//DTD SVG 1.1//EN" "http://www.w3.org/Graphics/SVG/1.1/DTD/svg11.dtd" >
<svg viewBox="0 -200 1000 1000">
  <g transform="matrix(1 0 0 -1 0 800)">
   <path fill="currentColor"
d="M880 100q0 -2 0 47.5v136v189.5q1 379 0 379t-1 -372.5t1 -379.5zM345 342q-14 -15 -18 -32q-4 -14 3 -27t13.5 -18.5t19.5 -8.5q11 -3 67 -1t103 3q36 1 42 0t6 -5q1 -9 -13 -31q-7 -10 -15.5 -26.5t-7.5 -17.5q1 0 5 1l16 4q20 5 37 19q14 11 19 19t7 25q2 16 2 25
q0 8 -1.5 9t-10.5 1q-44 -3 -199 -3q-11 0 -11.5 1t6.5 8q9 10 15 21.5t6 20t-3.5 15t-4 6.5t-30.5 -27l-32 -27q2 2 7 8l15 15.5l20 21.5q12 13 12 15t-12 7q-4 1 -5.5 0.5t-4.5 -7.5l-9 -17.5t-9 -16l-4 -6.5q-1 1 18 49l-7 1q-4 0 -9 -1q-15 -3 -33 -23zM880 87q1 2 0 4
v-2v-2zM880 26q1 20 0 40v-20v-22v2zM880 -10q1 3 0 6v-3v-3zM880 -36q1 5 0 10v-5v-6v1z" />
  </g>

</svg>
