<?xml version="1.0" standalone="no"?>
<!DOCTYPE svg PUBLIC "-//W3C//DTD SVG 1.1//EN" "http://www.w3.org/Graphics/SVG/1.1/DTD/svg11.dtd" >
<svg viewBox="0 -200 1040 1000">
  <g transform="matrix(1 0 0 -1 0 800)">
   <path fill="currentColor"
d="M1037 1v0.5t1 0.5v-1h-1h1q1 1 1 2v1h1v-1v-1h-1l1 -1v0v-1h-1v1v0l-1 -1h-1v1zM518 143l1 1v1l-1 1h-1l1 1h1v1h-1l-1 -1l-1 2q0 2 -0.5 3.5t-0.5 2.5l1 1l-1 1h1h1h1v2v1h1l1 -1v1v0h1v-1v-3l1 -3h1v-1h1h1h-1v1h1h1h1h-1l-1 -1h1l1 1l1 1h1v-1v-1v-1v-1h-1v1h-1h-1
l-1 -1h-3h-3h-1l-1 1v1v-2v-2l1 1q1 0 3 -1l1 -2v1l-1 1h1v1h-1v0h1h1v-2l1 -1h1h1l-1 1v0h-1v1v0h1l1 -1q1 0 2 1l1 1h-1h-1v1h2h1l-1 -1h1h1l-1 -1q-6 -5 -10 -5v-1h-1zM521 145v2h-1v0v-1l1 -1v-1v1zM520 145v0h-1l1 -1v1zM523 147v1h-1v-1h1zM520 153h1v1h-1h-1
q-1 1 -1 0t2 -1zM517 154q-1 0 -1 -0.5t0.5 -0.5t0.5 1zM525 149h-1h1h1v0h-1v-1v1zM531 149v1h-1l1 1q0 1 1 1v-1v-1h1l-1 1h2l-1 -2q-2 -1 -2 0zM536 151q0 1 0.5 1h0.5l1 1h-1h1h2h-1l-3 -2h-1h1zM542 154q0 1 1 1l1 1v1h1h1v1v-1h1l1 1v1v-1h-1l1 1h1h2h1l-4 -2
q-3 -1 -5 -2zM529 155h1q0 -1 -1 -1v1zM514 159v1l1 -1h2h1l-1 -1h-1v1h-1v-1v0zM545 159h1v0v-1h-1v1zM551 161l-1 1v-1v0v1h2h2.5h1.5h1v1h1v1h1h2l-4 -2l-3 -2v1l-1 1v-1v-1q-1 0 -2 1zM520 161v1v0v-1v0zM514 162v1q0 -1 1 -1v-1h-1v1zM520 163v1v0v-1v0v0zM554 163v1v0
v-1v0zM518 165v0h-1l1 1h-1h-1l1 1h1v-1l1 -1h1h-1h-1v0zM562 165h1h-1v-1h-1zM513 166v1l-1 1v0h1v-1v-1v-1v1zM564 166v1q2 -1 0 -1l-1 -1zM518 167v0l1 1v-1v0h1v-1h-1zM565 166.5q0 0.5 1 0.5h1l-1 1v1l1 -1v1l1 1v-1v-1h1v1l1 1v1l1 -1h1v1v1l1 -1l3 1l2 1l-10 -5
q-3 -2 -3 -1.5zM514 168v1v1h-1v-1h-1v1.5v1.5h1l-1 1l-1 1l1 -1v0h-1l-1 3q0 4 -0.5 5.5t-0.5 2.5v1h-1v1v1l1 -1h1l1 1h-2v1h1v-1l1 1v1v2h1v1v-1h-1v1l-1 -1v-2h-1v2t-1 2v1h1v-1v1v0h1v1h-1h-1v0l1 1h-1v0l1 1v-1h1v0v-2v-1q1 -1 2 -1l1 1h1l-1 -2v-1l1 -1h1h-1v-1
q1 0 1 1l2 -1v-2v1h-1v-1v0h1v-1v-1l1 -1h-1v-1v-1v1h1v-1l-1 -1h1v-2q1 -1 1 -5v-4h-1h-2v1h1v0v1l-1 -1h-1l1 -1v-1l-1 -1zM516 172v1h1v0h-1v1v1h1h1h-1v1h-1v1h1v1v1l-1 1v-1v-2v1l-1 1l1 1l-1 -1h-1v1h-1v-1h1h1v-1q0 -1 -1 -2l1 -1l1 -1l-1 -1v-1h1h1h-1zM514 173v0
v-1v1zM512 176l-1 1h1h1h-1l-1 1h1l-1 1v1h-1v-1h1v-1v-2t1 -1v1zM516 180.5q0 0.5 -1 0.5q0 -1 0.5 -1t0.5 0.5zM515 182q0 1 1 1v1h-2h-1v-1h1l1 1v-1h-1v-1v-1q1 0 1 1zM511 184l-1 1v0v-1v-2h1v2zM516 188.5q0 0.5 -1 -1.5l-1 -1l1 1q1 1 1 1.5zM512 189v1l-1 -1h1v-1v0
l1 1h-1zM559 168q0 2 1 1v-1h-1zM564 168l-1 1h1l1 -1h-1zM579 174v1h1h1h1v0h-1.5t-0.5 -1h-1zM576 176l1 1v-1l-1 -1v1zM583 176l1 1h1v0v1h1h1l1 1v-1l-2 -1q-1 -1 -2 -1l-1 -1v1zM575 176v1l1 1v-1l-1 -1v0zM583 177.5v0.5v-1v0.5zM580 178v1v0v-1v-1v1zM589 179l1 1h1
v1h-1h-1h1h1v-1h1l1 1v-1q0 -2 -4 -2v1zM582 180.5q0 0.5 1 0.5q0 -1 -0.5 -1t-0.5 0.5zM585 181h1v1v-1v0h-1zM592 181v1h1l-1 1h-1h1v-1h-1v1v1h-1v0q0 1 0.5 1h2.5h1v1l-1 -1v1v1h1h1l1 -1l1 -1v1v0h-1v1h1h2v1v0h1h-1v-1l2 1q1 1 2 1l1 1v1v-1v-1h1h1v1v0l-1 1l1 -1h-1
h-1h1v1l1 2h1v-1v0q1 0 1 1v1h2h1l1 -1l1 -1v2l-1 2h1v-1l1 1h1h1h-1l1 1v1h1h1v0l2 1h1v1v0h1v1h1h1h-1h-1l2 1q1 0 1.5 -0.5t0.5 0.5l1 1l1 -1v1v1h1h2h2l-1 1l1 1q0 1 0.5 1t1.5 0.5t2.5 1t2.5 1.5v1l1 -1l1 1v0h1l1 1v1h1h1l1 1l1 1v-1h1l1 1l1 1l1 1h1l2 1l1 1q2 0 4 2
h1h1v1v0h1h1l1 1v1h1h1l1 1l1 1h1v0l1 1l2 1l1 1v-1v-1v1l1 1h1v1h1h1v1h1q1 0 1.5 0.5t1.5 1l1 0.5h1v1h1l2 1v1h1l1 1v-1l1 1l1 1h1l2 1l2 1h1h1v1l1 1q1 0 1 0.5t2 0.5l2 1v1h1h1v1h1h1h1v1h-1v0h1h1v1v1h1q4 0 4 1v1l1 -1l1 1v1h1q1 0 2 1h1v1h1v0l-1 -1h1h1l1 2v1l1 -1
v1l2 1q2 0 2 1q1 1 4 2q1 0 1 0.5t1.5 1t1.5 1.5h1h2v1l2 1h1v1v1l1 -1h1v1l2 1h1q2 2 3 2h1v1l2 1q2 1 3 1q0 1 2 1.5t2 1.5q1 1 3 1l1 0.5t2 1.5l2 1v-1l2 2h1l2 1t3 1h1v1v0h1l1 1l1 1l1 -1v1v1h1l2 1h1l1 1h1h1q0 1 2.5 2t3.5 2l2 1v-1h1v1q1 0 1.5 0.5l1.5 1.5q3 1 4 1
t1 1q1 2 4 2h1l1 1l1 1h2q1 1 2.5 1.5t2 0.5t1.5 1t3 2l2 1h1h1v1v0h1l3 2q2 2 3 2l1 1l4 2l2 1v1h1h1h1v1h1v1h1h1l1 1l1 1v0h1l1 1h1l1 1v0h1v1h1q0 1 1 0v1h1v1h1h1l2 2l3 2h1l2.5 2t3.5 2q2 0 5 3q1 1 3.5 2t3 1.5t2.5 1.5t2 2h1v0h1q1 1 3 2q5 2 6 3l1 1v-1l2 2
q3 1 4 2h1h1v1v0h1q1 1 1.5 1t1.5 1l1 1l2 1h1l1 1h1v1h1h1q0 1 4 2q5 3 6 4h1v0v1h1h1l2 1l2 2h1v1l1 -1v0q0 1 2 1l1 1v1h1l0.5 0.5t2.5 1.5l2 1h-1v1l1 1h-1v1h-1l-2 1.5t-3 2.5t-1.5 1t-3 1.5t-3 1.5t-1.5 1.5t-3 2.5q-7 4 -7 5h-0.5t-2 1t-2 1t-2.5 1.5t-3.5 2t-1.5 1
t-1.5 1t-3 1.5t-3.5 2l-7 4l-1.5 1.5t-1.5 0.5h-1q-1 1 -14 8q-1 1 -3 2l-5 3l-4 3h1h-1h-1l-1 1q-1 1 -1.5 1h-0.5l-1 0.5t-4 2.5t-5 3q-3 2 -9 5q-3 2 -3.5 2t-4.5 3t-6 3.5t-2 1.5q-1 1 -7 4q-2 1 -3 2h-1h-1v1q-1 1 -1.5 1t-4.5 2.5t-4.5 2.5t-1.5 1v0h-1q-1 1 -6 4
q-1 0 -1.5 0.5t-1.5 1t-3.5 2t-5.5 3.5l-11 5l-3 2l-3 1.5t-2.5 1.5l-1.5 1h-1h-1l-1 1q-1 1 -2.5 1.5t-2 1t-3.5 2t-4 1.5q-2 2 -16 9q-4 1 -5 2q-15 9 -19 10h-1q-6 4 -9 4l-4 2t-3 2l-4 2h-2v1h-1q-1 0 -1.5 0.5t-2.5 1.5t-3.5 2t-3.5 1q-2 1 -11 5q-2 1 -2.5 1t-1 1
t-1.5 1t-4 1.5t-4 1.5v1h-1q-2 0 -8 3q-3 2 -4 2t-1 0.5t-3 1.5t-4 1.5t-1.5 0.5t-2 0.5t-2 0.5t-1.5 0.5t-2 0.5v1h-1h-1l-2 1h-0.5t-3 1t-5.5 2l-2 1h-1h-1l-1 1h-1v0l-3 1q-3 0 -4 0.5t-3 0.5l-2 1v0v0l-2 1q-1 0 -5 1.5t-7 2t-5 1t-4 1.5l-2 1h-2q-1 1 -3.5 1t-5 0.5
t-4.5 0.5h-1l-1 -1v-1.5t1 -1.5q1 -4 3 -11v-3t0.5 -2.5l1.5 -4.5l2 -9q1 -6 1 -8q1 -3 3 -12q1 -7 2 -12q0 -2 0.5 -3t0.5 -3.5v-3.5t1 -4v-3h-1h-2h-1l-6 1h-8q-3 1 -6 1q-1 0 -4 0.5t-4 0.5t-4 0.5t-4 0.5t-4 0.5t-4.5 0.5h-4t-6.5 1q-7 1 -13 1q-11 0 -22 1h-13
q-12 1 -32 1h-40h-33q-19 -1 -23 -1q-11 -1 -14 -1q-6 0 -14 -1h-7.5t-8 -0.5t-7 -0.5t-6.5 -0.5t-7 -1.5l-8 -1h-5q-5 -1 -11 -2t-8 -1t-7 -1h-4h-1h-1v-1h-3h-3q-1 0 -1.5 -0.5t-1 -0.5h-3.5l-4 -1v1v0q-1 -1 -3 -1h-2.5t-2 -0.5t-3.5 -0.5q-2 -1 -10 -2q-5 0 -6.5 -0.5
t-2.5 -0.5t-3.5 -0.5t-3.5 -0.5t-4 -1h-2h-2t-2 -1q-1 0 -6 -1h-1.5t-6.5 -1q-2 -1 -5 -1l-3 -1v0h-1l-1 -1v-1v-1l-1 -1v-1q0 -1 -1.5 -3t-1.5 -3v-2h-1l-1 -2q0 -1 -0.5 -2.5t-0.5 -2.5v-1h-1h-1v-1l1 -1h-1l-1 -1v-1v-1v-1l-1 -1v-1h-1l1 -1v-1l-1 -1l-1 -1v-1l-1 -2
l-1 -1v-1h1h-1h-1v-1h1v-1l-1 -1v-1v-1h-1h1l-1 -1l-1 -2v-1l-1 -1h1l-1 -1v-2v-1h-1l-1 -1v-2l-1 -2t-1 -3h-1h1v-1v0h-1v-2l-1 -2h-1v-1h1v-1v-1h-1h-1v-1v-2l-1 -1q-1 -2 -1 -3v-1h-1v-1h1l-1 -2v-1q0 -2 -3 -7q-1 -1 -1 -2h1v1l-1 -2q-1 -2 -1 -3l-1 -1l-1 -1l1 -1v-1
h-1v-2l-1 -2v0v-1l-1 -1q0 -3 -3 -7v-1v0v-2l-1 -1v-1l-1 -1v-1v-1l-1 -1v-1v-1h-1v-1l-1 -2h1v-1h-1l-1 -1v-1h1h-1l-1 -1l1 -1h-1v0v-1v-1q-1 -1 -1 -2v-1h-1v-1h1l-1 -2l-1 -2h-1v-1h1v-1l-1 -1v-1v-1l-1 -1v-1v-1l-1 -1h-1v-3v-2l-1 -1v-2v-1l-1 -1h-1l1 -1v-1h-1v-1
q-1 -1 0 -2v-1h-1v-1v0h-1l1 -1v-1l-1 -1v-1l-1 -1v-2h-1v-1h1l-1 -1h-1v-1l1 -1l-1 -2l-1.5 -1.5t-1 -2.5t-0.5 -2.5t-1 -1.5v-2v0v-1v-1h-1l-1 -2v-3t-1 -2v-2h-1h-1h1v-1v-1q-1 -1 -1 -1.5v-1.5h-1v-1v-1v0v-1v-1h-1v-2q-1 -2 -1 -2.5v-0.5v-1v-2v-2h1h1v-1h1l1 -1h4h11
t10 0.5t7 0.5h6v0l5 1h8q4 0 6.5 0.5t5 0.5t6 0.5t13.5 0.5h10h8q8 -1 9 -1t10 -0.5t12 -0.5h7q5 -1 7 -1h7t7 -1h8q3 0 3 -0.5t2 -0.5h5t6 -1q4 0 16 -1h5q3 -1 11 -1q4 0 7 -1l1 -1l2 -1v1v1h4q2 -1 2.5 -1t3.5 -0.5t4 -0.5t5 -1h4h2q2 0 4 -0.5t6.5 -1t5 -0.5t2 -0.5
t4.5 -0.5t5 -0.5t4 -0.5h3.5t3 -0.5t5.5 -0.5t7 -0.5t7 -1t6.5 -0.5h11.5l15 -1h4t4 -0.5t7 -0.5h7l3 -1l1 -1v1l-1 1h1q1 -1 10 -2q8 0 9 -1h2h1h1v-1v1h1h1h-1l2 -1h1h1l1 1v-1l1 -1v1h1l1 -1l1 1v-1h1q2 1 3 1h1v-1h1v1v-1h1h2h3l-1 -1v-1l1 1l1 1h1v-1v0v-1v1h1l1 -1v1
v0h1h-1v-1h1v1h3l2 -1h1v-1v1h3h3l1 -1h3l4 1l-1 -1h1v0v-1l1 1h1q1 -1 1 -2v1h1q1 1 2 0h1h-1v-1v1h-1l-1 -1v-1v1h1h1h2v1h1q1 0 2 -1l1 -1h1h1v-1h1v0l-1 1h1h1v-1h-1l-1 -1v-1v-1v1v-1v0v-1v0h1h-1l1 1l1 -1v0l-1 -1v-1v1h1v-1h-1l-1 -1v-1h1v-1v1h-1h1v1v-1v-2v1h-1v-1
v0h-1h-1l-1 -1h1h3h1l1 -1v1h1v1l-1 2l1 -1v-1v-1v-1l-1 -1h-1h1l1 -1v-1v1h-1v-1l-1 -1h1v-1h-1v-1v0h1h-1v-1h1v-1l-1 -1l1 1h1v-1h1v-1l-1 -1h-1v1v1h-1h-2l-1 -1h1h1v-1h1v0h1l1 -1v-1h1q1 -1 1 1v1v-1q1 -1 1 -3v-1h-1h-1v1v1h-1l-1 -1v1h-2h-1v-1h-1v0v1q1 0 1 1h-1
h-1h-1v1v1v-1h1h1v1q-1 1 -1 2h-1h-1v2l-1 2v1h1h1v1h-1v-1v1v1h1h-1v1v1v-1h1h1v0v1v-1h-1v1h-1h-1v-1v1q-1 0 -1 4l-1 3v1h-1l-1 1h-1l-2 -1l-1 1v0h-1q-2 0 -7 1q-11 1 -30 1l-12 1l-1 -1h-1l1 -1l1 -1h-1l-1 -1h-3q-5 1 -5.5 1t-8.5 1t-13 1.5t-9 1l-12.5 1.5t-11 1.5
t-7.5 1t-7 0.5l-4 1l-54 5q-11 1 -12 1t-9 1q-27 1 -35 2h-5l-7 1h-11q-21 1 -30 2h-7q-11 0 -12 1l-7.5 -0.5t-10 -0.5t-9 -0.5t-7 -0.5t-8 -0.5t-10.5 -0.5h-9q-13 -1 -31 -2q-7 -1 -10 -1q-6 -1 -17 -2q-5 0 -9 -1q-8 -1 -17 -2l-1 -1v1v1h1l1 -1l-1 1v1h1q0 1 1 3v1l1 1
q1 0 1 0.5t0.5 1.5t0.5 1.5t1 2.5t1 3q0 3 4 11v1v1h1v0q0 1 1.5 4.5t2 5.5t1.5 4q1 3 2 7q1 3 1.5 3t0.5 1t0.5 2t1.5 3.5t1.5 3t0.5 1.5t2 8q1 1 2 4q1 5 2 7q1 0 1 1v2l1 1v1v1h1v1v0l1 1l-1 1h1q0 1 1 4t1 3.5v1.5h1h1v1h-1l1 2q1 2 1 2.5t1 3l1 2.5q0 2 1 3q0 1 1 3
q2 7 3 8l1 1v1q0 3 1 5q1 0 1 1t0.5 2.5t0.5 2.5v2h1v0q0 3 2 8q3 6 3 10q1 0 1 1t0.5 2.5t2 5.5t2 4.5l0.5 0.5q0 2 1 4v1q0 1 1 4q1 1 2 4.5t2 6t1.5 5t1 3t1.5 3.5t1 3.5v1.5t0.5 1.5t2 5t2 5t1 2t0.5 2v1t0.5 2t1.5 3.5q3 9 4 10q1 0 1 2q0 1 4 8v2q0 1 3 8l1 1h1l-1 1
v1l1 1v1.5t1 1.5t2 6q3 8 4 10q1 1 1 3l2 4l2 4q1 3 1.5 3.5t0.5 1.5v1h1v1v1l1 2l2 4q0 1 1 3v1l4 1l6 2q2 1 4.5 1.5t3 1t2.5 1t3 0.5q1 1 8 3q4 1 5 1.5t3 0.5t3.5 0.5t2.5 0.5h1v1l3 1q3 0 3.5 0.5t1.5 0.5t3 1l5 1h2l1 1h1l1 -1l-1 1h2q1 0 2.5 0.5t2 0.5t3.5 1l2 1h1
v-1l1 1h1h1l4 1q2 0 2.5 0.5t2 0.5h2.5l1 1l1 -1h1q1 0 1.5 0.5t1.5 0.5h4l2 1h2t3.5 0.5t3 0.5h3.5q9 1 16 2l10 1h7h22h24l5 -1h2.5t2.5 -0.5l4 -1t2 0.5q1 0 10 -2q2 0 7 -1l6 -1h1v-1l1 1l3 -1h6h3l1 -1h3q4 -1 7.5 -1.5t4 -0.5t6 -1t7 -1h4.5q9 -2 11 -2t7 -1t7.5 -1
t5 -1t4 -1t2.5 -0.5t2 -0.5h4l2 -1v0h2h1l2 -1q2 -1 3 -1h1v-1h2h2q1 -1 2 -1t2.5 -0.5t2.5 -0.5h2v1h1v7q1 6 1 9q1 10 2 17q0 4 1 11.5l1.5 11t0.5 7v4.5q1 2 2 22v5l1 1v1h1h1v-1h1h2v-1l1 -1q2 0 6.5 -2t5 -2t0.5 -1q1 -1 4 -1h1v-1v-1h1h1l1 -1q2 -1 3 -1t4 -2l6 -3
l2 -1h-1h1h1l2 -1q3 -1 4 -2v0v-1h1q1 0 14 -6q6 -3 7.5 -4t3.5 -2l3 -1v0v-1h2h1v-1v0h1v-1h1l1.5 -1t2.5 -1t1.5 -1t2.5 -1l1 -1v0h1q1 0 2.5 -1.5l1.5 -1.5h1h0.5t3.5 -2t4 -2q3 0 5 -3v-1h1h1v0q1 0 2 -1l1 -1h1q0 -1 4 -3t4.5 -2.5t3.5 -1.5l6 -3l6 -3l4.5 -3t4.5 -2
l7 -4q4 -2 4.5 -2.5l0.5 -0.5h1l2 -1l2 -1v0q1 0 3 -2q1 -1 4.5 -2.5t4 -2t2.5 -1.5t2.5 -1.5t1.5 -0.5t2 -1l1 -1v1v0q2 -1 10 -6q2 -1 2.5 -1t4.5 -2t6 -3.5t3 -1.5t3 -1.5t3.5 -2t1.5 -1t1 -0.5t2.5 -1t2 -1t2.5 -1.5t3 -1.5t2 -1l1 -1q3 0 3 -2h1h1l1 -1v-1l3 -1l3 -2
l2 -1h1l2 -1l3.5 -2.5t4 -2.5t1.5 -0.5l1 -0.5q2 0 6 -4q0 -1 1 -1h1v-1h1h1l3 -2q6 -4 7 -5q1 0 5 -2.5l4 -2.5l1 -1l4 -2q1 0 1.5 -0.5t5.5 -3.5q2 -2 3 -2.5t1.5 -0.5t2.5 -1.5t4 -2.5t4.5 -3t3.5 -2l8 -4q1 -1 4.5 -3t4 -2.5t3.5 -2t3 -2.5h1h1l1 -1h1v-1h1l1 -1
q1 -3 4 -3q1 0 4.5 -2t5.5 -3.5t3 -1.5q1 -1 4 -3q2 -1 3 -2t4.5 -3t4.5 -2.5t3 -2l2 -1.5h1t5 -4l2 -1t2.5 -1.5t2 -1.5l1.5 -1l1 -1h1l1 -1l2 -1.5l2 -1.5q1 0 6 -4v-1h1h1l1 -1l1 -1h1h1v-1q1 0 2 -1q2 -2 4 -3h1q0 -1 0.5 -1t2.5 -2h1h1v-1h1l1 -1q0 -1 5 -3q1 -1 3 -2
l2 -2v0v0l3 -2q2 -1 3.5 -2l1.5 -1l0.5 -0.5l1.5 -1.5l5 -3l3 -1.5t3 -2.5h1v-1h-1l-1 -1t-2 -1.5t-6.5 -4l-5.5 -3.5l-1 -1t-13 -6.5t-15 -7.5l-8 -4l-17 -9l-5 -3l-3 -2v1v-1h-1l-1 -1l-1 -0.5t-3 -2.5q-11 -7 -20 -10q-6 -2 -29 -15l-8 -4l-9 -5l-6 -3q-7 -4 -7.5 -4.5
t-5.5 -2.5l-11 -6q-3 -2 -3.5 -2t-2 -1t-5.5 -3l-8 -5l-15 -8l-16 -8q-13 -8 -14 -8v-1l-4 -1l-4.5 -3t-4.5 -2.5t-4.5 -2t-5.5 -3.5l-7 -3q-7 -4 -9 -6q-3 -1 -6 -3q-2 -1 -3 -1v0q0 -1 -2 -2l-6 -3l-5 -2v1v-1l-3 -2q-7 -4 -9 -5t-3 -1q-5 -3 -23 -11l-7 -4h-1v1v-1v-1
q-2 0 -12 -5l-4 -2q-8 -4 -11 -5h-1h-1v-1h-1l-1 -1l1 1v1h-1v-1.5t-1 -0.5h-2zM597 184h-1v0h1zM601 185v1h1h1v0h-1h-1v0h-1l1 -1v0zM599 186h-1h1zM607 188v0l-1 1v-1v-1zM609 189v1h-1h-1v1v-1v-1h1h1zM612 191v1v-1v0v0zM618 193v1h-1v-1h1zM624 196h-1l1 -1v1z
M509 203l1 1h-1v1v0l-1 -1h-1h1v-1h1zM505 210v1v-1l-1 -1h1v1zM508 211v1h-1v-1h1zM510 214h-1l-1 1v-1v-1h1h1v1zM509 216v0h-1h1v0zM508 216q0 1 -1 1v-1h1zM504 217v1h-1v-1h1zM503 220v0h-1l1 -1v1zM506 219v1h1l1 -1l-1 1q-1 1 -2 1v-1v-1v1h-1v-1h1h1zM489 227v1h-1
v-1v-1l1 1v-1h1zM482 227h-1v0h1v0zM472 228h1v1h-1h-1h-1v1v-2v0l1 1zM483 228q0 1 -0.5 1t-0.5 -0.5t1 -0.5zM420 229v1h-1v-1v0q0 -1 1 -1v1zM475 233h-1h1v0zM426 236v1h-1v-1l1 -1v1zM445 235l-1 1v0v-1h1zM589 182l-1 1h1h2v-1l-1 1v-1h-1zM601 190h1h1v-1h-1h-1v1z
M508 191l-1 1h1v-1h1l-1 -1v-1v2zM515 192v0v1v2l1 2v-2v-3l1 -1h-1h-1v1zM611 194q-1 0 -1 1h1h1v-1h-1zM507 195v1v-1v-1v1zM512 195l-2 2v1l1 1l1 -1h1h-1l-1 -1l1 -1h1v0h1q0 -1 -1 -1v-1zM506 197v1h1v-1h-1zM514 198v1h1v-1v-1zM511 200v1v0l1 -1h-1zM506 201l-1 1v1
l1 -1l1 -1h-1v-1v1zM512 204v1l1 -1v0l-1 -1v1zM505 206v0h1v-1h-1v1zM514 207v1v-1v0v-1v1zM512 209v0h-1v1l1 1v1v0h-1h1v1h1v-1q1 -2 1 -3v-1h-1zM513 211q-1 0 -1 -0.5t0.5 -0.5t0.5 1zM503 214v1l1 -1h-1zM513 215h-1h1v0v-1v1zM510 219v0h1l-1 -1v1zM511 221v2v1v0
l1 -1v-2l-1 -1v1zM511 225l-1 2v1h1v-1v-2zM509 226v1h1v-1h-1z" />
  </g>

</svg>
