<?xml version="1.0" standalone="no"?>
<!DOCTYPE svg PUBLIC "-//W3C//DTD SVG 1.1//EN" "http://www.w3.org/Graphics/SVG/1.1/DTD/svg11.dtd" >
<svg viewBox="0 -200 1000 1000">
  <g transform="matrix(1 0 0 -1 0 800)">
   <path fill="currentColor"
d="M225 -140h-8q-7 1 -13 1h-1l-1 1h-1v2v7l1 5l-1 1l-1 1v2q0 4 1 22v9q1 16 2 30v12v8q1 2 1 40q1 14 1 30q0 9 0.5 15.5t0.5 12v10.5l1 13v15q0 15 1 23q0 4 1 18v9q1 5 1 9t0.5 8t0.5 7q1 15 1 19q0 2 0.5 5.5t0.5 8.5q1 13 1 17q0 3 0.5 7.5t1.5 9.5v7l1 8v8q1 6 1 14
q1 2 1 4.5v5.5t1 6q1 7 1 19q0 3 1 8l1 10v7v1l1 1h1h28q67 0 83 1l6 1v0v5q0 33 -1 46v16v20.5t-1 22.5v16v29v34v5v1l-1 2h-2q-3 2 -5 2l-1 1v-1h-1q-1 0 -2 1v-1h-1v1v0h-1v1l-1 -1v0h-2q-2 0 -6 1h-3q-1 1 -2 1h-2h-1h-1l-1 1v1h-1h-1v0l-2 1l-3 2h-1h-1v1v0h-1v1l-5 2
l-4 2v1h-1h-1v1v0l-4 3l-3 3v1q0 1 -0.5 1t-0.5 1l-1 1h1l-1 2v3v2h-1v2v3q-1 3 -1 10v5l1 2q0 2 1 5l1 3l3 4q4 5 7 10l2 1l5 1l5 2h8l7 1h8h9h6l6 -1l1 1h1h1v5.5t0.5 7t0.5 8.5v7t0.5 8l0.5 7v4q1 19 2 21q0 1 1 7v4h1v1h-1v1h1v1q0 2 1 6l1 5l1 1h4q10 0 35 1
q5 0 14 0.5t12 0.5h30l27 1h9q34 -1 42 -2q24 -1 37 -2q7 -1 8 -1h2v-1v-1v0h-1l-1 -1v-1l1 1h1h-1l1 -1v-1h-1l1 -1l-1 -1l-1 -1h1l1 -1l-1 -1l-1 -1h1v-1v-1v-1v1v1h-1v-1l1 -1v-1v-1v0v-1v-1h-1v-1v0v-1h1v-1v-2h-1v-3v-2v-10v-1l-2 -26v-1h-1l1 -1v-1v0h-1v-2l1 -3h-1
v-1v-2l1 -1l-1 1v0v-1h1l-1 -1v-2v-1v-1v-1v-1v-2v-3v-2v-2v0v-1v-2v-4v-1v-2v0v-10v-3v-7v-1v-11v-1l-1 -9v-3h-1v-1h1v-2v-1l1 -1h-1v0l-1 -1h1v0v-1v-2v-3v-1l-1 -1v-1v0v1h1v-2v-2v-1h-1h1v-1v-1h-1l1 -1v0l1 1l-1 -1v-4.5v-5.5v-2v-1l1 1l-1 -1v-2v-1h1h-1v-1v-2v-3v-1
h-1v-1l1 -1v-3v-3v-1h-1v-1l1 1v0v-2l-1 -1l1 1v-2v-1l-1 1v-3v-4v-2v-1v0v-1h1h-1v-2v-3h-1h1v0v-1h-1h1v-1v-4t-1 -4h1v0h-1v-1q0 -1 1 -1v-1h-1v-1v-1v1h1v-2v-2l-1 1v-5v-4v-1v-1v-1.5v-1.5v-2v0v-1v-1h1l-1 -1v-3v-3v1l-1 -1v-1v-1v1h1v-4q-1 -5 -1 -9v-4v1v-4v-3
l-1 -1h1v-1l-1 1v-1v-1v-1l1 1l-1 -4v-7v-2h1l-1 -1v-1v-2v-2v1v-1v-1v0q0 -1 -1 -12v-7v-1v-2v1l1 1l-1 -2v-5v-2v1v-3q0 -3 -1 -7v-4v-1v0v-1v-1v-1v-4v-3h-1v-5v-8v-4h13q12 -1 15.5 -1h12.5q21 -1 39 -3q4 0 7 -1q19 -1 27 -2l1 -1h1l1 1l1 -1v-1v-1v-1v-2v-3h-1l1 -1
v-2l1 -1h-1h-1h1v-1v-3v-2h1v-1v0l-1 1v-6q1 -6 1 -7v-1l-1 -1h1v1v-4v-3h-1l1 -1v-11v-5.5t1 -9.5v-6v0l-1 -1h1l-1 -2v-1h1v-4v-4v1v-1l-1 -1l1 -2v-34q-1 -5 -0.5 -8t0.5 -6l-1 -18v-16v0h1l-1 -1v-2v-9v-1h1h-1v-1v-12v-32v-20h-1v0h1l-1 -1v-2l1 -1v-18q-1 -18 -1 -27
l1 -5h-1v0v-1v-7l1 -6l-1 -1v-1l1 -1h-1v-1l1 -8v-26v-18.5v-2v-1.5v-10v-8v-18v-23q-1 -7 -1 -21v-13v0h-16q-152 -5 -440 5zM208 -97v0v0zM209 -97h-1h1zM683 207h-1v0h1zM465 321l-1 1v-1h1zM677 322v1h-1v0v-1l1 1v-1zM670 323v0v0zM638 325l-1 1v-1v0h1zM560 332v0v0z
M424 338l2 1l4 1l3 2l3 2l2 2l2 3l2 3l1 2l2 4l1 3v3v4v3q-3 14 -16 21l-3 1l-3 1l-3 1h-4h-4l-3 -1l-3 -1l-3 -1l-3 -1l-3 -2l-2 -2l-1 -1l-1 -1v0q0 -1 -1 -2t-1 -2h-1v-1q0 -1 -1 -1q-1 -1 -2 -7v-3v-2v-2v-3l2 -6v-2l2 -2l1 -3l3 -3l4 -3l2 -1q2 -2 5 -3l3 -1h3l2 -1h3
l3 1h3zM563 361v0v0zM562 362h-1l1 -1v1zM564 384v0v-1v1zM437 397h-1v-1zM566 427v1v-1v0zM568 450v1v-1v0zM568 488v1v-1v0zM568 498v0v0zM570 509h-1h1zM570 520l-1 1v-1v0h1zM569 522v0v0zM569 529v0v-1v1zM569 530v0v0zM342 539h-1v0v-1h1v1zM339 540v1h-1v-1v0h1z
M334 540v1v-1v0h1h-1zM336 541v0v0zM315 542h-1h1zM316 542v0v-1v1zM313 542v1v-1v0h1h-1zM309 543q0 1 -1 1v-1h1zM334 559v1l1 1v6t0.5 5.5t0.5 6v6.5v11v2l-1 1l-1 1h-1q-1 0 -2 1t-4 1q-1 0 -4.5 -0.5l-3.5 -0.5h-3h-2v-1q-1 0 -2 -1h-2l-1 -1l-3 -3l-1 -1l-1 -2
q0 -1 -1 -1v-1v-4v-4q0 -4 1 -9l1 -2l2 -2l2 -2h1l3 -2q10 -4 16 -5q4 -1 5 -1zM281 565v0v0zM334 604q0 1 -1 1l-1 -1h1q1 -1 1 0h1h-1zM315 604v0v0zM335 604v0v0zM316 604v0v0zM323 604v1h-1l1 -1v0zM331 604v0v0zM324 605v0l-1 -1h1v1zM325 605v0v-1v1zM327 605h-1v-1h1
v1zM329 605v0v-1h1zM330 605v0v-1v1zM331 605v1v-1v0zM313 607v1v-1v0zM349 636l-1 1v-1h1zM571 641zM360 655v0v0zM359 656v0v0zM355 659h-1v0h1zM356 660h-1v-1h1v1zM353 668v0v-1v1zM351 674v1l-1 -1h1zM354 681h-1l1 -1v1zM574 691q-1 0 0 0v-1v1zM361 692v0v0zM573 701
h-1l1 -1v1zM572 702h-1v0v-1zM358 704v0v-1v1zM355 709l-1 -1h1v1zM574 708h-1h1zM575 708v0v0zM543 708zM571 709h1l-1 1l-1 -1h-1v-1h1q1 0 1 1zM539 709v1v-1v0h1h-1zM540 709v1v-1v0zM551 710h-1h1zM574 710v0v0zM520 710v0v0h1h-1zM558 710h-1h1v0zM560 710v0v0z
M505 710l-1 1v-1h1zM541 711v0v0zM556 711l-1 1v-1h1v0zM382 711h-1h1zM564 711v0v0zM571 711h-1v0h1zM390 712h-1v-1zM410 712v0v-1v1zM552 712v0v-1v1zM555 712v0v-1v1zM365 712h-1h1zM412 712v0v0zM541 712v1v-1v0v0zM415 712l-1 1v-1h1zM424 713v0v0zM483 713v0v0z
M477 713v1v-1v0zM520 713v1v-1v0zM436 714h-1h1zM424 715h-1v-1h1v1zM456 714v1v-1h-1h1v0zM476 714v0v0zM484 714v0v0zM486 714v0v0zM488 714l-1 1v-1v0h1zM489 714h-1v0h1zM469 715v0v-1v1zM683 175v0v-1v0v1zM682 281h1h-1zM681 321v1l1 -1v0l-1 -1v1zM566 402v0v0z
M569 481v0v0zM570 518v0v0zM570 519v0v0zM571 545v1v-1v0zM570 554h1h-1zM571 591v0v-1v1zM571 608h1v-1zM571 627h1v0h-1zM572 638v1v-1v0zM572 646v0v-1v1zM574 681v0v-1v0v1zM574 687h1v-1zM575 698h1v0h-1zM574 699v1v-1v0zM576 702v1v-1v0zM576 704v1v-1h-1h1z" />
  </g>

</svg>
