<?xml version="1.0" standalone="no"?>
<!DOCTYPE svg PUBLIC "-//W3C//DTD SVG 1.1//EN" "http://www.w3.org/Graphics/SVG/1.1/DTD/svg11.dtd" >
<svg viewBox="0 -200 1000 1000">
  <g transform="matrix(1 0 0 -1 0 800)">
   <path fill="currentColor"
d="M701 -152l-1 1v2q0 2 -1 31q0 14 -1 17v16v5.5t-0.5 11.5t-0.5 7.5v5.5l-2 20q-1 2 -1 3v4l-1 3v1q0 1 -0.5 3.5t-1 5.5t-1 5t-1 5t-0.5 4.5t-1 3.5v3h-1v0q1 1 -0.5 5.5t-1.5 6.5t-1 4q0 3 -1 7v1q-2 4 -3 10q0 1 -0.5 3.5t-1 4.5t-1.5 4l-1 6q-3 9 -5 14q0 1 -1.5 5.5
t-2.5 7t-2 4.5l-1 3q-1 1 -1 2t-1.5 3.5t-2 3.5t-1.5 4.5t-1 4.5t-1 2l-2 1v1v1l-1 3t-8 15q-12 25 -13 25v1t-3 4l-3 6q-2 3 -2.5 3.5t-1.5 2t-2.5 3.5t-3.5 5t-5 6q-1 2 -1 2.5t-2 2.5q-1 1 -2.5 3.5t-2 2.5t-2 2l-3.5 4.5l-2 2.5l-3.5 4t-3.5 4.5t-1.5 1.5t-1.5 1.5
t-2 2.5l-5 5q-12 13 -16 16q-2 2 -2 2.5t-3 3.5l-7 6q-5 5 -5.5 5t-0.5 1q-1 0 -2 1t-3 2.5t-4.5 4l-2.5 2.5q-1 0 -6 5l-3 2l-3 2q-4 5 -5 5l-1 1h-1h-1v1l-2 2q-2 1 -2 1.5t-0.5 0.5t-2.5 1.5t-3 1.5q-2 0 -5 4q-6 5 -9 5l-0.5 0.5t-3.5 2.5t-3 3q-4 4 -6 4h-1v1h-1h-1v1
l-1 0.5t-2 1.5t-2 1h-1q0 3 -5 3q-1 0 -1 0.5t-0.5 0.5t-1 0.5t-1.5 0.5t-3 2l-3 1h-1v1l-2 1q-2 1 -6.5 3t-5.5 2t-1 1h-2h-3l-1 -1q-1 0 -5 -5l-7.5 -9t-6.5 -8l-9 -10l-2 -2l-1 1l-1 1l-1 5q-2 5 -3 7t-1 4q-1 4 -6 16q-3 6 -7 21q-2 5 -2.5 6.5l-1 3t-0.5 2t-0.5 1.5
t-1.5 4t-1 5t-0.5 2.5t-1 2.5t-1 2.5t-0.5 1v2.5l-1 2v0v1q0 2 -3 7v2l-2 4v3q-1 4 -2 4v1q0 2 -0.5 2.5t-1.5 2.5l-2 6l-2 8q-1 4 -2 5q-4 10 -5 18q0 1 -1 2q0 1 -2 7q0 1 -1 2.5t-1 2.5v1v1q-1 4 -3 9q-1 2 -4 14q-2 5 -3 8.5t-1.5 6t-1.5 3.5q-2 5 -5 15q-1 3 -1 4
q-2 4 -2 7h2q3 -1 4 -1q7 -3 12 -3q1 0 6 -2q1 -1 2.5 -1t5 -1t4 -1t1.5 -0.5t7.5 -2t8.5 -2.5q9 -3 13 -3q2 -1 3 -1q4 -2 10 -2q0 -1 1 -1t4 -1q10 -2 11 -2l6 -2q1 0 2 -1h2l1 -1q2 0 4 -0.5t3 -1l1 -0.5q2 0 4 -1q3 -1 13 -3q2 -1 5.5 -2t7.5 -1.5t6.5 -1.5t5.5 -1.5
t5 -1.5t5.5 -1.5t7 -1.5t3.5 -0.5t1 0t5.5 -1.5t5.5 -2q3 -1 9 -2q7 -1 16 -4l8 -2h1t4 -1l4 -1q0 -2 -5 -7q-1 0 -3 -3t-4 -5.5t-4 -4.5l-4 -4l-1 -2l-7 -7q-5 -7 -9 -12q-1 -2 -2 -3l-1 -1v-1q1 -2 9 -6q9 -5 17 -10l9 -6q11 -8 13 -9l7 -5l9 -7l4 -4q6 -4 10 -7
q7 -6 18 -18l11 -11h2q1 -1 2 -1h1l6 5l7 7l7 7q8 8 12 10q8 6 10 8q2 1 2.5 1.5t3.5 3t4 3.5q7 7 13 12q6 4 23 13t20 9q1 0 2.5 1t6.5 3t6 2.5t9.5 3.5t8.5 4q1 0 10 3l1 0.5t3.5 1t4 1.5t3.5 1h1l2 1l2 2l1 1v8q-1 24 -2 43v19t-1 13q0 12 -1 20q0 5 -0.5 23t-1.5 35
q-1 4 -1 14.5t-0.5 13.5t-0.5 16q-1 33 -1 38q0 3 -0.5 6t-0.5 5.5t-1 5.5q0 8 -1 12v3h13l14 1h5l24 -2h13t13 -1h14h10h7v-1q0 -1 1 -12q1 -15 1 -22q0 -3 0.5 -11t1 -14.5t0.5 -12.5q1 -18 1 -24q1 -4 1 -17q1 -11 1 -19q1 -3 1 -10.5t0.5 -8.5t0.5 -8.5t1 -10.5
q0 -6 1 -23v-11.5t0.5 -8t0.5 -8t0.5 -11t0.5 -10t0.5 -9.5t0.5 -10q2 -19 2 -30q0 -6 0.5 -9t0.5 -10v-7l1 -14q0 -10 1 -12q0 -7 1 -21v-10.5t0.5 -11.5t0.5 -13.5t1 -9.5v-12q1 -5 1 -6v-4v-6q0 -10 1 -26q0 -12 0.5 -12.5t0.5 -9.5t0.5 -13t0.5 -10q1 -19 1 -28
q0 -4 0.5 -4t0.5 -9t0.5 -20t0.5 -17.5v-6.5l0.5 -6t-0.5 -7q0 -2 0.5 -2.5t0.5 -8.5t0.5 -19.5t0.5 -18v-7t0.5 -8t0.5 -9.5q-1 -3 0 -8q1 -17 1 -32v-7l1 -2h-1v-1v-3v-2v-2l1 -1h-1v-1l1 -1l-1 -1v-2h1v-10v-21v-5.5t0.5 -6t0.5 -6.5v-6.5v-4.5v-4v-2v-2l1 -1v-1h-1v-4
q2 -31 1 -33q0 -1 1 -6v-5h-1q-1 0 -1 -1l-2 -1q-3 0 -20 -1q-11 0 -32 -1l-21 -2q-17 0 -21 -1h-11q-12 0 -23 -1q-4 -1 -11 -1t-12 -0.5t-7 -0.5h-7q-10 -1 -24 -1q-4 -1 -9 -1h-9.5t-4.5 -0.5t-7 -0.5h-8zM806 49.5q0 0.5 0.5 4t0.5 10.5l1 20v20q-1 14 -1 20q0 4 -1 8
q0 10 -1 24v3v1l-1 1v47v53q-1 6 -1 20q0 13 -0.5 13.5t-0.5 2.5l-1 2h1v1v7q-1 15 -2 19v3q0 1 -1 8q-1 9 -2 10q-2 2 -10 -1q-2 -1 -7 -3q-9 -3 -14 -6q-1 -1 -8 -4l-11 -6q-15 -8 -33 -24q-2 -3 -4 -4l-1 -1v-1v-1h-1h-1l-3 -3q-12 -12 -13 -14q0 -1 -0.5 -1t-0.5 -1
t-2 -3t-3 -4l-1 -2l1 -2q2 -3 5 -5l2 -2l1 -1v-2l3 -2q2 -3 4.5 -6t4.5 -5t4.5 -6t7.5 -10t5 -7l5 -7q4 -5 6 -9q1 -2 3 -5q6 -8 9 -14q1 -3 2 -4q2 -2 7 -11q2 -5 14 -28l3 -7v-1h1v-0.5t1 -3.5l5 -9l2 -5q1 -2 1 -3t1 -3t2 -5t2 -5q2 -5 3 -6l2 -6q1 -2 1 -3t2 -6.5
t2.5 -8t1.5 -4t1 -3t1 -3.5t2 -6v-3l1 -1l1 -1h1q1 0 1 0.5zM81 399v6q1 12 2 17q0 6 1 7v1v2q0 2 0.5 5.5t0.5 7t0.5 8t0.5 5.5t1 1l1 1h18q17 0 26 1q20 0 42 1h22h8l6 1v1l1 1v7q1 8 1 13v5v2q0 12 2 24v11t0.5 13t0.5 9.5t0.5 5.5t0.5 4.5v9t0.5 11.5t0.5 10q1 6 1 19v2
q1 2 1 25v8l-1 1l-1 1h-2q-2 0 -8 1h-14q-8 1 -12 1q-5 0 -6 0.5t-13.5 0.5t-13 0.5t-8.5 0.5q-9 0 -16 1q-4 0 -21 1h-7l-1 1v1v4v4.5t1 6.5v4l1 15v15v4l1 3l6 -1h10q7 -1 24 -2q11 0 19.5 -0.5t15 -1t8.5 -0.5q4 0 25 -1q8 -1 11 -1h4h1h1h29h30l1 -1l-1 -1q0 -1 -1 -23
q0 -9 -0.5 -16t-0.5 -15.5t-0.5 -12.5t-0.5 -17q0 -16 -1 -29v-14q-1 -28 -2 -33v-11l-1 -14v-12t-0.5 -12t-1 -18t-0.5 -15q0 -13 -1 -26v-18l-1 -12l-1 -1h-18q-19 -1 -20 -1q-4 -1 -23 -1q-9 1 -23 0q-25 0 -54 -1h-33l-17 -1z" />
  </g>

</svg>
