<?xml version="1.0" standalone="no"?>
<!DOCTYPE svg PUBLIC "-//W3C//DTD SVG 1.1//EN" "http://www.w3.org/Graphics/SVG/1.1/DTD/svg11.dtd" >
<svg viewBox="0 -200 1553 1000">
  <g transform="matrix(1 0 0 -1 0 800)">
   <path fill="currentColor"
d="M797 -187l-1 1h1l2 -1l1 -1h-1q-1 0 -2 1zM740 -180q1 0 1 -0.5t-0.5 -0.5t-0.5 1zM773 -178v1l1 -1v-1zM609 -176.5q0 0.5 1 0.5q0 -1 -0.5 -1t-0.5 0.5zM808 -160h1l1 -1h-1h-1v1zM92 -67q1 0 1 -0.5t-0.5 -0.5t-0.5 1zM99 -63.5q0 0.5 0.5 0.5t0.5 -1q-1 0 -1 0.5z
M93 -62h1h2l-2 -1h-1v1zM97 -62v2v-1l1 -1l-1 -1v1zM111 -61q1 0 1 -0.5t-0.5 -0.5t-0.5 1zM95 -59.5q0 0.5 0.5 0.5t0.5 -1q-1 0 -1 0.5zM98 -59.5q0 0.5 0.5 0.5t0.5 -1q-1 0 -1 0.5zM101 -59v1h1q1 0 1 -0.5t-1 -1.5h-1v1zM107 -58l-1 1v1h1l1 -1v1l1 1h-1l-1 1h-5h-4v-1
v-1h-2h-1h-1v1h-5h-4l-1 1l-1 1v1q0 2 -1 10v7l-1 3l-1 2l1 1l1 1v5q-1 4 -1 8v13q-1 7 -1 12.5t-0.5 12.5t-1.5 9v1l1 2l1 1l-1 2l-1 2v2l1 2h-1l-1 1l1 5v5l-1 2v2v2l1 1l-1 3l-1 4q1 1 -1 36v10v1l-1 1l-1 1h1h1l-1 7v7l-1 4l-1 4l1 2l1 3v1l-1 1v6v6v1h1v1q-1 1 -1 3.5
t-1 5.5l-1 3v5v15l-1 19l-1 10v1l-1 1l1 2l1 1l-1 2l-1 1v2v2l-1 3l-2 2l1 2l1 1l1 5v5.5v5.5v4l-1 4q-1 4 -2 5l1 3v3v3l-1 2v10q0 10 -0.5 14t-1 12t-1 10t-0.5 8q0 13 -2 24v6v13v6l-1 1v1v2l1 2l-1 3l-1 3v3q1 5 0 27v13l-1 1h-1l1 1v1v7v8h-1v5q0 6 -0.5 22.5t-0.5 27
t-0.5 10.5t-0.5 12v13h-1h-1l1 2l1 3v5l-1 5h1v1v3l-1 4l-1 19v24.5v7.5t-0.5 26.5t-0.5 34t-1 18.5v10h1q0 -1 1 0l-1 2q0 2 2 1q1 -1 5 -3l24 -15l9 -6h2h1v-1q0 -1 3 -2.5l3 -1.5q1 -1 9 -5q2 -1 2.5 -2t4.5 -2l26 -15q3 -1 3 -0.5t2 -1.5t8 -5l8 -4q3 -2 4 -2t2 -1
q3 -4 8 -4l3 -2t3.5 -2t5 -3t5.5 -3h1v-1h2h2v-2v-1h2q1 0 4.5 -2t8 -4t7.5 -4q5 -4 15.5 -9t16.5 -10q2 -2 3 -2q2 3 7 -3q6 -6 12 -6q1 0 3 -2.5t3.5 -3t4.5 -2.5t5.5 -3.5t3 -2t3.5 -1.5l3 -1l2 -3l2 -2l2 -1q6 -2 10 -6l1 -1h1q1 0 3 -2l2 -1h1l2 -2q1 -2 2 -2t2 -1
l1 -1h1h1l5 -4q5 -4 5.5 -4t3 -2t3.5 -2h1v-1l1 -1q2 0 5.5 -2.5t4 -2.5t2 -2t4.5 -3l3 -1l1 -1v-1h1h1l3 -3q2 -2 4 -2.5t3.5 -2.5l1.5 -2q3 0 6 -3l2 -2l3.5 -2t3.5 -3t3 -2h3l3 -3l2 -2l1 1l1 -2l1 -1h1h1v-1v-1h1h1l2 -2l2 -2l1 1l1 -2l1 -1h1h1l2 -2l2 -2h2h1v-1v-1h1
h1v-1l2 -1q1 0 2 -1q4 -3 4.5 -3t5 -3l4.5 -3q4 -5 7 -5t7 -4q2 -1 3 -1h1v-1v-1l2 -1l3 -1v-1v-1l1 1h1v-1q1 0 3.5 -1.5t2.5 -2t3.5 -2.5l3.5 -2v-1h2h1v-1l-1 -1h1l1 1l1 -1l1 -1v1v1l2 -2q3 -2 3.5 -2t2.5 -2l2 -2h1h2l2 -2l1 -2h2l4 -2l1 -1h2q8 -8 10 -8q1 0 2 -1
q5 -5 9 -5q1 0 2 2l2 1l1 9q1 10 1 12.5t0.5 6t0.5 14.5q2 37 2 50v12h-1v17v18h-1v1l1 5v5.5v4.5v5l2 -1l3 -1h-1v-1h1h1v-1v-1l1 1h1v-1v0q1 0 1.5 -0.5t1 -0.5t6.5 -3q8 -4 12 -8h1l2 -1q2 -1 3 -1h2v-1v-2l2 1h1l3 -3q3 -2 4.5 -2.5t3.5 -1.5l3 -1v-1v-1h2h2h1
q0 -1 6 -4t7 -4t1.5 -1t2.5 -2l2 -1h3h2l2 -2q2 -1 5 -2l3 -2v-1l-1 -1h4q4 -1 5 -2q2 -4 8 -4q1 0 3 -3l3 -2h3h2l2 -2q1 -2 1.5 -2t4.5 -2.5t7 -3.5l2 -1v-1h1h1l1 -1h1v1l3 -2q2 -1 3 -1q5 -1 6 -4l1 -1l1 1l2 -1l1 -2l5 -1l4 -1l1 -1q1 -2 1.5 -2t4.5 -2t5 -2h1v-1v-1h2
q4 0 11 -6q1 -1 4 -2l3 -1v-1v-2h2h2h1q1 -1 2.5 -1.5t4.5 -2.5l4 -2l-1 -1v-1l1 1l1 1l1 -1q1 -1 4 -2l2 -1h-1v-1l3 -1h3l3 -2l3 -2h-1h-1l1 -1l2 -1h1q2 0 2.5 -0.5t2 -1t6.5 -2.5l5 -3h-1l-1 -1h1h2v-1l1 -1h1h2l5 -3l5 -3v-1l-1 -1l1 1h1q1 -1 6 -4t5.5 -4t4.5 -2.5
t10.5 -6.5t7.5 -5h1v-1l3 -1q7 -3 8 -5l1 -1v1v1l1 -1v-1l3 1q6 2 8 5l1 2l1 9q1 8 1 11t0.5 6.5t1 8.5t1 5.5t0.5 10.5v11l1 2l1 2l1 1h2l3 -1q2 -1 2.5 -1t4.5 -1.5l12 -4.5l8 -3v-1v-1h2q1 -1 4 -1.5t7 -2.5l3 -1h1v1v-1v-1l2 1h2l1 -1q1 0 6 -1.5t8.5 -3t6.5 -1.5l3 -1
l1 -1l1 -2v1v2l1 -2l2 -1h1l1 1l2 -2l1 -2l1 1l1 1l2 -1l3 -1h1h2l3 -2l3 -2l1 1h2l2 -1l2 -2h1h2l1 -1q1 -1 2 -1h1v-1v-1l2 1h1l1 -1v-1l1 1h1h1q0 -1 2 -2l2 -1l1 1v1l6 -2q6 -2 7 -3l2 -1h1h1h2l2 -1v-1l-1 -1h2h1l1 -1h2l1 1l3 -1l3 -1l1 -1l1 -1l5 -1h5l2 -1l1 -1
l5 -2.5t7.5 -3t5 -1.5t3 -1t3 -0.5t5.5 -1.5q9 -1 16 -5l2 -1l-1 -1h2q2 0 4.5 -0.5t6.5 -2.5l5 -1l1 -2l2 -1h2l2 1l5 -3l4 -3l1 1h2l4 -2l4 -2v1h1l1 -1l5 -2q3 -2 4 -2h2v-1h1q2 0 7 -2l4 -2v-1l-1 -1h3h2v-1h3h3v-2v-1h1h2v-1h1v1l1 1l2 -2l2 -1v-1l-1 -1l1 1h2h1
q0 -1 1 -1q5 -1 10 -3q8 -3 11 -3h1l1 1l1 1v7q1 6 1.5 8t1.5 10v7v3v3l1 1v6v5l1 2v2l2 1h2l4 -1h3v-1l1 -1h1h2l1 -1h1l5 -2l5 -1l2 -1l2 -1l4 -1h3l1 -1q1 -1 3 -2h3l2 -2q3 -3 5 -1h1l3 -1q11 -5 13 -5h1l1 -1l1 -1q2 0 3 -1t2 -1t1.5 -1t2.5 -2l2 -1l-1 2v1l1 -1
q2 -1 5 -2t7 -3.5t6 -2.5h1l3 -2q3 -2 4 -2q5 0 12 -6l2 -2h1q2 0 5 -1l4 -2l-1 -1h1l1 1l3 -2l4 -2v-1h1q5 0 9 -5h1q5 -2 11 -5q1 -1 6.5 -3.5t8.5 -4.5t4 -2l10 -5q5 -3 8.5 -4.5t5.5 -3.5l2 -2h1l1 1l1 -2q1 -1 8 -4q13 -7 13 -9l3 -1h4v-2v-1h2h1l2 -2q3 -2 3 -1.5
t2 -1.5l3 -1v-1v-1l1 1h1l1 -1v-1l6 -3l6 -3l4 -3q4 -3 5 -4q2 -2 3 -2q1 1 15 -9l5 -4h1l1 1l2 -2q1 -1 2 -1t3 -2l2 -2q3 0 4 -5l1 -2q1 0 1 -1v-1l-3 -2l-2 -1h-1q-2 1 -3.5 1t-1.5 1q-1 1 -6 2h-3v-1h-4l-3 -1l-3 -1q-3 -2 -4 -2t-2.5 -1.5t-4.5 -3t-9 -5.5l-6 -4v-1v-1
l-8 -3l-7 -4l-4 -4l-5 -4h-1h-1l-3 -2q-3 -2 -3.5 -2t-3 -2.5t-5.5 -3.5t-5.5 -2.5t-4.5 -2.5h-1l-3 -3q-3 -3 -3 -4v-1h-1h-2v-1l-1 -1l-4 -1l-6 -3l-2 -2l-1 -2l-1 -2l-3 -1q-3 0 -4 -1l-1 -1l-1 1h-1l1 -1v-1h-1h-1v-1v-1l-3 -1l-3 -2l-5 -4l-5 -4h1v-1h-2l-1 1v1l-1 -1
l-1 -1h-2l-3 -1v-1q0 -1 1 -3v-2h-1q-1 0 -2 -1l-1 -1l1 -4l1 -3v1v1l1 -1l1 -1h-1l-1 -1h1h1l-2 -1l-1 -2l1 -1l1 -2h-2h-1l1 1v1l-1 -1q-1 -1 -1.5 -2.5t-1.5 -2.5l-1 -1l-2 1l-1 1v-1l-1 -1h1h1l-1 -1h-1l-1 2l-1 1h-1l-1 -1l2 -1l2 -2l-2 -1l-2 -1v1v0h1v1v2v-1l-1 -1
h-1l1 1l1 1h-1q-4 1 -6 1l-1 1v-1v-1h1l2 -1l1 -1v-2l-1 -1l1 -1l-3 -2l-3 -1v1v1h1h2l-1 2v1l-3 -2l-2 -2h-2h-3v1l1 1l1 1h-1h-1l1 1v1q-1 0 -2 -1l-1 -1l1 -1h1h-1h-1v2v1l-1 1l-1 1l-1 -1l-1 -1h1l1 1v-2v-1v-1q1 0 1 -1v-1l-1 2l-2 2v-1v-2h-2l-1 -1h2h3v-1v-1h-2h-1
l1 -1v-1l-1 1v1v1h-3h-3l1 -2v-1h-1l-2 -1v1v1h-2h-1l-2 -1l-1 -2h1q1 0 1 1l-1 -1l-1 -2v1l-1 1h-1q-1 0 -2 -1h-2l1 -1l1 -1l-1 -1l-1 -1q-1 1 -2 1v-1v-1l-1 -1l-1 -1l1 1h1v-1v0h-1v-1l1 -1h1q2 0 2 -1h-2h-3h1v1h-1l-1 -1h-1h-1l-2 1h2h2v1v2h-2h-3l1 -1h-2h-2v-1h-1
l-2 1v-1l-1 -1h-1h-1l1 1h1h-1q0 1 -1 0l-1 -1v-2l1 -2l-1 -1l-2 -1v2q0 2 -5 2h-3l-1 1v1v-1v-1h1l-1 -2v-1l1 -1h2l-1 -1q0 -1 -1 -1h-1l1 1v1v-1h-1v-2v-2l-1 2l-1 2h1h1l-1 2v1h-1h-1l1 -1v-1l-2 -1h-2v-1v-1h-1h-1l-1 2v1l1 1l2 2l-1 1h-1h-1h1l1 -1v-1h-2l-2 1l1 -1
v-1l-1 -2v-2l-2 1h-1v-1h-2l-1 1h1v1l-2 -1l-3 -1h-3l-2 1v1v1h-1h-1v-2v-2h-1l-2 1v1l-1 1l-2 -1h-2l-1 -2l-2 -3l1 1h2v-1h1h1l1 1v1h1h2v-1l1 -1l-1 -1h-1h-1v1v1l-1 -1h-1l1 -2v-1l-1 -1q-2 -1 -4 1l-1 2v-1v-1h-2h-2v-1v-1h-3h-4v2v1h-2l-1 -1l1 1v2l-1 -1q-3 -1 -6 1
l-3 3h-1l1 -1v-2l1 1l2 -2l2 -2l-1 -1l-2 -2l-1 2q-2 2 -3 4v3v1l-1 1h-4h-2l-3 2l-2 2v4v3h1v1l-1 1v5v4l1 2l1 2l-1 -1l-1 -1h-1v1l1 1l-1 2l-1 1h1q1 1 1 3v2l-1 -1h-1l2 2l2 1h-2h-1v2v5l1 1l-1 1v2l-2 -1h-2l1 1l1 1l-2 2l-2 3l-1 -1l-2 1h-2l1 2l1 1l-1 -1l-2 -1l1 -1
v-1h-1v1l-1 -2l-2 -1h-2h-3l-1 1l2 1l1 1l-2 -1h-2v1h-1v0q0 -4 -2 -4h-1l1 1v1h-1q-1 0 -1 -1l-1 -2l-1 1h-1l-1 -1l-1 1h-1h-1v-1v-1h-1q-1 1 -2 1v1l-3 -3l-2 -2h-1h-2v1v1h-1h-1v-1v-1h-1l-1 1v-1v-1l-2 1h-2l-3 -1l-2 -1h-1h-1l-1 -1v-1h1l1 1v-1v-1h-1h-1l-1 1v2
l-2 -2l-2 -2h-1l-2 1v1l-1 -1q0 -1 -1 -1h-1l1 -1l-1 1l-1 1l-2 -2l-2 -2h-4h-3l-1 -2l-1 -1h-2h-1l-2 -2h-2v1v1h1h1l-1 1v1h-2h-1l-2 -2l-2 -2h-1l-1 1v-1v-2h1h1h-1q0 -1 -1 -1h-1l1 1l-1 1h-1h-1v-1l-3 -1h-3l-1 1h-1l-2 -1l1 -1q1 -2 -2 -3h-3l-1 -2l-1 -1l1 2v1l-1 -1
l-2 -1h-3h-4l-1 -1l1 -1v-1h-1l-1 -1v-1v-1h-1l-1 1l1 1l1 1h-2q-1 1 -3 0h-2l-2 -3l-2 -3l-2 -1l-2 -1l-1 1q-1 1 -3 1h-1v-1v-1l-3 -1q-4 -2 -5 -3l-1 -1v1v1h-1q-1 0 -1 -1h-1h-1l-1 1l-1 -1q-1 0 -1 -0.5v-1.5v-1h-3q-3 1 -4 2l-1 1l1 -1v-2l-2 -2l-2 -3l-2 1h-1l-1 -1
l-2 -1l-1 2v1v-1v-1l-3 -1l-3 -2l-1 1h-1v-1h-1h-1v-2l-1.5 -1.5t-3.5 -0.5h-3v-1q-1 0 -4 -2l-2 -1l-1 1h-1l-1 -1l-1 -1l-1 1h-1v-1v-1l-1 1h-2v-1v-1v1h-1v-1h-1h-1v-1v-1h-2l-2 1l-1 -1q-1 -1 -2.5 -1.5t-1.5 -1.5h-1h-2h-3v-1v-1l-1 -1q-1 0 -2.5 -0.5t-4.5 -0.5l-2 -1
l-2 -1l-1 -2v1v1h-2h-2l1 -1v-1h-3h-3l-4 -2q-3 -1 -3.5 -1.5t-2 -0.5t-2 -0.5t-2 -1t-2.5 -0.5v-1l-1 1v1l-2 -2q-1 -1 -1.5 -1t-3.5 -2q-4 -1 -10 -2q-2 0 -2.5 -0.5t-3.5 -0.5h-2v-1v-1h-1h-1v1l1 1l-2 -1l-1 -1h-2h-1l-1 -1l-1 -1l-1 1l-1 2l-1 -1h-1l1 2v3
q0 1 -0.5 3.5t-0.5 3.5l-1 2l1 2l1 3v14q1 14 1 24v11l-1 1l-1 1l1 1l1 1v2v2h-1q-1 0 -4 6q-1 3 -3 4l-1 2h-2l-3 1l-2 -1l-3 -1v-1v-1l-2 1h-2l1 -1l-3 -1l-2 -1l-1 1l-1 -2l-1 -1h-1h-2l-2 -3q-3 -3 -3 -2.5t-4 -1.5t-8 -2l-3 -1l-1 -1v-2l-2 1h-1v-1h-1h-2v-1v-1h-2
l-2 -1v-1l-3 -2q-6 -3 -7 -4l-1 -1v1h-1l-4 -2q-4 -2 -5.5 -2.5t-6.5 -2.5t-8 -3l-2 -2l-1 1q0 1 -1 1v-1v-1h-1h-1l-1 -1l-2.5 -1.5t-2.5 -1t-2 -1.5l-2 -1l-4 -1l-3 -1h-1l-1 1v-1v-1h-1q-2 0 -2.5 -0.5t-4.5 -2t-5 -2.5h-1h-1l-1 -1l-2 -1h-5l-4 -1l-1 -1h-2h-2l-5 -3
l-5 -3l-2 1h-2l-1 -2l-1 -1h-2l-1 1v-1l-1 -1h-1l-2 1v-1v-1h-1h-1l-2 -2l-2 -2l-2 1h-2l-1 -2h-2l1 1h-2h-1l-1 -1q-1 -2 -3 -2l-2 -1l1 -1l-1 1l-1 1l-1 -1v-1h-3l-3 1v-1q-1 -2 -5 -2h-2l-2 -1l-2 -2v-1q0 -1 -1 -2h-1l-1 1l-1 2v-2v-2l-2 1l-1 1l-2 -2q-2 -1 -3 -1h-1v1
h-1l-1 -1h2l1 -1h-1h-2l-8 -4l-3 -1l-1 1v-2v-1l-1 2l-1 1v-1v-2l-1 1h-2l1 -1v-1h-3h-3v-1v-1h-1l-1 1l-2 -3l-2 -2h-3l-4 -1l-2 -1l-1 -2h-2l-2 1l-1 -2v-1h-1l-2 1v-1v-1h-1h-1l-2 -2l-2 -2l-3 -1h-3l-1 -1h-1l-1 1v-1v-1l-5 -2q-4 -2 -4.5 -2t-2.5 -1t-3 -1t-2 -1l-1 -2
h-2h-1v-1h-2h-2l-1 -1q-1 -2 -3 -2h-1v-1v-1h-2q-3 -1 -3.5 -2t-2.5 -2l-3 -1v-2v-1v1l-1 1h-1h-1v-2v-1h-2h-2l-1 -1l-2 -1v1v1h-1h-1l1 -2v-1h-1v1v1l-3 -1h-2l-2 -2q-2 -2 -3 1l-2 1l1 4v16.5v17.5v5v2l1 2v9v9h-1v4q1 4 1 30v25l-1 1v2l1 1v8l-1 17v8l-1 3q-1 2 -4 5
l-2 2h-5h-4h-1l-1 -1h-3h-2l-2 -2l-2 -1l-4 -2q-5 -2 -5 -2.5t-2 -0.5h-2l-1 -2l-1 -1h-2l-2 1v-2v-1v1h-1v-1v-1l-1 1h-2l1 -1h-1h-2v-2l-1 -1h-1h-2v-1v-1h-2l-2 -1l-2 -1l-1 -1l-1 1l-1 -1l-2 -2v1h-1v-1v-1l-1 1h-1v-1l-2 -1q-3 -2 -3 -1.5t-2 -1.5l-1 -2v1h-1l-5 -2
q-4 -3 -5 -3h-1l1 -1h-2h-1l-2 -3q-3 -3 -4 -3t-2 -1q0 -1 -5.5 -3.5t-6.5 -2.5v-1l-3 -1q-3 -2 -4 -2h-2v-1h-1h-1h-1q0 -1 -3.5 -3.5t-4.5 -3.5q-4 -5 -15 -7h-2v-1v-1l-3 -2l-3 -1v-2l-1 -2l-3 -1h-3h-1v-1v-1h-1q-1 0 -2 -0.5l-1 -0.5h-1l1 -1l1 -1l-1 1h-1l-3 -1l-3 -2
l-1 1h-1l1 -1v-2l-1 1l-1 1v-1.5t-3 -0.5l-2 -1v-1v-1q-1 0 -3 -1h-2v-1v-1l-1 1h-1l-2 -2l-2 -2h-3h-2v-1v-1l-3 -1l-3 -1v-1v0l-1 1l-1 -2v-2l-1 1h-1l-1 -1l1 -1l1 -1h-2l-2 1l-2 -2q-1 -1 -5 -3t-4 -3l-1 -1h-1h-2l-1 -1l-2 -1v1v1l-1 -2q-1 -1 -1.5 -1t-0.5 -1h-1h-2
l-1 -2l-1 -2h-1h-1l-1 -1l-2 -2v1h-1l-2 -2l-2 -1v-1v-2l-1 1h-2v-1l-1 -2l-2 1h-2l-2 -2l-1 -2l-1 1v-1l1 -1l-3 -1l-3 -1l-1 1h-1h-1h-1l1 -2v-1l-1 1l-1 1l-1 -2l-1 -3h-2h-1v-1v-2h-1q-1 0 -1 2l-1 1l-3 -3l-2 -2v1h-1h-1q-2 -1 -3 -2l-1 -1h-1h-2l-2 -3l-2 -3h-1
q-2 0 -2 -1l-1 -1l1 -1l1 -1l-2 1l-3 1v-1v-1v1l-1 1l-2 -2l-1 -2l-1 1h-1l-4 -3l-3 -3l1 -1v-2l-1 2l-2 2h-1h-1l1 -1l1 -1h-1h-1v-2l-1 -2l-1 -1q-2 -1 -4 -1h-2l1 -1v-1h-1h-1v-1l1 -1h-2h-2v1h-1h-1v-3l-1 -2h-1v1l1 1h-2h-2v-1v-1l-2 1h-2l1 -1v-1h-1h-1l-2 -2l-1 -1
h-1h-1l-1 -1l-1 -2l-1 1v2v-3v-3l-1 -1h-2v1v2h-2l-1 -1h1h1v-1l-1 -1l-1 1h-2l1 -1v-2l-2 1h-1v-2v-1h-1h-1v-1h1h-3l-3 1l-1 -2l-1 -2l-1 -1h-1v-1l1 -1l-3 -2l-3 -1l-1 1v1h-1h-2l1 -1v-1l-1 -1l-1 -2h-1l1 1v2l-1 -1h-1v2v2h-1h-1v-2l-1 -2h-1h-1l-1 -1l-1 -2l-2 1h-2
l1 -1h1l-1 -1v-1h1l1 1v-1v-1h-1h-2v1l-3 -2l-3 -1h-1v1v-1v-1h-2h-1l1 -1l-1 -1h-1l1 -2l1 -1l-1 -1h-1l-1 1l-1 1v-2v-1h-2h-1v-1l1 -1h-1h-3q-3 0 -7 -2l-2 -1v1v1h-1v-1v-1l-1 1h-1l-2 -1l-2 -1h1v-1h-2l-3 1v-1q0 -1 -2 -3l-2 -1l1 -2v-1l-1 -1q-1 -2 -2 -1zM108 -52.5
q0 0.5 -0.5 0.5t-0.5 -1q1 0 1 0.5zM109 -49.5q0 0.5 -1 0.5q0 -1 0.5 -1t0.5 0.5zM115 -47l-1 1h1v1h-1l-1 -1l1 -1q1 -1 2 -1h1zM120 -45q0 1 -0.5 1t-0.5 -0.5t1 -0.5zM134 -42v1l-1 -1v-1zM130 -41.5q0 0.5 -0.5 0.5t-0.5 -1q1 0 1 0.5zM141 -39v-0.5v-0.5v1zM140 -36
l-1 1v-1l-1 -1h1h1v1zM148 -31.5q0 0.5 -1 0.5q0 -1 0.5 -1t0.5 0.5zM166 -25v-0.5v-0.5v1zM171 -21q3 1 0 2l-2 1l1 -1l1 -1l-1 -1h1zM174 -20h-1v-1v-1l1 1h1zM191 -7.5q0 0.5 -1 0.5q0 -1 0.5 -1t0.5 0.5zM193 -6q-1 0 -1 -0.5t0.5 -0.5t0.5 1zM220 8l-1 1h-1v-1h2z
M551 11.5q0 0.5 -1 0.5q0 -1 0.5 -1t0.5 0.5zM226 12q0 1 -0.5 1t-0.5 -0.5t1 -0.5zM232 15q0 1 -0.5 1t-0.5 -0.5t1 -0.5zM569 18v-0.5v-0.5v1zM241 23.5q0 0.5 -0.5 0.5t-0.5 -1q1 0 1 0.5zM593 32h-1h0.5h0.5zM626 46h-1h0.5h0.5zM296 52.5q0 0.5 -0.5 0.5t-0.5 -1
q1 0 1 0.5zM642 55q-1 0 -1 -0.5t0.5 -0.5t0.5 1zM311 64l-1 1v-1h-1h1h1zM734 89.5q0 0.5 -1 0.5q0 -1 0.5 -1t0.5 0.5zM376 100h-1h1zM374 100.5q0 0.5 -1 0.5q0 -1 0.5 -1t0.5 0.5zM1020 105q0 1 -0.5 1t-0.5 -0.5t1 -0.5zM389 106.5q0 0.5 -0.5 0.5t-0.5 -1q1 0 1 0.5z
M1246 106q0 1 -0.5 1t-0.5 -0.5t1 -0.5zM1265 113q-1 0 -1 -0.5t0.5 -0.5t0.5 1zM1288 112v1l-1 1v-1zM798 113.5q0 0.5 -0.5 0.5t-0.5 -1q1 0 1 0.5zM1282 114h-1h1zM1284 114h-1h0.5h0.5zM1291 115v1l-1 -1v-1h1h1zM1043 115.5q0 0.5 -1 0.5q0 -1 0.5 -1t0.5 0.5z
M1305 118v2l-1 -1h-1l1 -1q0 -1 1 -1h1zM1293 118h-1h1zM1047 119v-0.5v-0.5v1zM1301 121v1v-1l-1 -1q1 0 1 1zM1221 122h-1h1zM1308 123l1 1h-1l-1 1l-1 -1v-1v-1h1q1 0 1 1zM1303 124v1h-1v-1l1 -1v1zM1317 125l1 1l-2 1h-1l-1 -1h-1h-1v1h1h-2h-1v-1v-1l1 -1h3h2z
M1316 126q1 0 1 -0.5t-0.5 -0.5t-0.5 1zM1320 125h-1l-1 -1h1h1v1zM1301 128l1 1h-2q-2 -1 -1 -2t2 1zM1306 126.5q0 0.5 -1 0.5q0 -1 0.5 -1t0.5 0.5zM1304 128q0 1 -0.5 1t-0.5 -0.5t1 -0.5zM1308 129h-1h1zM1321 129l-1 1h-1h-2l1 -1h2h1zM1313 130h-1l-1 -1h1h2z
M1316 130.5q0 0.5 -1 0.5q0 -1 0.5 -1t0.5 0.5zM1323 130.5q0 0.5 -1 0.5q0 -1 0.5 -1t0.5 0.5zM1324 131v-0.5v-0.5v1zM1321 131.5v0.5v-1v0.5zM1330 133l-1 1q0 -1 1 -2h1zM1087 132.5q0 0.5 -1 0.5q0 -1 0.5 -1t0.5 0.5zM1334 134q0 1 -0.5 1t-0.5 -1l-1 -1h1h1v1z
M1087 135v1l-1 -1h-1h1h2h-1zM1329 135l-1 1v-1h-1h1h1zM1097 136.5q0 0.5 -1 0.5q0 -1 0.5 -1t0.5 0.5zM1100 136.5q0 0.5 -1 0.5q0 -1 0.5 -1t0.5 0.5zM444 138q0 1 -0.5 1t-0.5 -0.5t1 -0.5zM1101 139v1l-1 -1v-1h1v1zM1316 138.5q0 0.5 -0.5 0.5t-0.5 -1q1 0 1 0.5z
M1099 139q0 1 -0.5 1t-0.5 -0.5t1 -0.5zM1365 139q0 1 -0.5 1t-0.5 -0.5t1 -0.5zM1103 141q0 1 -0.5 1t-0.5 -0.5t1 -0.5zM1133 146l-1 1h-1v-1h1h1zM1127 147h-1h1zM1130 148.5q0 0.5 -1 0.5q0 -1 0.5 -1t0.5 0.5zM1357 149v-0.5v-0.5v1zM1362 149q-1 0 -1 -0.5t0.5 -0.5
t0.5 1zM1368 149q0 1 -0.5 1t-0.5 -0.5t1 -0.5zM1372 151q-2 1 -2 1.5t-1 -0.5l-2 -1l3 -1l2 -1h1zM1375 150v1v-1v-1l1 1h-1zM1380 149q0 1 -0.5 1t-0.5 -0.5t1 -0.5zM1365 153q0 1 -0.5 1t-0.5 -0.5t1 -0.5zM1368 153l-1 1l-1 1l1 -1zM1378 154v0v0zM1155 155.5
q0 0.5 -1 0.5q0 -1 0.5 -1t0.5 0.5zM1379 157q0 1 -0.5 1t-0.5 -1t0.5 -1t0.5 1zM1382 158l-1 1v-1v-2h1l1 1zM1379 159q0 1 -0.5 1t-0.5 -1t0.5 -1t0.5 1zM1218 161h-1h1zM1378 161v1l-1 -1h1zM1380 161h-1h1zM1377 164h-1v-1h1h1zM1200 167h-1h-1l-1 -1h2h1v1zM1237 196v1
l-1 -1h1h1h-1zM1239 199q0 1 -0.5 1t-0.5 -0.5t1 -0.5zM1021 233h-1h0.5h0.5zM686 257q2 0 3 0.5t6 2.5l5 1q0 1 3 2l3 1v-1h1l1 1v1h1q1 0 3 2t5 3l2 1l1 2q1 3 2 3t4 3l3 4l4 5q3 6 3 7t1.5 3.5t3.5 8.5l2 5v6v6l-1 2q0 2 -0.5 6t-1 4.5t-2.5 5.5l-1 5l-2 2q-4 7 -4 8
t-8 8.5t-10 7.5l-2 2l-1 2h-2h-2h1v1h-1q-1 0 -5.5 2t-5.5 2.5t-5 1.5q-11 4 -23 3h-4l-3 -1q-4 -2 -10 -3l-7 -3l-7 -3l-3 -3q-4 -3 -4 -3.5t-1 -0.5l-1 -1l-5 -6q-10 -12 -10 -15q0 -1 -1 -3t-2 -8l-1 -5v-3v-2l-1 -1v-1h1v-2v-3h1v-3q0 -7 2 -8q0 -1 1 -4.5t1 -4t1 -0.5
h1l1 -3l1 -4l2 -2q2 -3 3 -6l1 -2l1 -1l2 -1v-1q0 -1 1.5 -3t2 -2t2.5 -2t5 -4l3 -3h2h2l2 -1l1 -2h1h2l1 -1l1 -2h1l1 1l3 -2l2 -1h3q2 0 4 -1l2 -1l8 1h10zM1428 339v-0.5v-0.5v1zM1353 377h-1h0.5h0.5zM1331 386.5q0 0.5 -0.5 0.5t-0.5 -1q1 0 1 0.5zM1252 417v-0.5v-0.5
v1zM950 458.5v0.5v-1v0.5zM893 479v-0.5v-0.5v1zM99 -56v1l1 -1q1 0 1 -1zM110 -54v1h1h1v-1v-1h-1h-1v1zM114 -54l-1 1h1l1 1v-1q0 -3 -1 -1zM126 -51l1 1v-1h-1zM121 -48v1l1 -1v-1h-1v1zM131 -46v1h1v-1l-1 -1v1zM134 -45.5q0 0.5 0.5 0.5t0.5 -1q-1 0 -1 0.5zM157 -29h1
h-1zM166 -27.5q0 0.5 0.5 0.5t0.5 -1q-1 0 -1 0.5zM170 -27v1v-1h1l-1 -1v1zM160 -26.5q0 0.5 0.5 0.5t0.5 -1q-1 0 -1 0.5zM181 -20h1v-1h-1h-1zM183 -19h1h-1zM190 -13v2l1 -1v-1q-1 -2 -1 0zM564 13q0 1 0.5 1t0.5 -0.5t-1 -0.5zM258 30v1h1h1l-1 -1q0 -1 -0.5 -1t-0.5 1
zM265 30q0 1 0.5 1t0.5 -0.5t-1 -0.5zM262 32h1h-1zM623 43v1h1v-1l-1 -1v1zM292 48v1v-1h1l-1 -1v1zM317 64h1h-0.5h-0.5zM943 75h1h-0.5h-0.5zM699 76v1h1v-1l-1 -1v1zM946 76q1 0 1 -0.5t-0.5 -0.5t-0.5 1zM949 77q1 0 1 -0.5t-0.5 -0.5t-0.5 1zM961 82h1h-0.5h-0.5z
M725 85q0 1 0.5 1t0.5 -0.5t-1 -0.5zM358 87.5q0 0.5 0.5 0.5t0.5 -1q-1 0 -1 0.5zM993 92.5q0 0.5 0.5 0.5t0.5 -1q-1 0 -1 0.5zM996 93h1h-1zM1241 94.5q0 0.5 1 0.5q0 -1 -0.5 -1t-0.5 0.5zM1253 96h1h-0.5h-0.5zM1238 97v-0.5v-0.5v1zM1239 97q0 2 -1 3q1 0 1 -1v-1h1h1
v-1q0 -1 -2 0zM1010 98q1 0 1 -0.5t-0.5 -0.5t-0.5 1zM1241 100v0v0zM1245 100h1h-0.5h-0.5zM1240 102v1v-1h1l-1 -1v1zM1266 103v1h1h2q0 -1 -1 -2h-1zM1270 103v1l1 -1h-1h-1h1zM1272 104v2h-2h-1v1q0 1 1 2v1v1h1h1v-1v-1h1l1 1v-1q0 -1 -0.5 -2t-0.5 -2l-1 -2v1z
M1284 106q0 1 0.5 1t0.5 -0.5t-1 -0.5zM1032 107h1h-1zM1266 108v1l1 -1h-1zM1293 109v1l1 -1l1 -2h-1h-1v2zM1279 109h1l1 -1h-1h-1v1zM1295 108.5q0 0.5 1 0.5q0 -1 -0.5 -1t-0.5 0.5zM1297 109q1 0 1 -0.5t-0.5 -0.5t-0.5 1zM1299 109v-0.5v-0.5v1zM1290 110v1l1 -1v-1
h-1v1zM1261 110.5q0 0.5 1 0.5t1 -0.5t-1 -0.5t-1 0.5zM1276 111h1h1q-1 -1 -1.5 -1t-0.5 1zM1301 110q0 1 0.5 1t0.5 -0.5t-1 -0.5zM1306 111h1h-0.5h-0.5zM1309 111h1h-1zM400 113l-1 1l1 -1l1 -1q-1 0 -1 1zM1044 113v-0.5v-0.5v1zM1306 114h1l-1 -1v1zM1311 113.5
q0 0.5 0.5 0.5t0.5 -1q-1 0 -1 0.5zM1053 117q0 1 0.5 1t0.5 -0.5t-1 -0.5zM1321 117.5v0.5v-1v0.5zM413 119q1 0 1 -0.5t-0.5 -0.5t-0.5 1zM1307 119l-1 1h1l1 -1h-1zM421 120q0 1 0.5 1t0.5 -0.5t-1 -0.5zM1328 120.5q0 0.5 0.5 0.5t0.5 -1q-1 0 -1 0.5zM1326 123q0 1 1 1
h1l-1 -1q0 -1 -1 -1l-1 -1zM1329 123h1v-1h-1h-1zM1337 125v2l1 -1h1h2v-1h-1q-1 0 -3 -1h-1zM1085 126q1 0 1 -0.5t-0.5 -0.5t-0.5 1zM1344 128l1 1h1v-1v-1h-1zM1333 128q0 1 0.5 1t0.5 -0.5t-1 -0.5zM1335 129h1l1 -1h-1h-1v1zM1338 128l1 1l1 -1h-1h-2h1zM1352 129h1h1
v-1h-1h-1v1zM1349 129h1h-0.5h-0.5zM1345 131q1 0 1 -0.5t-0.5 -0.5t-0.5 1zM1348 131h1l1 -1h-1h-1v1zM1353 131v-0.5v-0.5v1zM1356 131q1 0 1 -0.5t-0.5 -0.5t-0.5 1zM1090 131.5q0 0.5 0.5 0.5t0.5 -1q-1 0 -1 0.5zM1360 131.5v0.5v-1v0.5zM1093 132h1h-1zM1096 132h1h-1
zM1351 134l-1 1h3h3v-1q0 -1 -0.5 -1h-2.5l-2 -1v2zM1395 137q1 0 1 -0.5t-0.5 -0.5t-0.5 1zM1367 143v1h1v-1h-1zM1380 144l1 1v-1q0 -1 -1 -1v1zM1137 145.5q0 0.5 0.5 0.5t0.5 -1q-1 0 -1 0.5zM1382 147v0v0zM878 150v1l1 -1v-1h-1v1zM1155 150.5q0 0.5 1 0.5
q0 -1 -0.5 -1t-0.5 0.5zM1213 150.5q0 0.5 1 0.5q0 -1 -0.5 -1t-0.5 0.5zM1395 152q0 1 0.5 1t0.5 -0.5t-1 -0.5zM1392 155v-0.5v-0.5v1zM1179 156q1 0 1 -0.5t-0.5 -0.5t-0.5 1zM1392 156.5q0 0.5 0.5 0.5t0.5 -1q-1 0 -1 0.5zM1187 157q0 1 0.5 1t0.5 -0.5t-1 -0.5z
M1389 157.5v0.5v-1v0.5zM1195 161q0 1 0.5 1t0.5 -1h-1h-1h1zM1203 161h1h-0.5h-0.5zM1211 161l1 1v-1h1h-1h-1zM1207 163h1l1 -1h-2h-1zM1384 163h1l1 -1h-1h-1v1zM492 163q0 1 0.5 1t0.5 -0.5t-1 -0.5zM498 166.5q0 0.5 0.5 0.5t0.5 -1q-1 0 -1 0.5zM1397 173.5
q0 0.5 1 0.5q0 -1 -0.5 -1t-0.5 0.5zM1135 399q1 0 1 -0.5t-0.5 -0.5t-0.5 1zM1010 440q1 0 1 -0.5t-0.5 -0.5t-0.5 1zM552 555.5q0 0.5 0.5 0.5t0.5 -1q-1 0 -1 0.5z" />
  </g>

</svg>
