<?xml version="1.0" standalone="no"?>
<!DOCTYPE svg PUBLIC "-//W3C//DTD SVG 1.1//EN" "http://www.w3.org/Graphics/SVG/1.1/DTD/svg11.dtd" >
<svg viewBox="0 -200 1000 1000">
  <g transform="matrix(1 0 0 -1 0 800)">
   <path fill="currentColor"
d="M351 850q-1 -1 2 -1h7.5h10.5l16 -1q-2 0 -26 -1l-15 -1q2 -1 20 -1h20l-23 -2q-18 -1 -19 -1h15q20 0 20.5 -1.5t-25.5 -1.5l2 -1q28 -1 29 -2h-4t-10.5 -0.5t-14.5 -0.5l-1 -1q29 0 30 -1l-3 -0.5t-8.5 -0.5h-11.5v-1l25 -2h-16q-6 0 -10.5 -0.5t-7.5 -0.5h-3
q1 -1 21.5 -1.5t20.5 -1.5h-2.5h-7.5h-10.5h-10t-7 -0.5l-2.5 -0.5q0 -1 20 -1.5l20 -0.5l-1.5 -0.5t-4.5 -0.5h-6q-14 0 -21 -1q-6 -1 0 -1h13l15 -1q-2 0 -25 -1q-15 -1 -16 -1l21 -1h21l-26 -2l-15 -1h19l21 -1q-1 -1 -25 -2l-16 -1h20l21 -1q-5 -1 -27 -1q-5 0 -10 -0.5
t-8 -0.5t-2 0l20.5 -0.5t21.5 -1.5l-2.5 -0.5t-7.5 -0.5h-11l2 -1q22 -1 23 -2h-3t-8 -0.5t-12 -0.5l-1 -1q22 -1 24 -1l-20 -1q-20 0 -20 -0.5t16 -1.5l23 -1q-3 -1 -13 -1h-9h-6.5h-2.5q1 -1 20 -2l15 -1h-12l-21 -2q3 -1 19 -1l1 -1q-24 -1 -24 -2q-1 0 2 0h8h10.5
t10.5 -0.5t7.5 -0.5h2.5l-26 -1t-26 -2h3.5h10h14.5h14.5h10t3.5 -1q-1 0 -28.5 -1l-27.5 -1h2t6 -0.5t9 -0.5q19 0 19 -1t-19 -1h-14q1 -1 18 -1q23 -1 24 -2h-3.5t-10 -0.5t-14.5 -0.5h-14.5h-10h-3.5q0 -1 25 -1l28 -1q-3 -1 -20 -1l-1 -2l23 -1q-3 0 -17 -1h-11.5h-8.5
t-2 0q0 -1 23 -1.5t23 -1.5h-2.5t-7 -0.5t-10.5 -0.5l-14 -1q3 0 24 -1q15 0 1 -1h-8q-23 -1 -23 -2q-1 0 2 0t7.5 -0.5t10.5 -0.5h16q-3 -1 -26 -2l-16 -1h24l22 -1q-2 0 -30 -1l-17 -1q1 0 21 -1h21l-25 -2l-15 -1h20h13t9.5 -0.5l3.5 -0.5q-1 -1 -27 -1.5l-26 -0.5
q-1 0 2 -0.5t8 -0.5h11q22 0 23.5 -1t-20.5 -1l-21 -1q2 0 13 -1q14 0 25 -1q11 0 -1 -1h-12h-19q1 0 14 -1l24 -2h-16l-16 -1l16 -1l1 -2h-10.5h-7.5t-2 -1l20 -1l20 -1l-2 -0.5t-6 -0.5h-8l-19 -1q2 -1 17 -1v-1q-20 -1 -21 -2h2.5t7 -0.5t10.5 -0.5h16q-3 -1 -26 -2v-1
h12t8 -0.5l3 -0.5q-1 -1 -23 -2l-1 -1q22 0 22 -1t-23 -1h-11t-8 -0.5t-2 -0.5l20.5 -0.5t21.5 -1.5l-3.5 -0.5t-10 -0.5h-15.5h-21q3 0 26 -1q34 -1 35 -2h-3.5t-9.5 -0.5t-13 -0.5h-19q2 0 16 -1l26 -1q-3 -1 -18 -1h-11h-8t-3 -1q1 0 22 -1l21 -1h-2.5t-7.5 -0.5
t-10.5 -0.5h-10.5h-7.5h-2.5q1 -1 29 -2l10 -1h-18q-19 -1 -19 -2t20 -1h14l-11 -1l-18 -2h17l15 -1q-2 0 -29 -1l1 -2q24 0 22 -0.5t-19 -1.5l2 -1q19 0 18 -1t-24 -2l-2 -1l25 -2h-19q-25 0 -25 -1q-1 0 7.5 -0.5t17.5 -0.5h15t4 -1t-23 -1l-17 -1h11l13 -2q-3 -1 -15 -1
h-7h-4.5h-1.5l17.5 -1t17.5 -2h-13l-7 -1q2 -1 19 -2h13q-1 -1 -10 -1l-21 -1q1 -1 16 -1l1 -2q-20 0 -21.5 -1t19.5 -1l16 -1q-1 0 -26 -1q-15 -1 -16 -1h20q20 -1 21 -1l-25 -2h-17l14 -1q20 0 20.5 -1t-25.5 -2h-19q1 0 23 -1l31 -1q1 0 -3.5 -0.5t-12.5 -0.5h-17l-1 -1
q34 -1 34 -2q1 0 -2.5 0t-9 -0.5t-12.5 -0.5h-18q3 0 15 -1l25 -2h-16h-10.5t-7.5 -0.5l-3 -0.5q1 0 22 -1l21 -1l-2.5 -0.5t-7.5 -0.5h-11q-21 0 -20 -1t6 -1h14l9 -1q-3 -1 -20 -1l-13 -1h1q7 -1 13 -1l1 -2q-17 0 -17.5 -0.5t10.5 -1.5h7l-1 -1q-5 -1 -14 -1h-7
q1 -1 4 -1l2 -2h-10q-3 -1 -3 -2q2 0 -2 -1h-3l-5 -2q2 -1 -1 -2l-1 -2q1 -1 -1 -1.5t-2 -2.5t-2 -2t-1 -1.5t-0.5 -1.5t-1.5 -2t-2 -2.5t-1 -2t-1 -1.5t-2 -1.5t-3 -4.5t-2 -3t-3 -3.5t-3.5 -4t-4 -5.5t-4 -5.5t-1.5 -1.5t-2 -2.5t-2 -2t-1 -1.5t-3 -5t-7 -8t-4 -4t-1 -2
t-1 -2l-3 -4t-4 -6l-2 -5t-2 -5.5t-1 -1.5t-0.5 -2.5t-0.5 -1.5t-0.5 -2t-0.5 -2t-0.5 -2t-0.5 -2v-1v-2q-2 0 -1 -2t-0.5 -2t-1 -1.5t-0.5 -1.5t-0.5 -2t-0.5 -2.5t-0.5 -1.5t-0.5 -2t-0.5 -2.5t-0.5 -1.5t-0.5 -4t-1.5 -4t-0.5 -1.5t-0.5 -1.5t-1 -2v-2q-1 0 -0.5 -1.5
t-1.5 -2.5v-2l-1 -2l-1 -1q2 0 0 -2v-2l-1 -2q-3 -2 -0.5 -2t0.5 -1.5t-1.5 -3t-0.5 -1.5t-0.5 -1.5t-1.5 -1.5v-2v-2q-2 0 -2 -1t2 -2h-1q-2 0 -2 -1.5t1 -1.5v-1q-2 0 -2 -1t1 -2v-1q-2 0 -2 -1t2 -1l-2 -1q-3 -2 -1 -3t-0.5 -1.5t-0.5 -1.5t-1 -2t-0.5 -2t-0.5 -2t-1 -2
t0 -1.5t-0.5 -2t-1 -1.5t-0.5 -2v-2q-2 0 -2 -1t2 -2l-1 -1q-2 0 -2 -1t2 -1l-1 -1v-2q2 -1 -2 -2v-2l-1 -2v-2l-1 -2l-2 -1q4 0 2 -2q-1 -1 -3 -1l-1 -1l3 -2h-2v-2q2 -1 2 -1.5t-2.5 -0.5h-2.5l2 -2q3 -1 -0.5 -1.5t-0.5 -2.5l2 -1h-3q-2 0 -2 -1l3 -2l-1 -1q-4 0 -4 -1
t2 -1l-1 -2q-4 -2 -1 -2v-2v0l-1 -1q4 -1 0 -2l-2 -2h2q2 -1 0 -2q-1 0 -3 -1l3 -2q0 -1 -2 -1v-2v0l-1 -2h-4l3 -1l1 -2q-2 0 -3 -1l4 -2l-1 -1l-4 -1q0 -1 3 -1l-1 -2l-3 -1l3 -0.5l3 -0.5l-3 -1.5l-3 -1.5h3l-1 -2q-3 -1 -3 -1.5t3.5 -0.5t3.5 -0.5t-3 -1.5q-4 -1 -1 -2
v-2l-1 -1q1 0 2 -1q2 0 0 -1q-1 -1 -3 -1v-1q4 -1 4 -1.5t-3.5 -1l-3.5 -0.5l3.5 -1l3.5 -1l-3.5 -0.5t-3.5 -1t3 -1.5v-1q-9 0 1 -3v-1l-4 -2h2l-1 -2q-3 -1 -3 -1.5t3 -0.5l-1 -2v0v-2h2q3 0 -2 -1q-1 -1 -2 -1v-1q10 0 0 -3v-1q4 0 4 -1t-4 -1l-1 -1q2 -1 3 -0.5t2 -1.5
l-4 -1l1 -2v0v-1q-2 0 -3 -1q-2 -1 1 -1q1 -1 3 -1v-1q-7 -1 -1 -2v-1l-5 -2q1 -1 4 -1h3l-3 -1q-10 -2 -1 -3l-1 -1v0v-2q3 0 3 -0.5t-3.5 -1.5t-3.5 -1.5t3 -0.5t3 -0.5t-3 -1.5l-2 -1l4 -2q-1 -1 -3 -1v-2l3 -1l-3 -0.5l-3 -0.5l3 -1t3 -1.5t-3 -1l-3 -0.5l3 -1l-1 -1
q-2 -1 -3 -1q-1 -1 1 -2h3v-1l-4 -2q1 -1 3 -1l-2 -1q-4 -2 0 -2l-1 -2l-1 -2h3q2 -1 -1 -2h-2v-1q6 -2 -2 -3l2 -1q4 0 4 -1t-4 -2v-1v0l-1 -2q-3 0 -3 -0.5t3.5 -1.5l3.5 -1l-3.5 -0.5l-3.5 -0.5l3 -1v-2q-2 0 -3 -1q-1 0 1 -1t3 -1v-1l-4 -2h3l1 -1l-4 -2q1 -1 3 -1
l-1 -2v0l-1 -1l4 -1l-4 -1t-4 -1.5t4 -0.5l-1 -2q-1 -1 -2 -1l4 -2q-1 -1 -3 -1l-1 -1l4 -2q-1 -1 -3 -1l1 -1v0v-2h-3q-2 -1 0 -2q2 0 5 -1l-1 -1q-10 0 0 -2v-1l-4 -2q1 -1 3 -1l-1 -2l-1 -1v0l-1 -2q-3 -1 -3 -1.5t3 -0.5l3 -1q-1 -1 -4 -2l1 -1q4 0 4 -0.5t-3 -1.5
l-1 -1h2q2 -1 0 -2q-1 -1 -3 -1l1 -1l-1 -2v0l-1 -1q11 -3 2 -3t1 -2v-1q-4 0 -4 -1.5t4 -2t0 -0.5l-3 -2h3l-2 -2q-4 -1 -3.5 -1.5t4.5 -0.5v-2v0l-1 -2v0l1 -1q-4 -1 -1 -2q5 -1 -2 -3l1 -1q3 0 3 -1t-3 -1v-2q4 -1 -1 -2q-3 0 -2.5 -0.5t4.5 -1.5l-1 -1v0l-1 -2v0v-2
q-3 0 -3 -0.5t3 -1.5v-2l-3 -1q0 -1 2 -1l1 -1l-4 -2q1 -1 3 -1l-1 -1l-3 -2h3l-1 -2v0v-2h3l-3 -2l-1 -1q1 0 1 -1q2 0 1 -1t-3 -1v-1l4 -2h-3v-2q3 -1 3 -1.5t-3 -0.5t-3 -0.5t3 -1.5l1 -2q-4 0 -4 -1t3.5 -1.5t0.5 -0.5l-4 -2q1 -1 3 -1l-2 -1q-3 -1 -3 -1.5t3.5 -0.5
t3 -0.5t-3.5 -1.5l-1 -2h3.5t-2.5 -2l-1 -1q4 0 1 -2q-1 -1 -3 -1l1 -1q2 0 2 -1t-2 -2h-1l4 -2q-1 -1 -2 -1v-2q2 -1 2 -1.5t-3 -0.5h-3l3 -1.5l3 -1.5h-3t-3 -0.5t2 -1.5l1 -2q-4 0 -4 -1t4 -2q-4 0 -4 -1.5t4 -1.5l-1 -2v-1q2 0 2 -1l-4 -2l1 -1h3q2 -1 -1 -2q-1 0 -2 -1
q3 -1 3 -2t-3 -1l-1 -1q4 -1 4 -2t-4 -1l-1 -1q10 -2 1 -2l1 -2v0v-2h-3q-1 -1 1 -2q1 0 3 -1h-1l-4 -2q1 -1 3 -1l-1 -1l1 -2v0l-1 -2v0l-1 -2v0l1 -2l-4 -1l4 -1l-1 -2l-1 -1q2 0 2 -1q3 -1 -1 -1q-1 -1 -3 -1l1 -1q9 -2 0 -2l2 -2q4 -1 4 -1.5t-4 -0.5t-4 -1q2 -1 6 -1
q2 0 0 -1h-3l-5 -1l4 -1l2 -2q-3 0 -3 -1t3 -2h-1l-4 -2q0 -1 3 -1l-1 -2v0l-1 -1q9 -1 -1 -3l-3 -1h3q2 0 3 -1q1 0 -2 -1q0 -1 -2 -1l1 -1q4 0 4 -1t-4 -1l-1 -1l4 -2q-1 -1 -3 -1v-1l5 -2h-4l-4 -1l3 -1q5 -2 1 -2l1 -2v0v-1l-4 -2q0 -1 3 -1v-2q-4 -1 -3.5 -1t4.5 -0.5
l4 -0.5l-4 -1l-1 -2q4 0 4 -0.5t-4 -1.5v-2q9 0 -1 -2l1 -1q2 0 3 -1q3 -1 -2 -2h-3l1 -1q6 -1 6 -2l-3 -0.5t-2 -0.5t4 -1q5 -1 5 -1.5t-2 -0.5l1 -2q5 -1 2 -2l1 -2l3 -1q-4 0 -1 -2q1 -1 4 -1h2q-1 -2 4 -3l2 -2q-2 -1 -1.5 -1.5t3.5 -0.5t3.5 -0.5t0.5 -1.5t0.5 -1h3.5
q4 0 4.5 -2t3.5 -2t4 -1.5t5 -2.5l4 -2l3 -1q5 -1 6 -3q0 -1 1 -1q2 0 5.5 -1.5t7.5 -2.5t4 -2t4 -1.5t5 -1.5q9 -7 60 -10q14 0 14 1l-4 3q-14 11 -31.5 31t-20.5 27q-1 2 -3 5t-2 4l-1 3q0 3 -1.5 3t-0.5 1q0 1 -4 10q-1 1 0 2q0 1 -1 1q-2 0 -2 1t-1 4.5t-1.5 4.5
t-0.5 1.5t-0.5 2t-1 2t-0.5 1.5t-0.5 1.5t-0.5 2t-1 2t-0.5 2.5t-0.5 2t-0.5 1.5t-0.5 1.5t-0.5 2t-1 2t-0.5 1.5t-0.5 1.5t-1 2t-0.5 2.5t-0.5 1.5t-0.5 2t-0.5 2t-0.5 2t-0.5 2t-0.5 1.5t-0.5 4t-1 3.5t-0.5 2t-1 2v2q2 1 0 1t-1 2t-0.5 2.5t0 1.5t-0.5 2t0 2v1q-2 0 -1 2
t-0.5 3t0.5 1l-1 2l-1 2q2 0 0.5 1t-0.5 3t-1 2v2q2 1 0.5 1t0 2t-0.5 2t-1 2v2q-1 0 -0.5 1.5t-1 3t0.5 1.5l-1 1v2v2v2l-1 1q-2 1 -0.5 2.5t0 2.5t0 1.5t0 1.5t0 2.5t-0.5 1.5v2v2q-2 0 -0.5 1.5t-0.5 2t0 2t0 2t0 1t-1 2.5v2l-1 2q-2 1 0.5 1t0 2t0.5 2v2l-1 2q3 0 1 1.5
t0 2.5t-0.5 1.5t0 2t0 1.5t-0.5 2l1 2h-2q-2 2 2 3q-2 0 -2 1.5t2 2t0 0.5t-2 1t2 1l-1 2q-3 1 0 1.5t0 2.5l-1 2q3 0 0.5 1.5t0 1.5t0 2t-1 2.5t0 1.5t1 2.5t0 1.5t-0.5 1.5t0 1.5t0 2t0 2.5t0 1.5l1 2l-2 1l1 1v2q-2 2 0 2t0 1.5t0.5 1.5t0 1.5t-1 2.5t0 1.5t1 2.5t0 2
t-0.5 1.5t0 2t1 2.5l1 1q-4 0 -2 2q1 0 2 1q-2 1 -2 2t2.5 1.5t0 0.5t-2.5 1.5t2 1.5v1q-3 1 0 1.5t1 2.5q-2 1 1 2q18 3 39 -2q5 -2 13.5 -2t10 -1.5t11.5 -1.5t11.5 -2t9 -2t13.5 -1l4 -1l-4 -1q-5 0 1 0h4q12 -1 18 -1q5 -1 0 -2h-8l-9 -1h13l23 -2h-11q-5 0 -9 -0.5
t-6 -0.5h-2l21.5 -1t22.5 -2h-2.5h-6.5h-8q-27 -1 -7 -2h12l15 -1q-1 -1 -13 -1l-12 -1q4 -1 17 -1q15 0 16 -1h-2h-5.5h-8.5q-15 0 -15 -1.5t15 -1.5h11q-1 0 -15 -1q-20 -1 -21 -2h2.5t7 -0.5t9.5 -0.5l-2 -1v0v-2h10h7.5t2.5 -1q-1 0 -21 -1t-21 -1l3 -0.5t7.5 -0.5h10.5
l15 -1h-3q-8 -1 -22.5 -1t-14.5 -1q-1 0 2 0h8h11q23 0 23 -1.5t-23 -1.5h-11h-8t-2 0q0 -1 14 -1l23 -1q-4 -1 -17 -1h-12t-9 -0.5l-3 -0.5l24.5 -1t25.5 -1l-2.5 -0.5t-7.5 -0.5h-10l-16 -1q3 0 24 -1l-2 -1q-21 0 -20 -1t23 -2q17 0 17 -0.5t-15 -0.5l-23 -2h15
q5 0 9 -0.5t6 -0.5h2l-25.5 -1t-25.5 -2h4h11h16l-1 -2l-24 -1l24 -1h24q-2 0 -14 -1q-26 -1 -26 -1.5t22 -0.5l18 -1q-4 0 -32 -1q-14 -1 -16 -1l20 -1q26 0 26 -1t-26 -1t-26 -1h2t6 -0.5t9 -0.5q17 0 31 -1q13 0 1 -1h-16l-22 -1l30 -1l18 -1h-26h-17t-12 -0.5l-4 -0.5
l33 -1t34 -2h-4h-10.5h-14.5h-14.5h-10.5t-4 -1q1 0 26 -1v-2l-17 -1q4 -1 27 -1h14q-1 -1 -20 -1q-26 -1 -27 -2h3t9 -0.5t13 -0.5h19l-16 -1l-24 -2h15l19 -1q-2 -1 -27 -1l-17 -1q1 -1 22 -1l23 -1q-1 0 -21 -1l-15 -1h12q17 0 17 -1.5t-17 -1.5h-12q1 0 15 -1l21 -2h-23
l-22 -1q1 0 17 -1l29 -1q-3 -1 -18 -1h-17l20 -2l-1 -1q-20 -1 -19 -1.5t23 -1.5l17 -1h-15l-21 -2q3 -1 19 -1l-1 -1l-23 -2h20q18 0 19 -1l-24 -1v0l1 -2v0h25q-3 -1 -16 -1l-25 -2h15q22 -1 20.5 -1.5t-21.5 -1.5l-15 -1h12q18 0 18 -1t-17 -1q-5 0 -9 -0.5t-6.5 -0.5
t-1.5 0l13.5 -0.5t20.5 -1.5q5 0 -2 -1h-12l-16 -1q3 0 26 -1l14 -1q-3 0 -24 -1h-22q2 -1 33 -2q13 0 16 -1h-19l-26 -1q3 0 26 -1q17 -1 18 -1l-14 -1q-19 0 -19 -1t19 -1h9.5t7 -0.5l2.5 -0.5q-1 0 -19.5 -0.5t-18.5 -1.5t19 -1h13q-2 -1 -16 -1q-23 -1 -23 -1.5t19 -0.5
l18 -1q-4 -1 -29 -2l-19 -1h23h16h11t3 -1l-23.5 -1l-23.5 -1h2t6 -0.5t8 -0.5q17 0 17 -1t-17 -1h-8h-6h-2q0 -1 23.5 -1.5t23.5 -1.5q1 0 -3 0t-11 -0.5t-15 -0.5h-14.5h-10.5h-4l30 -1t31 -2h-3.5h-9h-12.5l-21 -1l26 -1l18 -1q-2 -1 -15 -1q-21 0 -21 -1t20 -1t20 -1
h-2.5h-7t-9.5 -1l-24 -1q4 -1 18 -1l1 -1l-24 -2h21q18 -1 19 -1l-25 -1v0l-23 -2h26v0l26 -1h-18l-28 -2q2 0 21 -1q25 0 24 -0.5t-25 -1.5l-17 -1h14l15 -2q-4 0 -20 -1h-11l19 -1q24 -1 25.5 -1.5t-23.5 -0.5l-19 -1h5l27 -2h-1q-5 -1 -17 -1h-23l26 -2v0l28 -1h-21
q-29 -1 -27.5 -1.5t27.5 -1.5l19 -1h-15q-21 0 -21 -1t22 -1q6 0 11 -0.5t8 -0.5h3q-1 0 -22 -1q-22 0 -23.5 -1t19.5 -1l-2 -1l-22 -2h20q7 0 12.5 -0.5t8.5 -0.5h3q-1 -1 -26 -1.5t-25 -1.5q-1 0 2.5 0h9.5h13l21 -1q-4 -1 -23 -1l-2 -2h15t5 -1t-20 -1l2 -2q15 0 20 -1
q7 0 -1 0q-6 -1 -22 -1h-16h-11h-4q0 -1 30.5 -1.5t31.5 -1.5h-3.5t-9 -0.5t-12.5 -0.5h-22q2 -1 26 -2l19 -1h-17q-16 0 -17 -1l21 -1q4 0 7.5 -0.5t5.5 -0.5h2q-1 -1 -19.5 -1t-18.5 -1t22 -1l16 -1h-20q-27 -1 -28.5 -1.5t26.5 -1.5h20q-3 0 -17 -1l-27 -2h26q18 0 21 -1
l-18 -1q-28 0 -28 -1q-1 0 2 -0.5t8 -0.5h11l16 -1q-2 -1 -24 -1q-18 0 -18 -1h3h8.5t12.5 -1l21 -1q-3 -1 -24.5 -1h-21.5q-1 -1 1 -1h5.5h7.5q35 0 37 -2h-3h-8.5h-11.5q-23 -1 -22 -1.5t25 -1.5l16 -1h-22l-22 -1q1 0 28 -1l14 -1q-2 0 -19 -1q-26 0 -24 -0.5t27 -1.5
l18 -1h-11l-18 -2q4 -1 22 -1h15q-2 0 -17 -1q-24 0 -25 -1t19 -1l1 -1q-19 -1 -20 -2t19 -1h9.5h7h2.5q-1 -1 -26.5 -2t-26.5 -1h4h10.5h14.5t14.5 -0.5t10.5 -0.5h4q-1 -1 -31.5 -1.5t-30.5 -1.5q-1 0 2 0h8.5h12.5q23 0 23 -1t-24 -1q-7 0 -12.5 -0.5t-8.5 -0.5h-3
q1 0 23 -1l28 -1q-5 -1 -18 -1h-13h-9.5t-2.5 -1h21l26 -2q-4 0 -21 -1l1 -1v0l1 -2h-12.5t-9 -0.5l-3.5 -0.5q1 -1 30 -1l22 -1q-1 0 -15 -1h-20q-5 -1 0 -2h17l14 -1q-1 0 -20 -1q-26 -1 -27.5 -1.5t30.5 -0.5h15h11h4q-1 -1 -21 -1l-31 -2h16l19 -1q-2 0 -16 -1
q-26 -1 -26 -1.5t22 -0.5l20 -1h-2q-9 -1 -25 -1t-17 -1h3t9 -0.5t12.5 -0.5h12.5h9h3q-1 -1 -33 -2l-23 -1h18l31 -2q-3 0 -20 -1l-1 -1q26 -1 27 -1q0 -1 -3.5 -1h-9h-12.5l-21 -1q3 -1 27 -1q16 -1 19 -1q4 0 -1 0q-3 -1 -14 -1h-12h-8t-3 -1q1 -1 22 -1l-1 -1
q-21 0 -21 -1.5t23.5 -1.5h23.5q1 -1 -2 -1h-7.5h-9.5l-30 -2h21l1 -2q-30 -1 -32 -1l32.5 -0.5t88 -0.5h121.5h121.5h88h32.5q0 1 -50 2l-50 1h6.5t18.5 0.5t26 0.5h25.5h18.5t6 0q0 1 -55 1.5t-56 1.5h7.5h20h27.5h28t20 0.5l7 0.5l-45 1t-46 1l6 0.5t16 0.5h22q44 0 42 1
t-42.5 1t-40.5 1h4.5h13h19.5q37 0 37 1.5t-42 1.5h-30q4 1 35 1q47 1 47 2q1 0 -5 0h-16h-22t-22 0.5t-16 0.5h-6q1 0 45 1t45 1q0 1 -5.5 1h-15.5h-22h-22t-15.5 0.5l-5.5 0.5q1 1 45 1.5t45 0.5h-5.5t-15 0.5t-20.5 0.5q-41 0 -41 1t41 1h20.5h15t5.5 1h-41.5t-40.5 1.5
t41 1.5h20h14.5t4.5 0q0 1 -47 1.5t-47 1.5h6.5h17.5h24h24t17.5 0.5l6.5 0.5q-1 0 -46 1l-45 1l6 0.5t16.5 0.5h23h23h16.5h6q-1 1 -41 2t-41 1h5.5h14.5t20 1q40 0 37 1t-39.5 1h-37.5q0 1 5 1h14h19q38 0 38 1t-38 1q-10 0 -19 0.5t-14 0.5h-5q1 0 39 1h20t14 0.5t4 0.5
q0 1 -39 1l-2 1l40 2h-36q-11 0 -20 0.5t-14.5 0.5h-5.5q1 1 40.5 1.5t39.5 1.5q1 0 -4 0h-13h-17.5h-18t-13 0.5l-4.5 0.5l35.5 1t36.5 1l-3 0.5t-7.5 0.5h-10.5q-21 0 -20.5 1t20.5 1l-1 2l-25 1q2 0 20 1l23 1q-5 1 -41 1t-37 1h5.5t14.5 0.5t20 0.5l36 1q-4 1 -29.5 1
h-25.5q0 1 3.5 1h10.5h15h15t10.5 0.5l3.5 0.5q-1 1 -30 1l1 1q29 1 29 2t-29 1l-1 1q29 1 30 2t-20 1v1q20 0 21 1t-20 1h-11t-7.5 0.5l-2.5 0.5l21 0.5t21.5 1.5t-15.5 1t-15 1t16 1t14.5 1t-14.5 1t-15 1l14 1q16 0 15.5 0.5t-25.5 1t-26 1.5h3.5t9.5 0.5t13 0.5l22 1
q-5 1 -26.5 1h-22.5q0 1 3.5 1h9.5h13h13t9 0.5l3 0.5q-1 1 -25 1l1 1l23 2q-2 1 -14 1q-14 0 -14 1h1.5h4.5h7q13 0 13.5 1.5t-13.5 1.5h-7h-4.5h-1.5q0 1 13.5 1t14.5 1t-15 1h-7.5t-5.5 0.5t-1 0.5l12 1h15l-12 2h-8h-6t-1 0q0 1 15 1.5t15.5 1t-14.5 0.5q-5 0 -8.5 0.5
t-5 0.5h-1.5l15 1t16 1q0 1 -2 1h-5.5h-7.5q-15 0 -14.5 1t14.5 1t13.5 1t-15.5 2l2 1q15 0 14.5 1t-16.5 1l1 1q15 1 14 1.5t-15 1.5v1q15 0 14 1t-15 2l1 1q14 0 14 1t-14 2h-11h11l14 2q-3 1 -14 1h-6.5h-5h-1.5q0 1 13 1t14 1q0 1 -1.5 1t-5 0.5t-7.5 0.5v1l15 2h-4
q-9 0 1 2v1l-3 2q1 1 4 1q10 0 0 1q-4 1 -11 1v1q15 1 14.5 1.5t-15.5 1.5v1l12 1q0 1 -2 1v2q4 0 4 1t-4 2h2q1 0 2 1l-4 2l1 1l3 2h-3v2q3 1 3 1.5t-3 0.5l1 2v0v2h-2q-2 1 0 2h3l-1 1q-1 0 -2 1q-1 0 1 1q1 1 2 1l-1 1q-3 1 -3 1.5t3 1l3 0.5l-3 1l-3 1l3 0.5t3 1t-3 1.5
v1q3 1 0 2v2h2l-4 3h2q1 1 2 1l-4 2l1 1l3 2q-1 1 -3 1h-1q6 2 2 3t0 2l1 2q-3 0 -3 1t3 1l-1 2l-3 1l3 0.5l3 0.5l-3 1.5l-3 1.5h3t3.5 0.5t-2.5 1.5l-1 2q4 0 1 2q-1 0 -3 1h2q1 1 2 1l-4 2l1 1l3 2q0 1 -2 1v1q3 1 0 2t0 2l1 1q-3 1 -2 3h3l-1 2q-3 1 0 2t0 2l-3 1h3
l-1 2q-3 1 -3 1.5t3 0.5l2 1l-4 2q1 1 3 1v1l-1 2q3 0 3 1t-3 1.5t0 1t3 1.5t-3 2q3 0 3 1.5t-3 1.5l1 2l1 1q-3 0 -3 1.5t3 1.5l-1 1q-3 2 0 2l1 1q-3 1 -3 2t3 1l-1 1q-3 2 0 2.5t0 2.5l-3 1h3t3 0.5t-3 1.5q-4 2 -1 2.5t0 1.5v1q3 0 3 1.5t-3 1.5v1q3 1 0.5 2t0.5 2t0 2
t0 2t0 1.5t0 2t-0.5 2.5t0.5 2l1 1l-4 1q1 1 3 1v2q-3 1 -3 1.5t3 0.5l-1 2l-4 1l3 1l1 1v2h2q1 1 0 2t-3 1q4 1 4 2t-4 1l1 2l1 2h-2q-2 1 0 2h3t0 1t-3 0l-1 1q1 2 4 2l-2 1q-3 1 -3 1.5t3 1l3 0.5l-3 1l-3 1l3 1v2v0l-1 1q3 1 3 1.5t-3 1t-3 1t3 1l3 0.5l-3 1v1l3 2
q-1 1 -14 1q-10 0 -10 0.5t10 0.5l14 2q-1 1 -3 1v1v0v2q-2 0 -3 1l5 2l-11 1h-8h-5h-2q1 1 14 1.5t13 1.5l-2 1q-24 0 -25 1l2 0.5t5 0.5h8q9 0 10 1l-15 1q-10 0 -11 1h2h5.5h7.5q15 0 14.5 1t-16.5 2l1 1q15 0 14 1t-20 1l1 1q20 1 19 1.5t-21 1.5v1q17 0 18.5 1.5
t-14.5 1.5h-1q8 1 12 1q6 1 -2 2h-8l1 1q14 1 15 2t-14.5 1t-14.5 0.5t15 1t14.5 1t-14 0.5t-15.5 1.5t15 1.5v1q-9 0 -13 1q-6 0 0 1q5 0 13 1h12q-2 0 -17 1l-24 1q3 1 19 1l-1 2v0v2l19 1q-6 1 -28 1q-25 0 -25 1h3.5h10.5h14.5h14.5t10.5 0.5l3.5 0.5q-1 1 -35 2l1 1h17
h12.5t4.5 1q-1 1 -35 1l-1 1q34 0 34 1.5t-33 1.5h-16.5h-11.5h-4q1 1 34 1.5t34 1.5h-2.5h-7h-10.5l-19 2q3 0 21.5 0.5l18.5 0.5q1 1 -3 1h-11h-15.5h-15t-10.5 0.5l-4 0.5q1 1 39 1h9.5t7 0.5l2.5 0.5l-28.5 0.5t-29.5 1.5l4 0.5t11 0.5h15h15h11t3 0q0 1 -34.5 1.5
t-35.5 1.5h4.5t13 0.5t18 0.5h17.5h13t4 0q0 1 -35 1.5t-35 1.5h4.5h12.5h17h17t12.5 0.5l4.5 0.5q-1 1 -34.5 1.5l-33.5 0.5l4.5 0.5t12.5 0.5h17l32 1q-3 1 -34.5 1t-31.5 1h4.5h12h17.5q34 0 32 1.5t-34 1.5h-16.5h-11.5h-4q1 1 33 1t32.5 1t-27.5 1q-7 0 -13.5 0.5
t-10 0.5h-3.5l29 1l29 1q0 1 -4 1h-10.5h-15.5l-23 1h16l29 2h-6q-10 1 -14 1q-4 1 1 2h13l12 1h-16q-11 0 -17 1q-10 0 0 1q6 1 16 1l1 1l-27 2h20h13.5t10 0.5t2.5 0.5l-30 1l-30 1q-1 0 3 0.5t11.5 0.5h15.5l27 1q-4 1 -30 1t-26 1h3.5h10.5h15t15 0.5t10.5 0.5h3.5
q-1 1 -31 2l1 1q31 0 29 1t-20 2l1 1q19 0 20 1t-15 1l-1 1q16 1 17 2t-14 1l-13 1q1 1 10 0.5t13 0.5t-1 1h-9q-16 0 -15 1t15.5 1t15.5 1l-19 1q-10 1 -11 1l14 1q16 0 15.5 1t-15 1t-15.5 1t15.5 1t16 1t-22.5 1l1 1q21 0 20 1t-22 2l1 1h11t8 0.5t2 0.5q-1 1 -16 1v1
q15 1 15 2t-20 1v1l20 2q-3 1 -15 1v1q15 0 16 1t-14 1h-7.5t-5.5 0.5l-2 0.5q1 0 11 0.5t15 1.5l-1 1h-4q-1 1 1 2q1 0 4 1h-1q-2 0 -3 1t4 2h5q-1 1 -16 1.5t-15 1.5h2h5.5h7.5q16 0 15.5 1t-16.5 2l1 1q16 0 15.5 1t-11.5 1l-9 1h9q11 1 10 2t-21 1l1 1l19 2q-1 1 -14 1
l1 1q15 0 14 1t-4 1l-3 1q1 0 5 1l-1 2q-4 0 -4 0.5t4 1.5l1 1q-4 0 -4 1t4 1l1 2q-4 0 -5 1l4 1q10 0 -1 2q-3 0 -7 1l1 1q11 0 10.5 1t-15.5 1l1 1l13 2q-2 1 -21 1q-18 0 -19 1h2.5h7.5h11q21 0 20.5 1t-16.5 2v1l15 1q-2 1 -21 2v0q20 0 21 1.5t-15 1.5h-7.5h-5.5h-2
q0 1 14 1t16 1l-14 1q-4 0 -7.5 0.5t-5.5 0.5h-2l14 1q16 0 15 1t-13 1q-16 0 -15.5 1t10 1h15.5q5 1 -5 1h-5q-16 1 -16 2t15.5 1t15 0.5t-15 0.5t-15.5 1l15 2h8h6h2q-1 1 -26.5 1.5t-26.5 1.5h3.5h9.5h14l24 1q-2 1 -16.5 1t-15 1t16.5 1l16 1q-7 1 -32 1l1 1q19 0 27 1
t-1 1q-8 1 -27 1l1 1q31 0 31 1t-31 1q-8 0 -15 0.5t-11 0.5h-4q0 1 30 1t30.5 1t-20.5 1h-10h-7.5t-2.5 1h16l22 2h-13q-17 1 -16 1.5t16 1.5l16 1h-9q-10 0 -11 1.5t10 1.5h9l-3 1q-6 1 -16 0.5t-11 0.5t15.5 1t16 1t-16.5 2l1 1l13 1q-5 1 -26 1q-24 0 -25 1h3.5h10h13.5
t13.5 0.5t10 0.5h3.5q-1 1 -23 2v1l21 2q-3 0 -16 1h-12h12l17 2q-3 1 -21 1l-1 1l20 2q-3 1 -14 1v1q16 0 16.5 1t-14.5 1h-8.5t-5.5 0.5l-2 0.5q1 1 15 1t15 1l-15 1q-17 0 -16 1t16 1t16 1l-21 1q-10 -1 -11 0.5t15.5 1.5t16 0.5t-22 1t-21.5 1.5h2.5h8h11.5t11 0.5
t8 0.5h3q-1 1 -28 2l1 1h13.5t10 0.5l3.5 0.5q-1 1 -28 1l1 1q7 0 13.5 0.5t10 0.5h3.5q-1 1 -43 2v1q42 0 42 1.5t-45 1.5h-22h-16h-6q1 1 44.5 1t44 1t-26.5 1h-13t-9.5 0.5l-3.5 0.5q1 0 26 0.5t26 1.5t-21 1l-16 1h2q8 1 22 1t15 1h-2h-6h-9l-15 2q3 1 15 1h13
q0 1 -16 1h-19q-10 1 1 2q5 0 16 1q35 0 -1 1q-10 0 -27 1l-31 1h35l44 1q-3 0 -48 1l-32 1h35q12 0 22.5 0.5t16.5 0.5t6 1q-2 1 -46 1t-44 1h6h16.5h22.5q46 0 45 1.5t-46 1.5h-22.5h-16h-5.5q0 1 45 1t45 1t-46 1h-22.5t-16 0.5l-5.5 0.5l45 0.5t45 1.5q1 0 -5 0.5
t-16.5 0.5h-23h-23h-16.5h-6q0 1 44.5 1.5t44.5 1.5q1 0 -5 0h-16.5h-22.5q-46 0 -45 1.5t46 1.5l-1 1q-45 0 -45 1t37 2h28h-28q-37 1 -37 2t36 1h18h13t4 1h-35t-36.5 1.5t30.5 1.5h16.5h11.5h4q-1 1 -30 1t-32 1l28 1h16t11.5 0.5t3.5 0.5l-34 1t-35 1l4 0.5t11 0.5h15
h15h11h4q-1 1 -31 1.5t-30 1.5h2.5h7.5h11q21 0 20 1t-4.5 1t-21.5 1h-11q2 1 16 2v0l17 1h-13q-17 0 -16.5 1t23.5 2l-1 1h-19q-8 1 0 2q6 1 20 1h1q-22 1 -24 1.5t26 1.5l19 1h-22q-30 0 -30.5 1.5t25.5 1.5h20l-23 1q-31 1 -31 2q-1 0 2.5 0h9.5h13l18 1q-1 0 -24 1v0
l-25 1q2 0 20 1l17 1l-27 1l-13 1h16q6 0 11 0.5t7.5 0.5h2.5q-1 1 -22 2l-14 1h11h15q8 1 -1 2q-4 0 -13 1h-12l15 1q20 1 21 1l-2.5 0.5t-7.5 0.5h-10v1l24 2h-15q-13 1 -18 1q-6 1 1 1q6 1 19 1l15 1h-21l-22 2q6 0 26 1h17l-20 1l-27 1q-1 1 2.5 1h9.5h13.5h13.5
t9.5 0.5l3.5 0.5q-1 0 -27 1t-27 1l3.5 0.5t10 0.5h13.5l22 1q-1 0 -30 1l-1 1q7 0 12.5 0.5t9 0.5h3.5q-1 1 -27 2l1 1h13t9.5 0.5l3.5 0.5q-1 1 -26 1l-20 1h15q12 1 17 1q8 1 -1 2h-17l1 1q21 1 22 2t-19 1h-10h-7.5h-2.5q1 1 24 1.5t24 1.5h-3h-8h-11h-11t-8 0.5l-3 0.5
q1 1 33 1q6 0 10.5 0.5t7.5 0.5h3q-1 1 -26.5 1t-26 1t26.5 1l1 1q-26 0 -27 1.5t27 1.5h13.5h10h3.5q0 1 -26 1t-29 1l21 1l17 1q-1 0 -15 1l-26 1q3 1 18 1h13h9.5t3.5 1q-1 0 -25.5 1l-24.5 1q-1 0 2 0t8 0.5t10 0.5q22 0 20.5 1t-20.5 1t-19 1h7.5h15.5h12q3 0 4 1
l-16 2h-8.5h-5.5h-2q0 1 16.5 1.5t16.5 1.5h-2h-6h-8.5h-8.5t-6 0.5l-2 0.5q1 0 20.5 1l19.5 1q1 0 -2 0.5t-7.5 0.5h-9.5h-10h-7.5t-2.5 1q1 1 21 1t21 1h-2.5h-7.5h-11q-21 0 -21 1.5t5 1.5q5 -1 13.5 -0.5t16.5 0.5h8q-1 1 -21.5 1t-20.5 1q-1 1 2 1t7.5 0.5t10.5 0.5
l1 1q-21 1 -22 1l3 0.5t8 0.5h11v1q-21 1 -22 2h2t6 0.5t9 0.5q27 0 4 1q-4 1 -10 1l1 1l18 1q-2 1 -16 1l1 2q17 0 16 1t-20 1q-11 0 -10.5 0.5t15 1.5t15.5 1l-2 0.5t-5.5 0.5h-7.5h-7.5h-5.5h-2q1 1 16.5 1.5t15.5 1.5q1 0 -1.5 0h-6h-8t-8.5 0.5t-6 0.5h-2q1 1 17 2
q12 0 13 1h-9q-12 0 -12 1t16 1q4 0 8 0.5t6 0.5h2q-1 0 -20.5 0.5t-19.5 1.5q-1 0 2 0.5t7.5 0.5h9.5v1q-21 1 -22 2h2.5t6.5 0.5t9 0.5h9h6.5h2.5q-1 1 -22 1.5t-21 1.5h2.5h7h10.5v2v0l-16 1q1 0 11 1h8.5t5.5 0.5l2 0.5q-1 0 -16 1l-2 1q14 0 15 1.5t-14 1.5h-7.5h-5
h-1.5q0 1 14.5 1.5t15 1t-14.5 0.5q-5 0 -8.5 0.5t-5 0.5h-1.5q0 1 14.5 1.5t15 1t-11.5 0.5h-8q-6 1 0 2q4 0 10 1h7h-11q-4 0 -7.5 0.5t-5.5 0.5t-2 1q1 1 19.5 1t18.5 1h-2h-6h-9l-20 2q2 1 17 1l1 1q-21 1 -21.5 1.5t15.5 0.5h8t6 0.5t1 0.5l-17.5 1l-17.5 1l2 0.5
t6 0.5h9h12q-1 1 -14 2v0l-16 1h11l12 1q-1 1 -14 2l2 1q15 0 14.5 0.5t-15.5 1.5t-15.5 1.5t9.5 0.5t12 1t-10 1t-11.5 0.5t15.5 1.5t16 1h-2t-5.5 0.5t-7.5 0.5h-7.5h-5.5h-2q1 1 16 2l-1 1q-15 0 -15 1t20 2h20q1 0 -2 0.5t-7.5 0.5h-10.5q-21 0 -22 1t16 1l1 1
q-16 1 -17 2t15 1h8h6t1 0q0 1 -15.5 1.5t-16.5 1.5h2.5h6h8.5t8.5 0.5t6 0.5h2.5q-1 0 -17 1t-16.5 1.5t12.5 0.5t12 0.5t-16 1.5t-16 1h2t5.5 0.5t8.5 0.5l14 1q-2 1 -16 1q-16 0 -15 1h10q11 0 17 1q4 1 -1 1q-2 0 -10 1l-2 1q17 1 16.5 1.5t-14.5 0.5h-8t-6 0.5l-2 0.5
q1 0 21 1t21 1l-2.5 0.5t-6 0.5h-8.5h-13q-8 1 1 2q5 0 13 1h-1q-17 0 -17 1.5t17 1.5q13 0 13 0.5t-13 0.5q-17 0 -17 1t-148 1t-172 -1zM687 848l1 1l2 -1q-1 -1 -3 0zM396 825l-1 1h3l2 -1h-4zM686 822h1h2q-2 -1 -3 0zM388 799l1 1l2 -1q-1 -1 -3 0zM380 772q-1 0 -1 1
t1 1t1 -1t-1 -1zM390 772q-1 0 -1 1t0.5 1t1 -1t-0.5 -1zM388 769l1 1l2 -1q-1 -1 -3 0zM388 765l1 1l2 -1h-3zM717 743q-1 1 1 1h2q0 -1 -1.5 -1.5t-1.5 0.5zM722 742q-1 0 -1 1t1 1t1 -1t-1 -1zM388 735l1 1l2 -1h-3zM396 714h1h1q-1 -1 -2 0zM388 702h1h2q-1 -1 -3 0z
M409 702h1h1q-1 -1 -2 0zM709 698l1 1l1 -1q-1 -1 -2 0zM417 691l1 1l1 -1q0 -1 -2 0zM429 687l2 1l1 -1h-3zM709 684h1h1q-1 -1 -2 0zM388 676l1 1l2 -1h-3zM388 673l1 1l2 -1q-1 -1 -3 0zM400 668l1 1l2 -1q-1 -1 -3 0zM409 666h1h2q-2 -1 -3 0zM391 664l1 1h3q4 0 3 -1
h-7zM375 662l2 1l1 -1q-1 -1 -3 0zM399 650h2h3q-2 -1 -5 0zM409 624h2h3q-3 -1 -5 0zM391 620h2h3q-3 -1 -5 0zM739 609l1 1l2 -1h-3zM740 604l1 1l2 -1h-3zM739 601h2h2q-2 -1 -4 0zM729 597l2 1l1 -1h-3zM750 546q-1 0 13 0t12 -1q-1 -1 -12.5 -0.5t-12.5 1.5zM780 546h1
h1q-1 -1 -2 0zM790 546h2h1q-1 -1 -3 0zM761 540q-3 0 -3 2l3 1l4 -1q-1 -2 -4 -2zM771 540q-3 0 -3 1.5t3 1.5l3 -1q0 -2 -3 -2zM781 542l1 1l1 -1q-1 -1 -2 0zM792 542v1l2 -1q-1 -1 -2 0zM802.5 540q-3.5 0 -4.5 2l4 1q4 0 4 -1.5t-3.5 -1.5zM763 537q2 1 5 1l6 -1h-1
h-10zM780 537l2 1l2 -1h-4zM791 537l1 1l3 -1h-4zM765 534h7h9h-1q-7 -1 -15 0zM763 523h7h8h-1q-7 -1 -14 0zM765 519q2 1 6 1l8 -1h-1h-13zM760 516h2h2q-2 -1 -4 0zM770 516h3h2q-2 -1 -5 0zM780 516h1h1q-1 -1 -2 0zM790 516h2h1q-1 -1 -3 0zM769 512l2 1l2 -1
q-2 -1 -4 0zM802 512l1 1l2 -1q-1 -1 -3 0zM800 507q2 1 3 1l2 -1h-5zM760 500l2 1l1 -1q-1 -1 -3 0zM769 500l1 1l2 -1q-2 -1 -3 0zM800 500q1 1 3 1l2 -1q-2 -1 -5 0zM769 496l2 1l2 -1h-4zM780 496l1 1l1 -1h-2zM790 496l2 1l1 -1h-3zM763 493h5h6h-1q-5 -1 -10 0z
M780 493h2h2q-2 -1 -4 0zM790 493h2h2q-2 -1 -4 0zM799 493h2h3q-3 -1 -5 0zM760 489q1 1 2 1l2 -1h-4zM770 489q1 1 3 1l2 -1h-5zM780 489l1 1l1 -1h-2zM790 489q1 1 2 1l2 -1h-4zM760 486h1h2q-1 -1 -3 0zM772 486h5h6h-1q-5 -1 -10 0zM760 482l1 1l2 -1q-1 -1 -3 0z
M770 482h-1h3h3q-2 -1 -5 0zM780 482l2 1l2 -1q-2 -1 -4 0zM790 482l2 1l1 -1q-1 -1 -3 0zM802 482l1 1l2 -1q-1 -1 -3 0zM769 478l2 1l2 -1h-4zM781 478l1 1l1 -1h-2zM790 478q1 1 2 1l2 -1h-4zM802 478l1 1l2 -1h-3zM813.5 473q-3.5 0 -4.5 1l4 2l5 -2q-1 -1 -4.5 -1z
M800 470q1 1 3 1l2 -1q-2 -1 -5 0zM770 466l1 1l2 -1h-3zM781 466l1 1l1 -1h-2zM790 466l2 1l1 -1h-3zM762 463h1h1q-1 -1 -2 0zM770 463h3h2q-2 -1 -5 0zM762 459l1 1l1 -1h-2zM770 459q1 1 3 1l2 -1h-5zM769 452l2 1l2 -1q-2 -1 -4 0zM780 452h2h3q-3 -1 -5 0zM793 452h-1
h5h6h-1q-4 -1 -9 0zM770 448l-1 1h3t3 -1h-5zM780 448l1 1l1 -1h-2zM769 445h2h2q-2 -1 -4 0zM792 445v1l2 -1q-1 -1 -2 0zM800 445h3h2q-2 -1 -5 0zM802 440l2 1l1 -1q-1 -1 -3 0zM800 429l-1 1h3q2 -1 3 -1h-5zM770 426h3h2q-2 -1 -5 0zM781 426h1h1q-1 -1 -2 0zM790 426
h2h2q-2 -1 -4 0zM770 422h3h2q-2 -1 -5 0zM780 422l1 1l1 -1q-1 -1 -2 0zM800 422q1 1 3 1l2 -1q-2 -1 -5 0zM781 418l1 1l1 -1h-2zM812 411l1 1l2 -1h-3zM823 408h1h2q-2 -1 -3 0zM822 403h2h2q-2 -1 -4 0zM822 399l2 1l2 -1h-4zM812 396h1h2q-2 -1 -3 0zM820 396h2h4
q-3 -1 -6 0zM790 388l2 1l1 -1h-3zM802 385h1h2q-1 -1 -3 0zM810 385h-1h3h2q-2 -1 -4 0zM813 372q-1 0 -1.5 0.5t0.5 1.5q0 1 2 1t2 -1.5t-3 -1.5zM824 372q-5 0 -3.5 1.5t4.5 1.5t3 -1zM825 369q-5 0 -6 1l7 1q1 -1 2 -1q1 -1 -1 -1h-2zM812 369l1 1l2 -1h-3zM779 358
q1 1 2 1l2 -1h-4zM790 358q1 1 2 1l2 -1h-4zM780 355h2h2q-2 -1 -4 0zM790 355h2h1q-1 -1 -3 0zM800 355h3h2q-2 -1 -5 0zM779 351q1 1 2 1l2 -1h-4zM790 351q1 1 2 1l2 -1h-4zM781 348h1h1q-1 -1 -2 0zM790 348h2h1q-1 -1 -3 0zM802 344l1 1l2 -1q-1 -1 -3 0zM781 328l1 1
l2 -1h-3zM790 328l2 1l1 -1h-3zM801 328l2 1l1 -1h-3zM780 325h2h2q-2 -1 -4 0zM790 325h2h1q-1 -1 -3 0zM780 310l2 1l2 -1h-4zM779.5 306.5q-1.5 1.5 1.5 1.5t1.5 -1.5t-3 0zM790 306q-2 1 -1.5 1.5t3.5 0.5q2 -1 2 -2q-2 -1 -4 0zM781 302q-2 0 -2 1t2 1t2 -1t-2 -1z
M791.5 302q-3.5 0 -3.5 1t3.5 1t3.5 -1t-3.5 -1zM801 302q-3 0 -3 1q3 1 5.5 1t2.5 -1t-5 -1zM771 295l1 1l1 -1q0 -1 -2 0zM772 273q1 1 2 1l2 -1h-4zM772 268q1 1 2 1l2 -1h-4zM782 264q-2 0 -2 2t3 0zM772 265h2h2q-2 -1 -4 0zM790 265h2h1q-1 -1 -3 0zM771 250v1h2t3 -1
h-5zM774 247h5h5h-1q-4 -1 -9 0zM772 243l2 1l1 -1h-3zM781 243l-1 1h3q2 -1 3 -1h-5zM773 240h1h3q-2 -1 -4 0zM781 240h1h1q-1 -1 -2 0zM791 240h1h3q-2 -1 -4 0zM800 239q-1 1 -0.5 1h2.5q4 0 4 -1q-1 -2 -6 0zM803 234q-3 0 -3 1.5t3 1.5t3 -1.5t-3 -1.5zM781 231l1 1
l1 -1h-2zM800 231q2 1 3 1l2 -1h-5zM802 228h2h1q-1 -1 -3 0zM791 224l1 1l3 -1q-2 -1 -4 0zM800 224h-1h3h3q-2 -1 -5 0zM791 220l1 1l3 -1h-4zM781 217l1 1l1 -1q-1 -1 -2 0zM792 217v1l2 -1q-1 -1 -2 0zM811 198h2h2q-2 -1 -4 0zM822 198h2h2q-2 -1 -4 0zM814 194h5h7h-2
q-5 -1 -10 0zM823 187h-1h3h3q-3 -1 -5 0zM823 183l2 1l2 -1h-4zM819 180q-2 0 1 0h2h4q-3 -1 -7 0zM824 160l1 1l1 -1h-2zM396 109h2h3q-3 -1 -5 0zM389 26q-2 0 -1 1t2 1t1 -1t-2 -1zM396 22q1 1 2 1q2 0 3 -1h-5zM390 -8q-1 0 -1 1t1 1t1 -1t-1 -1zM813 -11l1 1l1 -1
q0 -1 -2 0zM824 -11l1 1l1 -1q0 -1 -2 0zM812 -22l1 1l2 -1q-2 -1 -3 0zM822 -22q1 1 2 1l2 -1q-2 -1 -4 0zM813 -38l1 1l1 -1h-2zM822 -38q1 1 2 1l2 -1h-4zM395 -40l1 1l3 -1q-2 -1 -4 0zM801 -52l2 1l1 -1q-1 -1 -3 0zM802 -59h1h2q-1 -1 -3 0zM801 -71h2h1q-1 -1 -3 0z
M790 -75l2 1l1 -1h-3zM800 -75q2 1 3 1l2 -1h-5zM790 -78h2h1q-1 -1 -3 0zM801 -78h2h1q-1 -1 -3 0zM800 -82q1 1 3 1l2 -1q-2 -1 -5 0zM800 -86q2 1 3 1l2 -1h-5zM771 -89h2h1q-1 -1 -3 0zM781 -89l1 1l1 -1q-1 -1 -2 0zM772 -93q-2 0 -1 0q2 1 5 1l6 -1h-1h-9zM762 -96h1
h1q-1 -1 -2 0zM770 -96h3h2q-2 -1 -5 0zM779 -96h2h2q-2 -1 -4 0zM800 -105q2 1 3 1l2 -1h-5zM771 -108h2h1q-1 -1 -3 0zM780 -108h2h2q-2 -1 -4 0zM790 -108h2h2q-2 -1 -4 0zM770 -112h3h2q-2 -1 -5 0zM780 -112l1 1l1 -1q-1 -1 -2 0zM790 -112l2 1l1 -1q-1 -1 -3 0z
M770 -116q1 1 3 1t2 -1h-5zM761 -119h2h2q-2 -1 -4 0zM770 -119h3h2q-2 -1 -5 0zM762 -123l1 1l1 -1h-2zM770 -123q1 1 3 1l2 -1h-5zM770 -130h3h2q-2 -1 -5 0zM780 -130l1 1l1 -1q-1 -1 -2 0zM773 -135q-1 0 -2 0.5t0 0.5q1 1 2 1t1 -1q1 0 0.5 -0.5t-1.5 -0.5zM781 -135
q-1 0 -1.5 0.5l-0.5 0.5q1 1 2 1t2 -1l-0.5 -0.5t-1.5 -0.5zM792 -135l-3 1q1 1 3 1t3 -1zM762 -138h1h1q-1 -1 -2 0zM751 -156h2h3q-3 -1 -5 0zM751 -167h2h3q-3 -1 -5 0zM753 -172l-3 1q1 1 3.5 1t2.5 -1zM728 -197h1h2q-2 -1 -3 0zM346 849q-1 1 -2 1l-2 -1h4zM733 849
l-2 1l-1 -1h3zM733 846h-2h-1q2 -1 3 0zM337 842l-2 1l-1 -1q2 -1 3 0zM733 842l-2 1l-1 -1q2 -1 3 0zM724 826l-2 1l-1 -1h3zM733 823h-1h-2q2 -1 3 0zM734 819q-1 1 -2 1l-2 -1h4zM335 816h-1h-2h-3q3 -1 6 0zM734 816h-2h-2q2 -1 4 0zM744 816h-2h-1q2 -1 3 0zM335 812
l-1 1l-1 -1q2 -1 2 0zM744 812l-2 1l-1 -1q2 -1 3 0zM732 808l-2 1l-1 -1h3zM337 805l-2 1l-1 -1q2 -1 3 0zM732 805h-1h-2q2 -1 3 0zM724 801l-2 1l-1 -1h3zM731 796l-1 1l-1 -1h2zM733 793h-2h-1q2 -1 3 0zM744 786h-2h-1q2 -1 3 0zM746 775q1 0 -1 0h-2h-2q3 -1 5 0z
M335 771l-1 1l-1 -1h2zM745 759l-2 1l-3 -1h5zM755 752l-1 1l-1 -1q2 -1 2 0zM337 748l-2 1l-3 -1h5zM335 741l-1 1l-1 -1h2zM755 741l-2 1l-1 -1h3zM336 738h-3h-2q2 -1 5 0zM755 738h-2h-2q2 -1 4 0zM346 727h-2h-2q2 -1 4 0zM754 722l-2 1l-1 -1q1 -1 3 0zM766 715h-2h-1
q1 -1 3 0zM776 715h-1h-1q1 -1 2 0zM776 711l-1 1l-1 -1h2zM337 708h-2h-1q2 -1 3 0zM764 708h-1h-1q1 -1 2 0zM336 704h-3h-2q2 -1 5 0zM754 700l-2 1l-2 -1h4zM337 681l-2 1l-3 -1h5zM345 681l-3 1l-1 -1h4zM776 681l-2 1v-1h2zM335 678h-1h-1q2 -1 2 0zM346 674
q-1 1 -2 0h-2q2 -1 4 0zM337 670l-2 1l-1 -1h3zM776 651l-2 1v-1h2zM337 640l-1 1l-2 -1h3zM776 640l-2 1v-1h2zM756 629q3 1 -1 1q-2 0 -1 -1t2 0zM778 621l-2 1l-2 -1h4zM335 614l-2 1l-1 -1q1 -1 3 0zM797 614l-2 1l-2 -1q2 -1 4 0zM796 607l-1 1l-1 -1q2 -1 2 0z
M797 603l-1 1l-1 -1h2zM794 600h-1h-2q-5 0 -4 0q4 -1 7 0zM784 595q2 0 4.5 1t0.5 1t-4 -1zM838 584l-1 1l-1 -1q2 -1 2 0zM836 580l-1 1h-3q-3 0 -3 -1h7zM836 577h-1h-2q-5 0 -4 0q4 -1 7 0zM346 133h-1h-3h-3q4 -1 7 0zM345 118l-1 1l-1 -1h2zM347 99l-2 1l-2 -1h4z
M349 81l-2 1l-1 -1h3zM347 25h-2h-1q1 -1 3 0zM347 -39l-2 1l-1 -1h3zM344 -69l-2 1v-1h2zM355 -102h-2h-1q2 -1 3 0zM344 -117l-1 1l-1 -1h2zM366 -126q1 0 1 1.5t-1 1.5t-1 -1.5t1 -1.5zM361 -132h-1h-2q2 -1 3 0zM346 -180h-2h-2q2 -1 4 0zM829 -186q4 0 4 1.5t-4 1.5
t-4 -1.5t4 -1.5z" />
  </g>

</svg>
