<?xml version="1.0" standalone="no"?>
<!DOCTYPE svg PUBLIC "-//W3C//DTD SVG 1.1//EN" "http://www.w3.org/Graphics/SVG/1.1/DTD/svg11.dtd" >
<svg viewBox="0 -200 1000 1000">
  <g transform="matrix(1 0 0 -1 0 800)">
   <path fill="currentColor"
d="M281 -38q-1 1 0 4q1 1 0.5 1.5t0.5 2.5t1 3v1v2t0.5 2t0.5 1q1 0 1 1v1v0v2q2 3 2 8q0 2 0.5 2.5t0.5 1.5t1 2.5t1 3.5t0.5 2.5t0 0.5t-0.5 1q1 0 1 2q0 3 1 4t0.5 1.5t0 1t0.5 1.5q0 4 1 6q1 0 1.5 2l0.5 2v1t0.5 1.5t0 1t0 1t0.5 1t1 3.5t1 4t0.5 1.5t1.5 6.5
q0 2 0.5 3t0.5 2q1 6 2 7q2 5 2 9q1 2 1 2.5t0.5 3t1 3t0 1t0 1t0.5 1.5t0.5 1t1 3.5t1 5t0.5 3t0.5 2t0.5 1t0.5 2t0.5 2.5t1 5l2 6q1 4 1.5 4.5t0.5 3.5t1 4q1 3 2 7q1 3 1.5 5t0.5 3v1.5t0.5 2.5t1.5 4t0.5 2.5t0 0.5t0.5 2t0.5 2t0.5 3.5t1 3.5q1 1 2 6q0 2 0.5 3.5
t0.5 3t1 2t1 3v3v1t0.5 2l0.5 1.5l0.5 2t0.5 3.5t1 3.5t1 3t0.5 2.5t1 3.5t0.5 2.5t0.5 1.5t0.5 2v1.5t0.5 1t0.5 2.5t1 3l1 3q0 1 0.5 2t0.5 3q0 3 2 7q1 1 0 1.5t0 3t1 3v5.5t-2 6.5t-3.5 2t-3 2t-2.5 1.5t-1.5 1t-2 1.5l-1.5 0.5l-1 1t-3 2t-3 1t-1 1q-3 3 -6 3l-2 1
q-7 4 -9 6q-2 1 -2.5 1.5t-2 1t-1.5 1t-1 0.5t-1 0.5t-2 1t-5 2.5t-4 2.5t-3.5 2t-3.5 1.5q-2 0 -5 3q0 1 -1.5 1t-3.5 1l-6 4q-4 3 -4.5 3h-0.5l-2 1t-2.5 1.5t-1.5 0.5q-2 0 -4 2q-1 1 -2.5 2t-1.5 1.5t-1 0.5t-3 1q-5 4 -9 4q-1 0 -1.5 1.5t-2 2t-2.5 1.5t-2 1t-3.5 1
t-2.5 2q-1 0 -3 1.5t-3 1.5t-1.5 1t-2 1t-2 1t-3.5 2t-4.5 2t-2 1t-1.5 1.5t-2 1.5t-2.5 1t-3.5 1.5t-2.5 1.5t-1.5 1q-4 0 -4 3q-1 0 -2 1t-2 1t-1.5 1t-2 1t-1.5 1q-4 3 -5 2l-0.5 0.5t-3 1.5t-2.5 2t-1 1t-1 0.5t-1 0.5h-1l-4 2t-4.5 2t-1 1.5t-1.5 1.5q-4 0 -6 3h-1.5
t-1.5 1q-1 0 -2 1t-3 2q-6 3 -8 5q-1 1 -1.5 1t-2 1t-2.5 1t-1.5 1t-1 1t-2.5 1t-2.5 1t-1.5 1t-1 0.5t-0.5 0.5t-3.5 2.5t-4 2.5t-2 1q-2 -1 -2 1l-1.5 0.5t-3.5 2t-2.5 1.5t-0.5 0.5t-4 2.5q-6 3 -11 6l-3 1q-3 0 -7 4q0 1 -3 2q-8 4 -9 5.5t0 2t7.5 0.5t10.5 0.5t15 0.5
t11.5 0.5t0.5 0t2 -0.5q5 1 14 1q4 0 8.5 0.5t8.5 0.5q2 -1 15.5 -0.5t17.5 0.5q3 0 11 1h23q15 0 23 1q25 0 46 1h20h11t14.5 0.5t4 0t1 -0.5t1 0.5t1.5 0t2 0t10.5 0.5h12.5h16.5h15.5q5 0 26 2q5 0 4 2q0 1 0.5 1t0.5 1t1 4q4 6 4 9l1 2v2t1 2t2 6q0 1 0.5 2.5t0 2
t0.5 1.5q3 5 3 9q0 1 0.5 1.5t0 1t0 0.5t0.5 1.5t0.5 1.5t0.5 2.5t0.5 3t0.5 2.5v2q2 2 2 6q0 2 1 2q2 1 3 9q0 2 0.5 2t1 2.5l0.5 2.5q1 0 8 -7l13 -12l6 -4q2 -3 4 -4q2 -2 4 -2q1 0 1 -0.5t0.5 -0.5t0.5 1t1 1t1 1t0.5 1t0.5 0.5t0.5 0.5t0.5 1.5t1 1.5q0 1 0.5 1.5
t0.5 1.5t0.5 1t0.5 1q1 6 4 8q-1 1 0 2t1 1.5t1 2t1 2.5q0 2 2 1q1 -1 1 -2q-1 0 0 -1v-1l1 -2q0 -2 1 -3t0.5 -2.5t0.5 -1.5v-1l0.5 -2t0.5 -3t0.5 -1.5t0.5 -2.5t1 -4t1.5 -4.5t1 -4.5l0.5 -2v-2q2 -4 2 -6q0 -1 0.5 -2t0.5 -2v-1v-1q1 -4 2 -5q2 -4 3 -13q1 -3 4 -4
q0 1 1.5 2.5t2.5 3.5l1 3q1 1 2.5 7t2.5 7t0.5 2t0 1t0.5 1q0 2 2 8v0.5t1 1.5v1l1 1q1 1 1.5 0t0.5 -1.5t0.5 -0.5t1.5 -2.5t2 -4.5t1 -2.5t1.5 -4t1.5 -4t0.5 -1.5t1.5 -4q4 -10 7 -10q1 0 2 6l1 2q1 2 2 10q1 5 1.5 5.5t0 1.5t0.5 2t1 8q0 2 0.5 2.5t1.5 4.5v2v1
q1 7 2 11v3.5t1 3.5q1 7 2 7l1.5 -3t1.5 -4t0.5 -1t1.5 -3q2 -4 4 -7q1 -2 2.5 -6t2 -4t1.5 -1.5t2 -2t1.5 -1.5t1.5 0.5t1 2.5t1 2q-1 1 -0.5 1t0.5 4t0.5 6.5t0 3t0 1t0.5 3v5.5q1 9 1 17q1 5 1 7t1 8v6q2 3 4 4q0 -1 0.5 -1t0.5 -1.5t1 -2.5q2 -5 4 -13v-1.5v-1.5t1 -1.5
t0.5 -1t0.5 -1.5t0.5 -2t0 -2t0.5 -1.5t0.5 -3.5t1 -3t0.5 -1t1 -3.5t1 -3t1 -3.5l1 -3q0 -1 1 -4v-1v-1q1 0 1 -1q0 -3 3 -11q1 -2 2 -5t1.5 -5t0.5 -3.5t1 -1.5q0 -1 1 -2t1 -2.5t0.5 -1.5t0.5 -1.5t1 -3t1 -3t0.5 -1.5t1.5 -2t2.5 -4.5t2.5 -5.5q1 -4 6 -7l3 -2h14
q15 0 21 1q13 1 15 1q4 1 61 2q16 0 38 1h43q72 1 74 1q1 1 1 0.5t1 -0.5q1 1 15.5 0.5t15.5 -1.5q1 0 0.5 -1t-1 -1t-2 -1.5l-1.5 -1.5v-1q-1 0 -2 -1q-3 -3 -5 -2v-1v-1l-9 -7l-3 -2h-0.5t-1.5 -1q-2 -2 -5 -3q-1 -1 -1 -2t-0.5 -1t-3 -2l-2.5 -2l-1 -1q-1 -1 -2 -1t-2 -1
t-1.5 -1t-1.5 -1t-1.5 -1t-0.5 -1q0 -2 -2 -2q-1 0 -1.5 -0.5t-1 -0.5t-0.5 -1t-2 -2t-2 -1.5t-1.5 -1t-3 -2t-2 -1.5t-1.5 -1t-1.5 -1t-1 -1t-1 -1t-1.5 -1.5t-2 -1t-1.5 -1t-1 -1.5t-3 -2.5t-3 -2.5t-1 -0.5t-1 -0.5t-2 -1t-2.5 -1.5t-1 -1.5t-4 -3q-1 0 -1.5 -1.5
t-2 -1.5t-2.5 -1t-1.5 -1t-1 -1.5t-2 -2l-1.5 -0.5q0 -1 -0.5 -1h-0.5h-1l-3 -3q-1 0 -2.5 -2t-3 -2.5t-3 -2t-2 -1.5t-0.5 -0.5t-2.5 -2t-3 -2.5t-1.5 -1t-1 -0.5t-1.5 -1t-2 -1.5t-1.5 -1.5t-3 -2.5l-1 -1l-2 -1q-1 -2 -2 -2t-1.5 -1t-1.5 -1t-2.5 -1.5t-2.5 -2t-3 -2
t-3.5 -2.5t-2.5 -2q-2 -3 -4 -3q0 -1 -1.5 -2t-1.5 -0.5t-2 -1.5t-2.5 -2t-1 -0.5t-1 -0.5t-1.5 -1.5t-2 -1.5t-1.5 -1t-1 -1t-2 -1.5t-1.5 -2t-1 -0.5t-7 -5q-3 -3 -4 -2v-1l-1 -0.5t-4.5 -3t-4 -2.5h-0.5q0 -3 -3 -3q-1 0 -1 -0.5t-0.5 -0.5t-2 -1.5l-1.5 -1.5h-1v-1
q-4 0 -4 -3q0 -1 -3 -2q-1 0 -2 -1l-1 -1l-0.5 -0.5l-1.5 -1.5q-3 -2 -4 -3t-2 -1t-2 -1.5t-2 -1.5t-2.5 -1t-2 -1t-0.5 -1t-0.5 -1t-3.5 -3q-4 -4 -5 -4q0 -1 -0.5 -2.5t0 -3t1 -4t1.5 -4t1 -2.5q0 -4 2 -9q1 -1 1 -2.5t0.5 -1.5t0.5 -1t1.5 -5.5t1.5 -5t1 -1.5l0.5 -2
l1 -4l0.5 -2h1v-2t1 -2.5t1 -2.5t0.5 -1t0.5 -2.5t0.5 -2.5t0.5 -1.5t1.5 -4t2.5 -6.5t1.5 -5t1 -3t1.5 -3q0 -1 2 -7t2.5 -7t1 -3l0.5 -2l0.5 -1.5t1 -3.5t1 -2.5t0.5 -2.5t1 -3q1 -2 2 -6q0 -3 2 -7q2 -5 2 -5.5t0.5 -1t2 -6t2.5 -8.5l3.5 -10t3.5 -9t1 -2.5t0.5 -1.5
t1 -3t1.5 -4l1 -1v-1v-1v-1h1q0 -2 3 -9q1 -3 1 -4t1 -1t1 -1t2.5 -7.5t2.5 -7t0.5 -2.5t1 -3l1 -2t1.5 -4q2 -5 5 -9q0 -1 -0.5 -1.5t0 -1.5t0.5 -2q-1 -1 1 -6q1 -1 1 -2q0 -6 2 -8l0.5 -2.5t1.5 -3t0 -1t-0.5 -1t1 -3t1.5 -3t0.5 -1t0 -2.5t0.5 -4l1 -3h-2q-2 1 -2.5 1
t-2.5 1t-3 2q-1 -1 -4 3q-2 1 -3.5 1t-3.5 1.5t-3 1.5t-1 1.5t-2 2.5t-2.5 1.5t-1.5 0.5t-1 0.5t-2.5 2t-3.5 2t-2.5 1.5t-1.5 2t-3 1l-1 1l-0.5 0.5t-1.5 0.5t-1.5 1.5t-1.5 1.5t-1 1h-1t-1 0.5t-1 0.5t-3 2t-3.5 3t-1.5 1.5t-1 0.5t-3 2t-3 1.5t0 0.5l-1 1q0 -1 -2 0.5
t-3 2l-3 1.5q-4 5 -6 5q-1 0 -1 0.5t-1 0.5t-2.5 1.5t-3.5 2.5q-3 2 -3 4h-1.5t-1.5 0.5t-2.5 2t-4 3t-2 1.5t-2.5 1.5t-2.5 1.5t-2 1.5t-2 1t-1.5 0.5l-1 1q-2 0 -3 3q-1 1 -2 1.5t-2 1.5t-1.5 1t-1 1t-1.5 1t-1 0.5t-1 0.5t-1 0.5t-1.5 1.5t-1.5 1.5t-1 0.5l-2 1t-2.5 2
t-1 1t-1.5 0.5t-1.5 0.5t-1.5 1.5t-1.5 1.5t-0.5 0.5t-1 0.5t-1.5 1t-1.5 1q-5 2 -5.5 3t-3 2t-2.5 1.5t-1 1.5q-2 0 -4 2q-5 3 -7 4q-1 0 -1 1t-1 1q0 1 -1 1t-3.5 1.5l-2.5 1.5q-1 1 -1.5 1t-2 1.5t-2.5 1.5t-2 1v1l-2 1q-6 4 -7 4t-4 2.5t-5.5 4l-2.5 1.5l-2 1t-3.5 2.5
t-2 1.5t-0.5 0.5t-4 3l-4 2.5q-1 0 -3.5 2t-4.5 3t-3.5 2.5t-4.5 1.5h-3.5t-1.5 -1q-4 0 -4 -2h-1t-1 -0.5t-1.5 -1t-2.5 -1.5t-4 -2t-3 -2t-1 -1q0 -1 -1.5 -1.5t-2.5 -1t-2.5 -1.5t-1.5 -1.5t-1.5 -0.5t-1.5 -1t-0.5 -1h-0.5q-1 0 -1.5 -1t-1.5 -1.5t-2.5 -1.5l-3 -2
t-2 -2t-1 -1t-1 -0.5t-1.5 -0.5t-1.5 -0.5t-2.5 -2t-3 -2.5t-1.5 -1t-2.5 -2t-2.5 -2t-1.5 -1t-1.5 -1t-0.5 -0.5t-1.5 -1t-1.5 -1t-2 -1.5q-3 -1 -6 -4q-2 -2 -3.5 -2.5t-1.5 -1t-2 -2t-2 -2t-1.5 -0.5t-1.5 -1q-4 -3 -6 -3l-0.5 -0.5l-0.5 -0.5q1 0 -2 -2.5t-3.5 -2.5
t-1 -0.5t-4 -3l-3.5 -2.5q0 -1 -1 -1q-2 0 -2 -1t-0.5 -0.5t-0.5 -0.5q-5 -4 -7 -5t-2.5 -1t-2.5 -2.5t-2.5 -2t-1 -0.5t-1.5 0v-1l-1 -1t-1 -0.5t-1.5 -1t-1.5 -2t-1 -0.5t-3.5 -2t-4 -3t-1.5 -1.5t-1 -0.5t-1 -1l-4 -2q-1 -1 -3.5 -3t-3.5 -2t-1 -1t-2 -2t-4 -2.5t-3.5 -2
t-3.5 -2.5t-3.5 -2.5t-2.5 -2t-1.5 -1.5t-1.5 -1t-2.5 -1.5t-2.5 -1.5t-1.5 -1t-1 -1t-1.5 -1q0 -1 -1 -1t-1 -1q-1 0 -2 -1l-1 -1l-1 -1t-2 -1t-3 -2t-2.5 -2t-1.5 -1t-2.5 -1.5t-1.5 -1.5t-1 -1t-4 -2t-4 -2.5t-1 -1t-0.5 -0.5t-1.5 -1t-2 -1t-1 -1t-0.5 -0.5t-2.5 -1.5
t-3 -2t-1 -0.5t-1 -0.5t-1 -1t-1 -1t-1 -0.5t-1 -0.5h-1q0 -3 -5 -3zM507 442.5q0 0.5 -0.5 0l-0.5 -0.5q1 0 1 0.5z" />
  </g>

</svg>
