<?xml version="1.0" standalone="no"?>
<!DOCTYPE svg PUBLIC "-//W3C//DTD SVG 1.1//EN" "http://www.w3.org/Graphics/SVG/1.1/DTD/svg11.dtd" >
<svg viewBox="0 -200 1000 1000">
  <g transform="matrix(1 0 0 -1 0 800)">
   <path fill="currentColor"
d="M385.5 -142q-1.5 2 -1.5 3h-1v1v1l-1 1v1l1 1l-1 -1h-1v1q0 1 -1 1v1v1h-1v2l-1 2h-1l1 1l-2 2q-1 1 -1 3l-1 2h-1v1v1l-1 1q-1 1 -1.5 2.5t-1.5 3.5l-1 2v0h-1l-1 2q0 2 -1 2h1l3.5 2.5t4 2.5t1.5 1q3 2 6 3h1v1h1l1 1l1 1v-1h1v1q1 0 3 1.5t2.5 1.5t2 1.5t2 1.5t2 1
t3.5 2t2 1.5t1 0.5q2 1 4 3l1 1l2 1l2 1l1 1l2 1l3 2l3 2h1h1l3 3l1 2h1q3 0 6 3q1 1 2 1v0q0 1 1 1t1.5 0.5t2.5 1.5t4 3q2 1 6 4l4 2t4 2.5t3.5 2t2.5 1.5l1 1h1v1h1q3 0 4 2q0 1 1 1q3 0 6 3q2 3 4 3q1 0 1 1h1h1h1l1 1q0 1 2 2q5 3 7 4l1 1l1 1t2 1t3 2q0 1 1 1t1 1h1
l2 2t3 1q4 2 5 5v0l2 1l2 1v-1h1l2 1q2 1 2 1.5t0.5 0.5t1.5 1v1h1q1 0 2 0.5t1.5 1l1.5 1.5l1 1h2h1v1q1 1 1.5 1t2.5 1.5t6 3.5t4 2.5t2 1.5t6 3.5t4.5 2.5t0.5 1q2 2 5 2v0v1l1 1q6 2 7 4q1 0 5 2l2 1q2 2 6 5q2 0 2.5 1t1 1t1.5 1t1.5 0.5t3 1.5t3 2t1.5 1t2 1t1 1h1
l1 1q1 1 1.5 1t4.5 2.5l7 4.5l4.5 3t2 1t2 1t5.5 4l8 5q5 3 5.5 3t0.5 0.5t1 1.5l4 2q2 1 2 1.5t1 0.5t3 1.5t4.5 3t7 4.5t6 3.5t5.5 3.5t5 3t2.5 1t2.5 2q7 4 8 5q0 1 1.5 1.5t3.5 2.5q2 1 4 3q3 1 3.5 1.5t3.5 2t3.5 2.5t1 1h1.5q7 5 8 5q0 1 2 1q2 1 5.5 4t4.5 2l2 1.5
t2.5 1.5t1 1t2.5 2t2.5 1.5t1.5 0.5h1v1q0 1 0.5 1t2 1t1.5 1.5t1 0.5t2.5 1l1.5 1l2 1.5t2.5 1.5t2 1.5t4 2.5t4 2.5t2.5 1.5v1h1l1 -1v1v1l3 1l3 2l1 1l2 1q5 3 5.5 3.5t1 0.5t1.5 1l1 1h1l1 1v1l1 -1v1q0 2 5 2v1l1 1h1l2 1q2 2 4 2l1 1v1v-1l2 1l1.5 1.5t2 1.5l1.5 1
l1 1v-1h1v1q1 0 2 1l3 2l1 1h1v1v1h1q0 2 5 3l1.5 1l1.5 1l2 1t2.5 1t2 1.5t2 1.5t0.5 0.5t1 0.5t2 1l1 1v1l1 1h1v1l-1 1l-1 1h-1l-1 -1v1h-1q-1 0 -2 0.5t-4 0.5t-4.5 0.5t-2.5 0.5t-4 1l-3 1l-1 -1h-1q-1 1 -1.5 1h-1t-2.5 0.5t-3.5 0.5t-3.5 0.5t-2.5 0.5h-1t-1.5 0.5
t-3 0.5t-3.5 0.5t-2 0.5t-3 0.5t-3.5 0.5q-11 1 -12 2q-1 0 -3 0.5t-4 0.5l-2 1l-1 -1v1h-1h-1h-1v1h-2h-4l-3 1v-1h-1q-1 1 -6 2h-4q-8 2 -13 3q-2 0 -2.5 0.5t-2 0.5h-2.5h-3q-1 1 -1.5 1h-2h-2.5q-1 1 -3.5 1.5t-2.5 -0.5h-1v1h-2q-2 0 -5 1t-6 1q-5 1 -7 1q-1 1 -6 1
q-2 0 -5 1t-5 1h-2q-2 1 -6 1h-3l-1 1l-2 1h-2h-1q0 1 -6 1h-2v1h-1q-5 -1 -8 1v0l-1 -1l-2 1q-2 1 -3 1l-1 1v-1h-1h-1q0 1 -3 1h-2q0 1 -5 1h-2l-2 1h-1h-2q-2 0 -4 0.5t-3 0.5t-1 0.5t-0.5 0.5h-1.5l-5 1h-1h-1v-1l-1 1v1l-1 -1h-2v1h-1h-2h1h-2h-1q-1 1 -2 1t-1 0.5
t-1.5 0.5t-3.5 0.5t-3.5 0.5h-1.5h-1q-4 1 -5 1l-1 1v-1h-2q-1 1 -3.5 1t-2.5 0.5t-3.5 0.5t-3.5 0.5t-5 1.5l-4 1v-1l-1 -1v1v1h-2h-2v1h-1v-1h-1q-1 1 -2 1h-1l-5 1q-2 0 -2.5 0.5t-2 0.5h-3.5l-2 1l-1 -1l-1 1h-3l-3 1h-1l-2 1v-1h-1v1h-1v-1l-1 1v1h-3h-4h-1v1h-3
q-2 0 -2.5 0.5t-2.5 0.5h-2h-1v1v-1v0l-2 1h-1h-1h-1v1h-1l-1 -1l-1 1l-2 1v-1h-1q0 1 -2 1h-1l-1 -1v0v1h-2q-2 0 -5 1h-3v1h-1h-1l-1 1v-1h-1v1h-2h-1v1h-2q-5 -1 -6 1h-3h-2l-1 1v-1h-1v1h-1h-2h-2q-2 1 -4.5 1t-3.5 0.5l-1 0.5h-1h-1l-1 1h-1h-1v1l-1 -1v-1l-1 1v1
l-1 -1h-1l-1 1l-1 1l-1 -1h-1h-1q-2 1 -4 1h-3v1h-1h-1h-2l-1 1h-2l-1 -1l-1 1l-2 0.5t-4 0.5t-3 0.5l-1 0.5h-2q-2 0 -3.5 0.5t-4 1t-6 1t-5.5 1t-3 0.5h-3l-6 1q0 1 -2 1q-8 0 -10 2h-1v-1v1h-1h-1h-1q0 1 -1 1q-5 0 -5.5 0.5t-3.5 0.5t-4 0.5t-4 0.5q-3 1 -4 1h-1
q0 1 -4 1q-1 0 -1.5 0.5t-2.5 0.5h-1v0h-1h-1v1h-3h-3l-1 1h-1l-1 -1v1h-4q-2 1 -3.5 1h-2.5l-4 1h-1q-3 1 -4 2h-1v-1h-2l-1 1h-1v1l-1 -1l-2 0.5l-4 1l-2 0.5l-2 0.5t-3.5 0.5t-5.5 1h-2.5h-1.5h-2v1v1h-3h-3.5t-5 0.5t-5.5 1t-2 0.5h-1l-1 1l-5.5 0.5t-5.5 1t-4 0.5
q-3 1 -3.5 1h-1.5h-2v1h-2q-1 0 -1.5 0.5t-3 0.5t-4.5 0.5t-3 0.5h-2l-1 1h-2q-2 1 -4 1h-1v0h-2h-1v1h-1q-1 0 -3 0.5t-3 0.5h-2v1h-1v-1h-1v1l-1 -1h-1h1v1h-1l-2 -1v1h-1q-4 0 -6 1q-1 1 -4 1t-6 1t-4.5 1t-3.5 0.5t-3 0.5t-2 1h-1l1 -1v0q-1 0 -1 0.5t-1 0.5t-1 1h-1v-1
h1h-1h-1v1h-2h-3l-1 1l-1 -1v0l-1 1h-1h-1h-2l-3 1h-2q-6 1 -7 1q-1 1 -3 1t-3.5 0.5t-3.5 0.5l-1 1l-1 -1l-2 1q-2 1 -3.5 1h-3.5q-3 1 -8 2q-2 0 -3 1h-2v-1l-2 1q-1 1 -2 1h-1h-4h-1v1h-1h-1v1h-1h-3l-1 1l-1 1l1 3q0 2 0.5 3l0.5 1v1h1h-1v1q1 1 1 2q0 3 9 1
q2 -1 2.5 -1h1t2 -0.5t6 -1.5t5.5 -1l6 -1q8 -1 12 -2q1 0 8 -1q19 -4 21 -4q1 0 6 -1q7 -1 17 -3q4 -1 8.5 -1.5t6 -0.5h3t7.5 -1l5 -1l2 1h1l3 -1l2 -1h3q4 -1 8.5 -1.5t9 -1.5t6.5 -1.5t3.5 -0.5t6.5 -1t8 -1.5t4 -0.5q2 -1 8 -1l3 -1q2 -1 9 -2q3 0 4.5 -0.5t4.5 -1
t3.5 -0.5t3.5 -0.5t4 -1t4 -1t4 -0.5q2 -1 10 -2h3t5 -0.5t6.5 -1t5.5 -1t7.5 -1.5t7 -1h2.5q3 -1 13 -2q3 -1 3.5 -1t4 -0.5t5.5 -1.5h3l5 -1h6l1 -1q1 0 4.5 -0.5t5 -1t4 -1t3 -0.5t5.5 -1l8 -1l1 -1q9 -1 10 -2h3.5t6 -1t6.5 -1t4 -0.5t1.5 -0.5t3.5 -1h2h1h1v-1h1
q2 0 8 -1q3 -1 5 -1h2l-1 -1h3q4 0 9 -1q3 -1 4.5 -1t2.5 -0.5t4 -1.5l5 -1h3t4 -0.5t5 -1.5h4h1v-1h2q1 0 5 -1t8 -1q8 -1 14 -3q5 -1 11 -2q2 0 5 -0.5t7 -1.5q11 -1 14 -2q1 -1 3 -1t5 -1h5q4 -1 10 -3h4q4 -1 15 -2l4.5 -1.5t4.5 -0.5h4q1 -1 3.5 -1t6.5 -1t5 -1
q7 -1 10 -2q1 0 5 -0.5t4.5 -0.5t2 -0.5t4.5 -0.5q7 -2 10 -2q5 0 12 -2h4q3 -1 3.5 -1t3 -0.5t7 -1.5t6.5 -1q5 0 12 -1l10 -2l7 -1h4q3 -1 3.5 -1t3.5 -0.5t6.5 -1l7 -1t5.5 -1l4 -1l2 -0.5q2 -1 11 -2q7 -1 15 -3h4t2.5 -0.5t4.5 -0.5t5 -0.5t5 -1t4.5 -0.5h1.5h1
q1 -1 7 -2h5l3 -1v1h1v1l-1 1l1 -1h1l1 1q0 1 -2 2t-3 3l-1 1h-1h-1v1h-1h-1v1l-1 1h-2l-1 1l-1 1l-3 2l-3 2v1h-2h-1q0 1 -0.5 1t-3 1.5t-3 1.5t-2 1.5t-2.5 1.5t-2 1q-3 3 -3 2l-1 1q-1 1 -2 1h-1v1v0q-1 0 -1 0.5t-1.5 1t-1.5 1t-2.5 2t-3 1.5t-1.5 1t-3 1l-1 1h-1v1
q-1 0 -2 1t-3 2t-3 2t-4 2h-1l1 1h-1q-1 0 -2 1t-3.5 2t-3 1.5t-1 0.5t-1 1t-4 2.5t-3.5 2t-1 0.5l-1 1v0h-2q-1 1 -1.5 1t-1.5 1t-1.5 1t-2 1.5t-1.5 1t-1 0.5l-1 1l-1 1l-2 1h-1l-2 2t-1.5 1t-2 1t-2.5 1q0 2 -4 2l-1 1t-3.5 2.5t-3 2t-1 0.5t-1.5 1t-2 1h-1l1 1h-1
q-2 1 -3 2t-1.5 1t-1 0.5t-2.5 1.5q-4 2 -4 3l-3 1.5t-4 2.5h-1l-1 1q-1 1 -2.5 1t-1.5 0.5t-2 1.5t-4 2.5t-2.5 1.5t-2 1.5t-2.5 1.5t-1.5 0.5t-2.5 1.5q0 1 -1 1t-1 1l-1 0.5l-1 0.5v1h-1h-1l-1 1l-1 1q-3 0 -3 1h-1v1h-1t-2 1t-2 1l-2 1v1h-1q-1 1 -1.5 1t-1.5 1t-1.5 1
t-1.5 1l-1 1h-1v-1v1h1l-2 1q-1 0 -1 1h-1h-1l-1 1q0 1 -0.5 1t-2.5 1l-2 2l-1 -1h-1v1v1l-2 1q-2 1 -3 1h-1l-1 1l-1 1h-1h-1v1h-1h-1v1h1h-1h-1v1l-1 1q-2 1 -3.5 2t-2.5 1h-1v1v1h-1q-1 0 -2 1l-1 1v-1l-1 1q-1 1 -3 2t-3.5 2t-3 1.5t-1.5 1t-3 2t-3 2t-1 0.5q-2 0 -7 4
q-1 1 -3.5 2.5t-3.5 2.5h-1l-1 1l-1 1h-1l-1 1h-1v-1v1v1h-1q-1 0 -1 0.5t-1 0.5q-2 0 -4 3l-1 1h-1h-2l-1 1v-1v1v1h-1l-1 1v1h-1h-1l-2 1q-3 3 -6 3l-1 1v1h-1h-1q0 1 -2 2t-2 1.5t-1 0.5t-1.5 0.5l-0.5 0.5h-2h-1v1l-2 2l-3 1l-2 1l-1 1h-1l-1 -1v1v0h-1v1l-1 1
q-1 0 -3 2l-1 1h-1h-1v1h-1l-2 1l-2 2v-1h-1v1v1h-1h-1v1h-2h-2v1h-1h-1l-1 1q0 2 -2 2l-1 1l-2 1v1l-1 -1l-1 1q-1 1 -1.5 1t-0.5 1t-4 1l-1 2l-1 1l-1 -1h-1l1 1v1l-1 -1l-1 1v1v-1h-1v0v1h-1q-1 1 -2 1q-2 3 -4 3v-1h1h-1h-1v1l-2 1l-1 1q-1 1 -2 1h-1v1l-1 1h-1h-1l-1 1
l-1 1h-1l-2 1q0 1 -2 2l-2 1l-1 1l-1 1l-1 -1h-1q-1 1 -1 2v1l-1 -1h-1q0 2 -3 2h-1l1 1l-2 1h-2v1v-1h-2h1v1v1h-1l-1 -1v1h-1v1v1h-1h-1l-1 1v-1l-1 1v1h-1h-1v1l-1 1h-2v-1v2v1l-1 -1h-1v1v0l-1 -1v1h-1v1h-1q0 1 -1 0h-1l1 1v1l-1 -1h-1q0 1 -0.5 1.5t-1.5 0.5h-2v1
l-1 0.5t-1.5 0.5t-0.5 1l-1 2q-1 0 -2 0.5t-2 0.5h-1v1l-1 1h-1l-1 -1v1v2q-1 0 -1 -1v-1l-1 2l-2 2h-1l-1 1l-2 1h-1v-1l-1 1q0 1 -0.5 1t-1.5 2l-2 1v-1h-1v1l-1 1h-1l-1 1v-1v-1v2v1h-2h-2l1 1h-1h-1.5t-1 0.5l-1.5 1.5l-2 1v-1v1q0 1 -1 1v1h-1l-1 -1v1v0h-1l-1 1v1
l-1 -1l-1 1q-1 2 -7 5q-2 0 -2 1h-1v0l-1 1l-1 1q-3 -1 -3 2l-1.5 0.5t-1.5 1.5v0h-2h-1v2l-1 1h-1v0v-1h1h-1h-1v1q-1 0 0 1h-1h-1h-1v1l-2 1l-2 1v1l-1 1l-1 -1h-1l-1 1l-1 1h-1l-1 1v1h-1q-1 0 -3.5 1.5t-3 2t-1.5 0.5t-1 0.5t-1 1.5l-1 1v-1h-1v1v0q-1 0 -2 1l-4 2v1v1
h-2l-2 1h-1q-1 1 -2.5 2t-2.5 1l-1 1l-1 -1v1l-1 1v0l-2 2l-3 2h-1h-2v1v1h-2q-1 0 -1 1h-1h1v1h-1l-2 1v1h-1h-2h1v1l-1 -1h-1v1q-1 1 -1.5 1t-0.5 1h-1q-1 0 -1 0.5t-1 0.5h-1v1h-1h-1v1h-1v1h-1q-1 0 -1 0.5t-2 1.5l-2 1h-1h-1v1v1l-2 1q-2 0 -3 1t-2 1h-1v1l-1 1h-1
l1 -1l-1 1q-1 1 -1.5 1t-2.5 1l-2 2v0h-1h-1v1h-1h-1l-1 1v1h-1q-1 0 -2 1l-1 1v1h1h-1h-1v1v-1h-1l-2 1q-1 1 -2 1v1h1h-1h-2v1q-1 0 -2.5 0.5t-1.5 1t-1 0.5h-1v1l-2 1q-2 1 -2 1.5t-2 0.5q-8 4 -8 5v0h-1l-2 1q-2 2 -2.5 2t-1 1t-1.5 1q-1 -1 -2 0.5t-3 2t-3 1.5l-1 1
q0 1 -1 1h-1v0v1v1h-1l-1 -1v1h-1h-1q0 1 -1 1h-1l-1 1q-1 2 -2 2h-1v1h-1h-1l-1 1v-1h-1l-3 2q-3 1 -3.5 1t-0.5 1l-1 1v-1l-1 -1v1l1 1h-1v1l-1 1h-1l-2 1v1l-1 1l-1 1h-1v1h-1h-1l-2 2l-3 1.5l-3 1.5l-1 2h-1v-1l-1 1l-1 2v-1h-1l-1 1v1h-1h-1l-1 1q-1 1 -2 1h-1h1v1h-1
h-1v1v-1h-1l-1 1h-1h-1v1q0 2 -3 2v0h-1l-1 1l-1 -1v1h-1q-2 0 -2 1t-1 1.5l-1 0.5h-1v1l-1 1h-2h-1v1v1h-1q-1 0 -3 0.5l-2 0.5h-1v1v1h-1h-1v1v0h-2v1l-1 1h-1v1h-1l-2 1l-2 2h-1l-3 3h-1h-1h-1v1h-1l-1 1q-1 2 -1.5 2t-2.5 1l-1 1v-1h-1h-1v1l1 1h-2l-2 1v1h-1h-2l-1 1
l-1 1h-1l1 -1v-1l-1 1q-1 2 -2 2l-1.5 1t-2.5 1v0v0q-1 0 -2.5 1t-2.5 2h-2v1l-1 1h-1q-2 0 -2 0.5t-2.5 2t-3 2.5t-1.5 1h-2v1l-1 1h-1h-1l-1 1l-1 2h-1q-1 0 -1 0.5t-2 1.5t-3 2t-1.5 1t-1.5 1h-1v2v2l1 1v1l16 -1h16l2 -2q1 -1 2.5 -1.5t2.5 -1.5l2 -2q4 0 6 -1v-1h3h2
v-1l2 -1q1 -2 1.5 -2t6 -2.5t6 -2.5t0.5 -0.5t2 -0.5q6 -3 8 -5q1 -1 1.5 -1t3 -1.5t4.5 -2.5l2 -1v-1h1h1l1 -1q3 -3 7 -4h1l1 -2q2 -1 2 -1.5t3 -2.5l4 -2l1 1l1 1h2l2 -2q5 -5 6 -5l2.5 -2t3 -2t3 -1.5t3.5 -1.5q0 -1 2 -2l8 -4q0 -1 0.5 -1t2.5 -1.5t2.5 -1.5t1.5 -1
t3.5 -2t2.5 -1.5t2 -1.5t3 -2q3 -2 4 -3q1 0 3.5 -2t5.5 -3.5t4 -1.5q2 -2 12 -7q2 -1 5 -3.5t3.5 -2.5t1.5 -1t4.5 -2.5t4.5 -2.5t1.5 -1t3 -1.5t4.5 -2.5t3 -2q2 -2 7 -4l3 -2l2 -1t7.5 -4.5l5.5 -3.5l3 -1.5t4 -2.5t4.5 -3t4 -2t0.5 -0.5t0.5 -0.5t4 -2t4 -2t2.5 -1l5 -3
q5 -3 6 -4l3 -1.5t7 -4.5t5.5 -3.5t2 -1.5t1 -1t2.5 -1l2 -1q1 0 8 -5l8 -5l3.5 -2t5.5 -3l2 -1l3 -1.5t3 -2t1 -0.5t3 -1.5t4.5 -2.5t3 -1.5t1.5 -1t3.5 -2l2.5 -1.5q1 0 17 -10q1 -1 2.5 -1.5l1.5 -0.5l1.5 -1t2 -1.5t2.5 -1.5l2 -1l4 -2t7 -4q1 -1 4.5 -3t4.5 -2.5
t1.5 -1t2 -1t4 -2t3 -2t5.5 -3.5l5 -2q3 -2 3.5 -2.5t1 -0.5t2.5 -1t2 -2q1 0 4 -2q1 0 2.5 -1t2.5 -1h1v-1v-1q1 0 4 -1.5l7 -3.5t5 -3t2.5 -1.5t3.5 -1.5q8 -6 9 -6l1.5 -1t2.5 -1t1 -0.5t1 -1.5q6 -2 10 -5q1 -1 4.5 -2.5t5 -3t2.5 -1.5t3.5 -2t3 -2t1.5 -1t3 -2
q6 -2 6 -3t3 -2q8 -4 8 -5q1 0 2.5 -0.5t1.5 -1.5q1 0 4 -2q4 -3 9 -6q3 -1 3 -2h1l2 -1q1 -1 3 -1.5t2 -1.5l1 -1h1h1v-1q1 -1 2 -1h1q0 -1 5 -4q2 -1 2.5 -1.5t1 -0.5t3 -1.5t4.5 -2.5q5 -3 6 -4l1 -1q0 1 9 -5q3 -2 3.5 -2t3 -2t3 -2t3.5 -2l3 -2q2 0 5 -3q1 -1 4 -2
q1 -1 4 -3t3.5 -2t1.5 -1t1.5 -1t3.5 -1.5t3.5 -1.5t0.5 -1l1 -1q1 0 3 -1.5t3.5 -2t3.5 -2l2 -1.5l1.5 -0.5t2.5 -1l2 -1t3.5 -2t3.5 -2.5t2 -1.5l3 -1.5q4 -2 5.5 -3l1.5 -1q1 -1 4 -2q2 -1 2 -2v-1l1 1l3 -1l2 -2q1 -1 4 -2q1 0 2.5 -1.5t2.5 -1.5t1 -0.5t1.5 -1t1.5 -1
t0.5 -0.5t1 -0.5t2 -1.5t5.5 -3t4.5 -2t1.5 -1l1 -1q2 0 2 -1t2.5 -2l2.5 -1l3 -1.5t4 -2.5t2.5 -1.5t4 -1.5l2.5 -1l1 -1v-1h1q2 0 7 -4q0 -1 1 -1t1 -0.5t1 -0.5t2 -1t1.5 -1t0.5 -1q2 -2 3 -2h2q4 -4 6 -5q1 0 2 -1l2 -1h1h1v-1h1h1v-1h1l2 -1q4 -4 6 -4l1.5 -1t2 -1
t4 -1.5l3.5 -1.5h1l1 -2l1 -1h1q1 0 4 -3l1 -1h1q3 -1 4 -2q2 -2 7 -2h1l2 -2l1 -1h1q2 0 5 -4q2 -3 4 -3h2l2 -1v-2v-1l4 -2q4 -2 4.5 -3t1 -1t4 -2.5t4.5 -2.5h1l4 -4l4 -4l3 1h3h-1h1l2 1q4 4 3 4l1 2q1 1 1 2v1h1v1l2 3q3 2 5 3l1 2l1 -1h1l1 1h2l3 1l3 -1h2l1 -1l1 -1
v1h2l1.5 -1.5l0.5 -0.5q4 0 5 -3l1 -1l1 -1v-1h0.5t2.5 -3l1 -2v-1v-1v-1h1q1 0 0 -5v-2l-1 -3q-1 -3 -1.5 -3.5l-0.5 -0.5v-1l-2 -2l-3 -2l-2 -1l-3 -1l-1 -1l-2 -2l-1 1l-2 1v-1h-2h-2l-1 -1q-1 -1 -2 -1h-1q3 -2 5 -4t4 -2v-2v-2l-1 -1v-1h1l-1 -1q-1 0 -1 -0.5t-1 -1.5
l-1 -1v-1h1h-1h-1q-1 -2 -5.5 -4.5t-6.5 -3.5l-3 -1l-2 -1q-3 -3 -6 -4l-2 -2q-7 -4 -8 -5v0h-1l-1 -1h-0.5t-2.5 -2l-1 -1l-3 -2l-3 -1l-1 -1q0 -1 -0.5 -1t-1.5 -0.5t-3 -2.5q-9 -4 -9 -5v-1h-1l-1 1v-1v-1h-1h-1q0 -1 -1 -1l-2 -1v-1q-1 0 -3 -1l-2 -2h-1v-1h-1t-3 -1.5
t-2.5 -1.5t-0.5 -0.5t-2 -1.5l-2 -1l-1 -1v-1l-2 -1l-7 -3q0 -2 -3 -2h-1v-1q-1 -1 -2 -1.5l-1 -0.5q-1 -1 -5 -3h-2v-1v0h-1l-1 -1v0l1 -1h-1l-1 1l-2 -2q-2 -1 -2.5 -1t-2 -1.5t-2 -1.5h-1.5q-1 -2 -3 -2l-1 -1t-1.5 -1t-1 -1t-3.5 -2q-4 -2 -9 -6l-4 -3l-2 -1l-1 -1v1h-1
l-1 -1q-1 -1 -1.5 -1t-1.5 -2l-1 -1h-1h-2l-1 -1q-3 -4 -5 -4h-1v-1l-2 -1q-2 -1 -3.5 -2t-2 -1t-0.5 -0.5t-2.5 -2t-3.5 -2l-1 -0.5h-1v-1q0 -1 -1.5 -1.5t-2 -1t-3.5 -2t-3.5 -2.5t-1.5 -1t-1.5 -0.5t-1 -0.5t-1 -0.5t-3 -2t-3.5 -2.5l-1 -1h-1v1v-1v-1h-1l-3 -1l-2 -2
q0 -1 -4 -3q-5 -3 -7 -4q-1 -2 -3 -2h-1v-1h-1l-3 -2q-3 -3 -4 -3.5l-1 -0.5v-1h-1q-1 0 -3 -1t-2.5 -1.5l-0.5 -0.5v-1h-2l-1 -1q0 -1 -4 -2q-1 0 -3 -2l-2 -2l-2 -2l-1 1v-1h-1h-1l-1 -1q-1 -2 -2 -2h-1l-1 -1l-1 1v-1v-1h-1h-1q0 -1 -1 -2l-1 -1h-1h-1v-1l-2 -1
q-3 -1 -6 -4q-1 -1 -1.5 -1t-1.5 -1l-1 -1l-1 1l-1 -1l-1 -1l-1 -1q-2 0 -2 -1h-1h-1v-1v-1v1h-1l-1 -1l-0.5 -0.5t-1.5 -0.5l-1 -1h-1v-1q-1 0 -2 -0.5t-1 -1.5h-1v0v-1h-2h-1v-1l-1 -1h-1h-1v-1h-1l-1 -1l-1 -1v1h-1q0 -1 -2 -2l-2 -1v-1h1h-1l-2 -1l-2 -1l-1 -1v-1h-1
q-1 0 -3 -1l-2 -1l-1 -1l-1 -1q-2 0 -5 -3l-1 -1h-2l-1 -1l-2 -1l-2 -1v-1l-1 1l-1 -1l-1 -1h-1v-1h-1h-1q-1 -1 -1 -2l-1 -1h-1l-1 -1v-1h-1h-2l-1 -1t-2.5 -1.5t-2.5 -1.5h-1l1 -1h-1q-2 0 -3 -1h-1v-1l-1 -1h-1l-1 -2l-1 -1h-2h-1v-1h-1t-2 -1l-1 -1h-1q-1 0 -1 -1
q-1 -1 -4 -2l-1.5 -1t-2 -1t-0.5 -1h-1h-1v-1v-1v1h-1v-1l-3 -1l-2 -1h-1l-2 -2l-1 -1v1h-1l-1 -1q-2 -1 -2 -1.5t-1 -0.5h-1v-1l-1 -1h-1v-1h-1q-2 0 -3 -2l-1 -1h-1h-1q-1 -1 -1.5 -1t-2.5 -2q-4 -3 -5 -3h-1v-1q-2 0 -4 -2h-2l-1 -1l-3 -1.5t-2 -1.5l-2 -2h-1h-1v-1h-1
h-2v-1q0 -1 -1 -1q-4 -2 -5 -4h-1l-1 -1t-3 -1.5l-2 -0.5v-1l-1 1l-2 -1q-2 -3 -5 -4q-3 -2 -4 -2.5t-1.5 -0.5t-2 -1.5l-1.5 -1.5l-2.5 -1.5t-2.5 -2t-1 -0.5h-1l-1 -1h-1v1v-1l-2 -1l-1 -1l-1 1v-1v-1h-1h-1v0l-1.5 -1t-1.5 -1.5t-2 -0.5h-1v-1l-1 -1q-1 0 -2 -1v-1h-1
q-2 0 -4 -2l-1 -1h-1l-2 -1v-1v-1h-1q-4 0 -4 -2l-3 -1.5t-3.5 -2t-2 -1t-2.5 -1.5l-1 -1h-1q0 -1 -5 -4q-2 0 -2 -1l-1 -1v1l-2 -1q-1 -1 -1.5 -1t-1 -0.5t-2 -1.5l-1.5 -1v-1h-1q-1 0 -2 -1l-1 -1h-1h-1v-1l-1 -1l-2 -1q-3 -1 -4 -1q-2 -1 -3.5 1z" />
  </g>

</svg>
