<?xml version="1.0" standalone="no"?>
<!DOCTYPE svg PUBLIC "-//W3C//DTD SVG 1.1//EN" "http://www.w3.org/Graphics/SVG/1.1/DTD/svg11.dtd" >
<svg viewBox="0 -200 1000 1000">
  <g transform="matrix(1 0 0 -1 0 800)">
   <path fill="currentColor"
d="M880 420q1 144 0 289v31v-176v-162v18zM351 672l-60 -18l-65 -18q-4 -1 -7 -2l-4.5 -1.5l-1.5 -0.5q1 -2 39 -8q18 -3 29.5 -6.5l28.5 -8.5q15 -4 16.5 -6t-0.5 -17q-2 -11 -2 -16q0 -4 2.5 -5t19.5 -1q23 -1 38.5 -2t17.5 0.5t37 0t56 -2.5q15 -1 18 0t3 8q6 72 9 93
q2 9 1.5 9.5t-31.5 -10.5l-56 -19l-42.5 -15t-17 -6t-6 -3t-6 -2t3.5 29q2 34 0 34q-1 -1 -20 -6zM573 542l-70 -7q-80 -8 -81.5 -8.5t-4.5 -8.5q-4 -10 -6.5 -11t-18.5 0q-44 4 -102 11q-16 2 -38 4l-27.5 2.5t-5.5 -0.5q0 -2 29 -10q15 -4 21.5 -5.5l32.5 -7.5
q55 -11 80 -18q66 -19 103 -35q4 -2 5 2q1 2 3 18q2 15 3 16q4 1 32 -10q62 -24 65 -24q2 0 2 2t13 40q18 55 17 55q-2 0 -6.5 -0.5t-45.5 -4.5zM413 410q12 -8 67.5 -35.5t59.5 -27.5q2 0 8.5 10t8.5 10.5t14 -4.5q20 -8 64.5 -23t46.5 -14q1 1 19 28t18 28t-2 1
q-3 0 -66.5 8.5t-76.5 10.5q-11 2 -16 3q-12 4 -14 2q-2 -1 -14.5 1t-13.5 1t-5 -10t-4 -9.5t-29 8.5q-32 10 -79 28q-47 19 -51 18q-2 0 26 -13.5t39 -20.5zM880 168q1 8 0 15v-7v-9v1z" />
  </g>

</svg>
