<?xml version="1.0" standalone="no"?>
<!DOCTYPE svg PUBLIC "-//W3C//DTD SVG 1.1//EN" "http://www.w3.org/Graphics/SVG/1.1/DTD/svg11.dtd" >
<svg viewBox="0 -200 1000 1000">
  <g transform="matrix(1 0 0 -1 0 800)">
   <path fill="currentColor"
d="M553 -168q-2 3 -2 11l-1 4l-1 1v1v1l1 1v1l-2 4l-1 2v1l1 1q-1 1 -1.5 1t-0.5 2v3l-1 1h1l2 1l-1 2l-2 2l-1 4v11v6h-1v2v2l-1 -1l1 3q0 2 -1 4v1h-1h-1l1 1v2v2l-1 2h1l1 1l-1 2l-1 5v3h-1h-2l1 1h1v2l-1 6q0 4 -1 4h-1l1 2q3 2 1 2h-1v1l1 1l-1 2l-1 1h1l1 -1v1
q0 2 -0.5 1.5t-1.5 0.5h-1v1h1v3v2h-1v1l1 1v2h-1h-1l1 1q1 1 1 2v2h-2l-1 -1l1 1h1v5v4h-1l-1 1l1 2v3h-1l-1 1v4v4q-1 0 -1 1v1l1 -1h1v1l-2 1l-1 2h1h1v1q0 2 -1 2l-1 1v3v3l-1 1h-1l1 1h1l-1 1l-1 1l1 1h1l-1 1q-1 1 -1 3q0 4 -1 4l-1 1l2 1l1 1v1h-2l-1 -1l1 2l1 2h-1
h-1l1 1h1l-1 4v3l-1 1h-1l1 3v3l-1 2q-1 1 -1 2l-1 1h1h1l-1 2q0 1 -0.5 6t-1.5 10.5t-1 6.5v1l-1 1l1 1h1l-1 2l-1 2h1v1h-1h-1l1 3v3l-1 1l1 1l1 2h-1h-1v1l1 1l-1 1l-1 1v2l1 2l-1 1h-1l1 1l1 1l-1 3l-2 2l1 2v2l-1 3q0 2 -0.5 6t-1 4.5t-1 5t-1 6t0 2t-0.5 3t-1 6
t-1.5 11.5t-1.5 11v2l-1 1h-1l1 3l1 2h-1l-1 1v5q0 5 -0.5 5t-0.5 3.5t-0.5 5.5t-0.5 6q-1 6 -3 21q-1 9 -1 13t-1 8.5t-2 9.5t-1 6l-1 1l1 1v1h-1q-1 0 -1 0.5t-2 1.5t-5 3.5t-4 2.5h-2v1h-1h-1v1v1h-1q-1 -1 -3 1t-5.5 3t-5.5 2.5t-2.5 1t-3.5 1.5t-5 2.5t-3.5 2t-2.5 1.5
h-1l-1 1v1h-1q-1 0 -5 2.5t-8 4.5l-4 1l-1 1q0 2 -1 2q-6 1 -7 3q-1 1 -2 1h-1l-1 1v1h-2q-1 0 -1.5 1t-3 2t-4 2.5t-4.5 3t-5 3.5t-5 3l-3 2v2v1h4q5 1 16 3l11 2q2 0 5.5 1t6.5 1t5.5 1t5.5 1q18 3 25 5q2 1 3.5 1.5t5.5 1.5t9 1.5t6 1t3 0.5t5 1t8 1q8 1 13 4l1 1l1 4
q1 4 4 15l15 51q3 11 4 15.5t3 11.5l3 10.5l8 28.5t8 29l13 49q3 9 6 19q10 36 10 37t1 2.5t3 11.5l4 13l4 16l8 29q2 6 3.5 11t4.5 18l9 33q3 10 3.5 12.5t1.5 4.5l1 1l1 -2v-3.5t2 -9.5q3 -19 5 -43q1 -4 1.5 -7.5t1 -10.5t1.5 -16q1 -13 2 -28q0 -7 1 -18t1 -16t1 -20
q2 -19 2 -42q1 -9 1.5 -16.5t0.5 -17.5t0.5 -15.5t1 -15t0.5 -13.5q1 -6 2 -25q0 -8 0.5 -8.5t1 -16.5t1 -18.5t1 -13.5t1 -11t0.5 -4.5t0.5 -10.5t0.5 -13q1 -18 2 -22v-7q2 -22 4 -26v-1l4 -2q4 -2 5 -2h1l2 -1q1 -2 2 -2t5 -3t5 -3t1 -0.5t2 -2t3 -1.5l4.5 -3t5.5 -3
t1 -0.5t0.5 -0.5t3.5 -2t5.5 -3t2.5 -2l8 -4l4 -2q2 -2 11 -6l5 -3v-1v-1h1q3 0 7 -4l1 -1h1l1 1l1 -2l1 -1h1h1l2 -2q1 -1 4 -2q9 -4 7 -8v-2l-3 -1l-2 -1l-1.5 -0.5t-2 0t-3.5 -0.5q-7 -1 -11 -2q-4 0 -4 -1l-1 -1l-1 1h-1v-1h-1h-1q-1 0 -2 -1q-3 -1 -8 -1q-9 -1 -10 -2
v-1l-1 1h-1l-2 -1q-1 0 -6.5 -1t-6 -1.5t-2.5 -0.5t-2 -0.5t-2.5 -0.5t-3.5 -1v-1h-3h-3q-1 -1 -4 -1.5t-4 -1t-3.5 -0.5t-7.5 -1.5t-7 -2.5h-3v-1q-1 -1 -2 -1t-2.5 -3t-1.5 -4q0 -8 -4 -15q-1 -2 -1 -5v-3l-1 -1l-1 -1h1h1v-1q0 -1 -1 -2l-2 -2l-1 -2v-4l-1 -4l-1 -1
l-1 -1v-2q-1 -2 -1.5 -5.5t-0.5 -4.5t-1 -2l-1 -1l1 -1v-1l-1 -1l-1 -2l1 -1l-1 -1l-1 -1v-2l1 -2h-1l-1 -1l-1 -3v-3h-1h-1l1 -1q0 -1 -1 -6.5t-1.5 -6t-2 -7t-1.5 -7t-1 -1.5l-1 -1l1 -1q1 0 1 -1v-2l-1 1l-1 -1l-1 -2v-1l1 -1h-1l-1 -3l-1 -3v-1l1 -1h-1v-2v-2v1h-1
l-1 -1v-2.5t-1 -4.5l-1 -3v1h-1v-2l1 -1l-1 -2l-2 -1h1l1 -1l-1 -1l-1 -1v-1l-1 -2l-1 -2v-4v-4h-1h-1v-2v-2h-1v-2v-2l-2 -1l-1 -1v-4v-4v1l-1 1v-3l-1 -2l1 -1v-1l-2 1h-1v-1q0 -1 1 -1t1 -1v-1l-1 1v-1v-2l-1 2l-1 1v-2v-2l1 1h2l-2 -2q-1 -2 -1.5 -2.5t-0.5 -1.5l-1 -1
l1 -1l1 -2l-1 1h-1l-1 -1h1l1 -1l-1 -3l-1 -2l-1 -1l-1 -1l1 -2v-2v-1l-1 1l-1 1l-1 -2l-2 -3h1v-1l1 1l1 1v-1v-1h-1h-1v-1l1 -1h-1l-1 1v-3v-3l-2 -3l-1 -4l1 -2l1 -2l-2 -1h-1v-2l1 -1l-1 -2v-1h-1l-1 1v-1v-1h1v-2v-2l-1 -2l-2 -3h1v-1l-1 -1l-2 -1l1 -1v-1l-1 -1v-3v-2
h-1h-1l1 -2l1 -2l-1 -1v-1v-1l1 -1l-2 2l-1 1l-1 -1v-2l1 -1l1 -1h-1q-1 -1 -1 -2v-1h-1l-1 -1l1 -1l2 -1l-2 -1h-2l1 -2v-2q-1 0 -1 1l-1 1v-2v-2h1l1 1l1 -2v-1l-1 1h-1v-1v-1h-1h-2l1 -2v-1q-1 0 -1 -1v-1l1 1h1l-1 -1l-1 -1v-1h1l-2 -3q-2 -3 -2 -4.5t-0.5 -1t-1.5 0.5
v-1l1 -1q1 -2 1 -4v-2h-1h-2l2 -1l1 -1v-1l-1 -1l-1 1h-1v-2v-2l1 -1l1 -1l-2 1h-2v-1l1 -1l-1 -1l-1 -1v-1h1l1 1l1 1l1 -1l-2 -2l-3 -2l1 -1v-2h-1v0.5t-1 0.5h-1v-3l1 -4l-1 -1h-1l-1 -3v-3t-1 -1v-3v-2l-1 -1h-1v-2v-2h1h1h-1l-3 -3l-2 -3l1 -1l1 -1l-1 -1l-1 -2h1l1 -1
h-3l-2 -1v-1q0 -3 -4 -3l-1 3v0v0zM334 -106q0 3 -7 2h-2v-1v-1h-1l-1 1v1v1h-3h-5v1v1q-1 0 -3 -1l-2 -2v1v1h-1v1v1l-1 -1h-1v1v0l-1 -1h-2h-2l-1 1l-1 1l-1 -1v-1l-1 1q-1 0 -3 0.5t-3 0.5h-2l-1 1v1v-1v-1h-2l-1 1v1v1h-1v1v1h-1l-1 -1v1v1h-3h-2v1q2 2 0 2h-2v-2v-1
q-1 0 -2 1l-1 1h1l1 1l-3 1q-3 2 -3.5 2.5l-1.5 1.5l-2 1v-1q0 -2 -3 1l-3 3l-1 -1v-1v2l1 1h-1l-1 -1l-1 1l-1 1l-1 -2l-1 -1l1 2v1h-1h-1v1l1 1h-2q-1 0 -2 1l-1 1v1v1l-2 1q-1 0 -3 1l-2 1v2q0 2 -1 3l-1 1h-1l-1 -1v1q0 1 1 1h1l-2 2q-2 2 -2 2.5t-2 3l-2 2.5l-1 2l-2 2
l-1 2v3h-1l-1 2v2h-1q-1 0 -0.5 1t-3.5 5l-1 1v1l1 1l-1 2l-2 2v-1v-1v1l-1 4v3l-1 1h-1l-1 3l-1.5 4.5t-0.5 2.5q0 5 -2 5l-0.5 2.5t-1.5 3.5l-1 1l1 -1h1v1q-1 1 -1.5 3t-1.5 4l-1 2h1h1l-1 2q-1 1 -1 2v1h1l1 -1l-1 1q0 1 1 5l1 7l1 5v2q1 7 3 9q1 1 1.5 2.5t1.5 3.5t1 3
t2 3t3 5q3 6 5 8q1 2 2.5 5.5t2 3.5t2 2.5t4.5 6.5l3 3l5 4q5 4 7 1q0 -1 1.5 -2.5t2.5 -3.5t8 -13q1 -1 1 -2v-1q1 0 1.5 -1.5t2 -3.5t0.5 -3h1h1v-1l-1 -1l2 -1q2 -1 2 -2q0 -3 4 -10q2 -2 2 -3v-1h1h1v-1q0 -1 1 -2l2 -1h-1q0 -1 0.5 -1.5t0.5 -1.5v-2h1q1 0 2 -2.5
t1.5 -2.5t0.5 -2v-1l1 -1q1 -1 2 -3l1 -2h1h1l1 -2q0 -2 1.5 -3.5t1.5 -2.5t6 -8q1 -1 2 -1h1v-1v-1h1v-1t2 -3t1.5 -2.5t2 -3l2.5 -2.5l6 -5v-2l1 1h1v-1v-1h1v-1v-1h-1l-1 1l1 -2v-1l-2 -4q-2 -4 -2.5 -4t-0.5 -1v-0.5t-1 -0.5q-1 -1 -1 -1.5t-2.5 -2.5t-2.5 -3t-1 -2
l-1 -1v-1l2 1q3 1 3 1.5t1 0.5t4 1.5t3 2t2.5 1.5t2.5 1.5t1 0.5t4 1l2 2v-1q1 -1 1.5 -1t3 -2.5l2.5 -2.5v-1h1l3 -3l3 -2v-2v-1l1 1l1 2v-2l-1 -1h1h2l1 -1q1 -1 1 -2q0 -2 4 -4q2 -2 4 -2v-1v-2h1h1v-1v-1h1l2 -1l-1 -1l1 -1h2v-2l1 -1h1q1 0 2 -0.5t2 -0.5h2l-1 -2v-3
l1 1h1l-1 -1v-2h1h1v-1v-1l2 -1l1 -1l1 1h1l-1 -1l-1 -1l1 -2l1 -1h-1l-2 1l1 -2q1 -1 1 -1.5t1 -0.5l-1 -3v-1l1 1h1l1 -1l1 -2l-3 -2q-2 -2 -3 -2t-3 -1l-3 -1v-1v-1l-2 1h-1v-1v-1h-1h-1l1 -1l1 -1h-2l-1 1v-1v1v2l-2 -2l-2 -1v1h-2h-1l1 -1l-3 -2q-2 -2 -3 -2v2v1h-1v-1
q0 -1 -1 -2l-1 -1l-1 1l-2 1l-1 -1q-2 -1 -2.5 -0.5t-4.5 -0.5l-3 -1v1q0 1 -1 0.5t-3 0.5h-1l-2 -1l-1 -2v1v0v0z" />
  </g>

</svg>
