<?xml version="1.0" standalone="no"?>
<!DOCTYPE svg PUBLIC "-//W3C//DTD SVG 1.1//EN" "http://www.w3.org/Graphics/SVG/1.1/DTD/svg11.dtd" >
<svg viewBox="-6 -447 2271 1000">
  <g transform="matrix(1 0 0 -1 0 800)">
   <path fill="currentColor"
d="M-6 874q444 0 1138.5 11.5t1138.5 11.5zM769.5 -444.5q-2.5 2.5 -5.5 3.5q-12 5 -14 7q-3 3 -14 4q-2 1 -4.5 2.5t-3.5 0.5t-1.5 1t-1.5 1.5t-3.5 1t-4 1t-1.5 0.5t-3 0l-1 1q2 1 1.5 2t-2.5 -0.5t-3 1.5l-1 3v-3l-1 -3l-2 3l-2 3q0 -1 -1.5 0.5t-2.5 0t-2 -1.5v1l-1 1
q-2 0 -3 1.5t-2 1.5v-2v-2q-1 0 -1 1t-3 2.5t-4 1.5t-1.5 0.5t-0.5 1.5q-2 3 -8 4h-1q-2 3 -1 4v2q-1 0 -2 -2l-1 -1q0 2 -3.5 2t-3 1.5t-4.5 2.5t-5 2t1.5 0.5t1.5 0.5l-3 1q-4 0 -4 2.5t-3 2.5q-3 -1 -4.5 -0.5t-0.5 1.5q0 2 -3.5 1.5t-3 1.5t-0.5 2q-6 0 -6 2t-1.5 2
t-1.5 1.5t-1 0.5t-6.5 3t-7 2.5t-3.5 1.5q-3 3 0 3q1 1 0 1h-2q-5 -1 -5.5 2t-2.5 2t-2 1q0 1 -10 2q-1 1 -1 2t1 1v1q-2 1 -3 0.5t-4 1t-3 1t-2.5 2.5t-3.5 2t-2.5 1t-5.5 2h-2q0 1 -1 2q-1 0 -2 1.5t-2 1t-4 2.5t-3.5 2t-0.5 0.5t-3 1.5t-5.5 2.5t-4.5 1.5h-1l-3 1
q-3 -1 -3 1t-2.5 1.5t-3 1t-1.5 0.5t-1 0.5t-4.5 1t-7 0.5t-4 -0.5t-6 -1.5t-6.5 -2v-1h1q-1 -1 -2.5 -0.5t-8 -2.5t-6.5 -4t-3 -1q-5 0 -3 -3q1 -2 0 -2t-1 1q-1 2 -8 -3l-3 -2v2q-1 0 -7 -4t-6 -5t-2 -1l-2 -1l-1.5 -2.5t-2.5 -1t-2 0t-3 -1.5t-2.5 -2t-2.5 -1.5t-1 -1.5
q0 -1 -0.5 -1.5t-1.5 -0.5t-3 -1.5t-6 -2.5t-4.5 -3t-3.5 -2t-4.5 -2.5t-4 -2.5t-2.5 -2t-2 -1t-2 -0.5t-1.5 -1.5t-1.5 -1t-3 -2t-3 -3t-2.5 -1.5t-2.5 -0.5t-1.5 -1t-5.5 -3.5t-6 -3.5t-3 -2t-2.5 -2t-1.5 -1t-3 -1.5t-7 -4t-5 -4t-3.5 -0.5t-4.5 -2q-1 -2 -7 -5t-8 -2
l-0.5 -0.5t-0.5 -1.5q1 -1 -0.5 -0.5t-1.5 -1t-5 -4t-9 -5t-4.5 -2t-2 -1.5t-3 -2t-1.5 -0.5t-4 -1t-4 -1.5q-2 -3 -9 2q-5 3 -10 8t-5 7t2.5 9t2.5 9.5t1.5 5t1 3.5t0.5 2.5t2 5.5t2 7t2 5l1 8q0 7 1.5 7t0.5 1.5t0 5t1 5.5v1.5t1 0.5t3 13q0 2 1 4q7 18 5 24q0 2 1.5 2
t1.5 2q-1 2 -0.5 4.5t1.5 4l1 1.5l1 1q-1 1 0.5 8t2.5 7t0 1t1 7q2 7 2 9q2 7 4 19q0 2 1.5 6.5t2.5 10t2 6t0 3t0.5 3t4 13t3 15.5t0.5 5.5t1 6.5t1.5 6.5t3.5 15.5t3.5 16.5t2.5 9.5t3 13t3 15q6 27 -3 33q-2 2 -2 3.5t-5 7t-5 6.5t-3 4t-3 4t-2.5 4t-2 4t-3.5 4.5t-6 8
t-4 5.5t-2 2.5t-1 1.5t-3.5 4.5t-4 4.5t-2.5 3.5t-4.5 6.5t-2.5 4t-1 3t-5 6t-5 6q-5 6 -9 12q-3 5 -6 8q-8 7 -8 9q0 1 -7 9q-3 3 -3 3.5t-5 6t-5.5 8t-3 4t-4.5 5t-3.5 4t-1.5 2t-3 5.5q-10 9 -11 14q-1 2 -4.5 4.5t-3.5 4t-4 5.5t-4 5t-2 3q-9 8 -16 19q-2 3 -5.5 6.5
t-2.5 3.5l-2 2q-2 2 -2 3.5t-2 0.5l-0.5 1l-0.5 1q0 3 -2 3.5t-2 2.5t-1 2q-2 0 -8 9q-1 2 -3 2.5t-1.5 2.5t-1.5 2t-3 3.5t-6 10t-5 8t-1.5 1.5t-1.5 1t-4 5.5t-4 6t-2 3.5q-5 5 -1 7q1 1 9 0.5t31 -1t37 -1.5q18 0 68 -2q21 -1 24 -1.5t3.5 1t1.5 0.5t50 -2l16 -1l8 4l4 2
l3 1.5l1 0.5q0 -1 2 0.5t8 4.5q14 7 17 9q2 2 2 1l1 0.5l3 1.5t5 2q16 9 38 20q7 3 10 5q8 8 11 8q1 0 4.5 3.5t4.5 3.5t9.5 5.5t9.5 6.5q0 1 3 2q8 5 9 6q3 3 4 1q1 0 4.5 3.5t6 4t2.5 1.5t2 1t2 1t5.5 4.5t5.5 4.5t1.5 1t15.5 9l26 17q8 5 11.5 8t9.5 6.5t11 7.5t6 4
t6.5 4t9.5 6q7 3 11 6q2 2 4 2t2 1q1 4 23 15q5 2 5 3t1 1t9 5t9 5t1 1t4 3t6.5 4t8.5 5q10 5 15 9q1 2 2 2t9.5 5t9.5 5t2 1q9 8 26 17q5 2 9.5 5t8.5 5t7.5 4t5.5 3t2 2t2 1t3 2t3 2t6 4l5 4q2 1 4.5 1.5t3.5 1.5t6 4t5.5 3t5.5 3.5t6 3.5t14 12q3 3 3.5 3t4.5 3
q7 7 13 11q5 3 10 8q2 2 4 2.5t2 2t1.5 1.5t7 4t6 4t4.5 3.5t12 8.5t9.5 6.5t2.5 1.5t3.5 2.5t4 2.5t1.5 1t1.5 1t8.5 5t8.5 6l10 6.5t9.5 5.5t1 1q1 1 40 28q20 14 20 15t1 1t6.5 3.5l9.5 6t11.5 8t10.5 7.5q3 1 3.5 1t-0.5 -2q0 -3 -0.5 -4l-8.5 -17l-9 -18
q-9 -16 -10 -18q0 -2 -4.5 -10t-4.5 -9q-1 -1 -1 -2.5t-3.5 -8.5t-3.5 -9t-1 -2t-2 -2l-3 -6l-7 -14.5l-6 -12.5t-2.5 -5.5t-5 -9.5t-3.5 -8t-1 -2t-1 -1t-3 -7.5t-3 -7t-3 -4.5t-3 -6t-2 -4.5t-1 -2.5v-1q-2 -2 -6 -10.5l-5 -10.5l-2.5 -5l-3 -6t-3.5 -7.5t-3 -4.5t-1 -1.5
t-6 -13t-6 -13t-1 -1.5t-0.5 -1.5t-0.5 -1.5t-1 -2t-14 -27l-3 -7q-3 -6 2 -7q3 0 3 -3.5t-1.5 -3.5t-1.5 -2t-12 -27t-12 -26.5t-1.5 -1.5t-1.5 -2t-2 -5t-3.5 -7t-6 -12t-4.5 -11t-1 -3t-3 -4.5t-2 -6.5t-2.5 -4t-3 -5t-2 -4.5t-1 -3.5t-1 -2t-1.5 -2q-2 -5 -10 -22
q-2 -4 -4 -6t-3 -6.5t-2.5 -6.5t-1 -2.5t-1 -2t-1.5 -3.5t-3 -6t-3 -5v-2t-2.5 -4t-1.5 -4q0 -1 -1 -1t-2 -3.5t-2 -3.5t-1 -2t-1 -2t-1 -3t-1 -3t-1 -1.5t-6 -13.5t-8 -17q-1 -2 -2 -3.5l-1 -1.5q-1 0 -3 -8q0 -1 -2 -3t-1.5 -3t-2 -3.5t-2.5 -4t-1.5 -4t0 -3t-1 -2.5
t-2.5 -4.5t-2 -4t-2 -2.5t-1.5 -4.5t-2.5 -4.5t-0.5 -1.5t-1 -2t-3 -6t-3.5 -8t-2 -5.5t-2 -3.5t-1.5 -2.5t-1 -3t-1.5 -3.5t-1 -2t-2.5 -3t-2 -5l-0.5 -2.5q2 0 1 -1q-5 -3 -8 -13q-2 -6 -3.5 -7.5t-1.5 -4t-1 -2.5t-3 -4.5t-2 -6t-1 -1.5t-2.5 -4t-10 -22t-8.5 -19
t-2 -2.5t-1 -2.5t-1 -3q-3 -3 -4 -7q0 -1 -1.5 -3t-0.5 -2.5t-1 -2.5t-2 -4t-1 -2t-2.5 -5t-3 -6.5t-2.5 -4t-2 -2.5t-0.5 -2t-0.5 -3t-7 -16q-1 -3 -3 -6t-2 -6.5t-2 -5.5t-3 -5q-1 -8 -3 -8q-1 0 -0.5 -1.5t-2 -4.5t-1 -3.5t-0.5 -3.5q-1 -4 -1 -10t1.5 -6.5t0.5 -1.5
t1 -8t2 -9.5t1 -4.5t2 -7q7 -31 10 -33q1 -1 1 -3q1 -9 3 -10q0 -1 1 -6t3 -10t3 -10t2 -5t1.5 -3t3 -10t2.5 -8t2 -7q1 -2 1 -3t1 -3q4 -7 3 -13q0 -1 1.5 -1t1 -2t1 -4t1.5 -6q3 -10 11 -33q3 -10 2 -11q0 -2 1 -2q3 0 4 -9q0 -2 2 -5.5t2 -5t1 -4l3 -7.5q3 -11 5 -11h0.5
t-0.5 0q-1 -2 1 -4.5t2 -3.5q0 -9 3 -10q0 -3 -2 -7q-2 1 -3 -0.5t-3.5 1zM501.5 -64.5q8.5 0.5 10 1t2.5 1.5q5 0 17 5t13 8q1 1 2.5 1t12.5 8t12 8t2.5 2t2.5 2t3 2t4 3q8 6 9 13q0 3 1 5t1 6t1 7t1 14t-1 11.5t0 4.5t-1 5t-2 4.5t-2 4.5t-2 2t-0.5 1h-0.5q-2 0 -1 3v2h-1
q-2 -1 -2 1t-1.5 1.5t-2.5 0.5q-1 2 -10 7t-10 4q-2 0 -3 1t-2 0.5t-2.5 1.5t-6.5 2t-6.5 1t-3.5 0t-2 0.5t-2.5 1t-3.5 0.5l-2 1q0 -1 -4 1t-8 2q-9 1 -13 3.5t-3 6.5q2 4 12 15q3 3 4.5 6t4.5 6q12 13 12 14l3 3.5l8 9.5l14 15q3 4 3 5t4 5t4 5t2.5 1.5t2.5 2.5q0 1 6 6.5
t7 5.5t1 2q0 1 6 5.5t7 4.5t1 1.5t2 1.5t2 1t1.5 1t2.5 1.5t4 3.5q7 2 21 14q3 2 3 4l2 1l2.5 2t0.5 4t-3 1l-1 -1q0 2 -5 0t-7 -3.5t-6.5 -3.5t-5 -3t-2 -1t-1.5 -1.5t-3 -2.5t-4 -2.5t-2.5 -1.5t-4 -2.5t-4 -2.5t-1 -1.5t-1 -1.5t-3 -1.5t-3 -1t-1.5 -0.5t-2 -1t-2 -2
l-1 -1l-6 -4.5t-9.5 -5t-3.5 -1.5t-7 -5l-11 -6q-4 -2 -5 -3.5t-2.5 -0.5t-3 -1.5t-3.5 -2.5q-3 0 -8 -5q-2 -1 -5 -3q-2 0 -2.5 -1t-0.5 -1.5t-0.5 -1t-2.5 -0.5q-3 -1 -3 -2.5t-2 -3.5t-4 -5.5t-3 -3.5t-4.5 -3.5t-3.5 -4.5t-4 -5t-4 -4.5t-5 -6.5t-6 -8t-4 -4.5t-3 -3.5
t-3 -4t-3 -5t-1 -2.5t-1 -3t-1 -2.5t-1 -2t-2 -2t-1 -1.5t-1 -1.5q-1 0 -3 -3.5t-2 -5.5t-5 -12q-1 -3 -2.5 -9t-3.5 -9.5t-2 -5.5t-2 -7q-4 -12 -4 -34q0 -15 2 -21t3 -6t1 -2q0 -3 7 -10q2 -2 2 -3t4.5 -6t4 -5t0.5 -2.5t3 -2.5t2 -1.5t1.5 -0.5t2.5 -0.5t2 -0.5t3.5 -0.5
t14.5 -3.5t14.5 -2t11 0.5z" />
  </g>

</svg>
