<?xml version="1.0" standalone="no"?>
<!DOCTYPE svg PUBLIC "-//W3C//DTD SVG 1.1//EN" "http://www.w3.org/Graphics/SVG/1.1/DTD/svg11.dtd" >
<svg viewBox="0 -200 1000 1000">
  <g transform="matrix(1 0 0 -1 0 800)">
   <path fill="currentColor"
d="M384 288q-16 2 -30 7q-10 3 -11 5q-15 9 -27 28q-2 4 -3.5 4.5t-5.5 -3.5q-18 -15 -38 -25q-7 -4 -31 -8q-10 -1 -21 0q-15 1 -31 5q-29 8 -43 24q-25 28 -25 69v12l3 7q8 19 19 37q5 8 20 28q12 15 24 23q27 19 61 35q13 6 14 5q5 -2 42 -7q27 -4 39 -4q3 0 13 13
q14 16 27.5 34.5t12.5 20.5q-1 3 -13 8l-14 3.5t-23 2.5h-14l-11 -4q-28 -9 -43 -21q-8 -7 -10.5 -11t-10.5 -24q-3 -6 -4 -4t-11 3q-26 3 -42 6q-17 3 -39 12t-27 14q-4 4 -13 26l-3 7v12q0 13 2 17q3 13 9 20q7 8 24 15q8 3 18 3q20 0 46 -8q14 -4 13 -3q0 1 -3 6
q-5 10 -6 24q-1 23 7 41q3 5 11 13q12 12 36 18q8 2 20.5 2t21.5 -3q18 -5 34 -19q10 -9 15 -25q4 -12 4 -18q0 -1 12 5q19 8 39 13q25 5 42 -3q12 -6 18 -14q6 -7 11 -17q3 -5 4 -13t-1 -12q-4 -10 -15 -25q-20 -27 -25 -33l-5 -6h2q3 -1 8 -0.5t33.5 -1.5t43 -2.5
t21.5 -1.5q23 -3 65 -25l35 -18t4 -7q0 -2 -25 -14l-17 -9q-12 -7 -42 -18l-22 -9l-21 2l-42 2q-17 1 -49 1t-41 -1q-6 0 -7 -0.5t0 -1.5q0 -3 15 -15q27 -22 41 -37q17 -17 23.5 -27.5t11.5 -30.5q5 -17 5 -35q0 -15 -7 -30q-3 -6 -6.5 -8t-8.5 -6q-18 -16 -37 -21
q-20 -4 -34 -4h-12z" />
  </g>

</svg>
