<?xml version="1.0" standalone="no"?>
<!DOCTYPE svg PUBLIC "-//W3C//DTD SVG 1.1//EN" "http://www.w3.org/Graphics/SVG/1.1/DTD/svg11.dtd" >
<svg viewBox="0 -200 1000 1000">
  <g transform="matrix(1 0 0 -1 0 800)">
   <path fill="currentColor"
d="M443 43q-3 1 -4 1q-3 2 -14 3q-6 0 -14 3q-16 5 -43 12q-2 1 -5 2l-15 6q-12 5 -17 8.5t-7 4.5l-21 13l-20 14q-11 9 -19 17q-6 7 -14 19l-8 12q-8 12 -10 16l-4 6q-7 11 -13 26q-2 5 -2.5 6.5t-3 8t-3.5 7.5l-5 15.5t-5 24.5q0 5 -0.5 5.5t-1.5 13t-1 26.5q0 19 1 38
q1 7 3 12q0 3 1 6l8 24.5t9 25.5q3 5 3 5.5t5.5 11.5t6.5 12q2 3 3 5q10 18 32 42q18 19 36 32l5 4q21 16 29 18q1 0 7.5 3.5t7.5 3.5t11 4q12 5 21 6q10 2 17 3q12 3 48 3q41 0 69 -7q32 -8 46 -14q18 -8 26 -12q14 -8 22 -13q3 -2 7 -4q6 -4 15 -12q23 -19 36 -34
q10 -12 19 -26q3 -5 4 -6t5 -9t4 -8.5t3 -5.5q13 -27 21 -59q3 -11 5 -25q3 -22 3 -43q1 -28 -1 -38q-1 -5 -1.5 -11.5t-1 -7t-2.5 -6.5q-2 -10 -3 -14l-2 -6q-2 -4 -6 -15q-3 -10 -11 -23l-8 -13q-3 -4 -4 -5t-2 -4l-14 -17q-17 -20 -28 -27q-1 -1 -5 -4.5t-6 -4.5t-5 -3.5
t-4 -3t-2 -1.5t-1.5 -1t-3.5 -2t-5 -2q-5 -2 -29 -14q-8 -4 -30 -10q-5 -2 -11 -3q-8 -3 -34 -9q-16 -4 -38.5 -5.5t-30.5 -0.5zM405 81q-1 2 -10 12q-6 6 -11 13q-6 10 -11 20q-1 3 -2 3.5t-1 2t-1 3t-1 2.5t-4 10q-6 15 -7 24q-1 6 -2 18l-1.5 6t-0.5 5q1 30 3 38t9 26
l4 12q14 39 38 62q22 21 31 27q1 1 8 6l21 16l28 19q13 10 24 17q12 8 13 8l8 3l11 5l3 2q0 2 -22 3l-20 1h-21.5t-14.5 1h-26.5h-37.5q-17 -1 -23 -1q-7 -1 -16 -1q-14 -1 -25 -3q-3 0 -9.5 -1t-11.5 -1l-7 -2q-4 0 -9 -2q-6 -1 -10 -2l-6 -2t-8 -2t-9 -2q-17 -7 -21 -12
t-4 -7q0 -1 -1.5 -2t-2.5 -3l-2 -4q-5 -6 -9 -21q-3 -11 -9 -27q-2 -6 -2 -15q-1 -15 0 -35q1 -5 1 -11q0 -15 2 -21v-3.5t1.5 -6.5t2.5 -8q0 -4 4 -15q1 -2 3 -8.5t3 -8t1 -2.5q0 -2 9 -18q8 -15 18 -28q3 -4 7 -10t9 -12t14 -14q26 -22 51 -34l8 -4q34 -18 44 -16z
M489 101.5q1 0.5 2 0.5t2 0.5t2.5 -0.5t7 -1t9 1t6.5 2q8 2 19 7q4 1 7 2t13 5q19 9 32 18q16 11 29 21q8 8 14 15l7 7q4 4 9 12q2 3 4 8t3.5 7.5t2.5 5.5q1 4 9 25q5 16 7 28q2 9 2 12q1 4 1 8l1 9q1 9 0 18l-2 9q0 5 -0.5 8.5t-1.5 6.5q-2 19 -4 25q-1 2 -3 5t-9 19
q-4 8 -10 18q-2 1 -2 2q-4 6 -14 19q-7 9 -12 11q-2 1 -3 2q-1 2 -7 0q-2 -1 -3 -1l-12 -6l-10 -4q-12 -6 -16 -9l-6 -3q-26 -16 -36 -26q-6 -5 -9 -8q-14 -12 -31 -33q-13 -15 -15 -17l-2 -4q-7 -10 -8 -11t-3 -4q-6 -8 -8 -19q-1 -2 -2 -3q-3 -7 -6 -23q-1 -3 -1.5 -4
t-1 -4.5t-2.5 -7.5l-1 -5v-23q-1 -27 2 -37q2 -6 4 -11q4 -16 8 -21.5t5 -8.5q0 -2 2 -5.5t3 -4.5q4 -8 18 -25q8 -8 9 -8zM589 472q0 2 1 4v2l-5 5q-9 9 -16 14q-3 1 -3.5 2t-1 1t-1.5 1q-8 5 -14 8q-15 9 -40 16q-23 7 -54 4q-14 -1 -24 -2q-3 -1 -10 -2q-24 -3 -31 -5
q-10 -4 -12 -5l-4 -2l-8 -2l-6 -3q-3 -1 -4 -1.5t-1.5 -0.5t-2 -0.5t-6 -2.5t-6.5 -3l-5 -3q-4 -1 -4.5 -1.5t-3.5 -2t-3.5 -4l-0.5 -2.5q2 -2 63 -5q9 -1 16 -1q9 -1 43 -2q33 -1 53 -3q30 -1 32 -2q1 0 9.5 -0.5t15 -1.5t12.5 -1q6 -1 10 -1h7h4z" />
  </g>

</svg>
