<?xml version="1.0" standalone="no"?>
<!DOCTYPE svg PUBLIC "-//W3C//DTD SVG 1.1//EN" "http://www.w3.org/Graphics/SVG/1.1/DTD/svg11.dtd" >
<svg viewBox="0 -200 1000 1000">
  <g transform="matrix(1 0 0 -1 0 800)">
   <path fill="currentColor"
d="M174 114q-37 7 -49 30q-32 45 2 128q12 31 39 76q18 -20 55 -83q35 -70 13 -121q-19 -28 -60 -30zM158 382zM158 383q-7 5 -12 17q-2 1 -5 5.5t-4 5.5q0 3 -4 7.5t-4 5.5q0 2 -3 5.5t-3 6.5q-4 4 -8 12q-1 4 -5.5 11t-6.5 12q-2 3 -5 10t-5 10l-18 43q-11 29 -22 83
q-1 8 -5.5 24.5t-5.5 25.5q-19 86 14 137q23 34 56.5 56.5t72.5 26.5q34 4 66 -7.5t53 -36.5q28 -39 29 -113q5 -19 -9 -54q-16 -49 -27 -70l-12 -21.5l-12 -21.5q-3 -6 -9 -17t-8 -16q-1 -3 -5.5 -10.5t-5.5 -11.5q-8 -10 -14 -23q-2 -3 -5.5 -9t-5.5 -8q-2 -5 -5 -9t-5 -7
q-2 -4 -6 -10t-6 -10q-3 -3 -7 -10.5t-7 -10.5q-1 -2 -4 -6t-4 -7q-2 -1 -3.5 -3t-4.5 -3q-1 -5 -7 -8q-2 1 -3 -1zM116 450zM230 486zM252 523zM309 666zM312 674zM316 688zM326 719zM326 721zM180 403zM136 411zM136 411z" />
  </g>

</svg>
