<?xml version="1.0" standalone="no"?>
<!DOCTYPE svg PUBLIC "-//W3C//DTD SVG 1.1//EN" "http://www.w3.org/Graphics/SVG/1.1/DTD/svg11.dtd" >
<svg viewBox="0 -200 1000 1000">
  <g transform="matrix(1 0 0 -1 0 800)">
   <path fill="currentColor"
d="M531.5 -167l-1.5 2l-0.5 1t-2 3t-2.5 3l-1 1q0 1 -1 5l-2 2t-2 3.5t-2 3.5t-1 1.5t-1.5 3t-1.5 3t-1 2.5q-4 10 -4 11.5t-2 4.5q-1 2 -3 11v2l-1 1q-1 1 -1 2t-1.5 5.5t-2 7t-1.5 4.5t-1 6q-2 9 -2 13q-2 6 -2 15q0 2 -0.5 7.5t-0.5 6.5v9l1.5 12t0.5 6.5t1 6.5l1 3h-1v2
l1 1l1 3v5.5t1 3.5v6v1h-1l-1 1v1v1l-1 1l-1 1v-1l-1 -1h-1l-5 -4l-8 -7q-6 -5 -9 -8q-2 -1 -3 -2t-3.5 -2.5t-4.5 -2.5l-5 -4l-2 -1l-3 -2t-3.5 -2t-3.5 -2t-3.5 -2t-1.5 -1t-3 -2l-9 -5q-3 -1 -6 -2.5t-6 -3.5q-8 -5 -24 -13q-14 -7 -20 -9l-7 -3l-7 -3l-6 -3l-2.5 -1
t-3.5 -1q-1 -1 -5 -2.5t-4.5 -2t-1 -0.5t-2 -0.5t-4 -1.5t-3 -1.5t-2.5 -1.5l-2 -1q-3 -2 -9 -4q-3 -1 -3.5 -1.5t-1.5 -0.5t-2.5 -1t-6.5 -3l-5 -2h-2q-2 -1 -5 -1h-3.5t-1.5 1h-2l-1 -1h-1l-1 1l-2 -1q-4 0 -13 -1h-18h-15l-1 1l-1 1l-1 1h-1q-1 0 -3 1q-5 1 -11 1
q-2 0 -4 1q-4 1 -11 1q-2 1 -7 2l-8 1q-3 0 -4.5 0.5l-4.5 1.5q-5 1 -5.5 1.5t-1.5 1t-2 0.5v1h-2h-1l-1 1h-1h-1v1l-1 1h-1v1h-3l-5 2l-3 1h-0.5t-1.5 0.5t-4.5 1.5t-4.5 1l-9 4q-5 1 -6 2t-2 1t-1.5 0.5t-1 0.5t-2.5 1l-8 3q-1 0 -1.5 0.5t-1 0.5t-2.5 1l-5 2q-6 2 -9 4
q-6 4 -20 10q-19 8 -20 10q-5 4 -9 4l-5 3l-5 3l-2 2q-1 1 -2 3l-1 1h1l1.5 -0.5t2.5 -0.5q5 0 13 -4l2 -0.5t4 -1.5t2.5 -1t1.5 -0.5t3 -1t4 -1.5q3 -2 11 -4q3 -1 4 -1q5 -2 8 -3q2 0 2.5 -0.5t1.5 -0.5h1v-1h1.5t2 -0.5t10 -3t9 -3t2 -0.5t2.5 -1t5 -1q1 0 2 -0.5t2 -0.5
t2.5 -0.5t2 -0.5h1.5l1 -1h1l7 -1h8h1.5h2.5h2v1l1 1q-1 0 -1.5 0.5t-1.5 0.5l-1 1l-2 2h-1l-1 1v1h-1l-1 1h-1l-3 3q-5 5 -8 7q-1 1 -5 4l-3 2v1q2 0 4 -1q1 0 2 -1l8 -4q12 -7 14 -7l2.5 -1.5t5 -2.5t3 -1.5t11.5 -3.5q2 0 5.5 -1.5l6 -2.5t9.5 -3l8 -2q8 -3 18 -4l4 -1
h11h11h2q3 1 6 1l4 1h4l2 1q1 0 4 0.5t10 2.5q18 3 32 7q5 1 12 2q16 3 20 5q1 0 2 0.5l2 1t2 0.5l14 6q0 1 1.5 2.5t2 1.5t0.5 0.5t0.5 0.5t2.5 1l4 2q1 0 2.5 1t3 1.5t2 1l0.5 0.5h1l1 1q1 1 2.5 2l1.5 1h1t6 5q1 1 2.5 1.5t3.5 1.5q5 4 6 4q1 1 2 1q5 4 10 6q2 1 3.5 2.5
t2.5 1.5q3 2 3 3h0.5t1 1t3.5 4q4 5 5 7l1 1v2v2l3 4q2 5 3 6t1.5 2.5l0.5 1.5q2 2 3 6v2h-1l-2 2l-1 1l-3 -1h-2q-1 -1 -19 -4l-10 -2l-7 -1l-10 -2q-4 0 -10 -1h-7h-10q-13 1 -13 2t3 1q1 0 2.5 1t3.5 1.5t2.5 0.5t2 0.5t2 0.5t3.5 1t3.5 1.5t3.5 1.5l7 3h1t2.5 1.5t2 1.5
t1 0.5t1.5 0.5t1.5 0.5l1.5 1.5l2 1v0h1q1 1 2 1.5l1 0.5l1.5 1t2 1t1 1t1 1h0.5l3 2l4 3q2 1 4 3q2 1 3.5 2t1.5 1.5v0.5q1 0 9 7q2 2 2.5 2t4 3t4.5 3q5 4 6 6l1 1v3q0 3 -1 6q-2 11 -2 14q0 2 -0.5 5t-0.5 11q-1 11 -2 13v1v8v21v12v3q1 2 1 5.5t1 10t1.5 7.5t0.5 3l1 2
h-1q-1 3 -3 3t-5 2l-2 2l-1 1h-3h-3h-1h-1l-2 1l-2 2h-1l-4 1t-9.5 2t-5.5 1.5t-2 0.5t-4 1q-4 1 -6 1q-4 1 -7 2q-2 0 -13 1h-5q1 1 6 2t7 1q2 1 6 2h4q5 1 9 2h4q4 1 16 2q8 0 8.5 0.5t6.5 0.5h6v1h1l-1 2l-1 2l-2 2q-2 2 -4 3q-4 3 -11 11q-8 7 -16 13l-4 3q-2 2 -4 3.5
l-4.5 3.5t-3 2t-2 1.5l-2.5 2.5l-5 4l-4 2h-0.5t-2.5 2l-2 1l-3 1q-2 1 -3 1h-1l-1 1v1l-3 1q-5 3 -10 4q-7 2 -19 6q-11 3 -14 4h-2q-10 4 -36 8q-11 2 -14 2q-4 0 -10 1t-24 3h-7h-6q-7 0 -7 -1h-9q-2 0 -2 -0.5t-1 -0.5q-7 0 -8 -1t-8 -1h-1v-1v1h-1h-3q-3 -1 -5.5 -1.5
t-6 -1t-5 -1t-5.5 -0.5l-4 -1l-1 1l1 1q1 0 2.5 1t3.5 2t2.5 1.5t2 1t2.5 1.5t2 1t2 1t4 2t3.5 2t1 1t2 0.5t2 0.5t2.5 1t2.5 1t2.5 1l2 1v1q0 1 -1 2v2h-2q-1 0 -2.5 0.5t-6 1t-10 0.5t-8.5 1h-4h-5h-9q-8 -1 -14 -1h-6.5t-9.5 -1h-5l-3 -1q-3 0 -4.5 -0.5t-3 -0.5
t-5.5 -0.5t-7 -1.5q-10 -2 -18 -3q-4 0 -5.5 -1t-3.5 -1t-3 -1q-4 -1 -9 -1h-2v0l3 2q2 1 2 1.5t0.5 0.5t2.5 1t4 1.5t6.5 3t5 2.5t3.5 1t8 3l6 2q1 0 1 1q3 0 8 2q2 1 5 1.5t4 1t7 2.5l5 1h3q3 0 6 0.5t5 1t2.5 0.5t4.5 1l4 1q4 0 14 2q11 1 25 0h9q9 -1 14 -1q2 -1 4 -1
q10 -1 12 -1h3q7 -1 8 -2h1l4 -1q2 0 3.5 -0.5t4 -0.5t3.5 -0.5t1.5 -0.5h2.5t2 -0.5t3 -0.5l2 -1v0h1q1 1 10 -3h0.5t2.5 -0.5t2.5 -1t1.5 -0.5h1v-1l1 1h1q0 -1 2 -1t2.5 -0.5t1.5 -0.5q5 -1 5 -2h1t2 -0.5t2 -0.5h1v-1h0.5t3.5 -1t3.5 -1.5t1.5 -0.5t2.5 -0.5l1.5 -0.5
l6 -3h1.5t1.5 -0.5t3.5 -2t3.5 -1.5q5 -3 6 -4q1 0 2.5 -0.5t2.5 -1l1 -0.5l2 -1l3 -1.5l1 -0.5q1 -1 4 -2h2l1 1v1v1l-3 2q-2 3 -3 3.5t-3 2.5q-4 4 -8 7q-2 1 -2.5 2t-2.5 2t-3 2t-6 4q-7 4 -11 8q-2 2 -7 4q-4 2 -9 5q-6 4 -11 7l-14 6l-16 9q-6 2 -7 3v1v-1h-1v1h4l2 1
h1v0l1 1l1 -1l2 -1h2h5q3 -1 8 -1q3 0 4.5 -0.5t3.5 -0.5t6 -1q9 -2 10 -2q1 -1 2 -1t1.5 -0.5t2.5 -0.5h2v-1h1q6 -1 14 -6q5 -2 5.5 -2t2.5 -1.5t3 -1.5h1l2 -1t2 -1.5t1.5 -1t1.5 -1.5q1 0 2 -1l1.5 -1.5l0.5 -0.5l2 -1q6 -3 6 -4h0.5t1.5 -1q2 -1 4 -3q6 -4 6 -5l3 -3
t4 -4.5t4 -5t4.5 -6t2.5 -3.5t1 -1.5t1 -1.5l1 -1l1 -1v-2h1v0q0 -1 1.5 -3t3 -4.5t2 -3t0.5 -1t1 -1.5t2 -3t2 -2q0 -1 2 -4t3 -3t1.5 -1t3 -2t2.5 -1.5t1 -0.5q2 0 9 -5q1 -1 2 -1q0 1 2 -1q1 -1 2.5 -2l1.5 -1l1.5 -0.5t1.5 -1t1.5 -1t1.5 -1t1 -0.5t2 -1l1 -1h1v-1l2 -1
q2 -1 5 -3l3 -2l4 -2.5t5 -3.5q8 -3 15 -9q0 -1 0.5 -1t2 -1.5t2.5 -1.5v0l1 -1v0l1 -1q1 -1 1.5 -1t2 -1.5t3.5 -2.5h1h1q1 1 2 1h2l1 1q5 7 6 9q0 1 1 3q2 3 3 6l1 2q1 2 1 2.5t1 0.5v1l1 2.5t1.5 5t2.5 9t2 9.5l1 2v11q0 11 -1 15v9q0 4 -0.5 10t-0.5 9v9q-1 9 -1 10
l-1 6v5v14v13l1 2v3v2l1 1q0 1 1 4v3v2v1v3q1 3 1 6q1 7 2 12q1 4 1 5q1 6 2 9q1 2 6 -3l2 -2q1 0 4 -3l4 -2q1 -1 3 -2l1 -1q0 -1 3.5 -3t5.5 -3q8 -6 8.5 -6t0.5 -0.5t1 -1l1 -0.5v-1h1h0.5t2 -1.5t3 -2t2.5 -2t1.5 -1.5h0.5l1 -1q2 -1 8 -7l4 -4q1 -1 2 -3v-1l1 -1
q1 0 1 -1l4 -4t3.5 -4.5t1 -1.5l1.5 -1l1 -2q2 -2 3 -4t1.5 -2.5t0.5 -2t1 -3.5t2 -5t1.5 -3.5t0.5 -2t1 -2.5t1 -2q0 -3 2 -9q0 -1 0.5 -2t0.5 -2t0.5 -3.5t1 -7.5t1 -7.5t1.5 -4.5q0 -10 1 -11l1 -4v-9v-2h1q0 -1 1 -2v-1v-5q0 -6 -1 -9q-1 -8 -1 -12v-3h1v-1.5t0.5 -1.5
t1 -2.5t1 -2.5t0.5 -1t1 -3l1 -2l1 -1q2 -2 2.5 -2t0.5 -0.5t2 -1.5l3 -2q3 -1 3.5 -1t0.5 -0.5t9 -3.5l5 -2q10 -4 11 -4l1 -0.5t9 -3.5q3 -1 4 -1q3 -2 17 -6q5 -1 6 -1h1q3 -1 8 -2q4 -1 4.5 -1t1 -0.5t4 -1t5 -1t4 -1t4 -1t6.5 -1.5q6 -1 10 -2q2 -1 6.5 -1.5t8 -1t8 -1
t5.5 -1.5q4 0 16 -2l10 -1q6 0 8.5 -0.5t5 -0.5t5.5 -0.5t4.5 -0.5t6.5 -0.5t8 -1.5q8 -1 14 -2q13 0 14 -1l3.5 -0.5t5 -1t3.5 -1.5l6 -1q4 -1 6.5 -1.5t5.5 -1.5l8 -2q12 -4 13 -4l1 -1v1h1q1 -1 5 -1.5t7 -1.5t6 -1.5l6 -1t5 -0.5l12 -3q0 -1 3 -1q2 -1 3.5 -1.5
t2.5 -0.5l1 -1l1 -1v-7v-7h-1h1v-5v-8t-0.5 -10t-0.5 -7.5t-0.5 -6t-0.5 -7.5v-2l-1 -1v-1l-1 -3q0 -2 -0.5 -5t-1 -6.5t-0.5 -4.5t-1 -8t-1 -10l-1 -2v0v-1l-1 -5q0 -6 -0.5 -8t-0.5 -3q-1 -2 -1 -5v-5q-1 -2 -2 -20q0 -5 -0.5 -5.5t-1 -4.5t-1 -7.5l-0.5 -3.5
q-2 -10 -3 -11v-1.5t-1 -2.5l-2 -4l-0.5 -1.5t-1 -2.5t-1.5 -2.5t-1 -5.5l-1 -3l-1 1v-2q0 -1 -1.5 -4.5t-1.5 -4.5t-0.5 -2t-0.5 -1.5t-1 -2t-2 -5t-1.5 -4.5l-1.5 -3l-1 -4v-3l-1 -2v0q0 -1 -1 -4l-2 -6t-1.5 -3t-0.5 -2t-0.5 -3t-0.5 -1.5t-1 -2.5q-1 -3 -1.5 -5.5
t-1.5 -4.5q-1 -1 -1.5 -2.5t-2 -2.5l-1.5 -1q0 -1 -3 -5l-1 -1q0 -3 -8 -11q-1 -1 -3 -4l-12 -14l-3 -3q-1 -2 -6 1l-12 8l-19 13l-5 5q-4 2 -4 2.5t-1.5 1.5t-2 1.5t-2.5 1.5l-14 10q-4 4 -5 4h-1l-1 2q-3 5 -10 10q-10 8 -19 14q-3 2 -5.5 4t-4.5 3l-8 5q-12 9 -14 9
l-0.5 0.5t-7.5 4.5q-11 6 -15 8q-20 9 -38 19l-2 1h-1h-2v1h-1h-1q-12 2 -28 3q-8 1 -15 2h-6h-4l-2 -1q-3 0 -8 -1l-5 -1h-2l-2 -1h-2q-2 -1 -3 -2l-2 -1l-1 -3v-3v-4q-1 -5 -0.5 -12.5t1.5 -13.5q0 -12 1 -24q0 -3 1 -11v-7v-5v-2q-1 -2 -1 -4v-3v-1l-1 -2l1 -2v-3v-2
q0 -3 -1.5 -5.5t-2.5 -6t-1.5 -4.5l-2.5 -5l-3 -6t-1 -2.5v-1.5l-1 -1h-1l-1 -2q0 -1 -0.5 -1t-1 -1l-1.5 -3l-2 -4q-4 -8 -6 -10l-1.5 -2.5t-2 -2.5t-0.5 -0.5t-2 -3.5l-2 -3l-8 -8.5t-11 -10.5l-2 -2l-1 -2v-1h-1h-1v1l-1 -2q-5 -4 -6 -4zM545 -128h5h1l2 3q1 4 2 6t2 3
q1 2 4 10l3 6l1 2v2q2 4 3 10q0 1 1 2q3 7 2 9l1 1l1 3v7v4v3q0 3 -1 9t-1 9q-1 7 -2 11q0 1 -0.5 3.5t-1 3.5t-0.5 3t-1 4l-3 6l-1 4l-1 1l-1 2v1v1l-1 1l-1 1v1q0 1 -1.5 4t-1.5 3.5t-1 2l-3 4.5q-2 5 -3 5t-2 1h-1v3v2h-1v1h-1h-1v-1q-1 -1 -1 -1.5t-1.5 -2.5t-1.5 -2.5
t-1 -1.5h-1l-1 -3q-1 -2 -2 -6l-2 -11q-3 -13 -4 -14q0 -1 -0.5 -4t-0.5 -5l-1 -1v-9v-9.5v-14.5v-14v-3q1 -3 1 -7v-4l1 -1v-1l0.5 -1t0.5 -2v-2v-1v-2h1l0.5 -2t1 -3.5t0.5 -3.5t1 -3.5t1 -2.5q1 0 2 -6q0 -5 1 -6h1h-1v-1h1v-1v0q1 0 1 -1l1 -2l2 -1h-1v-1l1 1h1v-1h1h1
h1zM557.5 60q0.5 0 -0.5 8l-1 7v6v5l1 2q0 1 0.5 1t0.5 1l1 1q1 0 2 1l2 2l2 2l1 -1h2l1 -1q2 -1 4 -3t2.5 -2t1 -1t1 -1t2 -1.5t1.5 -2t1 -2t1 -2t0.5 -0.5t2 -3t1.5 -4q0 -3 2 -5l1 -1h2h2l3 2q13 7 14 17q1 4 1.5 5.5t0.5 5.5l1 4v1v2h-1h-1v1q0 2 -0.5 3t-2.5 3l-1 2v2
v1q-1 1 -2 1v0v1l1 1l1 1v1h-1l-2 2q-1 1 -10.5 5.5t-10 4.5t-3.5 1.5t-7 2.5t-5 1l-1 1h-9h-8h-2l-2 -1l-2 -1q-2 -1 -4 -3l-2 -2l-4 -8q-4 -9 -5 -11.5t-2 -3.5v-1v-2v-3l1 -1v-3l-1 -3l1 -3l1 -4l1 -3q2 -4 4 -6l1 -2l2 -2l3 -4l2 -3l3 -2l3 -2v-1q0 -1 1 -1v-1l3 -1h3
h1.5zM680 129q4 2 5 3q0 1 2 2q4 3 8 7l4 4l2 3l3 4q1 0 2 4q2 2 3 4l2 2v3v2l-2 1l-1 1h-3q-3 1 -4 1q-7 1 -8 1l-5 1l-6 1l-6 1q-9 1 -15 1q-1 0 -2 -2l-2 -2l-1 -2q0 -1 -1 -3v-2h-1l-1 -1l-1 1l-2 1l-4 5l-6 6q-1 2 -7 8l-3 3v1v1l1 1l2 1q2 0 7 4l5 3q6 5 7 5t1 -6
q0 -4 1 -6v-2h1l1 -1l1 1h1v-1h6h8q5 -1 15.5 -0.5t12.5 0.5q2 1 4 1h3l2 1h1.5t1.5 1l-1 1q-1 1 -5 3t-5 3q-5 3 -9 4q-3 0 -4 1t-4 2l-3 1q-3 1 -10 4t-8 3h-1v0h-1q-1 0 -4 1l-4 1h-10q-15 -1 -20 -3q-6 -2 -14 -7l-8 -3l-1 -2q0 -3 -3 -3q-4 -1 -6 -2q-1 -1 -4 -3
q-10 -5 -12 -9l-1.5 -1t-2.5 -2v-1v-1q1 -2 1.5 -2t1.5 -1t2.5 -2l1.5 -1l3 -2t5 -3.5t3 -1.5q0 -1 1 -1t1 -1l4 -1q2 -2 2.5 -2t1 -0.5t2 -1t2.5 -1l4 -2t7.5 -3.5l4.5 -2l2 -1t3 -1l5 -2l6 -2q3 -1 8.5 -4t8 -4t6.5 -3t4.5 -2h1t4.5 -1q6 -1 8 -1h3h1zM581 216l3 1l3 3
l6.5 5t4.5 5q0 1 2 3l2 2l1 4l4 7l2 4v1l-1 1q-4 3 -6 4l-1 1v-1h-1l-1 -1l-1 -1q-1 -2 -5 -5t-5 -3l-2 -1l-2 -2h-3l-2 -1l-3 1q-2 1 -4 1q-3 0 -5 4l-2 4v1v1l2 4q2 3 2.5 4t1.5 2v2v1l-2 1l-1 1h-4h-4l-3 -1q-2 -1 -5 -2l-2 -1l-1 -2l-1 -1l-1 -1q-4 -1 -7 -7
q-1 -2 -1.5 -2.5t-1 -2t-0.5 -2.5q-2 -2 -2 -5v-1l-1 -1l-1 -1l1 -3v-4l1 -3q2 -2 3 -4q3 -6 4 -6t8 -2q1 -1 3.5 -1t3.5 -1h2h2l2 1l1 -1l1 -1l7 1h7zM556 292h1l2 2q3 3 5 9q1 3 2 4q1 2 1 4l1 2.5t1.5 3.5t0.5 2v2l1 1l1 4q0 3 0.5 4.5t1.5 6t2 8.5t1 8l1 3l-1 2l-1 3
v2.5t-1 3.5l-1 5q-1 4 -1.5 5.5t-1.5 3.5q-4 23 -16 42l-2 2l-1 1l-1.5 1.5l-0.5 0.5h-1l-1 -1v-1v-1h1h-1v-1v-1h-1v-6v-5v-3q-2 -5 -1 -7q0 -1 -0.5 -3t-0.5 -8l-1 -5q-1 -1 -1 -16v-13l1 -2v-8t0.5 -11t1 -8t0.5 -5.5v-9.5v-6l1 -1q1 -2 1 -2.5t0.5 -2.5l0.5 -2
q0 -1 2 -4q1 -1 1 -2v-1v-1l1 -1l2 1z" />
  </g>

</svg>
