<?xml version="1.0" standalone="no"?>
<!DOCTYPE svg PUBLIC "-//W3C//DTD SVG 1.1//EN" "http://www.w3.org/Graphics/SVG/1.1/DTD/svg11.dtd" >
<svg viewBox="0 -200 1000 1000">
  <g transform="matrix(1 0 0 -1 0 800)">
   <path fill="currentColor"
d="M519.5 -121q-0.5 1 -19.5 2q-8 1 -9.5 0t-3 -0.5t-6 1t-11.5 8t-8 7.5q-4 0 -17 15q-1 2 -5 4q-6 6 -8 10q-1 4 -2 4q-1 2 -0.5 5.5t2.5 3.5q4 0 -1 5q-3 3 -3 5t-1.5 4l-5 7t-4 12.5t-2.5 8.5q-3 1 -4.5 5.5t0.5 7.5q2 2 2.5 4t1.5 3t1 5t2 6.5t1 4.5q-1 6 5 10
q1 2 5 2.5t8 5.5l11 13q10 11 11 15q0 6 6 6q9 -1 9 3l2.5 1t6.5 5t4 5.5t0.5 2.5t-0.5 5.5t-1 7t-1 4.5t-1 8.5t-1 8.5t-6.5 5t-13.5 10.5t-9 8.5q-4 1 -12 11q-6 8 -6 15q0 2 -2.5 5t-3 5t-1.5 2t-2 3q-5 9 -22 -3q-3 -2 -4 -2t-1 -1t-0.5 -1t-4.5 -3t-4.5 -3t-1 -1
t-1.5 -0.5t-1.5 -1t-1.5 -1.5t-18 -15q-7 -6 -8.5 -6t-2.5 -2t-7 -6q-15 -11 -22 -21q-6 -7 -9 -19q-2 -4 -4.5 -8.5t-5.5 -5.5t-5 0q-5 4 -11 5l-9 1q-5 0 -5 2q-1 4 5 14q2 3 2 4t12 17q3 5 3 6t4 6q15 19 23 31q2 4 4 6t4 5.5t3.5 4.5t6.5 4l13 11l6 5q2 1 5 3q5 2 18 11
q3 2 7 4q7 3 6 6q-1 2 -1 5t-1.5 6t-2.5 6q-2 9 -5 13q-1 2 -1 5.5t-2.5 5.5t-3 2t-10.5 8.5t-12 10t-3.5 6t-4 8.5t-3.5 7l-1 7q-2 5 0.5 22t4.5 21q0 1 1.5 6t2.5 6.5t5 11.5q5 15 11 24q3 5 3 8q0 4 15 19q6 5 11 10l10 10l5 4l-1 3q-1 4 -1 6t-3.5 9t-6 9.5t-5 3.5
t-3.5 5t-1 6.5t-4 8.5t-8 13t-7 11l-8.5 11.5l-7 9.5l-7.5 10t-6.5 8t-2.5 3q-3 5 -9.5 12.5t-7.5 7.5q-5 0 -6 4q0 2 -2 6q-3 6 0 7q1 0 3.5 2t4.5 2q4 0 20 15l3 3l1 -2q1 -2 3 -4.5l5 -6.5l5 -6q10 -11 13 -12t4.5 -4.5t4 -4.5t3 -4t1.5 -3.5t1 -2t1 -4.5q6 -10 26 -39
q9 -13 20 -36q11 -21 15 -21q1 0 2 -1q2 -3 10 -1q5 2 28 2t28 -1h5l4 4q5 5 3 11q-1 2 1 4.5l2 2.5q1 0 3 6.5t2 8.5t1.5 3t3.5 7.5t2 9t1 3t2.5 5.5t2.5 5t2.5 6t3.5 8q5 5 7 13q1 4 2 5q4 5 4 7.5t5 11.5q2 3 3 5.5t2 2.5t4 5t5 6.5t6 -0.5t9 -4q15 -6 15 -7t-2.5 -4.5
t-2.5 -4t-5 -10.5q-12 -26 -12 -28l-2 -2q-1 -2 -4.5 -11.5t-3.5 -10.5t-3 -6q-6 -15 -12 -40q-5 -19 -5 -21t2 -4t2 -3t3 -3q11 -7 15 -12q1 -2 4 -4.5t6 -6.5t4 -5q7 -8 17 -24q2 -4 2 -5t1 -1t2.5 -4t4 -8t2.5 -13v-10t-0.5 -8t2.5 -13t3 -10q1 -8 -3 -11q-2 -2 -2.5 -8
t1.5 -7q3 -1 -1 -6q-1 -2 -2 -4.5t-3 -4t-4 -4.5t-5.5 -4.5t-5 -3.5l-3.5 -4.5l-4 -5t-3 -3t-1 -2t-1.5 -1.5t-2 -1.5t-2 -3t-1.5 -2.5q0 -6 -6 -11q-9 -9 -11 -12q-1 -2 -3 -4q-1 -2 -2 -7t0 -6.5t19 -5.5q1 0 1.5 -0.5t1.5 -0.5q3 0 41 -20l4 -2q11 -6 13 -7q2 -2 7 -6
q12 -8 22 -21q4 -6 10 -12l12 -15t9.5 -10.5t3.5 -3.5l3 -2l-4 -1q-4 -2 -4.5 -3.5t-2 -2.5t-1.5 -2t-1 -2t-4 -7l-2 -5l-3 2q-2 2 -6 7q-12 14 -15 14q-1 0 -1 1q0 4 -36 35l-4.5 4.5t-2 1.5t-6 4t-6 4t-1.5 1q-2 2 -15 9t-15 7l-3.5 1.5t-7 2t-4 1.5t-4 1.5t-5.5 0.5
q-6 1 -6 -6q0 -2 -1 -9q-3 -14 -2 -17q0 -3 -1 -5q-3 -3 -4 -7q0 -2 -1.5 -3.5t-1.5 -3.5t-2 -4q-5 -7 -1 -13q1 -1 -0.5 -2.5t-1.5 -2.5t-1.5 -1.5t-5 -4t-3 -6t1.5 -5.5q0 -9 6 -17q4 -8 4 -9q0 -3 6 -4q2 -1 3 -2h2l3 -0.5t3.5 -1t3.5 -1.5q4 -1 19 -8q8 -4 21 -13
q9 -6 11 -12q1 -3 3 -7.5t2.5 -8t1.5 -5.5t0 -3t-1 -3.5t-1 -3.5q-2 -1 -3 -24q0 -16 -3 -22t-6 -9l-2 -3.5t-3 -3.5t-1 -1t-1.5 -2t-1.5 -2t-7 -9q-2 -2 -2 -2.5t-0.5 -0.5t-2 -3.5t-1 -4.5t-0.5 -1h-1.5t-3 -3l-2.5 -3q0 -1 -2 -3.5t-3 -1.5l-3.5 -3t-4.5 -3q-4 0 -12 -14
q-1 -1 -3 -1q-6 0 -14 -6q-3 -2 -3.5 -1t-1.5 0t-10 -2t-9.5 0zM253 574.5q-4 0.5 -6.5 1.5t-6.5 2q-14 4 -24 11q-7 4 -10 4q-1 0 -2.5 2t-3 2t-6 3l-6 4t-1.5 3t-3 4q-4 4 -11.5 13.5t-7.5 10.5t-5 7q-7 8 -6 22q0 9 0.5 9.5t2.5 9.5q4 16 5 18t2.5 6t4.5 4q8 2 10 0
q0 -1 4 -1q6 0 21 -8q7 -3 8 -7l2 -7q1 -2 1 -9.5v-10.5q-1 -1 -3 -2t-5 -7t-5 -8q-3 -4 1 -10q1 -3 4.5 -10.5t5.5 -9.5t2 -4q1 -5 15 -17q6 -5 12 -11t11 -10l5 -4l-1 -1zM753 598q-6 1 -7.5 2t-0.5 4l7 7q26 25 26 29q0 2 -3 5t-4 3t-5.5 4.5t-5 4.5t-2 2.5t-4.5 6.5
t-6 9.5t-3 12t2.5 10t4.5 5.5q8 7 25 7q12 0 13 -1t4 -3q8 -4 13 -11q3 -3 7 -8q11 -12 12 -26q1 -8 -1 -14l-3 -9q-2 -8 -6 -12q-1 -1 -5 -3.5t-6.5 -5t-15.5 -9.5q-10 -5 -25 -9q-3 0 -4 -0.5t-7 -0.5z" />
  </g>

</svg>
