<?xml version="1.0" standalone="no"?>
<!DOCTYPE svg PUBLIC "-//W3C//DTD SVG 1.1//EN" "http://www.w3.org/Graphics/SVG/1.1/DTD/svg11.dtd" >
<svg viewBox="0 -200 1000 1000">
  <g transform="matrix(1 0 0 -1 0 800)">
   <path fill="currentColor"
d="M72 418v0v0v0v0v0v0v0v0v0v0v0v0v0v0v0v0v0v0v0v0v0v0v0q-3 -2 -5.5 -11t-4.5 -17l-2 -8q0 -24 14 -40v0v0v0v0q32 -9 66 -16v0v0v0v0q8 0 13 -1q21 -7 21 -36q0 -4 -0.5 -9.5t-0.5 -9.5q0 -23 23 -40v0v0v0q5 0 77 -2v0v0v0q4 0 6 -1q10 -4 15 -12t8 -31q3 -33 16 -36v0
v0v0v0v0v0v0h1v0v0v0v0v0v0v0v1v0v0v0v0q185 414 194 433q5 11 5 20q0 19 -19 19q-9 0 -20 -5q-38 -15 -407 -198v0v0v0v0v0v0v0v0zM196 231v0q-22 17 -22 39v9.5v9.5q0 30 -21 36q-5 2 -13 2v0v0v0q-53 11 -66 15q-13 16 -13 40q0 7 2.5 16t5.5 14l3 5v0v0v0v0v0v0v0v0l1 1
q370 183 406 198q12 5 20 5q19 0 19 -19q0 -9 -5 -20q-12 -24 -194 -433h-1v0v0v0v0v0v0q-13 2 -16 35q-2 23 -7.5 31.5t-15.5 11.5q-2 1 -6 1v0v0v0q-72 2 -77 3v0v0v0zM72 418zM72 418zM72 418zM72 418zM72 418zM74 342v0v0v0zM74 342zM74 342zM74 342zM74 342zM74 342z
M74 342zM74 342zM74 342zM74 342zM74 342zM74 342zM74 342zM74 342zM74 342zM74 342zM74 342zM74 342zM72 417q369 183 407 199q26 11 35.5 -2t-1.5 -32l-54 -119.5l-94.5 -211t-45.5 -103.5q-2 1 -4.5 2t-7 9.5t-5.5 24.5q-2 23 -7.5 31t-15.5 12q-3 1 -38 -3t-45 6
q-16 12 -19.5 22t-2.5 27q1 19 -3 30.5t-18 15.5q-13 4 -25 1.5t-27.5 0.5t-26.5 15q-15 22 -13.5 45t11.5 30z" />
  </g>

</svg>
