<?xml version="1.0" standalone="no"?>
<!DOCTYPE svg PUBLIC "-//W3C//DTD SVG 1.1//EN" "http://www.w3.org/Graphics/SVG/1.1/DTD/svg11.dtd" >
<svg viewBox="0 -200 1000 1000">
  <g transform="matrix(1 0 0 -1 0 800)">
   <path fill="currentColor"
d="M880 413q1 147 0 293v32v-178v-165v18zM336 541q-1 -2 -4 -16.5t-1 -23.5q7 -26 15 -33q9 -8 24 -8q9 0 12 -4q7 -9 7 -32q0 -19 4 -28q10 -31 16 -32q3 -1 11 -0.5t11 -3.5q9 -10 -9 -21q-4 -3 -14.5 -3t-16 -4t-6.5 -4t-12.5 -6.5t-14.5 -9.5q-5 -4 -9 -12.5t-10.5 -11
t-13 -3.5t-22.5 -11l-24 -15q-8 -5 -10 -11q-4 -10 1 -20q1 -3 14.5 -3t30 8.5t22 14.5t5 13.5t-1.5 9.5t4.5 4.5t7.5 2.5t7 -7q7 -10 13 -10t29 14q18 12 27 28q5 7 4.5 13.5t-1.5 9.5t5.5 8t8 5t6 -6.5t2.5 -10.5t-3 -10q-3 -13 20 -50q6 -10 10 -12.5t11 -1.5q4 1 5 0
t5 -7q4 -8 3 -14q-3 -8 3.5 -18.5t16.5 -30.5q2 -5 6 -9.5t12 -5.5q12 -3 21 1q7 3 8.5 5t2.5 7q1 10 -15 36l-16 26q-7 13 -14 13q-1 0 -9 -4q-5 -3 -6.5 -2.5t-4.5 5t-3 6t5 6.5q6 5 8 6q4 3 -9 23l-15 24q-7 12 -10 14t-12 2q-10 1 -13 6q-7 10 7 5q1 0 3 -1q6 -2 12 -2
q11 0 35 11t26 16t3 20q0 1 7 4t11 3q6 1 10 0q3 -1 7.5 0.5t30.5 15.5q18 9 24 17q3 4 3 10q0 10 -5.5 19.5t-11.5 9.5q-4 0 -32.5 -14t-31.5 -18q-2 -2 -4 -6.5t0 -12t3 -9.5t-0.5 -3t-6.5 -4q-11 -6 -12 -3q-3 6 -11 14q-4 5 -8.5 4t-25 -11l-24.5 -12q-9 -3 -15 -31
q-1 -6 -5 1q-3 4 1 9q8 7 6 16q0 3 -16.5 31t-19.5 31t-14 3q-8 0 -10 0.5t-5 6.5q-3 8 0 10q11 11 6 27q-4 11 -18 28l-10 12q-2 3 -9.5 7t-9.5 4t-7.5 -1t-6.5 -3zM880 182q1 3 0 6v-3v-3z" />
  </g>

</svg>
