<?xml version="1.0" standalone="no"?>
<!DOCTYPE svg PUBLIC "-//W3C//DTD SVG 1.1//EN" "http://www.w3.org/Graphics/SVG/1.1/DTD/svg11.dtd" >
<svg viewBox="0 -200 1000 1000">
  <g transform="matrix(1 0 0 -1 0 800)">
   <path fill="currentColor"
d="M446 -133q-6 1 -7 1.5t-7 2t-12 2.5t-7 1t-2 1t-9 2q-4 1 -5 1.5t-1.5 0.5h-1.5q-5 2 -13 3q-2 0 -2 0.5t-1.5 0.5t-2.5 1t-6.5 1.5t-6.5 1.5t-6 2q-13 4 -16 6q-2 1 -3 1q-2 0 -6 3l-2 1h-2h-2v1q0 1 -1.5 1t-3.5 1l-2 2h-1l-1 -1v1q0 1 -1.5 1t-2.5 1t-1.5 1t-4.5 2
t-5 2q-4 0 -11 5q-2 1 -13 7q-4 1 -4.5 1t-3.5 2t-3.5 1.5t-4.5 3.5q-2 1 -2.5 0.5t-2.5 1.5t-3 2t-1 0.5t-1.5 0.5t-1.5 1t-0.5 0.5t-3 1t-4 2t-1.5 1.5t-1 1t-2.5 1.5t-2.5 1.5h-1v1l-2 1q-1 0 -2 1v1l-2 -1h-1v1q-1 1 -1.5 1t-3.5 2.5t-4 2.5t-1.5 2t-1.5 2t-3.5 2.5
t-6.5 5.5t-5.5 5t-2.5 2t-1.5 1.5t-1 1.5t-4.5 3.5t-5 3.5t-2 2q-1 3 -16 18q-9 8 -10 8t-1 1t-3 4.5t-3 4t-6 6t-6 6t-2 2t-4 4.5t-5 6q-6 4 -7 7q0 3 -2 5.5t-2 3t-4 4.5t-5.5 5t-3.5 2l-2 2l-4 3l-1 1v2v2l-1 3l-3 4q-4 7 -6 14q-2 5 -2.5 5t-0.5 1t-2 4q-6 12 -6 15
q0 1 -2 5.5t-2 6t-2 4.5l-2 6q-1 2 -2 6t-2 6q-3 6 -3 8t-2 8.5t-3 12t-1.5 6t-1 2t-1.5 7.5t-2 9l-1 7v23q1 20 3 32q2 14 2 18q1 2 1.5 6.5t0.5 8.5l2 5q1 9 6 20q2 7 2 9t0.5 2.5t2 6.5t2.5 7l4 12q1 4 1.5 5.5t1 2.5t2.5 5.5t3.5 9.5t2 6t2.5 6q10 26 17 39q1 3 1 5t1 2
t4 6t3 7t0.5 1.5t3.5 5.5q11 22 15 29l2 4l10 18q1 1 2 3l1 3l-1 1v2q1 7 14 18l13 12l14 13q7 7 8 7t2 2q4 6 6 6q1 0 2.5 1.5t2.5 1.5h1q0 1 2.5 3t2.5 2.5t1.5 0.5t1.5 1t1 1.5t3.5 3t3.5 2.5t5.5 3t4.5 4t1 1t1.5 1t2 1t1.5 0.5t7 5.5t8.5 6.5t2.5 1.5t2 1t3.5 2.5
t2.5 2t1 0.5t6 3.5t5.5 3.5t0.5 0.5t1 0.5t6 3.5l5 3.5q3 0 8 5q5 4 6 3q1 0 1 0.5t5 2.5q15 7 21 11q3 2 6 3t4.5 2t3 1.5t6 2.5t5.5 2t1 0.5t1.5 0.5t2.5 1.5t2 1.5t3 1t5 2t4.5 2t3.5 1t2 1t6.5 3t7.5 3t2 0.5t4 1t5.5 2t3 1t2.5 0.5t2.5 1t4.5 1.5t4.5 1t1.5 0.5t5 1
t6.5 1.5t4.5 1t4 0.5t3 0.5t4 1t5.5 1.5t4 0.5t2.5 0.5q1 0 12 2q4 0 4.5 1t11.5 0t13 -1q1 -1 2 -1l6 -1q5 -1 6.5 -1.5t8.5 -0.5q10 -1 16 -2q2 0 3 -0.5t2 -0.5t9 -1t11 -1.5t5 -0.5q5 -1 11 -2q3 0 4 -0.5t4 -0.5h2v-1l4 -1q1 0 2 -0.5t10 -1.5q2 -1 7.5 -2.5t8.5 -1.5
q5 -1 18 -6l7.5 -1.5t4 -1t7.5 -3.5l10 -3q4 -1 5 -2t3 -2h1l1 1l1 1v-2v-1h2q2 -1 5.5 -2.5t4 -1.5t1.5 -0.5t6 -2t6 -2.5q7 -6 10 -4l1 -1l1 -2h1l1 1l2 -2q1 -1 2 -1t1 -1v-1l1 1h1l1 -1l1 -1h2q1 1 1 0q2 -3 6 -3q1 1 1 0t1 -1t3 -1.5t4.5 -2.5t2.5 -2t1.5 -1t5 -2
l6 -3.5t3 -2t2.5 -0.5t2 -1t0.5 -1t1.5 -1t6 -5q13 -10 24 -20l6 -6h-1l-1 -1h1l1 1l2 -2q3 -2 8 -7q20 -20 27 -25q9 -7 13 -13l5 -7l3 -6q3 -3 10 -15q7 -14 7.5 -14.5t4 -7.5l5 -10l10.5 -20q6 -13 11 -26q2 -7 4 -10q12 -27 16 -59q1 -4 2 -11q2 -8 6 -59q2 -26 2 -49
v-19l-1 -12q-2 -13 -2.5 -14t-0.5 -3q-2 -18 -7 -29q0 -2 -1 -5l-2 -6l-4 -11q-7 -21 -9 -26q-5 -10 -20 -30q-11 -15 -13 -17t-5 -6t-3.5 -4.5t-11 -12.5t-11 -12.5t-5 -6t-7.5 -7.5l-18 -19l-16 -16l-5.5 -5.5t-12.5 -11.5l-9 -7q-1 -1 -5 -4l-5 -4q-13 -11 -15 -11
q-1 0 -2 -1q-4 -5 -17 -12q-3 -1 -8 -4q-6 -4 -19 -11q-6 -3 -6 -3.5t-1.5 -0.5t-5.5 -2q-5 -3 -28 -14.5t-24 -11.5t-1 -1t-3 -2t-5 -1q-3 -2 -28 -8q-7 -2 -9 -3t-4.5 -1t-7.5 -1.5t-9.5 -2.5t-6 -1.5t-2.5 -1t-6.5 -1.5t-7 -1.5t-10.5 -2.5q-18 -4 -40 -8q-2 0 -13 -2
q-2 -1 -6.5 -1.5t-10 -1.5t-6 -0.5t-4.5 -0.5q-12 -2 -23 -1zM550 95q11 0 16 2q2 1 6 1q6 1 17 6l5 3l6 6q6 5 9 7q12 6 19 15q1 2 2 3l4 7q3 4 3 4.5t2 3.5t2 3.5t5 5.5q6 8 9 16q2 6 2 14q1 5 2 9q1 5 2 21q1 4 1 19v15v4q-1 3 -1.5 8t-1.5 8.5t-1 5.5q-2 12 -4 15l-1 1
q1 0 -1 2t-2 3t-1 1t-3 4t-5 7l-5 6q-2 2 -3 2v1t-10 10l-6 5q-6 4 -11 5q-1 0 -5 0.5t-4 1t-1 1.5q-4 0 -13 1q-6 1 -11.5 1.5t-6 1t-7 1t-9 1t-11.5 0.5h-8l-5 -1q-11 -3 -13 -5q0 -1 -3 -1h-2l-6 -3q-9 -5 -16 -5l-3 -1.5t-2.5 -0.5t-5.5 -3l-5 -2h-4h-3l-2 2l-1 1l1 17
v39l1 23l-1 11q-1 11 -1 14l-1 2l2 1l2 2h15q17 1 25 1q6 -1 6 -1.5t18.5 -0.5h19t38 -0.5t38 -0.5h6t8.5 1q9 0 13 3l2 2l1 4l1 5l-1 10v9l-1 4q-2 4 -2.5 7.5t-1.5 4.5t-1 2v1l-2 2l-3 2h-2q-14 1 -31 2q-8 1 -37.5 1.5t-30 1t-0.5 -0.5l-1 -1l-2 1q-4 1 -37 1h-18
q-25 -1 -34 -1q-8 0 -23 -1q-17 0 -19 -3l-1 -1v-16q0 -15 0.5 -31t0.5 -20v-42l-1 -39l1 -11q2 -27 3 -50v-17l1 -1l1 -2l4 -1q10 -3 20.5 -2.5t11.5 4.5q0 1 2 3t7 8q8 11 16 12l14 7t14 6.5t6.5 2.5t5.5 2t4 1q8 5 26 4h8l5 -1q5 -1 5 -2t1.5 -1t3 -1t3.5 -1t2 -0.5
t5 -3.5q9 -5 10 -6v-1l1 1v1l3 -2l2 -2q1 0 5 -2.5t4 -3.5q0 -2 8 -12q1 -1 2.5 -4t3.5 -6q2 -4 6 -13l2 -4v-6q0 -6 1 -12v-6l-1 -13v-13l-2 -3q-2 -2 -7.5 -11.5t-10.5 -15.5l-6 -9l-2 -3l-5 -2q-5 -2 -6.5 -2.5l-7.5 -2.5q-8 -2 -28 -6q-15 -2 -20 -1q-2 1 -5 1t-3.5 1
t-2.5 0h-1l-1 1h-2t-2 1t-3 1l-3 1l-3 2q-2 2 -2.5 1.5t-1 0.5t-2 1t-2 1t-5.5 3.5t-7.5 5t-3.5 2.5t-1.5 1l-0.5 1q-4 0 -4 3q0 1 -0.5 1t-3.5 3l-7 8l-8 8q-4 4 -7 6l-3 2h-21h-22l-3 -1l-3 -1l1 -7v-7l1 -4q1 -4 4 -10l3 -6l7 -8l15 -15l7 -8l7 -3l6 -4l1 -2v-3l3 -3
l4 -4l5 -2q6 -3 6.5 -3t6 -2t10.5 -2.5t6.5 -1.5t6.5 -2.5t7 -2.5q8 -2 20 -4l4 -1h9q10 1 17 1zM298 248l3 1l1 2l1 2l-1 7q0 7 -0.5 7.5t-1 8.5t-1.5 13l-1 6l-4 1l-5 1h-16q-16 1 -26 1q-45 2 -49 -1l-1 1l-1 1l-3 1q-3 0 -8 1l-4 1h-10h-10l-1 -1q-1 -1 -2 -4l-3 -1
l-6 -4l-2 -1l-1 -3v-2q0 -2 0.5 -8.5l0.5 -6.5l0.5 -4t1.5 -6.5t1 -3.5q0 -3 6 -5q4 -1 40 -1q47 -1 63 -2q8 -1 17 -1t9.5 -0.5t5.5 0t7 0.5z" />
  </g>

</svg>
