<?xml version="1.0" standalone="no"?>
<!DOCTYPE svg PUBLIC "-//W3C//DTD SVG 1.1//EN" "http://www.w3.org/Graphics/SVG/1.1/DTD/svg11.dtd" >
<svg viewBox="0 -200 1000 1000">
  <g transform="matrix(1 0 0 -1 0 800)">
   <path fill="currentColor"
d="M880 364q1 163 0 326v-163v-184v21zM880 142q1 19 0 39v-20v-22v3zM249 74q-19 -9 -26 -21q-6 -12 -6 -35q0 -10 4 -18q10 -20 21 -20q3 0 25 -7q18 -7 18 -8t-18 -5q-11 -3 -21 -9q-18 -13 -29 -23.5t3 -29.5q6 -7 20 -13t26 -6q9 0 30 15q16 10 19 20q2 6 5 -3
q4 -15 16 -20q7 -3 9 -3q5 0 12 6.5t11 12.5q7 13 4 24q-2 8 -9 14l-3.5 3.5l-2 2l-0.5 0.5q0 1 12 -2t18 -3t15 9q8 8 10 13t2 15t-4 18q-9 18 -20 24q-7 3 -12 2q-10 -4 -29 -20q-12 -10 -13.5 -10.5t-3.5 -2.5q-3 -5 -10 3q-5 6 -9 38q-3 31 -11 38q-19 17 -33 10z
M880 54q1 4 0 8v-5v-5v2zM880 -28q1 2 0 4v-2v-2z" />
  </g>

</svg>
