<?xml version="1.0" standalone="no"?>
<!DOCTYPE svg PUBLIC "-//W3C//DTD SVG 1.1//EN" "http://www.w3.org/Graphics/SVG/1.1/DTD/svg11.dtd" >
<svg viewBox="0 -200 1000 1000">
  <g transform="matrix(1 0 0 -1 0 800)">
   <path fill="currentColor"
d="M503 -138q-1 1 -13.5 1.5t-17.5 1t-10 0.5q-8 1 -17 2q-2 0 -4 1t-3.5 1t-5.5 2l-10 6q-6 3 -6 3.5t-2 0.5q-3 0 -20 15q-3 3 -4 3t-3 2.5t-6 5.5q-12 10 -19 18l-6 8l-5 6l-3 3t-6.5 13l-5.5 12q0 1 -1 3q-4 8 -4 15q0 1 -1.5 5.5t-2 7t-1 4t-1 4.5t-1.5 6.5t-1.5 8
t-1 5.5t-0.5 10q-1 21 -2 23l-1 3v2l1 2l-1 1q-1 1 -2 4q-1 8 -5 19l-3 8l-2 2l-2 2l-11 1q-23 1 -30 3q-1 0 -12 0.5t-18 2.5q-23 4 -25 5q-2 0 -8.5 2t-7.5 2.5t-2.5 0.5t-3 1t-4.5 2q-16 5 -17 7q-1 0 -4.5 2t-8.5 5.5t-6.5 3.5t-1.5 0.5t-6 4.5q-8 6 -24 22l-10 9h-1h-1
l-1 2q-1 1 -2 1q-2 0 -13.5 12t-11.5 14q0 1 -2.5 4t-2.5 3.5t-2 3.5q-5 7 -17 39q-6 13 -6 14q-5 8 -10 36l-2 8v13l-1 14l1 9q6 46 27 79l5.5 9.5t6.5 9.5l9 12q3 5 8 10l5 6l8 5l8 6l15 7l15 7l10 1l9 1h17q18 0 20 -1q15 -3 32 -2h5l2 1l2 2l1 3q1 3 1 5t1 2l1 1l-1 14
v14l1 8q2 9 3 18l2 9l6 17q6 17 7 23q3 10 9 21l3 6l7 7l7 7l5 3q16 8 39 10q7 0 18 1l11 1h8q8 -1 11 -1l3 -1l10 -5q17 -8 35 -23q4 -4 7 -5q4 -3 13 -14.5t14 -20.5q7 -12 18 -19l4 -3l7 -2l8 -1l2 2q9 6 35 31q28 26 44 35l17 12q9 5 17 9l8 4l12 3q23 6 37 10l7 2h11
q21 0 46 -4q13 -3 19 -3.5t13 -1.5l6 -1l5 -3q5 -2 10 -5l9 -7l5 -3h3l3 -1l2 -2q2 -2 3 -2h1l-1 -2v-1l-7 -2q-15 -4 -35 -7q-11 -1 -32 -5l-12 -3q-33 -6 -56 -14q-5 -2 -9.5 -3.5t-13.5 -5.5l-9 -4l-7 -5l-16 -14l-10 -10l-13 -15q-13 -14 -14.5 -15.5t-8.5 -9.5
q-9 -11 -23 -21l-10.5 -9l-8.5 -7.5l-9 -7.5q-33 -32 -43 -37q-6 -4 -12 -7l-10 -7l-8 -4l-12 -8l-10 -5l-11 -2q-12 -3 -13 -3q-1 -1 -39 -6l-15 -2q-30 -5 -59 -8q-11 -1 -21 -3l-17 -2q-9 -2 -16.5 -3l-15.5 -2q-36 -2 -38 -3l-2 -1l1 -1q2 0 16 -2q19 -3 25 -5
q4 -1 7.5 -1t19 -2t24 -2.5t11 -1t12 -1t23.5 -1.5l14 -1l8 1q8 0 12 1t18.5 3t15 2t5.5 1q14 1 28 5q6 2 19 5q20 4 24 6q1 1 4 1.5t7 3.5l10 5q8 4 19 12l8 6l13 10q10 9 17 13l21 17q4 3 18 17l35 36l10 8q26 21 61 36l13 6l13 3l20 5l8 2h14h20q39 -6 57.5 -12.5
t37.5 -22.5q10 -8 19 -14.5t10 -7.5v-2l-5 1q-6 1 -8 2l-2 1h-17h-17l-15 -1q-22 -1 -30 -2q-33 -3 -51 -8q-1 0 -4 -1t-4 -1.5t-6 -2.5t-7 -3l-5 -1q-5 -2 -18 -9l-11 -5l-2 -3l-6 -4q-9 -6 -42 -40l-22 -22l-14 -10q-14 -10 -14.5 -10t-5.5 -3.5t-7 -4.5l-7 -5
q-5 -3 -11 -7l-9 -6l-6 -4t-4 -2.5t-8 -4.5l-11 -8l-5 -3l-8 -3q-9 -3 -45 -12q-14 -3 -25 -5q-7 0 -12 -1t-10.5 -1.5t-9.5 -1.5l-8 -2q-12 -2 -21 -4l-8 -2q-5 -1 -14 -3l-9 -2l-14 -2l-14 -2h-19q-19 -1 -40 -1q-24 -1 -53 -2l-10 -1l-4 -1l-5 -1h-23q-24 0 -24 -0.5
v-3.5l-1 -2l3 -1q4 -2 7 -3q1 0 1.5 -1t4.5 -2t5.5 -2t10 -2.5t9 -1t2.5 -0.5l1 -2l1 1q2 0 4 -1t11 -2t17.5 -2.5t15.5 -2t8 -0.5q3 -2 50 -4q14 -1 22 -1.5t26 -0.5l19 -1l15 1q15 1 18 2l9 1q25 4 53 12l11 4q5 1 10 3l9 3l9 3l13 6q22 9 31 14q8 4 13 7.5t5.5 3.5
t19.5 11q8 5 22 13q36 24 40 26q3 2 4 3q8 8 27 23l8 6q17 15 42 26l10 4l5 2q6 1 37 2h18l8 -1h9l11 -5q22 -9 36 -16q29 -14 42 -25q6 -5 19.5 -21l18.5 -22q1 -3 2 -3q8 -9 29 -49l7 -14v-4q0 -3 -1 -4l-1 -1l-3 -1l-5 1l-2 1h-3q-7 1 -13 3q-3 2 -4.5 2t-2.5 1t-4 1.5
t-5 1.5q-1 1 -14 5q-7 2 -8 3l-1 1q0 -1 -3 1l-3 2l-4 2q-8 1 -16 4l-8 4h-2q-8 3 -9 3h-2q-9 3 -15 3q-1 0 -6 1l-13 1l-7 1h-17h-16l-4 -1q-5 0 -13 -2l-12 -3l-12.5 -4t-11.5 -3t-2.5 -1t-2.5 -1h-2l-10 -5q-12 -6 -26 -14q-14 -9 -17 -10q-2 -1 -8.5 -5t-11 -6.5
t-7.5 -5t-4 -2.5t-4.5 -2.5t-5.5 -3.5q-8 -5 -49 -24q-7 -3 -13 -6t-8.5 -4l-7.5 -3q-13 -6 -34 -10q-13 -1 -16 -2t-13 -2l-20 -3l-9 -1h-37h-63l-25 1l-4 2q-4 1 -9.5 1.5t-8.5 1.5t-8 1l-9 1q-31 2 -32 -2l2 -3l4 -1l2 -1l3 -2l2 -2h1q2 0 2 -0.5t8.5 -4t10 -3.5t4 -1.5
t5.5 -2t4 -1t18 -6.5q6 -2 8.5 -2t4.5 -1q8 -3 18 -4q4 -1 9.5 -2t14.5 -2l16 -2q7 -1 13 -1.5t12 -1.5h6h11q11 0 24 1q52 2 65 5q9 2 15 3t11 2q6 2 14 4q3 0 6 1q5 1 11 2q1 0 4.5 1t8 2t7 2t4.5 1.5t10 4.5l21 10l22 10q9 5 10 5t7 3l7 3l9 2q8 2 12 4t13 3q3 1 5 2
q12 5 51 12l13 2l5 1l22 1q22 1 41 0h19l13 -1q29 -3 59 -12q16 -4 19 -4q1 0 3 -2l1 -2l2 -5l1 -5l-1 -1l-1 -1l-3 1l-3 2h-9l-8 1l-5 1q-5 2 -6 1.5t-5 0.5q-7 2 -16 3h-3q0 2 -34 5l-11 1q-5 1 -13 1l-7 1l-8 -2q-8 -1 -15 -2q-11 -2 -19 -4l-8 -2l-11 -4q-14 -6 -19 -9
q-2 -1 -4 -1.5t-4 -2t-6 -3.5t-7.5 -4.5t-4.5 -2.5t-3.5 -2t-5.5 -3q-5 -3 -18 -12l-14 -9l-33 -24q-9 -7 -9.5 -7t-1 -1t-6.5 -5l-5 -5l-1 -11l-1 -11l2 -8q2 -8 3 -11q2 -14 3 -22l1 -5l-1 -12v-11l-2 -12q-6 -27 -16 -38q-1 -2 -5 -8q-21 -32 -33 -44q-5 -5 -13.5 -15.5
t-8.5 -11.5q0 -2 -12 -12q-7 -4 -13 -8l-5 -4q-2 -2 -2.5 -2t-12.5 -7.5t-13 -7.5zM498 -65q4 1 9 3q2 1 6 1h3v1q1 0 3 1q10 2 24 17l3 3l8 16q8 16 9 19.5t2.5 6.5t1.5 5t1 2l1 4v3q3 2 11 30l2 6l1 4l2 13v8q-1 7 -1 8l-1 1l-8 1l-2 -1q-8 -2 -11 -3q-10 -5 -20 -7
q-7 -1 -12 -3q-24 -6 -28 -6q-5 -1 -14 -2q-5 -1 -5.5 -0.5t-5 -0.5t-10 -1.5t-9.5 -1.5q-8 -1 -35 -1q-23 -1 -24 -2h-1l1 -5q0 -5 1.5 -9t2 -6.5t1.5 -4.5l13 -31q1 -5 3 -9t2 -5.5t1 -2t4.5 -7.5t6.5 -11.5t3 -5.5t1 -1t3 -4q8 -13 30 -20l7 -3l8 1h12zM223 172v1l-1 1
l-1 2l-1 -1q-2 1 -6.5 3t-6.5 3q-19 9 -21 9q-1 0 -2 0.5t-4 1.5q-18 5 -27 11q-2 1 -3 1t-5 1.5t-8.5 3t-4.5 2.5t-5 6q-26 30 -26 31t-4.5 7.5t-4.5 7.5t-1 1.5t-1.5 2.5t-2.5 7l-3 5l-1 10q-1 9 -1 11q-1 5 -0.5 18.5t0.5 14.5q0 2 2 9.5t2 9.5t1 4q2 3 2 8q1 8 3 8l1 3
v3l-1 -1l-4 -4l-5 -7q-4 -6 -6 -12l-5 -10q-5 -12 -8 -28v-4l1 -7l1 -7l3 -10q3 -10 4 -14q3 -14 7 -19q2 -1 2 -2t2.5 -4t2.5 -4.5t2 -4.5t2 -4t4 -9l3 -7l4 -4q9 -11 17 -15q3 -2 5.5 -4.5t3.5 -2.5q3 0 16 -11l3 -3h4q3 -1 3 -2h1l3 -2l7 -1h4q19 0 22 -2q1 0 10 -0.5
t9 -1t6 -0.5h6zM307 468q6 1 10 2q6 2 21 4q9 2 13.5 3.5t8.5 2.5q21 5 26 9q2 1 9 6l13 9l10 6.5l6.5 4t7.5 7.5l6 6v1v2l-1 1q-1 1 -2.5 3.5t-3.5 4.5t-2 3t-7.5 11t-9.5 11q-1 1 -9 10q-9 11 -20 21q-4 3 -16 11l-6 4q-3 1 -6.5 3t-5.5 4l-3 2l1 4l1 4l-11 -1h-10l-5 -2
q-12 -4 -23 -12l-6 -5l-5 -10l-5 -9v-8q0 -8 -1 -25l-1 -16v-18v-18l-1 -14l-2 -14l2 -2q1 -1 2 -4v-2l2 1h1v-1v-1l4 1q4 0 4 -1q2 -1 14 1z" />
  </g>

</svg>
