<?xml version="1.0" standalone="no"?>
<!DOCTYPE svg PUBLIC "-//W3C//DTD SVG 1.1//EN" "http://www.w3.org/Graphics/SVG/1.1/DTD/svg11.dtd" >
<svg viewBox="0 -200 1000 1000">
  <g transform="matrix(1 0 0 -1 0 800)">
   <path fill="currentColor"
d="M169 -56q-1 0 -1 0.5t-2.5 1t-3 1.5t-0.5 10v14q1 4 1 9q1 6 3 28q0 4 1 11l1 12q1 4 1 8q2 19 3 31q0 6 0.5 13.5t0.5 9.5q0 3 1 12q0 2 0.5 13t1 19.5t0.5 53v53.5q1 17 1 37q-1 8 -1 14v15q-1 8 -1 30q-1 58 -2 67v6t-0.5 5t-0.5 9t-1 6q0 2 -1 12q0 8 -2 23
q-1 5 -1 8v11q-2 26 -3 52q0 6 -0.5 9.5t-1.5 25.5q0 24 -1 35q0 5 0.5 6.5t3.5 1.5t7.5 0.5t12.5 1.5q30 3 31 3q2 0 7 0.5t14 1.5t22 2l20 1q6 1 15 1.5t14 0.5q6 1 48 3q15 1 20 1.5t18.5 1t15.5 0.5q6 1 24 1q9 0 11.5 0.5t29.5 0.5t34.5 0.5t25 0.5t20.5 0.5t18 0.5
q60 1 92 3q8 1 19.5 1.5t13.5 0.5t12.5 1t17.5 1.5l13.5 1t14.5 0.5q16 2 44 3q19 1 20.5 1.5t3.5 0.5h5l4 1v-4q1 -4 1 -13q2 -22 3 -38q2 -25 3 -40q1 -5 2 -19.5t2 -21.5l2 -24q2 -26 2 -69v-41q0 -7 -1 -49q-1 -12 -1.5 -30.5t-1 -34t-1 -21.5l-1 -11.5t-0.5 -6
t-3 -65.5q-1 -22 -2 -39q-2 -15 -3.5 -29.5t-2.5 -25.5v-4.5t-1 -6.5l-2 -19q-1 -11 -1 -18q-1 -8 -3 -27q0 -5 -0.5 -7t-0.5 -5t-1 -5q0 -8 -1 -9.5t-6 -1.5q-13 -2 -15 -2q-3 -1 -7 -1q-10 -1 -19 -2q-5 -1 -10 -1q-8 -1 -21 -3q-3 0 -28.5 -0.5t-31.5 -1t-15 -1t-16 -1
t-16 -0.5t-16.5 -0.5t-21.5 -1t-16 -0.5q-17 -2 -96 -4q-10 -1 -15 -1q-22 -1 -60 -1q-22 -1 -42 -1t-41 -1h-36t-37 -1q-71 0 -78 -1q-5 -1 -8 0zM494 89h-1q0 -1 1 -1v1zM683 147.5q0 0.5 -1.5 2l-2 2t-4.5 5t-5.5 6.5t-2.5 2t-2 2l-3 3q-1 1 -1 2t-1.5 1.5t-2.5 2.5t-2 2
t-1 1t-1 1q-3 0 -3 2q0 1 -1 1.5l-1 0.5l1 -3l5 -5l6 -9l7 -8q12 -14 15 -13q1 1 1 1.5zM549 221q11 1 19 5q3 1 10 5q8 4 15 9q10 6 12 7q10 5 10 7q0 1 4 5q13 15 17 27q1 2 2 4.5t1 3t1.5 3t1.5 6t-0.5 4.5t0.5 4t2 30v27l-2 3q-1 3 -1 4t-1 2.5l-1 1.5q0 1 -5 10
q-1 2 -1 3t-2 3t-3 3.5l-1 1.5l-2 3t-2.5 3t-1.5 2t-3 4l-6 6q-9 10 -18 15q-3 2 -12 4q-4 1 -8 3l-25 8q-8 3 -25 5q-24 3 -39 -3q-11 -5 -15 -8q-2 -2 -3.5 -2.5t-4.5 -3.5t-3.5 -3t-7.5 -7q-2 -2 -4 -3t-7 -11q-2 -3 -3.5 -4.5t-1.5 -2t-2 -4.5l-6 -15q-1 -4 -1.5 -5
t-2 -5l-3 -8t-1.5 -5l-2 -4l-1 -4q-3 -8 -3 -16q0 -7 1 -10.5t1.5 -8t1.5 -6.5t5 -16q7 -22 14 -32q9 -12 20 -21q5 -4 12 -9t15 -7q16 -6 30 -7q8 0 15 -1q12 -2 21 0zM756 340q1 1 0 4q-2 2 -23 3q-25 2 -28 1q-3 -2 -1 -4q1 -2 20 -3q14 -1 23 -2q8 -1 9 1zM647 466
q2 1 3 2q12 11 18 17q12 12 7 12q-3 0 -28 -26q-5 -5 -5 -6q1 -2 5 1zM541 516q2 8 2 19q0 6 1 8q1 12 -2 12q-2 -6 -2 -30l1 -10v1z" />
  </g>

</svg>
