<?xml version="1.0" standalone="no"?>
<!DOCTYPE svg PUBLIC "-//W3C//DTD SVG 1.1//EN" "http://www.w3.org/Graphics/SVG/1.1/DTD/svg11.dtd" >
<svg viewBox="-42 -200 1000 1770">
  <g transform="matrix(1 0 0 -1 0 800)">
   <path fill="currentColor"
d="M227 115q-2 0 -2 1.5t-1.5 1.5t-3.5 -1t-2.5 -0.5t-1.5 -0.5t-2 0t-5 0q-10 -2 -13 1q-2 4 -6 0q-1 -2 -5 -2t-4.5 1.5t-7 1.5t-8.5 -1t-5 -1t-3.5 1.5t-2 1.5t-1.5 -1.5t-3 -1t-4.5 0.5t-3.5 1q-1 1 -3.5 1t-2.5 -1q0 -3 -5 -1q-2 2 -3.5 1t-2.5 0t-2.5 0.5t-3.5 0.5
t-6 0t-10.5 0t-7.5 0q-4 -4 -10 -1q-2 1 -3.5 0.5t-2.5 1t-4 0t-5 0.5q-4 2 -5 0q-1 -1 -2 0t-3 -1q-3 -1 -4 1q1 1 0.5 2t-1.5 0.5t-2 -1.5q0 -2 -4 -1.5t-4 1t-5 1.5q-8 0 -14 -1q-5 0 -5.5 1.5t-6.5 1.5q-9 -1 -12 0q-2 0 -4 -1.5t-4 -0.5t-8 0.5t-14 0t-8.5 2.5t2.5 5
q4 5 20 28l18 26l12 17l11 16l9 13l4 6q6 8 18 26l17 25q22 34 25 40q1 2 4.5 6.5t5.5 8.5q7 12 15 23q5 8 5 8.5t4 6.5t9 15l13 21l12 20l8 14q4 5 7 11t8.5 14.5t5.5 9t6 9.5q8 14 11 18q2 4 4.5 8t3.5 6t4.5 7.5t5 8.5t4 7l7.5 12l13 24q11 17 11 18l4 8l9 17l6.5 10.5
l1.5 2.5q0 1 17 31q10 16 10.5 18t4 7t6.5 10q16 30 21 36l4 8l8 13l5.5 9.5l4.5 7.5t4 7t2 2t7 -6l11 -12q5 -5 7 -8t14 -16.5l17.5 -20t9 -11t5.5 -7.5l12 -14l18 -24q20 -28 25 -34l12 -16l14 -19l26 -37q4 -5 10 -14q2 -2 7 -10t7.5 -10.5t4 -5t6.5 -9.5l11 -16l9 -13
l15 -22q10 -15 14 -20q9 -12 45 -66q43 -64 49 -74l8.5 -13l7.5 -12l50 -76l11 -15l18 -24q23 -30 24 -32q0 -1 -3.5 -1.5t-7.5 -1t-5 0.5q0 1 -3.5 1h-10.5q-20 1 -82 -2q-49 -2 -50 -3.5t-4 -1.5t-5 -1q-1 0 -1.5 0.5t0.5 1.5l-2 2h-3q-2 -1 -9.5 -1t-8.5 -1q-2 -4 -3 0
q0 1 -6 0.5t-9.5 -0.5t-4 -1.5t-2.5 -2t-2 1.5q-1 2 -5 0q-2 -2 -4.5 -2t-3 1.5t-5 1.5h-7.5q-9 0 -57 -1q-8 -1 -13.5 -1.5t-8.5 -1t-3 -1.5l-14 -1h-2q-12 0 -13 1q-2 2 -9 -1q-5 -2 -6 0q-5 4 -10 1q-2 -1 -4 0q-7 1 -55 0q-20 0 -22 1l-6 -3l-2 1q-1 1 -2 0q-4 -2 -10 1
q-2 1 -4 0q-5 -4 -6 -1q0 1 -5.5 0.5t-6.5 -1.5t-3 0.5t-3 -0.5q-2 -2 -4 0q-1 1 -6 1t-6 -2q0 -1 -3 -1t-5 2t-5 1t-7.5 -1t-5 -1t-3.5 -1q-2 -1 -2.5 -0.5t-0.5 1.5l-4 1h-2q-7 0 -9 -1.5t-5 -1.5t-3 1.5t-4 1.5t-4.5 -0.5t-2.5 0t-2.5 -1t-3.5 -1.5h-6q-6 0 -8 2
q0 1 -2.5 1t-2 -2t-0.5 -1h-4zM682 127h-2l1 -1zM405 312q22 4 33 23q7 11 7 26q0 22 -15 37q-9 11 -13 11q-1 0 -4 2q-8 5 -23 3q-12 -1 -22 -6q-15 -8 -23 -27q-2 -5 -2 -15.5t2 -17.5q7 -17 22 -29q17 -11 38 -7zM390 702q0 3 -7 3q-3 0 -1 -2q2 -1 3 -1q5 -2 5 0z
M950.5 388.5q-8.5 9.5 -14 13t-6.5 5.5t-3 3l-6 6t-4 5t-4 5q-5 5 -9 11q-2 3 -4 3.5t-3 2.5t-3 3.5t-2 2.5t-2 4q-7 6 -9 11t-3.5 5.5t-1.5 1.5t-3 3t-3 3.5t-2.5 4t-4 5t-4.5 4.5t-3.5 4t-2.5 3.5t-3 3.5q-6 12 -12 16q-2 1 -5.5 6.5t-4 5.5t-2 3t-3.5 4t-3 3q-1 4 -11 15
q-4 4 -4 5t-6 7t-8 10q-10 16 -15 21q-3 3 -5 6t-5.5 7.5t-5.5 6.5q-4 8 -8 9q-2 1 -2.5 3t-1.5 2.5t-3 5t-5 6t-3 2.5q0 2 -7 11q-2 3 -2 4t-3.5 4.5l-4.5 4.5q-2 0 -3.5 2.5t-3.5 5.5t-5 8t-5 6.5t-4 4.5t-5 5.5t-3 4t-2 3.5t-5.5 7t-6 7.5t-7.5 8.5l-11 13q-5 6 -7.5 9.5
t-3.5 4t-3 3.5t-9.5 11.5t-12 15t-9.5 12.5t-8 10t-5.5 6t-6 6.5l-6.5 8.5l-7 9t-12.5 14.5t-12.5 14.5t-6 7t-5 6q-12 15 -24 28l-11.5 14.5t-11.5 12.5l-3 4l1 3q1 4 2 6.5t2 5.5l7 21q3 8 10 24q2 3 2 4q0 5 10 24q2 3 2 4t4 9.5t5 12t2 4.5t1 2.5t2 4.5t2 3.5t3 7t3 8
t3 5.5q9 16 10 19q0 2 1 3.5t3 6t4.5 9.5t4 9.5t3.5 6.5q3 5 4 7l2 5q9 26 13 28q1 1 1 3t2 4t2 4t1.5 5l3.5 7q4 8 6 13q3 4 3 5t4 10l6 12q2 4 3 4q3 3 3 10q0 1 2 3q4 3 5 9q1 2 3 5t2 4.5t4 7.5l5 12q2 5 3 5.5t1 2t3 6t3.5 6.5t3.5 7t3 7t7 13q0 1 1 3l3 6q5 8 5 11
t4 7q1 2 1.5 4t2.5 4t2 4.5t2 4.5q2 3 9 21q3 7 7 12q3 2 2 3q0 5 2 8q2 1 2 3.5t2.5 5.5t3 5t2.5 4t0.5 3t1 3t2.5 4q0 4 3 5q2 1 2 4q0 5 3 9q1 2 1 3q0 6 4 9q6 8 5 11q-1 2 1.5 6.5t3.5 5.5q2 2 3 4v4q0 2 2.5 4t2 4t1 4.5t1.5 4.5q-1 2 1 3.5t4 1.5q1 2 2 3
q-1 0 -1 2.5t1 2t3 1.5t2 3.5t-1 1.5q-1 2 5 7q4 2 1 4q-1 2 -1.5 4t1 2.5t4 4.5t1.5 5.5t0.5 5t1.5 4.5t1 1t3 3q3 7 3 1q0 -3 1 -3t3 -2q6 -6 8 -4q1 1 1 3.5t-5 3t-5 3t1 4.5t1 5t-2 3q-3 -1 1 6q2 5 5 4q5 -1 6 -3h2q-1 2 0 3t-1 3t-4 1q-2 0 -2 1.5t2 1.5t3 1.5t-1 2.5
q-3 1 -1 4q1 1 2 0l2.5 2t2.5 3t-2 0q-4 -1 1 4q3 2 4 1.5t2 0.5q0 2 -2 5t-1 4q3 4 4 0q0 -3 3 0q1 1 -0.5 3t-1 3.5t0 3t1.5 0.5q8 0 9 2q2 5 -2 5q-2 0 -2 2t1 4q2 2 2 3l-1 2q0 1 2 2.5t2 2.5t2 1.5t2 2.5q4 6 6 3q0 -1 2 1q4 4 0 5q-1 1 -3 0q-3 -2 -4 0q-2 4 2 5
q1 0 1 1.5t1 1.5t2.5 5.5t3.5 6.5t2 3t0.5 2.5t0.5 2t1.5 2t1.5 2t1 2t0.5 3t1 3t0.5 2.5q0 1 1.5 4t2.5 3t3 -13l1 -14q2 -9 3 -30l1 -6l0.5 -10t1.5 -11q0 -1 3 -43q0 -4 1 -15q1 -12 1 -23q1 -8 1 -17l1 -16q0 -8 1 -10q0 -2 0.5 -12.5t1.5 -22.5q2 -32 3 -72
q1 -11 1 -18t2 -49q1 -9 1 -24q1 -16 1 -25q2 -53 6 -178q1 -42 2 -62q0 -20 1 -40q0 -19 1 -24q0 -6 1 -24q1 -19 1.5 -22.5t2 -22l1.5 -18.5q1 -1 6 -43q2 -20 5 -42q1 -7 1 -10q2 -10 4 -33q1 -7 2 -12q2 -13 7 -61l3 -30q3 -24 6 -63q2 -14 2 -25q1 -13 2 -16
q3 -23 8 -170q1 -23 2 -37t0 -15t-9.5 8.5zM916 637q0 1 -0.5 1.5t-0.5 -1.5t1 0zM833 756q2 3 1 5q-1 1 -1.5 3t-2 2t-2.5 -1.5t0 -2.5t0 -1.5t-1 -2.5t2 -3t4 1zM801 982q11 3 18 10q4 3 9 10t5 8.5t1 2.5q4 8 3 20q-1 14 -5 19l-2.5 5t-4.5 6.5t-3 4.5q0 2 -10 7
q-3 1 -5 3t-4 2t-4 1q-2 2 -12.5 2t-13 -1t-4.5 -1q-9 0 -21 -12t-13 -21q-1 -3 -2 -9q-6 -24 14 -43q10 -10 22 -14q17 -5 32 0zM558 1055q0 1 -1.5 1.5t-2.5 -0.5t-0.5 -2t2.5 -1t2 2zM828 1444q0 1 -0.5 1t-0.5 -1t0.5 -1t0.5 1zM755 1486q0 1 -1 0.5t-1 -1t1 -0.5t1 1z
M763 1505.5q0 0.5 -1 0.5t-1 -0.5t1 -0.5t1 0.5zM828 1514q0 2 -2 1q-1 -1 -0.5 -1.5t1.5 -0.5t1 1zM766 1514q0 1 -1 1t-0.5 -0.5t1.5 -0.5zM767 1521q0 1 -1 1t-1 -2q1 0 2 1zM876 1541q0 2 -1 1.5t-1 -1.5q2 -2 2 0zM794 1544.5q0 1.5 -0.5 1.5t-1 -0.5t0 -1.5t1 -1
t0.5 1.5zM805 1552q0 1 -0.5 1t-0.5 -1t0.5 -1t0.5 1zM819 1554q1 0 -1 1q0 1 -1 0.5t0 -1.5q1 -2 2 0zM844 1554q0 1 -1 1t-0.5 -0.5t1.5 -0.5zM796 1562q0 2 -1 1.5t-1 -1.5t1.5 -1t0.5 1zM799 1566q0 1 -1 1q-1 -1 1 -3v2zM882 1567q0 1 -1 1t-0.5 -1t1 -1t0.5 1z
M827 1580h-3q0 -2 1.5 -2t1.5 2zM858 1583q0 1 -1 1t-1 -1t1 -1t1 1zM808 1585q-1 1 -3 0q-1 -2 1 -1.5t2 1.5zM856 1585q2 3 -2 3q-2 0 -2 -0.5t0.5 -2t1.5 -1.5t2 1zM840 1586.5q0 0.5 -1 0.5t-1 -0.5t1 -0.5t1 0.5zM798 1588q0 1 -0.5 1t-1 -1t0.5 -1t1 1zM812 1593.5
q-1 1.5 -3 0t-0.5 -2.5t3 0t0.5 2.5zM846.5 1593.5q1.5 1.5 0.5 2.5t-3 0q-3 0 -3.5 -2.5t2 -2t4 2zM833 1596q-1 1 -1 0l2 -2q0 1 -1 2zM855 1596q0 1 -1.5 2t-2 0.5t0.5 -2.5h3zM850 1598q-1 0 -1.5 -0.5t0.5 -0.5t1 1zM825 1601q0 1 2.5 0.5t2.5 1t2.5 3t2.5 2.5
q0 3 -3 0q-1 -2 -2 -1t-2.5 -0.5t-1.5 -2.5t-2 -0.5t-2 -1.5t1 -2t2 1zM820 1602.5q0 1.5 -0.5 2t-1.5 -0.5t-1 -2q1 -1 2 -1t1 1.5zM811 1606.5q1 1.5 3 1.5q2 -1 2.5 0t-0.5 2t-2.5 0.5t-1.5 0.5q-2 0 -3 -1q-2 -4 0 -4q1 -1 2 0.5zM878 1608q1 0 1.5 1t-0.5 1.5t-1 2.5
t-1 2l-1 -2l1 -2l-2 -1t0 -3q1 -1 1.5 0t1.5 1zM841 1613q-1 3 -3 3q-4 0 0.5 -4.5t2.5 1.5zM815 1615q-1 2 -2 3q-1 -1 -0.5 -2.5t1.5 -1.5t1 1zM879 1622h-2v-1q1 0 2 1zM846 1624q0 2 -1.5 2.5t-1.5 1t-1.5 0t-1.5 -1.5t1 -1.5l3 -1.5t2 1zM856 1625.5q0 0.5 -1 0.5
t-1 -0.5t1 -0.5t1 0.5zM874 1629q0 1 -1 2.5t-2.5 1.5t-2.5 -2q0 -3 1 -4q1 0 2 -1t2 0.5t1 2.5zM861 1631q0 2 -1 1.5t-1 -2t1 -1.5t1 2zM876 1636q-1 0 -2 -1l1 -1q1 0 1 2zM863 1638q-1 1 -1.5 0.5t0 -1.5t1.5 -0.5t0 1.5zM848 1639.5q1 1.5 -2 2.5q-4 3 -4 -2
q0 -2 2.5 -2t3.5 1.5zM857 1646q0 1 -1.5 1.5t-2.5 -1l-1 -1.5zM828 1652q-2 0 -3 -0.5t-1.5 -2.5t0.5 -3t3 2l3 3zM847.5 1650q0.5 1 -0.5 1.5t-2 0t-1 -1.5t1.5 -1t2 1zM876 1652q3 2 0 4q-2 1 -3 -2q-2 -2 -1 -3t4 1zM869 1663h-2v-1h1t1 1zM854 1665q0 1 -1 1.5t-1 2
t1 1.5h1q-1 2 -5 0q-2 -2 0 -4q3 -4 5 -1zM871 1676l-2 -2h1q2 2 1 2zM851.5 1676q0.5 2 -1.5 2t-2 2q-1 2 -4 0q-1 -4 2 -4q1 0 1.5 -1.5t2 -1t2 2.5zM854 1681.5q0 0.5 -1 0.5t-1 -0.5t1 -0.5t1 0.5zM874 1688q0 1 -1 1t-1 -1t1 -1t1 1zM865 1696q0 2 -1.5 1.5t-1.5 -1.5
q-1 -2 -1.5 -3.5t2 0.5t2.5 3zM847.5 1698q-0.5 1 -1.5 0.5t-0.5 -1.5t1.5 -0.5t0.5 1.5zM868 1706q0 1 -0.5 1t-0.5 -0.5t1 -0.5zM858 1727q1 1 0 2q-2 3 -2 -2t2 0zM815 1646.5q0 0.5 0.5 1t0.5 0t-0.5 -1t-0.5 0zM815 1646zM160 114q-2 1 -11 0q-18 0 -19 1.5t-2 0
t-5 -1.5t-5.5 1t0 1.5t1.5 1.5t-2 1t-3.5 -2t-10.5 -2t-13 1h-18t-19 1q-12 2 -30 2q-8 0 -10.5 0.5t-18 1t-23.5 1t-9 2.5t3.5 6.5t16.5 23.5l22 31l17 25l16 23l13 19q5 7 6 9q11 15 34 51l11 17q3 5 14 22l7 12l13 20l10 17q23 35 25 40q0 2 8 14l10 16l20 34l5 9
q3 4 7 11l6 10l8 14l14 24l13 22l5 9l5 9l18 31l14 26q12 22 12.5 22.5t6.5 10.5l14 24l16 28l11 18l7 12q4 7 4.5 7t15 -15.5t20.5 -22.5q3 -3 10 -11l12 -15t8 -9q4 -5 19 -25l6 -7l10 -14l14 -18l12 -17q7 -9 9 -12l6 -7l7 -10l12 -18l12 -16l11 -16q8 -10 12.5 -17
t7.5 -10q3 -4 20 -29l10 -15l14 -21l15 -21q19 -26 54 -79l9 -13q27 -41 32 -48l4 -8l7 -9l37 -58q15 -21 19 -27l10 -15l33 -44q8 -10 8 -11t-4.5 -2.5t-7.5 -1.5t-4 1q-3 3 -4 0q-1 -2 -2.5 -2t-1.5 2v2h-26q-26 -1 -27 -1t-20 -1q-19 0 -35 -0.5t-22.5 -1t-7 -3
t-6.5 -2.5q-8 0 -7 2q2 2 1 2h-3t-2.5 -0.5t-0.5 -1.5q1 -2 -2 -2h-6q-6 0 -10 -0.5t-7 -0.5l-2 1l2 1q3 1 4.5 1t1.5 0.5t-2.5 0.5h-4.5q-2 -1 -2 -2q0 -3 -20 -3h-15l-7 1h2v2h-14q-45 0 -47 -2q3 -1 5 -2l4 -1q-3 -2 -50 -2q-19 0 -20 -1t-2.5 -0.5t-14.5 0.5l-12 1v1
q2 1 1 1.5t-14 0.5h-20l-8 -1v-1q1 -1 7.5 -0.5t7 -0.5l0.5 -1q-11 -1 -14 -0.5t-3 2.5t-4.5 2t-5.5 -2t-2.5 -2.5t-14.5 -0.5h-37q-24 -1 -28 0q-8 0 -38 -1q-36 -1 -74 -1q-13 1 -22 0q-8 0 -13 0.5t-6 0t-3 0.5zM178 117q1 1 -0.5 1t-1.5 -1h2zM235 117q0 1 -1.5 1
t-1.5 -1t1.5 -1t1.5 1zM353 117l-2 2l-6 -2q0 -1 3 -0.5t5 0.5zM312 118q1 1 0.5 1t-2.5 -0.5l-2 -0.5h4zM365.5 118.5q0.5 0.5 -0.5 1t-1.5 0t0 -1t1 -0.5t1 0.5zM385.5 118.5q0.5 0.5 -0.5 1t-1.5 0t0 -1t1 -0.5t1 0.5zM393 118q0 1 -0.5 1h-3.5h-2l2 -1q5 -1 4 0zM68 119
q0 1 -1 1t-1 -1t1 -1t1 1zM472 119l-3 1q-1 0 -0.5 -1t2 -1t1.5 1zM529 121q-1 1 -2 1q-2 0 -2 -2q1 -1 4 1zM539 121q1 1 -1 2q-3 1 -7 -1q-1 -1 0 -1.5t4 -0.5t4 1zM14 122.5q0 0.5 -1.5 0.5t-2 -0.5t0 -1t2 0t1.5 1zM19 122.5q0 0.5 -2 0.5l-2 -1h2.5t1.5 0.5zM658 125
q0 1 -1 1t-1 -1h2zM407 312q22 6 32 26q6 13 5 27q-1 13 -6 22q-8 13 -21 21q-19 11 -43 2q-14 -5 -24 -20q-17 -27 4 -57q10 -14 26 -20q13 -4 27 -1zM389 702q0 3 -5 2l1 -2q4 -2 4 0zM439.5 117q-0.5 1 1.5 1q1 0 3 1q3 0 3 -1l-2 -1q-5 -1 -5.5 0zM584 120l2 1l1 -1
q0 -1 -1.5 -1t-1.5 1zM704 125q0 1 1 1l1 -1q-2 -1 -2 0zM773 126l2 1l2 -1h-2.5h-1.5zM951 387q-11 11 -17 12q-3 0 -5 2.5t-2 3.5t-4 4t-6 7q-3 4 -11 12q-2 1 -2 2.5t-2.5 2.5t-3 2.5t-4.5 6t-4.5 6t-1 1.5t-2.5 3.5t-4 4.5t-2 3q0 3 -6 6q-2 0 -2 2.5t-2.5 5t-3.5 5
t-3 4t-2 3.5t-3 3t-4.5 4t-3.5 4t-2 1.5t-1.5 2t-2 5t-1.5 3.5t-4 4t-4 4q-3 0 -4 6q-1 3 -3 4t-2 2t-2 2t-2 2t-1 1.5t-3 4t-3 3.5t-3.5 4t-3.5 4q0 1 -3 5.5t-3 5t-5.5 6t-6 8t-4 5.5t-3.5 4t-2 3t-2.5 4.5t-2.5 3.5q-5 3 -5 5q0 1 -5 5.5t-5 5.5t-2 4.5t-3 3.5t-3 3t-4 4
t-4 6.5t-4 6.5q-6 3 -10 11q-1 3 -3.5 6l-2.5 3q0 4 -6 8q-3 2 -4 4.5t-2 3.5l-3 3q-1 2 -2.5 4.5t-3.5 4.5t-5.5 6t-4 4t-3.5 5t-3.5 5.5t-3.5 4t-3 4.5q0 2 -12 15q-4 4 -5.5 6t-7 8.5t-7.5 9.5l-5 6q-2 4 -9 11.5t-11.5 14t-8 10t-3.5 4.5t-2 3t-4 5t-6 7t-6 7.5
t-4.5 5.5t-4.5 5.5t-5 6.5l-6 7l-9 11q-6 6 -9.5 11t-5.5 7.5l-7 8.5l-7 8l-17 20q-23 26 -24 27q-2 1 -2 2q0 3 18 47q6 14 7 17t3 7.5t7 17t6 13.5t4 9.5t8 17.5q4 9 5.5 12t5.5 13l9 17l8 17q4 9 4.5 10.5t3 6.5t3.5 6q0 3 16 36l6 12q5 13 19 41q7 14 9 19t3 5.5
t3.5 6.5t4 7.5t1.5 3.5q2 8 13 26q0 1 6 14l14 29q8 16 8 17t3.5 5.5t3.5 6t2 4t3 6t2 4.5q3 3 4 8q0 2 3 8.5t3 7.5t3 4q5 6 5 11q0 1 1.5 3t1.5 4q0 6 4 8q1 1 1 2.5t3 3.5t1 2q-4 0 1 5q2 2 1 3q0 1 1 3.5t2 2.5q4 0 3 5q0 3 1 4t1 2.5t1 2t0.5 2t1 3t1.5 2.5t2 3.5t2 4
t1 2.5t1 4t2.5 7.5t4.5 5.5t2 4t0.5 4t2 3t0.5 3.5t0.5 3t2.5 5t2.5 5t1.5 3.5t1 2t1.5 1.5t2 1.5t3.5 2.5t1 4.5q-2 4 2 6q5 3 3 5q0 1 -0.5 4t1.5 3.5t2 1.5t2 3.5t1 3.5q-3 3 0 7q1 1 1 3t2 2t3 3t2.5 2.5t3 2t1 3t0.5 2t0.5 2.5t-2.5 1q0 -1 -1 -0.5l-1 0.5q0 1 2.5 5.5
t3 5t4 0.5t4.5 -3q1 0 2 -1q0 2 1 3t-0.5 2t-3.5 1q-6 0 -1 4q2 2 1.5 3t-1 3.5t0.5 3t1 2t3 5t3 4.5t1.5 1.5t0.5 3t0 3.5q2 3 4 0q0 -1 1 -1.5t1.5 1t-0.5 3t-0.5 3t0 2t-0.5 1.5t4.5 0.5t6.5 1.5q3 4 -2 5q-4 1 -4 4q0 2 2 3l2 1l-1 1q-2 2 -0.5 3.5t3 2t1.5 2t2 2.5
q3 3 4 7q-1 -1 -1 0t1 1.5t-0.5 1.5t-0.5 3l2 4q1 3 2 3t2 1.5t2 6.5q0 2 2 2t2 5q0 1 2.5 5.5l2.5 4.5v1v2.5t1 1.5t1 2t2 5t3 3q2 0 2 -5q0 -3 1 -10.5t2 -16.5q1 -10 2 -22t2 -22l2 -20q3 -38 5 -76q0 -16 1 -28q4 -55 7 -128q1 -26 2 -43q1 -16 1 -32q1 -17 1 -36
q2 -35 5 -155q2 -59 3 -76q0 -18 1 -44q1 -27 2 -44q4 -60 5 -65q1 -4 2 -11q1 -10 5 -44q3 -24 5 -34q3 -24 4 -37q1 -7 2.5 -15t3.5 -30l3 -28q1 -10 6 -55q9 -92 14 -227q2 -48 3 -68q1 -10 0 -10t-9 9zM916 637q0 1 -0.5 1.5t-0.5 -1.5t1 0zM833 758q1 2 0.5 3t-3.5 0
q-5 -1 -2 -5q2 -3 5 2zM832 763q2 3 -2 3q-2 0 -1 -3t3 0zM800 982q11 3 19 11q13 12 13 18q0 2 1 2q5 5 4 21q-1 13 -5 18l-2.5 5t-4.5 6.5t-3 4.5q0 2 -10 7q-3 1 -5 3t-4 2t-4 1q-2 2 -12.5 2t-13 -1t-4.5 -1q-9 0 -21 -12q-13 -13 -13 -20q0 -2 -2 -7q-3 -11 1 -23
q3 -12 13 -23q13 -13 34 -15q9 -2 19 1zM557 1054.5q0 1.5 -1 2t-1.5 -0.5t-0.5 -2q1 -1 2 -1t1 1.5zM876 1541q0 2 -1 1.5t-1 -1.5q2 -2 2 0zM808 1585q-1 1 -3 0q-1 -2 1 -1.5t2 1.5zM854.5 1586.5q0.5 0.5 -1 0.5t-1.5 -0.5t1 -0.5t1.5 0.5zM798 1588q0 1 -0.5 1t-1 -1
t0.5 -1t1 1zM844 1594q0 1 -1 1.5t-1.5 0t0 -1.5t1.5 -1t1 1zM834 1595q0 1 -1 1.5t-1 -1t1 -1.5t1 1zM811 1600q0 2 -2 2.5t-3.5 0t1.5 -2.5q3 -3 4 0zM825 1601l-2 2q-1 0 -0.5 -1.5t1 -1.5t1.5 1zM820.5 1602q0.5 1 -0.5 2t-2 0t-0.5 -2t1.5 -1t1.5 1zM829 1603q0 4 -2 1
q-1 -1 0 -2q2 -1 2 1zM833 1606l1 3l-1.5 -1.5l-1.5 -1.5q0 -2 2 0zM810 1607q0 2 -2 1v-1t1 -1t1 1zM812 1610.5q0 0.5 -1 1t-1.5 0t0 -1t1.5 -0.5t1 0.5zM840 1613q0 3 -2 3q-1 0 -1 -1t1 -2q2 -2 2 0zM877 1613.5q0 0.5 -1 0.5q0 -1 0.5 -1t0.5 0.5zM842 1626.5
q0 0.5 -1 0.5t-1 -0.5t1 -0.5t1 0.5zM873 1627q1 1 0.5 3.5t-1.5 2.5q-3 0 -3 -3.5t3 -3.5zM860 1630q0 1 -0.5 1t0 -0.5zM876 1635.5q0 1.5 -1 1t-1 -1.5t1 -1t1 1.5zM862 1638v-1q0 -1 0.5 0t-0.5 1zM847 1641q-4 4 -4 0q0 -1 1.5 -1.5t2.5 0.5q2 0 0 1zM856 1645
q0 3 -2 3t-2 -3q0 -1 2 -1t2 1zM828 1650q0 1 -1.5 1.5t-2.5 0t0 -1.5h4zM845.5 1650.5q-0.5 0.5 -1 0t0 -1t1 0t0 1zM875 1652q0 2 -1 2t-1.5 -1t0.5 -2t2 1zM824 1656q0 1 -0.5 1t-0.5 -1t0.5 -1t0.5 1zM853 1665.5q0 0.5 -1 0.5t-0.5 -0.5t1 -0.5t0.5 0.5zM851 1668
q0 1 -1 1t-0.5 -1t1 -1t0.5 1zM851 1675q0 2 -2 2t-1.5 2t-0.5 2.5t-2 -1.5q-1 -3 1 -3q2 -1 2 -2q1 -1 3 0zM865 1696q-1 0 -3 -1q0 -2 1.5 -1t1.5 2zM854 1707q-1 1 -3 2l-1 -1q2 -2 4 -1zM854 1707zM160 114q-2 1 -11 1q-24 -1 -38 0l-49 2h-15q-7 1 -25 1q-7 1 -9.5 1.5
t-20.5 0.5q-28 1 -30 4q-1 2 3 7q5 6 20 28l31 44l24 35l6 8q3 4 11.5 17.5t10.5 16t12 17.5l13 20l6 10t5.5 8t3 4.5t4 6.5t5 8t7 11.5t5.5 9t3.5 5.5t5.5 8.5l4.5 7.5l4.5 7l6 11q11 16 23 37q1 3 2 4t3.5 5.5t4.5 7.5q6 9 13 22q2 4 7.5 12t6.5 11t4.5 8t3.5 6t3.5 6
t6 9.5t5.5 9t4 7t8.5 14.5t9 15.5t5 9t3.5 6t3 6l7 12.5t7 13l6 11q5 8 20 34q5 9 5 9.5t4 6.5l11 18l7 14l5 8q4 6 5 8l10 17q2 3 4 7q3 5 7 13l2.5 2.5t2.5 5t3 4.5t25.5 -28l34.5 -40l9 -11q10 -12 23 -30q32 -43 36 -48q4 -4 5.5 -7t6.5 -9l9 -12l6 -8q10 -14 14 -21
q1 -3 2 -3t4 -5t3.5 -5t3.5 -4q6 -10 12 -18q2 -2 3.5 -5t5.5 -7t5 -6t8 -12l11 -16l7 -11q16 -22 16 -23q0 -2 9 -13q14 -19 37 -54l7 -10l22 -33q3 -5 4.5 -7t10.5 -15t11 -16.5l6.5 -11t6 -9t2.5 -3l5 -7.5l21 -33q15 -24 32 -48l14 -20l9 -12l19 -25q5 -6 8 -10t3 -4.5
t-6 -2t-8.5 -1.5t-3 1t-2 0.5t-1.5 -1.5q-1 -1 -2.5 -1t-2.5 2v1h-25q-25 -1 -26 -1l6 -2q4 0 3 -1t-16 -1.5t-17 0.5l11 2l10 2q-1 1 -8 0.5t-18 -1.5q-39 -1 -39 -2q-1 0 -1 -1q1 -1 0 -1.5t-4.5 -1t-9.5 -0.5h-15q-42 -1 -43 -2t-5 0t-5 0q-3 0 -13.5 -0.5t-11.5 0.5
q0 1 -2 -1q-3 -1 -5 2q-1 1 -4 1h-1q5 -1 2 -3q-2 -1 -6 0q-4 0 -5.5 -1t-4.5 0t-4.5 2.5t-7 1t-9.5 -0.5l-2 -1q1 -2 -1 -2q-5 -2 -47 -2q-20 0 -21.5 -1t-2.5 -0.5t-23 1l-22 0.5v1l-1 1l-2 -2q-2 -2 -13.5 -1.5t-12 1.5t-2.5 1t-3 -1t-51 -2q-26 -1 -28 -1t-10 0.5
t-32 -0.5q-36 -1 -74 -1q-14 1 -22 0.5t-13 0t-6 0t-3 0.5zM423 119q-1 1 -2 0t1 -1t1 1zM428 119h-2h1h1zM575 121.5q0 0.5 -1.5 0.5t-1.5 -0.5t1.5 -0.5t1.5 0.5zM702 126q2 1 1 1.5t-3 0t-5 -0.5t-4 -0.5t0 -0.5q3 -2 11 0zM406 313q22 6 33 26q5 11 4 25q-1 17 -5 22
q-1 2 -3 5q-3 6 -13.5 13t-17.5 9q-11 2 -21 -1q-15 -4 -24 -13q-6 -5 -6 -5.5t-3 -4.5q-6 -9 -6 -23q-1 -11 4 -22q10 -22 32 -30q13 -4 26 -1zM562 121q3 1 4 0q2 -1 0 -1q-1 -1 -3 -1h-3zM720 124q-2 1 -4 0.5t-2 0.5l11 1l2 -2q-3 -1 -7 0zM731 125l6 1q0 -2 -4 -2
q-1 0 -1.5 0.5zM747 126q1 1 1 0h-1zM800 128h2l-1 -1q-1 0 -1 0.5v0.5zM950 387.5q-9 9.5 -10.5 10.5t-5 1t-5.5 2.5t-2 3.5t-4 4t-6 7q-3 4 -11 12q-2 1 -2 2.5t-2.5 2.5t-3 2.5t-4.5 6t-4.5 6t-1 1.5t-2.5 3.5t-4 4.5t-2 3q0 3 -6 6q-2 0 -2 2.5t-2.5 5t-3.5 5t-3 4
t-2 3.5t-3 3t-4.5 4t-3.5 4t-2 1.5t-1.5 2t-2 5t-1.5 3.5t-4 4t-4 4q-3 0 -4 6q-1 3 -3 4t-2 2t-2 2t-2 2t-1 1.5t-3 4t-3 3.5t-3.5 4t-3.5 4q0 1 -3 5.5t-3 5t-5.5 6t-6 8t-4 5.5t-3.5 4t-2 3t-2.5 4.5t-2.5 3.5q-5 3 -5 5q0 1 -5 5.5t-5 5.5t-2 4.5t-3 3.5t-3 3t-4 4
t-4 6.5t-4 6.5q-6 3 -10 11q-1 3 -3.5 6l-2.5 3q0 4 -6 8q-3 2 -4 4.5t-2 3.5l-3 3q-1 2 -2.5 4.5t-3.5 4.5t-5.5 6t-4 4t-3.5 5t-3.5 5.5t-3.5 4t-3 4.5q0 2 -12 15q-4 4 -5.5 6t-7 8.5t-7.5 9.5l-5 6q-2 4 -9.5 12.5t-9.5 11.5q-7 10 -10 13q-3 2 -3 3t-2 3t-4 5t-6 7
t-6 7.5t-4.5 5.5t-4.5 5.5t-5 6.5l-6 7l-9 11q-6 6 -9.5 11t-5.5 7.5l-7 8.5t-6 6.5t-7 7.5l-9 11l-7 9q-12 14 -17 19q-4 4 -3.5 6.5t2.5 5.5q2 4 12 32q2 6 4 11q5 10 6 15l4 10l6 12q3 8 6 14.5t3 7t1.5 3t1.5 3.5t2.5 5.5t3.5 8t2 5.5q4 5 4 10q0 1 6 10q2 3 2.5 5
t4.5 10l5 10q2 9 5 10q1 1 2.5 6t2.5 7q2 2 8 15q2 7 3 9q6 10 9 18q1 4 2 5.5t5.5 11.5t4.5 11t1.5 2t2.5 3.5t6.5 14.5t6.5 14t2.5 4t1.5 4q0 4 5 10q1 1 4 7t4 7.5t2 4.5q3 9 11 24q1 1 1 2t2 4.5l6 10.5q7 17 8 19q3 4 9 18q4 7 4 9q6 10 9 16q2 5 2.5 6l1.5 3l2 4l1 2
q7 13 7 16q0 1 2 3.5t4 7.5q3 11 7 17q3 4 3.5 8t2 5t1.5 3q3 8 12 27q1 3 2.5 6.5t2.5 4.5t1.5 3.5t3.5 9t3 8.5t2.5 5t3 5.5t1 3.5l2.5 5q2 6 7 16q1 2 1 3t3.5 8t3.5 8.5t1.5 3.5t2.5 5.5t2 4.5q5 5 5 10q0 1 2 4t3 6.5t5 11.5t4 9t6 13.5t6.5 14.5t3 6t2.5 5t4.5 10
t4.5 10t3.5 7t3.5 7t6 13.5t7 13.5t1 3q1 6 5 10q1 2 1.5 4t4 8t3.5 8q0 3 1 0q0 -2 1 -5q3 -19 7 -68q1 -11 2 -19l5 -68q1 -18 2 -51q5 -69 7 -121q1 -30 2 -44t1 -31q0 -16 2 -47q1 -34 1 -48l2 -52l2 -68q1 -32 1 -40q0 -7 1 -36q1 -40 3 -71q4 -52 5 -59t6 -45
q1 -14 2 -17l2 -16q1 -12 2 -16q2 -10 4 -33q1 -7 2 -12q3 -24 9 -80q1 -13 2 -19q3 -21 8 -83l5 -86q3 -70 4 -105q1 -15 1 -27q2 -21 0 -21q-1 0 -10 9.5zM916 637q0 1 -0.5 1.5t-0.5 -1.5t1 0zM832 758q1 3 -2 1q-2 -1 -1.5 -2t2 -1t1.5 2zM799 982q11 3 20.5 12t12.5 19
l3 10q1 5 1 12q-1 13 -4 17q-1 1 -2.5 4.5t-4 6t-3.5 4.5t-7 5.5t-8 5.5t-4 2t-4 1q-3 2 -13 2t-12.5 -1t-4.5 -1q-9 0 -21 -12q-13 -13 -13 -22q0 -3 -1 -6q-3 -9 0 -21.5t15 -24.5q9 -9 23 -12.5t27 -0.5zM778 1564.5q0 1.5 -1 1.5t-1 -1.5t1 -1.5t1 1.5zM837 1678
q0 1 -2 1q-4 0 -1 -2q0 -1 1.5 -0.5t1.5 1.5zM240.5 110.5q-0.5 0.5 -43 1t-47.5 0.5q-19 2 -24 0q-3 -1 -5 0t-21 1q-56 1 -59 3q-1 0 -15.5 0.5t-16.5 1t-10 0.5t-11.5 0.5t-12.5 1.5q-13 0 -14 4q-1 2 3 5q5 6 23 32l17 25q27 39 30 44q2 3 7 9l8 13l18 26q28 42 32 49
q1 3 4.5 8l8.5 12l10 17l12 19l10 16q18 28 25 42q2 4 9 13l9 16l20 34l4.5 7.5l13.5 23.5l15 24l13 23q11 19 13 22q6 12 18 32q23 40 29 52l8 14l14 25l12 19l20 35q6 10 7 11t4.5 -2.5t21.5 -24.5l35 -40l9 -11q10 -12 23 -30q32 -43 36 -48q4 -4 5.5 -7t6.5 -9l9 -12
l6 -8q10 -14 14 -21q1 -3 2 -3t4 -5t3.5 -5t3.5 -4q6 -10 12 -18q2 -2 3.5 -5t5.5 -7t5 -6t8 -12l11 -16l7 -11q16 -22 16 -23q0 -2 9 -13q14 -19 37 -54l7 -10l22 -33q3 -5 4.5 -7t10.5 -15t11 -16.5l6.5 -11t6 -9t2.5 -3l5 -7.5l21 -33q15 -24 32 -48l14 -20l9 -12l19 -25
q5 -6 8 -10q4 -6 1 -6q-2 0 -5 -1.5t-7.5 -1.5t-7.5 -1q-5 -1 -6 2q1 1 0 1.5t-24.5 0t-24.5 -0.5l14 -2q9 -1 10.5 0.5t3 0.5t3.5 -1l1 -1q-1 -1 -14 -1t-15 -1t-15 -0.5t-14 -1t-2.5 0t-1 2t11.5 1.5q5 1 8 1t4.5 0.5t2 0.5t0.5 1q-1 1 -8 0.5t-18 -1.5q-39 -1 -40 -2
l2 -1q2 -1 6.5 0t10.5 0t6.5 -0.5t2.5 0.5h4q6 -3 -22 -3q-13 0 -15.5 -0.5t-13.5 -1.5h-25q-12 0 -13 -1t-4 0q-4 1 -9 0q-2 -1 -51 -2q-32 -1 -50 -2q-12 -1 -26 -1t-15.5 -0.5t-4.5 0.5t-6.5 0t-4.5 -1q-2 0 -3 1h-9h-10t-13 -1h-13q-9 1 -16 -1q-4 -1 -5 0t-4 0.5
t-5 0.5t-4 0t-10 -0.5t-13 0t-8 -0.5h-8h-12h-14h-12h-12t-19 -1q-39 0 -45 -1q-2 -1 -2.5 -0.5zM428 119h-2h1h1zM566 121q6 2 0 2h-4q-6 -1 -10 -1h-3q3 -3 17 -1zM574 122q-2 0 -2 -0.5t1 -0.5t1 1zM590 122l-2 1l-1 -1h3v0zM702 126q2 1 1 1.5t-3 0t-5 -0.5t-4 -0.5
t0 -0.5q3 -2 11 0zM406 313q12 3 20 10q15 12 17.5 31.5t-9.5 36.5q-6 10 -18 17q-20 12 -46 0q-4 -2 -10.5 -7.5t-6.5 -7.5l-3 -4q-6 -9 -6 -23q-1 -11 4 -22q10 -22 32 -30q13 -4 26 -1zM813 127l5 2q3 0 3 -1t-4 -1.5t-4 0.5zM810 128h1l-1 -1v1zM951 386l-6.5 6.5
t-4 3.5t-2 0.5t-1.5 -2t-4 -0.5l-4.5 1.5t-1.5 2t-2 3t-2 2.5q0 4 -5 6q-2 1 -3 3.5t-3 3.5t-3.5 4t-5.5 7q-7 6 -11 13q-3 4 -4 4t-4.5 5.5t-4.5 5.5t-2.5 3.5t-4.5 6.5q-7 6 -8 11q0 3 -3 4q-5 3 -5 7q0 1 -2.5 3l-2.5 2q0 1 -7 8q-3 3 -3 4t-2 2t-2 2t-2.5 4.5t-2.5 4
t-2 2t-2 3t-4 4.5t-4 4.5t-4 6.5q-8 8 -11 13q-1 3 -3 5.5t-2 4t-1 1.5q-4 0 -10 11q-2 4 -3 4q-3 0 -7 9q-2 4 -5.5 7.5t-5 7t-3 3.5t-1.5 1.5t-2.5 3t-3 4t-4.5 6t-4 4.5v1h-1t-4 4.5t-3 6.5q-1 2 -3 3q-3 2 -8 9l-2 4q-2 2 -3.5 5.5t-6.5 8t-5.5 6t-1 1.5t-2 2.5t-3.5 5
t-2.5 4.5t-2.5 2.5t-3 2.5t-4 5.5t-4.5 5.5t-2.5 3.5l-3 4.5t-3 3.5t-3 4.5t-4 5t-2.5 2.5t-2 3t-5 6.5t-8.5 11t-8 9q-11 15 -16 21q-5 5 -6.5 8t-3.5 4.5t-3 4t-5 6t-4.5 5t-2.5 3.5t-3.5 5t-7 8.5t-5.5 6.5t-2.5 3.5t-5 6t-6.5 7.5l-16 20l-7 9q-10 11 -19 22l-8 10
q-5 5 -9 9.5t-7 8.5q-13 17 -18 20q-2 1 -2 3q0 3 8 19q0 2 2 7l8 23q7 15 7 16t2.5 6t5.5 12q7 17 8 19q1 1 4 8.5l6 15.5l6 12l7 15l8 16l8 17q5 11 5 11.5t4 7.5l5.5 13t7 15t4.5 9.5t5 10.5t5 10.5t13 27.5l7 14q2 5 3 7t3.5 7.5t3.5 6.5t5 11l15 30l14 30l16 32
l11.5 24t2.5 4.5t2 4.5t3 6.5t4 8.5t3 5.5t4 7.5q5 14 8 19q2 3 2 4t3 7.5t3 7.5t3.5 8t3.5 8t2 5q7 13 7 16q0 1 3.5 8t3.5 8.5t1 2.5t3 6t3 7t3 6.5t4.5 9.5t2.5 6t1.5 4t1.5 4t2 4t2 4q0 2 7 17l9 19q0 1 6 13q3 6 3 6.5t6 13t6.5 14.5t3 6t2.5 5.5t2.5 5.5t3.5 6
q1 5 4 10l2 4l6 13q2 4 2 4.5t3.5 6.5t3.5 7.5t1.5 3t1.5 3.5q1 5 4 10l2.5 5t4 7t2.5 7q1 5 3 -5q2 -9 4 -37l3 -30q1 -11 2 -19l5 -68q1 -18 2 -51q5 -69 7 -121q1 -30 2 -44t1 -31q0 -16 2 -47q1 -34 1 -48l2 -52l2 -68q1 -32 1 -40q0 -7 1 -36q1 -40 3 -71q4 -52 5 -59
t6 -45q1 -14 2 -17l2 -16q1 -12 2 -16q2 -10 4 -33q1 -7 2 -12q3 -24 9 -80q1 -13 2 -19q3 -21 8 -83l5 -86q3 -70 4 -105q1 -15 1 -27q2 -21 0 -21q-1 0 -9 8zM916 637q0 1 -0.5 1.5t-0.5 -1.5t1 0zM832 758q1 3 -2 1q-2 -1 -1.5 -2t2 -1t1.5 2zM796 982q6 1 12 4
q19 10 24 27l3 10q1 5 1 12q-1 13 -4 17q-1 1 -2.5 4.5t-4 6t-3.5 4.5t-7 5.5t-8 5.5t-4 2t-4 1q-3 2 -13 2t-12.5 -1t-4.5 -1q-9 0 -21 -12q-13 -13 -13 -22q0 -3 -1 -6q-3 -9 0 -21q5 -19 23.5 -30.5t38.5 -7.5zM778 1564.5q0 1.5 -1 1.5t-1 -1.5t1 -1.5t1 1.5zM837 1678
q0 1 -2 1q-4 0 -1 -2q0 -1 1.5 -0.5t1.5 1.5zM240.5 110.5q-0.5 0.5 -43 1t-47.5 0.5q-19 2 -24 0q-3 -1 -5 0t-21 1q-56 1 -59 3q-1 0 -15.5 0.5t-16.5 1t-10 0.5t-11.5 0.5t-12.5 1.5q-13 0 -14 4q-1 2 3 5q5 6 23 32l17 25q27 39 30 44q2 3 7 9l8 13l18 26q28 42 32 49
q1 3 4.5 8l8.5 12l10 17l12 19l10 16q18 28 25 42q2 4 9 13l9 16l20 34l4.5 7.5l13.5 23.5l15 24l13 23q11 19 13 22q6 12 18 32q23 40 29 52l8 14l14 25l12 19l21 36q6 10 6.5 10.5t5.5 -4.5q32 -34 57 -66l13 -15l27 -36q20 -27 25 -33l9 -12l8 -11l27 -39q9 -11 11.5 -15
t5 -6.5t9 -12.5t8 -11.5t3 -4.5t5 -7.5l10.5 -13.5l10 -15l15 -23q11 -16 15 -21l40 -58l32 -48q16 -24 22 -34l14 -22l25 -37q26 -40 37 -55l9 -13q1 -2 10 -13l23 -30q3 -5 0 -5q-2 0 -5 -1.5t-7.5 -1.5t-7.5 -1q-5 -1 -6 2q1 1 0 1.5t-24.5 0t-24.5 -0.5l14 -2
q9 -1 10.5 0.5t3 0.5t3.5 -1l1 -1q-1 -1 -14 -1t-15 -1t-15 -0.5t-14 -1t-2.5 0t-1 2t11.5 1.5q5 1 8 1t4.5 0.5t2 0.5t0.5 1q-1 1 -8 0.5t-18 -1.5q-39 -1 -40 -2l2 -1q2 -1 6.5 0t10.5 0t6.5 -0.5t2.5 0.5h4q6 -3 -22 -3q-13 0 -15.5 -0.5t-13.5 -1.5h-25q-12 0 -13 -1
t-4 0q-4 1 -9 0q-2 -1 -51 -2q-32 -1 -50 -2q-12 -1 -26 -1t-15.5 -0.5t-4.5 0.5t-6.5 0t-4.5 -1q-2 0 -3 1h-9h-10t-13 -1h-13q-9 1 -16 -1q-4 -1 -5 0t-4 0.5t-5 0.5t-4 0t-10 -0.5t-13 0t-8 -0.5h-8h-12h-14h-12h-12t-19 -1q-39 0 -45 -1q-2 -1 -2.5 -0.5zM428 119h-2h1
h1zM566 121q6 2 0 2h-4q-6 -1 -10 -1h-3q3 -3 17 -1zM574 122q-2 0 -2 -0.5t1 -0.5t1 1zM590 122l-2 1l-1 -1h3v0zM702 126q2 1 1 1.5t-3 0t-5 -0.5t-4 -0.5t0 -0.5q3 -2 11 0zM406 313q12 3 20 10q15 12 17.5 31.5t-9.5 36.5q-6 10 -18 17q-15 8 -33 4q-20 -5 -30 -20
q-13 -20 -6 -43q4 -11 13 -20.5t18 -13.5q14 -5 28 -2zM813 127l5 2q3 0 3 -1t-4 -1.5t-4 0.5zM810 128h1l-1 -1v1zM951 386l-6.5 6.5t-4 3.5t-2 0.5t-1.5 -2t-4 -0.5l-4.5 1.5t-1.5 2t-2 3t-2 2.5q0 4 -5 6q-2 1 -3 3.5t-3 3.5t-3.5 4t-5.5 7q-7 6 -11 13q-3 4 -4 4
t-4.5 5.5t-4.5 5.5t-2.5 3.5t-4.5 6.5q-7 6 -8 11q0 3 -3 4q-5 3 -5 7q0 1 -2.5 3l-2.5 2q0 1 -7 8q-3 3 -3 4t-2 2t-2 2t-2.5 4.5t-2.5 4t-2 2t-2 3t-4 4.5t-4 4.5t-4 6.5q-8 8 -11 13q-1 3 -3 5.5t-2 4t-1 1.5q-4 0 -10 11q-2 4 -3 4q-3 0 -7 9q-2 4 -5.5 7.5t-5 7t-3 3.5
t-1.5 1.5t-2.5 3t-3 4t-4.5 6t-4 4.5v1h-1t-4 4.5t-3 6.5q-1 2 -3 3q-3 2 -8 9l-2 4q-2 2 -3.5 5.5t-6.5 8t-5.5 6t-1 1.5t-2 2.5t-3.5 5t-2.5 4.5t-2.5 2.5t-3 2.5t-4 5.5t-4.5 5.5t-2.5 3.5l-3 4.5t-3 3.5t-3 4.5t-4 5t-2.5 2.5t-2 3t-5 6.5t-8.5 11t-8 9q-11 15 -16 21
q-5 5 -6.5 8t-3.5 4.5t-3 4t-5 6t-4.5 5t-2.5 3.5t-3.5 5t-7 8.5t-5.5 6.5t-2.5 3.5t-5 6t-6.5 7.5l-16 20l-7 9q-10 11 -19 22l-8 10q-5 5 -9 9.5t-7 8.5q-13 17 -18 20q-2 1 -2 3q0 3 8 19q0 2 2 7l8 23q7 15 7 16t2.5 6t5.5 12q7 17 8 19q1 1 4 8.5l6 15.5l6 12l7 15
l8 16l8 17q5 11 5 11.5t4 7.5l5.5 13t7 15t4.5 9.5t5 10.5t5 10.5t13 27.5l7 14q2 5 3 7t3.5 7.5t3.5 6.5t5 11l15 30l14 30l16 32l11.5 24t2.5 4.5t2 4.5t3 6.5t4 8.5t3 5.5t4 7.5q5 14 8 19q2 3 2 4t3 7.5t3 7.5t3.5 8t3.5 8t2 5q7 13 7 16q0 1 3.5 8t3.5 8.5t1 2.5t3 6
t3 7t3 6.5t4.5 9.5t2.5 6t1.5 4t1.5 4t2 4t2 4q0 2 7 17l9 19q0 1 6 13q3 6 3 6.5t6 13t6.5 14.5t3 6t2.5 5.5t2.5 5.5t3.5 6q1 5 4 10l2 4l6 13q2 4 2 4.5t3.5 6.5t3.5 7.5t1.5 3t1.5 3.5q1 5 4 10l2.5 5t4 7t2.5 7q1 4 2 1q1 -1 1 -3q3 -17 5 -42l2 -27q5 -50 7 -87
q1 -31 6 -113q1 -15 4 -87q1 -18 1 -25q1 -6 1 -20l1 -26q0 -13 1 -35q1 -21 1 -37q1 -15 2 -52l2 -68q1 -32 1 -40q0 -7 1 -36q1 -40 3 -71q4 -52 5 -59t6 -45q1 -14 2 -17l2 -16q1 -12 2 -16q2 -10 4 -33q1 -7 2 -12q3 -24 9 -80q1 -13 2 -19q3 -21 8 -83l5 -86
q3 -70 4 -105q1 -15 1 -27q2 -21 0 -21q-1 0 -9 8zM832 758q1 3 -2 1q-2 -1 -1.5 -2t2 -1t1.5 2zM796 982q14 3 24 13q12 11 14 27q2 12 -1 22q-3 8 -10 16t-15 12q-10 6 -20 6q-22 2 -38 -11.5t-17 -34.5q0 -16 10 -30q8 -12 23.5 -17.5t29.5 -2.5zM241 108q-2 2 -44 1h-39
q-14 1 -25.5 1t-13 0.5t-3.5 0.5q-3 -1 -9.5 -1t-8.5 1t-2 0q-1 -3 -4 0q-1 1 -2 0q-1 0 -7.5 -0.5t-7.5 0.5q-3 1 -23 1q-2 0 -3.5 0.5t-9.5 0.5q-8 1 -15 1q-8 0 -23 1q-14 1 -15 2t-11 1q-14 0 -15 5q-1 3 3 7q6 5 25 34l14 21l12 16l12 17q7 10 8.5 13t9 14t9 13.5
t22 33t23 34.5l5.5 9l38 60l16 27l39 64q1 2 8 13l9 15q19 34 21 36q1 1 22 38l18 32l17 30l15 26l28 48q7 12 8 14.5t8 14.5l15 26q8 13 10 14q1 0 24 -26q43 -49 90 -111l13 -17l17 -24l15 -20l6 -9l24 -34q3 -3 7.5 -9.5l7.5 -10.5t7 -10l24 -36l11 -15q5 -7 13 -20
l11 -14l9 -14l27 -39l26 -39l25 -39l14 -21l20 -30q32 -50 37 -56l6 -8q7 -10 35 -47q8 -11 7.5 -12.5t-2.5 -1.5t-4 -2.5t-6.5 -2t-5.5 0t-6.5 -0.5t-7 -1t-6 0.5t-6.5 -0.5t-4 -1t-4.5 0t-3.5 -0.5t-4.5 0t-4.5 0t-4.5 -0.5t-10.5 -0.5t-8.5 0t-4 -0.5t-4 1t-4 -1t-6 -1
t-6.5 1.5t-4 0.5h-2q-4 -3 -20 -3q-3 0 -14.5 -0.5t-17.5 -0.5q-24 1 -25 0q-2 -1 -10 -1t-10 -0.5t-3 0.5q-1 0 -10.5 -0.5t-10.5 -0.5q-1 -1 -9 -1q-7 0 -9 -1q-6 0 -8 2q-1 0 -2 -1t-4 0.5t-5 0t-3 -0.5h-4l-3.5 -1t-4.5 -1.5t-3.5 0.5t-3.5 0.5t-7.5 -0.5t-12.5 -0.5
t-8 0.5t-3.5 0t-2.5 0q-3 2 -8 -1q-2 -1 -5 0q-4 3 -6 0q-2 -1 -3.5 0t-4.5 0t-6 0.5t-4.5 0t-7.5 -1.5q-9 0 -20 -1q-5 -1 -5 0t-3 1t-5.5 -1t-3.5 0.5t-18 -0.5q-5 -1 -7 0q-11 0 -11 1q-1 3 -3 0q-1 -2 -2 -1t-5 0.5t-6 0.5t-5 0t-13 -1q-23 1 -24 0t-3 0t-32 0h-20
q-22 0 -28 -1q-3 0 -8 -0.5t-7 -1t-3 0.5zM562 122h-2q-4 0 -4 -0.5t3 -0.5t3 1zM714 126l-2 1l-3 -1q1 -1 5 0zM742 126.5q11 0.5 12 1.5h-12h-17.5t-4.5 -1t8 -1q3 0 14 0.5zM702 127h-2l1 -1zM771 129q1 1 -10 0l-5 -1q1 0 7.5 0.5t7.5 0.5zM798 129q3 1 -1 1h-8h-12
l8 -1q9 -1 10.5 -1t2.5 1zM816 130h1q-2 1 -5 1t-6 -0.5l-3 -0.5q1 -1 5.5 -1t7.5 1zM823.5 129.5q0.5 0.5 -1.5 0.5q0 -1 0.5 -1t1 0.5zM410 314q23 8 31 31q4 12 1 27q-5 23 -28 36q-14 8 -32 3q-20 -5 -30 -21q-7 -11 -7 -24q0 -10 2 -17q9 -25 31 -34q15 -5 32 -1z
M951 385q-9 9 -10 9t-2 -2.5t-4 -2t-4.5 2.5t-2.5 2t-4 3l-4 4q0 2 -2.5 3.5t-3.5 3.5t-3 5q-7 6 -10 11q-1 2 -4 3q-4 1 -3 5q0 1 -1.5 2.5t-2.5 3.5t-5 5.5t-5.5 6t-3 4t-3 4.5t-6.5 9.5t-6 8t-2 1.5t-3 1.5t-2 2.5q2 2 -5 9q-2 2 -4.5 5l-6 7t-3.5 5.5t-2 3.5q-5 3 -7 9
q0 2 -3 4.5t-3.5 4t-3 3t-2.5 2.5t-3.5 4.5t-5 7t-3 4.5t-2 3t-5.5 7t-5 6t-4 5q-9 9 -9 14q0 1 -3 3t-3 3t-3.5 5t-4.5 5t-2 3t-3 2.5t-2.5 3.5t-5 8t-6 8t-3 3.5t-2 3t-2.5 3.5t-2.5 2.5t-1.5 2t-2.5 3.5t-4 5t-2.5 3t-4 6t-6 6q-2 2 -2 3.5t-2.5 4t-2.5 3.5t-2.5 3
t-2.5 3.5t-2.5 2.5t-3 3.5t-3.5 5.5t-5 6q-4 7 -7 10q-1 1 -3 4.5t-5.5 6t-5.5 6.5q-4 8 -11 15q-4 4 -6.5 8t-7.5 9.5t-5 6.5q0 2 -9 11q-2 2 -2 3.5t-3 4t-3 4t-5.5 6.5t-5.5 6t-2 2.5t-3.5 5t-5 7t-6 6.5t-5.5 7l-4.5 6t-2 2.5t-5 6.5t-5.5 6q-1 1 -14 18q-4 6 -6.5 8
t-6.5 7t-16 19l-14 18l-16 18q-5 5 -5 6t4 11l8 21q8 23 15 39q2 4 2 4.5t2 4.5q1 3 5.5 13t5 11t4 9.5t11.5 25.5l13 28l10 20l10 21l10 22l4 8l3 8l7 15l55 114l14 29q13 26 15 29q2 4 12 26l6 12q2 4 3 7t2.5 5.5t5 11.5t6 13.5t2.5 5t3.5 8t3.5 8.5t1.5 3t1.5 3.5t1.5 3
t1.5 2.5t2.5 6.5t4.5 11.5q3 6 11 25q1 3 3 7.5t4.5 9.5t3 7.5t2.5 5t2 3.5q0 2 5 13l4 8l7 15l3 8l4 8q2 4 3.5 8.5t6.5 15.5q2 3 2.5 4t3.5 7.5t4 7.5q1 2 2 5q0 2 3 6t3 5.5t2 5t3 7t6.5 15t6.5 14t3.5 6t2.5 4.5q0 5 4 10q1 1 1 2t3.5 8.5t3.5 8.5t2 3q5 6 5 10
q0 1 1 1.5t1.5 -0.5t1.5 -7q3 -23 3 -30q1 -7 2 -18q3 -28 5 -56q1 -16 1 -21q2 -11 3 -42q0 -10 1 -23l2 -33q1 -19 3 -60q2 -42 3 -57q2 -31 4 -90q0 -10 1 -47l3 -106q2 -72 3 -90q1 -19 1 -39q1 -34 5 -76q1 -9 1 -22q1 -13 2 -13q0 -1 5 -43q2 -19 5 -42q1 -7 2 -10
q2 -9 4 -33q1 -7 1.5 -12t3.5 -29q3 -28 6 -52l2 -22q1 -10 3 -24l2 -27l2 -25q1 -13 1 -16q3 -18 8 -149q2 -45 3 -65q0 -8 -1 -10t-10 7zM831 757q3 2 -1 2t-1 -2q1 -1 2 0zM795 982q5 1 13 5q22 11 25 32q0 4 1 5q2 4 -1 18q-2 8 -9.5 17t-15.5 13q-10 6 -20 6
q-25 2 -41.5 -15.5t-12.5 -40.5q5 -24 30 -36q15 -6 31 -4zM161 106q-2 1 -21.5 1t-21 0.5t-6.5 -0.5t-9 -0.5t-8 0t-7 0.5q-6 2 -16 2h-3.5h-8.5t-13 1t-9 1q-17 0 -28 2h-14.5t-11.5 1.5t-11 1.5q-14 0 -15 5q0 4 4 9q4 3 22 30l21 31l42 59l9 14q38 57 41 63q2 4 3 5
t2.5 3.5l7 11.5t7 11t4.5 7q14 21 46 75l4 6q2 4 4 7l8 13l10 16l6 12q4 6 6 9.5t6 9.5l13 22l11 18q2 4 8 15l8 13l11 19l14 25l15 27l38 67l11 18l14 24l12 21q6 11 9 11q2 1 24 -25l7 -8l11 -12l10 -12q3 -4 7 -8.5t7 -8.5q8 -9 27 -35l20 -26l51 -69q18 -27 26 -37
l7.5 -11t8 -10.5t5.5 -7.5l12 -18l22 -32l20 -29l34 -50q51 -74 57 -85q5 -9 21 -32q48 -74 51 -77q2 -2 6 -8q19 -29 41 -55q5 -6 0 -7q-3 -1 -3 -4q-1 -5 -4 -4q-4 2 -11 -1q-2 0 -6 -0.5t-9.5 -1t-6 0.5t-1.5 0t-4 -1t-5 -0.5t-4 0t-3 0t-8.5 -0.5t-8.5 0.5t-5 0
t-11.5 -0.5t-9.5 -1t-6 -1q-6 1 -26 1q-12 -1 -14 -1q-4 -3 -11 -1q-4 1 -6 0t-8 0h-11q-2 0 -5.5 0.5t-12 -1t-9.5 -0.5q-5 0 -16.5 -0.5t-13.5 -1.5t-7 0t-7.5 0t-9 -1.5t-8.5 1t-3.5 0t-8 -1t-8.5 -0.5t-4 -0.5t-7 0.5q-7 0 -17 -1q-12 0 -13 -0.5t-3 0.5t-5.5 0t-5.5 0
t-3.5 0.5t-5 0t-4.5 -0.5q-1 -3 -6 0q-2 2 -3 1q-2 -1 -18 -2q-6 0 -8 -0.5t-13 -0.5q-22 1 -33 0q-10 -1 -11 0t-5.5 1t-5.5 -1t-7 -1t-9 1t-7 0t-7 0.5t-8.5 1t-6.5 -1.5q-3 -3 -9 0q-2 1 -3.5 0t-5.5 0t-14 0t-12.5 0t-4.5 0.5t-20 -0.5t-21 -1t-4 -0.5t-2.5 0.5t-2 -0.5
t-6 -0.5t-9.5 1q-3 1 -6.5 0t-15.5 -0.5t-19 0.5q-24 -2 -27 0zM410 315q18 7 27 24q4 9 5 15q1 12 -2 23q-5 13 -15.5 23t-22.5 12q-10 1 -21 -2q-12 -3 -20 -10q-20 -18 -16 -41q3 -18 17 -32q10 -10 22 -13q14 -3 26 1zM936.5 376q-0.5 1 -0.5 2h2q1 -1 0 -2t-1.5 0z
M951.5 384q-8.5 8 -9.5 8q-2 0 -1 -8q0 -3 -1 -4.5t-1 0.5q-1 3 -7 2q-2 -1 -2 0.5t-1.5 3.5t-2 3.5t-2.5 1.5t-3 2t-3 1.5t-3.5 1.5t-1.5 4t-2.5 4t-2.5 3q0 2 -3.5 7t-5.5 5t-6 8q-1 1 -1 3t-2 2t-2 2q-1 4 -4 4q-2 0 -3 2.5t-3 4.5t-2 4.5t-4 6t-4 5t-2 5t-3.5 3.5
t-1.5 0.5t-5 5.5q-7 8 -9 12t-3.5 5t-2.5 3t-4 4t-4 5t-2 3.5t-4.5 5.5t-3.5 7t-2 3.5t-2.5 3t-2.5 1.5q-4 1 -5 6q0 2 -1.5 2.5t-3 2.5t-4.5 5t-5 7q-5 9 -8 10q-4 1 -4 5q0 3 -2 6q-6 5 -5.5 5.5t-0.5 2t-1.5 3t-2.5 2.5q-3 1 -5 6q-1 3 -2 3t-6.5 7t-6.5 9q-1 3 -5.5 8
t-4.5 6.5t-2.5 2.5t-3 3t-4.5 6t-4 5.5t-3 4t-3.5 4.5t-2.5 3t-3 4t-3 4t-3 4.5t-3.5 4.5t-2.5 3t-2 3.5t-3 3t-3 2.5q-3 2 -3 5q0 2 -2.5 4t-3.5 4.5t-5 7.5t-6 8t-5 5q-7 3 -7 9q0 1 -2.5 4t-2.5 4t-2 2.5t-3 3t-3.5 4t-4 6t-6.5 8.5t-5 5.5t-5 7t-6.5 9.5t-3 3.5
t-2.5 3.5t-5.5 7t-8.5 10t-7 9t-7 9l-9 11q-4 5 -6 8t-5.5 6.5t-6.5 8t-6 7.5t-5 6.5t-4 4.5t-4 4t-5.5 7t-7 9t-6.5 8t-4.5 5l-5.5 7l-10 11q-5 7 -10 12t-5 6.5t4.5 13.5l7.5 20t5 14q10 25 12 28q5 10 5 13l2.5 5t3 7t1.5 3.5t4.5 9.5t5.5 14l6 11l7 16l8 18q4 8 7 13
q2 5 8 17l18 39l12 28q4 7 25 50l34 69l15 32l22 46l7 14l9 20l15 34l7 17q3 6 4 9q1 4 11 25q2 4 3.5 8t4 8.5t3.5 8t2 5t3 7.5l5 11q12 26 12 27l4 8t5.5 12.5t2.5 6.5q12 23 12 26l7 14l7 14q0 1 14 32l12 25q5 10 5.5 12t2 4t1.5 3t2 5q4 8 5 2q2 -8 6 -47q0 -8 1 -12
q0 -6 3 -42q3 -32 4 -58q2 -36 5 -78q6 -105 9 -192v-24q1 -10 2 -50q1 -37 2 -64q1 -24 2 -55q0 -31 1 -50q1 -17 1 -37q3 -90 8 -120q1 -4 3 -21l4 -37q4 -30 5 -36q2 -9 4 -32l3 -21q3 -25 5 -44q1 -13 4 -34q1 -12 3 -32.5t3 -28.5q0 -8 2 -30l2 -26q3 -36 5 -98l2 -47
q1 -27 1.5 -38.5l1 -23.5t-0.5 -12.5t-9.5 7.5zM831.5 757.5q0.5 0.5 -1 0.5t-1.5 -0.5t1 -0.5t1.5 0.5zM794 984q11 1 23 10q12 8 16 27v11t-1 10q-4 15 -17 25.5t-28 10.5q-35 1 -48 -27q-8 -16 -4 -31.5t18 -25.5q11 -8 24 -10q6 -1 7 -1h3t7 1z" />
  </g>

</svg>
