<?xml version="1.0" standalone="no"?>
<!DOCTYPE svg PUBLIC "-//W3C//DTD SVG 1.1//EN" "http://www.w3.org/Graphics/SVG/1.1/DTD/svg11.dtd" >
<svg viewBox="0 -200 1000 1000">
  <g transform="matrix(1 0 0 -1 0 800)">
   <path fill="currentColor"
d="M617 363h-16q-15 1 -40 1q-12 0 -35 1l-37 2q-13 0 -23 1q-14 0 -34 0.5t-21 0t-2.5 1t-13.5 15.5l-50 57l-18 22l-4 5l-10 -1q-13 -1 -20 2q-6 3 -11 14q-5 13 -1 23q2 7 -2 12q-14 13 -14 15l-2 1q-4 4 -6 7q-1 2 -1.5 2t-2.5 2q-4 7 -6 9q-1 0 -3 3t-4 5q-9 11 -13 15
l-4 4q-9 12 -12 12h-12t-16 -1q-23 -2 -32 -1h-12q-26 0 -28 2q-1 1 -12 1q-65 1 -68 3q0 1 -1 8l-1 8h3q6 0 38 -1h18q20 0 21 2q1 1 1 19q1 27 1 30l-1 2h5h16q18 1 30 1h5v-4q1 -5 0 -35v-13q0 -3 14 -3q10 -1 23 -1.5t14.5 -0.5t3.5 -2.5t12.5 -13.5t12 -13t11.5 -11
l25 -28q16 -18 18 -18q6 0 16.5 -3.5t13.5 -7.5q5 -4 7 -15q1 -9 -2 -17q0 -1 5 -7q11 -12 30 -36q15 -19 32 -37q12 -12 14.5 -13.5t8.5 -1.5t8.5 -0.5t3.5 1.5t1.5 22t1.5 35q2 18 2 52q0 18 1 34v16h5h16h28q86 -1 126 1q12 0 12.5 -0.5t0.5 -2.5l-3 -45q0 -14 -3 -48
q-5 -59 -4 -65q0 -2 2 -2q11 -2 20 -2l4 1l-1 -6q0 -5 0.5 -7.5t-0.5 -3t-6 -1.5l-4 -1l-2.5 -0.5t-7 -0.5h-9.5v0z" />
  </g>

</svg>
