<?xml version="1.0" standalone="no"?>
<!DOCTYPE svg PUBLIC "-//W3C//DTD SVG 1.1//EN" "http://www.w3.org/Graphics/SVG/1.1/DTD/svg11.dtd" >
<svg viewBox="0 -661 1000 1000">
  <g transform="matrix(1 0 0 -1 0 800)">
   <path fill="currentColor"
d="M601 -661h1h-1zM522 -660h1l-1 -1v1zM558 -659q-1 1 -2 1l-1 -1l1 2v2h-1v1l-1 -1q-2 -2 -2 0q-1 0 -1 -1t-1.5 -1t-1.5 -1l-1 1q-1 1 -2 1t-0.5 1t0 1t-1.5 -1q-2 -1 -3 1h-1q0 -1 -2 -1l-2 1v-1q0 -1 -1 -1t-2 -0.5t-1 0.5t-0.5 1t-0.5 1v1q-1 -1 -2 0l-1 2v-2v-1.5
v-0.5l-2 1l-1 1l-2 -1l-1 -1v-1t-0.5 -0.5t-2.5 0.5t-3.5 1.5t-3.5 1.5l-7 2l-4 1l-1 -1q-1 -1 -2.5 -1t-1.5 1q-1 3 -3 -1v-1v1q0 2 -1 3l-1 1l-1 -1l-2 -1l-1 1l-2 2l-1 -2q0 -1 -1 -0.5t-1.5 0t-1.5 -0.5t-3.5 0.5t-3.5 1.5h-2l1 -1h-1q-1 0 -1 1h-5l-1 1h-1q0 1 -0.5 1
t-0.5 -1h-1l-1 1v-1q-1 0 -1 -1t-2 -1t-2 0.5t-2 1.5l-1 1h-1q-1 1 -2 0t-2.5 -1t-2 0.5t-1.5 0.5t-1 0.5t-1 0.5h-1h-1l-1 -1l-1 1q0 1 -1 1t-1 1l-1 -2l-1 -1q0 1 -2 2t-2 2h-2q-3 0 -3 -0.5t-1 -0.5l-1 1q-6 -1 -6 2h-2q-3 -3 -3 -1h1t1 1t-0.5 1t-1 -0.5t-1.5 0t-1.5 0
t-0.5 0.5h-1v-1q0 -2 -2 0l-5 1h-1h-1v-1l1 -1h-3q-2 1 -2.5 0.5t-1.5 1t-1 2t-2 0.5h-2h-4h-2l-1 1h1l-2 1q-1 0 -2 -1t-1.5 0t-1.5 0.5t-1 0t-1 0t-2.5 0.5t-1.5 2v1l-1 -1q-1 -2 -2 -2h-2h1l1 -1q-1 0 -2 1t-4.5 0.5t-4.5 0.5h-4l-0.5 0.5t-0.5 1t-0.5 0.5t-0.5 -1h-1
q-1 0 -1 0.5t-2 0.5t-3 1v1l-2 -1h-2q0 1 -1.5 1h-2.5q-1 1 -5 1q-1 0 -1.5 0.5t-2.5 0.5t-2.5 1t-2 1t-2 0.5t-2.5 0.5h-3h-2q-1 1 -1.5 0.5t-2 1t-2.5 1.5t-3 1h-1h-1q-3 -2 -4 -1t-5 1t-5.5 1t-4.5 1l-2 -1l-1 2v1l-2 -1h-2h-1l-1 -1q0 1 1 2v1q-1 -1 -2 -0.5t-1 0t-2 0
t-2.5 0t-4.5 -0.5h-4l-1 1q-1 1 -1 2q0 3 -4 1q-1 -1 -1.5 -0.5t-1.5 -0.5q-2 -3 -4 0l-2 1l-1 -1l-1 -1v1l-1 2q0 1 0.5 1t0.5 -1h1q1 1 1 2l-1 1v-1l-1 -1v1v2v-1l-1 -1v1q0 1 -1 1.5t-1 -0.5v-2l-2 -1l1 1l-2 1l-1 -1l1 -1q1 -2 2 -2h1h-1q-2 -2 -5 0l-1 2l1 1l1 1h-1h-2
l1 2v3h-1q-1 0 -2.5 -0.5t-1.5 0.5t-2 3t-2.5 1.5t-1 1t-1.5 1.5h-1v1q1 1 0.5 1.5t-0.5 1.5t-0.5 1t-0.5 0.5t-0.5 1t-0.5 1.5h-1q-1 0 -1.5 1t-1 1t-0.5 1t-1.5 2t-1.5 3t-1 2t-1 1v1v3v2l-1 2q-2 1 -2 3.5t-1 3.5t-2 6q0 7 -0.5 7t-0.5 2.5t-1 3.5t-1 5q0 10 -2 10l1 1v1
v3q-1 3 -1 4t-1 2l-1 2v2q2 5 0 18q-1 7 -0.5 7.5t-0.5 1.5t-0.5 2t0 2.5t0 2t0 4.5t-1 10t-1 10.5t0 5t-0.5 6.5q-2 14 -1 24q0 4 -1 4.5t-0.5 1.5t0 1.5t-0.5 12t-1 12t-0.5 1t0 4t0 5t0 1.5t-0.5 1t-0.5 3t0 2t0.5 2.5t-0.5 3.5t0 3.5t-0.5 4.5t0 2t0.5 1t-1 9t-0.5 10
q0 5 -1 23q-1 9 -1.5 11.5t0 4.5l0.5 2l-0.5 7.5t-0.5 8.5t-1 16q0 17 -3 18h-1l1 1l2 1v5q0 5 -0.5 8t-1 13t-1 10.5t0 7.5t-0.5 11q-1 7 -2 28q0 7 -0.5 7.5t-0.5 3.5t-1 4l-1 1l1 1q2 2 0 15q-1 7 -0.5 9.5t-0.5 10.5q-1 20 -1 30q0 7 -2 8l-2 1h2l2 1l-1 8v23v37.5
t0.5 32.5t-0.5 6l-1 1h1q1 1 2 31q0 4 1 17q1 3 1 11l1 8h-1v1l1 1v5l1 5h-1l-2 1h1q3 0 3 6q0 2 1 8t1 9q2 17 3 19q1 1 1 4.5t1 7.5q3 11 4.5 20t9.5 42l3 15l5 18l4 19l2 8l5 4q4 4 9 6.5t6 3.5q3 3 12 4q4 0 6 0.5t5 1.5q12 1 20 3q5 1 7 0.5t2 0t2 0.5t3 0.5t7 0.5l9 1
q-1 1 12.5 1.5t26 0.5h16.5q1 0 1.5 -0.5l0.5 -0.5q-1 -1 -2 -5l-2 -4l-1 -7v-7l2 -5l3 -9l4.5 -4.5l6.5 -6.5t3.5 -3t3 -2t4 -2t2.5 -1q3 -1 13 -2q10 0 22 7q4 2 9.5 7.5t5.5 7.5q0 1 0.5 1t3 6t3.5 9q1 9 -2 19q-1 3 -0.5 3.5t11 1t15.5 -0.5q4 0 55 1q12 1 29 1
t24.5 0.5t13 1t8 1t4.5 0.5h2l1 1q1 2 0.5 2.5t0 0.5t0.5 10t0.5 10.5t0.5 2v2.5q1 1 1 16t-0.5 15.5t0 1.5t0.5 3.5t-0.5 4t0 3t0 2.5t-0.5 8.5t-1 9.5t-0.5 5.5t0 6t-0.5 16t1 14.5t0 7q0 1 -0.5 7t-1 11l-1 10t-1 8t-0.5 9t-0.5 7t-1 4.5t-1 8t-0.5 6v2.5q-1 3 -1 7
q-1 18 -3 18v2t-0.5 4.5t-0.5 3.5t-0.5 1t-1.5 2.5t-1.5 2.5t-0.5 1.5t-2 2t-3 1.5l-9 6h-2l-1 1h-1l1 -1l-1 1q-1 1 -2 1q-1 -1 -1 0t-1 1.5t-1 1t-1 0t-1 0t-1.5 0.5t-4 1t-4 0.5t-2 0.5t-1.5 1t-5.5 9l-5.5 11q0 2 -0.5 2t-1.5 4t-3 8t-2 4.5v1v2t-1 3t-1.5 3.5t-1 3
t-0.5 8v7l2 4l5 12q3 7 5 13q4 7 5 11q0 2 1.5 3.5t1.5 2.5l2 5t2.5 5t0.5 2v1l-1 1q1 1 1 0q1 -1 10 6q8 6 11 5q1 -1 5 1q10 4 21 6q5 1 6 1.5t4 1.5q5 1 19 3q10 2 17 3q7 2 14 1h8l11 -4q11 -4 14 -5t9.5 -3.5t10.5 -3.5l6 -4q4 -1 7 -11q4 -11 4 -24q1 -15 -9 -42
q-1 -5 -1 -7t-2 -3q-1 -1 -2 -3.5t-0.5 -3.5t0 -1t-0.5 -2v-3q0 -2 -1 -2h-1v-3q1 -2 0 -4t-1 -3.5t-1 -1.5t-0.5 -1t-0.5 -1h-1h1l-1 -2q-1 0 -1 -0.5t1 -0.5h1l-1 -1q-1 -1 0 -2q2 -2 -3 -5l-4 -1v-2v-2h-2h-1q-2 0 -2 -0.5t-1.5 -3t-1.5 -3t-1 -1t0 -1.5h-1q-1 -1 -1 -2
t-1 -2l-1 1h-1q-1 0 -1 -1q1 0 0.5 -1t-1 -0.5t-1 -0.5l-0.5 -1v1v1q-2 0 -1 -4q1 -3 -4 -9q-2 -2 -1.5 -3.5t-0.5 -1.5t-1 -1.5v-4.5q-1 -4 -2 -21q-2 -19 -1 -23q0 -2 -1 -8q-1 -11 -2 -46q0 -13 -1 -35q-1 -6 -1 -36t1 -32q0 -3 -0.5 -10.5t-0.5 -12.5q3 -19 3.5 -19.5
t0 -2t1 -11t2 -15t1.5 -15t1.5 -15t0.5 -9.5q2 -15 3 -29q1 -20 2 -22q1 -1 0.5 -1t0.5 -8t1 -10t0.5 -5.5t1 -11.5t1 -11.5t1.5 -12.5t1.5 -12.5t1 -7.5t0.5 -7t0.5 -8.5t1 -8t0.5 -10.5l1 -12q0 -13 2 -30q0 -7 1 -18q0 -15 1 -39v-33v-33q-1 -11 -1 -22t-0.5 -14.5
t-0.5 -7.5l-1 -9q0 -4 -1 -12q-1 -9 -1 -24q-1 -6 -1 -6.5t-0.5 -8.5t-1.5 -17t-1 -15.5t-0.5 -8.5t-1 -8.5t-0.5 -8.5t-0.5 -8t-1 -10t-0.5 -9.5t-0.5 -6t-0.5 -9t-0.5 -12t-0.5 -5t-0.5 -5t0 -4.5t0 -3t-0.5 -6t-1 -11q0 -12 -1 -45q0 -11 -1 -19v-8l-2 -3
q-3 -3 -2.5 -4.5t0 -1.5t-0.5 -6q2 -25 -1 -57v-9v-3q-1 -10 -2 -25q0 -7 -1 -11q0 -5 -1 -24t-1 -20q-1 0 0 -1t0.5 -2t-0.5 -4q-1 -15 -3 -20q-1 -3 -0.5 -4t-0.5 -1.5t-1 -1.5t-1 -5t-2 -6q0 -8 -3 -10q-1 -2 -3.5 -4t-3.5 -2.5t-1 -3.5t-1 -3t0 -1h-1q-2 0 -2 -1.5
t-0.5 -1.5t-1.5 -1l-2 -1l1 -3v-2l-1 1l-1 -1q-1 -2 -1 -2.5t-1.5 -1.5t-1.5 -2t-0.5 -1t-0.5 1q0 3 -3 1l-1 -1v1q-1 1 -1 0v-1l-1 -2q-2 1 -2 0h1q0 -2 -4 -3q-2 0 -2 -2l-3 1q0 1 -1 0l-1 -1v1l-1 -1q1 0 2 -1l1 -1h-2q-1 0 -1 -1h-1v1l-1 -1l-1 2q1 1 0.5 1.5t-1.5 -0.5
q0 3 -3 -1h-1l-4 -1q-4 -3 -8 0l-1 1l-3 -2q-3 -4 -3 -2q0 3 -4.5 0.5t-5.5 -2.5h-0.5t0.5 -1v-1l-2 1q-2 0 -2 1q-1 1 -2.5 1t-1.5 -1l-1 -1l-1 1q-1 1 -2 0t-3 0h-2v-1q-1 -2 0 -3zM535 -654h-2l-1 -2l2 1zM546 -655v1v-1v0zM550.5 -653.5q-0.5 0.5 -1.5 -0.5l-1 -1h2
q1 1 0.5 1.5zM548 -653q-1 1 -1 0t0.5 -1t0.5 1zM574 -652.5q0 0.5 -1 0.5t-1 -0.5t1 -0.5t1 0.5zM521 -652h-1v0h1zM523 -651l-1 1v-1q1 -1 1.5 -1t-0.5 1zM498 -651q0 1 -0.5 1t-0.5 -1t0.5 -1t0.5 1zM520 -651q0 1 -0.5 0.5t0.5 -0.5zM578 -651v1l-1 -1h1zM542 -650v0v0z
M557 -649v0v-1v1zM510 -649l-1 1v-1h1zM619 -647l-1 1v-1h1zM489 -647h-1l1 -1v1zM507 -647v0v-1v1zM611 -646v0v0zM616 -646h-1h1zM624 -646l-1 1v-1h1zM624 -643v0v0zM396 -640q0 1 -1 0h1zM634 -639h-1h1zM419 -636v0v-1v1zM382 -636v1v-1v0zM371 -634v1v1q-2 0 -1 -2
q1 1 1 0zM370 -633v0v0zM366 -630v-1q1 1 0 1zM373 -631v1l-1 -1h1zM349 -630h-1h1zM335 -627v-1v0q1 0 0 1zM351 -628h-1h1zM333 -624q0 1 -0.5 0.5t0.5 -0.5v0zM311 -623v0v-1v1zM310 -621v1l-1 -1h1zM333 -619h-1v0h1zM300 -618h-1v-1zM333 -616l-1 0.5t-1 -0.5t1 -1t1 1
zM328 -616v1v-1v0zM261 -615h-1h1zM232 -607l-1 2v-2q0 -1 1 -1v1zM234 -606h-1q0 -1 0.5 -0.5zM237 -605h-1h-1h2zM231 -603v0v-1v1zM210 -582v0v-1v1zM209 -581h-1h1zM207 -575h-1l1 -1v1zM207 -573q-1 1 -1 0h1zM203 -567l-1 1v-1h1zM437 -519l1 2l-1 1h1q4 0 9 10
q0 1 2 3l5 10q4 6 5 8t3 4l2 4q1 1 1 1.5t1 1.5q8 14 12 17q1 2 2 3.5t1.5 1.5t1 1.5t3.5 6.5l5 5l3 5q2 3 2.5 4t3 4t3.5 5.5t2.5 4t4 6t4 6.5t2.5 6l2 4l-1 -1h-2l1 1q1 1 0.5 2.5l-0.5 1.5q0 -1 0.5 -0.5t0.5 1.5t-0.5 1.5l-1.5 1.5q0 -2 -1 -4l-1 -1l1 2h-2q-1 1 -3 0
l-1 -1v1h-2q-1 -1 -2 -1h1q1 -2 0 -2t-0.5 -1l0.5 -1h1q0 -1 -2 -1q-3 0 -3 -3l-1 -1q0 1 -1 1h-1q0 1 -0.5 1.5t-1.5 -0.5t-3 -1q-1 0 -1.5 -1t0.5 -2v-1l-0.5 0.5t-2 0.5t-1.5 -1q0 -2 -3 -3q-1 0 -2.5 -1t-3 -1.5t-3.5 -2.5t-2.5 -2t-1.5 -1h-4q1 1 0 1.5t-1 2t-0.5 1.5
t-0.5 1q-2 0 -2 11v2q0 37 -1 52q-1 7 -0.5 7.5t0 1t0 2.5t0 2.5t-0.5 9.5t-1 10.5t0 2.5t0.5 11t-1 11t-0.5 3l1 2l-1 1l-1 1q1 0 1 2.5t-0.5 5t-0.5 3.5q1 0 1 2.5t-1 2.5v1l1 1l-1 7q0 7 -0.5 7.5t0.5 1.5l1 1l-1 2q-1 2 -0.5 2.5t1 11.5t0.5 12t-0.5 3t0 4t0.5 10
t1 17.5t1 24.5t0.5 16t0 8.5t0 9.5t0 3t0 1.5t0.5 2.5t-1 2h-1l1 1q2 2 2 16q-1 13 -1 14q0 2 -1 6q-1 6 -3 6q-1 0 -1 1t0.5 1t0.5 1q0 2 -2 0l-1 -1v1q-2 4 -6 3q-1 0 -1 0.5t-2 0t-3 0.5l-1 1l-1 -1l-1 -1q0 1 -2.5 1t-2.5 0.5t-2.5 0.5t-2.5 -1t-2 1l-2 2l-1 -1
q-1 -1 -2 0l-1 1l-2 -1l-2 -1l-3 2q-6 3 -6 2t-1 -1t-2 -2l-1 -2q0 1 -1 1t-1 0.5v0.5v-2l1 -1q-1 0 -1 -1v-1h-1l-2 1l-1 -2l-1 -2v-8v-10.5v-25.5q0 -79 1 -85q1 -3 0.5 -3.5t-0.5 -13.5t1 -30v-28q1 -11 1 -26q1 -30 1 -31q1 0 1.5 -9.5t0 -11t-1 -2t-2.5 -18.5l-1 -7
q-1 -5 -1 -16q-1 -13 -3 -13q-1 0 -3 1l-1 1h-1q0 1 -1 1.5t-3.5 2.5t-3.5 2t-2.5 1t-2.5 1v1l-1 1q-1 1 -3 2.5t-3.5 1t-1.5 0.5q1 3 -1 3t-2 0.5t-1 0.5t-3 1.5t-3 1.5h-1q0 1 -0.5 1t-1 1.5t-2 1.5t-2.5 1q-1 3 -5 3l-0.5 1t-1.5 0.5t-2.5 1l-2 2t-3.5 2.5l-3 2q1 0 0 1
l-1 -2l1 -1h-1q-1 1 -0.5 0t-1.5 -1q0 1 -1 2l1 1v1l1 1h-1q-2 0 -2 -1l-1 1h-1q-1 1 -2.5 1h-2.5h-1l1 -1q1 -1 1 -2q-1 -2 3 -8q10 -15 11 -17q1 -1 4 -5q15 -23 19 -26l2 -3l9 -12q2 -3 9 -12l6 -9l9 -11l11 -15l7 -9l12 -15l3 -5q2 -2 2 -3l2.5 -2l2.5 -2q1 0 2 1z
M435 -516q1 1 1 0h-1zM492 -430h1v0h-1zM473 -413h1v-1h-0.5t-0.5 1zM467 -412.5q0 0.5 0.5 0t0 -0.5t-0.5 0.5zM480 -411l1 1v-1h-1zM422 -407v1l1 -1h-1zM493 -403.5q0 0.5 1 0.5t1 -0.5t-1 -0.5t-1 0.5zM499 -401l1 1v-1h-1zM461 -399v1l1 -1h-1zM346 -398l1 1v-1h-1z
M505 -398l1 1v-1h-1zM376 -396h1v-1zM400 -389h1v0h-1zM348 -380v0v0zM354 -380v0v0zM349 -378h1h-1zM335 -369v0v0zM328 -367v0v0zM329 -366v0v-1v1zM402 -366h1v-1zM461 -358h1l-1 -1v1zM458 -291h1v-1zM406 -201h1v0h-1zM402 -200v0v-1v1zM424 -65v0v0zM414 -64l1 1
q0 -1 -1 -1zM427 -63h1h-1zM433 -62h1l-1 -1v1zM495 -397v0v0zM499 -396q-1 1 0 2h-1l-1 -1l1 -1l1 -1v1zM501.5 -394q-0.5 0 0.5 1v1q-1 0 -1 -1.5t-1 -1.5q0 -1 1 0t0.5 1zM501 -392h-1v-1zM504 -391h-1h1zM519 -390h-1l1 -1v1zM512 -387h-1v0h1zM517 -384h-1h1zM518 -383
v1v-1v0zM321 -362h-1l1 -1v1zM327 -362v1l-1 -1h1zM463 -75v1l-1 -1h1zM438 -61h-1v0h1zM423 -46h-2h1h1zM415 -44h-1h1zM395 12q35 2 51 3l15 2q9 1 13 2q9 1 33 4t27 4q1 2 0 3h-1l1 1v2q1 0 1 -0.5t2 -0.5l1 -1v-3v-3h2q3 1 3.5 1.5l0.5 0.5l1 1q2 1 7 2q2 0 7 2.5t5 3
t1 0.5t1 1t1.5 1t3.5 2t2.5 2t2.5 2t3.5 2.5t1.5 1.5t1 2t1 9t-0.5 8t0.5 3q1 8 -1 12v5t-0.5 3t-0.5 2t-0.5 3.5t-0.5 7.5t-1 10.5t-1.5 10t-1.5 9.5t-0.5 4t-0.5 2q-2 5 -2 13q0 1 -0.5 4.5t-1 6.5t-1.5 5.5t-1 5t-1 4.5l-2 2v5q0 6 -0.5 7t-0.5 2.5t-1 6.5q-1 10 -6 5
l-1 -1l-3 1q-1 0 -1.5 0.5t-0.5 1.5q1 2 7 1q2 -1 2 -0.5t-1 0.5q-3 0 -1 3h2q3 1 3 2l-1 1l-1 -1q-1 -1 -1.5 -1t-0.5 2t4 0q3 -1 7 3l1 2h-3h-3v-1v-1h-1q-2 1 -2 1.5t-1 -0.5t-1 0v3v4q-3 5 -3 6t-1 2.5t-2 2.5l-2 1q0 -1 -3 1q-2 0 -5.5 1t-3.5 1.5t-1 0.5h-1h-3h-2
q-1 -1 -4 0l-7 1h-1t-1 1l-2 0.5t-2.5 0t-3 0t-2.5 1t-1.5 0t-3.5 -0.5t-3 -0.5t-2 0.5t-16 0h-6h-1h-5t-5.5 -1t-1.5 0v2l-1 -2q-2 -1 -10 0h-3l-5 -1h-1q-1 -1 -4.5 -1t-4 0.5t-1 -0.5t-2 -1t-2.5 -1q-4 -2 -16 -1l-2 -1h-4t-3 1h-1q0 -1 -9 -1q-4 0 -13 1h-2h-1
q-1 0 -1 -0.5t-2 0.5l-3 1l-2 -1l-3 -1v1v1l-1 -1l-1 -1h-8h-8v1h-1q-1 -1 -1.5 -1t-3.5 -0.5t-5 -0.5t-2.5 -0.5t-3 -0.5t-2.5 -0.5t-5 -0.5q-7 0 -7 -2q0 -1 1 0v-1l-1 -1l-1 1v1l-3 -2q-2 -1 -4.5 -1t-3.5 -1t-2 -1t-1 -0.5t-2 -0.5t-5.5 -1.5t-6.5 -2.5t-3 -1.5t-1 -1.5
q-5 -5 -3 -10q0 -1 -0.5 -2t-0.5 -4q-2 -17 -2 -35q-1 -15 -1 -21.5t-0.5 -19.5t-1.5 -27q-1 -23 1 -33q0 -1 0.5 -6.5t0.5 -11.5l1 -10l1 -11l1 -6l1 -3q3 -3 9 -5l5 -2l16 -1q45 -2 80 0zM288 25h2l-1 -1h-2zM370 56h1v0h-1zM581 63v1v-1v0zM579 70h1v0h-1zM485.5 185.5
q-0.5 0.5 -0.5 1.5q1 1 3 -1h1l-1 -1q-2 0 -2.5 0.5zM487 188q0 1 0.5 1t0.5 -1t-0.5 -1t-0.5 1zM400 230v0v0zM383 236h1v-1zM413 236v1v-1v0zM288 222v0v0zM285 225h-1v-1zM294 233h-1v-1zM295 233h-1l1 -1v1zM305 236q0 1 -0.5 1t-1 -1t0.5 -1t1 1zM312 237l1 1h-2
q-1 0 -2 -1h-1h1h3zM314 238v1l-1 -1h1zM315 238v1l-1 -1h1zM316 239v0v0zM320 240h-1t-1 -0.5t1 0zM426 240v1v-1v0zM329 241.5q1 0.5 1.5 1t4 0.5h3.5h-9l-3 -2q2 0 3 0.5zM533 243v0v0zM443 250q1 0 0.5 0.5t-3 0t-2.5 -1t2 0t3 0.5zM446 250v1q-1 0 -1 -1h1zM555 250
l-1 1zM453 251h-5h-2h3q3 -1 4 0zM552 251q0 1 -1 1t-1 -1t1 -1t1 1zM548 252q0 1 -6 1l2 -1q4 -1 4 0zM549 251v1v-1v0zM465 252l-1 1q-2 0 -3 -1h1h3zM467 253v0v-1v1zM540 253q0 1 -2.5 1t-4 1t-4 0.5t-4.5 -0.5l-2 -1h4q3 0 7 -1q6 -1 6 0zM475 254h-2l1 -1zM489.5 254
q5.5 0 5.5 0.5t-6.5 0.5h-8.5l-2 -1h3q2 -1 2.5 -0.5t6 0.5zM521 254q1 0 0.5 1t-12.5 1t-12 -1t24 -1zM364 278h-1h1zM678 587h-1v-1zM680 590h-1v0h1zM579 610q1 1 -2 2t-5 0l-1 -1l2 -1q1 -1 3 -1t3 1zM695 611v0v-1v1zM566 612q0 1 -2 1h-2l1 -1h3zM571 612h-1h1z
M563 619q0 1 -1 1q-3 1 -6 3v-1q6 -4 7 -3zM704 619v0v-1v1zM687 624q0 1 -1 1t-1 -1t1 -1t1 1zM552 626q-2 4 -4 2q-1 -1 2 -3zM721 712v1v-1v0zM540 -659h1v-1zM552 -657q0 1 0.5 0.5l0.5 -0.5h-1zM584 -657h1l-1 -1v1zM554 -656v0q1 0 0 -1v1zM472 -656h1h-1zM528 -656h1
h-1zM522 -655h1l-1 -1v1zM458 -653v0v-1v1zM467 -652v0v0zM609 -652v0v0zM604 -651h1l-1 -1v1zM446 -651v1l1 -1h-1zM468 -651v1l1 -1h-1zM474 -651v1l1 -1h-1zM482 -651l1 1v-1h-1zM609 -651l1 1v-1h-1zM633 -649v1v-1v0zM398 -644l1 1v-1h-1zM418 -643.5q0 0.5 1 0.5
t1 -0.5t-1 -0.5t-1 0.5zM414 -643h1h-1zM394 -642q1 1 1 0h-1zM374 -638h1v-1zM382 -638v0v-1v1zM347 -634h1l-1 -1v1zM324 -634v1v-1v0zM645 -631h1l-1 -1v1zM641 -630q1 0 1.5 -0.5t-0.5 -0.5zM311 -629v1v-1v0zM324 -628h1v-1h-1v1zM312 -627h1l-1 -1v1zM296 -626
q0 1 0.5 1h0.5q0 -1 -0.5 -1.5t-0.5 0.5zM651 -624h1h-1zM288 -622v0v0zM219 -605q0 1 2 1h1h-1zM208 -586v1v-1v0zM674 -436v0v0zM176 -329v0v0zM154 -300q0 1 0.5 0.5t-0.5 -0.5zM694 -289v1l1 -1h-1zM712 -101v0v-1v1zM163 -13v0v-1v1zM165 72l1 1v-1h-1zM181 196
q1 1 1 0h-1zM244 397v0v-1v1zM336 442q1 1 1 0h-1zM682 590q0 1 0.5 1t0.5 -0.5t-1 -0.5zM576 594h1h-1zM689 594v1v-1v0zM693 601v0v0zM515 631h2h-1h-1zM712 640h1v0h-1zM275 644h1v0h-1zM178 667l1 1v-1h-1zM158 695h1v-1zM135.5 709.5q-0.5 0.5 0 0.5t0.5 -1zM540 715v0
v0z" />
  </g>

</svg>
