<?xml version="1.0" standalone="no"?>
<!DOCTYPE svg PUBLIC "-//W3C//DTD SVG 1.1//EN" "http://www.w3.org/Graphics/SVG/1.1/DTD/svg11.dtd" >
<svg viewBox="0 -200 1000 1000">
  <g transform="matrix(1 0 0 -1 0 800)">
   <path fill="currentColor"
d="M515 -77l-2 2l-15 2q-14 3 -18 3.5t-5 0.5t-2 0.5t-3.5 1t-9 2t-8 1.5t-13.5 3q-29 6 -41 8q-8 2 -15 3l-12 3q-4 1 -6 2q-19 4 -35 6q-23 4 -26 5q0 1 -5.5 2l-13.5 2.5t-11.5 2t-4.5 1.5l-2 1l-1 4q-1 4 -5.5 12.5l-4.5 8.5q0 3 -11 22q-3 6 -5 9l-1 2v7q1 8 1 8.5v5.5
v5l1 1h2l-1 3v3l-1 1q-1 0 -1 2l1 1q1 -1 3 -1l2 -1v2l1 1l4 -1q9 -1 11 -2t2.5 -1t6.5 -3.5l12.5 -7t7.5 -4.5h1v1h1l2 -1v2h2l1 -1v-2v-1h1l1 -1l4 1l2 4l4 3h2.5t1.5 1q2 2 5 2h2v1h3l2 1h3l2 1l3 2h-1q-2 0 -2.5 0.5t-3.5 1t-7 0.5q-6 1 -17 1q-7 1 -15 2l-3 1l-3 -1
q-4 0 -4 -0.5t-2 -0.5h-1v1q0 3 3 5l3 1l6 1l12 2q8 1 12 2q1 1 1.5 1t3 0.5t6 1.5t4 1.5t3.5 0.5q2 1 4.5 1.5t5 1.5t4.5 1.5t3 1t1 1.5h1h1v1l1 1l-3 1l-19 3q-4 1 -6.5 1h-4h-2.5h-2q-1 2 3 3q2 1 7 2l14 3.5t9 2t6.5 1.5t7.5 2t6 2l3 1l2 1h1v2v2l1 1l-4 2q-5 3 -5.5 3
t-3 1t-11.5 4l-9 5q1 0 6 1q32 5 68 16q11 3 16 4.5t8 2.5l4 1l1 4q3 6 6 13q2 7 3 9t1 3t0.5 1.5t1.5 4t5 16t5 17.5l1 4v11v10l-1 2l-2 2l-3 1q-11 4 -26 4h-6l-3 -2q-7 -7 -6 -11q0 -1 -0.5 -1t-1.5 -3t-1 -4q-2 -2 -2 -16v-10l-3 -3q-2 -3 -2.5 -3.5t-6 5l-7.5 7.5
q-2 3 -4 5l-3 2h-1l-2 -1v-3v-3l-1 -1q-1 -1 -10 -3q-6 -1 -15 -5l-6 -2h-4q-5 0 -6 -1t-4 -1q-9 -2 -14 -6h-3l-1 -1v-6q-1 -6 -1 -13q-2 -9 -3 -11h-1h-2q-3 1 -6 1h-3l-5 3q-13 6 -16 10q-1 1 -10 8.5t-9 8t-1 0.5t-1 1t-5 0h-1v-1q0 -1 -1 -3l-3 -6l-5 -11q-3 -7 -4 -9
v-2l-3 -3l-3 -4l-2 -4l-2 -4h-1q-1 -1 -2.5 0.5t-4.5 6.5q-4 7 -7 10q-5 6 -6 12l-2 14q0 6 -1 6v1q0 5 -8 1q-2 -1 -4.5 -2t-2.5 -1.5t-2 -1t-5.5 -2t-4 -1.5t-1 -1t-4.5 -2h-3l-2 -3l-3 -2h-3h-5h-2l-2 3l-3 2l-2 5q-4 7 -5 13l-1 3l-1 2q-2 2 -4 3h-1l-2 -1h-1l-2 -1
q-2 -2 -2 -3h-5q-5 0 -15 1t-17 2q-4 0 -8 1q-4 0 -7.5 9t-2.5 18q1 5 1 10t-1 6v1v1v2l-2 1q-2 0 -2 1q-1 0 -2 0.5t-2 0.5q-5 3 -8 3l-3 2t-4 2t-1 1v1l-4 -1h-3l-1 1q-2 1 -2 2.5t-1 6.5l-2 6h-1q-1 0 -2 1l-1 1l1 1q0 2 1 6t2 6q1 8 4 8l1.5 2.5t2.5 4t1 2t1.5 2t1.5 2
t1 2.5l2 2l1 3q0 3 0.5 3.5t2.5 3.5l2 3l1 4v1l-1 1l-4 2l-2 1h-2h-2q0 1 -1.5 1t-2 0.5t-4.5 0.5t-10 0.5t-7 0.5t-2 1v1l3 2q4 4 10 7q2 1 2 1.5t3.5 2t4 1.5t3.5 2q11 6 11 7v1h-3q-2 0 -5 -1h-3l1 2q2 2 6 3l10 6q2 1 3 1l2 1l1 2h1l1 1l-1 2l-1 1l-5 3h-3h-8l-7 1v1.5
t3.5 2.5t3.5 2.5t2.5 1.5t3.5 2q4 4 9 6q2 1 3.5 3t2 2t3.5 2t4 2t2.5 1.5t2.5 1.5h1l2 4q-15 6 -31 8l-9 3q9 4 10 4t1.5 0.5t4 2t4.5 2t3 1l4 1t8 2.5t7 2.5l1 0.5q7 2 13 5q4 2 8 3q3 1 4 1.5t3.5 1.5t3 1t2 0.5t2.5 1t5 1.5l4 1l1 3l1 4l2 5l1 6h6q6 0 6 -0.5t7 -0.5h7
v-1l1 -1v-5l1 -5q1 1 1 2v1h1q1 0 2 2q2 4 21 -1q15 -4 28 -7q9 -1 15.5 -2.5l15.5 -3.5q16 -3 27 -7q1 -1 11 -3t14 -3.5t5.5 -1.5t9 -2.5t12.5 -3.5q30 -7 30.5 -8t0 -3l-1 -4t-1.5 -4q-2 -6 -5 -17q-2 -8 -2.5 -9t-0.5 -2.5t-0.5 -2t-1.5 -3.5t-1 -5q-1 -4 3 -8l2 -2
l2 -1q2 0 3 -1q3 -1 17 -4q1 0 11 -3q10 -2 18 -3q2 -1 11 -2l13 -3q5 -1 8.5 -2t6 -1t5.5 -1q14 -4 16 -1.5t10 9.5q8 8 10 11l2 4l-2 1l-3 1l-1 1l-5 2l-1 1l-4 1q-1 0 -5 1t-7.5 1.5t-10 2t-8 1.5h-2.5v1h-3l-3 -1l-4 3q-3 2 -5.5 4.5l-2.5 2.5q-1 -1 -6 5q-8 12 -7 30
l1 10l4 3l5 3l3 2q7 5 11 7l6 4t4 2t4 3l3 2v4l-1 2q-1 1 -1 2q0 5 -4 13q-2 4 -2 7l1 2l-3 3l-3 4v1v2l5 2q5 3 9.5 4.5t6 2.5t7 3t7 2.5t8.5 3.5q13 4 13 5l-1 3t-1 6v3l2 6q3 6 3 8l1 3l3 1q14 5 15 6h1q1 -1 12 3l5 1h1h1v1v1h-1v1l1 1l-1 1q-1 0 -1 1q-1 1 -3 4t-2 3.5
t-1.5 2.5l-1.5 2q0 2 -14 20q-1 2 0 4q2 1 6 6.5t5 7.5l2 2l1 -1q1 -1 7 -9l7 -10q2 -2 2 -3q8 -8 10 -12q6 -7 7 -7l-0.5 2t-1.5 5.5t-2 7.5q-7 21 -10 29l-2 5l1 1q1 1 3.5 2t6.5 4l5 2h2l1 -1v-2q-1 -11 0 -13t1 -7.5t1 -11t1 -6.5v-1v1q1 1 1 4l2 2q0 -1 1 -3l1 -1v-3
q0 -8 1 -8t8 11t7 12l3.5 5.5t6.5 11.5l3 6h11q16 0 19 1q1 1 3 1h1v-1l1 -1l-5 -9l-15 -30q-4 -7 -4 -8l-1 -2l9 4q14 7 27 12q17 6 19 7l1 1v-1q1 -1 8 -10l8 -10l2 1h1l1 -1q1 -1 1 -3v-1l-2 -2q-3 -2 -12 -5q-3 -2 -5 -2q-8 -4 -9 -4t-2 -0.5t-7.5 -3.5t-9 -4t-3.5 -1
l-6 -3t-6 -4h-1h-1l-1 -1q0 -1 -1 -1l-3 -1l-3 -1l1 -2q0 -1 3.5 -4t4.5 -5t3 -3l2 -1l1 -5l2 -6v-3l-1 -4l-4 -8q-4 -8 -4 -9.5v-2.5l-1 -2l4 -5q9 -10 13 -14l4 -5q3 -4 3 -4.5t4.5 -7t5.5 -7.5v-1l-2 -4l-6 -8q-2 -4 -3 -5t-1 -1.5t-1.5 -1.5t-2.5 -4l-1 -2q-1 0 -1.5 -1
t-2 -2.5t-1.5 -2.5q0 -3 -3 -2l-1 1v-1q0 -1 0.5 -1.5t0.5 -1.5l-1 -1l1 -2l2 -1q0 -1 4 -10l2 -4l1 -2h1h2v-9v-8l-3 -3l-2 -3l-3 -1q-8 -5 -13 -9q-1 -1 -2 -1q-2 0 -4 -2q-1 0 -5 -2q-15 -8 -17 -8h-1v-1v-1v1l-2 -2v-2l-2 -3q-4 -6 -4 -3v1h-2q-2 0 -2 -1q0 -3 -3 -6
l-1 -1v-3q1 -4 1.5 -4h5t6.5 1q3 0 6 0.5t6.5 1t9.5 0.5h5l1 1q3 3 12 -2l3 -2l7 -7l8 -7q8 0 33 11q6 3 11 4q4 0 7 1l4 1v1q-1 0 0 2l1 1h2l2 1l2 -2q3 -1 5 -2q8 -3 16 -18l6 -18l2 -4h3h2l12 2l12 3l9 2l9 1l2 1q3 3 10 -1l6 -3l2 -2q3 -2 4 -4q5 -9 13 -17l3 -3l3 1
q3 1 6.5 3.5l3.5 2.5l4 2l7 5q19 12 20 13t5 3.5l4 2.5v-2v-1l1 1q2 2 6 7t9 10q5 6 20 26q5 6 8 9t5 6.5t4 5.5q5 6 10 15q4 5 4 -2q0 -6 -3 -15q-1 -4 -1 -8t-2 -11.5t-2 -9.5t-1.5 -5.5t-1.5 -8.5l-1 -5v-4v-5l4 -7l4 -7v-2v-2l1 -2q1 -1 1 -2q0 -2 9 -6q3 -2 5 -3
q10 -6 13 -6q1 0 1 -3q0 -1 -2.5 -3.5t-2.5 -3.5t-0.5 -1t-2 -3t-2 -3t-0.5 -1l-1 -1l-2 -2q-2 -4 -7 -12q-3 -5 -8 -15l-2 -3l-1 -1h-3h-1v-2q0 -2 0.5 -2.5t0.5 -3.5l1 -3l-1 -3l-1 -3v-3v-4l3 -3q4 -2 4.5 -2t3.5 -3t3 -3.5t3 -5t4 -6.5l4 -6l4 -6l3 -3h-1v-1h-25l-26 -1
l-7 -2q-7 -2 -10 -3q-4 -2 -5 -2t-1 -1t-0.5 -2t-0.5 -4v-2h-1l-1 -1v-3q-3 -15 -3 -21q-1 -5 -1 -7q-1 -8 -3 -29q-1 -12 -1.5 -17t-0.5 -6v-2h-2q-2 -1 -2 1q0 5 -11 27q-3 5 -4 6l-1 3l-7 13q-5 11 -7 14l-2 3l-2 4l-2 3h-1h-1l1 1v1h-1q-2 1 -2.5 0.5t-0.5 0.5v1l-1 -1
h-1l-1 1l-3 -1l-3 -1l-3 -3q-8 -9 -9 -11q-3 -7 -8 -13q-2 -2 -2 -2.5t-1.5 -2t-2.5 -3t-2.5 -3.5t-2.5 -4.5t-1.5 -2t-1.5 0.5h-1v2q-5 15 -6 17q-6 8 -8 24q-1 3 -1.5 3.5t-0.5 1.5v2h-1q-1 1 -11 1h-11l-7 1q-8 1 -10 1t-3 1t-4 1q-12 3 -17 5l-4 2q-3 1 -24 3
q-8 1 -11.5 2t-4.5 1t-5 2.5l-4 2.5q-1 0 -14 6q-11 5 -13 5.5t-4 2.5l-3 1l-13 1h-14l-4 1q-5 1 -7 2l-3 2l-3 -1l-3 -1l-1 1q-1 0 -2 2v1l-2 1q-2 0 -8 2q-5 1 -16 3h-2q-1 1 -8 2h-5l-1 -2q-1 -1 -1 -1.5t-1.5 -2.5t-2.5 -4q-1 -1 -13 -23l-2.5 -5t-1.5 -2.5t-1 -4.5v-2
v-1q1 0 1 -1.5t-1 -3t-1 -3t-0.5 -1.5t-2.5 -2l-1 -3v-2l2 -2t1 -2t1.5 -1.5t4.5 -4.5t16 -18q22 -22 22 -25l1 -1l1 -1l-1 -1q-1 0 -12.5 -0.5t-15 -0.5h-16.5l-12 -1h-1v-1v-2q1 -5 5 -7q1 -1 4 -5t10 -11q5 -6 6 -6q3 -1 4 -4l1 -2l-1 -1q-1 0 -3 -1q-27 -5 -32 -5
q-8 -1 -10 -2l-1 -2q1 0 1.5 -2t1.5 -3l11 -11q3 -4 3.5 -4t11.5 -10l4 -4l3 -1l4 -2v-1q0 -3 -10 -4q-4 0 -6 -1t-8 -1q-9 -2 -9 -4q1 0 1.5 -0.5l0.5 -0.5l2 -2l2 -2v-2l1 -2l4 -5l-1 -1h1q2 0 2 -2q0 -1 2 -2l2 -2h2h8h6l3 1h3v2q1 1 2.5 1.5t2.5 1.5t2.5 1t1.5 0.5
t2 0.5t6 2.5t8 4.5q6 2 20 11q3 2 5 2.5t3 2.5q9 8 13 8q3 0 1 -8q-5 -13 -6 -19v-3l1 -2v-1h2l1 -2l-2 -4q-4 -7 -9 -13q-6 -7 -10 -9q-1 -1 -4 -3t-17 -8l-19 -9q-15 -8 -15.5 -8t-2.5 1v0v0v0v0v0v0v0v0v0v0v0v0v0v0v0v0v0v0v0v0v0v0v0v0v0v0zM278 244l4 1v-1h1.5
t6.5 0.5t5.5 1t5.5 0.5h5l2 1l1 1v7l-1 6l1 6q1 9 0 10v2h-2q-2 0 -4 2l-1 1l-2 -1q-2 0 -4 -1.5t-4 -1.5q-10 0 -18 -8h-1.5t-2.5 -2l-2 -2v-1q0 -2 -1 -3t-1 -2v-2l2 1q1 0 3 0.5t3 1.5h2l-1 -3v-2l-1 -2q-7 -5 -5 -8t4 -2h5zM251 271q9 9 13 14l10 12q12 11 12 13l1 1
l-1 -1h-1v1q0 1 -0.5 1t-0.5 2.5t-0.5 2.5t-0.5 1q0 3 -9 4q-2 1 -8 3l-10 2.5t-9 1.5l-3 1h-5q-5 0 -6.5 -0.5t-2.5 -0.5h-2l-1 -2q-2 -2 -7.5 -5t-6.5 -3l-1 -1q0 1 -2.5 -1t-3 -2t-3 -2t-3.5 -2t-1 -1q-1 0 -2 -1t-4 -3l-2 -2v-2q0 -5 5 -12q2 -3 3.5 -5.5t3.5 -5.5l2 -3
h1q2 0 2.5 -1t4 -1.5t4.5 -1t4.5 -1.5t4.5 -2q5 -2 18 -3h3zM159 289q2 2 2 3t1 2h1l-1 1l1 1q1 1 5 10q3 5 2.5 5.5t0.5 0.5t4 8l1 4v4v3h-1q-1 0 -1 1v1h-2h-3l-3 -2q-2 -1 -3.5 -1t-3 -1.5l-1.5 -1.5q-1 1 -9 -7l-7 -8q-3 -3 -4 -5t-2 -3l-1 -1l1 -2v-2h-1v-2q0 -3 2 -3
q1 0 1 -1q0 -2 11 -4l5 -1q2 -2 5 1zM329 408v2h1h2l3 3q3 3 4 3l2 1l1 4q1 5 1 6l1 1l-2 1q-4 3 -8 5q-2 1 -4 2.5t-3 2t-3 2.5l-2 3h-1q-3 0 -4 -1l-2 -1h-2l1 -1l-1 -1l-2 -1v-3q-1 -3 -3 -11l-3 -9l1 -1v-1h2h2l2 -2q2 -2 4 -3t2.5 -1.5t3.5 -1.5l3 -1l2 1l2 1v1z
M274 421l1 1h1l2 6q2 6 3 7t2 5t2 7l1 3v1q0 1 0.5 1.5t-0.5 1.5v1l-4 1q-5 1 -7 1.5t-4.5 1l-7.5 1.5h-4v-1v-1h-2h-1l-2 -2q-2 -2 -2.5 -4.5t-1 -3.5t-2.5 -9l-2 -9l1 -2l1 -1l9 -3q9 -2 12 -3q5 -2 5 0zM215 428q4 7 4 15q1 3 1 4q1 1 3 7q0 3 1 4v1h-1h-1l1 1l1 1l-1 2
l-1 2l-2 1q-6 3 -14 4h-5l-2 -1l-1 -2v-2q-1 -6 -4 -11q-1 -1 -1 -2.5t-0.5 -2t0.5 -1.5v-1l-2 -1q-1 -1 -0.5 -1.5t-0.5 -1.5t-1 -1.5v-1.5h-1v-4v-4l1 -1q9 -3 14 -3q2 0 4 -0.5t5 -1.5h2z" />
  </g>

</svg>
