<?xml version="1.0" standalone="no"?>
<!DOCTYPE svg PUBLIC "-//W3C//DTD SVG 1.1//EN" "http://www.w3.org/Graphics/SVG/1.1/DTD/svg11.dtd" >
<svg viewBox="0 -200 1000 1000">
  <g transform="matrix(1 0 0 -1 0 800)">
   <path fill="currentColor"
d="M370 -184v1h-4h-4l-1 1h-1l-1 4v4.5t-0.5 4.5t-0.5 9v6t-0.5 1t-0.5 7v12q-1 15 -1 21q0 12 -1 20q0 3 -0.5 11.5t-0.5 12.5v11q-1 23 -1 28v5l-1 1v0h1v5v6v-1l-1 -1v1l1 1v11v11v1h1h-1v5v5v1l1 1h-1h-1h1v1v9v9v-1v-1v1q0 1 0.5 4.5t0.5 4.5v2v2l1 1v0h-1l1 1v1h-1
l1 2q0 1 1 4v2h-1h1v1l1 2v3v2v2h1v1v1l-1 -1l1 1v1v1v0l1 1v3v2h1v2v3v3l1 6q1 2 2 7q1 7 2 12l2 8v3v2v2l1 2q1 2 1.5 4.5t0.5 4.5l1 2h-1v0h1v2q0 1 0.5 2.5t1 4.5t0.5 3.5t1 3.5v2h-1v0l1 1h1v1v2l1 2v0h1v2q0 2 0.5 3.5l0.5 1.5v1h1v1q0 2 1 6t1 5.5t1 3.5t1 4t1 4l1 2
v2q0 5 1 9l1 2v3v2v1v1v1h1v2v1l1 3l1 2v2v1l1 2q0 2 0.5 2.5t0.5 1.5h-1v1v1l1 2v1v1h1l-1 1h1v1l1 1l-1 1v1v1l1 1v3v1h1v1q0 2 1 3l1 2h-1h-1h1l1 4q1 6 2 8v1q0 3 2 8v4v2l1 3q0 1 0.5 2t1.5 4v4v2v1v1q1 1 1 3v1h1v2v2l1 -1v1h-1v2q1 2 1.5 4.5t0.5 3t1 2.5l1 1l-1 1
h-1l1 1v1v-1h1v2v1h1l-1 1v2v1v1q1 0 1 2t1 3l1 2v1l-1 1l1 2q1 3 1 6q0 1 0.5 1t0.5 1v1h1l-1 1h-1v1q0 1 1 2.5t1.5 2.5t0.5 3l1 1v2l-1 2h1v1v2v2l1 1v1l1 1v1h-1v1h1v1l-1 1h-1l1 2t2 5l2 4l-1 2v3v1h1v1v1h-1v1l1 1v0l-1 1h1h1l-1 1v1h1v1h-1l1 1q0 4 1 5h1h-1h-1l1 1
v1l-1 1l-1 1v1q0 1 1 3v2l-1 1h1v0v1v0v1l-1 1l-1 1v1l1 1h-1l1 1l1 1h-1l-1 -1v3v2h-1v2v1l-1 1h-1v2l-1 1h1v0q-1 1 -1 1.5v0.5v1v-1h-1v1v1h1l-1 1h-1v1l-1 1l-1 1v1v1q-1 1 -2 3l-1 2l-1 1l-2 2h1l-1 1q-3 2 -3.5 2t-1.5 2l-2 1h-1v0q0 1 -1 1v1l-1 1q-4 0 -4 1
q-1 0 -2 0.5t-2 0.5h-1h-1h-2l-1 1l-1 1v-1h-1h-2h1v-1l-1 1h-1h-1l1 1h-3q-7 -1 -7 -2h-1h-1h-1l-1 -1q0 -1 -0.5 -1t-2.5 -0.5l-2 -0.5h-1v-1h1l-1 -1l-1 -1h-1h-1v-1v-1h-1l-2 -1l-1 -1l-1 -2h-1v0l-1 -1q-2 0 0 -1h1h-1h-1v-1l-1.5 -1.5t-1.5 -2.5v-1l-1 1v-1l-1 -1
l-1 -1h1v-1v-1v1l-1 1v-1v-1v-1l-1 -1v-1v0h-1v-1l-1 -1h1v-1l-1 1v1h1h-1l-1 -1v-1v-1v0v-1h-1l-1 -1v-2l-1 -1l-1 -1h-1q0 -1 1 -1l1 -1h-1l-1 1v-2v-1l-2 -3l-1 -1v-1v-1l-1 -1l-1 -1v-2v-2h-1v-2l-1 -2h1h-1l-1 -2l-1 -2v-1l1 -1h1h-1h-1l-1 1v-1l1 -1v-1q-2 -1 -1 -2
l-1 -1l-1 -3v-1v-1v-1h-1v-1q-1 -2 -1 -3v-1h-1l1 -1v-1l-1 -1h-1v-2v-3v-2h-1l-2 -1h1v-2v-3v-1v-2l-2 -2l-1 -2v-1h-1h1v-1h-1v-2v-1l-1 -1h1v-1v-2v-1h-1v-1v-1h-1v-1l-1 -2v-1v-1v0v-2v-1h-1h-1v-1v-1v-2v-1l-1 -1v1h-1v-1q1 0 1 -1v-1v-2v-1v0v-2v-2v-1v1l-1 -1v-2
l-1 -1l1 -1h-1v-1v-2v-2h-1l1 -1v0h-1l1 -1v-3v-3v-1v-1v-1h-1v-1h-1v-1q1 -1 1 -2h-1v-2v-1v0v-2v-2h-1v-1v-1h1l-1 -1v-4v-1h-1h-1v-1l1 -1l1 -1v-1h-1v-1v-3v-1h1l-1 -1v-1q0 -2 -2 -4v-1h1v-1q-1 -1 -1.5 -1t0.5 -2v-1h1h1h-1l-1 -1v-1l-1 -1l1 -1v-2h-1v1l-1 -2v-2h1
v-2v-2v-1h-1v-5v-5v-1l-1 -1l-1 -1h1h1v-1h-1v-2l1 -1l-1 -1v-1v-2v-2h-1v-1l-1 -1l1 -1h1v-2v-3h-1l-1 -1l1 -1v-2h-1v1v-2q0 -2 1 -2v-1l1 1v-1h-1l-1 -1h1v-1h-1v-1v-2l1 -1h-1v-1v-2v-2v-1h1v0h-1v-1v-2h-1v-2l1 -1l-1 1v-1v-1h1l-1 -1h-1h1v-1q0 -1 -1 -1v-1v-2l1 -2
l-1 -1v-2v-1v-2h1h-1v-1v-3l1 -2l-1 1h-1l1 -1v-1h-1v-2v-3v-1v-2l1 -2l-1 -1l-1 -1l1 -2q0 -1 1 -2v-1l-1 -1h-1h1v-1q0 -1 -1 -2v-1l1 -1v-4v-3v0v-2v-1h-1v-1l1 -2h-1l1 -1v-1v-3v-3v-1q-1 0 -1 -1v-1v-1v-1h1v1v0v-1l-1 -1h1v-1v-1h-1h1v-1l-1 -1v-1v-1v-1h1l-1 -1v-1
v-2v-2h1v-2v-1v-1l1 -1h-1v-1v-1h-1l1 -1l-1 -1h-1l1 -2l1 -2h-1v-1v0l-1 1v1v-1v-1l1 -1v-1v-1h1v0v-1l1 -1h-1v-4v-1h-1v-2l1 -1v1v-1v0h-1l1 -1v-1v-2v1l-1 -3v-3h1v-1h-1l1 -1v-2l-1 -1l1 -1v-3v-1v-1l-1 -1v-2v-1h1v-1l-1 -1l1 -1q1 -2 1 -3v-1h-1v1v-1v-1h1v-2v-1v-1
v-1v-2l-1 -1v-1l1 -1l-1 -2v-2h1v-2q0 -2 -0.5 -3.5l-0.5 -1.5v-1v1h1l-1 -1v-1v1h-1l1 -1v-2v-1h1v1v-1v-1v0l1 -1v-1v-1h1l-1 -1v-1v-2v-1v-1h-1v-1l1 -1h-1v1v-1v0l1 -1v-1v-1v-1v-2h-1l1 -1v-3v-3l1 -1v0h-1v1h-1v-1q1 -1 1 -2v-1v-1h-1l1 -1l1 -1h-1v-7l1 -1l-1 1
l-1 -1v-1h1v-2q0 -3 1 -4v-1h-1v-1v-2v-2h-1v0h1v-2v-3v-2h-1h1q1 -1 0 -8v-3l-1 -1h-1h1h1v-2v-1l-1 -1v0h1v-1l-1 1v-1v0v-2v-2h1v0v-1v-2v-5l-1 -1v-1l1 1v-1v0h-1v-1v-4v-3h-1l-1 -1h1v-1v0l1 1l1 -1h-1v-1v-2v-2q1 -4 -1 -4v-1v-2h1v-1v-1h-1v-3v-2l1 -1l-1 -1v-1h1v-1
v-1l1 -1q-1 -1 -1 -2v-2v-1h1v-3v-3l1 -1h1v-1q-1 0 -1 -2v-2.5t-1 -1.5l-1 -1h1l1 -1v-3v-1h1l-1 -1v-1q0 -1 1 -7v-1v-1h-1h1v-1v-1h1v-1v-1h-1l1 -1v-1l-1 1v-1l1 -1v-1h-1l1 -1v-1.5t0.5 -3.5t0.5 -4v-1v0v-1v0h1l-1 -1v-1h-1l1 -2l1 -2h-1v-2v-3l-1 -1h1v-2v-3v-1h1v-1
v-1h-1l1 -2v-1l-1 -3q-1 -5 -2 -6v0v1h-1h-1l-1 1h-1h-1h-1v-1l-1 1l-1 1h-2h-1h-2l-1 1h-1h-1l1 1h-2h-1h-1l1 1h-1v-1h-1h-1v1v1v-1h-1v1h-1h-1h-1v1v-1h-1v1l-2 1h-3h-1v1v0h-1h-1v0h-1h-1v1l-1 1v-1h-1v1q-4 0 -4 2h-1v-1l-1 1l-1 1v-1v0q0 1 -1 1l-1 1v-1h-1v1v1h-1
q-2 0 -3 1h-1h-1l-1 1h-2l-1 1q0 2 -4 2h-1v1l-1 -1v1v1h-1v1l-1 1v2q0 1 -1 4q0 6 -1 12q0 3 -0.5 5.5t-0.5 6t-0.5 5t-0.5 5v4t-1 7t-1.5 11t-0.5 7.5t-0.5 7t-0.5 6t-0.5 5.5t-0.5 5t-0.5 3t-0.5 6.5q0 8 -1 15q0 5 -0.5 8t-0.5 5t-0.5 7t-0.5 7.5v7.5v4l-1 1v6v6l-1 2v1
v1l1 -1h-1v-1l1 1v1l-1 1v5q0 5 -1 6v12v5l-1 1v0h1v1v1v1l-1 1v3v4v1v1v1v1v1l-1 1v1q1 1 1 4v3l-1 1v3v4l1 2h-1v1v2h-1h-1h1v1v5v5h1v1h-1v2v1.5v6.5v7l-1 1v0h1v3q-1 3 -1 6v3l1 1h-1v-1v2v2v1l-1 1h1v3v2h1v1v1l-1 -1v1v1v2h-1v1v1v-1v0h1v1h-1l1 2l1 2h-1v-1v2
q0 1 1 2h-1v1q0 1 -1 2l1 1v1h-1v1h1v2q-1 2 -1 5v2l1 2v1v1h-1q0 1 1 2v2v0v1l-1 1v1v1v1v1h-1l1 1v1h1v2v2h-1v0v6v7l1 1l-1 1l-1 2v3q0 2 1 6v3v1h1v2q-1 1 -1 3v1v1v0h-1v1h1l-1 1v1q0 2 1 2v1h-1v1v1l1 1v0v1v0v1l-1 1h1l1 1h-1l-1 1v2l1 1l-1 1l1 1v0h-1q0 1 1 1v1v1
l-1 1v1v0v3v3h1v1l-1 1v1v3v3h1v1v1v1h-1v1v2v2v0v1l0.5 3.5t0.5 5.5v2h-1v2v3v2l1 1l-1 2l-1 1l1 3l1 2v2v2v1.5v0.5v3v1v-1v3v3v1v1v2l-1 6v6h1v0v1h-1v-1v1v1h1v-1v1v1v1v1h-1v0v1h1v-1v3v2h-1v1q0 2 0.5 2t0.5 2v2h-1v1l1 -1v1l-1 1v1h1v1v2v1h-1v1l1 1l-1 1h1v1v5v4v1
v1v2h1v1h-1v1v5v1v1l1 1l-1 1v1l1 -1v2q-1 1 -1 2v1h1v-1v3v2.5v4.5v4h1q1 2 1 6v5q0 2 0.5 2.5t0.5 1.5v2v0v1v1v1v1v0v2v3v1v1l1 1v1v1v1v2v2q1 1 1 2v1h1v2q-1 3 1 7v2h-1l1 1v1.5v2.5l1 1h-1v1v1h1l-1 1h1v1v1l1 1h-1v2v2v3v1q1 1 1 4q0 1 1 3l1 1v5v5v1l1 1h-1h-1h1
q0 1 0.5 1t0.5 2l1 1l-1 1v1v1h1v1l-1 1l1 1l1 1l-1 1v1l1 3l2 3v2v2h-1l1 1v1v1h-1h1v0v1l-1 1h1h1h-1v1h1l1 2q1 3 0 5h-1l1 1h1l-1 1h1v2v2h1v0h-1l1 1v1h1l-1 1l1 3v3v1h1l-1 1v1q1 1 2 4l1 3v2v2v1q1 1 2 5q0 2 0.5 2.5t0.5 2t0.5 3.5t0.5 4t1 2v1h1v1v2l1 1h-1h-1l1 1
h1v3q0 3 1 4v2q0 1 0.5 1.5t0.5 3.5v2l1 1l1 1v2v3l1 3l1 3v2v2h1v1v2h1h-1v1l1 1v1v2v2h1v1v1l1 1l1 1h-1v2q1 2 1 2.5t1 1.5v1v-1h-1v1v1l1 1v3v2l1 1v4l0.5 0.5t1.5 3.5l1 2v3v3l1 2v2v1h1l1 3q1 3 1 4v1l-1 1h1l1 1h-1h1v3q1 2 1 3l1 1v1v1v-1v1v3h1l-1 1v1l1 -1l1 4
l1 3h1v1v3v2h1v0v1l1 1h-1h-1l1 1l1 1l-1 1v1l1 1v1l1 1v1v1v-1l1 1l4 1q6 0 16 1l7 1l9 1q11 0 16 1q2 0 7 0.5t7 0.5t9 1q8 1 19 2t14 1t5 0.5t2.5 0.5t17.5 2h7.5t7.5 0.5t9 1.5l9 1q18 1 35 3q7 1 12.5 1.5l11.5 1t8 0.5q4 0 7.5 0.5t5.5 0.5h2l-1 -3l-1 -2v-4v-4l1 -3
q2 -3 3 -5l1 -1l-1 -1l-4 -2l-2 -2l-3 -3l-2 -2l-1 -2q-1 -2 -3 -5l-1 -3v-3v-3v-4l1 -3l1 -1q2 -1 2 -2v-1l1 -1h1h1l1 -1l-1 -1v-1l1 1v1l1 -2v-1h1v1l-1 1l1 -1l1 -1v1h1v-1v-1v1h1l1 -1h1h-1l1 1v0v-1l1 -1v1h-1h1l1 -1l1 -1h1h1h1l1 1h1l-1 -1v-1l1 1h1l1 -1l1 1h1
l1 -1v1h1v-1v1h1l1 -1v1h1q0 -1 1 -1v1h1h1v1l1 -1l1 -1l1 1h1v1v0v-1h1v1v1v-1h1v-1h1l-1 1v1h1h1h1h2l2 1v1l1 1h1v1v-1l1 -1v1v2l1 1l1 1v1v1h1l-1 -1h1v1v2l1 2v0v1l1 5v3h-1v1q1 0 1 1v1v1l-1 1l2 -1v1v1l-1 1l-1 1h-1v1v0h-1h-1v1l-1 2l-2 1l1 1v1l3 2l3 2v1v-1l1 -1
v1v1l2 1h1v1v1l1 -1v0v1l1 1h2l-1 1v1v-1h1l1 1l1 1v1l1 1v1l1 1h-1l2 1v2v1h1v1l-1 1h1v1v2v-1l-1 -1l1 3v2h-1l-1 1h1h1h-1v1q0 1 -1 2v1h1v1h-1h1l3 0.5t5.5 1t9.5 1.5q10 1 11 1t6 1t6 1t4.5 0.5t4.5 0.5t7 1q3 0 6.5 0.5t6 1l2.5 0.5l2.5 0.5t4.5 0.5t16 2q2 0 4 1
q6 1 13 1q2 0 4 0.5t4.5 1t7.5 1l10 1t9 1t7.5 1t6 0.5h3.5q7 0 11 1l5 0.5t9.5 1t10.5 0.5l5 1h1h1l1 -1l-1 -2l-1 -4q-1 -2 -1 -4v-1v-1l1 -1l-1 1v0q0 -1 1 -2v-2v-1v-2v1l-1 -2l-1 -1h1v-1h-1v-1v-2h-1v-1v-1v0h-1v-2l1 -1l-1 -1l-0.5 -1.5l-0.5 -1.5v-1v0v-1h-1v-1
q0 -1 -0.5 -2.5l-0.5 -1.5v-1q-1 -2 -2 -5q0 -2 -1 -3q0 -4 -1 -5q0 -1 -0.5 -3.5t-1.5 -2.5v-1v-2l-1 -2q-3 -6 -2 -7l-1 -2q-2 -4 -2 -7v-1v0v-1v-2h-1v-1q0 -1 -3 -11q-1 -3 -1 -4v-1h-1v0v-1v-2q-2 -6 -2.5 -7t-0.5 -3v-2h-1v0l1 -1l-1 -2q-1 -2 -1 -3.5t-0.5 -2
t-1.5 -3.5v-3v-2v-1l-1 -1l-0.5 -1.5t-1.5 -3.5q-2 -7 -2 -10v-3h-1l-1 -3q0 -3 -0.5 -4t-0.5 -1.5t-0.5 -1.5t-0.5 -2.5t-0.5 -2.5t-1 -3.5t-1.5 -6t-1 -4.5q-2 -6 -2 -8h-1v-2v-2h-1v-1v-2q-2 -2 -2 -7v-1l-1 -1v-1v-1v-2h-1v-1v-2h-1l-1 -2q0 -1 -0.5 -2t-0.5 -2v-2
l-2 -6q0 -1 -1 -3q-2 -5 -2 -7q0 -1 -1 -2v-2v-1h-1v-1l1 -1h-1l-1 -2v-3q0 -1 -1 -1v-1v-1h-1v-1q0 -1 -1 -3t-0.5 -2.5t0 -1t-0.5 -2t-1 -3.5l-1 -2v-1v-1q-1 0 -1 -3q-1 -1 -1.5 -3t0 -2.5t-0.5 -0.5v-1v-1q0 -1 -1 -2l-1 -2v-2v-2l-1 -1v-2.5t-1 -0.5l-1 -2v-2v-1h-1
l1 -1l-1 -1l-1 -2v-1v-1h1h-1l-1 -2v-1l-1 -2v-3q-1 -5 -2 -6t-1 -3l-1 -3l-1 -1v-1v-2v-2h-1l-1 -1v-1v-1v-1h-1v-2v-2v-3l-1 -1l-1 -1v-1v-1l-1 -1v0v-2l-1 -2l-1 -4l-1 -3l-1 1v-2q0 -3 -1 -4v-1v-1v-1h-1v-2q-1 0 -2 -4v-2h1h-1v-2l-1 -1l1 -1l1 -1h-1l-1 1l-1 -1
q-1 -2 -1 -2.5v-2.5l-1 -1v-1q0 -1 1 -2v-1h-1l-1 -2q-1 -2 -1 -3v-1v-1v0v-1l-1 -1l1 -1h-1v-1v-2l-1 -2l-1 -1h1l-1 -1l-1 -1l1 -1v-1q-1 -1 -1 -2v-2h1l-1 -1v0q1 0 1 0.5t3 3.5t3 4h1l1 1l1 1v1v0h1l1 1v-1l1 1v1h1v-1v1v1h1h1l1 1h1v1h1h1v1l2 2.5t2.5 3.5t1 1t1.5 1.5
t1.5 2.5l0.5 1v1h1l1 1v1h1l1 1q0 1 1 2t3 2l1 2v1h1v1l-1 1l1 -1l1 1q0 1 2 2l2 2l1 2v1v1h1v0v1l4 4q8 7 9 10q1 2 1.5 2h0.5v1v0l1 1q1 2 2 2l6 7l3.5 3.5t1.5 2t2 2.5t1 1.5t6 6.5l1 2l-1 1l1 -1h1q1 2 7 9l5 5l3 3q5 6 11 10q3 2 3.5 2.5t1.5 1l3 1.5l7 5l3 2
q9 7 20 11l4 2l7 3l5 3h3l3 1h6q7 0 8.5 -0.5t4.5 -0.5l3 -1l5 -1q13 -4 20 -7l4 -2l5 -3q4 -4 4.5 -4t2 -1.5t2 -1.5t1.5 -0.5t2 -1.5l1 -1l4 -4q6 -7 7 -10q2 -2 4 -4.5t2 -3t1 -2.5l2 -2v-2l1 -2l2 -2l1 -3q0 -1 0.5 -1.5t1 -2.5t1 -3t1.5 -5t2 -6t1 -3t1 -3l1 -2v-3v-2
l1 -1v-1l1 -2q0 -3 1 -6l1 -3v-3q0 -3 0.5 -3.5t1 -4t1.5 -8.5l1 -6l-1 -1v-2l1 -2v-4l1 -3v-1v-2v-2v-3l1 -2l-1 -4v-3v-1h1l-1 -2v-5.5v-5.5l-1 -2l1 -3v-2v-2l-1 -2v-4v-4v0v-1h-1l1 -1v-2v-4v-4v-1v0v-1v-1q0 -3 -1 -3v-1l1 -1l-1 -1l-1 -1l1 1v-1l1 -2h1l-1 -1v-1v-2
q-1 -2 -1 -3h-1v-2v-1h1v-1h-1v-1v-1l1 -1h1l-1 -1l-1 -1v-1v-1l-1 -1v-1v-2v0h-1h1l1 -1l-1 -1v-2v-3h1h-1h-1q0 -1 1 -1v-1v-1v1h-1v-1v-3v-1h-1v-1v-1l1 -1v0l-1 -1h1l-1 -1l-1 -1h1v-1q0 -1 -1 -1l-1 -1v-2v-1h-1v-1l1 -2h-1l-1 -2q-1 -3 1 -3v-3v-2h-1l-2 -1v-1l-1 -1
h1v-2l1 -2h-1l-1 -1l1 -1h-1v1h-1v-1v-1v1h1l-1 -1l-1 -1h1v0v-1v-2l1 -2l-1 -1v0l-1 -1l-1 -1v-1h-1h-1v-1v1h1v-3v-3h-1v-1v-1h-1h-1v-1v-1v-1h-1l-1 1v1v-1v-1v0v-2v-2v0l1 1v-1h-1v-1v-1l-1 -2l-1 -1h1v-1q0 -1 -0.5 -1.5t-0.5 -1.5l-1 -1h1v0h-1v-1v-1h-1h-1l-1 -1v-2
l1 -1l-1 -1h-1l1 -1h1l-1 -1v-1l-1 -1h-1l1 -1h-1v-1h1v0l-1 -1v1l-1 1v-1v0h-1v-2v-1l-1 1v-1v-1l-1 -1v0h1l1 -1h-1v1v-1l-1 -1h1h1l-1 -1q0 -2 -1 -4q-1 -1 -1 -2v0l-1 -2q-1 -1 -1 -2v-1l-1 -1h1h1l-1 -1v-1v0l-2 -1q-1 -2 -2 -2l-1 -1h1l-1 -1v-2v-2q-1 0 -1 -1h1
l-1 -1l-1 -1l1 -1v-1l-1 1v-1v-1l-1 -1h-1v-1h1h-1v-1v-1h-1v0v-1l-1 -1q-1 -1 -2 -1v-1v-2q0 -1 1 -1v-1v-1l-1 -2h-1v-1v0l-1 1v-1q-1 0 -1 -2v-1h-1h-1h1v-1v-1h1v0v-1l1 -1h-1h-1h-1v-1v-1h-1v-1v-1h1v-1v-1h-1h-1l-1 -1l-1 -1l1 -1l-2 -1q-1 -1 -2 -3l-1 -2h1l1 -2v-3
v0q-1 0 -2 -1.5l-1 -1.5q0 -1 -1 -1t-1 -1h-1v-1l-1 -1h-1v-3v-2h-1v-1q-1 -1 -1 -1.5v-1.5v-2l-1 -1h-1v-1v0q-2 0 -2 -2h-1l-1 -2l-2 -1v-2v-1l-1 -1v-2v-1h-1h-1l-1 -1l-1 -2h-1v1v-2v-2v-1l-1 -1l-1.5 -1.5t-2 -1.5l-1.5 -1v-1v-1h-1v1v-1q0 -2 -2 -4t-3 -4q-2 -2 -3 -2
v-1v-1l-1 -1h-1h-1v-1v-1l-1 1v-1v-1h-1l1 -2h-1l-3 -3l-1 -1v1h-1v-1v-1h-1v-1h-1q0 -1 -1.5 -3t-2 -2t-1.5 -1v-1l-3 -3l-1 -2h-1h-1q0 -1 -0.5 -1t-2.5 -1q-3 -3 -2 -3l-1 -1l-1 -1h-1v-1h-1v1v-1l-1 -1h-1v0v-1h-1v-1h1h-1v-1v-1v-1l-1 1h-1l1 -1h-1h-1v-1v0h-1v-1v0h1
l-1 -1l1 -1v-1v-1v-1h1v-1v-2v-2l1 -1v-1l-1 -1h1v1v-1q0 -1 0.5 -1.5t0.5 -1.5v-2q1 -1 1 -3v-1h1l1 1l-1 -1l1 -1v-2q1 -2 1.5 -4t0.5 -5q2 -8 3 -11l1 -5q1 -2 1 -2.5t1 -3t2 -7.5l3 -8l3 -8l4 -12l3 -10q5 -18 7 -22q1 -1 2.5 -6t2 -5.5t0.5 -1.5l2 -6q7 -15 7 -21v-1
h-1l-1 -1h-2h-3h-2h-1h-1h-1l-2 -0.5t-3 -0.5h-1l-1 -1h-1h-5h-5h-1l-1 1v0l-2 -1h-1h-1v-1v1h-2h-2l-1 1v-1l1 -1l-1 1h-1l-1 -1l-1 1l-2 1h-2v-1h-2h-3l-1 -1v1v0h-1v1l-1 1l1 -1v-1h-3q-8 1 -9 0l-1 -1v1h-1l-1 1v0v-1h-2h-2v1v-1h-1h-1v0h-2h-3h-2v-1v1h-1h-1v-1h-1v1
h-1l-2 -1v1v0h-3l-2 -1v1v1v-1v-1l-1 1h-1v-1v0q-1 0 -1 1h-1h-2q-1 -1 -2 -1t-5 1h-3l-1 -1h-1h-1h-1v-1h-1l1 1h-2h-1v-1h-1q-1 1 -2 1l-1 1v-1h-3h-4h-2v-1l-1 1h-1v-1h-1l-1 1h-1q-1 -1 -2 -1h-1l-1 1l-1 -1v0v-1l-1 1h-2h-1h-1h-3h-2v0h-2h-2v1h-1v-1h-1h-6l-1 1l1 -1
h-1l-1 1v-1h-5h-21l-12 -1v1h1h-1l-1 -1h-2h-2v0h-2h-4h-2v0h-2q-5 0 -24 -1h-10v-1h-1v1h-2q-3 0 -8 -1q-18 -1 -23 0h-1.5t-6.5 -1h-5l-1 -1v1h-5q-31 -1 -43 -1l-3 1h-1l-1 1v1h1l4 5l18 18q14 17 25 27q2 1 10 9l10 9l6 5l8 8l23 22l19 19l11 10q6 5 8 7q3 3 14 13
q3 4 5 5l18 18q12 11 13 11l4 5l4 4h2q3 2 8 3q2 0 4.5 1t5.5 2q10 3 15 5l4 2q19 8 19 12h1l2 2l3 3t2 3t2 3t2 2.5t3.5 3.5t3.5 4v1h1v1v1q3 1 3 3l1 1.5l1 1.5l3 2l2 3l1 2l2 2l1 1l-1 1v0l1 -1l1 2q0 1 1 3l1 1v0l2 2l1 2v1h1v-1v1v1l1 1h1v1v1l1 1v1v1l1 -1l1 2
q1 2 2 3.5l1 1.5l1 1v1l1 2q2 2 4 5q5 11 5.5 11.5l0.5 0.5l1 2l1 3v1h1q0 2 1 3l1 1v1v1v1h1v1v1l1 1q0 1 1 3l2 1v2v2q1 0 1 1.5t1 3t1.5 3t1 2t1.5 2.5l1 1h-1h-1l1 1h1l-1 1h-1h1l1 1v1v1v1q1 1 1 2v1h1v1v1h1v1l2 4t1 2.5v1.5h1v1v2v0v0l1 2l1 3q0 2 1 4l1 1v1h-1h1v1
v1h1v1h-1l1 1l1 2h-1v1l1 -1l1 1v2v2l-1 1h1l1 -1l-1 1l-1 1l2 1l1 1q0 1 1 2v1l1 1v5l1 2l-1 1l1 1v1v1h1v1v0h-1l1 1h1v2v3v0v1v0h1v1l1 2l1 1l-1 1v1h-1v1v2l1 1q2 1 2 1.5t1 1.5l1 1v1v0h1l-1 1l-1 1v-1h-1l1 1v2v2l-1 1h1h1h-1v1l1 1v3l1 1l1 1v1l-1 -1v1v2v1l1 1v1
l-1 -1v1h1h1v1v3v3v1l1 1l-1 1v1l1 1l1 1v2v2v1h-1l1 2v2h1h-1v2v2v-1h-1l1 1v1v2v15v10v5v4v0v1l-1 1v1h-1h1v2v1v0l-1 1h1v1v1v1v1h-1v0v1h1v1l-1 1v1v0h-1v1q0 1 -1 2h-1v1v2h-1v-1v1l-1 1h-1l-1 -1v-1q-1 1 0 2v1l-1 -1l-1 -1l-1 -1v1v2l1 1h-1v0v-1h-1v1v2h-1l-1 -1
q-1 0 -2 1v1v0h-1v0h-1h-1v1v1l1 -1v-1v1h1v1h-1h-1v-1h-1v1l-1 1h-1v-1v1v1v-1h-1v1h-1l1 1h-1h-1v-1h-1l-1 1v1h-1v0v-1l-1 1l-1 1v-1v-1l1 -1h-1h-1v1v1h1v1v1l-1 -1v-1v1h-1h-1v-1v1h1q-1 -1 -2 -1v0v1h-1h-1v-1v-1v1v1h-1.5t-1.5 -1h-2h-1v1v-1h-1v1v1v-1l-1 -1v0l-1 1
v1v-2v-1v-1h-1v1v2l-1 -2v-1h-1l-1 1v-1v0l-1 1h-1l1 -1l-1 -1l-1 -1v1v-1v-1l-1 1v0v-2h-1l-1 -1v-1l-1 1v1v-1h1v1h-1v0q0 1 -1 1v-1v-1h-1l-2 -2v-1h-1h-1v1v-1v0v-1q0 -1 -1 0l-1 1l-1 -1l-1 -1v-1h1h-1v-2v-1h-1h-1v1l-1 -1v-1l-1 1h-1l-1 -1l-1 -2l1 -1v-1h-2l-1 -1v1
h1v1l-1 1v-1v-2v1h-1v-1l1 -1h-1l-1 -1v1h-1v-1v1h-1l-1 -1v-1v0h-1l-1 -1l-1 -1v-1v-1h-1v0v-1h-1h-1v0h-1v-1v-1v1l-2 -1l-2 -4l-2 -1v-1h-1v1h1h-1h-1v-1v-1l1 1v-1l-1 -1v1h-1l-1 -1v-1h-1q0 1 -1 1v-1v-1v1h-1v-1l-1 -2l-1 -1l-1 1h-1h-1l1 -1v0h-1l1 -1l1 -1h-1h-1h-1
v-1l-1 -1v-0.5t-1 -1.5h-1v0v-1h-1v0l-1 1h-1l1 -1v-1q0 -1 -1 -1v1h-1l-1 -1v-1l-1 -1l-1 -1v-1l-2 -2l-1 -2v-1h-1h-2h-1v-1v-1h-1l1 -1h-1q-1 -1 -2 -1.5l-1 -0.5h-1v-1v-1h-1v0l-1 -1h-1h-1l-1 1v1v-1l-1 -1v-1h1v0h-1v-1v-1v-1h-1l-1 1l1 -1v-1h-1h-1v1h1h-1
q-1 0 -1 -2v0h1h-1v-1v-1h-1l-1 1v-1v-1l-1 -1v1l-1 1v-1v-1h-1v1v1v-1l-1 -2l-1 -1v1h-1v-1v-2v-1h-1v1l1 1l-1 -1l-1 -1l-1 -1v-1h-1v0v-1l-1 -1h-1v-1h-1v0q0 1 -1 1v-1v-2h-1l-2 -1v0l-1 -2v1h-1v-2l1 -1l-1 1v0l-1 -1v1h-1v-1h1l-1 -1q-1 -1 -2 -1l-2 -1v-1v-1h-1v1v-1
v-1h-1v-1v-1l-1 -1h-1v1v-1v-1l-1 1l-2 -2l-1 -2h-1h1v-1h-1h-1l-1 -1v-2h-1l-1 1v1l-1 -2v-1h-1l-1 1v-1l1 -1l-1 -1v-2l-1 1h-1l-1 -2v-3l-1 1h-1v-1h-1h-1l-1 -1v-1h-1v-1v-1v-1h-1l-1 -1v-1h-2v1h1l-1 1v-1v-1q0 -1 -1 -2v-1h-1l-1 -1v-1v-1l-1 1h-1h1v-1h-1v1v-1v-2h-1
l1 1h-1v-1l-1 -1l-1 -1h-1v0l1 -1h-1h1v-1h-1v-1v-1h-1v0l1 -1l-1 1v-1v-1h-1v-1v-1q-1 0 -1 1l-1 -1l-2 -1v-3v-3h1v0v-1h-1v1v-1h-1h-1l-1 -1v-1l-1 -1v-1v-2v-2h-1v-1h-1l-1 -1l-1 -1h1v-1h-1h-1l-1 -1v-1v-2v-1l1 -1h-1h-1v-1l1 -1h-1h-2l1 -1v-1h-1v-1v-1v-1h-1v-1v-2
h-1l-1 -1v-2q0 -3 -1 -4q-2 -1 -2 -4l-1 -1l-1 -1h1v-1v-1h-1l1 -2v-1h-1v1l-1 -1l-1 -1v1h-1l1 -1l1 -1v-1l-1 -1l1 -1v-1h-1h-1v-1v-1l-1 -1h-1h1h1l-1 -1v-1h-1v-1h1h-1h-1v-1l-1 -2h-1q0 -1 1 -2h-1l-1 1v-2v-4v-2h-1h-1v-1v-1t-0.5 -2.5t-1.5 -2.5v-1h1h1q0 -1 -1 -1
v-1v1h-1h-1v-1v-2h-1v-2v-1l-1 -1v-1l1 -1v-1v-1h-1v1v0q-1 -1 -2 -3v-1v-1v-1h-1h-1v-1v-2h1l-1 -1l-1 -1h1v-1h-1l-1 -1v-1v0v-2v-1h-1v0q0 -2 -1 -3v-1v-1h1h1h-1h-1l-1 1v-1l1 -1h-1h-1v-1q-1 -2 -1 -4v-1l-1 -1l-1 -2h1h1v0h-1v0l-1 -1l1 -2v-2q0 -1 -1 -2v-2h-1v-1
l-1 -1h-1l1 -1v-1q-1 0 -1 1l-1 1v-1l1 -1v-2v-2h-1v0v-1h-1v-2l-1 -2v1h-1l1 -1h-1v-1v-1l1 -1v-1l-1 1l-1 1v-2v-2l1 -1l1 -1h-1l-1 -1v-1q0 -1 -0.5 -1t-0.5 -2v-1h-1v0q0 -1 -1 -2l-1 -1v-1h1l-1 -1l-1 -1v-1v-1v1h1v-1v-2h-1v1l1 1h-1l-1 -1v-1l1 -1h1v-1h-1v-1v0
l-1 -2v-2h-1l-1 -1v-1v-2h-1l1 1v0h-1v-1v-1v-1h-1v-1v-2q0 -1 -1 -2v-1h-1v-1v-3l-1 -2v1v1v-1l-1 -1v1h-1v-2q0 -1 1 -2v-1v1h-1l-1 -1v-1l1 -2l-1 -1v-1l1 -1h-1l-1 -1v-1l1 -1v-1v-1l-1 1v-1h-1l1 -1v-1v1h1v-1h-1h-1v1h-1h-1v-1v-1h1l1 -1h-1l-1 1v-3v-2v-1l-1 -1l1 1
v-1l1 -1h-1v-1v1h-1l-1 -1v-1h1l-1 -1h1v-1h-1v-1l1 -1l-1 1h-1v-1v0h-1v-1v-1h-1l1 -1v-1l-1 -1v-2v-1l-1 -1l-1 -1l1 -1v0h-1v-1v-1h1l-1 -1l-1 -1h1l-1 -1v-1v0l-1 -1v-1h1h-1v1v-1v-2v-1v-1q-1 0 -1 -1v-2v-2h-1h-1v-1v-1l1 -1l-1 -1l-1 -1v-1v-2v1h-1v-1v-1v1v1h-1v-1
v-1h1l-1 -2l-1 -2v0v-1l1 -1h-1v-1v-1h-1v-1v0v-1v-1h-1h-1v-1h1v0h-1h-1l1 -1l1 -1h1v-2v-1h-1l-1 1v-1v-1h-1v0v-1l-1 -1h1v-1h-1l-1 1l1 -1l-1 -1v-1v-1h-1v-1h1l-1 -1v-1.5t-1 -1.5l-1 -1v-1v-2h-1v0v-1l1 1l-1 -3v-2l-1 -1h1v-1h-1v-1v-1h-1v-2q0 -1 -1 -2v-1h1h-1h-1
v-1l-1 -2h-1v-1l-1 -1l-1 -1l-1 -1q-1 0 -1 -1v-1h-1l-1 1v-1v-1l-1 -1l-1 -1v1l-5 -5l-5 -5l-4 -3l-3 -3h-1v-1l-5 -5l-12 -12q-22 -21 -23 -21v2l-1 1l1 2v1h-1h1v1v3q0 3 0.5 4.5t0.5 6.5v8t1 7q0 9 1 16v6q0 3 1 17q1 3 1 5.5v4.5q0 4 1 13v3q1 3 1 12q1 5 1 6v4v3h1v3
q0 2 1 10v5.5t0.5 4.5t0.5 3q0 4 1 8v9l1 3v0l1 5v7t1 6l1 4v3v2v0v2q0 1 0.5 1.5t0.5 2.5t0.5 2.5t0.5 2.5v3l1 4q2 4 2 5t0.5 3.5t1 4.5t0.5 3q4 10 5 20v3l2 4l1 3l1 3q1 4 2 7v2v1h1h-1v1q1 1 1.5 2.5t0.5 2.5t0.5 3.5t1 3.5t0.5 2q1 2 2 6q0 1 1 3q1 4 3 11q1 5 1.5 7
l0.5 2l1 1h-1l1 1l1 2v2v1v0v1l1.5 4.5t2.5 5.5q1 9 3 12h1l-1 1v1q1 0 1 1.5v2.5l1 1v1h-1h1l1 1v1q0 2 0.5 2.5t0.5 1.5v2h1l1 1h-1v1q1 2 1.5 3.5t0.5 2.5v1l1 2l1 2v1q0 2 1 4l1 2l-1 1l1 1l1 1l1 1v2.5t0.5 1t0.5 1t0.5 2t0.5 3t1 1.5v1v1h1l-1 1v1h1v3v1h1v0l-1 1h1
l1 1h-1l-1 -1v1h0.5t2.5 3l1 3v2l2 6l1 1v1q1 1 1 2q1 5 2 9l1 1v1v0v1v1l1 2q1 2 1 3t1 2.5t1.5 3.5t1 2.5l0.5 0.5v1v3v1l1 1l1 1l1 3q1 2 0 3q0 2 2 6l1 2l1 2v2t1 3t1 3l1 1v0h-1v1q0 1 0.5 1t0.5 2v1l1 -1v1l1 2h-1h1v0.5t1 2.5v2h1v1v2v1l1 1l1 2v3v1h1v1v1v0l1 1v3
q3 4 3 4.5t0.5 2.5t0.5 3v1l1 1q1 2 1 2.5v1t1 1.5v1h-1v0q1 1 1 5v2q1 0 2 4v1l1 2v1h-1l1 1l1 2h-1l1 1v3v4v1v1l1 3q1 2 2 3v2v3v1l1 1l-2 1l-1 2v1v1l-1 1h1v2t1 1l-1 1v0v1v1v1v0h1v-1v1v1h-1v1q0 1 -0.5 2t-0.5 2l-1 1v1v1h-1l1 1v2q-1 -1 -1 0l-1 1v1h-1h-1v1v1v2
l-1 1q-1 2 -2 3v1v1h-1h1v-1h-1v1l-1 2l-1 1v-1v0q-1 2 -7 4l-3 2h-1v0v1v0h-1l-3.5 1.5l-3.5 1.5l-1 0.5t-2 0.5q-2 0 -3 1l-0.5 -0.5t-1 0t-4 0.5h-3.5l-1 1l-2 -1q-3 0 -5 -1h-2v-1l-2 1h-1l-2 -1l-1 -1l-1 -1v1l-1.5 -1.5t-2.5 -0.5l-2 -1v-1v-1l-1 1v1l-1 -2l-2 -1h-1
l-1 -1t-2 -1l-1 -1v-1h-1l-2 -2l-1 -1v-1l-2 -1l-1 -1l-1 -1v-2v-2l-1 1l-2 -3q-1 -3 -1.5 -4l-0.5 -1v-1h-1v0v-1l-1 -1v-1l-1 -1h-1l1 -1v-1l-1 1v-2l-1 -1h-1v-2q0 -1 -0.5 -1.5t-0.5 -1v-2.5l-1 -2h-1v-2l-1 -2v-1v-1v-1h-1l-1 -1l1 -1h-1v-1v-1l-1 -1v-1v-1
q0 -1 -0.5 -2t-0.5 -2v-1l-1 -1l-1 -1v-2q-1 -1 -1 -3v-1l-1 -1v-1v-1q-1 0 -1 -0.5v-2.5l-1 -3h-1v-1v-1l-1 -1v0q0 -1 -1 -2l-1 -4v-2l-1 -1h1h-1v-1l-1 -1v-1v-1v-1v1v0v-1l-1 -1l1 -1h-1v0v-1l-1 -1v-2v-1h-1v-1l-1 -1q0 -2 -1 -5v-2v1v-2q0 -1 -1 -2h-1l1 -1l-1 -1h-1
v-3v-2h1v0q-1 -1 -1 -1.5v-1.5l-1 -1v-2v-2l-2 -2l-1 -2v-1v-1v-1v-1h1h-1v-1v-1v-1h-1l-1 -1v-1v-1l1 -2h-1l-1 -1h1v-1l-1 1v-1v-1v-1h1h-1v0v-1v0v-1v-2h-1v-1l1 -1l-1 -1q-1 -2 -1 -2.5t1 -1.5v-2l-1 -2l-1 -3l1 -1l-1 -1l-1 -1h1h1l-1 -1h-1l1 -1v-2h-1v-1l1 -2h-1v0v0
h1h-1v-1l-1 1v-1l1 -1v-3v-3h-1v-1v-1l-1 1v-1l1 -1l-1 -1v-1v-1h-1l1 -1v-1v-1l-1 -1v0v-2v-3l-1 -1v0v-1v-1v-1h-1l1 -1v-1v-1h-1v-1v-1v-1v-1h-1v-1q1 0 1 -2v-1h-1v-1v-1h1v1v-1l-1 -1v-1q0 -2 -1 -3v-1l1 -1h-1h-1v-2v-1v-1v-2h1h-1v-1v-2h-1v1v-1v-1v-1h-1l1 -1v-1h-1
v-2v-4v-1h-1v0l-1 -1h1v1v-1v-1l-1 -1v-3v-4q1 0 1 -1h-1h-1l1 -1v-1h-1l-1 -2l-1 -3h1v-1l-1 -1v-1v-2l-1 -3h-1v-1q0 -2 1 -3v-1h-1v-3v-2h-1v-1v-3l-1 -2l-1 -1v-2v-4v-1l-1 -1l-1 -1l1 -1v-1h-1v-2v-3v-1h-1v0v-1v-1l-1 -1v-2l-1 -2l1 -1l-1 -1v-1l1 -1h-1v-2v-2l-1 -1
l-1 -2v-1l1 -1v-1q-1 -1 -1 -3l-1 -2v-1v-2h-1v-1v-1h-1l1 -2v-1l-1 -1v-1v-1h-1v-1v-2l-1 -2v-4l-1 -3v-1v-1h1h-1h-1v-1v-2v-2v1h-1v-1v-1l-1 -1l1 -1q0 -1 -1 -2v-2v-1l1 -1h-1v-1v-1h-1v-1v-2v-2h-1v-4v-1l-1 -1v-3l-1 -3v-1h1v-1v-1h-1l-1 -1v-2v-1v-1v-1h1l-1 -1v-1
v-1v-1v-1h-1v-1q0 -3 -1 -5v-1v0v-2v-3h-1v-1v-2v-2h-1v-2l1 -2v-1v-2q-1 -3 -1 -5l-1 -3h1v-1h-1v-1l1 -1h-1h-1v-3v-2v-1h-1v-3l1 -3h-1v-1l-1 -2v-1v-6q-1 -5 -1 -7v-2v0v-2v-1v-1l-1 -2h1v-1h-1v1l-1 -1h1v-1.5v-2t-0.5 -1.5t-0.5 -2v-1h-1v-6v-7v-2h-1v-3v-5v-3h-1v-1
h1v-1v0h-1v-1q1 -2 1 -7q1 -2 1 -8v-7h-1v-1l1 -1v1v-1v-1v-4v-4v-1l-1 -1l1 -1l1 -1h-1v-2v-1h1v-2v-2h-1v-3v-7v-5v-2v-1v-3l1 -2l-1 -2v-1q1 -1 1 -3v-3h-1l1 -1v-2l-1 -1h1l1 -1l-1 -1v-1v-1v-1h-1l1 -1v-1v-2l-1 -1l1 -1v-1v0h1l-1 -3v-2v-3v-16v-12v-1l-1 -2
q0 -1 -13 -1h-6h-1h-2h1h-2h-5h-3v-1l-2 1h-1h-1h-7q-8 0 -9 -1h-2h-1zM548 -175h-1h1zM703 -170v0v0zM273 -170v0v0zM266 -168v1l-1 -1h1zM248 -161v1v-1v0zM231 -154v1v-1v0h1h-1zM425 -137h-1v0h1zM291 -99v0v0zM423 -98h-1h1zM290 -96v1l-1 -1h1zM290 -94v0v-1v1z
M423 -90v1v-1v0zM564 -87v0v-1v1zM424 -82h-1v0h1zM290 -59h-1h1zM290 -56v1l-1 -1h1zM576 -53h-1v-1h1v1zM576 -51h-1v-1h1v1zM422 -43v0v-1v1zM793 -41h-1h1zM581 -36v0v0zM582 -32v1v-1v0zM581 -26v1v-1v0zM425 -20h-1v-1zM585 -19v1l-1 -1h1zM586 -17v0h-1v-1h1v1z
M587 -9v0v-1v1zM590 -6v0h-1l1 -1v1zM589 -5h-1h1zM813 1v0v-1v1zM291 3v0v0zM596 10h-1v-1h1v1zM428 10v0v0zM824 11h-1v0h1zM825 12h-1h1h1h-1zM291 20v1v-1v0h1h-1zM292 23v0v0zM597 25v0v0zM596 26v0v0zM599 27h-1h1zM431 30v0v0zM603 47h-1h1zM605 47v0v0zM859 52v0v-1
v1zM435 59v0v0zM290 61h-1v-1v-1l1 1v1zM865 60v0v0zM868 63l-1 1v-1h1zM289 64v0v0zM614 77v0v0zM615 77v1v-1h-1h1h1h-1zM438 83v1v-1v0zM881 84h-1h1zM881 86h-1l1 -1v1zM618 87l-1 1v-1h1zM619 88v0h-1h1v0zM289 91v0v0zM888 94l-1 1v-1h1zM288 99h-1v0h1zM290 103v0v0z
M897 117v1l-1 -1h1zM289 143v0v-1v1zM643 157v1v-1v0zM645 161v0v0zM209 162h-1h1zM644 162h-1v0h1zM645 169v0v0zM852 181v1v-1v0zM289 184v1v-1v0zM207 188v0v-1v1zM926 188h-1v0h1zM659 196h-1v0h1zM660 198h-1l1 -1v1zM930 205v0v-1v1zM662 206v0v0zM933 209h-1v0h1z
M207 209v1v-1v0zM666 213h-1v-1h1v1zM293 214h-1v0l1 -1v1zM863 214v0v-1v1zM466 219h-1v-1h1v1zM670 221h-1l1 -1v1zM292 221v1h-1v-1h1zM868 230h-1v0h1zM679 234h-1v0h1zM686 243l-1 1v-1h1zM942 246h-1h1zM688 247v0v0zM692 249h-1v-1h1v1zM295 251v0v0zM872 251v0v0z
M943 251v0v0zM945 258h-1l1 -1v1zM705 261v0v0zM208 262h-1l1 -1v1zM712 267l-1 1v-1v0h1zM720 276l-1 1v-1h1zM299 278h-1v0h1zM725 279v1l-1 -1h1zM207 282v0v0zM948 283h-1l1 -1v1zM948 284h-1h1zM730 285v0v-1v1zM730 286h-1v0h1zM949 290v1q-1 0 -1 -1v0h1zM881 291
l-1 1v-1h1zM207 292v0v0zM881 293v0v-1v1zM950 293v0v-1v1zM746 300v0v0zM744 300v1v-1v0zM743 301v0v0zM300 304h-1h1zM405 307h-1l1 -1v1zM756 312v0v0zM758 313v0v-1v1zM302 318v0v0zM767 321h-1h1v0zM774 326v-1v0h1zM207 329v0v0zM207 330v0v0zM782 332v1h-1v-1v-1h1v1
zM781 332h-1v0h1zM783 334v0v0zM486 335v1v-1v-1v1h1h-1zM786 337h-1v0v-1h1v1zM208 338l-1 1v-1h1v0zM786 338v1v-1v0zM788 342h-1h1zM208 344h-1h1zM207 346v0v0zM414 348h-1v0h1zM802 350h-1v-1zM600 351v0v-1v1zM806 352l-1 1v-1v0h1zM667 354v0v0zM878 355v0v0z
M811 359h-1v0h1zM813 359v1l-1 -1h1v0zM416 361l-1 1v-1v-1v1h1zM870 362v0v0zM864 365v1l-1 -1h1zM865 366v0h-1h1h1h-1zM670 367h-1v-1h1v1zM865 367h-1v-1zM864 368v0h-1l1 -1v1zM862 370h-1v-1q1 0 1 1zM860 371h-1l1 -1v1zM834 371v1v-1v0zM838 373v0v0zM837 373v0v0z
M498 374h-1v0h1zM837 374v0v0zM845 375v-1v0h1zM673 379v0v0zM315 380h-1v0h1zM317 388v0h-1h1v0zM423 400v0v0zM614 401h-1v-1zM321 402v1q-1 0 -1 -1v0h1zM681 407v0v0zM507 408v1v-1v0zM323 409v0v0zM509 409v1v-1h-1h1h1h-1zM615 425v1l-1 -1h1zM615 427v1h-1v-1h1z
M614 433l-1 1v-1h1zM614 435l-1 1v-1h1zM423 439v1v-1v0zM612 439v1v-1v0zM424 440v0v0zM423 441h-1l1 -1v1zM610 443h-1v0h1zM525 445v0v-1v1zM421 445v0v0zM527 446h-1l1 -1v1zM608 446v1v-1v0zM215 447h-1h1zM341 450v0v0zM539 460h-1v0h1zM352 466h-1l1 -1v1zM359 471v1
l-1 -1v0h1zM362 474h-1h1zM370 477v1v-1v0zM719 534h-1v-1zM732 579h-1v0h1zM240 586h-1h1zM243 602v0v0zM256 664l-1 1v-1v0h1zM533 671v0v0zM534 671v0v0zM538 671h-1h1zM551 673h-1l1 -1v1zM518 673v1l-1 -1h1zM262 681h-1v0h1zM558 681h-1h1zM564 700l-1 1v-1h1z
M560 705h-1h-1v-1h1zM268 705v0v0zM564 708v0v0zM563 710h-1v-1zM573 727h-1v0h1zM685 -172v1l1 -1h-1zM733 -172v1v-1v0zM272 -171v0v0zM743 -171v0v0zM767 -171v0v0zM784 -171v0v0zM268 -171l1 1v-1h-1zM270 -171v1l1 -1h-1h-1h1zM782 -170h1v-1zM808 -170h1v0h-1z
M801 -169h1v0l-1 -1v1zM802 -169h1v-1zM244 -161v1l1 -1v-1zM238 -159h1v-1zM231 -156h1v0h-1zM426 -146v0v0zM425 -128v1v-1v0zM294 -116v1v-1v0h-1h1zM425 -114v0v0zM294 -111v0v-1v1zM425 -111v0v-1v1zM293 -110h1v0h-1zM555 -103v1l1 -1h-1zM425 -96v1v-1v0zM563 -94h1
h-1zM291 -93h1h-1zM565 -90l-1 1h1v0l1 -1h-1v0zM567 -83v1v-1v0zM567 -81v0v-1v1zM572 -73h1l-1 -1v1zM575 -67v1v-1v0zM575 -58v0v0zM578 -57v0v-1v1zM575 -57h1v0h-1zM292 -55v1v-1h1h-1v-1v1zM293 -49v1v-1v0zM578 -48v0h1l-1 -1v1zM578 -46l1 1v0l1 -1l1 1l-1 -1h-1
l-1 -1v1zM580 -44v0v-1v1zM217 -43h1l-1 -1v1zM582 -36v1l1 -1h-1zM584 -27h1v-1zM585 -26v0v-1v1zM586 -24v0v0zM587 -21h1v0h-1zM292 -19h1v-1zM587 -19v0v0zM589 -19v1v-1v0zM588 -17v1v-1v0v-1v1zM588 -14v0v0zM591 -13h1v-1zM590 -13v1l1 -1h-1v0zM593 0h1h-1zM816 0h1
h-1zM352 1v1l1 -1h-1v-1v1zM505 3h1h-1zM594 5h1v-1h-1v1zM596 5h1l-1 -1v1zM506 6v1v-1v0v-1v1zM506 8v0v-1v1zM600 15v0v0zM706 17h1v0h-1zM600 19h1h-1zM835 19v1v-1v0zM598 21h1v-1zM507 22v1l1 -1v0h-1zM600 23v0h1h-1v-1v1zM599 23v0v0zM601 28v0v-1v1zM846 31v0v0v-1
v1zM603 33v0v-1v1zM605 33h1v0h-1zM212 35v0v0v-1v1zM606 35l-1 1l1 -1v0zM604 36v0v0zM290 38h1v0h-1zM606 38v1l1 -1h-1zM606 40v1h1v-1h-1zM607 42v1v-1v0zM211 47v0v0zM211 49v0l1 -1h-1v1zM608 55h1v-1zM354 60h1v-1h-1v1zM867 60v1h1l-1 -1v0zM438 62v0v0zM437 63v0v0
zM614 70h1v0h-1zM291 71v0v-1v1zM356 70v1l1 -1h-1zM618 78v0v0zM620 81h1h-1zM620 85h1h-1zM882 85h1v0h-1zM883 86v1v-1v0zM622 92l-1 1h-1h1h1l1 -1l-1 -1v1zM359 93h1l-1 -1v1zM623 98v0v0zM624 99v1v-1v-1v0v1zM623 101h1h-1zM289 106h1v0h-1zM899 116v0v-1v1zM631 116
h1v0h-1zM631 117v1v-1v0zM631 119v0v0zM528 120h1l-1 -1v1zM448 123h1v0h-1zM634 124v0v0zM634 128v0v-1v1zM207 128v0v0zM450 129h-1h1v-1v1zM635 132v0v0zM905 134v0h1h-1v0zM367 138l1 1v-1h-1zM637 138v1l1 -1h-1zM909 141v1v-1h1l-1 -1v1zM206 144h1l-1 -1v1zM643 153
v0v0zM292 154v0v0zM645 157v0v0zM841 157h1h-1zM207 158v1v-1v0zM916 161v0v0zM206 162h1h-1zM917 163h1v-1zM649 166v0v0zM648 167q0 1 0.5 1t0.5 -0.5t-1 -0.5zM290 171h1v0h-1zM207 175h1v0h-1zM922 177v0v-1v1zM206 177v0v0zM923 178v0v-1v0v1zM290 178h1v-1zM205 180h1
v0h-1zM206 181h1h-1zM925 181v1v-1v0zM658 189v0v0zM928 195h1l-1 -1v1zM462 197h1v0h-1zM930 202v1v-1v0zM664 204v0v-1v1zM294 210v1h1v-1h-1zM466 213h1v0h-1zM934 213h1v0h-1zM861 216v0v-1v1zM938 220v0v0zM468 221v0v-1v1zM468 223v0v0zM938 224h1v-1h-1v1zM865 228
l1 1v-1h-1zM679 231v0v0zM679 232v0v0zM470 234v0v0zM681 234v0v0zM469 235h1v0l-1 -1v1zM470 236h1v-1h-1v1zM867 238h1h-1zM295 239h1l-1 -1v1zM294 240v1l1 -1l-1 -1v1zM942 239v1v-1v0zM686 240v0v0zM689 245v1h1v-1h-1zM473 252v1v-1v0zM392 256h1l-1 -1v1zM704 256v0
v0zM874 256v1v-1v0zM703 257v0v0zM394 259v0v0zM873 260h1v-1h-1v1zM947 261v0v0zM947 265v0v0zM874 267v1v-1v0zM948 268l1 1h1l-1 -1q-1 -1 -1 0zM206 269v1v-1h1h-1v0zM948 271h1v-1h-1v1zM876 272v0v-1v1zM875 274h1v0h-1zM877 277v1v-1v0zM877 279v0v0v-1v1zM299 279v0
v0zM726 280v0v0zM877 280v1l1 -1h-1zM727 282h1v-1zM877 282h1h-1zM950 283v0v0zM949 288v0h1l-1 -1v1zM736 290h1h-1zM401 293v0v-1v1zM740 293h1v-1zM745 296h1l-1 -1v1zM879 296v0v-1v1zM745 297v1l1 -1v0h-1zM747 299v0h1h-1h-1h1zM749 299v0v0zM747 301h1v0h-1z
M755 303v1v-1v0zM303 309v0v0zM762 311v1v-1v0zM766 316v1h1q0 -2 -1 -1zM304 317h1v-1h-1v1zM772 320v1v-1v0zM774 320l1 1v-1h-1zM779 325h1h-1zM781 327v0v0zM305 330v1l1 -1h-1zM205 332h1v-1zM788 335v0v0zM790 336h1h-1zM792 339v0v0zM798 340v0v0zM794 341v1v-1v-1v1
zM804 346v0v0zM597 347l1 1v-1h-1zM876 347v1v-1v0zM808 353v0v-1v1zM812 354v0v-1v1zM808 355v0v-1v1zM812 355h1h-1v0zM874 356v1v-1v-1h-1zM811 356v0v0zM872 357l1 1v-1h-1zM815 358v0v0zM872 360v0v0zM818 361v0v0zM819 362h1v0h-1zM859 363h1v-1zM823 363h1h-1z
M863 363h1v0h-1zM865 364v0v-1v1zM825 364v0v0zM828 366v0v0zM858 368h1l-1 -1v1zM496 368h1v0h-1zM853 368v1v-1v0zM856 369v0v-1h-1zM497 369v0v0zM830 369v0v0zM844 369h1h-1zM852 370v0v-1v1zM838 371v0v-1v0v1zM839 371h1v-1zM851 371h1h-1zM840 371v1l1 -1h-1z
M842 372v0l1 -1h-1h-1zM693 379v0v0zM697 386h1v0h-1zM609 390h1h-1zM207 399v0v0zM321 399h1h-1zM514 417v0v0zM611 422l1 1v-1h-1zM423 430v0v0zM422 431v0v0v-1v1zM207 432h1v-1zM211 434h1v0h-1zM610 438h1l-1 -1v1zM215 473l1 1v-1h-1zM216 479h1l-1 -1v1zM224 530h1
v-1zM228 544v0v-1v1zM723 544v0v0zM723 545v1v-1v0zM235 576v0v0zM235 579h1v0h-1zM248 634v0v0zM255 668h1v0h-1zM257 672h1h-1zM541 673v0v-1v1zM523 674v0v0zM550 676v1v-1v0zM258 677v0v0zM553 677v1v-1v0zM554 680h1v0h-1zM560 702v0v-1v1zM574 732v0v0zM572 737h1h-1z
M570 745h1q1 -1 0 -1h-1v1z" />
  </g>

</svg>
