<?xml version="1.0" standalone="no"?>
<!DOCTYPE svg PUBLIC "-//W3C//DTD SVG 1.1//EN" "http://www.w3.org/Graphics/SVG/1.1/DTD/svg11.dtd" >
<svg viewBox="0 -200 1000 1000">
  <g transform="matrix(1 0 0 -1 0 800)">
   <path fill="currentColor"
d="M523 -15l-4 4t-3 4q-3 2 -8 8q-2 3 -2.5 4t-2.5 2q-1 2 -5 7q-1 1 -2.5 3t-2 2t-0.5 0.5t-3.5 4.5l-3.5 4l-7 9q-4 4 -6 7t-3 4t-2 2.5t-2 1.5q-4 5 -6 7q0 1 -1 2l-6 7q-5 6 -7 8l-1 1q0 1 -3 4l-1 1q0 4 -6 7v0.5t-1 1.5t-1 1.5t-1 1t-3.5 3.5l-2.5 3l-1.5 2t-2.5 3
t-2 2.5t-3 3.5t-2.5 3t-2.5 3t-2 2.5t-1.5 2t-1.5 2t-1.5 2l-1.5 1.5l-1 1q-4 4 -9 10q-4 6 -5 7q-1 0 -1 0.5v0.5l-3 3l-3 4l-1 1l-1 2q-2 1 -4 5q-2 2 -3 2q0 1 -1.5 2.5t-2 2.5t-2 3t-2.5 3l-6 6q0 1 -1 2v1q-2 1 -7 8l-3 3q-3 3 -8 10l-3 3l-3 4q-2 3 -3 4l-2 2
q-5 6 -6 7q0 1 -2 3l-2 2l-2 3t-3.5 4.5t-3.5 4t-2.5 3l-2.5 2.5q-3 5 -8 10q-1 1 -1 1.5t-0.5 1l-2.5 2.5l-4 5l-5 6q-2 3 -2.5 3t-0.5 0.5t-1 1.5q-2 3 -7 9l-4 5l-4 4.5t-5 5.5l-1 2q-1 1 -1 1.5t-4 4.5l-2 2t-4 5l-6 8q-2 3 -3.5 4t-1.5 1.5t-0.5 1.5t-2.5 3l-6 7
q-4 5 -5.5 6.5l-1.5 1.5v1t-1 1t-6 7l-7 9q-1 0 -3 3l-13 17l-4 4l-5 6q-2 3 -2 3.5t-1 1t-3 3.5q-7 9 -8 9v0.5t-1.5 2.5t-4.5 5q-7 10 -10 12q-2 3 -9 12q-4 5 -5 6l-2.5 2.5t-2.5 3t-2.5 3.5t-2 2t-1.5 1q-3 5 -9 12l-2 2t-2 3l-3 3q-1 2 -3 4l-4 4l-2 2l-2 3l-3 3
q-3 3 -5 6l-2.5 2.5l-3.5 3.5l-4 6l-6 7l-6 7q-3 3 -4.5 5.5t-3.5 4.5l-2 2h-2l-3 1l1 2v2l-1 2q-2 3 -4 5q-4 4 -4 6q0 1 -3 2h-1l-1 2q-1 3 -4 6q-6 6 -5 9q0 1 -1 2v1l1 1q7 5 17 16q2 2 4 3l5 5l17 17l8 8q4 4 4.5 4h0.5q0 2 15 16q3 2 4.5 4t14.5 14l16 16q4 3 4.5 3
t0.5 0.5t2 2.5t2.5 2t0.5 0.5t9 9.5q23 22 23 23h1l4 4l8 8q6 5 6 5.5t1.5 1.5t3.5 3t2.5 2t0.5 0.5t3 3.5l3 3l2 1q1 0 1.5 1t1.5 1h1v1l1 1h7h7v-1v0v1h2q1 0 4 -1l3 -1h4q5 0 10 -1l2 -1h14q27 0 28 -1h15.5t20.5 -1h34q26 -1 37 -1q5 -1 20.5 -1h26.5q31 -1 61 -1h27h3
l1 -1h1v1l4 -1h49q16 -1 26 -1h27q33 -1 49 -1q22 -1 40 -1q12 0 21.5 -0.5t19.5 -0.5h11v-1h1v1l1 -1l1 -1v1l1 1v-1v0h1v1h1q2 0 2 -1h2l1 1l1 -1q14 -13 14 -14l5 -5t8 -9l7 -7l7 -7l4 -4l2 -2v-1q1 -1 3 -2q7 -8 8 -8t6 -6q2 -3 3 -3v-1l1 -1l1 -2v-1h1l1 1v-1l-1 -1h1
l1 -1l1 -1h1v-1v-1h1v-1v-1h1q1 -1 2 -1l2 -2h1v-1v0h1l-1 -1v-1l1 -1h1v-1v1v1h1v-1q0 -1 1 -1v-1v1v1l3 -3l4 -4l1 -1v-1q1 0 2 -1q2 -2 3 -4v-1l1 1v-1l10 -10q3 -2 3 -2.5t2 -2.5l4 -4q3 -4 10 -10l7 -8q4 -4 5 -4l1 -1v-1q1 0 1.5 -1.5t3.5 -4.5l10 -9q1 -1 2 -3v-1h1
h1v-1v-0.5t1 -0.5v-1h-1v1v-1l1 -1h-1h1h1l-1 -1v0l1 -1v-1v-1h1l1 1v1l1 -1q1 0 2 -1l1 -2h1l1 -1l1 -1h1q1 0 -1 -3q-6 -8 -8 -10t-2 -3h-1v-1q0 -1 -0.5 -1t-0.5 -0.5t-2 -2.5l-2 -2q-1 -2 -2 -3t-1 -1.5t-0.5 -1t-2.5 -3t-2.5 -3t-1 -1.5t-4.5 -6.5t-5 -7t-2 -2t-1 -1
t-2 -2.5q-3 -4 -3 -4.5t-1 -1.5l-3 -3q0 -1 -5 -6q0 -1 -1.5 -3t-2.5 -3q-6 -7 -13 -17l-12 -15l-1.5 -2t-3.5 -4l-4 -6l-2.5 -2.5t-0.5 -2t-0.5 -1.5t-1 -1t-3.5 -5q-10 -10 -10 -12l-1 -1t-1 -1.5t-2 -3.5l-5 -5q-1 -2 -3 -4.5t-5 -7t-4 -5t-1 -1.5v-1q-1 0 -1 -0.5t-1 -1
t-1 -1t-1 -1.5q-2 -3 -10 -14q-2 -2 -6.5 -8.5t-6.5 -8.5q-6 -8 -8 -10q-1 -1 -2 -3t-5 -6l-5 -7q-2 -2 -3.5 -4t-2.5 -4l-14 -17l-5 -7q-3 -4 -4.5 -5.5t-1.5 -2t-1 -2t-3 -3.5l-5 -6l-1.5 -3t-2.5 -3.5t-3.5 -5t-4.5 -6.5l-9 -13l-10 -13q-4 -5 -4 -5.5v-1.5q-2 0 -7 -9
q-6 -8 -7 -9q-1 0 -1 -0.5t-1 -1.5t-3 -4t-2.5 -3t-0.5 -0.5t-2 -3.5l-2 -3l-1 -1t-2.5 -3t-2.5 -3t-1 -1.5t-2 -2.5t-2 -2.5v-0.5h-1q0 -1 -1 -3l-4 -5q-3 -4 -3.5 -4.5t-3.5 -4.5l-8 -10q-1 -1 -3 -4l-4 -5q-3 -4 -4 -6q-2 -1 -2 -1.5t-1 -1.5q-6 -7 -6 -8l-2.5 -3
t-2.5 -3.5t-1 -2t-2 -2.5l-4 -4q-2 -4 -2 -4.5t-1.5 -1.5t-2 -2t-3.5 -4t-4 -5.5t-2 -2.5v0v-1l-3 -3t-3 -3.5t-1 -1.5t-3 -4l-3 -4q-2 -2 -2 -2.5t-1 -1.5q-2 -2 -3 -4h-1l-1 -2l-1.5 -1.5t-2.5 -3t-3 -3.5t-1 -1.5t-4 -4.5q-4 -6 -4 -7h-1l-1 -2q-1 -1 -1.5 -2t-1.5 -1v0
q0 -1 -2 -3t-2 -2.5t-0.5 -0.5t-0.5 -0.5v-0.5q-2 -2 -4 -5l-3 -3l-3 -4.5t-3.5 -4t-4.5 -5t-4 -4.5l-5 -5q0 -1 -1.5 -2.5l-1.5 -1.5l-1.5 -2t-4 -4.5l-4.5 -4.5l-2 -3v-1v-1l-1 1l-2 -2q-1 -1 -1 -2q-2 -2 -2 -4v-1h-1h-1zM590 219q0 1 -0.5 1.5t-1 0t0.5 -1.5v-1h1v1z
M468 305q0 1 2 3l2 2l-1 2v2q-1 5 -1 12v6l1 1q-1 2 3 6q2 2 4 4.5t4.5 5l5.5 5.5l3 3v0.5t1 1.5q2 2 5 6l2 2q4 4 6 7q1 2 2.5 3.5t3.5 4t4 4t2 2.5v1l2 -2l4 -5q3 -4 5 -6t3 -3.5t4 -3.5q6 -7 9 -10q2 -3 4.5 -6t4.5 -5t3 -4l2 -1l2 -1l1 -1l4 -4q4 -4 4 -5h1v-6v-7l-1 -2
l-1 -3l-1 -1l2 -2q1 -3 3 -4l2 -2l1 1q3 2 8 6l3 2h1v1v1l1 1l2 1v1l1 -1l2 2l5 5q3 2 5 4t2.5 2t2.5 2l1 2v1q-2 4 -5 5h-1h-4q-9 0 -16 2l-1 1l-6 5l-6 7q-11 12 -15 16l-7 7l-1 2q-4 4 -8 9q-2 2 -4 3q-5 5 -7 8l-1 2v1q3 3 8 7q2 2 3 4l4 4q3 2 3.5 2t0.5 0.5t1 1.5l4 5
l7 6q12 12 13 15q6 6 7 6l5.5 1t9.5 1h3h1l2 -1l1 1q0 1 0.5 1t2.5 2l2 1v1v1l-1 2q-1 1 -3 2l-13 11q-12 11 -15 13l-3 3l-1 1h-2l-2 -1l-1 -1l-2 -1l1 -1q0 -1 1 -3l1 -2v-7v-7v-3v-4l-4 -4q-3 -4 -3.5 -4.5t-2 -2.5t-2.5 -2.5t-3 -2.5q-5 -7 -9 -11l-4 -6q-2 -2 -2.5 -2
t-3.5 -3.5t-4 -4.5q-2 -2 -6 -7l-2 -2h-1h-1l-2 2l-6 7l-5 6q-2 1 -4 3.5t-3 3.5l-4 4l-3.5 3.5t-3.5 4t-3.5 4l-5 5t-5.5 6.5l-2 2l-1 2v6l-1 3l2 3q2 3 2.5 3.5t0.5 1.5v1l1 1v2v2l-3 3l-3 2h-1h-2h-1q-1 -1 -3 -2q-4 -4 -6 -5l-2 -2t-1.5 -1t-0.5 -0.5t-2.5 -2t-3 -2.5
t-1 -1t-2 -1t-5.5 -4.5t-7 -6.5l-3 -2v-1v-1l1 -2l1 -2l2 -2l2 -1h2h1l2 1q2 0 4 1l2 2h3l3 -1h2q2 -1 3 -1h1l1 -2l2.5 -2.5t7.5 -8.5l10 -11q4 -4 4 -5q8 -9 18 -19q2 -3 4.5 -5.5l3.5 -3.5q1 -2 -5 -9l-8 -8l-9.5 -9.5l-4.5 -4.5l-8 -9q-4 -4 -4 -4.5t-6 -5.5l-5 -5
l-3 -1q-7 0 -11 1q-1 0 -4 1h-2h-2l-1 -1l-3 -2l-3 -3v-1v-1l14 -13q14 -13 17 -15l4 -4l2 -1h1h1h1z" />
  </g>

</svg>
