<?xml version="1.0" standalone="no"?>
<!DOCTYPE svg PUBLIC "-//W3C//DTD SVG 1.1//EN" "http://www.w3.org/Graphics/SVG/1.1/DTD/svg11.dtd" >
<svg viewBox="0 -200 1000 1000">
  <g transform="matrix(1 0 0 -1 0 800)">
   <path fill="currentColor"
d="M880 -154q0 -3 0 62.5v181.5v253v359.5v149.5q-1 0 -1 -497.5t1 -508.5zM473 478q-39 -13 -39.5 -13.5t5.5 -16.5q62 -157 62 -171q0 -1 -1.5 -1t-5 0.5t-7.5 2.5l-47 19l-20 8q-64 28 -139 57q-12 5 -12 4.5t-3 -44.5l-6 -83q-3 -39 0 -39h2q2 1 15 3t44 6q87 13 108 14
t56 3t35.5 1.5t-7.5 -17.5l-15 -36q-7 -15 -7.5 -18.5t3.5 -8.5l8 -9q14 -19 35 -43l33.5 -39.5t9.5 -8.5q2 1 8.5 3.5t28.5 23.5l34 32q39 37 53 52q6 6 6 13t-3 42q-18 163 -19 164t-25 23q-89 82 -111 97q-7 5 -25 -1q-15 -6 -54 -19zM880 -177q1 1 0 2l-1 -2h1z" />
  </g>

</svg>
