<?xml version="1.0" standalone="no"?>
<!DOCTYPE svg PUBLIC "-//W3C//DTD SVG 1.1//EN" "http://www.w3.org/Graphics/SVG/1.1/DTD/svg11.dtd" >
<svg viewBox="0 -200 1000 1000">
  <g transform="matrix(1 0 0 -1 0 800)">
   <path fill="currentColor"
d="M526 697h3q4 0 8 -1q7 0 10 -1q14 -2 17 -3q16 -5 17 -6t2 -1t2 -1h1l2 -1l6 -3q9 -5 13 -9q1 0 2.5 -1.5l2.5 -2.5t1.5 -1h1.5q4 -4 8 -6q3 -2 8 -8q5 -5 6 -6.5t3 -3.5t2.5 -3.5t3.5 -4.5v-0.5t1 -1.5q5 -5 5 -8v-0.5t1.5 -3t2 -3t1 -2.5t1.5 -3.5t2 -3.5t1.5 -3.5
t1 -2.5l1 -2t0.5 -1.5t0.5 -1.5t0.5 -5q1 -6 1.5 -6.5t0.5 -1.5t0.5 -4t0.5 -4.5t0.5 -2t0.5 -7t0.5 -7t0 -0.5t-0.5 -4q0 -8 -1 -10q-1 -1 0 -2q-1 0 -1 -2q0 -1 -1 -4l-1 -3q0 -1 -0.5 -2.5t-0.5 -2.5t-1 -1q-2 0 -2 -6q0 -1 -1 -2.5t-1 -2v-1.5q-1 -1 -2 -5q-2 -4 -3 -5
q1 0 -0.5 -2.5t-1 -2.5t-0.5 -1.5t-2 -3.5t-1.5 -2t-0.5 -1t-3 -6l-4 -4q-3 -5 -4 -5q-1 -2 -2 -2q-10 -13 -21 -19q-6 -3 -6 -4h-0.5t-3.5 -2t-3.5 -2t-1.5 -1l-1 -1q-3 0 -5 -3q-1 -1 -2 -1h-1l-2 -1l-2 -1l-0.5 -0.5t-0.5 -1t-1 -1.5l-1 1l-2 -2q-1 -1 -2 -5v-5
q-1 -3 -1 -11.5t0.5 -9t0 -1t0 -1t0.5 -3.5v-3l0.5 -1.5t0.5 -6v-5t0.5 -0.5t0.5 -2v-1v-1q0 -2 0.5 -3t0 -2t0.5 -0.5t1 0t-1 -0.5t-0.5 -1l0.5 -1v-1v-1t1 -1.5t0.5 -1t-0.5 -2v-1.5v-1q1 0 1 -0.5t1 -0.5l-1 -1l0.5 -1t0 -1.5t0.5 -0.5v-3l1 -2v-1h-1q1 -1 1 -2l1 -2v-2
q0 -3 1 -5t0.5 -2.5t0.5 -1.5t1 -2v-1v-1l1 -1v-1q-1 0 -1 -0.5t0.5 -0.5t0.5 -1t1 -2h1q0 1 -1 1q0 1 0.5 0.5t0 -2.5t1 -3t0.5 -2l2 -2q0 -1 -1 -1v-1v-1q1 0 1 -1.5t0.5 -1.5t0 -0.5t0.5 -1.5t0.5 -1t0.5 -1.5t1 -2.5h1l-0.5 -1t0.5 -1.5t0 -0.5l1 -1v-1t-0.5 -1t0.5 -2
l1 -1q0 1 1 1l-1 -2v-2q1 1 1 0v-1q1 -1 1 -3t3 -5v-2q1 -1 1 -2l1 -1v-1l1 -2t1 -3t0.5 -1t0.5 -1.5t0.5 -1.5t2.5 -4t2.5 -4t0.5 -1v-1l1 -1q4 -11 6 -11q1 0 1 -1t2 -4l4 -5q1 -2 3 -3h19.5h23.5q26 1 32 2q2 1 6 1q5 1 11 1q6 1 10 1q3 1 3 0q1 -2 1 -7q1 -2 1 -5v-3h1
v-8q1 -7 1 -8q0 -2 0.5 -2t0.5 -1.5t-1 -1.5q1 0 1 -6q1 -5 1 -8v-6q1 -4 1.5 -5.5t-0.5 -2.5v-2t1 -1l-1 -1q1 0 1 -1t-1 -1v-1q1 0 0.5 -1t-0.5 -2q1 -2 -0.5 -3t-3.5 -1t-2 -0.5t-2 -0.5h-3q0 1 -3 1t-3 -0.5t-2 -0.5l-4 1h-2l-0.5 -0.5l-0.5 -0.5l-1 -1q-2 1 -2.5 1
t-0.5 -1h-1l-0.5 0.5l-0.5 0.5q-1 -1 -2 -0.5t-1 0t-0.5 0t-2.5 0.5t-2.5 -0.5t-1.5 -0.5q-1 1 -3 0h-2q-1 1 -1 0.5t-1 -0.5t-1.5 -0.5t-0.5 0t-1 0l-1 -0.5q-1 2 -3 0q0 -1 -1 0h-3l-2 -1q-2 1 -1 -1v0q0 1 -2 1t-2 -0.5t-1.5 -0.5t-2 -0.5t-1 -0.5t-0.5 0.5t-1 0t-2 0
t-1 0t-0.5 -0.5t-0.5 -1l-1 1q-1 0 -1 -0.5t-0.5 -0.5h-1.5t-2 0.5t-1 0t-2 -0.5q-2 1 -3 0t-2 0l-1 1q0 -1 0.5 -1t0 -0.5t-1.5 0.5v0.5t-1.5 0l-1.5 -0.5h-1q0 -1 -1.5 -1t-1.5 0.5t-1 0.5t-1 -0.5t-3 -0.5h-3h-4q0 1 -1 0q0 1 -1 0.5l-1 -0.5h-1q0 -1 -1 -1t-0.5 1t0 1
t-0.5 -0.5t-1.5 -1t-2 0t-1 0t-1.5 0t-2 -0.5l-1 -1h1h-1t-1 0.5t-1 0.5h-2h-1h-1q-3 0 -3 -0.5t0.5 -1l0.5 -0.5h-2v1h-1v-1l-0.5 -0.5t-1.5 0.5t-2 0h-1l-4 -1q0 2 -3 0h-1q0 1 -1 1h-2h-1h-1l1 -1t-0.5 -1t-1.5 1h-2h-1v-1h-1q0 1 -1 1t0 -1l-2 1q-1 0 -1 -1q-1 0 -1 -1
v1l-1 1q-1 -1 -2 -1h-1h-1l-2 -1l-1 -1l-0.5 0.5t-4 0.5h-3.5l-1 1v-2h-1l-1 1h-1l-3 -1q-1 1 -1 0.5t-1 -0.5h-2q0 -1 -1.5 -1t-2.5 -1l1 1l-1 1q-1 0 -1 -1l-1 1l-1 -1v-1q-1 0 -1 0.5v0.5h-1l-1 -1v1q-1 0 -1.5 1t-1 -0.5t-2 -0.5t-1.5 0h-1q-1 0 -2 1q0 -1 -1 -1h-1
q0 1 -3 0l-1 1q0 -1 -1 -1h-0.5h-1.5h-1h-1q0 -1 -1 -1l-1 1q0 -1 -1 -1t-1 1l-1 -1h-1h-1v-1v1l-1 0.5t-1 -0.5h-1q-1 -1 -2 0l-1 1l-2 -1l-1 1h-3q-2 0 -2 -1h-2q-1 1 -2 1l-3 -1v-1v1h-1q0 1 -1 1t0 -1h-1q-1 1 -2.5 1t-1.5 -0.5t-0.5 0t-1.5 0.5t-2 -0.5t-2.5 -0.5h-4
t-2.5 0.5t-1 0.5v-1h-1v0l-1 1q-1 0 -1 -1h-1h-1q-1 0 -1.5 -0.5t-0.5 0.5h-3q0 -1 -1 -1t0 1h-1h-1l-0.5 -1t-1.5 0l-1 1q0 -1 -0.5 -0.5t-0.5 -0.5h-1l-1 1q-1 -1 -2 -1h-3.5h-3h-2t-2 -0.5t-0.5 0t-2.5 0.5t-2.5 -1v1q-1 0 -1.5 -0.5t-1.5 -0.5q-1 1 -15 0q-4 0 -4 0.5
t-1 0t-7.5 -0.5h-6.5h-1h-3h-5.5h-2.5h-5.5h-5.5h-2q-2 0 -2 -0.5t-4 -0.5h-11q-5 0 -11 -1q-10 0 -26 -1q-5 0 -6 1t-1 13v13v2v3v5v8v4v7.5t-1 7.5q0 1 0.5 1t0.5 1.5t-0.5 2t-0.5 4t1 4.5q0 2 19 3h11q2 0 9 1h9q14 2 39 3q15 0 15 1q1 1 1 0t1 -0.5t0 1.5h1
q1 -1 1.5 -0.5l0.5 0.5q0 1 1 1t1 0.5t1.5 2.5t1.5 2.5t0.5 0.5t0.5 1t1 1q0 1 0.5 1t0.5 1v1q2 2 2 3t1 1q0 1 -1 1t-1 0.5t1 0t2 1.5l1 1q-1 0 -1 1t0.5 0.5t1.5 0.5v1l1 1v1v0.5t1 0.5v1h1l1 4q1 0 1 1t1 1v2l1 1v1q1 0 1 1v2h0.5t0.5 1.5t0.5 1t0.5 1.5t1 2t1 2l1 2
l-1 1v1q1 0 1.5 0.5t-0.5 1.5h1v1l1 1v1q-1 1 0 1.5t0 0.5l1 1v1v1q0 1 1 1q0 1 1 1l1 1v3v1l1 1t0 3q-1 1 1 2t2 4q-1 1 0 1.5t0 0.5v1q1 0 1 1t-0.5 1.5t0.5 0.5t0 2q0 1 0.5 1.5t0.5 1t1 1.5v1l1 1v1q1 0 0.5 1t0.5 2v1v2q1 0 1 1v1q1 2 1 5l1.5 1.5t0.5 5.5q0 2 0.5 2
t0.5 2.5t0.5 2.5t0.5 1.5t0.5 1.5t0 1t0 1.5t0.5 1t0.5 1t0 1.5t0 1.5t0.5 1.5q1 5 2 5l-0.5 1t0 1.5t0 1t-0.5 1t1 -0.5q0 1 -0.5 1.5t0 0.5t0 1t0 1t0.5 1v1q1 -1 1 -0.5v2v1.5v2v1q0 1 1 1q-1 0 -0.5 1.5t-0.5 1.5q1 1 0.5 1.5t0.5 1.5t0 2v1q0 -1 0 0.5t0.5 2.5t0 2t0 1
t0.5 1t-1 0v1v3l0.5 1l0.5 1q0 1 1 2q-1 0 -1 2.5t1 2.5l-1 1v1v1v0q1 1 0.5 2.5t0.5 1.5v1v1q-1 3 0 4q-1 0 -1 0.5t0.5 0.5t0 1l-0.5 1v0.5t-0.5 1.5t-0.5 1.5t-1.5 2l-1.5 1.5l-1 1t-2 1h-1l-3 2t-4 2h-1q0 1 -3 1l-1 1t-1.5 1t-3 1.5t-2.5 2t-1.5 1t-4 2t-3.5 1.5v0
q0 1 -2 2t-2 1.5t-1.5 1l-1.5 0.5q-4 3 -4 2l-1 2q-3 2 -3.5 2t-5.5 6q-3 3 -4 3v0q0 1 -1 1.5t-1 1t-3 3.5t-5 5.5l-2 2.5v1t-1 1q0 1 -4 5v2t-3 7q-1 1 -1 1.5t-1 1.5v2l-1 1q-1 1 -1 2q0 2 -2 5v0.5t-0.5 1t-0.5 1.5t-0.5 1t0 0.5t0 1.5l-1.5 3q-1 3 -1 4q-1 0 -1 1t-1 4
t-1 4v1.5t-0.5 2t-0.5 1.5t-0.5 2.5t-1 6l-0.5 4.5q-1 1 -1 15q0 9 1 16q2 9 4 14q1 3 1.5 5t1 3t0.5 1.5t1 2t1.5 3.5t2.5 6.5l2 4.5h1l1 2t3 4l4 7q2 4 3 5l9 10q2 3 3 4q2 3 4 2q1 0 9 6q23 17 36 21q36 11 59 11zM466 339v-1h1zM457.5 308q-0.5 0 -0.5 -0.5t1 -0.5
q0 1 -0.5 1zM447 273v-1h-1q0 1 1 1zM720 163v-1v1zM665 157h1v-1q-1 0 -1 1zM594 152l1 -1v1h-1zM605 151h-1h1v0z" />
  </g>

</svg>
