<?xml version="1.0" standalone="no"?>
<!DOCTYPE svg PUBLIC "-//W3C//DTD SVG 1.1//EN" "http://www.w3.org/Graphics/SVG/1.1/DTD/svg11.dtd" >
<svg viewBox="0 -221 1000 1000">
  <g transform="matrix(1 0 0 -1 0 800)">
   <path fill="currentColor"
d="M159 788h2q1 -2 3 -5q2 -2 3 -4l12 -16q2 -2 4.5 -5t2.5 -3.5t7.5 -10.5t7.5 -10.5t4 -5.5t6 -8t13 -16l2 -3q0 -3 23 -30q8 -11 10 -14q1 -1 3 -4l21 -27l13 -17q3 -5 3 -5.5t8 -11t8 -11t4.5 -6t5 -6t0.5 -1.5t0.5 -1t2.5 -3t2.5 -3t1 -1t3.5 -5q2 -3 5 -8l7 -9
q7 -8 12 -15q11 -15 15 -21q7 -8 7.5 -8.5t1 -1.5t2.5 -3t4 -5t2.5 -3t0.5 -1q0 -2 14 -17q1 -2 4 -6l4 -5q2 -2 14 -16l8 -9l11 -13q8 -9 11 -12l6 -8q4 -3 4 -4q1 0 9 -10l3 -3l6 -7l10 -10q4 -5 4.5 -5.5l3 -3l2.5 -2.5l4.5 -4.5t6 -6.5t5 -5.5t8 -9.5t6 -7t1.5 -2
t1.5 -1.5t3 -3.5t4.5 -6q4 -4 9 -10q2 -3 5 -5q2 -2 3 -4.5t2 -3.5q2 -2 7 -8l2 -3l-2 -1q-2 -1 -2.5 -1.5l-7 -7t-7.5 -8.5t-2.5 -2t-1.5 -0.5t-8 -9.5t-8.5 -9t-2 -2.5t-2.5 -3.5q-4 0 -3 -4q0 -1 -0.5 -1h-0.5q-1 0 -6 -6q-13 -16 -14 -17q-1 0 -1 -0.5t-4 -4t-4 -4.5
q1 -4 -9 -10l-1 -1v-3l-2 -1l-1 -1.5t-2.5 -1.5t-1 -1t-2.5 -4l-6 -7q-4 -5 -5 -5h-1q0 -1 -3.5 -5.5t-3.5 -3.5v-1q0 -1 -1 -1t-8 -9t-8 -9t-1 -1.5t-1 -1.5t-1.5 -1t-2 -2t-5.5 -6t-7 -8q-3 -2 -4 -4l-5 -5t-3.5 -4.5t-2.5 -2.5l-5 -5l-6 -7l-5 -6q-4 -3 -5 -3.5t-0.5 -1
t-2 -2t-2.5 -2t-2.5 -4t-3.5 -3.5t-5 -6l-4 -4q-2 0 -15 -15q-3 -4 -3.5 -4.5t-5.5 -6.5t-6 -6l-1 -2q-1 -2 -2 -2.5t-0.5 -1t-2 -2t-2 -2t-1.5 -1.5h-1v-2q-2 1 -2.5 -1t-1.5 -2t-5 -5.5t-8 -9.5t-4.5 -5t-1.5 -1t-1.5 -1.5t-1 -1.5t-1.5 -1l-4 -4l-6 -7q-4 -5 -5 -5t0 -1
q-1 1 -2 0t-1 -2t-2 -2l-1 -1q0 -1 1 -1v-1v0l-1 -1l-91 -102q-2 -2 -3 -4l-2 -2h-1q-1 -1 -0.5 -1.5t-1.5 -2t-4 -4.5q-12 -16 -17 -22l-10 -10q-5 -8 -8.5 -11t-3.5 -4t-1 -1t-1.5 -1t-4.5 0q-4 2 -10 9q-3 4 -6 6q-1 1 -1 2t-7 8l-6 6q0 1 3.5 6t4.5 5t4 3.5t7 6.5
q5 5 8 9q2 2 2.5 2t2 2t9 10l11.5 12q10 12 12 12q1 0 2.5 2.5t4.5 5.5q2 2 3 2v1l77 80q2 2 4 5l6 6t6.5 7t5.5 6t4 4.5t6 6.5l15 18q2 1 9.5 9.5l7.5 8.5l7 8l8 9q3 3 5 3q1 0 1 24v21v15v16v14q0 6 0.5 20.5t0 16t0 8t0.5 17.5v65q1 9 0 15v11v14q0 6 0.5 8t-0.5 6v39
q0 3 -1 10v10q0 13 -1 26v18v9v14q1 9 -0.5 10.5t-4 5.5t-3.5 4t-1 1t-3 4.5t-4.5 6t-2.5 3.5l-3 3q0 1 -0.5 1h-0.5l-2 2q-3 6 -5 8q-2 1 -2 1.5t-2 2.5t-2 3t-1 1l-2 2t-3.5 4l-5 7t-5 6.5t-2 1.5t-0.5 1.5t-4.5 6.5t-4.5 6t-2.5 2.5t-3.5 4t-2 3.5q-4 2 -5 7q0 1 -1.5 2
t-5 6t-5 6t-3.5 4.5t-5 6t-3 4t-1.5 2t-2 2t-3.5 4.5q-2 3 -2 4q-1 1 -3 3.5l-2 2.5l-2 2q-2 2 -2.5 4t-1.5 2v1q0 1 -2.5 3t-2.5 3l-0.5 0.5l-0.5 0.5q-1 0 -1 2t-1.5 2.5t-1.5 1.5t-1 1.5t-1 1.5l-1 1l-2 3q-1 3 -2 2.5t-2 2t-2 2.5t-1.5 2.5t-3 5.5t-3.5 5q-3 6 -12 18
q-2 3 -2.5 3.5t-1 0.5t-0.5 1.5t-3 5t-3 4.5t-1.5 2t-0.5 3v1q-1 -1 -2.5 1t-3 5l-1.5 3q0 1 -1 0.5t-1 1t-1.5 3.5t-2 3.5t-1.5 2.5q-2 1 -8 11q0 1 -4.5 7.5t-5 8t-1 1.5t-1 1.5t3 6t5 6l5.5 5.5l7 8l6 8zM184 -163l-1 -1l1 -2v3z" />
  </g>

</svg>
