<?xml version="1.0" standalone="no"?>
<!DOCTYPE svg PUBLIC "-//W3C//DTD SVG 1.1//EN" "http://www.w3.org/Graphics/SVG/1.1/DTD/svg11.dtd" >
<svg viewBox="0 -200 1000 1000">
  <g transform="matrix(1 0 0 -1 0 800)">
   <path fill="currentColor"
d="M662 -193q-2 1 -12 22q-17 35 -21 44q-2 2 -3 4q-6 11 -6 15q0 1 -1 1t-1 1t-6 12q-1 2 -2.5 6t-2.5 5t-1 1.5t-4 8.5l-5 12q-2 3 -2.5 3.5t-1 2.5t-3 7t-2.5 6t-0.5 1t-2.5 4l-3 6l-5 10q-4 8 -6 11.5t-8.5 16t-7.5 13.5t-1.5 4t-1 3t-4.5 7.5t-4 8t-1.5 3t-2 4.5
l-0.5 2h-1v1q0 2 -1 3t-2.5 4.5t-3 5.5t-1.5 3q0 2 -7 15q-3 6 -4 11q0 1 -1 4l-1 4v2q1 2 1 6t0.5 4.5t0.5 6t0.5 6.5t0.5 8t0.5 14t0.5 14l1 7v1q1 0 1 3v8l1 5h1l-1 3q0 3 1 13q2 13 3 29q1 23 3 33q1 3 1 6t0.5 6.5t0.5 7.5v4l-1 2q-1 2 -1.5 2t-2 3.5t-3.5 5.5l-1 3h-2
h-2l-4 -5q-4 -4 -7 -7.5t-6 -7.5l-16 -19q-2 -2 -3 -3.5t-6 -7.5t-15 -16q-3 -2 -4 -4t-18 -23l-22 -29l-4 -5q-2 -3 -4 -5.5t-4 -4.5l-16 -22l-5 -8q0 -1 -10 -15l-3 -4h-1h-1l1 -1l-4 -4q-3 -4 -12 -13t-11 -12t-2.5 -3t-0.5 -1t-2.5 -4l-7.5 -9l-3.5 -3.5t-0.5 -1t-3 -4
t-3 -4.5t-1 -1q-2 -1 -6 -7t-4 -7q-1 -3 -5 -4h-3q-5 -2 -11 -3h-4l-1.5 -0.5t-6.5 -0.5l-4 -1v-1h-4q-4 -1 -8.5 -2t-6.5 -1h-1v-1h-2l-1 1l-1 -1q-1 -1 -6.5 -1.5t-6.5 -0.5q-2 -2 -12 -2q-5 -1 -5.5 -1.5t-2.5 -0.5h-2h-1l-1 -1h-4q-3 0 -3 -0.5t-1.5 -0.5t-5.5 -1
t-10 -1l-5 -1l-1 1l-1 2v2v2l4 4l4 4l2 4l4 7q6 9 8 14q3 5 3.5 5.5t1.5 2l3 4.5t3 5l1 2q4 4 4 6l5 8.5l5 8.5l2 4l6 10l6 11q4 5 4 5.5t1.5 3t2 2.5t0.5 1q0 2 22 36q3 5 3 5.5t2 2t2 2t3 5.5t5 9l4 6l1.5 4.5t2.5 2.5l7 12q2 4 7 11.5t7 11.5l4 8q12 19 12 23v1l-1 1h-2
l-2 -1q-2 -1 -6.5 -1.5t-9.5 -1.5q-9 -3 -28 -6q-15 -3 -42 -9q-6 -2 -14 -3.5l-13 -2.5q-11 -2 -33 -7q-10 -2 -13 -2.5t-14 -3l-20 -4.5q-19 -4 -20.5 -2.5t-3.5 19.5q-2 21 -2.5 24t-1 9t-1 10.5t-1.5 12.5q-3 31 -5 46l-3 29q-1 12 -2.5 23.5t-3 27t-3 28t-3.5 32
t-2 22.5t-1.5 14.5t-2 18t-1.5 15t-1.5 14.5t-2.5 25l-4 34l-1 16l1 1h1l9 2q9 1 11 1q24 4 60 7q7 0 14 1q21 2 22 1l17.5 1.5t32.5 2.5t32 2q10 1 17 1.5t10 0.5q8 1 49 3q7 1 24 1.5t33.5 1.5l34.5 2h17l2 1l1 1l2 5l3 8q2 6 3 8q0 1 0.5 1t0.5 1.5t4 9.5t6.5 14t3 6.5
t0.5 1.5t3 6.5t3 8.5l8 19l1 1h2h1l6 -4l8 -7l8 -6q5 -5 7 -6q3 -2 13 -11q4 -4 6 -4q2 -1 -1 -6q-3 -6 -10 -27q-2 -6 -2 -7t-1 -5l-2 -3l1 -1l2 -1h2h24l22 1l1 -1l1 -2l-1 -31q0 -31 -1 -68q0 -81 -1 -89q0 -4 -1 -20v-17l1 -1h1h3h4l3 1l2 1l2 2l1 3l3.5 5l3.5 5
l4.5 7.5t4.5 8t4 7.5l8 12l6 10q3 4 5 8l5 8l13 22q8 13 18 33q14 29 16 31l2 3h1h2l18 -18q18 -18 18.5 -18t0.5 -0.5t13.5 -14t14 -13.5t0.5 -1l1 -1l-3 -7l-4 -8q-3 -5 -11 -22t-11 -21l-5.5 -10.5t-5.5 -9.5t-2 -6l-1 -3l1 -1l9 1q17 1 41 4q12 2 16 2l23 3q4 1 9 1
q13 1 35 4q21 2 39 4q4 0 17 1l12 2l1 -1l1 -1l-2 -7q-2 -7 -3 -12.5l-2 -10.5q-3 -13 -4 -22q-1 -2 -2 -7t-1.5 -6.5t-1 -3.5t-1.5 -9t-2 -10.5t-1 -5.5l-2 -11q-1 -10 -3 -14q-3 -11 -6 -33q-1 -6 -1 -7.5t-1 -6.5l-2 -10l-1 -5l-2 -2q-3 -5 -17 -17q-5 -3 -8 -6l-17 -15
l-7 -6q-11 -10 -15 -13q-3 -2 -7.5 -6t-5.5 -6q-8 -6 -12 -10q-1 -1 -6 -5q-11 -9 -16 -14q-7 -9 -17 -16q-12 -10 -12.5 -10t-3.5 -2.5t-4 -3.5l-2 -1l-1 -5q-3 -9 -6 -24q-1 -11 -1.5 -13t-1.5 -7q-1 -8 -5 -29q-1 -6 -2 -8q-2 -13 -6 -36q-2 -9 -3 -19l-4 -21
q-1 -7 -2.5 -15l-2 -10.5t-1.5 -4.5q0 -5 -3 -20l-2 -11q-3 -17 -6 -28q-1 -9 -1.5 -12t-1 -4.5t-1 -5t-0.5 -4.5q-3 -4 -7 -35q-1 -6 -5 -27q-2 -6 -3.5 -14.5t-2 -10.5t-1.5 -5q0 -6 -3 -4zM706 258v2v1l-1 1q-4 0 -10 -1.5t-9 -1.5l-1 -1v-1q0 -4 5 -10l1 -3h2h1z" />
  </g>

</svg>
