<?xml version="1.0" standalone="no"?>
<!DOCTYPE svg PUBLIC "-//W3C//DTD SVG 1.1//EN" "http://www.w3.org/Graphics/SVG/1.1/DTD/svg11.dtd" >
<svg viewBox="0 -200 1000 1000">
  <g transform="matrix(1 0 0 -1 0 800)">
   <path fill="currentColor"
d="M484 -106q-3 1 -5 1q-10 2 -16 4l-9 3q-9 3 -20 9q-5 3 -6 3t-2 1.5t-4 3.5t-14.5 13.5t-13.5 14.5t-3.5 6t-2.5 4q-2 2 -6 13q-1 3 -1.5 4t-0.5 4t-0.5 3t-0.5 1t-1 6t-0.5 5.5t0 1.5t-1 5.5t0.5 5t0 1.5t-1.5 3.5t0 3t-0.5 4t0 4.5l1 1q-1 1 -1 7t0.5 13t1.5 7q1 1 0 1
t-0.5 1.5t0.5 13.5t1 12q2 1 1 18q-2 16 -1 17t0 1t0 1t0 9q-1 3 -4.5 6t-5.5 6l-7 7l-17 19l-3 4q-2 2 -15 18l-3 5l-1 1.5l-5 7.5q-15 21 -15 22q-1 3 -7 11l-2 3q-1 3 -3.5 4t-16.5 3q-6 0 -10 1t-7 0.5t-6 0.5t-4 2t-6 2l-13 3q-9 1 -11 1q-23 3 -45 10q-5 2 -11 4t-7 2
t-2 0.5t-4 0.5q-18 7 -22 7q-2 0 -3 1t-6 2t-10 5q-16 13 -29 32q-6 9 -6 11q0 1 -1.5 3.5t-1.5 4.5q-4 11 -6 14q-4 4 -5 12v13t1 13q1 7 3 14q0 5 1 8q1 4 7 16q2 6 3 7.5t4.5 7.5t4 7t1.5 2t3 2.5t4 2.5q3 2 16 14q6 6 8 7t2 1.5t0.5 0.5t6.5 3.5t11 4.5l11 1
q4 1 8.5 1.5t9.5 1.5t11.5 1t7.5 1h22t32 -1q15 -1 16 -0.5t1 0t9.5 -1.5l18.5 -2l32 -3q4 0 9 -1q13 -1 15 1l9 9q24 23 35 27q2 0 4 1q4 3 23 11l6 2q24 11 57 21q34 11 55 14q5 0 20 3q12 3 34 -3q21 -6 33 -11q17 -8 21 -8q2 -1 3 0.5t3 2t4.5 2.5l5 4t4.5 3q8 7 28 21
q4 3 4.5 3.5t2.5 1.5t7 5l15 11l9 7l2 1q4 3 6 5q2 1 3 2t6 5l9 7q9 7 16 11q2 1 3 2q5 3 12 5l8 3q7 2 16 4l10 2q10 2 32 2t29 -2q2 -1 8 -2q8 -1 22 -5q4 -1 6.5 -3t2.5 -4q0 -1 1 -2q2 -1 9 -17q7 -13 7 -13.5t1 -4.5q4 -9 6 -14q3 -6 4 -9l1 -3q1 -3 4 -10l3 -6
q4 -8 3 -22q-1 -12 -2 -18q-1 -5 -2 -6t0 -2q0 -6 -3 -10l-1 -2q0 -2 -3.5 -9t-4 -7t-0.5 -1t-1.5 -2.5t-3.5 -5t-2.5 -3.5t-0.5 -0.5t-2 -4t-2.5 -5t-2.5 -3.5q-4 -4 -4 -8q0 -3 -4 -3q-1 0 -4 -2.5t-3 -3.5t-0.5 -1t-0.5 -0.5t-1.5 -2t-2 -1.5t-2.5 -2t-2.5 -2t-1.5 -2
t-2 -3q0 -1 -5.5 -6.5t-6 -5.5t-1.5 -1t-7 -6l-10 -8q-4 -4 -5 -4.5t-1.5 -1.5t-1.5 -1t-1 -1q-1 0 -1 -0.5v-0.5q-3 0 -13 -9q-1 -1 -7.5 -5.5t-7.5 -5.5t-1.5 -1t-1.5 -1q-2 -1 -7 -5q-3 -2 -5 -3.5t-4 -2.5t-2 -1.5t-1 -0.5t-3 -2t-2.5 -2t-5.5 -3l-5 -4v-10
q0 -10 -1 -16t-1 -10q-2 -18 -4 -23q-2 -2 -1.5 -2.5t-0.5 -2t-2 -6.5q0 -8 -1 -13l-4 -15q-1 0 -1.5 -3t-1 -3t0 -1t-1 -3t-2.5 -6q-3 -10 -10 -24l-6 -11q-2 -3 -4 -6.5t-4.5 -8.5l-4.5 -9l-7 -9q-3 -6 -3.5 -6t-0.5 -1q0 -2 -6 -9q-2 -1 -2 -1.5t-3 -4.5l-6 -7
q-10 -12 -20 -20q-9 -8 -21 -14q-4 -2 -4 -3q-3 -2 -16 -9q-9 -4 -9 -5q-2 -5 -3 -14q-1 -3 -3 -13t-1.5 -10.5t-0.5 -3.5t-1.5 -8.5t-1.5 -8.5q-2 -10 -2 -18q0 -4 -0.5 -4.5t-0.5 -5.5q-1 -16 -2 -18q-1 0 -1 -2.5t-0.5 -2.5t-0.5 -1t-0.5 -2.5t-0.5 -3t-1 -3t-1.5 -4.5
t-1 -4.5l-1.5 -4.5l-2 -5q0 -3 -0.5 -3.5t-1 -1.5t-1 -3.5t-1.5 -4t-1 -2.5t-2 -2q-2 -2 -5 -8q-2 -3 -4 -3q0 1 -0.5 0t-1.5 -1t-7 -6t-8.5 -6t-5 1.5t-3.5 1.5l-11 -5q-4 -2 -10 -4t-11 -4q-9 -3 -28 -5t-24 0zM378 82l1 1v-2z" />
  </g>

</svg>
