<?xml version="1.0" standalone="no"?>
<!DOCTYPE svg PUBLIC "-//W3C//DTD SVG 1.1//EN" "http://www.w3.org/Graphics/SVG/1.1/DTD/svg11.dtd" >
<svg viewBox="0 -200 1000 1000">
  <g transform="matrix(1 0 0 -1 0 800)">
   <path fill="currentColor"
d="M446 84h-19t-19.5 0.5t-21.5 0.5q-40 1 -60 2h-19.5t-23.5 1q-18 1 -78 1q-103 0 -103 1q-1 1 0 13v22q1 11 1 17q0 13 1 28v13t1 8v24q1 6 1 12.5v10.5q1 11 1 20q1 12 1 30q1 4 1 12.5v10.5q1 2 1 12t0.5 13.5t0.5 11.5q1 24 4 75q1 11 1.5 20.5t0.5 15t1 10.5
q1 19 1 22t0.5 8.5t1 17.5t1.5 17q2 33 3 38v4.5t1 2.5q0 1 16 1q9 -1 23 1q4 0 38 0.5t47 0.5q52 1 176 0q26 0 27 1q4 2 7 0q1 -1 3.5 -1t4.5 -1q8 -2 29 -4q3 0 12.5 -0.5t16.5 0.5t8 2q4 1 7 1q1 0 3 -1.5t5 -2.5q10 0 62 -1h26q8 -1 50 -1q20 -1 39 -1.5t36.5 -0.5
t18 -0.5t31 0t34 1t7 0t5.5 -0.5t2.5 -0.5t0.5 -4t0.5 -7.5t0.5 -10q1 -19 2 -23l0.5 -8.5t1 -13t0.5 -11.5t0.5 -9t0.5 -11t0.5 -14t1 -18t1 -16t0 -3.5t0.5 -5.5q1 -16 1 -22v-6v-8v-3.5t0.5 -14.5t0.5 -15q1 -10 1 -19q0 -6 0.5 -8.5t1 -12.5t1 -11t0.5 -9.5t0.5 -8.5
t-0.5 -1.5t-0.5 -11.5t0.5 -10.5v-5.5q1 -6 1 -21q0 -8 1 -20q1 -26 1 -57q0 -34 1 -55q0 -2 -1 -2q-2 -1 -34 -1q-70 0 -80 1q-1 1 -14 1t-14.5 -0.5t-25 -1t-27 -1t-4.5 -0.5q-2 1 -6.5 1t-5.5 -1h-12q-15 -1 -40 -3q-3 -1 -8 -1q-9 -1 -11 -1t-15 -0.5t-16 -0.5t-14 -0.5
t-12 -1.5q-1 0 -47.5 -1t-46.5 0zM747 143q2 0 2.5 3t0 55l-0.5 52q-1 1 -1 11v18q-1 13 -1 30q-1 25 -2 43v14q-1 9 -1 19v10l3 3q3 3 6 5q7 6 7 11q0 2 -2.5 4.5t-3.5 3l-3 1.5q-3 2 -7 0q-2 -2 -2 -1q-1 2 -3 33q-1 6 -1.5 10t-0.5 8q-1 13 -2.5 15.5t-9.5 2.5
q-6 1 -8.5 1t-19.5 0.5t-30 0.5q-17 1 -54.5 1t-46.5 -1t-23 -1q-38 -2 -40 -3t-1 -16q1 -16 1 -29q1 -39 1 -41q1 -2 1 -11.5v-16.5q1 -11 1 -77v-25v-29q1 -47 1 -50q0 -1 -1.5 -1t-4.5 -3.5t-3 -6t-0.5 -3t-1.5 0.5l-1 1q-2 0 -16 -13q-5 -5 -4 -8q1 -2 1 -3.5t1 -3.5
q4 -7 8 -8q1 -1 7 5q13 13 13.5 12.5t0.5 -6.5t0.5 -7.5t0.5 -2t2 -0.5q3 0 4 1v10q0 13 2 15t4.5 3.5t8 7.5t6 6t3 2.5t4 3t6.5 5.5l7 6q2 2 2 3t2 2t5 3l8 8q5 4 22 21l20 20q16 16 18 19q1 1 1.5 1t21 20.5t21.5 22.5t1.5 2t11.5 11q3 3 3 4t1 1q2 1 15 14q6 7 7.5 8
t3.5 3.5t3.5 3t1.5 2t1 2.5l2.5 2.5l4.5 4.5t4 3q1 -2 1 -55q1 -26 1 -39q0 -34 1 -76q0 -51 1 -66q1 -6 2 -7.5t1 -2.5q0 -4 5 -2zM513 210.5v10.5v91.5t-1 84.5v43q0 38 -1 42l-1 2h49q49 0 64 1q25 0 85 -1h16v-3q1 -2 1 -7l1 -10q0 -5 1 -8q0 -9 2 -28q0 -5 0.5 -9
t0.5 -5q0 -2 -6 -8q-2 -3 -3.5 -5t-2.5 -2.5t-3 -2.5t-5 -4.5t-6 -6.5l-6 -6l-3 -3l-5 -4l-18 -18q0 -1 -19 -18l-6 -7l-6.5 -5l-6.5 -5l-6 -6l-12 -11l-7 -6l-11 -11q-4 -3 -8.5 -7t-6 -5.5l-4.5 -4.5l-20 -19l-9 -8l-6 -6q-11 -10 -12 -10q-1 -1 -11 -10q-8 -7 -8 -4.5z
M568 304q3 1 3 4t-3 5q-1 1 -17.5 1h-17.5q-4 -1 -2 -7q2 -4 4 -4h17t16 1zM629 410q1 1 1 5q-1 2 -11 2l-9 1l1 2q10 15 11 20q2 6 1 9q-2 4 -10 8q-5 2 -9 -1q-6 -4 -4 -10l1 -2q0 -2 4 -2q1 0 1.5 2t1 3.5t1.5 2.5q2 0 3 -2.5t0 -4.5q0 -2 -2 -5.5l-3.5 -6l-3 -5
t-1.5 -3.5t-1 -3q-3 -4 -2 -7t3 -3.5t13 -0.5q13 0 14 1zM447.5 148.5q1.5 0.5 1.5 6v7.5v30.5v33.5q-1 18 -1 60.5v48.5q1 4 0.5 4.5t0.5 49.5q0 79 -1 91q-1 10 -1 10.5t-2 1.5l-2 1h-20q-40 1 -62 2h-8t-5.5 -0.5t-8 0.5t-12 1t-11 0.5t-4.5 0.5h-37t-40 -1
q-21 -1 -24 -2q-4 -2 -4 -4v-6v-48.5v-47.5q0 -5 -0.5 -17.5l-0.5 -12.5v-11t-0.5 -15.5t-1 -18t-0.5 -26v-15.5v-51t-1 -47q0 -7 2 -8h2t4 2l1 2v30q0 30 1 41v22v20q1 9 1 26q0 21 1 55q0 3 0.5 11t0.5 13t1 31v51l1 13h21h37t22 -1q17 -1 89 -1q47 0 47 -0.5v-29v-33.5
v-46.5v-45.5q0 -2 -0.5 -30t-0.5 -30q0 -4 -1 -81v-27v-6t1 -3.5t7 -0.5t7.5 0.5zM263 302q2 1 2 6q0 3 -3 4q-2 1 -11 0.5t-12 -0.5q-2 -1 -3 -2t-2 -1.5t-1.5 -2t1 -3t15.5 -0.5h9q2 -2 5 -1zM320.5 407q0.5 0 0 1t0 2t0 8.5t-0.5 19.5t-0.5 13.5t-1.5 2.5t-5.5 1t-5.5 -1
t-6 -5q-5 -6 -3 -9q3 -3 7 0q3 3 3 0v-5q1 -5 1 -23q0 -4 3 -5h5h3.5z" />
  </g>

</svg>
