<?xml version="1.0" standalone="no"?>
<!DOCTYPE svg PUBLIC "-//W3C//DTD SVG 1.1//EN" "http://www.w3.org/Graphics/SVG/1.1/DTD/svg11.dtd" >
<svg viewBox="0 -200 1000 1000">
  <g transform="matrix(1 0 0 -1 0 800)">
   <path fill="currentColor"
d="M182 -47q-1 1 -2 1l-1 1l-1.5 1.5l-0.5 0.5q0 1 -1 1t-2 1q-1 2 -2 2l-1 1q0 1 -2 2q-1 0 -1 1q-1 0 -1 0.5v0.5q-2 1 -4 3v1q1 0 0 1q-1 0 0 1l-1 1l-2 2t-2.5 2t-1.5 2q1 0 9 9l5 5q2 3 3 3.5t2 2.5l3 3l4 4l4 5l4 5l2.5 2.5t1 0.5t1.5 2l3 3l6 6q1 2 1.5 2.5l0.5 0.5
q2 1 9 10l5 6l4 4l4 4l2 2l2 3l3 2l2 3q3 3 3 4q0 2 -1 2q-2 0 -2 1t-1 1l-2 2l-2 2l-1.5 1l-1.5 1q-2 3 -3 3l-4 3q-3 3 -4 3.5t-2 1.5q0 1 -2 3q-1 0 -3 2l-4 4q-2 1 -4 3l-2 2t-2 1l-2 2l-1.5 1.5t-1.5 1l-1 0.5l-2 2l-2.5 2.5l-1.5 1.5q-2 1 -3 3q0 2 -1 2l-1 1l-1 1
l-1 0.5l-1 0.5l-1 1l-1 1l-2 1l-1 1l-1.5 1.5l-0.5 0.5l-0.5 0.5t-1.5 1l-1 0.5q0 1 -1 1.5l-1 0.5l-0.5 0.5l-1 1l-0.5 0.5q-1 0 -1 1l-1 0.5l-1 0.5q0 1 -1 1h-1v1l-1 0.5l-1 0.5l-0.5 0.5l-1.5 1.5t-2 1q-1 1 0 2v1q0 1 -4 4l-1 1q1 1 19 1h5.5h5.5t6 0.5t1.5 0t3 0
t3 0.5h2.5h7h7q5 0 24 1h7h15.5h14.5t14 1h16.5h21.5h23q4 0 4.5 -0.5t0.5 -6.5q0 -8 1 -13v-14q1 -2 1 -4.5v-6.5q0 -5 1 -13v-7v-6q1 -5 1 -12v-3v-3.5t0.5 -3.5t0.5 -3v-11q0 -4 0.5 -7.5t0.5 -6.5v-7v-12q1 -1 1 -7v-10v-6v-5q1 -1 1 -3v-4v-6q0 -11 1 -11.5t-1 -0.5h-1
t-3.5 3t-3.5 3l-1 1l-1.5 1t-2.5 2t-2 1l-3.5 3.5l-0.5 0.5l-1 1q-1 0 -2 1q0 1 -0.5 1t-1.5 1l-2.5 2.5l-2 2t-0.5 1.5l-1.5 1.5t-1 0.5h-0.5q0 1 -1 1q-2 0 -2 2t-5 5l-0.5 0.5l-1.5 1.5t-1 1.5t-1 1t-1 1t-1 1l-1 0.5l-4 4v0.5t-0.5 0.5t-7.5 7l-7 7q-8 8 -9 8l-1 -1
q0 -1 -1 -1q0 -1 -0.5 -1.5l-0.5 -0.5q-1 -1 -1 0h-1h-1.5h-0.5l-1 -1h-1q-2 -1 -3 0h-0.5t-1.5 0.5t-1 0t-1 -0.5v1l-1 0.5l-1 0.5v1l-0.5 0.5t-1.5 -0.5q-1 0 -7 -6l-10 -11l-5 -5l-3 -3l-1 -1q-1 -2 -2.5 -3t-2.5 -3q-1 0 -3 -2t-2 -3l-5 -5l-7 -7l-3 -2l-4 -5
q-5 -4 -5.5 -4.5l-4.5 -4.5t-4.5 -5t-1.5 -2t-1.5 -1t-1 -0.5l-0.5 -0.5v-1l-2 -2h-1v-1q-1 0 -1.5 -0.5t-1.5 -1t-1 0.5zM280 30h-1v0h1zM280 31zM275 32h2q1 0 2 1l1 1l1 1t1 1.5v0.5q2 2 2 7q-1 9 -11 9q-3 0 -5 -1q-8 -4 -6 -11q0 -3 1.5 -5.5t2.5 -2.5t1.5 -0.5t1 -0.5
h1h1t1 -0.5t3.5 0.5zM182 -47q-1 1 -2 1l-1 1l-1.5 1.5l-0.5 0.5q0 1 -1 1t-2 1q-1 2 -2 2l-1 1q0 1 -2 2q-1 0 -1 1q-1 0 -1 0.5v0.5q-2 1 -4 3v1q1 0 0 1q-1 0 0 1l-1 1l-2 2t-2.5 2t-1.5 2q1 0 9 9l5 5q2 3 3 3.5t2 2.5l3 3l4 4l4 5l4 5l2.5 2.5t1 0.5t1.5 2l3 3l6 6
q1 2 1.5 2.5l0.5 0.5q2 1 9 10l5 6l4 4l4 4l2 2l2 3l3 2l2 3q3 3 3 4q0 2 -1 2q-2 0 -2 1l-1 1q0 1 -1 1q-2 0 -3 3q-1 0 -1 1q-2 0 -2 1l-1 1l-0.5 1t-1 1t-3.5 2.5l-3 2.5l-0.5 0.5t-1.5 1t-1.5 1.5t-1 1t-0.5 1l-1 1l-1 1l-1.5 1t-1.5 2h-1q-1 0 -1 1h-0.5t-0.5 0.5
t-0.5 1l-1 1l-0.5 0.5q-2 0 -2 1l-1 1l-1 1t-2 1l-2 2l-1 1v1h-1l-1 0.5l-1 0.5l-2 2t-2 3q-2 0 -2 1l-2 2t-1 2v0h-1v1l-1 1l-1 1h-1q-2 2 -3 2v1h-1l-1 1l-1 1l-2 2l-0.5 0.5t-1.5 1l-1 0.5l-1 1q-1 0 -1 1l-0.5 0.5l-1 1l-0.5 0.5q-1 0 -1 1l-1 0.5t-1 1t-1 0.5t-1 0.5
t-1 1.5h-1v1q-3 1 -3 2q-1 0 -1 1v1q1 1 -1 2q-3 4 -4 4q1 1 19 1h5.5t6 0.5t6 0.5t1 -0.5t3 0t3 0.5h2.5h7h7q5 0 24 1h7h16h14t14 1h16h22h23q4 0 4.5 -0.5t0.5 -6.5q0 -8 1 -13v-14q1 -2 1 -4.5v-6.5q0 -5 1 -13v-7v-6q1 -5 1 -12v-3v-3.5t0.5 -3.5t0.5 -3v-11
q0 -4 0.5 -7.5t0.5 -6.5v-7v-12q1 -1 1 -7v-10v-6v-5q1 -1 1 -3v-4v-6q0 -11 1 -11.5t-1 -0.5l-2 1.5t-2.5 1.5t-1.5 1.5t-1.5 1.5h-0.5l-1 1l-1 1l-2 1q-2 1 -3 3l-3 3h-1q0 1 -1 1t-1 1q-1 0 -1 0.5v0.5h-1t-1 2l-1 1l-1 1l-1.5 1t-0.5 1h-1v1q-1 0 -1.5 1t-1 1t-0.5 1
q1 0 -1 0l-1 1l-1 1q1 1 0 1t-2 1.5l-1 1.5h-1q-1 0 -1 2l-1 1v0l-1 1q-1 -1 -1 1h-1q-1 1 -1 2l-1 0.5t-1.5 1l-1 1t-0.5 1t-1 0.5t-1 2h-1q-2 1 -1 2h-1v1h-1q-1 1 -0.5 1t-0.5 1q-4 3 -5 4l-1 1l-4 4v1q-1 0 -4 4q-1 1 -2 1q-1 2 -3 2l-1 -1q0 -1 -1 -1q0 -1 -0.5 -1.5
l-0.5 -0.5q-1 -1 -1 0t-2 0h-1l-1 -1h-1q-2 -1 -3 0h-1v1h-2l-1 -1v1l-1 0.5l-1 0.5v1l-0.5 0.5t-1.5 0t-7 -6.5l-4 -4q-3 -3 -3 -3.5t-0.5 -0.5t-2.5 -2t-2 -2.5v-0.5q-4 -2 -4 -4q-1 -1 -1 -1.5t-1 -0.5t-1 -1v-1q-6 -4 -6 -5l-1.5 -2t-2 -2.5t-1.5 -0.5q-1 -1 -1 -2
t-2 -1l-1 -1q-2 -3 -3 -3t-1 -1l-0.5 -0.5t-0.5 -1.5q-1 0 -2 -1v-1q-3 0 -3 -2l-1 -1q0 -1 -2 -2q-1 -2 -2 -2q-1 -2 -2 -2h-1v-1l-1 -1q-2 -1 -2 -2l-1 -1l-3 -3l-3 -3l-2 -2l-1 -1l-1 -1v-1l-0.5 -0.5t-1 -0.5t-0.5 -1t-2 -2h-1q0 -1 -2 -1q-1 -1 -1 0zM280 30h-1v0h1z
M280 31zM275 32h2q1 1 2 1.5l1 0.5l1 1t1 1.5v0.5q2 2 2 7q-1 1 -1 3q-2 5 -8 6q-3 1 -6 0q-7 -3 -8 -10q0 -4 3 -7q1 -3 2 -3t1.5 -0.5t1 -0.5h1h1t1 -0.5t3.5 0.5zM182 -46v1h-2q-3 2 -4 4l-0.5 0.5l-1 1l-1 1l-0.5 0.5q-1 1 -1 2q-1 1 -2 1q0 1 -3 2v1h-1v0.5t-0.5 1
l-0.5 0.5q-1 1 -2 1v1l-2 2l-4 4l-1 1q1 0 8 7l3 4l3 3l4 4l3 4l9 9l4 5l2.5 2.5l1.5 1.5t5 6l3 3l2 2l3 4l3 3l2 2l2 2l3 4q2 1 2 1.5t3 4.5l10 10l4 4l4 5q1 2 -1 3l-1.5 1.5l-1 1t-1.5 0.5q-2 2 -2.5 2t-0.5 1t-2 1l-1.5 1.5l-2 2l-1 1l-1.5 1.5l-3 2q-2 3 -3 3t-1 1
q-2 3 -3 3l-2 1l-3 3l-1.5 1.5t-0.5 1t-1 1t-1.5 1t-1.5 1t-2 1.5l-3 2l-1 2h-1l-1 1.5t-2 1.5q-4 3 -4 4l-1.5 1l-1.5 1q-1 0 -1 2q0 1 -1 1.5t-2 1.5l-1 1l-0.5 0.5l-1.5 1.5q-3 2 -4 3l-1 1q-1 0 -1 1t-2 1q-1 2 -2 2t-5 4l-1 1q-2 1 -2 2h-1v1q-4 3 -5 3t0 2q0 1 -4 4
l-2 2h1q1 1 13 1h13h7q11 0 13 1h6h9q22 1 37 1h9h13h14h34.5h30.5l1 -9v-7q1 -8 2 -21v-4v-9q1 -6 1 -7v-7q0 -5 0.5 -7.5t0.5 -8.5v-10q0 -2 0.5 -6t0.5 -7v-6l1 -7v-14v-9q1 -2 1 -6.5v-7.5v-9q0 -6 1 -9v-9q0 -11 1 -11v-1h-2q0 1 -2.5 3.5t-4 3t-2.5 1.5t-2 1l-3 3
l-2 2l-2 1l-1 1q-1 0 -4 4l-2 2l-4 4l-4 4l-3 3l-3 3l-8 8l-6 5l-4 4l-7 7q-10 11 -12 9q0 1 0.5 1t0.5 0.5t1 1.5q3 8 -3 14q-2 1 -5 2t-6 0q-7 -3 -8 -10q0 -4 2 -7l2 -2l-1 -1q-1 0 -5 -4l-4 -4l-4 -4l-5 -6q-4 -3 -5 -4.5t-2 -2.5l-2 -2l-3 -3l-4 -4q-1 -2 -2 -3t-2 -1
q-7 -8 -14 -14l-12 -12h-1q-9 -9 -9 -10l-0.5 -0.5l-1 -1t-1.5 -1t-1.5 -1.5t-1.5 -1h-2zM183 -46h-1l-0.5 0.5l-0.5 0.5l-1 0.5l-1 0.5l-1 1.5l-1 1.5h-1v1l-1 1v-1l-1 1l-1 1q-1 1 -1 2q-1 1 -2 1l-1 1q0 1 -1 1.5l-1 0.5h-1v0.5t-0.5 1l-0.5 0.5q-1 1 -1.5 1t-0.5 0.5
t-5 5.5l-2 2h0.5t7.5 8l7 8q2 1 2.5 1.5l1.5 1.5l3 4l4 4l4 4l4 5l2.5 2.5l1.5 1.5t5 6l3 3l2 2l3 4l3 3l2 2l2 2l3 4q2 1 2 1.5t3 4.5l10 10l4 4q4 5 4 6t-1 2l-1 1q0 1 -2 2q-1 0 -2 1l-1.5 1.5t-0.5 1t-1 1t-3 2t-2.5 2l-1.5 1.5q-4 4 -6 5q0 1 -1 1q0 2 -3 4
q-1 0 -1.5 0.5l-1.5 1.5l-3 3q-3 2 -5 4q-1 0 -2.5 1.5t-2 1.5t-1 1l-0.5 1l-2 2l-1 1h-1v1l-2 1.5t-4 3.5t-2 3l-1.5 1t-1.5 1.5t-1 0.5q0 1 -3 3l-1 0.5l-1 0.5l-0.5 0.5t-0.5 1t-0.5 0.5t-1.5 1q-1 2 -2 2h-1q0 2 -1 2h-1l-1.5 1t-1.5 1.5v0.5l-0.5 0.5t-1.5 1t-2 1.5
q0 1 -1 1h-1v1v0.5t-1 1l-2 1l-1 0.5v1.5v0.5l-4 4q-2 1 -1.5 1t5.5 1h8h7h6h7q11 0 13 1h6h7q20 1 48 1h13h54h25v-1q1 -2 1 -4.5v-3.5v-4.5v-3.5q1 -3 1 -10v-4.5v-2.5q1 -7 1 -9v-5q0 -6 1 -10v-5v-7t1 -10v-14q0 -1 0.5 -3.5t0.5 -5v-10.5q1 -7 1 -10v-3.5v-8t0.5 -11
t0.5 -5.5v-6v-7v-6q1 -5 1 -5.5v-3.5q0 -11 1 -12q0 -1 -1 -1t-3.5 2.5l-4.5 4.5l-1.5 1t-1.5 2q-2 1 -3 2t-5 4q-3 2 -8 8q-9 9 -12 11l-1.5 1.5l-3 3l-2.5 2.5l-6 6l-2 2l-2 2l-2 2l-2 1q0 1 -0.5 1.5l-2.5 2.5l-2.5 2.5l-3.5 3.5q-5 5 -6 5h-0.5t-0.5 -0.5t-0.5 -0.5
t0 0.5t0.5 1.5t1 1q1 3 1 6q-1 8 -9 10q-2 1 -6 0q-10 -3 -8 -13l2 -4l1 -2h1h-1l-0.5 -0.5l-2 -2l-4 -4l-5.5 -5.5l-6 -6l-4 -4q-1 -2 -8 -8l-4 -5l-2.5 -2.5l-1.5 -1.5l-14 -14q-10 -9 -21 -21q-2 -1 -2.5 -1.5l-0.5 -0.5l-1.5 -1.5l-1.5 -1.5q-1 -1 -2 -1v0zM182 -45.5
l-1 0.5q-1 0 -2 1l-1 1l-1 1.5t-2 2t-1.5 1.5t-1.5 2q-1 2 -1.5 2t-1.5 0.5t-2 2t-2.5 3t-4.5 3.5l-3 3h-1l1 1q3 3 6 7q1 0 2 2l10 10q0 1 1 2l5 4l1 2l3 3l6 6q1 2 2 3l1 1q2 1 6 7l6 7l5 5l2 2l1 1t1.5 2t1.5 2l1.5 1.5l3.5 3.5l5 5l3 4l3 3l3 3q3 4 4 5v1.5t-0.5 1l-1 1
l-0.5 0.5q0 1 -2 2q-1 0 -2 1l-1.5 1.5t-0.5 1t-1 1t-2.5 2l-2.5 2.5q-2 1 -5 4q-2 2 -3 2.5l-1 0.5q0 2 -3 4q-1 0 -1.5 0.5l-1.5 1.5t-3 2.5t-3 2.5l-4 4q-1 0 -2 1l-4 4q-1 0 -2.5 1.5l-2.5 2.5l-3 3t-2 3l-1 1l-3 3t-2.5 2t-1.5 1t-1.5 1t-0.5 0.5t-0.5 0.5t-1.5 1l-1 1
q-1 1 -3 2q0 1 -1.5 2t-2.5 2t-2 1.5t-1.5 1.5t-1 1t-0.5 1h-1l-1 1q-3 2 -3 3v1l-4 4l-2 1h1h0.5h4.5t9 1h14h8h13q4 1 6 1h9h8h6h10q4 0 13 1h29h67h2v-2q1 -2 1 -4v-3v-4.5v-3.5q1 -3 1 -10v-4.5v-2.5q1 -7 1 -9v-5q0 -6 1 -10v-5.5v-6.5t1 -10v-14v-3q1 -3 1 -5.5v-10.5
q1 -7 1 -10v-3.5v-8t0.5 -11t0.5 -5.5v-6v-7v-6q1 -5 1 -5.5v-3.5q0 -11 1 -12q0 -1 -1 -1t-3.5 2.5l-4.5 4.5l-1.5 1t-1.5 2q-2 1 -3 2t-5 4q-3 2 -8 8q-9 9 -12 11l-1.5 1.5t-4.5 5.5q-8 7 -9 8l-2 2l-2 2l-2 1q0 1 -0.5 1.5l-2.5 2.5t-3 2q-7 9 -9 9q-1 0 -1 1t1 2
q3 7 -2 12q-4 4 -8 3q-4 0 -6 -1q-5 -3 -6 -9q0 -4 2 -7l1 -2l-1 -1q-2 -1 -11 -11l-6 -6l-4 -4q-1 -2 -8 -8l-4 -5l-2.5 -2.5l-1.5 -1.5l-14 -14q-10 -9 -21 -21q-2 -1 -2.5 -1.5l-0.5 -0.5l-1.5 -1.5l-1.5 -1.5q-1 -1 -2 -1zM182 -45q-1 1 -1.5 1h-0.5l-2 1q0 1 -1 2
l-1.5 1.5l-1.5 1.5q-2 3 -4 4l-0.5 0.5l-2.5 2.5l-3 3q-4 4 -6 5q-1 1 -1 1.5t1 1.5l6 6l3 4l6 6l5 5q3 4 4 4q0 1 1 2l3 3l2 2l3 3q2 3 3 3.5t1.5 1.5t1.5 2l2 2l3 3l2 3l3 3l5 5q1 1 1 1.5t1 1.5l5 5l2 2l3 4l3 3l6 7l3 2q1 2 1.5 2.5l1.5 1.5q2 3 1 3v1l-1 1l-2 2l-2 2
l-1 1l-1 0.5t-1.5 1l-1 1l-0.5 0.5l-1 1l-1.5 1.5l-1 1t-1.5 1t-2 1.5t-1 1.5v0.5l-1 0.5l-2 1t-3 2.5l-2 2q-1 0 -1 2h-1l-2 2l-2 2l-2 2l-1 1t-2 1.5t-2 1.5t-2 1l-5 5q-1 1 -2 1.5t-1 1t-2 1.5l-2 2q-2 2 -2 2.5t-2 2.5t-2.5 2t-0.5 1q-1 1 -4 3q-1 0 -1 0.5t-0.5 0.5
t-1.5 1q-2 3 -3 3l-1 1l-1 1q-1 0 -1.5 0.5l-2.5 2.5t-3 2.5t-1 1.5q-2 0 -2 2q-1 0 -1 0.5t-0.5 0.5t-1.5 2q0 1 -4 4l-1 1h4t7 0.5t7.5 0.5h6.5h9h13h8q4 0 4.5 0.5t5 0.5h8.5h26q12 1 17 1h29h31h22h1v-3l1 -7v-8q1 -4 1 -7v-5q0 -9 1 -17v-5q0 -5 1 -7v-8.5t0.5 -7
t0.5 -5.5v-8v-10q1 -5 1 -8v-5q0 -2 1 -5v-12v-9v-9q1 -4 1 -6v-10v-9q1 -5 1 -8q0 -12 1 -12l-1 -1q-1 0 -4 3q-2 3 -3 3.5l-3 1.5q-1 2 -3 3q-1 0 -2 1.5t-2 2t-3.5 2.5t-8.5 9l-7 6l-27 27q-9 9 -11 10t-2 2l1 2q2 5 0 10q-3 4 -8 5q-2 1 -6 0t-6 -5q-2 -3 -2 -6
q0 -2 0.5 -3.5t1.5 -3l1 -1.5l-1.5 -1.5l-1.5 -1.5l-5 -5l-8 -8q-6 -6 -6.5 -7t-2.5 -2l-2 -2l-10 -10l-1 -1l-7.5 -7.5t-7.5 -8.5l-15 -14q-12 -12 -13 -12zM182 -44.5l-1 0.5l-1 0.5t-1.5 1t-1 1.5t-2 2t-2.5 2l-2.5 2.5l-2 2t-2 1.5t-1.5 2l-7 6l-1 1l1 2l5 5l2.5 2.5
l1 1t2.5 3.5l5 5l4 4l3 3l3 3l2 3l2 2q5 5 5 6l1 1l6 6l2 3q4 3 6 6l1 1l2 2l3 4q2 1 2 1.5t1.5 2l2 2t1.5 2.5l3 3l2 2l2 2l4 4l3 4q1 1 1.5 1t1 1t1.5 2q2 2 2 3q-1 3 -2 3t-2 1q0 1 -0.5 1t-1.5 1.5t-2 2l-1 0.5q0 2 -3 2v1l-1 1l-3 3q-1 0 -1 0.5t-1 0.5q0 1 -2 2l-1 1
l-1.5 1.5l-0.5 0.5l-1 1l-1.5 1l-1.5 1v1q-1 0 -1 1q-1 0 -4 3l-1 1q-1 0 -3 2q-1 1 -2 1.5t-1 1t-0.5 0.5t-1 1t-1.5 1l-1 1l-1 1t-1.5 1t-0.5 0.5t-1 0.5l-2 3l-1 0.5t-1.5 1t-0.5 1t-0.5 0.5t-1.5 1h-1q-1 1 -1 2v1l-2 2l-0.5 0.5t-1 0.5t-0.5 0.5t-0.5 0.5t-0.5 1h-1
q0 1 -0.5 1h-0.5l-1.5 1.5t-1 0.5t-0.5 1t-1 1h-1q0 1 -0.5 1.5l-0.5 0.5l-0.5 0.5l-1 1t-1.5 0.5q-1 1 -1.5 1t-1 1t-1 1t-1 1t-1 1.5t-1.5 0.5q0 1 -1 1t-1 0.5t-0.5 0.5t-0.5 1t-1 1l-1 0.5l-1 0.5q0 1 -1 2q-1 0 -2.5 1.5l-1.5 1.5v1h11h1q2 1 8 0q2 0 2.5 0.5l0.5 0.5
q10 -1 12 0q1 0 1.5 -0.5t1 0t3.5 0.5h2h1h1.5h1.5h1.5h0.5h2h5l10 1h5h7.5h7h3.5h2.5h0.5h3h1h1h2.5h1.5h1h4h3h2h3h2.5h1.5h8h0.5h3.5q1 0 3 0.5t3 0.5h4h5q1 0 1 -0.5t0.5 -0.5h0.5h0.5t1.5 0.5l1 0.5l1 -1q0 1 3 1q6 0 6 -1q1 0 1.5 0.5t1.5 0.5q0 -1 0.5 -0.5t1 0t1 0
t1.5 0.5h2h4.5h3.5h0.5t2.5 -0.5t3 0.5q1 -1 1.5 -0.5t6 0.5t6 -0.5t1.5 0.5q0 -1 1 -13v-5v-1v-1v-3q1 -2 1 -6v-8q1 -7 1 -10v-5v-7q1 -3 1 -8v-7q0 -2 0.5 -6t0.5 -8v-10q1 -5 1 -8v-5v-5q1 -4 1 -8v-13v-9v-5q1 -2 1 -5v-15v-7q1 -6 1 -10v-3q-1 0 -4 3l-3 3l-2 2
q-3 2 -3.5 2t-0.5 1h-1l-5 4l-2 2l-5 5l-4 4l-2 2l-2 2t-1 1.5t-0.5 0.5t-4.5 4l-4 4l-3 3l-1 1l-3 3l-5 4q-1 2 -1.5 2.5t-1 0.5t-1 1t-1.5 1q-2 1 -2 3l-1 0.5t-1 1t-1 1t-2 1.5q-3 4 -5 5q-1 1 -2 1l-1 1l1 1q1 3 1 6t-1 4v1q0 1 -2 3l-4 2q-3 2 -6 1t-6 -3q-4 -3 -4 -8
q0 -4 2 -7q1 -1 1 -1.5t-2 -1.5l-8 -8l-10 -10q-8 -8 -8 -9l-1 -1l-1 -1l-33 -33l-10 -10q-7 -6 -8 -6zM241 72v0v0zM189 153h-1h1z" />
  </g>

</svg>
