<?xml version="1.0" standalone="no"?>
<!DOCTYPE svg PUBLIC "-//W3C//DTD SVG 1.1//EN" "http://www.w3.org/Graphics/SVG/1.1/DTD/svg11.dtd" >
<svg viewBox="0 -200 1034 1000">
  <g transform="matrix(1 0 0 -1 0 800)">
   <path fill="currentColor"
d="M584 -161v-1h1h1q0 -5 5 0l1 1h-1v2v1l-1 -1h-1v1h-1h-1l-1 1h-1q-1 0 -2 -1h-1l1 -1h-1l-1 1l1 1h1v1h-1v-1h-1h-1v1h-1h-1l-1 1l-1 1h-3l-12 3q-13 3 -19 4q-2 1 -13 3t-13.5 2.5t-6 1.5t-7 1.5t-6.5 1.5l-3 1h-1h-1h-1v-1l-2 1q-1 1 -4 1.5t-4.5 1.5t-2.5 1h-2l-1 -1
l-1 1v1l-1 -1l-1 -1l1 1v1h-2q-2 0 -6.5 1t-6.5 1h-2l-1 1v1h-2h-1.5t-4.5 1q-1 0 -8 2l-2 1l-1 -1h-1v1h-1q-7 2 -19 4.5t-18 4.5q-1 1 -10 2q-2 1 -3 2h-2l-1 -1v1q-1 1 -4.5 1.5t-7 1.5t-5.5 1.5t-4 0.5l-5 1l-2 1h-1h-1l-1 1h-1h-1h-1l-1 1q-3 0 -8 1.5t-6 2.5
q-1 0 -6 1q-8 3 -10 3h-1h-2q-1 0 -3 1l-2 1h-1l-1 -1v1l-4 2l-6 1.5t-4 0.5q-17 5 -19 5h-2l-1 1q-1 1 -4 1.5t-6 1.5q-4 0 -20 5l-2 1l-98 26l-1 1v1q-3 0 -11 4q-6 2 -6.5 2.5t-2.5 0.5t-4.5 1.5t-4.5 1.5h-2l-1 1v1l-1 8v13q-1 6 -1 25q-2 42 -3 66l-3 52v18
q-1 36 -2 327v91l1 2v1h1q1 0 4.5 2t4.5 2q3 1 10 5q4 1 5 1t3 1.5t2.5 1.5t3.5 1q3 2 6 3q1 0 2 0.5t4 1.5t4.5 2t3.5 1l2 1l2 1q2 2 3 2q2 0 9 4q5 2 11 4q3 1 9 4t6.5 3t1.5 1l2 1h1h1l1 1q2 1 2.5 1t1.5 0.5l4 2t4 2.5t2 1t14 5q7 3 11 5q1 1 2 1h1v1h1q1 0 3.5 1.5t5 2
t8.5 3.5t7 3t4.5 2t4.5 2q2 0 13 4q1 1 6 3l7.5 3t4 1.5t6 3t6.5 2.5t3 1t2 1t4.5 1.5t4 1.5t3.5 2q7 3 8 3t3 1l15 7q1 0 4.5 1.5t6.5 2.5l3 1l2 1q1 1 6 2.5t6.5 3t2.5 1.5h1h1v1l3 1q2 1 3 1l1 1v-1h1l2 1l2 2h1q1 0 3 1l4 2q2 0 9 4q3 1 7 3q2 0 5.5 2t4 2t5.5 2l7 3
q3 1 6 2.5t3.5 1.5t3.5 1.5t6.5 3t4 2t1.5 0.5h1l3 1l3 2h2h1v-2q0 -15 8 -23q2 -1 2 -1.5t1.5 -2t1.5 -2.5l1 -1h1v-1v-1h1h1l1 -1h1l1 1l1 -1v-1h3h3v1h1h1v-1l1 1h2h3h3v1h1q3 -1 5 1h1h1h1v1l3 1l3 1l1 1l1 1h1h1l1 2v1l2 1h1v1h-1h1l2 1v1v0h1v1v1h1l2 5l1 5v4l1 5
l-1 3v4l-1 2h1q3 0 8 -1q8 -2 9 -3q1 0 3 -1q6 -1 7 -2h1l3 -1h4q3 -2 6 -2q2 0 15 -4q6 -2 9.5 -3t5.5 -1.5t4.5 -1t4.5 -1l4 -1t2.5 -1t3.5 -0.5l4 -1q1 0 6.5 -1.5t7.5 -2l4 -1t4 -1.5l3 -1h3h3l4 -2q5 -1 6 -1.5t3 -0.5q10 -3 11.5 -3t1.5 -1h1h1l4 -1q3 -1 5 -1.5
t5 -0.5l2 -1h2h2l1 -1q1 0 4 -1l6 -1l7 -2q4 -1 5 -2l2 -1h4q5 -1 8 -2q4 -1 7 -1h2l1 -1v-1h2q2 -1 3 -1q2 -1 10 -3l4 -1l2 -1l2 -1h2q5 0 11 -3l3.5 -0.5t8 -2t5.5 -1.5h2q3 -2 6 -2q2 0 3.5 -0.5t4.5 -1t4 -1t5 -1.5t7 -2t6 -1.5t6.5 -2t4.5 -1.5q3 1 7 -1q1 -1 3 -1h2
v-1h1h1h2l2 -1q2 -1 4 -1t3 -1q17 -4 18 -4.5t4 -1t5.5 -1t3.5 -0.5t4 -2l2 -1h1h2.5t1.5 -1q7 -1 9 -2q1 -1 2.5 -1t3.5 -0.5t4 -1.5q4 0 9 -2t11 -3h4l2 -1v-1l1 -1v-3q0 -2 1.5 -15.5t3.5 -24.5l2 -19q1 -7 1 -10t0.5 -5t1 -4.5t1 -9t1.5 -15.5q1 -8 2 -13
q0 -6 0.5 -11.5t1.5 -8.5q0 -4 1 -13q1 -12 1 -22q1 -3 1 -11q0 -7 1 -13q0 -16 1 -23q1 -21 2 -36q0 -7 1 -12q0 -7 2 -31q2 -28 3 -45q1 -6 1 -11q1 -20 2 -28l1 -17q3 -28 4 -38q1 -16 2 -35l1 -16q1 -8 2 -18q0 -10 1 -17v-7v-1l-3 -2l-11 -7l-13 -8q-22 -12 -27 -15
q-1 -1 -9 -6l-18 -11l-15 -9l-11 -6l-9 -5l-13 -8q-10 -6 -14 -8l-12 -7q-6 -4 -21 -12l-11 -6l-5 -3l-1 1v-1l-2 -2q-3 -2 -4 -2l-2 -1q0 -1 -7 -5q-3 -1 -7 -4l-9 -5q-4 -2 -6 -3.5t-15 -8.5q-32 -19 -35 -21l-1 -1l-7 -3l-11 -7q-4 -2 -6.5 -4t-3 -2t-4 -2t-4.5 -2
q-3 -1 -4 -3q-1 0 -4 -2l-4.5 -3t-4.5 -2.5l-5 -2.5l-9 -5l-10 -6l-4 -2q-5 -2 -6 -4q-1 0 -5 -2l-6 -4q-3 -2 -3.5 -2t-3 -1.5t-4.5 -2.5t-9 -5l-7 -5l1 -1h-2h-1v-1h-1h-1v-1l-1 -1l-2 -1v-1l1 -1l2 -1h1v-1zM596 -160v0v1v-1zM599 -158v0h-1h1zM597 -156l-1 -1l-1 1v1h1
h1v-1zM605 -155v0v0zM600 -154q0 -1 -1 -1v1l1 1v-1zM604 -155h-1v1zM623 -149l-1 -1v1h1v0zM621 -149v0v0zM617 -147v0v1v-1zM439 -122h-1v0h1zM631 -101v-2l-1 -1h-1v3l1 3v-1h1v-2zM576 -75v26v6l-1 15q-1 11 -1 19q-1 3 -1 6q0 9 -1 15t-3 28q-1 7 -2 24q0 5 -1 12
q-1 10 -2 22q0 5 -0.5 7t-1 9.5t-0.5 11.5l-1 10q-1 16 -1 18l-1 2v5v6.5t-0.5 7.5t-1 11t-0.5 24q-1 32 -2 43v21q-1 37 -3 57v7v47l-1 48l-1 1v2l-1 1l-1 1h-1l-2 -1v1l-1 1h-3h-2l-1 1l-2 1h-3h-4v1h-1l-1 -1v1l1 1h-5h-4l-1 1l-1 1v-1h1h-1h-3l-8 2h-2v1l-2 -1l-1 -1v1
l-1 1h-1h-2v1h-1h-1v1v-1l-1 -1l-1 1v1l-1 -1l-1 -1l-1 1v1h-3q-3 0 -3.5 0.5t-0.5 0t-3 0.5l-3 1l-1 -1v1h-2h-3v-1v1l-1 1h-1h-2l-1 1l-1 -1h-1v1v1v-1l-1 -1l-1 1v1h-3h-2h-1v1h-3h-2v1l-1 1v-1h-3h-3l-1 1l-1 1l1 -1v-1h-1v1h-3h-2v1h-1l-1 -1v1h-2h-2l-1 1h-3
q-4 1 -6 1l-3 1l-1 -1h-1v1v1v-1h-1l-1 1v1h-1h-2v1l-1 -1h-2l-3 1v-1h-1l-1 1q-2 1 -6 1q-1 0 -2 0.5t-3 0.5l-4 1h-2l-1 1v1l-3 -1h-2l1 1h-1l-1 -1v1h-1h-1h-1l-3 1l-3 1h-2l-1 -1v1l-4 1h-3h-2h-2v1h1l-2 1h-2.5h-1.5l-2 1v0l-3 1h-4h-1l-2 1h-2h-2h-1q0 1 -3 1l-3 1h-1
l-2 1h-1l-2 -1v1l-1 1h-1l-4 1h-3h-1h-1v1h-1q-4 0 -5.5 1t-8.5 2h-3h-1v1h-2h-3l-2 1l-3 1v-1v-1l-1 1l-1 1h-2h-3l-2 1l-2 1h-2q-3 1 -4 1h-2l-2 1l-3 1h-3h-3v1h-1h-1l-1 1h-2h-2l-2 1h-2h-1q-5 0 -7 2v1v-1v-1h-1l-1 1h-2q-2 1 -3.5 1.5t-2 0t-1.5 0.5h-1l-2 1h-5l-2 1
l-1 -1v-1v1v1h-3l-4 1l-2 1h-2h-1l1 -1l-2 1l-2 2v-1v-1h-1l-2 1v1h-4h-6h-1v1v0h-1l-1 1h-4q-6 0 -6 1l-1 1h-4h-5v1v-1h-1l-1 1h-2h-2v1l-4 -1l-3 -2l-1 -1v-2v-1h1l-1 -1v-1l-1 -4v-6q0 -19 -1 -21v-2h1v-13q0 -13 -1 -24v-10l-1 -1h1v-1v-1q-1 -1 -0.5 -1.5t0.5 -5.5
v-10l-1 -5l1 -1q1 -2 1 -3h-1h-1l1 -2v-2l-1 -1h-1h1l1 -1v-2v-2h-1l1 -5v-6v-1l-1 -4v-6v-3l1 -1l1 -1h-1h-1l1 -1v-3l1 -2l-1 1h-1l1 -2v-2l-1 -1v-1v-1q1 0 1 -4v-6v-5v-2l1 -1h-1l-1 -1h1v-3l-1 -3l1 -1v-2v-2v-3h-1v-1l1 -1v-7v-7l-1 -1l1 -1h1v-2q0 -2 -1 -4v-3v-1h1
l-1 -2v-2h1v-2v-2h-1v0q0 -1 0.5 -6l0.5 -5l1 -1h-1q-1 -1 -0.5 -1.5t0.5 -1.5l-1 -1v1h-1l1 -1l1 -2v-1v-2h1h-1v-1h1v-1l-1 -3v-4l-1 -2h1v-1q0 -1 1 -2v-2v1h-1v-3q1 -3 1 -3.5t-1 -1.5v-2l1 -1l1 -1h-1l-1 -1v-1l1 -1l-1 -1h1h1l-1 -1h-1l1 -1l1 -1h-1v-1v-1l-1 -1l1 -1
v-2h-1v-3v-2v0v-2q0 -2 0.5 -3.5t0.5 -3.5l1 -3h-1v-2q0 -3 0.5 -3.5t1.5 -2.5v-2h-1l-1 1v-2q0 -2 1 -2l-1 -2v-3v-1l1 -1l-1 -2l-1 -1h1l1 -1v-3q-1 -3 -1 -4v0l1 -1l-1 -1v-1h1v-1v-1l1 -1h-1v-1v-2q0 -5 1 -7v0l-1 -1v-2v-3h1l1 -1l-1 -1q0 -1 -1 -1h-1v-1q1 -4 2 -9
l1 -1h-1h-1l1 -2v-3v-2l1 -1l2 -1l-1 -1v-1h-1h-2v-3l1 -3v-1h1l-1 -1v-1l1 -1h-1v-1v-1l1 -1l-1 -1h-1l1 -2l2 -2h-1v-1v-1h1l-1 -1q-1 -1 -1 -2l1 1l1 1l-1 -2v-3q0 -5 0.5 -5.5t0.5 -1.5v0h-1v-1l-1 -1l-1 -1h1l1 1v-1l1 -1l-1 -2v-3l1 1l1 1l-1 -2l-2 -2l2 -1l1 -2v-1
l-1 1v-1l1 -1l1 1v-1h-1h-1l-1 -1v-2l1 -1l2 -1h-2h-1l1 -1v-2h-1h1l1 -1v-1q0 -1 -1 -2v-1l1 -1l1 -2h1v-1l-1 -1h-1v-1v-2v-4q0 -4 1 -7v-2l-1 -1h-1h1l1 -1l-1 -1h1v-1v-4v-3l1 -2v-6l1 -3v-1q1 -1 -1 -3l-1 -1h1h1l-1 -1v-2l1 1l1 -1v-1l-1 -1h-1h1h1v-1v-1l1 -2l1 -1
l4 -1q4 -1 5 -2q9 -3 15 -4q11 -3 16 -4q1 -1 2.5 -1t6 -1.5t6.5 -1.5q4 -1 8 -3q4 -1 8 -1l4 -1v-1h1l5 -1h4v-1h1l6 -1l9 -3q21 -5 24 -6q1 0 1 -0.5t2 -0.5h2v-1l1 1h1v-1l-1 -1l1 1h3q10 -2 16 -4l5 -2h2h1v-1l1 1h1l4 -1q3 -1 5 -1q7 -1 17 -4q4 0 7.5 -1l3.5 -1
q1 -1 7 -1q1 0 1 -1v0h1h2q2 -1 4 -1t10 -2t10.5 -2.5l2.5 -0.5q4 -1 15 -3q10 -1 16 -3q2 -1 4 -1h3v-1l1 -1h1q2 1 14 -3q7 -1 9.5 -1.5t3 -1t2 -0.5t3 -0.5t2.5 -0.5h2q6 -3 20 -5q2 -1 7 -2t8 -2h3v-1h1q1 0 7 -2l11 -2q5 -2 11 -3.5t13 -2.5l20 -5l5 -1v-2v-1h1l1 1z
M156 9v-1l1 1v0l-1 1v-1zM154 17v-1l1 1h-1zM154 24v0v1v-1zM150 70h1h-1zM151 90v0v0zM148 147h1v0h-1zM149 155h1h-1zM145 355h1h-1zM144 414l1 -1v1h-1zM544 437v0v0zM525 442l1 -1v1h-1zM398 464h1h-1zM383 467h1v1zM370 470v-1v1v0v1v-1zM343 475v0v0zM191 506v-1v1v0z
M636 -93q1 1 6 3q8 4 13 7q6 4 12 7q3 2 4 2.5t2 0.5h1l1 1q1 2 1.5 2t2.5 1l1 1q0 -1 2.5 1t3 2t5.5 3t5.5 3t3.5 2t9 5l7 3v1h1h1l1 2q1 1 2 1t1 1h1h1h1v1l1 0.5t4 2.5q4 2 13 7q8 4 8 4.5t5 3l5 2.5v1l1 -1h1l3 2l2.5 2.5t1.5 0.5h1l3 2q3 2 3.5 2t3 1.5l2.5 1.5h1v1h1
h1l2 1q1 1 4.5 3t4.5 3q2 1 9 5l3 1.5l2 1t2 1.5l7 3q4 3 6.5 4.5t5.5 2.5l3 2v1h1h1v1h1q2 0 4 3h2t1 0.5t1.5 1.5t2.5 1.5t5 3t5 3t3 2.5q7 3 8 4l2.5 1t2.5 1.5t3 1.5q11 6 12 7t1.5 1t3.5 2t4 2q2 0 5 3l3.5 1.5t3.5 2t1 0.5t2 1t3 2h1v1q0 2 7 3q1 1 1 1.5t3 1.5t3 1.5
t2 1.5t4.5 2.5t3.5 1.5l7 4l2 1v1h2l2 1l1 1l10 5q6 3 7 4.5t12 5.5q1 1 1 1.5v0.5q2 0 12 7l3 2h1v1h1h1l-1 4v11q-1 8 -1 9v5q-1 3 -1 5q-1 7 -2 26q0 8 -1 14v8q-1 12 -3 29q-1 6 -1 10q-1 15 -1 20q-1 3 -1 12q0 6 -0.5 9t-0.5 6q0 6 -2 14v4.5t-1 8t-1 10.5t-0.5 7.5
t-1.5 11t-1 10.5q-1 4 -1 14q-1 16 -2 23q-1 4 -1.5 12.5t-0.5 10t-0.5 6.5t-1.5 12q-1 8 -1.5 11.5t-0.5 5.5q-1 6 -1 11v1h-1l1 1v1v1q-1 1 -1 7q0 7 -1 15q-1 5 -1 8q0 8 -2 17q-1 1 0 3q0 13 -3 24q0 1 -0.5 7t-1 7.5t-0.5 4.5v2v1q-1 0 -1 1v1l-2 1q-2 2 -2.5 2t-0.5 1
v1h-1q-2 0 -3 1l-1 1v-1h-1h-1l-1 1v1h-1v-1l-1 1v-1l1 -1h-1h-1v1h-1l-2 -1h-2l1 1l-2 -1q-2 -1 -2 -2h-1h-3h-3l-1 -1v-1l1 1h1v-1v-1l-1 1h-2v-1l-1 -1h-1h-1l-1 1l-2 -1h-2h1v-1h-1l-1 -1h-1h-3h-2v-2l1 -1l-1 1v1l-1 -1h-1h-1v-1l1 -1l-1 1h-2v-1h-1q-2 -1 -2 0h-1v-1
h-1v1l-1 -2l-1 -1l-1 1l-1 1v-1v0h1v-1l-2 -1h-3h-2l1 -1h-1q-1 -1 -2 -1l-1 1v-1h-1l-1 1v-1v-1v-1h-2h-2h-1l-1 -1v-1h-2q-2 0 -4 -1h-3l-1 -1l-1 -1v1l-2 -1q-2 -1 -2.5 -1t-1.5 -1l-1 -1h-1v1v-1v-1h-1l-1 1l-2 -1l-1 -1v-1h-1l-1 1l-1 -1l-1 -1h-1l-1 1l-2 -1l-1 -1h-2
h-2l-1 -1l-1 -1h-1h-2l1 -1v-1l-1 1h-1l-2 -1l-1 -1l-1 1v-1h-1h-1v-1l-1 -1h-2l-2 1v-1v-1h-1h-2h-1l-1 -1h-1h-1v-1h-1v1l-1 -1v-1h-2h-2h-1v-1h-1h-1h-1v-1h-1q-1 0 -2 -2l-1 -1v1v1l-1 -1h-1v1l-1 -1l-1 -1v1l-1 -1l-1 -1l-2 -1h-3v-1h-1h-1v-1h-1l-1 1l-3 -2
q-3 -1 -4 -1v0l1 1l-2 -1q-2 -2 -3 -2l-1 -1h-1l-1 1v-1h-2h-2l-1 -2l-1 -1v1v1v-1l-1 -1l-1 1l-2 -1l-1 -1v1v-1h-1h-1h-1v-1v-1l-1 1l-3 -1q-3 -1 -5 -2q-5 -2 -7 -2h-2v-1l-1 -1h-2h-2v-1h-1h-1v-1v-1q-1 0 -1 1v1l-1 -1l-1 -1h-2l-3 -1v-1h-1h-2l1 1h-1q-1 -1 -2 -1
l-4 -3v0l-1 -1v1h-1h-1h-1v-1h-1h-2v-1v0l-1 1v-1q0 -1 -1 -1h-1l-1 -1h-1h-1v1l-1 -1v-1h-2h-1h-1v-1h-1h-1v-1l1 -1h-1h-1l-1 -1l-1 -1l1 1v1h-1l-1 -1h-1l-1 1l1 -1v-1h-1l-1 1l-1 -1v-1l-1 1h-2v-1v-1h-1h-2v-1h-2h-2v-1l-1 -1h-2h-1v-1h-1l-1 1v-1h-1h-1h-2
q-2 -1 -3 -2l-1 -1h-1h-2l-1 -1l-2 -1l-1 -1v1l-2 -1l-2 -1h1v-1l-1 1l-1 1v-1v-1h-1l-1 1l-3 -2l-2 -1h-1v1v-1v-1h-1h-2h-1l-2 -1v-1l1 -1l-1 1l-1 1l-1 -1h-1v-1h-1h-2q-2 -1 -3 -1h-1v-1l-3 -1q-4 -1 -5 -1v-1l-1 1h-1v-1l-1 -1v1l-1 1l-1 -1v-1h-2h-2q0 -1 -3 -1l-2 -1
h-1q0 -1 -2 -1l-2 -1v1v1v-1l-1 -1l-3 -1q-3 -1 -4 -2l-1 -1q-1 1 -3 -1t-2 -3l-2 -1h-1v-2q0 -2 1 -10l2 -23q1 -15 1.5 -17.5t1 -9t1 -9.5t0.5 -8l3 -27q3 -38 4 -48q1 -7 2 -17l3 -21q5 -45 5 -55q1 -7 2 -18.5t1.5 -18.5t1.5 -12q1 -16 2 -22l1 -14q1 -27 2 -50l1 -21
q1 -14 1 -21v-8t0.5 -16t0.5 -22.5t0.5 -33t0.5 -26.5h1h2q2 1 3 2zM649 -86h1v1zM628 449l1 -1v1h-1zM648 455v0v1v-1zM732 486v-1v1l1 1h-1v-1zM769 499v0v0zM771 501h1h-1zM780 503v-1h1l-1 1v0zM794 508v1h-1zM802 511l1 -1v1h-1zM806 512h1v1zM868 534v-1v1v0zM878 538
v0v0zM882 539v-1v1v0zM897 544v0v1v-1zM906 548v0v0zM904 548h1l-1 1v-1zM914 550v0v0zM919 553h-1h1h1v1zM940 560h1l-1 1v-1zM945 560v0v1v-1zM953 562l1 -1v1h-1zM169 -55zM172 -55h-1v1v-1h1zM787 -46h-1v0h1zM152 23h1l-1 -1v1v0zM150 61l-1 -1v1h1zM147 112l1 -1h-1
v-1v1v1zM614 113v-1l-1 1h1zM148 152h-1v0v1zM581 233q0 -1 -1 -1l1 1v0zM593 233v-1v1v0zM592 246v-1v1v0zM592 248h-1v0h1zM577 274h-1l1 1v-1zM591 285v-1h-1h-1v1h1h1zM591 287h-1l-1 1h1zM586 298h-1l1 1v-1zM590 301v-1h-1v1v1zM589 305v0v0zM143 314v-1v1v0zM589 316
v-1l-1 -1v1v1h1zM572 335v0v0zM573 343h-1l1 1v-1zM588 345v0v0zM572 346v0h-1l1 1v-1zM572 347h-1v1zM143 354v-1v1v0zM588 366v-1v0v1v1v-1zM588 374h-1v1zM588 376v0v0zM588 379v0v1v-1zM541 440h1h-1h-1h1zM596 440v0v0zM560 452v0v0zM604 460v-1v1v0zM655 460v0v0z
M604 463v-1h-1v1v1zM665 464h-1h1zM403 465v0v0zM626 465h-1h1zM672 466v0h-1h-1l1 1zM391 467v0v0zM596 468v-1h-1h-1l1 1h1zM376 470v0v1v-1zM374 471h-1v0h1zM336 478v-1l-1 1h1zM333 479h-1h1zM587 483h3v1h2h2l1 1q1 1 1.5 0.5t5.5 1.5l9 3q13 5 15 6q4 2 7 2h1v1v1h2
h3q9 6 12 6q1 0 6.5 2t8.5 3t7 3t5.5 2.5t2 0.5t4.5 2t5 2t3 1q13 5 17 8q1 0 5 2q6 2 10 4q2 1 3 1h1v1v0q1 0 5 2l7 3l6 3q3 1 3.5 1t5.5 2.5t8 3.5t7.5 3.5t5.5 3t5.5 2t5 1.5t1 1t3.5 2q13 4 15 6q2 1 11 5l3 1.5t1.5 0.5t2.5 1l2 1l6 2l5 3v1h1h1l1 1l1 1h-1h-2l-1 -1
l-1 1h-1h-6h-7v-1v1h-1h-5q-5 0 -8.5 -0.5t-5.5 -0.5h-3l-1 1q-1 1 -1 0q-1 0 -10 -1h-2v-1l-2 1l-1 1l-1 -1l-1 -1l-2 1l-1 1l-1 -1q-1 -1 -2 -1h-2v1v1l-1 -1h-1h-4h-15h-5l-1 -1v0v1l-5 -1h-6.5h-5h-4.5h-1v-1l-3 1q-11 1 -14 -1v-1v1v1h-1l-5 -1q-3 -1 -11 -1h-8v1h-2
l-1 -1h-2l-2 1v-1h-2h-1v-1h-1v1l-7 -1h-8v1h-1v-1h-2h-3v1l3 -1l-3 1l-1 -1h-3l-12 -1l-9 -1h-4l-6 -1h-6l-1 -1h-2v1l-4 -1h-4h-1l-1 1l-1 -1l-1 -1v1v1v-1q-1 0 -9 -1h-5l-4 -1l-3 -1l-1 -1l-1 -1l1 -8l2 -14t1.5 -9.5t0.5 -3.5t1 -10l2 -17q2 -8 2.5 -12.5t1.5 -7.5
l1 -3l-1 -3v-5v-1l1 1q1 0 3 1zM687 584v0v1v-1zM748 586v0v0zM781 587v0v1v-1zM817 587h1v1zM837 587v0v1v-1zM834 588h1v0h-1zM838 588h1v1zM713 481h-1v0h1zM545 488q-1 10 -4 25q-2 12 -4 18q0 3 -2 13l-2 11v6v9l-1 3l-2 1l-1 1l-2 -1h-1l-1 1l-1 -1h-1l-1 1h-1v-1h-8
h-9h-15h-5l-1 -1h-1h-6q-6 -1 -8.5 -1t-5.5 -0.5l-3 -0.5l-1 -1v1v1l-1 -1h-4.5t-4.5 -1t-15 -1h-2v-1l-2 1h-2v-1h-3q-7 -1 -19 -1h-7l-1 -1v-1l-1 1v0v-1h-2q-2 0 -3 1h-1v-1h-1h-1h-1v1h-2q-5 -1 -34 -1l-13 -1l-15 -1q-17 0 -24 -1h-4l-1 1h-1h1v-1h-2l-3 -1
q-1 1 -1 0.5t-9.5 -0.5t-11.5 -1q-5 0 -19 -1h-6l-3 -1h-3h-1h-1h-2q-4 0 -4 -0.5t-7 -0.5l-5 -1l-1 -1v1h-1h-3l-2 -1h-4h-4l-2 -1h-2h-5h-6l-1 -1l-1 -1h1q0 -1 3 -1.5t3.5 -1t5.5 -1.5l9 -2q5 -1 6 -1l1 -1v1h1l2 -1q2 0 4.5 -0.5t6 -1.5t6.5 -1q5 -1 14 -2q7 -2 19 -4
q6 0 9.5 -1t6.5 -1.5t5 -1t4.5 -1t4.5 -1t5 -0.5t5.5 -0.5t7 -1.5t5 -1.5t3.5 -0.5q6 -1 8 -1q1 0 3.5 -0.5t6 -1.5t9.5 -2q7 -1 9 -1q0 -1 5.5 -1.5t8.5 -1t8.5 -1.5t14 -3t10.5 -2t3 -1q2 0 15.5 -2.5t15.5 -2.5h2q1 -1 7 -2q3 0 11.5 -1.5t13.5 -2.5t7 -1.5t4 -0.5
q8 -1 19 -4q6 -1 13 -3q7 -1 13 -2q4 -1 7 -1.5l3 -0.5v-1h3h3v4zM324 562v0v0zM467 571v0v1v-1zM473 572v0v0zM723 486v-1l-1 1h1zM555 489v0v0zM746 494v0v1v-1zM564 499h-1v0h1zM216 503h-1h1zM782 506v-1l-1 1h1zM783 507v-1l-1 1h1zM790 509h-1h1zM573 510v-1v1v0z
M797 513v0v0zM810 515q0 -1 -0.5 -1t-0.5 1v1h1h1zM840 527l-1 -1v1h1zM555 532v0v1v-1zM556 539l-1 -1v1h1zM883 542v-1l-1 1h1zM567 543v0v1v-1zM566 549q1 -1 0 -2v1q-1 1 0 2v-1zM553 549v0v0zM914 553v-1h-1v1v1zM552 553h-1v0h1zM553 555h-1l1 1v-1zM561 556
q0 -1 -0.5 -1t-0.5 1v0h1zM561 560v-1h-1v1h1zM930 559v0v1v-1zM938 561h-1v-1v1q0 1 1 1v-1zM550 563l1 -1h-1v0v1zM561 564v0v0zM952 565v0v0zM356 566v-1v1v0zM414 568h-1l1 1v-1zM561 569h-1h1zM564 575v-1v0v1zM559 578h-1l-1 1h1h1v-1zM547 580v-1l-1 1h1v0z
M558.5 580.5l-0.5 -0.5v1v2l0.5 -1t0 -1.5zM616 582v0v0zM627 583v-1v1v0zM547 583h-1v1zM557 584v0v0zM694 586v-1l-1 1h1zM780 588h-1v0h1zM557 589h-1v1h1v-1zM841 589v0v0zM826 590v-1l-1 1h1zM239 590.5q7 0.5 9 0.5q15 2 17 2q3 -1 13 1h7l7 1h1l2 1h7q8 0 12 1t19 2
q12 1 19 1q1 1 8 1l12 1q6 1 11.5 1.5t13.5 1t12 0.5t10 1q15 0 34 0.5t34 1.5h11h3v1l6 1h9h4l1 1l2 1v2v2l-1 1l-2 2l-1 1v1l3 2l2 2v5q0 4 -1 10q-1 10 -2 14q0 1 -0.5 5t-1.5 14q-3 18 -3 19l-1 1l-2 1l-3 2l-1 1v-1h-1l-1 1l-1 2l-1 -1h-1v1v1h-2q-5 2 -20 -4
q-18 -7 -20 -8q-1 0 -8 -2l-13 -5q-6 -3 -8 -3.5t-3 -0.5t-4 -1.5t-6 -2.5t-5 -2t-5 -2q-8 -2 -11 -4q0 -1 -1 -1l-3 -1q-2 0 -5 -2l-6 -2q-2 -1 -2 -1.5t-1 -0.5t-8 -3t-8 -4q-1 0 -2 -0.5t-3 -0.5l-3 -1q0 -1 -1 -1q-2 -1 -7 -3q-4 -2 -4.5 -2.5t-2 -1l-4.5 -1.5l-2 -1v0
l-1 -1h-2l-4 -2l-4 -2h-1h-1q0 -1 -1 -1q-9 -3 -11 -4l-1 -1h-2q-2 -1 -4.5 -2t-4.5 -2h-3l-4 -2q-4 -2 -5 -2t-2 -1h-2l-2 -2l-3 -1h-1h-1v-1l-3 -1q-3 -1 -6.5 -2.5t-4.5 -1.5v-1h-1h-1q-1 -1 -2.5 -1t-4.5 -2l-3 -1l-1 -1v0l-1 1q-1 -1 -5 -2l-3 -2v0h-2h-1l-2 -2l-1 -1
h-1h-1l-5 -2l-5 -3l2 -1l2 -1h3q3 0 10 0.5zM223 591l-1 -1v1h1zM544 591l-1 -1v1h1zM220 591h-1l1 1v-1zM605 592v0v0zM543 592v0v1v-1zM557 594h-1v0q0 1 0.5 1t0.5 -1zM607 598q-1 0 -3 -1h-1v1v1v1l1 1v-1h1h2v-1l1 -1h-1zM599 600q1 -1 0 -1q-1 1 -1 1.5t1 0.5v1v-2z
M541 602v0v0zM599 603v-1v1v0zM604 603l-1 -1v1h1zM182 604h-1v1zM598 605h-1h1zM541 606l-1 1zM460 606v0v0zM554 608h-1h1zM556 608v0v0zM556 610v-1h-1h-2v2v1h1q2 0 2 -2zM553 612h-1q0 1 1 1v-1zM554 616q0 -2 -1 -2v-1l-1 1v1h1v1q0 1 1 2v-2zM567.5 615
q2.5 0 4.5 0.5t12.5 0.5h13.5l3 1l2 -1h1h1v1h14q14 0 15 1q6 1 26 1h10l1 1h9l9 1l3 -1h4h3l3 1h10h18.5h9.5l10 1h14q6 0 18 1q18 0 23 1l3 1h-1v1h1l1 -1v2v1h-2h-2v1h-1v0v1h-1h-2v1l-1 1v-1h-1l-1 1q-2 0 -3.5 0.5t-3.5 1.5l-2 1h-2h-2l-2 2l-2 1h-2h-1l-2 1l-2 1
l-1 -1l-3 2q-3 1 -5 2l-2 1h-2h-2l1 1l-1 1h-2q-2 -1 -12 4q-1 1 -6 2l-4 1l-1 1h-1q-2 0 -6 2q-5 2 -8 2q-1 0 -3 1l-3 2h-2h-3q-1 2 -17 7q-5 1 -6 1.5t-4 1t-3.5 1t-1.5 0.5h-1v1h-1h-2q0 1 -2 1.5t-3 -0.5l-2 1l-2 1h-1l-1 -1v1v1h-2q-2 1 -3 1h-2v1h-1q-2 0 -11 3
q-1 1 -3 1h-1l-2 1l-1 1v-1h-1l-2 1q-2 1 -3 1q-3 0 -12 3l-4 2l-1 -1v1v1h-3h-2v1h-2l-6 2l-6 2t-9 2.5t-8 2.5t-2.5 1h-1.5q-5 2 -11 3h-2l-1 -1h-1l-1 1l-1 -1l-1 -1v-1v-1h-1v1h-1v-2v-1l-1 -1l-1 -1v-2l-1 -2h-1l1 -3q0 -9 2 -14q1 -2 0.5 -2t0.5 -7q3 -15 4 -24l1 -10
q2 -12 4 -18v-1l2 -1q1 0 1.5 0.5t3 0.5zM807 627v-1v1h1h-1v1v-1zM783 635h1l-1 1v-1zM774 639v0v1v-1zM758 644v0v1v-1zM716 658v0v0zM700 664v0v0zM649 679l1 -1v1h-1zM551 698h1h-1zM552 700h1h1h-1h-1zM596 614h-1v0h1zM210 616v0v0zM538 622v-1l-1 1h1zM538 623v-1
l-1 1h1zM553 624h-1l-1 1h1zM811 626h1l-1 -1v1v1v-1zM551 628l1 -1l-1 -1v2zM551 631l-1 -1v1h1zM550 634q1 -1 0 -2v-1v2v2v-1zM550 637v-1q-1 0 -1 0.5v1.5zM272 639v0v1v-1zM773 641v0v0zM534 642v-1l-1 1h1zM532 647h-1v1zM532 649v0v0zM532 650v0v0zM545 655v0v1v-1z
M548 657v-1l-1 -1v1v1h1zM530 659h-1l1 1v-1zM548 660h-1v0h1zM542 667v-1l-1 1h1zM546 670v-1l-1 1h1zM687 670l-1 -1v1h1zM541 674v-1h-1v1v1zM544 675v-1v1v0zM540 676h-1v1h1v-1zM544 676v0v0zM544 680v0v1v-1zM545 682v-1h-1v1v1zM544 688q0 -1 -1 -2v-1v1v2h1v1v-1z
M536 686h-1v0h1zM543 690v-1l-1 1h1v0zM549 695h-1l1 1v-1zM554 705h-1h1zM587 -162zM584 -159v0v0zM579 -158h1h-1zM626 -150zM628 -149h1v0h-1zM627 -145v0v0zM627 -143v0v1v-1zM486 -136h1l-1 1v-1zM447 -128l-1 -1h1h1v1h-1zM359 -110zM361 -110h1h-1zM284 -88l1 -1v1
h-1zM259 -83h1l-1 1v-1z" />
  </g>

</svg>
