<?xml version="1.0" standalone="no"?>
<!DOCTYPE svg PUBLIC "-//W3C//DTD SVG 1.1//EN" "http://www.w3.org/Graphics/SVG/1.1/DTD/svg11.dtd" >
<svg viewBox="0 -200 1000 1000">
  <g transform="matrix(1 0 0 -1 0 800)">
   <path fill="currentColor"
d="M904 -185v1l1 -1h-1zM892 -165l-1 1h1h-1h-1v1h-2l-1 1l-1 -1l-2 2l-2 3h-1h-2l-1 1v-1v1v1h-1l-1 -1l-1 -1v1l1 1l-1 1q-2 0 -2 1h-1v1l-1 1h-1q-2 1 -2 2v0h-1l-1 1l-1 1v-1v-1v1l-1 1v0h-1v1h-1l-1 1l-2 1v1l-1 1h-2v1h-1h-1h1v1l-2 2l-2 2l-1 1h-1v1v1v-1l-1 1h-1v1
v1h-1l-1 1v1l-1 1l-2.5 2.5l-2.5 2.5l-1 1t-3 3.5t-5 4.5l-2 3h1l-1 1h-1v1v1h-1v-1v2l-1 1h-1v0v1h-1h-1v1q-1 2 -2 2v0v1l-1 1l-2 2h-1v1l-1 1l-1 2l-1 2l-1 1q-1 0 -1 1t-0.5 1t-2.5 3l-2 3l-1 1l-2 1v2v1l-2 3q-2 4 -2 4.5t-1 2t-1.5 2t-1.5 4.5t-2.5 6.5t-1.5 3t-1 3.5
q-6 12 -10 30l-1 5q-1 2 -2 7q-1 6 -2 16q-1 7 -1 10q-1 8 -2 22v16q-1 10 -1 13.5v11.5t-1 16l-1 13v8v8q-1 7 -1 14q-1 4 -1 7v11q-1 0 -1 4q0 8 -1 16v6q0 7 -1 13q-1 4 -1 7q0 9 -1 11.5t-1 7.5v0h-1l1 1l-1 1v1h1v1h-1v1v1v1v-1h-1v1v1h-1h-1l1 1h-1l-1 -1h1l-2 -1h-1
v-1h-1h-1l1 -1v0q-1 0 -1 0.5t-1 0.5v-1h-1l-1 -1v-1v-1v-1h-1q-1 1 -1 1.5v0.5v-1v-1v-1l-1 -1v-1h-1h-1v1v0v-1l1 -1h-1h-1l-1 1h1v-1v1h-1h-1v-1v-1h-1v-1v-1v-1v-1h-1h-1l-2 -1v-1v-2h-1l-1 1v-1v-1v0v-1v0l-1 -1v1v1h-1v-1h-1v1l-1 -1v-1h-1v-1v-1h-1h1v0v-1l-1 1h-1
v-1v-1v-1l1 -1h-1v1v1v-1v-1l-1 1h-1v-2v-1h-1h-2h1l1 -1h-1h-1l-1 1v-1h-1l-1 -1v-2h-1h-1v-2l-1 -1h-1v-1v-1h-1v-1v1h-1l-1 -1l1 1v0h-1v-1l-1 -1l-1 1h-1h-1l1 -1v-1h-1v-1v0h-1v0v-1l-1 -1h-1h-1v-0.5v-1.5v-1l1 1v-1l-1 -1l-1 1l-1 -1v-1l-1 1l-1 1v-1l1 -1l-1 -1h-2
v-1h-1h-1l-1 -1v-1h-1v-1v-1h-1h-1l-1 -1v-1h-1v-1h1h-1v-1v1v1l-1 -1v-1l1 -1h-1l-2 1h-1v-1v-1l-1 1v0v-1h-1v0v0h1l-1 -1q-1 -1 -1.5 -1t-0.5 -1v-1h1h-1h-1v-1q-3 1 -3 -1q-1 0 -2 -1v0v-1h-1v-1h-1l-1 -1v1h-2h-1l-1 -2l-2 -2v1h-1v-2l-1 -1v1v1l-1 -1v-1v-1h-1v0
l-1 -1v1h-1h-1l-1 -1l-1 -2l-1 -1h-1l-2 1v-1v-0.5t-1 -1t-2 -1.5v-1l-1 1v0l-1 -1h-1h-1v0h-1h-1v-1h1v1h1v-1v-1v-1h-1h-1h1q1 1 -1 1l-1 1l1 -1v-1h-1l-1 -1h-1l-1 -1v1v-1l-1 -1l1 -1v-1l-1 -1v1v1h-1l-1 -1v1v1h-1l-1 -2v-2l-1 1v1v-1l-1 1h-1v-1h1h-1h-1l-1 -2l-1 -2
v1h-1v-1l-1 1h-1h1l-1 -1h-1v-1h1l-1 -1h-1l1 1l-1 1h-1l-1 -1h1h1v-1h-1h-1v-1v-1l-1 1v0h-1v2v-2l-1 -1v1v1h-1h-1v0v-1h-1h-1l-1 -1l-1 -1v-1l-1 -1h-2l-1 -1v-1v-1q-1 0 -1 1h-1h-1h-1v-1l-1 -1v1v0h-1v-1v-1h-1l-1 1l-1 -1l-1 -1h1v-1l-1 1h-1q-1 0 -1 -1h-1v1h1h-1h-1
h-1h-1l-1 -1v-1h-1v1l-1 -1h-1l1 1v1l-1 -1v-1h1l-1 -1v-1v1h-1l-1 -1v1v1v-1v-1h-1l-1 -1h-1v1l1 1h-1l-1 -1v-1h-1v0v-1v0q0 1 -1 1v1l-1 -1l-1 -1v-1h1l1 1v-1v-1h-2h-1v1v0h-1v1h-1v-2v-1h1h-1h-1v1q1 1 1 2v1h-1v-1l-1 -1v-1v-1v0v1h-1l-1 -1v1h-1l1 1v1v1h-1v-1h1h-1
v-1h1h-1h-1v-1v1h-1v-1h-1v1v-1l-1 -1v1l-1 1h-1v-1h1v-1h-1h-1l1 1v0q-3 0 -4 -2v-1v0v0h-1v1l-1 1v-1v-1h-1v-1l-1 1v1l-1 -1l-1 -1h1v-1h-1h-1v1v1h-1h-1v1v-1v-1h-1v-1v1q-1 0 -2 0.5t-2 0.5h-2v-1h-1v-1l-1 1h1h-1l-1 1l-1 -1h1h1h-2h-3l-1 1l-2 -1h-1v-1h-1l-1 1l-1 1
h-1v-2v-2h-1v1l-1 1l1 1v1h-1v0v1l-1 -1l-1 -1h-1l1 1l-2 -1h-1h1h-1h-1v0h-1v0v-1l-1 1v-1v-1h-1v1v1h-2l-1 1v0h-1v1h-1v-1v0h-1v-1l-1 1q0 1 -1 1h-1l-1 -1v1v1v-1v-1h-1h-2h-1l-1 1h-1l-1 1v1h-1h-1v-1v-1v-1h-1h-1v1v1v2v-1h-1l-1 1v-1v0h1l-1 -1h-1v-1h1h-1v1v1l-1 -1
h-1v1v0h-1v-1h-1l-1 1l-1 2h1v1h-1v-1h-1l-1 -1v-1v1v1l-1 -1h-1v0h-2h-2h1l1 1l1 -1v1h-1h-1h-1v-1l-1 1l-1 1l-1 -1v-1h-1h1v-1h-1v1q0 1 -1 1h-1l-1 -1v-1l-1 1l-1 1h-1v1v1h-1h-2h-1h-1v1v-2q0 -1 -1 0v0v1h-1h-1h-1v1l-1 1h-1h-1h-1l-1 1l-1 -1l-1 -1v1v1v1v-1v-1h-1v1
l-1 1h-1l1 -1v0l-1 -1l-1 1l-1 1v-1h-1h-1v1h1l-1 1h-0.5t-1.5 1h-1v1h-1l-1 -1v1v0h1h-1v1l-1 -1v-1v-1l-2 1l-1 1v-1h-2h1l1 1h-1v1v1l-2 1l-2 1v1v-1h-1l-1 1h1v0l1 1h-1q-1 -1 -2 -1h-1v1v1v-1h-1l-1 1l-1 1l-1 -1v0v1l-2 -1h-1l-1 1h1h-1l-1 1v1h1h-1l-1 -1v1l-1 1
l-2 1l-2 2h-1h-2h-1v1v1h-1l-1 -1l-1 1l-2 2l-1 1h-1h-1l-1 1l-1 1l-1 -1l1 1v1h-1l-1 1v-1h1h-2q-1 1 -1 1.5t-1 0.5v-1v1q-1 0 -1 1h-1v-1v1l-1 1l-1 1h-2v1h-1q-1 1 -1 0.5t-1 0.5l-1 1v-1l-2 2l-1 1h-1v1l-1 1h-1l-1 1l-1 -1v1q-1 1 -2 1.5t-5 3.5h-1.5t-0.5 1l-1 1h1
h-1q-1 1 -1 0h-1l-1 1q-1 1 -1 2h-1v1h-1h-1l-2 2l-1 2l-2 1q-2 1 -8 5q0 1 -2 1l-1 1v1h-1h-1v1v1l-1 -1v1l1 1h-1h-1l-1 1l-1 1h-1l-2 1l-1 2l-0.5 0.5t-1 0.5t-1.5 1v1l-2 1q-1 0 -2 1l-1 1h-1v1h-1v0v1h-1q-2 0 -2 0.5t-1 1.5h-1h1l-1 1q-1 0 -1 1v-1v-1l-1 1
q-1 1 -1.5 0.5t-1.5 0.5v1l-1 -1h-1l-1 -1q0 -3 -3 -3l1 1v0h-1v-1v-1h1h-1v0v-1v-1v-1h-1v0v-1h1v-1v-1v-1h-1v-1v-2l-1 -1l1 1v1h-1v-4v-3h1l-1 -1v0h1v-1h-1h-1v-1h1v-2q0 -2 -0.5 -2.5t-0.5 -4.5v-5h-1l1 -1v-2v-1l1 -1v-1h-1v-1l1 -1h-1v0v-3l1 -1h-1v0v-1l-1 -1h1v-1
v-3v-2h1v-8v-10v-1h1l-1 -2v-1q-1 0 -1 -1h1v-1q1 -4 1 -5v-1h-1l1 -1v-2l1 -1v-2v-4v-7v-5q1 -1 1 -6v-4l1 -1v-2l-1 -1l1 -3q0 -3 1 -4v-2v-2v-2h1v-1l-1 -2h1v-1v-1v-1v-1v1h1v-2v-6l1 -2l1 -1v-1h-1l1 -3v-3v-2l1 -1v-2v-2v-2l1 -1v-2v-3l1 -2l1 -2v-2q0 -2 1 -3v1v-1
l-1 -1l1 -2v-2v-3l1 -3v-1l1 -1v-2v-1h1h-1v-1v-1l1 -1v-2q0 -3 1 -5v-1v-1v-2l1 -4v-2l1 -1l-1 -1v0q0 -1 0.5 -2.5t1 -5t0.5 -6t1 -5.5l1 -3v-5v-5v-4.5v-6.5q-1 -9 -2 -13v-1h-1v-1v-1v-1q-1 -1 -1.5 -3t-0.5 -3l-2 -4q0 -2 -0.5 -2.5t-1 -1.5t-1.5 -2t-0.5 -1.5
t-0.5 -1.5t-1 -1.5t-1 -2t-1.5 -2t-0.5 -1.5l-2 -2l-1 -1q0 -1 -1 -2q-6 -6 -6 -7l-1 -1l-1 -1l-2 -2l-1 -2h-2l-1 -1v-1l-1 -1l-3 -1l-1 -1l-1.5 -1.5t-1.5 -1t-2 -1.5l-2 -1h1h-1h-1v-1v0h-1v-1h-1h-1v-1h-1l-1 -1l1 -1h-1h-1l-1 -1l-1 -1v1l-2 -2l-2 -1h-1h-1v-1l-1 -1
l-1 -1l-1 1v0v-1l-1 -1h-1h-1l-1 -1h-1l-1 -1l-2 -1h-1v-1l-1 1h-1l-1 -1l-2 -1h-3v0v-1h-1v1h-7h-6h-1q-1 1 -3.5 2t-3.5 2t-2 1v1q-1 1 -3 5l-3 3l-1 1l-2 1l-1 1q-2 5 -4 11v3v1v2h-1v6l-1 4l1 4v4l1 6q2 10 5 22q6 24 6 31q1 3 1.5 6.5t0.5 5.5l1 9q2 13 2 23l1 6v13v14
l-1 8q-2 9 -2 10l-1 1l1 1q0 1 -6 25q-1 4 -1.5 5.5l-1.5 4.5t-1.5 6.5t-1.5 6t-1.5 5.5l-1 6t-1.5 5q-2 11 -3 13l-0.5 3.5t-1 6.5t-1 6.5t-0.5 5.5q-1 4 -1 10q-1 4 -1 8q-1 8 -1 33v20v22q1 22 1 22.5v4.5q1 13 2 42v20v10q-1 21 -2 31q-2 21 -2 39v10v10l2 23v13l2 10
q3 24 10 47q5 16 6 19q1 1 2 5l2 7q1 3 2 5l1 2l1 2.5t1 3t0.5 1t2 4t2 3.5t1.5 2.5t2 4.5t1.5 2.5t2 3t3 4.5l4 5.5t2.5 4.5q2 3 5 7q2 2 3 3.5t4.5 6l5 6.5t2 2t9.5 9l8.5 8.5l3.5 3.5q2 3 5 3l1.5 1.5t2.5 1.5l2 1v1v-1l2 1q1 1 1 1.5t1 0.5t5 3l1 1l3 1q6 3 9 5
q1 1 1.5 1t1.5 1q7 3 12 4h2l-1 1h2h2l1 1h1q3 0 7 2q1 1 3 1h2l1 1h1l2 1h1l3 1q3 0 5.5 0.5t3 1t3.5 0.5h2l4 3l8 9l5 4h1v0v1h1l1 -1v1v1v-1h1l1 1q8 4 9 4t5 2q1 1 2 1q3 0 4 2h1q4 0 6 3h1h1v1h1q2 1 2.5 1t3.5 1t3 2h2q2 0 3 1q4 2 10 3q1 0 2.5 0.5l1.5 0.5h1v1h1
h2.5t4 0.5t4.5 0.5t5 1l6 1q6 1 9 1h3l1 1h4h4h2l2 1l19 -1h20h3q3 0 4.5 -0.5t3 -0.5t4 -0.5t8 -1.5l11.5 -2l5 -1l3 -1h2l2 -1l2 -1h2h1l1 1l1 1h2q1 0 2.5 0.5t2.5 0.5l1 1h2q1 1 4 1l2 1h15q16 0 17.5 -0.5t2.5 -0.5h1l1 -1l2 -1h2q1 0 3 -1t3.5 -1.5t3.5 -1.5t2.5 -1
t1.5 -1l2 -1l2 -1h1l2 -1q2 -3 4 -3q1 0 2.5 -1l1.5 -1q4 0 6 -3v0h1v-1l5 -2q12 -6 14 -9l1 -1h1q0 -1 4 -2h1l1 -1l1 -1v-1l2 -2q3 -1 4 -2l2 -2q1 -1 2 -1l2 -1l2 -3q3 -2 4 -3l1 -1v-1h1l1 -1q1 -1 2 -1q1 -1 13 -12q4 -4 6 -5l2 -2q0 -1 2 -2q2 -2 10 -9l3 -3l2 -1
l1 -1l2 -2q2 -2 9 -10l3 -2h1l1 -1l1 -1l1 -2h1l1 -1h1h1l1 -2l1 -1l1 -1h1l1 -2q1 -4 3 -6q1 0 1 -1v-2h1l1 -1v1v-2v-1l3 -2l2 -3v-1l1 -1h1v-1q1 -1 1 -3q0 -3 2 -5l1 -1l1 -2l1 -2l1 -1l1 -1v-1v-2h1l1 -1l1 -2l1 -2l1 -1q0 -2 1 -4q4 -7 4.5 -7.5t1 -2l1 -3t1.5 -3.5
t3.5 -7.5t3.5 -8.5t2 -4.5t2.5 -6t2.5 -5.5t1 -2v-3q1 -1 1 -1.5t0.5 -2t1 -2t0.5 -1.5t1.5 -4.5t1.5 -5.5q1 -5 3 -9q0 -1 1 -3v-3v-1q2 -2 2 -6q0 -2 1.5 -7t1.5 -5.5t1 -1.5v-2v-1v-1h1v-4v-3l1 -1v-2l1 -2v-1v-1q0 -6 2 -9l1 -1v-4v-4v-2q1 -1 1 -2q1 -2 1 -7
q0 -2 0.5 -5t1 -3.5t0.5 -2.5q1 -4 1 -11l1 -4q1 -2 1 -9q0 -10 1 -15l1 -2l-1 -2v-1h1v-4v-4v-1v-1v-11v-10v-1v-1q0 -1 -1 -3v-1h1v-13v-13v-1h1v-2v-1h-1v-2v-1v-1l-1 -1h1v-1v-1h-1v0l1 -1l-1 -3v-4l1 -1v-1v-1q0 -1 -1 -2v-1h1l-1 -1l-1 -3v-3v-1v-6v-6v-3v-2l-1 -1v-4
q0 -4 0.5 -10t0.5 -9v-6v-14v-7v-1v-1v-1h-1l1 -10v-13v-4h-1h1v-6q0 -9 1 -13q0 -2 0.5 -19t0.5 -20q0 -12 1 -25v-8l-1 -8l1 -3q1 -5 0 -6q-1 -2 1 -9v-2v-4v-3l1 -2v-6q1 -5 2 -8v-1v-2v-1l1 -4q1 -4 1.5 -6.5t0.5 -5.5q2 -7 4 -11q1 -1 2 -3v-2l1 -1q2 -1 3.5 -3.5
t2.5 -5.5l4 -4q4 -6 6 -11q1 -2 3 -8q3 -6 5 -11q1 -3 2 -4l1 -4q2 -3 5 -14l2 -6t1 -4t1 -3.5t1 -4.5l1 -4q1 -2 1 -3t0.5 -2t0.5 -1.5t1 -4.5l1 -8q1 -4 1 -7l1 -2v-2v-3l-1 -1q-2 -5 -15 -16l-4 -4l-3 -1q-3 -1 -4 -1h-2v-1h-1q-5 0 -7 -2v0v1l-1 -1h-1v0q-1 -1 -2 -1
q-2 0 -5 -1q-1 -1 -3 -1h-2q0 -1 -1 -1h-2l-1 -1v1h-1v-1h-1l-1 1l-1 -1v-1zM895 -164v0v0zM886 -162v0v0zM885 -160h-1h1zM879 -157v0v0zM877 -155v1v-1v0zM267 -148v0v-1v1zM867 -148h-1l1 -1v1zM862 -146v0v0zM276 -143v0v0zM297 -129h-1h1zM831 -114v1v-1v-1h1zM864 -44
v1l-1 -1h1zM310 97h-1h1zM551 107l-1 1v-1v-1h1v1zM507 108v0v-1v1zM500 108v0v0zM530 108h-1v0h1zM512 109l-1 1v-1h1zM552 110v0v0zM502 110h-1h1zM564 110h-1v0h1zM509 111h-1v-1zM580 113v1v-1v0zM586 114v0l-1 -1h1h1zM464 114l-1 1v-1h1zM470 115v0v-1v1zM579 114v1
l-1 -1h1zM587 115h-1v-1h1v1zM472 115h-1v0h1zM451 119v0v0zM452 119v0v0zM597 119v0h-1h1v0zM449 120h-1v1v-1h1zM446 122v0v-1v1zM610 122l-1 1v-1h1zM602 122h-1v0h1zM444 122v1v-1v0zM448 122v1v-1v0zM443 124v0v-1v1zM608 124v0v-1v1zM445 126v0v0zM422 132h-1h1v0z
M626 132v1v-1v0zM641 137h-1v0h1zM638 138v1v-1v0zM639 139v0v0zM638 140h-1v-1h1v1zM664 155v0v0zM665 156v0v-1v1zM672 159v1l-1 -1h1zM675 161h-1v0h1zM363 168h-1h1zM361 170v0v0zM306 171v0v0zM358 172l-1 1v-1h1zM352 176v0v-1l1 1h-1zM694 176h-1v0h1zM697 179h-1h1
v0zM698 179v1v-1v0zM704 185h-1v-1zM308 186h-1v0h1zM334 190v0v0zM713 192v0h-1h1v0zM330 193v0v-1v1v0zM715 193h-2h-1h1q1 -1 2 -1v1zM327 196h-1v0h1zM324 197v0v0zM322 200v0v0zM312 201h-1l1 -1v1zM724 201v0v0zM724 202v0v0zM731 210v1v0v-1v0zM739 216v0v-1v1z
M745 222v1l-1 -1h1zM747 224h-1v0h1zM744 227v0v-1v1zM748 227h-1l1 -1v1zM750 229v0v0zM760 237h-1v0h1zM890 243v0v0zM892 271h-1v0h1zM375 465v1l-1 -1h1zM475 561v1v-1h1h3l4 1l1.5 1t3 1.5t2.5 0.5l1 1h1l1 1q1 1 2 1v1v1l1 -1v0v1q1 0 3 2l3 3l1 2q4 7 5 11v2v7v8
q-1 1 -1 2q-1 5 -6 11q-2 3 -7 7l-3 2h-2q-7 3 -13 3h-2l-3 -1q-7 -1 -11 -4q-1 -1 -2 -1l-3 -2q-1 -2 -1.5 -2t-1.5 -1.5l-1 -1.5v1v-1h-1v-1v-1h-1v-1v-1h-1v-1h-1v-1v-1h-1v-1v-2l-1 -1v1v-1v-1h-1v-1v-2v-1l-1 1l1 -2v-2l-1 1v-1v-2v1v-4q1 -12 7 -19l1 -2v-1l2 -1l2 -2
l1 -1l1.5 -1l1.5 -1q0 -1 7 -3h1v-1h3h4h1zM446 607h-1v0h1zM902 -164v1v-1v0zM887 -163v0v0zM883 -162v1v-1v0zM257 -154v0v0zM861 -151h1v0h-1zM849 -138h1h-1zM828 -111v0v-1v1zM318 39v0v0zM537 102v0v0zM536 103l1 1v-1h-1zM543 104h1v0l-1 -1v1zM553 104v0v0zM556 104
v1v-1v0zM557 104v1v-1v0zM525 105v0v0zM538 105h1v0h-1zM540 105v1h1h1l-1 -1h-1zM543 105v0v0zM514 105v1v-1v0zM547 105h1h-1zM568 105h1v0h-1zM509 106v1v0h1v-1h-1zM512 107v0v0zM567 107v0v0zM488 108v1l1 -1h-1v0zM489 108q0 1 1 1v-1h-1v0zM495 108v0v0zM575 108h1v0
h-1zM568 109v0v-1v1zM498 109v0v0zM483 109v1l1 -1h-1v0zM570 109v1v-1v0zM483 110v0v0zM489 110v1h1v0q0 -2 -1 -1zM468 112v0v0zM582 113l-1 1l1 -1v-1v1zM470 113h1v0h-1zM457 114h1v-1zM457 115v0v0zM455 115h1h-1zM453 116v0v-1v1zM454 116v0v0zM441 117v1v-1v0z
M445 118h1h-1zM608 119v1v-1v0zM444 120h1h-1zM438 121v0h1v-1q-1 0 -1 1zM437 121h1h-1zM437 122v1l1 -1v0h-1zM438 123h1h-1v0zM434 124v0v-1v1zM428 124h1v0h-1zM624 125h1h-1zM616 125v1v-1v0zM429 126h1h-1zM617 126l1 1v-1v-1zM625 126v0v0zM428 127h1v-1zM615 127v0
v-1v1zM626 127v1v-1zM422 127v0v0zM424 127v0v0zM616 127v1v-1v0zM619 128v0h1h-1v0zM422 128h1v0h-1zM636 132h1v0h-1zM412 134v1v-1v0h-1h1zM634 134h1v0h-1zM637 134v0v0zM637 136v0v0zM642 136h1v0h-1zM642 138v0v-1v1zM402 138v0v0zM645 139h1h-1zM400 142v0v0z
M649 143h1l1 1v-1h-1h-1zM307 148v0v0zM387 149h1h-1zM661 150l1 1v-1h-1zM669 156v0l1 -1h-1v1zM672 157v0v-1v1zM676 161h1v-1zM308 169h1v0h-1zM692 173h1v0h-1zM699 176v0v0zM697 177h1h-1v0zM309 180h1v0h-1zM342 182v1l1 -1h-1v0zM709 184v0v0zM709 186h-1v1h1l-1 1h1
h1v-1h1l-1 -1v-1v0q-1 0 -1 1zM711 188v0v0zM311 193v0v-1v1zM312 195v0v-1h-1zM727 201v1v-1v0zM730 206v1v-1v0zM741 217v1l1 -1h-1zM742 219v0v1v-1zM743 219v1v-1v0z" />
  </g>

</svg>
