<?xml version="1.0" standalone="no"?>
<!DOCTYPE svg PUBLIC "-//W3C//DTD SVG 1.1//EN" "http://www.w3.org/Graphics/SVG/1.1/DTD/svg11.dtd" >
<svg viewBox="0 -200 1000 1000">
  <g transform="matrix(1 0 0 -1 0 800)">
   <path fill="currentColor"
d="M880 326q1 176 0 352v-176v-198v22zM373 447q-4 -5 0 -9t7 -4q2 0 3.5 -2t5.5 -12q5 -13 13.5 -31t13.5 -31t8 -19q16 -36 24 -56q18 -47 28 -63q5 -10 4 -11t12 -21.5t21 -28.5q6 -6 12.5 -6t13.5 4q16 9 18 19q1 4 -1 9t1 8q10 7 15 25q2 8 0 14q-4 20 -25 26
q-11 3 -21 -2q-7 -4 -9 -4t-33 48l-41 63q-32 48 -44 71q-4 8 -2.5 12.5t-1.5 8.5q-4 6 -9 3q-9 -4 -13 -11zM556 228q6 -15 -4 -30q-6 -9 -18 -7q-8 1 -16 8q-12 9 -13 24q0 8 4 14.5t6.5 6.5t6.5 2q8 3 16 0q13 -4 18 -18z" />
  </g>

</svg>
