<?xml version="1.0" standalone="no"?>
<!DOCTYPE svg PUBLIC "-//W3C//DTD SVG 1.1//EN" "http://www.w3.org/Graphics/SVG/1.1/DTD/svg11.dtd" >
<svg viewBox="0 -200 1000 1000">
  <g transform="matrix(1 0 0 -1 0 800)">
   <path fill="currentColor"
d="M626 -64.5q0 0.5 -18.5 1t-19 1t-5 0.5t-7 1t-11.5 2l-8 2l-3 1q-3 1 -5 1h-1v1h-1q-2 0 -7 2q-9 4 -15 6q-5 2 -6 2.5l-3 1.5q-4 2 -11 5l-7 3q-2 0 -14 6q-2 1 -4.5 2t-7.5 4t-7 3q-9 3 -12 6l-4.5 2t-9.5 5t-7 4t-3 2t-4 2q-14 8 -34 27l-6 5l-3 3l-1 2v1l1 1l1 1
l-2 1h-9h-8v1l-1 1l-1 -1v-2v1v1h-2l-1 -1l-1 1h-2h-3l-3 -1v1l1 1l-2 -1l-1 -1l-5 1l-7 1q-2 1 -7 1h-5l-1 1h-2h-2v1v1l-1 -1h-1l-3 1l-12 2l-2 1l-2 1l-1 1l-2 -1h-2l-2 1q-1 1 -2 1h-2v1v1h-3h-3v1h-1q-1 0 -2 1q-4 2 -7 3q-2 0 -5 1.5t-5 2t-4 1.5t-2.5 1t-7 3t-7.5 3
h-1l-1 1v1h-1l-2 1l-2 1h-1h-2l-1 1q-1 1 -5 3l-6 4l-7 4q-5 2 -8 4l-6 4q-9 6 -13 10l-3 2q-3 0 -39 39l-12 12q-1 2 -3 5l-2 2l1 1h-1l-1 -1l-2 3l-4 5q-1 1 -4 5l-3 3v2q-1 2 -2 3l-1 1v-1h-1l-1 2q-1 3 -1.5 3t-2.5 2q-1 3 -3 6l-1 1l-3 5l-3 5v1l1 1l-1 -1h-1l-1 2
q-1 3 -3.5 7.5t-6.5 10.5l-4 7l-3 9q-8 24 -12 43q-2 9 -3 11l-1 3h-1l-1 -1v3q0 12 -11 36q-1 3 -1 3.5t-2 3.5l-4 8l-1 4v1l1 1h2h2v-1h1h1h-1v1h4h5v1h4q15 0 16 1q1 0 27 1l7 1l1 1v-1v-1l1 1h1h12q22 0 41 -1q6 -1 19 -2l16 -1q4 -1 9 -2h5h9l8 -1l1 -1h8h9h1
q3 -2 10 -4h4q22 -5 25 -5q1 -1 2 -1.5t6 -1.5q12 -2 17 -4q1 0 4 -0.5t5 -1.5h1v1v1l-2 2q-2 2 -3 2t-3 1q-4 2 -16 5q-3 0 -6.5 1.5t-5.5 1.5h-3q-1 2 -20 5q-6 1 -7 1t-6 1q-9 0 -10 1t-6 1h-4v1q-1 0 -3 1l-3 1h-1l-1 -1l-1 1q-2 2 -10 3h-2v1h-5q-5 1 -9.5 2t-6.5 1
q-12 0 -13 2l-1 2l-1 1l2 1l1 2h1h1l-1 2v2v18q0 35 3 67l1 8l3 13q7 32 10 42q5 11 7 12v1q0 2 7 13l1.5 3t1.5 2l2 2v1v1l3 4q3 4 5 7t5 7l7 9q4 5 5 7l6 7q4 4 4.5 5t2.5 4q10 13 40 39l6 5q5 5 11 9q3 2 5 4l3 3l7 5q16 12 18 12l1.5 1t8.5 5l14 7l3 2q3 1 4 1l2 1l1 -1
h1l4 -12q4 -12 6 -16.5t2 -5t1.5 -3.5t2 -6t1.5 -3q4 0 8 5q1 1 3 2q8 4 11 6q1 1 5.5 2.5t7 2.5t7 2.5t6 1.5t3 0.5t2 1t9.5 1.5t13 1.5t5 0.5t8 2l7 1l2 -1h2l1 -1l1 1q1 0 3 0.5t4 0.5h11h13q15 -1 16 -1.5t3 -0.5q9 -1 13 -2q2 -1 6 -1t5.5 -0.5t6 -1t10 -2.5t7.5 -2
q6 -1 9 -2q1 -1 2 -1q2 0 24 -7h2l6 -2t8 -2h1v-1v-1h2l4 -2t3 -1t3.5 -1t5.5 -2.5l9 -4.5t7 -3t1 -0.5t4 -3t4.5 -2.5t3.5 -2t3.5 -2t7 -4.5t8.5 -5t4 -3t3 -2.5q2 0 9 -6q1 -1 1.5 -1t7 -5l6.5 -5l2 -1q2 -2 14 -12l6 -4l6 -6l5 -5l1 -2l1 -2l3 -3q3 -2 5 -4l2 -2h1h1
l1 -2l2 -1l-1 1v1h1v-2l-1 -3l3 -3l3 -4l-1 -1v-3l-1 -2l3 -3q4 -3 9 -5.5t6.5 -4t7 -5t6.5 -4.5q5 -5 16 -13q6 -4 12 -10l9 -10q6 -6 8 -9q3 -3 10 -11t11 -15l1.5 -1.5t7 -10t7.5 -10.5t6 -11l7 -12q3 -4 6 -11l3 -7v-5q2 -14 4 -25l2 -12t1.5 -10.5t0.5 -6.5
q1 -10 1 -23v-8l-1 -5q-1 -10 -5 -24q-1 -9 -2 -10q-2 -11 -6 -23q-1 -4 -1 -5.5t-1 -3.5t-3 -8.5t-4 -10.5t-2 -5q0 -2 -9 -19l-1 -2h-1v-1l1 -1l-1 -2q-1 -2 -1 -2.5t-1.5 -3.5t-3.5 -8t-15 -32q-2 -5 -2 -6q-1 -5 -3 -5v-1v-1h-1h-1l-1 -3l-2.5 -5l-2 -4t-2.5 -4l-3 -4
v-1v-2h-1h-1l-1 -2q-1 -2 -2 -3l-2 -2v-4v-4v-1l-4 -4l-3 -3l-1 1q-2 0 -3 1t-4.5 3t-9.5 6l-26.5 25.5l-28.5 27.5q-2 3 -7 8t-5 5.5t-4 4.5l-8 9l-11 11.5t-7 8t-7 7.5t-7 7.5t-4.5 5.5t-6.5 7l-1 2h-1h-1v1v2h-1h-1l-1 3l-1 2h-1l-2 3l-2 3h-1v1q0 1 -0.5 1.5t-2.5 4
t-4 5.5l-2 2v1v1l-2 2l-2 1l-4 5q-3 5 -5.5 7.5t-2.5 3t-2.5 3.5t-2 3.5t-1.5 2.5q-3 3 -4 6q0 1 -1 2q-3 4 -3 7l-2 1l-1 1l1 1v1h-1l-1 2v1h-1h-1l1 1v1l-1 2q-4 7 -4 11l-1 2h-1v1l1 2h-1h-1v1v2h-1v1v1l-1 1l-1 1v3q-1 3 -2 5l-1 2l1 2q0 1 1 3q6 6 7 6l2 2l2 3l6 4
q6 4 6.5 4t3.5 2l3 3v2v1l-3 1q-3 1 -5.5 1.5t-6.5 1.5q-10 4 -14 4q-2 1 -4 1l-2 1l-1 -1l-1 2l-1 1h-2h-3l-1 1v3q0 11 -3 18l-1 2l-2 -2l-2 -2h-1v2q1 1 3 4l2 3v8q1 8 1 15l1 8l-1 1l-1 1l-6 -1l-12 -2h-6h-1l-1 1l1 6l2 6l-1 10q0 15 -2 17q0 1 -1 5l-1 4h-1l-1 1l1 1
l-2 1l-1 1l1 1l-2 2q-2 2 -2 3t-6.5 8.5t-7.5 7.5t-2 2l-1 2l-1 -1h-2h1v1l-3 2q-4 2 -5.5 3t-2.5 1t-5 2l-4 2h-2h-3v1v1h-3h-4l-1 1l-8 -1h-10h-3v-1h1h-2q-1 0 -7 -2t-7 -2.5t-2 -0.5h-1v-1v-1l-3 -1h-2v-1q0 -1 -1 -1q-5 -2 -14 -13l-3 -4l-3 -6l-3 -6l-1 -5l-2 -6
l-1 -9v-9l1 -7l2 -7l1 -4l3 -6l1 -3l-1 1q-1 0 -7.5 2t-7.5 3l-1 1h-4h-4l-2 -1q-2 -1 -5 -3l-2 -3l-1 -4q-1 -4 -2 -9q-1 -9 -3 -19v-2l-3 -1q-3 -1 -8.5 -2.5t-11.5 -3.5l-6 -3v-1h-2l-2 -1v-2v-2h2q1 0 2 -1l1 -1h1q2 0 5 -1.5t3 -2.5h2h2l1 -2q1 -1 2 -1h1v-1l2 -1h3v-3
v-3l-1 -4q-1 -4 -1.5 -4.5t-0.5 -1.5t-2 -8t-2.5 -8t-0.5 -2l-1 -1l1 -1l-1 -1q0 -1 -1.5 -5.5l-3 -9t-1.5 -8t-1 -7.5t-1 -6v-1h1q1 0 2 -1t2.5 -2t3.5 -3q5 -6 6 -6h1v-1l2 -1h1v-1v-1l-2 -3q-2 -2 -3 -4t-4 -6q-2 -2 -2 -3l-1 -1h-1v-1q0 -1 -1 -2t-2.5 -4t-3.5 -6l-3 -4
v-1v-1h3h2q1 1 9 4.5t11 4.5q3 0 4 0.5l5 2.5l3 1l1 -1h2l-1 1l1 1h2l-1 -1v-1l1 1q1 0 1 1h1l1 -1v1v1l1 -1q1 -1 2 -3t6 -7t5 -5.5v-0.5h1v3l-1 2h6h6v-1h1l2 1l1 1h3q7 0 10 1q3 0 8 1l14 1h9l7 -1l7 -1l9 -3q16 -5 32 -13l9 -5v1h1l-1 -6q0 -6 -1 -18v-13l-1 -1
q-2 -2 1 -3h2l2 3l3 3h1l1 -1l4 4l5 4l1 3q1 2 3.5 4.5t2.5 3.5l1 1h1l-1 -1l-1 -2v-1h1l2 2q2 1 2 1.5t2.5 -1.5t5.5 -3q6 -4 11 -7q2 -2 2.5 -2t7 -4.5t8.5 -5.5t6 -4l6 -4l18 -14q3 -2 7.5 -5.5t8.5 -7.5t10 -9l10 -8l7 -6q11 -9 27 -26l14 -15q7 -7 21 -24
q49 -58 75 -77l2 -2v-1v-1l-2 -1q-1 -1 -3 -1h-1v-1h-1l-2 -1q-7 -4 -9 -6l-10 -5q-1 -1 -3.5 -2t-5 -2.5t-3.5 -1.5h-2v-1v-1q-1 0 -3.5 -1t-7 -3t-8.5 -4q-8 -3 -15 -6q-6 -1 -8 -2t-8 -3l-5 -2l-1 -1h-1q-3 0 -8 -2q-2 -1 -4 -1t-3 -1q-3 -2 -14 -3q-3 0 -4 -0.5t-4 -0.5
q-17 -2 -21 -3.5t-17 -1.5l-4 -1v-1h-3q-9 0 -21 -1q-5 0 -19.5 -0.5t-15.5 -1t-1 0zM776 13q-1 2 -6 7l-9 10l-24 25l-6 7v1h-1q-1 0 -4 4q-31 33 -72 69q-4 3 -6.5 5.5t-3 2.5t-2 2t-6.5 6l-8 6q-4 3 -7 6l-5 4q-3 3 -7.5 6t-5 3.5t-6 4l-5.5 3.5h-1v1v1h-2h-1l-1 1
q0 1 -3 2l-3 1v1v1v-1h-1l-5 4l-10 5l-7 3q-12 6 -18 7q-5 2 -7 2l-2 1v-2v-3l1 -2q1 -2 1 -3q0 -5 6 -17q1 -2 1 -3v-2h1l1 -1v-1q0 -1 1 -3t2.5 -7.5t2.5 -6t1.5 -4.5t1.5 -5t1.5 -4t0.5 -3.5t1.5 -6t1.5 -7.5q2 -2 3 -9t2 -11q1 -1 1 -2v-3q1 -2 1 -3v-1l1 1h2l-1 -1
l-1 -1v-1v1h1l1 -1l1 -1v-1v-1l2 -2l2 -1h1h1v-1q0 -3 34 -18q9 -4 10 -4q8 -4 9 -4q2 0 10 -4q10 -6 15 -6l5 -2q16 -8 18 -8l3 -1.5t4 -1.5t5 -1l36 -14l19 -7l14 -6l8 -2t5 -2q3 -3 8 -3h2zM340 109h5l1 -1l1 1h1l15 1q14 0 21 1q17 2 21 3q1 0 5 1q6 1 12 3l7 1q4 2 8 3
l3 2h1h3l1 1v1h-2h-2l2 2l2 3l-1 1h-1h1h1v1v1h-2l-3 1.5l-5 2.5l-31 16l-3 1q-1 1 -3 2q-9 4 -9 5h-1t-8 4.5t-7.5 5t-1.5 0.5h-2l-4 3q-4 3 -5.5 3.5t-3.5 2t-3 1.5t-4.5 2.5t-4.5 2.5q-2 0 -16 9q-4 2 -8 4.5t-6 4t-3 1.5h-1v1l-5 3q-5 2 -8 4t-4 2h-1v1l-3.5 2.5t-6 4
t-4.5 2.5t-6 3.5l-4 2.5l-3 1l-3 2l-1 -1v1q0 1 -10 6q-4 2 -9 5.5t-5.5 3.5t-2 1.5t-7 4t-6.5 3.5t-4.5 2.5t-4 2t-4.5 2.5l-16 9q-3 2 -9 5t-10 5.5t-5 3.5q-4 0 -12 6q-15 9 -18 9q-1 0 -1.5 1t-6 3.5t-6.5 2.5h-1v1h-2h-1l-1 -1l-1 -1h2h2h-1l-1 -1h1l1 -1h-1h-1v-1h1
h-2h-1.5t-0.5 -2l-1 -1l-2 2h-1l-1 -1l-1 -1h1h1v-2v-1l2 -2l1 -1l-1 -1l-1 -1l2 -1l2 -1l-1 -1v-1q1 0 3.5 -4l2.5 -4l10 -16q15 -23 16 -24q13 -16 13 -19q0 -1 3 -5t3 -4.5t5.5 -8t6.5 -9t3 -3.5q3 -5 18 -23l7 -8l8 -9q9 -9 9.5 -9t3.5 -3q5 -4 14.5 -10.5t10.5 -6.5
t3.5 -1.5t3.5 -1.5h1v-1v-1l1 1h1l2 -1l2 -2h2q2 0 2 -0.5t3 -1.5l3 -1v-1h1l2 1l1 -1q2 -1 3 -1q2 -1 13 -4l2 -1h14h13h2l1 -1l3 1h7zM837 180l1 1v-1h1v1q0 1 -0.5 1t0.5 2l1.5 3l1 2t0.5 5v1l1 -1l1 -1v2q1 1 2 5l1 4h1l1 3v3v1h1l1 3v2l2 2l1 2v2l1 3l1 1l1 1v2
q0 1 1 4q3 7 4 9q0 1 1 3t2 6l1 3h1v2q0 8 3 9h1v2v2l1 1q0 1 1.5 5.5t3.5 8.5l2 4v3l1 2h-1h-1l1 2v4l1 3l-1 -1h-1l1 1h1l1 6l2 12q1 7 1 12v4h1h1l-1 4v4v2l-1 1h1h1l-1 2q0 2 -1 5v3h-1v-1v5v4v1h-1v3v4h-1v2v3h-1v1l1 1l-1 3q-1 3 -2 5v2h-1v1v1q1 6 -2 8v1v2h-1h-1
l-1 4q-1 4 -1.5 4.5t-2.5 4.5t-3 4t-2 5q0 1 -0.5 1.5l-1.5 1.5t-4 5l-3 5l-6 7l-7 6l-5 3l-4 2v1h-1q-2 0 -4 1l-3 1l1 1h1h-2q-1 1 -3 2l-2 1h-1l-1 -1l-2 1q-2 2 -3.5 2t-3.5 1l-1 1l-3 -1h-3l-1 1h-2h-3l-3 -1v1h-7h-7q0 -1 -1 -1h-3l-2 -1v1v1l-1 -1h-1l-6 -3l-2 -2v-1
v-1l-1 1l-1 1v-4v-5l1 -1l1 -1v-3q1 -3 3.5 -11.5t3.5 -11.5q1 -6 2 -8q1 -3 1 -4t2 -7q13 -40 16 -60q1 -4 2 -6q3 -5 8 -29q0 -3 1 -4.5t4.5 -16l4.5 -18.5t3 -16q4 -17 8 -32q4 -13 5 -16.5t1 -4.5t2.5 -9t2.5 -8.5t1 -3t2 -2.5t2 1zM470 249q-2 3 -3 4l-2 1
q-1 -1 -1 -1.5t3.5 -3.5l3.5 -3h1zM284 384l3 1v1v1l1 1v6l1 7v1l1 1v3v3h1v2q-1 2 0 8.5l1.5 10t1 5.5t1.5 8l2 18q1 13 2.5 23t4.5 27l2 22q1 5 1.5 9.5t1.5 12.5l1 8v1l-1 1l1 1l1 1q-1 0 0 3q3 15 6 32q1 8 3 18t0 11l-2 1l-1 1v2h1h2l2 3l1 3l1 5v6l-5 -9
q-13 -18 -13 -19l-1 -1.5t-1 -2t-4 -5.5l-6 -10l-6 -11q-3 -3 -3 -4t-5 -9q-6 -9 -10 -16q-1 -2 -4.5 -7.5t-3.5 -6t-4 -7.5q-10 -16 -10 -18l-2 -4l-5.5 -10.5t-4.5 -8t-3 -6t-7 -14.5q-7 -16 -9 -21l-2 -8q-1 -5 -1.5 -7t-0.5 -4l-1 -1h1q2 0 3 -7v-3l2 -6q2 -7 3 -11
l1 -4l3 -3l6 -6l3 -4l3 -1q3 -1 8 -3.5t6 -2.5h2v-1h1h2h2l5 -2q5 -2 9.5 -3.5l6 -2t2.5 -0.5h1v1v1h2zM480 552.5q4 0.5 8 0.5t12 1q12 0 20 2q4 0 12 1q13 1 21 2q6 0 10.5 0.5t7.5 0.5q5 1 21 2q11 1 18.5 2t15 1t10.5 0.5t15.5 1l12.5 0.5h6q20 1 24 2q2 1 8 1l6 1l5 1
q5 1 9 3l3 2q0 1 -2 3l-2 1h-1h-1v1l-3 2q-5 3 -8 5l-2 1v-1v-1l-2 2l-1 2h-1h-2l1 1v1l-1 -1h-1l-3 2q-2 1 -4.5 2.5t-4 2l-1.5 0.5l-2 2l-2 1h-1l-1 1v1h-1h-1l-1 1l-2 1h-3q0 1 -1 1.5t-4 1.5l-2 1h-2h-1v1h-2h-2v1l1 1l-3 1l-3 1v-1v-1v1q-2 2 -6 2h-2v1l-2 1l-1 1
l-1 -1h-1l-1 1v1h-1v-1l-2 1l-1 1h-4l-3 1l-2 1l-1 1l-1 -1h-1v1v1l-1 -1h-2v1l-3 1l-4 1l-1 -1l-2 -1l-1 2v1h-2h-2l-1 1h-1h-2l-1 1h-1l-3 1l-2 1h-1v-1l-1 1q-1 1 -5 1l-6 2q-1 0 -5.5 1.5t-7 2t-3.5 1t-1.5 1t-4 0.5t-8.5 1l-5 1v1h-1h-2l-1 -1l-1 1q-1 1 -3.5 1t-2.5 1
l-1 1l-1 -1h-1v1h-2l-2 -1l-1 1v1h-3h-5h-2v1v1l-1 -1v-1l-4 1l-5 1h-3l-3 1h-1l-1 1v-1l1 -2l-1 1l-1 1h-2l-1 -1v1v1h-1v-1l1 -1h-2h-1l1 1v1l-1 1l-2 -1h-1h-1v1l-3 -1l-2 -1l-1 1l-1 1l-1 -1l-1 1l-1 1l-1 -1q-2 -1 -3 -1l1 1l2 2l-2 -1h-1h-8h-8l-1 -2q-2 -2 -2 -2.5
t-2 -2.5l-1 -2l1 -1h-1q-1 0 -2 -2l-1 -2v-3q-1 -4 -1 -6v-2h-1v-1l-1 -3v-4l-1 -2v-4q0 -7 3 -15l1 -5h1v-1v-1l1 -3l2 -5q1 -2 1 -3t1 -2.5t2 -4.5q0 -3 7 -16l2 -5l2 -1l1 -2h3h3v-1l1 1z" />
  </g>

</svg>
