<?xml version="1.0" standalone="no"?>
<!DOCTYPE svg PUBLIC "-//W3C//DTD SVG 1.1//EN" "http://www.w3.org/Graphics/SVG/1.1/DTD/svg11.dtd" >
<svg viewBox="0 -200 1000 1000">
  <g transform="matrix(1 0 0 -1 0 800)">
   <path fill="currentColor"
d="M192 15v1v-1v0zM188 17q-1 2 -9 1q-2 -1 -2.5 0t-1.5 16.5t-1 17.5t-0.5 9t-1.5 15l-1 15v8q-1 3 -2 19q0 4 -2 30l-1.5 22t-0.5 9.5t-1 7.5q-1 25 -5 63q-3 30 -3 42q-1 8 -1 11t-1.5 25t-1.5 24.5t-1 16.5q-1 17 -3 43q-1 26 -3 40q-1 7 -2 21q-2 27 -4 37q-2 15 0 19
v2l2 -3q10 -11 15 -19q3 -5 9 -11q4 -5 7 -10q5 -8 22 -29q5 -5 7 -8q6 -7 9 -11q1 -2 3 -4.5t8.5 -10t7.5 -9.5q7 -10 9 -11l5 -7t8 -10t10 -12l14 -16l11 -13l9 -11l6 -7q5 -6 21 -23q6 -6 8 -9q3 -4 20 -22l10 -11l10 -11q4 -4 6.5 -7t3.5 -4q11 -11 30 -32l8 -9
q10 -11 11.5 -12t3.5 1q5 3 11 9l2 2q2 1 10 8q2 2 4 3.5t5 4l5.5 4.5t3.5 3t4 3l12 10q1 2 1.5 2t3 2.5t4 2.5t1.5 1t4.5 4.5t4.5 4t1 0.5t3 2q15 12 15 12.5t5.5 4.5t6.5 5l3 3q3 2 14 11l10 8.5t5 4t1.5 1t4.5 3.5q14 13 19 16q1 0 5 4l8 6l3.5 3.5t1 0.5t2.5 2t3 2
q6 5 9 8q1 1 5 4t4 3.5t3 2.5t3 2.5t1.5 1.5t2 1t4.5 4l11 9l5.5 5.5t4 3t4.5 3.5t4 3t3 2.5t3 3.5q4 3 15 12q0 1 6.5 6t6.5 6t1 1t5 3.5l9.5 8t6 5l2.5 2.5q13 11 29 26q5 4 5.5 4.5t6 5.5t11.5 9.5t6 5.5l4 3q2 2 6 5q8 8 10 2l1 -2l-1 -11v-39t1 -33q0 -2 -0.5 -13.5
t-0.5 -12.5l0.5 -0.5t0 -3t0.5 -3.5t0 -1.5t-1 -7v-7.5t0.5 -1.5t0 -1.5t0.5 -1t0 -1t-1 -11q-1 -14 0 -15t1 -4t-1 -3.5t-1 -4v-3.5v-2t-0.5 -2t0.5 -1.5l1 -0.5q-2 -1 -2 -11t1 -11v-1q-1 0 -1 -5v-6h-1q1 0 1 -7q-1 -19 -1 -28q-1 -8 0 -8q0 -1 -0.5 -3.5t-0.5 -5.5
t0.5 -4t-0.5 -4l-1 -2h1q1 1 1 0l-1 -5v-3v-3v-1q1 -2 0 -2.5t-0.5 -5.5t0.5 -6t-0.5 -1t-0.5 -2t-0.5 -12t0 -10.5t0 -1t-0.5 -1.5v-1v-1.5t0.5 -2t-0.5 -1.5v-2l1 1v-1q0 -1 -0.5 -1t-1.5 -2v-1h1h1l-1 -1q-1 -1 -0.5 -3t-0.5 -2v-1q1 -1 0 -2q-1 -3 0 -3t1 -1.5t-0.5 -1
t-0.5 -3.5t-0.5 -6t-0.5 -10.5t-0.5 -10t-0.5 -3.5l1 -6q-1 1 -1 0t0.5 -1t0 -2.5t0.5 -3t0 -1.5t-0.5 -2.5t0 -1.5t-0.5 -1.5t0.5 -1.5t0 -2.5t-0.5 -8t0.5 -6t-0.5 -1.5l-0.5 -7t-0.5 -14.5t1 -7.5q-1 -1 2.5 -4.5t4.5 -5.5v-2l-1 -2l-2 -2h-8h-10t-3 0.5t-1 0t-1 -1
t-3 -0.5q-19 1 -20 0h-25t-25.5 0.5t-2 0t-4.5 0.5h-11h-16.5t-16.5 -0.5t-2 0t-1 0t-1 -0.5q-5 2 -6 0v-1v1q-1 1 -10 1t-12 -1q-1 0 -1.5 1t-2 -0.5t-2 -1t-4 0.5t-4 0.5t-1 0t-2 0t-7 0.5t-7.5 -1h-3.5t-0.5 -0.5t-3 -0.5h-3l-4 5q-12 21 -28 32q-38 25 -82 9
q-16 -6 -25 -14l-4 -4q-15 -14 -15 -18q0 -1 -3 -5.5t-3 -5.5h-9h-1l-9 -1h-1q-1 1 -9 0.5t-13 -0.5q-1 -1 -3 0q0 -1 -8 -1q-2 0 -1 -1v-1l-1 1q-3 3 -9 2q-1 0 -6.5 -0.5t-6.5 -1.5h-1v1l-1 1l-1 -1q-1 -1 -2 0t-1 0h-1q0 1 -2 0.5l-2 -0.5h-4h-16q-8 0 -9 -0.5t-1 0.5
t-1 0.5t-7 -0.5t-6 -0.5t-1 -0.5h-1v-1q-1 1 -2.5 1t-2 -0.5t-5.5 0t-5 0t-1.5 0t-2.5 -0.5t-3 0t-4 1h-1l1 -1v-1q-1 0 -1.5 1t-1.5 0t-2.5 0t-9.5 0q-3 0 -4 0.5t-2 -0.5l-1 -1h-1l-1 -1l-1 1q0 1 -2.5 0.5t-6 0.5t-6 0.5t-10 -0.5t-7.5 -0.5t-3 -0.5q-7 2 -9 0l-1 -1v1
q0 1 -1 1h-1v-1h-1h-4h-3zM192 18l-1 1v-1h1zM263 19v-1q1 1 0 1zM213 19v0v0zM184 20h-1l1 -1v1zM275 20h-1v-1zM286 20v0v-1v1zM279 20v1v-1v0zM281 20l-1 1v-1h1zM191.5 21.5q0.5 0.5 0 0.5t-1.5 -1q1 0 1.5 0.5zM259 24v0v-1v1zM747 234v1v-1v0zM817 337v0v-1v1z
M818 387h-1l1 -1v1zM201 17v0v-1v1zM257 17h1v0h-1zM378 18v1v-1v0zM317 19q1 1 1 0h-1zM798 24l1 1v-1h-1zM801 24v1l1 -1h-1zM809 111v0v0zM811 167h1v0h-1zM815 216v0v-1v1zM430 233q-6 7 -23 22l-8 9l-25 25q-2 1 -5 4.5t-3 4.5q-5 3 -6 6l-3.5 3.5l-4.5 4.5l-9 9
l-15 18q-4 4 -7 6.5t-5 5.5t-7.5 8.5t-7.5 8.5q-4 5 -17 19q-2 2 -6 6.5t-7 8.5t-5 6q-4 5 -6 5q0 1 -3.5 4.5t-7 8t-5.5 6.5q-7 7 -11 12q-1 2 -2 3q-2 2 -10 11q-9 9 -15 18l-17 21q-7 7 -14 19q-2 4 -3 5q-9 12 -8 15q1 0 2.5 -0.5t2 0t5.5 1t5.5 -0.5t3.5 -0.5t5 0.5
q1 1 2 0.5t4.5 0t11 1t9.5 0.5t2.5 -0.5t8.5 0.5q13 2 15.5 1.5t3 0t3.5 0.5h10h7q5 0 11.5 1.5t9.5 0.5h5h7.5h3.5l2 1q3 0 3.5 -1t1.5 -0.5t3.5 0t2.5 0t1 0.5l2 1l1 -1l1 -1l1 1l2 1l8 1q12 0 15 -1t4 -8q2 -13 7 -25q5 -10 14 -19l3 -4q5 -5 13.5 -10.5t11.5 -5.5
q1 0 1 -1t0.5 -1h1.5q8 -3 10 -3q1 0 1 -0.5t2 -0.5q8 0 11 -2h3h2l1 -1q1 1 2 1t2 0.5t6.5 0.5t6.5 1l1 1v-1v-1l1 1q0 1 1.5 1t4.5 1.5t4.5 1.5t3.5 1.5t2.5 1t3 1t3.5 2.5l2 0.5t3 1.5t2 1t0.5 1t0.5 1h1q0 1 1 1t3 1.5t2 2t1 1t4 3.5l3 3l3 3q4 4 4 4.5t1 2t1.5 2
t1.5 3.5q9 14 12 31q2 7 2.5 8t13.5 0h31q12 1 14 0t3 0t5.5 0.5t5 0t18.5 0.5t20 0.5t8 0.5t8 -0.5t3.5 0t2.5 0.5t3.5 0.5t20 1t26.5 1t12.5 0.5h3.5h3q15 0 32 2h11l9 1v-2q0 -1 -1 -3t-2 -2t-1 -0.5t-1 -0.5t-1 -1t-1 -0.5t-1 -0.5t-1 -1t-0.5 -0.5t-1.5 -2t-4 -3.5
t-3 -2h-1l-2 -3l-2 -2q-5 -8 -8 -6v-1q1 -3 0.5 -3t-0.5 -3v-4h-1q-1 -1 -2 0l-1 -2q0 -3 -3 -1v-1q0 -1 -1 -1v-1v-1l-1 1q1 -1 0 -3l-1 -1v1v1l-1 -1q0 -2 -1.5 -1.5t-0.5 -1.5q0 -1 -1 -1t-2 -1.5t-2 -1.5t-1 -3v0v-1v-1q0 1 -2 0t-1.5 -2t-0.5 -1q-3 0 -3 -1t-1.5 -1
t-2.5 1l-3 -4q0 -4 -4 -4q-1 0 -1.5 -1t0.5 -2h-2l-2 1l-1 -2q-2 -1 -2.5 -0.5t-0.5 0t1 -1.5l-1 -2q-2 -1 -2 -2t-1 -1t0 -1l-0.5 -0.5l-0.5 -0.5q-2 0 -3.5 -1.5l-1.5 -1.5v-1l-1 -1q-1 0 -1 -1t-0.5 -1t-4 -3.5t-4.5 -3.5v0q0 -2 -2 -1q-1 1 -2 0l-1 -2l1 1q1 0 1 -0.5
t-1.5 -1t-1.5 -1.5t-1 -1h-1q0 -1 -0.5 -1.5l-0.5 -0.5h-1v-1l1 -2l-1 1l-1 1v-1q0 -1 -1 -1q-3 0 -6 -5l-1 -1v1l-1 -1l-1 -1l-1 -1q-1 -1 -0.5 -1.5t-1 -2t-2.5 -1.5t-1 -0.5t-1.5 -0.5t-3.5 -2.5t-3.5 -2t-1.5 -0.5t-1 -2l-1 -1l-4 -3l-3 -3l1 -1h1h-1h-2v-1l-2 -2
q-3 -3 -2 -4q0 -1 -1.5 -1t-0.5 -1l-1 -1q0 1 -2 -0.5t-4 -2t-1 -1t-0.5 -2.5t-3.5 -3q-1 0 -0.5 -0.5t-1.5 -2t-3 -2.5l-1 -1h-1h-1q0 -2 -0.5 -2t-0.5 -1t-1 0v-1q0 -1 -1.5 -1.5t-0.5 -0.5l-1 -1l-2 1v-2q0 -1 -1.5 -1t-2 -1.5l-0.5 -1.5q-3 0 -3 -4q0 -1 -2 -2
t-1.5 -1.5t-0.5 -0.5t-2 -1t-2 -1h-1l1 -1l1 -1l-3 -1q-2 -1 -2 -1.5t-2 -0.5l-2 -1v-1q1 -1 0 -1t-1 -1t-1.5 -1.5t-1.5 -2.5h-1l-1.5 -1t-2.5 -1v-0.5t-0.5 -0.5h-0.5q-1 0 -0.5 -1t-1 -1.5t-1.5 -1t-1.5 -1t-1 -1.5t-0.5 -1t-1.5 -1t-1.5 -1t-2 -1.5t-1 -0.5l-1 -1
q-1 0 -1 -1v0q-1 0 -2 -2t-2 -2h-1q1 -1 -1 -2.5t-1 -2.5q-1 -1 -1.5 -1h-0.5q0 -1 -0.5 -1t-1 -1.5t-1.5 -1.5q-3 0 -3 -2q0 -1 -1 -1l-1 1v-2q0 -1 -0.5 -1.5t-0.5 0t-1 0.5t-1 -0.5t-1 -1.5l-1 -1h-1q0 -1 -2 -3.5t-3 -2.5t-1 -1t-2 -2q-6 -3 -7 -7q0 -1 -1 -1t-2 -1.5
t-2 -0.5v-1v-1q-1 1 -1 0q1 0 1 -1t-1 0q-1 0 -3 -1.5l-2 -1.5q0 -1 -1.5 -1.5t-1 -1.5t-0.5 -1t-2 -2t-2 -1l-1 -1q0 -1 -1 -2l-1 -1l-1.5 -1t-3 -3t-2 -1.5t-1.5 -1t-2 -1.5t-1 -1t-1 -1v-1q-1 0 -2 -2v-2h-1q-2 1 -2 -2v0q-1 1 -2 -1q-2 -1 -2 -2t-1 -1t-2 -1.5t-1 -2
t-1.5 -0.5t-1.5 -0.5t-2 -2t-2 -2.5l-2 -3v-1q-1 1 -4 -2l-3 -3l-1 1l-2 1v-1q0 -1 -1 -1.5t-1 -2t-1 -1.5t-2.5 -1.5t-4.5 -2t-4 -1.5q-3 -1 -5 2zM439 234v0v-1v1zM446 239h-1h1zM438 242l-1 -2h1v2zM450 252v0.5t-1 0.5h-1v-2q1 -1 1.5 -0.5t0.5 1.5zM469 257v0v0z
M470 259h-1h1zM474 263h-1v0h1zM478 266v0v0zM474 274q-1 1 -1 0.5t1 -0.5zM478 279v0v0zM513 299v0v0zM515 311v0v-1v1zM517 315l-1 -2l1 -2v2q1 1 0 2zM514 312h-1h1zM520 315l-1 1v-1h1zM515 316v0v0zM520 318q-1 0 -1 -0.5t0.5 -0.5t0.5 1zM527 325v-1q1 0 0 1z
M540.5 324q0.5 1 0 1t-0.5 -1v-1zM532 326.5q0 0.5 -1 0.5q0 -1 0.5 -1t0.5 0.5zM537 330v1v-1v0zM548 343v0v-1v1zM566.5 360.5q-0.5 0.5 -1.5 -0.5v-1l1 1q1 0 0.5 0.5zM570 364h-1v0h1zM582 365h-1l1 -1v1zM592 378v0v-1v1zM594 387v1v-1v0zM595 389v1l-1 -1h1zM609 391
v0v0zM623 415h-1v-1zM624 416h-1l1 -1v1zM627 418h-1v-1zM642 423h-1v0h1zM657 436v0v0zM647 438v-1v-1q1 1 0 2zM657 446h-1v-1zM662 454v0v0zM680 456h-1h1zM404 467v0v0zM682 469.5q0 0.5 -1 1t-1 -0.5l0.5 -0.5l0.5 -0.5q1 0 1 0.5zM683 472v1l-1 -1h1zM685 473h-1h1z
M699 474h-1v0h1zM690 475l-1 1l-1 1v-1q0 -1 1 -1h1zM690 477l-1 1v-1h1zM692 478l-2 1q1 0 1 -1h1zM703 479h-1v-1zM705 479l1 1q-1 0 -1 -1v-1v1zM695 479v1v-1v0zM698 480.5q0 0.5 -0.5 0.5t-0.5 -1q1 0 1 0.5zM695 482v0v0zM698 483h-1l1 -1v1zM710 484v0v0zM702 487h-1
h1zM711 487h-1h1zM725 493h-1v0h1zM728 499h-1v-1zM731 503v1l-1 -1h1zM723 506v0v0zM735 506h-1h1zM743 514v1v-1v0zM744 516h-1l1 -1v1zM745 517.5q0 0.5 -1 0.5t-1 -0.5t1 -0.5t1 0.5zM741 521v1v-1v0zM746 527h-1l1 -1v1zM761 538v1l-1 -1h1zM275 540v1v-1v0zM679 548
h-1v0h1zM444 234h1l-1 -1v1zM448 236h1v-1zM448 238v0v-1v1zM450 239v1v-1v0zM453 241h1l-1 -1v1zM815 245v1v-1v0zM473 260q0 1 0.5 0.5t0 -1t-0.5 0.5zM480 267h1v-1zM516 301h1v0h-1zM518 303h1v0h-1zM817 328v0v-1v1zM817 332v0v-1v1zM819 332v1v-1v0zM819 334h1v0h-1z
M559 342h1v0h-1zM649 426v0v0zM653 427l1 1v-1h-1zM658 432v0v0zM664 438l1 1v-1h-1zM687 459h1l-1 -1v1zM426 464h1v-1zM700 472h1l-1 -1v1zM707 479v1l1 -1h-1zM742 510v1q1 0 1.5 -0.5t0 -0.5h-1.5zM308 543v0v0z" />
  </g>

</svg>
