<?xml version="1.0" standalone="no"?>
<!DOCTYPE svg PUBLIC "-//W3C//DTD SVG 1.1//EN" "http://www.w3.org/Graphics/SVG/1.1/DTD/svg11.dtd" >
<svg viewBox="0 -200 1000 1000">
  <g transform="matrix(1 0 0 -1 0 800)">
   <path fill="currentColor"
d="M235 360l-34 29l-43 36q-47 39 -47 40t6 4l11 9l45 33l32 24l26 19l15 11l2 1l3 -3l20 -18l6 -6l-1 -1q-2 -1 -19 -14q-56 -40 -55.5 -41t33.5 -1q27 0 60 -1h33l1 1q1 1 1.5 1t2.5 9q23 106 27 109q0 1 19.5 0.5t19.5 -1t-4 -18.5q-17 -66 -17 -72h1q3 0 43 33l54 45
l33 28l22 17q49 41 71 58l3 2l9 -12l14 -16q4 -5 4 -5.5t-4 -3.5l-4 -4q-8 -6 -11 -8q-2 -2 -2 -3.5t-1.5 -1t-1.5 -1.5q-2 -4 -4 -4v1v2v-1l-0.5 -0.5l-0.5 -0.5h-1v-1q0 1 1 0v-0.5t-1 -0.5q0 -1 -9 -7l-24 -18l-27 -20l-25 -19l-34 -26l-31 -24l-47 -35q-3 -2 -3 -2.5
t3 -1.5q12 -1 128 -3q30 0 46 -1l48 -2q1 0 1 -14q1 -5 1 -18v-14h-4q-15 0 -50 1q-53 3 -110 5q-20 1 -26 1.5t-32 0.5q-66 2 -76 3q-5 0 -28 1l-86 3q-14 1 -14.5 0.5t1 -2t5.5 -5l10 -9t16 -13.5l18 -16l14 -12l3 -3l-2 -3q-2 -2 -15.5 -12t-14.5 -10t-3 2zM597 629v1
q-1 0 -1 -1h1zM601 632v1q-1 0 -1 -1l-1 -1q1 0 2 1zM606 637q0 1 0.5 1h0.5h-1v-1v-1v1z" />
  </g>

</svg>
