<?xml version="1.0" standalone="no"?>
<!DOCTYPE svg PUBLIC "-//W3C//DTD SVG 1.1//EN" "http://www.w3.org/Graphics/SVG/1.1/DTD/svg11.dtd" >
<svg viewBox="0 -200 1000 1000">
  <g transform="matrix(1 0 0 -1 0 800)">
   <path fill="currentColor"
d="M496 -11q-4 1 -9 1q-11 1 -14 1l-3 1v-1h-1v1h-1h-2h-1l-1 1v0v-1l-6 1q-6 1 -12 1h-2q-1 1 -5 1h-1v1h-1l-1 -1v1h-4t-4.5 0.5t-2.5 1t-2 0.5h-3q-6 1 -10 2q-3 1 -4 1q-4 0 -6 1h-2.5t-3.5 0.5l-2 0.5h-1v1h-1v-1l-1 1h-1h-1q-1 0 -2 1q-2 1 -6 1q-2 0 -2 0.5t-1 0.5
h-2h-1l-1 1v-1h-1l-1 1q-1 0 -6 1t-8 2t-4.5 1t-7 1.5t-7.5 1.5h-1v1h-1v-1v1q0 1 7 22q3 9 3.5 10l1 2l1.5 3t2.5 6t2 7t1.5 4q2 6 4 10q1 3 1 3.5t1.5 4t2 5t1.5 3.5l1 2h1v-1v1h1l0.5 -0.5t3.5 -1.5q5 -1 5 -2h1h1l1 -1v-1v1h1v0v-1l1 1l2 -1l3 -1v0h1v-1v0h2h2l1 -1
l1 -1l2 -0.5t3 -0.5h1v-1l-1 -1l1 1h1l1 -1v1l1 -1h2q3 -1 5 -2q1 -1 1.5 -1t1.5 -1h1h1l4 -1q3 0 4 -0.5t6 -2.5q11 -3 12 -4h2h2v-1q2 0 7 -1q1 -1 5 -1h4v-1h1h1.5h3.5h3h1l1 -1v1h-1h1q5 0 13 1h1h1v1h1h2v-1h1h1l1 1h1h2q0 1 8 1q2 0 3.5 0.5t2.5 0.5t6 1t8 2h4v1h1h4
l3 1l7 4q7 3 7.5 3.5t2.5 1t4 1.5l6 4q13 6 25 16q1 2 3.5 3.5t2.5 2t1 0.5l2 1q1 2 3.5 4t4 3t2.5 3q8 6 15 15l7 9l7 9l10 13l6 9l4 6h-1v1h1l1 2l1 2v0q1 0 0 2v2v1h-1v-1v1v1v2t1 2v1l-1 1v1l1 -1v2v2.5v0.5v1h-1v1v-1l-1 1l-1 1v1l1 -1h1l1 1h-1v1v-1h-1h-1v1v1h1v1
l-1 1h-1l1 -1h-1v1v1h-1v0v-1v-1l-1 1q0 1 -1 2v1l-1 -1v1l1 1h-1v-1l-1 1v1h-1l1 -1v-1h-1v1l-1 1v-1h-1h-1v1h1h1v1l-2 -1h-2v1h-2h-2v1q-1 0 -1 1l1 1h-1v1h1v0q0 1 -1 1v1l-1 -1h-1v-2l1 -1h-1l-1 -1v2v1v1h1q-1 0 -2 1h-1l1 -1h-1l-1 -1l-1 1h-2v1l1 1l-1 -1h-1v0l1 1
v1h-1v1v0q-1 0 -1 -1h-1l1 -1v-1h-1h-1l1 1v1h-1v0v1l-1 1v-1h-1l1 -1h-1l-1 1h-1l-1 -1v0h-1h-1t-1 1v1v-1h1v1v0q-1 0 -2 -1l-2 -1l1 1v1v1q-1 0 -1 1h-1l-1 -1h1l-1 -1v1v2q-1 0 -1 -1v-1v1h-1l-1 1h-1l-1 -1h1v-1q-1 0 -1 1v1h1l-2 1h-1v1l-1 -1v-1l1 -1h-1h-1h1v1h-1v0
v-1h-1v1v1h-1v1h2h1v1h-1v1v1v-1q-1 0 -1 -1v0h-1v-1h-1h-1v1h-1l1 -1l-1 1l-1 1h-1h-1h1v1v0h-1l-1 -1v1v1v-1v-1h-2l-1 1l-1 -1v-1v1h-1v0l-1 1h-1v1h-1h-1h-1l1 1v1h-1h-1h-1h-1v-1v-1v1l-1 1v-1l-1 -1v1h-1v0v1h-1v1h-1v-1v-1h-1l1 1v1l-1 -1h-1v1h-1v-1v-1h-1v2v1h-1
l-1 1v1h-1h-1v-1l-1 -1v1v1h-1v-1h1v-1h-1l-1 1h-1v1h-1l-1 -1h-1h-1h1v1h1h1v1h-1h-1l1 1l-1 -1l-1 -1h-1h-2v1h-1h-1l1 1h-1h-1v0h-1v1v0h1v1v2v1l-1 -1v-0.5v-1.5l-1 -2h-1v1h-1h-1l1 -1v-1l-1 1l-1 1l-1 -1h1l1 -1h-1l-1 1l-1 1l-1 -1h-1v0h1v1v1v-1h-1v1h-1v1h1l-1 1
h-1l-1 -1v1l-1 1v-1v-1l-1 1l-1 1l1 -1v-1h-1l-1 -1l1 1v2h-2h-1l1 -1v-1v-1v1h-1h-1v1h-1h-1h1l1 1h-1v1v1v-1h1v1q0 2 -1 2l-1 -2v-1h-1h-1v1v1l1 -1h1v1h-1h-1h-1v-1v0h-1v1v1h1h-1h-1v-1l-1 -1v1l-1 -1h-2h-1v1h1v1v-1h-1v1l-1 1h-1l1 -1l-1 -1h-1v1v1h-1h-1v-1l-1 -1v1
v1v1h1h1l2 -1v1v1l-1 1h1v1l1 1l-1 1l-3 3l-1 1v-1v-1v1h-1h-1v1l1 1h-2h-1v-1v-2h1v0q0 -1 1 -2h-1v0l-1 1q-1 0 -2 1h-1v1l-1 1h1q1 0 1 1l-2 -1v-1v1v2h-1l-1 -1l1 -2v-1l-1 1l-1 -1v0h1l-1 -2l-1 -1v-1h-1v1v1h-1l1 1h1v1h-1h1h1l1 1v1v1l-1 -1l-1 -1v1h-1q-1 0 -1 1h-1
v1v2l-1 -1v-1v-1l-1 1h-1h1l1 -1v-1v-1l-1 1v1v-2v-1h-1h-1l1 -1h1h-2h-2l1 1l1 1v1h-1l-1 -1v1l-1 2l-1 1l1 1v-1v-1l1 2l1 1l1 -1l1 -1l-1 1v1l1 1l1 1h-1h-2h-2v-1v-1h-1q-1 0 -2 1h-1l1 1l1 -1l1 -1l-1 1v1h1v-1v1l-1 1q-1 0 -1 1h-1h-1h-1l-1 1l-1 -1v-1l-2 1l-1 -1v1
v0q-1 0 -1 -1l-1 -1h1l1 1l-1 -1q0 -1 -1.5 -1h-1.5h-2l-1 1h1h1v1h-1l1 1v1v-1v-1q1 0 1 1h1l-1 1l-2 1v0v1v0q-1 -1 -2 0l-1 1h-2q-1 1 -2 1h1v1h-1h-1h-2h-1v1v1h-1v-1h-1v1h-1v1v1v-1h-1v1h-1h-1l-1 -1v1h-1l-1 1v-1l-1 -1h-1v1h-1v-1v1v1h-1l-2 1l-1 1h-1h-1v-1l-1 1v1
v-1h-1v1h-1q-1 0 -1 -1h-1v1h1h-1q-1 0 -1 1l-1 -1h-1v1h-1l-1 1h-1h-1h-1v-1v1l-1 1l-1 -1h-1v1l1 1l-1 -1h-1l-1 1h-2h-3l-4 1v1h-1l-1 1v-1h-1l-1 1h-1q-1 1 -2.5 1t-3 1t-2.5 1h-2v-1v1h-1l-2 1h-2l-1 1h-1v-1l-2 1l-2 1h-1v0v-1l-1 1l-1 1l-1 -1h-1v1v0h-1v1h-1h-2
q-1 1 -3 1l-2 1l-1 -1q-1 0 -1 -0.5v-0.5h-1l1 1v1h-1h-1l-1 1v0v-1h-1v1h-3q-2 1 -2.5 1t-1.5 -1h-1l-1 1l-2 2h-2h-2h-2v1l-1 1h-3h-3v-1v-1l-1 1l-1 1v-1h1v-1l-1 -1v1v1v1l-1 -1v1h-1h1v0v1h-1v1l-3 1q-3 0 -4 1h-1h-1h-1v1v0h-1h-1v1h-2h-1h-2l-1 1h-1v-1l-1 1l-2 1h-1
h-2t-4 1h-1l1 -1v-1h-1v1h-1h-1v1l-1 -1h-1v1v0.5t-1 0.5l-2 1h-1h-1v1h-2h-2q0 1 -5 1h-1v1h-1v0v1l-3 1q-6 1 -9 1h-1v1h-1h-2q-1 1 -2 1h-1q-3 1 -8 2q-4 2 -12 3h-3l-1 1l-1 1l-4 1h-3l-1 1l-2 1h-1l-1 -1l-1 1v1h-2h-1l-2 1h-2v0l-2 1h-3v0v1h-2l-2 -1v1h-2h-2v1h-1h-1
h-2v1h-1h-1q-2 1 -3 1q-5 2 -7 2q-1 0 -2 1h-2v0h-1v1h-2h-3v1h-1v0l-3 1h-2h-1h-2v1h-2q-1 0 -3.5 1l-2.5 1h-1v1h-1h-2l-4 1t-7.5 2t-4.5 1h-1v1h-1h-2v1h-1h-1l-1 -1l-1 -1v1v1l-1 -1v1q0 1 1 4q2 6 5 17q2 5 2 6v1v0v1l2 7l3 9q1 4 5 16l4 11h3h2l3 -1h4h1l1 -1h1h1
q2 -1 7 -1q3 -1 14 -3l4 -1h1h1q2 -1 3 -1t1.5 -0.5t3.5 -1t7 -1t6.5 -1t3 -1t1.5 -0.5q5 0 5.5 -0.5t2.5 -1t3 -0.5q4 -1 8 -1h1q0 -1 7 -1h1h1q1 -1 2.5 -1t5.5 -1.5t6 -1.5h3l2 -1q1 -1 6 -1q1 0 2.5 -0.5l3 -1t2 -1t2.5 -0.5t3 -1q9 -1 10 -2q2 0 4 -1h2v-1h1h2h2h1v-1
h1h1l1 -1h1h1l2 -1h3t1.5 -0.5t1.5 -0.5q6 0 7 -2q1 0 3 -0.5l6 -1.5t5 -1h1v-1v0h1h2q7 -2 10 -3h2l1 -1l2 -1v1l2 -1q2 0 3.5 -0.5t2.5 -1t1.5 -0.5h1.5l5 -1q4 -1 6 -2h1h1h2l1 -1q2 -1 3 -1q6 -1 7 -2h3h2l1 -1l2 -1q2 0 5.5 -1t6 -1.5t4 -1t2.5 -1t2 -0.5t3 -1
q6 -1 7 -2h1t4 -1h2v-1h1l1 1v-1h1h1l1 -1l2 -1h2h2l1 -1h1h1q2 0 4 -1q0 -1 3 -1h3v-1l3 -1h2l1 -1h1h1h1l1 -1l1 1v-1h-1h2q6 0 6 -2h1h2h-1v-1h1l1 1l1 -1l2 -0.5l6 -1.5t5 -1l2 -1v0l2 -1q2 0 5.5 -1t5.5 -1.5t2.5 -0.5t1.5 -1h1h1v-1l1 1v-1q1 0 4 -1t4 -1.5t1.5 0
t3 -0.5t3 -1.5t1.5 -0.5t3 -1h1h2q1 0 1.5 -0.5l1.5 -1.5h2h1l2 -1q1 0 2 -0.5t4 -1t3.5 -1t6.5 -1.5l2 -1v0l1 -1h3t2 -1l1 -1h2h1.5t1.5 -0.5t3 -0.5q3 -2 8 -3l3 -1h1q0 -1 1 -1q4 0 4 -1h1h1l2 -1l3 -1h-1v0h1l4 -1l4 -2h2h2v0l2 -1q1 0 1.5 -0.5t1.5 -0.5h2v-1h1v1
l2 -2q3 -1 3.5 -1t4.5 -1l4 -1h1h1l1 -1l3 -1t4 -1.5t2 -0.5t3 -1h3h4h3v-1v-1q1 -8 2 -10l1 -1q0 -4 3 -7q1 -1 3 -5t2 -5h1v-1h-1h1l2 -1q1 -1 1 -1.5t1 -1.5l1 -1l1 1v-1v-1h1l1 -1l1 -1l1 -1q2 0 2 -0.5t2 -1.5l2 -1q1 0 2 -1q2 -2 8 -3q3 -1 6 -1q1 -1 3 -1l2 -1v1h5h5
l5 2l5 2l4 2l3 2l3 2q7 5 7 6l1 1q6 7 6 10q1 0 3 6l1 4l1 3q2 10 1 18l-1 3v2l-2 4v2h-1v2v1l-1 2q-1 1 -2.5 3.5t-2 3l-1.5 1.5v1h-1h-1v1l-6 5l-3 3l-4 2q-6 3 -17 4l-3 1l-4 -1h-4l-5 -1l-5 -2l-3 -1q-9 -4 -10 -6l-3 -2l-2 -2v1l1 2v2q-1 0 -1 2v2h1v2v2h-1l1 1v4l1 5
h-1v2v1v1v2v-1h1v2l-1 2v6v5l-1 1l1 1q1 8 -1 15l-1 1l1 1v1v1v1h-1v2v3l-0.5 2t-0.5 2.5v0.5q-1 3 -2 7l-1 2q-2 5 -3 6v0l1 1l-1 2l-1 2h-1v1v1v-1h-1v1v1v1h-1v1v2h-1l1 1l-1 1l-1 1l-0.5 1.5l-0.5 1.5q0 2 -2 4v1h1h-1h-1v1h-1v0l-1 3l-1 4l-1 1l-1 1v2v1h-1v1v1l-1 -1
v1v1v1h-1v-1l-1 1v1q0 2 -0.5 2.5t-1.5 2.5v1h-1l-1 2v2h-1h-1l1 2v1l-1 -1v-1v1v1h-1l-1 1v-1v1q0 1 -1 3v2h-1l-1 1v1l-1 1h-1v1l-1 2h-1l1 1v1l-1 -1l-1 1v1h-1v-1v1v1v-1h-1l-1 2v3l-2 1h-1h1l-1 1h-1h-1h1l-1 1l-1 1l1 1h1h-1h-1v1l-2 2l-3 3v-1h-1v1v1v0v1h-1h-1v1v1
l-1 1l-1 1l-1 -1v1l-1 1l-1 1v0v1v1v-1h-1l-1 1l-1 1v1v1l-1 2v-1v-2v1h-1l-1 1v1l-1 1l-1 1v1h-1l-6 5l-3 3v-1h-1v1q-1 0 -1.5 1t-2.5 3l-1 2h-1h-2h1h-1v1l1 1h-1l-1 1h-1h-2v1h1v1l1 -1h1h-1q0 1 -1 1l-1 1v-1v-1l-1 1l-1 1v1v1h-1h-1v1v1h-1l-1 -1l1 1v1l-1 1h-1v1v1
h-1h-1l-1 1l-1 1l-1 1h-1v1h1h-1h-2l-1 2v1h-1l-1 -1v1v1l-1 1v1h-1l-1 1v-1v-1l-1 2v1l-1 -1l-1 -1l1 1v1h-1h-1l-1 1v1l-1 -1v1q-1 1 -1 2v1h-1l-1 -1l1 1v1q-1 0 -1.5 0.5t-2.5 1.5l-2 3l-1 1h-1h-1v1v1h-1v0l-1 1h-1v1h1h-1h-1l-2 1l-1 1v1l-1 -1v1h-1l-1 1v1h1h-1v1h-1
h-2v1v1l-1 -1h-1v1v1v1h-1l-1 -1l-1 1v1l-1 1l-1 1v-1l-1 1q-1 1 -1.5 1t-1.5 1v1h1v1l-2 -1h-1h-1l-1 1v1v0h-1v-1v-1v2v4l-1 3l1 -1v2v2v1l-1 1q-1 1 -1 2h-1l-2 2q-2 1 -3 2h-1l1 1q0 1 1 3.5t2 5.5l1 3q0 3 4 11v1.5t2 7.5l2 6h1h1h-1v2l1 2v-1h1v1l-1 2h1v1v-1v-1v-1
l1 2v1h-1v1v1h1v1v1h1v1l-1 1h1q0 -1 1 -1v0l-1 1h1l1 1h-1l-1 1h1h1v-1q0 1 -1 1l-1 1l1 1h1l1 1v1h1v-1v-1h1q0 1 -1 2v1h1l-1 1v0l1 1l1 -2l1 -1v1h-1l-1 -1l1 -1l1 -1l-1 1v0q1 0 1 -1v-1l-1 1h-1l1 -1h1h1v1v1h1h1v1h1h1v-1h1l2 -1v-1h-1v0v-1l1 1h1h1v-1l-1 -1v-1h1v1
v0l1 1h1l1 -1v-1h1h2v-1h1h1v-1v-1h1v1l1 -2l2 -1h1v-1h1h2l1 -1l1 -1h1h1v-1v-1h1q1 -1 1.5 -1h1.5q0 -1 4 -3q2 -1 2 -1.5t1 -1.5h1l1 -1h2v-1l1 -1h2v-1v-1h2h1v-1l1 -1l1 -1h1h1q0 -1 3 -3l3 -2v-1l1 -1h2v-1l1 -1h1v-1v-1l1 1l1 -1l2 -1l-1 -1h1l1 -1h2v-1q1 -1 1 -2v0
h1l2 -2q2 -2 3 -2l1 -1l1 -1q1 -1 3.5 -3t3.5 -2.5t4 -3.5l9 -9q1 0 1 -2l1 -1h1l1 -1l1 -1h-1l3 -3q2 -2 2 -2.5v-0.5q2 0 2 -2l1 -1l2 -1v-1t7 -7l2 -2h1v-1l2 -1q1 -2 0 -2l2 -1l1 -1v-1l1 -1h1l1 -2q2 -1 4.5 -3.5t2.5 -3.5l3 -3l2 -2q0 -1 2 -3t2 -2.5t1.5 -1.5t1.5 -2
h1v0l2 -2q1 -2 1 -2.5t1 -1t2 -2l2 -3t1 -2t1.5 -1.5t2 -2t2 -3t1.5 -3q1 -2 7 -8q2 -2 2 -4l1 -1v1h1v-1q1 -1 1 -2v-1l1 -1l2 -1l-1 -1l2 -2q1 -2 2.5 -3.5l1.5 -1.5l1.5 -2t1.5 -3t1 -2l1 -1v-1v-2v-1l1 -1v-1t1.5 -4.5t2.5 -7t2 -6t1.5 -4l0.5 -1.5v-1h1v-1v-2v-1h1v-1
v-1h1v-2v-1h1v-1v-2h1v-1v-2l1 -3q1 0 1 -1v-1h1l1 -1q0 -1 1 -2v-1l-1 -1v-2v-8.5v-5.5q0 -1 1 -8v-2v-5v-5v1l1 1v-2v-5.5t0.5 -5t0.5 -3v-3t0.5 -6t0.5 -10.5v-6h1v-1l-1 -1l1 -3q1 -7 1 -9v-1l2 -3l3 -2l1 -1q0 -2 1 -3l1 -1v1h1v-1l2 -3q3 -3 3 -4l4 -5t5 -5v0v-1l1 -1
h2v-1l1 -2q4 -3 4 -5l1 -1t1 -2l1 -1l1 -1h1v-1l1 -2l3 -3l2 -2v-1h1v-1l1 -1l1 -1l1 -1v-1h1v-1v-1l3 -2q2 -2 3.5 -4.5t2.5 -2.5q0 -2 4 -6q1 -2 1.5 -2.5l0.5 -0.5l3 -3l2 -3v0v-1h1v0v-1h1h1v-1v-1h1v-1q2 -5 4 -5h1v-1v-2l2 -1q1 -2 2 -3q1 -2 5 -7l2 -1l-1 -1h1l1 -1
l1 -2l1 -2l-2.5 -1.5t-4 -2.5t-2.5 -1l-1 -1h-1h-1v-1h-1h-1v-1l-1 -1h-1l-1 1l-2 -1l-1 -1h-1h-1v-1h-2l-2 -1v-1v1h-1v-1h-1h-1h-1q-1 0 -4 -1q-2 0 -3 -1l-1 -1h-1v1v-1l-1 -1h-2h-1h1v-1h-1l-1 1l-1 -1v-1l-1 1v0v-1h-1h-1q0 -1 -1 -1h-1v1h-1v-1v-1h-1v0v-1h-1h-1h-1
l-1 -1l-1 1h-1h-1l-2 -1l1 1h-1l-1 -2h-1l-1 1l-1 -2l-2 -1v1l-1 -1l-1 -1l-1 1h-1h-1v-1l1 -1h-1h-1t-1 -1l-1 -1l-1 1h1v1v0l-1 -1l-1 -1h-1l1 1v1l-1 -1v-1l-2 1h-1l-1 -1v-1l-1 1v0v-1h-1l-2 -1v-1l-1 -1v1l-1 1h-2v-1h-2h-1v-1h-1h-2v-1l-1 -1l-3 -1.5t-2 -0.5v-1
l-1 -1h-1l-1 1l-1 1v-1l1 -1h-1v1l-1 -1l-1 -1h-1l-1 1v-2v-1h-1l-2 1l-1 -1l-1 -1v1h-1l1 -1v-1h-1l-1 -2l-1 -1h-1v1l-1 1h-1v-1v-1q-1 0 -2 -1v-1v1v1h-1l-1 -1v-2h-1v-1v-1h-1l-1 -2v-2v1h-1v-2q0 -1 -1 -3l-1 -3l-1 1v-1v-1l-1 -3l-1 -2h1v-1h-1l-1 -1v-2v-1
q-1 0 -1 -1l-1 -2v-1v-1h-1v-1v-1l-1 -1v-1q0 -1 -1.5 -3.5t-1.5 -4.5l-1 -2v1v-2v-2l-1 -1l-1 -1v-1l-1 -2l-1 -1v-1h-1v-1v-2h-1v-1l-1 -2l-1 -1v-1h-1l-1 -2q-1 -2 -2 -3t-1.5 -2.5t-2.5 -3.5l-2 -2v0l-1 -1q0 -1 -1 -2.5t-3.5 -4.5l-2.5 -3v-1v-1h-1l-1 -1l-1 -1l-1 -2
l-2 -2q-5 -6 -4.5 -6t-1.5 -2t-2 -2.5t-1.5 -2t-1.5 -2.5l-1 -1h-1v-1v-1h-1q-1 -1 -1 -1.5t-1 -1.5q-5 -5 -5 -6.5t-2 -1.5v-1q0 -1 -4 -5q-2 -1 -2 -2q0 -2 -14 -14l-2 -2q-3 -3 -4 -3l-2 -2.5t-2.5 -2.5h-1.5q-4 -4 -5 -4l-1 -1q-6 -6 -7 -6t-3.5 -2l-2.5 -2h-1v-1h-1h-1
q0 -1 -3.5 -2.5l-3.5 -1.5q-4 -5 -18 -9q-1 -1 -1.5 -1t-3.5 -1l-4.5 -1.5t-4 -1t-3 -1t-5.5 -2t-6 -2.5q-2 0 -7 -1q-2 0 -4 -1t-4 -1q-5 -1 -11 -3h-2h-1h-1v-1l-1 1h-1l-1 -1h-1l-2 -1h-1v0l-4 -1l-4 -1h-1v1l-1 -1l-1 -1q-8 -1 -11 -1h-2h-1l-1 1v-1h-1h-5zM410 81v0v0z
M680 83v0v0zM394 86v1v-1v0zM659 195h-1v0h1zM747 198v0v-1v1zM659 200v1h-1h-1v-1l1 -1h1v1zM751 200h-1h1zM659 201v1v-1v0zM659 202v1v-1v0zM754 202v1v-1v0zM658 212h-1v0h1zM659 212v0v0zM658 214h-1v0h1zM801 218v1l-1 -1h1zM651 221v0v0zM647 222h-1v0h1zM642 223v0
v0zM647 223h-1v0h1zM814 224h-1h-1l1 -1h1l1 1h-1zM813 224v0v-1v1zM644 223v0v0zM640 226h-1v0h1zM642 226v0v0zM632 228h-1v-1zM676 227v1v-1v0zM630 228v1v-1v0zM634 228v1l-1 -1h1zM635 229h-1v-1h1v1zM618 230v1v-1v0zM629 230l-1 1v-1h1zM629 232v1v-1v-1v1v0z
M618 232v0v0zM624 233v1h-1v-1h1zM617 234h-1l0.5 -0.5t0.5 0.5zM620 234h-1v-1h1v1zM625 233h-1h1zM615 234v0v-1v1zM624 235h-1v-1zM610 236v0v-1v1zM617 236v0v0zM620 237v0v-1v1zM611 237h-1v0h1zM599 238v1l-1 -1h1zM604 239v0h-1l1 -1v1zM597 239v0v0zM600 240v0v0z
M589 240v0v0zM590 241v1l-1 -1v0l1 1v-1v-1v1h1h-1zM586 242h-1v-1h1v1zM585 244v0v-1v1zM580 245v-1v0h1zM575 245v0l-1 -1q1 0 1 1zM579 245v0v0zM576 245v1v-1v0zM581 245v1v-1v0zM579 247h-1v0h1zM573 247v1l-1 -1h1zM585 247v1v-1v0zM587 247v1v-1v0zM559 248v1v-1v-1
v1v0zM555 249l-1 1v-1h2h-1zM572 249v0h-1h1h1h-1zM560 250v0v-1v1zM570 250h-1v-1zM555 251v0h-1h1v-1v1zM547 251v0v0zM550 251v0v0zM558 251v1l-1 -1h1zM544 252v0v0zM546 252v0v0zM535 253v0v-1v1zM545 253l-1 1v1h1h-1l-1 -1h-1v1v1h-1q-1 -1 -1 -2h1h1l1 -1h1h1z
M535 255h1h-1h-1q0 -1 0.5 -1t0.5 1zM546 254v1l-1 -1h1zM551 254l-1 1v-1h1zM540 255h-1v0h1zM537 255v1v-1v0zM552 255l-1 1v-1h1zM558 256v0v-1v1zM540 256v1v-1v0zM545 256v1l-1 -1h1zM535 258v0v0zM543 258h-1v0h1zM522 259q0 1 -1 1h-1l1 -1h1zM526 259h-1v0h1z
M528 260h-1v-1h1v1zM523 260v0v-1v1zM531 260.5q0 0.5 -1 0.5v0v-1q1 0 1 0.5zM523 261h-1l-1 1l1 -1h1zM525 261l-1 1v-1v0v-1h1h1zM521 262h-1v-1h1v1zM542 262h-1v-1zM526 263v1h-1v-1v-1zM527 263v0v-1v1zM530 263h-1v-1h1v1zM531 264v1v-1v0zM522 267v1l-1 -1h1v0z
M509 268h-1v-1h1v1zM518 268v1v-1v-1v1h1h-1zM517 269v1v-1v-1v1v0zM496 270q0 1 -1 2v1v-2v-1h1zM497 272l1 1h-1v0v-1q-1 0 -1 -0.5t1 -0.5v1zM512 272v0l-1 -1h1v1zM500 275v-1l-1 -1l1 1h1zM498 277v0v-1v1zM481 279h-1h-1v-1v-1l1 1zM485 278h-1h1zM494 278h-1h1z
M479 280h-1v0h1zM483 280v0v0zM477 281v0v0zM475 282v0h-1h1h1h-1zM472 283l-1 1v-1h1zM467 285h-1h1zM470 285v0v0zM438 294v0v0zM692 298v1v-1v0zM687 304h1h-1q-1 0 -1 -1zM348 316l-1 1v-1l1 -1v1zM349 316v0v0zM503 317v1l-1 -1h1zM341 319h-1v0h1zM394 320v0v0z
M556 328v1v-1v0zM507 337v0v0zM345 341v0v-1v1zM556 341v0v-1v1zM573 341v0v-1v1zM474 350v-1v0h1zM237 350h-1l1 -1v1zM522 351h-1l1 -1v1zM508 360v0v-1v1zM779 360h-1h1v0zM503 360v1v-1v0zM495 363v1l-1 -1h1zM491 364v0v0zM284 366v0v-1v1zM480 367h-1v0h1zM425 368h-1
h1zM414 369v1l-1 -1h1zM430 377v0h-1h1v-1v1zM430 378l-1 1v-1h1zM429 381v0v0zM174 383h-1v-1zM408 386h-1h1zM220 391h-1h1zM370 393v0v0zM320 396h-1v-1h1v1zM350 397v0v0zM350 399v0v0zM346 402v0h-1v-1v0zM343 402h-1l1 -1v1zM344 403h-1l1 -1v1zM304 404v1v-1v0z
M709 405h-1v1v-1v0h1zM329 406l-1 1v-1h1zM206 408h-1v0h1zM306 411v0v0zM201 416v1v-1v0zM262 421v1v-1v0zM226 428v0v-1v1zM674 491v0v-1v1zM666 504l-1 1v-1h1zM664 505h-1v0h1zM659 511v0v0zM622 548v1v-1v0zM620 551v0v0zM619 552h-1l1 -1v1zM612 557h-1v-1h1v1z
M606 564v1v-1v0zM603 567h-1v-1h1v1zM601 569h-1l1 -1v1zM591 576v0v0zM687 589h-1l1 -1v1zM573 594h-1v-1v-1l1 1v1zM570 593v0v0zM567 600h-1v0h1zM563 600v1v-1v0zM673 602v0v0zM548 610v1l-1 -1h1zM591 614h-1h1zM579 616l-1 1v-1h1zM574 618v0v0zM575 620h-1v-1h1v1z
M577 619l-1 1v-1h1zM575 621v0v0zM556 623v0v-1v1zM652 624v0v0zM610 626v1v-1v0zM547 627v0v0zM546 628h-1h1zM631 628h-1v0h1zM550 628h-1v0h1zM544 629v0v-1v1zM543 629v1l-1 -1h1v0zM550 630h-1v0h1zM542 631v1h-1v-1h1zM617 631v0v0zM606 633h-1v0h1zM541 634l-1 1v-1
h1zM569 635h-1v0h1zM592 636v0v0zM597 637v0v0zM561 637h-1v0h1zM588 637v0v0zM636 637v0v0zM598 638h-1l1 -1v1zM635 638v0v0zM562 639v0v0zM614 639h-1v0h1zM615 639v0v0zM562 640v0v0zM565 641v0v0zM561 642v0v-1v1zM545 643v1l-1 -1v-1zM603 642l-1 1v-1h1zM570 643
q0 2 -1 2v-1v-1h1zM584 643h-1h1zM556 643v1v-1v0zM574 644v1v-1v0zM546 645v1l-1 -1h1zM567 646v0v0zM596 646h-1v0h1zM572 646v0v0zM626 646v0v0zM584 647v0v-1v1zM621 647h-1l-1 1l1 -1h1zM571 650v0v-1v1zM581 650v1v-1v-1v1zM585 651v1v-1v-1v1zM606 650v1v-1v0z
M620 650v1v-1v0zM592 651v0v0zM603 651h-1v0h1zM555 652v0h-1h1v-1v1zM612 652v0v-1h1zM617 652h-1h1zM554 652v1l-1 -1h1zM572 653v0v0zM581 653h-1h1zM602 653h-1h1zM555 654v0v0zM558 654v0v0zM570 654h-1v0h1zM604 654v1v-1v0zM553 655h-1v0h1zM576 655v0v0zM614 655v0
v0zM575 655h-1h1zM613 655v1l-1 -1h1v0zM559 656v1v-1v-1v1v0zM569 656v1v-1v-1v1h1h-1zM556 656h-1h1zM607 656h-1h1zM609 657h-1h1zM611 657h-1v0h1zM558 658h-1v0h1zM561 658h-1v0h1zM573 659h-1v-1h1v1zM548 659v0v0zM555 659h-1h1zM585 659h-1v0h1zM553 659v1v-1v0z
M565 659v1l-1 -1h1zM557 660h-1h1zM562 660v1v-1v0zM567 661v1v-1h-1h1zM581 661v1l-1 -1h1zM579 662v0v0zM596 662h-1v0h1zM550 663h-1v0q1 -1 1 0zM594 662v1v-1v0zM605 662v1v-1v0zM562 663h-1v0h1zM563 664h-1v-1h1v0v1zM554 664h-1h1zM599 664v0v0zM561 664v0v0z
M596 664v0v0zM599 664v1l-1 1v1h-1h-1l1 -1v-1v-1h1h1zM598 665v0v-1v1zM601 664v1l-1 -1h1v0zM553 665v0v-1v1zM557 665v0h-1l1 -1v1zM564 665v1v-1v-1v1h1h-1zM581 665h-1l1 -1v1zM566 666v0v-1v1zM595 666v0v-1v1zM582 667q-1 0 -1 -0.5t0.5 -0.5t0.5 1zM553 667v0v0z
M556 668v0v-1v1zM561 668h-1v-1zM580 668h-1h1zM587 668h-1v0h1zM563 668v1v-1v0zM581 669h-1h1zM552 669v1v-1v0zM559 670l-1 1v-0.5t1 -0.5v0zM553 670v1v-1v0zM588 670v1h-1v-1h1zM581 671h-1h1zM560 671v1v-1v0zM580 672v1v-1v0zM588 672v1v-1v0zM562 674h-1l1 -1v-1v1
h1zM564 673v0h-1h1h1h-1zM569 673v1v-1v-1v1v0zM578 673v0h-1h1zM583 673h-1h1zM560 674h-1v0h1zM582 676q0 1 -1 1h-1v-1l-1 -1v1v-1v0h2zM583 675h-1l1 -1v1zM570 676h-1v-1zM562 676h-1v0h1zM561 677h-1v-1zM574 677v0v-1v1zM557 677v1v-1v0zM573 677v1v-1v0zM556 678h-1
h1zM564 678v0v0zM566 678v0v0zM571 678v1v-1h-1h1v0zM568 679v1h-1l1 -1v-1h1v1h-1zM565 679v0v0zM577 679l-1 1v-1h1zM567 682v0v-1v1zM573 682h-1l1 -1v1zM560 683h-1v-1zM566 682v1l-1 -1h1v0zM565 686v0v-1v1zM412 82h1h-1v0zM732 162v0v-1h-1zM746 189h1h-1zM749 197h1
v0h-1zM757 202h1v-1h-1v1zM653 203h1v0h-1zM655 204v1l1 -1h-1zM656 205h1h-1zM654 209v1l1 -1h-1zM781 212v0v0zM647 213h1h-1zM647 217v0v0zM643 218h1v0h-1zM646 219v1v-1v-1v1zM644 219h1v0h-1zM811 221l1 1v-1h-1zM631 223h1v-1h-1v1zM623 224v0v-1v1zM629 224v1v-1v0
v-1v1zM630 226v0v-1v1zM611 226h1h-1zM623 226v0v0zM618 227v0v-1v1zM625 227v1v-1v0zM620 228v1h1v-1h-1zM609 229v0v0zM600 230v1v-1v0zM609 231v1v-1v0v-1v1zM611 231v0v0zM621 231v0v0zM606 232h1h-1v0zM845 233h1v-1zM597 234h1v-1zM599 234v1h1v-1h-1zM595 235v1l1 -1
h-1v0zM598 235l-1 1h1v0q1 0 0 -1v0zM579 236h1v-1zM591 236v0v-1h-1zM593 237l-1 1h1h1v-1l1 1v-1h-1v-1h-1v1zM858 237v1v-1v0zM587 238v1l1 -1h-1zM590 239q1 0 1 -0.5t-0.5 -0.5t-0.5 1zM576 240h1v-1h-1v1zM570 240v1v-1h1h-1zM578 240v1l1 -1h-1v0zM582 241h1v-1z
M571 241v0v0zM579 241v0v0zM559 242h1l-1 -1v1zM563 242v0v-1v1zM569 242v0v-1v1zM569 243l-1 1h1l1 -1v1l-1 1h1v-1v-1l-1 -1v1zM544 243h1v0h-1zM542 244h1l-1 -1v1zM559 244v1v-1v0zM563 244h1v0h-1zM557 245h1l-1 -1v1zM556 245h1h-1v0zM553 246v1v-1h1h-1v0zM555 246v1
l1 -1v0h-1zM544 247v1v-1v0zM545 247v1v-1v0zM550 248h1v0h-1zM551 249h1h-1zM533 250v0v0zM535 250q0 1 0.5 1t0.5 -1v0h-1zM508 251v0v-1v1zM519 251h1v0h-1zM524 252h1h-1zM506 253h1h-1zM526 254v0v-1v1zM524 254h1h-1zM531 254v0v0zM519 255v0v0zM496 255v1l1 -1h-1z
M524 255v1v-1v0zM516 256v0v0zM513 258v0v0zM503 259v0l1 -1h-1v1zM506 258.5q0 0.5 1 0.5q0 -1 -0.5 -1t-0.5 0.5zM509 259h1v0h-1zM514 259l-1 1h1h1v-1h-1zM506 260v0v0zM509 260v0v0zM503 261v1q1 0 1 -1h-1zM506 261h-1v1v1v1h1v-1v-1h1l2 -1h-1h-2zM513 262l-1 1h1
l2 -2q-1 0 -2 1zM517 262q1 0 1 -0.5t-0.5 -0.5t-0.5 1zM515 262h1h-1zM488 263h1l-1 -1v1zM510 263h1v-1zM492 263v1h1v-1h-1zM516 263v1l-1 -1h-2l2 1h1h1h1l1 -1h-1h-1v1l-1 -1v0zM483 264h1v0v-1zM487 263v1l1 -1h-1zM494 264h1l-1 -1v1zM500 264l-2 1l2 -1h1l-1 1h-1v1
h1l1 -1v-1v-1zM512 263v1v-1v0zM508 265v1v-1h1l-1 -1v-1v2zM489 265v0h1l-1 -1v1zM506 265v1h1l-1 -1v0zM515 265v1v-1v0zM501 267h-1h1v-1v1zM516 267v0v-1v1zM499 267v0v0zM494 267v0v0zM500 267v0v0zM500 268v1v-1h-1v1v1h1l1 -1v-2h-1v1zM513 268h1l-1 -1v1zM512 268v0
v0zM478 269h1l-1 -1v1zM455 271v0v-1v1zM462 271v0v0zM491 271v1v-1v0zM490 272v1v-1v0zM491 273v0v0zM493 273h1v0h-1zM465 273v1v-1v0zM467 275h1v0h-1zM486 275h1v0h-1zM462 275v1v-1v0zM462 277v0v-1v1zM475 277v0v-1v1zM438 277v0v0zM459 277h1v0h-1zM463 278v0v-1v1z
M456 279v0v0zM457 280l1 -1zM460 280h1v-1h-1v1zM455 282v0q1 0 1 -1h-1v1zM456 282v1v-1h1h-1v0zM415 282l1 1v-1h-1zM406 286v0v0zM426 286v0v0zM432 286h1v0h-1zM455 286h1h-1zM434 287h1h-1zM447 287v0v0zM452 287v0v0zM433 288v0v-1v1zM437 288v0l1 -1h-1h-1zM451 288
v0v-1v1zM434 288v0v0zM436 289v1v-1v0zM422 295v0v-1v1zM361 296q0 1 1 1h1v-1h-1h-1zM360 298v0v0zM338 304v0v0zM325 315h1v-1zM150 366h1v0v-1zM708 395h1l-1 -1v1zM661 506v0v0zM648 520h1h-1zM646 523v0v0zM633 536q1 0 1 -0.5t-0.5 -0.5t-0.5 1zM625 544h1v-1h-1v1z
M619 547v1v-1v0zM615 552v0v-1v1zM604 561h1h-1zM605 562h1l1 -1h-1h-1v1zM603 563h1h-1zM604 564v0v0zM592 574v0v0zM589 575h1v0h-1zM575 588h-1h1l1 -1q-1 0 -1 1zM565 595h1v-1q-1 -1 -1 1zM561 597v0v0zM563 597v0v0zM560 599q0 1 0.5 1t0.5 -0.5t-1 -0.5zM557 600
l-1 1l1 -1v0zM558 601v0v0zM557 601v1v-1v0zM555 604v0v0zM550 606v0v0zM561 686v1l1 -1h-1zM556 688v0v0zM561 689l-1 1l1 -1h1.5t-0.5 -1zM556 690h1v-1h-1v1zM557 690v1h1q0 -2 -1 -1z" />
  </g>

</svg>
