<?xml version="1.0" standalone="no"?>
<!DOCTYPE svg PUBLIC "-//W3C//DTD SVG 1.1//EN" "http://www.w3.org/Graphics/SVG/1.1/DTD/svg11.dtd" >
<svg viewBox="0 -200 1000 1000">
  <g transform="matrix(1 0 0 -1 0 800)">
   <path fill="currentColor"
d="M459 -194l-1 1v3l-1 1q0 -2 -1 -2t-2.5 3.5t-1.5 4.5q0 2 -37 93l-10 25q-6 14 -6.5 15.5t-3.5 8t-4 7.5v1l-9 1q-8 1 -23 1.5t-34 2.5q-69 5 -123 7q-24 1 -46 3q-24 2 -27 0h-2l1 3v3l-2 -1h-3v2q1 1 1.5 32t2 50t1.5 26v6h2q6 -1 52 -5l20 -2l22 -1h21l24 1l24 1
l13 -1q45 -3 46 -2q2 0 -5 22l-13 38l-9 29l-7 24l-13 38l-43 139q-2 6 -3 8l-2 2l1 1l1 2l-4 12l-4 12h-2q-1 0 -14 2q-15 2 -27 4q-4 1 -8 1.5t-4.5 1t0.5 2.5t1.5 2t1.5 1q1 4 3 50v14l-1 2v1l1 2l1 3v6v8v1h3q2 0 11 -2q11 -1 27 -3l21 -2l19 -2l9 -1l6 -9l16 -20l6 -7
l18 -23q25 -32 38 -51l6 -8l7 -9l17 -23l0.5 46t1 55t1.5 36v26v1l-1 1l1 4q1 8 2 62q1 18 1 34q2 46 3 55q0 7 1 18q1 29 2 54q0 4 0.5 5t61 0t95.5 -2h8l2 -1q3 -2 1 -4l-1 -2l-1 -17q-1 -17 -2 -45q-1 -27 -1 -40l-3 -65q-2 -53 -4 -135q0 -26 -1 -41.5t-2 -35
t-1.5 -28.5t0 -9t3.5 3l7 9q17 18 46 54l37 51l6 8l8 11l7 10q3 4 4 5l2 2h23l44 1h19v-2q0 -3 -1 -41l-1 -38l1 -4l1 -4l-1 -3v-3.5t-59 -0.5h-5l-2 -4q-2 -4 -9 -22l-9 -22l-10 -23l-12 -29l-9 -22l-13 -30l-13 -30q-5 -11 -6 -14q-21 -46 -44 -110l-3 -7h5q14 -1 32 -2
q8 -1 13 -1q13 -1 61 -3q27 -1 92 -3h21l2 -1l2 -2l1 -2l-1 -2l-1 -3l-1 -42v-42l-1 -7q-1 -8 -1 -18v-10h-3q-4 0 -9 1q-10 2 -46 3l-48 3q-24 1 -42 1.5t-37 1.5q-36 2 -69 3l-17 1v-2q0 -2 -15 -29l-7 -14l-17 -32q-3 -5 -17 -34t-14 -29.5t-1.5 -2.5t-2.5 -5v-2zM624 69
h-2v-1h1t1 1zM409 357l-1 1l1 -2q1 0 0 1zM497 630q7 2 16 6l6 3l5 5q13 12 17 29l2 4v9v8l-2 5q-3 13 -10 21l-4 5l-6 4q-10 6 -19 8l-5 1h-8q-12 -1 -23 -6q-20 -10 -29 -35l-1 -5l-1 -7v-8l1 -5q1 -11 8 -20q8 -12 23 -18.5t30 -3.5z" />
  </g>

</svg>
