<?xml version="1.0" standalone="no"?>
<!DOCTYPE svg PUBLIC "-//W3C//DTD SVG 1.1//EN" "http://www.w3.org/Graphics/SVG/1.1/DTD/svg11.dtd" >
<svg viewBox="0 -200 1000 1000">
  <g transform="matrix(1 0 0 -1 0 800)">
   <path fill="currentColor"
d="M324 849q-18 0 -16.5 -0.5t21.5 -1.5v-2q-19 0 -18 -1t18 -1l13 -1h-13q-10 0 -15 -1q-7 -1 1 -1q5 -1 13 -1l1 -1q-17 -1 -18 -2h2.5t7.5 -0.5t11 -0.5l-1 -1l-26 -1q3 -1 21 -1q20 0 20 -0.5t-16 -0.5l-23 -2q2 0 16 -1h14q-1 -1 -20 -2l-11 -1h13l18 -2q-4 0 -15 -1
l-17 -1h9q10 0 19 -1q7 -1 -2 -1h-10l-16 -1q3 -1 25 -1l-2 -2q-25 0 -23 -0.5t26 -1.5l-2 -1l-20 -2q3 0 21 -1h15q0 -1 -2 -1h-6h-9q-17 0 -17 -1t18 -2h1q-18 -1 -18.5 -2t14.5 -1h7.5h5.5t1 0q0 -1 -17.5 -1.5t-17.5 -1.5h2t6.5 -0.5t9.5 -0.5h13q-1 0 -6 -1
q-10 -1 -22 -1q-9 0 0 -1h11l17 -1q-2 0 -15 -1v0l-14 -1q1 -1 8 -1q14 0 14 -1t-14 -1l-9 -1q1 0 15 -1v0l14 -1q-1 0 -16 -1l-14 -1h3q12 0 20 -1t-1 -1h-8l-13 -1q2 -1 20 -2l12 -1h-15h-9t-6.5 -0.5l-2.5 -0.5q1 -1 23 -1q5 0 9 -0.5t6 -0.5h2l-18.5 -0.5t-21.5 -1.5
l17 -1l20 -1h-13q-14 0 -22 -1q-5 -1 1 -1q4 0 15 -1h18l-14 -1l-25 -2h15h12t8.5 -0.5t2.5 -0.5l-19 -1t-20 -1l2 -0.5t6 -0.5h8l14 -1q-3 0 -16 -1l1 -1l12 -2q-4 -1 -17 -1h-9l12 -1l18 -2h-15l-13 -1q2 0 23 -2l11 -1h-20v0v-2v0l2 -2h-19q1 -1 18 -2l1 -1q-10 0 -14 -1
q-6 0 1 -1q5 -1 15 -1v-1q-20 0 -20.5 -1t19.5 -1v-2l-22 -1q2 -1 14 -1l14 -1h-3q-7 -1 -21.5 -1t-14.5 -1h2h6.5h9.5q18 0 17 -1t-18 -2v-1q18 0 17 -1t-21 -1q-6 0 -10.5 -0.5t-7 -0.5h-2.5l18 -1l19 -1q-3 -1 -21 -1l1 -1q25 -1 25 -2q1 0 -2.5 0t-9 -0.5t-11.5 -0.5
l-1 -1q17 -1 17 -1.5t-17 -0.5l-19 -1q2 -1 23 -2h14q-1 0 -18 -1q-23 0 -26 -1l22 -1h13t9.5 -0.5l3.5 -0.5l-26.5 -1l-26.5 -1q-1 0 3 -0.5t10 -0.5h13.5h13.5h9.5h3.5q0 -1 -19.5 -1t-29.5 -1q-8 -1 2 -1h14l1 -2q-26 -1 -27 -1.5t20 -0.5h10h7.5h2.5q0 -1 -21 -2t-22 -1
h2t5 -0.5t7 -0.5q15 0 15 -0.5t-4 -0.5t-19 -1l-11 -1q1 0 15 -1v0q11 -1 13 -1l-16 -1v0h-15q2 -1 12 -1v0l12 -2h-29v0l-26 -1h24q33 -1 34 -2l-4.5 -0.5t-12 -0.5h-17h-17h-12h-4.5q1 -1 31.5 -1.5t30.5 -1.5h-4h-11h-16q-31 0 -31 -1.5t29 -1.5h19q-3 0 -30 -1
q-41 -1 -42 -2q-1 0 4 0h14h20l30 -1q-2 0 -25 -1l-42 -1q4 -1 31 -1h21h15.5h5.5q0 -1 -51 -2t-52 -1h5t13 -0.5t18 -0.5h18.5h13h4.5q-1 -1 -37 -2l-27 -1h18h13.5t10 -0.5l3.5 -0.5q-2 -1 -53 -1q-6 0 -11 -0.5t-7.5 -0.5h-2.5q0 -1 22 -1l31 -2h-22l-25 -1h8
q17 -1 18 -2l-2.5 -0.5t-6.5 -0.5h-8q-18 0 -17 -0.5t14 -1.5v-1q-11 0 -14 -1l11 -2h10q-1 -1 -17 -1l-21 -2h11l1 -1q-16 -1 -15 -2t10 -1v-1q-7 0 -8.5 -4t-1.5 -26t2 -25.5t15 -3.5v-1q-17 0 -17 -1.5t23 -1.5h11.5h8.5t2 0q0 -1 -22 -1.5t-23 -1.5h3.5h10.5h14l22 -1
q-7 -1 -28 -1.5t-22 -0.5l4 -0.5t10.5 -0.5h14.5q29 0 28 -1t-28 -1h-14.5t-10 -0.5l-3.5 -0.5q1 0 42.5 -0.5t42.5 -1.5l-4.5 -0.5t-13 -0.5h-19.5h-18.5h-13.5h-5q1 -1 52 -1t51 -1t-37 -1q-10 0 -18 -0.5t-13 -0.5h-5q1 -1 51.5 -1t51 -1t-40.5 -1l-31 -1h39l46 -2
q-5 -1 -16 -1h-13q3 -1 38 -2l1 -1l-20 -1h3q10 -1 31.5 -1.5t22.5 -0.5l-3.5 -0.5t-9.5 -0.5h-13h-13h-9h-3q1 -1 36 -2l27 -1h-18l-19 -2q6 -1 26 -1h10.5h7t1.5 0q0 -1 -17 -1l-19 -2h14h9t6.5 -0.5l2.5 -0.5q-1 0 -19 -1t-18 -2h2.5h8h11.5l17 -1h-11l-21 -2h13
q5 0 8.5 -0.5t6 -0.5h2.5q-1 -1 -17 -2l-12 -1h9l16 -2q-3 0 -13 -1h-13l9 -1q14 -1 20 -1l-13 -1l1 -2v0l-1 -2h-16l21 -2l-1 -1q-19 0 -18.5 -1t22.5 -2l2 -1h-17q-9 -1 1 -2q5 -1 15 -1h13q5 0 -1 0q-3 0 -15 -1q-23 0 -24 -1t19 -1l14 -1h-11l-20 -2l15 -1v-1v0v-2h9.5
t7 -0.5l2.5 -0.5q0 -1 -23.5 -1.5l-23.5 -0.5l3 -0.5t8.5 -0.5h12h12h9t2.5 0q0 -1 -20 -1.5t-20 -1.5h2h6h9q18 0 18 -1.5t-19 -1.5h-14q1 -1 11 -1q16 -1 23 -0.5t7 -0.5t-2.5 -1h-20.5l-14 -1l14 -1l14 -2h-9q-13 0 -12.5 -1t12 -1.5t12.5 -0.5h-1.5t-5 -0.5t-6.5 -0.5
q-14 0 -13 -1t9 -1t9.5 0.5t3 -0.5t-0.5 -0.5t-2.5 0t-8.5 -1.5l-2 -2h6q-2 -1 -12 -2l-1 -1l11 -1q-2 -1 -2 -3t3 1h2q-2 -3 -13 -3l-1 -1l9 -2q-2 -1 -11 -1l-1 -1q9 0 9 -1t-9 -2v0l7 -2q-1 -1 -3 -1l-1 -1q1 -1 -1 -4t-3 -3q1 -2 -1 -3.5t-2 -2.5t-1.5 -1t-2.5 -1h1
q1 1 1 -1l-4 -3l-1 -1q2 1 1.5 -1.5t-3.5 -12.5l-3 -12v-4t-3 -2.5t0 -0.5q2 0 2.5 -1.5t-1.5 -11.5t0 -17t2.5 -9t4 -14t3 -13t0.5 -1t0.5 -2t0.5 -2t1.5 -2.5t1.5 -4.5t-2 -3h1q1 -1 2 -1q2 -1 0 -2h-3l-1 -1q6 -1 5 -2l-2 -1l1 -1q4 0 4 -6v-1.5t1 -0.5t1.5 -1t-7.5 -2
l1 -1h7q3 -1 -1 -2h-6l-1 -1l9 -2q-2 0 -7 -1v-1q9 0 10 -1q0 -1 -5 -2h1l4 -2q-2 -1 -9 -1l-1 -1q13 0 13 -2q0 -1 -9 -0.5t-8.5 -0.5t9.5 -1v-2q-10 0 -9.5 -0.5t9.5 -1t11 -1.5l-5 -1q-7 0 -7 -1t3 -1l8 -1q0 -1 -9.5 -1.5t-10.5 -0.5l2 -0.5t5 -0.5h6.5h6.5h5t1 0
q0 -1 -12 -1.5t-12.5 -1t11.5 -0.5t11 -1t-13 -2l1 -1q13 0 13 -1t-17.5 -1.5l-17.5 -0.5q-1 0 1.5 0t6.5 -0.5t10 -0.5q18 0 20 -1t-15 -1l1 -1l18 -2h-17q-6 0 -10.5 -0.5t-7 -0.5t-1.5 0q0 -1 19.5 -1.5t20.5 -1.5h-2.5h-7.5h-10l-16 -1h10l20 -2q-1 -1 -13 -1l-14 -1h2
q7 -1 20 -1t12.5 -0.5t-17 -1t-16.5 -1.5t18 -1l1 -1q-20 -1 -20 -1.5t16 -0.5l-2 -2v0l1 -2v0v-2v0v-2h16l-22 -2l1 -1l13 -2h-20q-4 -1 -8 -1h-6.5t-1.5 0q0 -1 18 -1l20 -2h-13l-14 -1q1 0 11 -1l18 -1q-1 -1 -13 -1q-17 0 -16 -0.5t20 -1.5l12 -1h-15q-21 -1 -19.5 -1.5
t19.5 -1.5q15 0 15 -0.5t-10 -0.5q-7 0 -10.5 -0.5l-3.5 -0.5q0 -1 14 -2h10q-1 0 -15 -1q-18 -1 -19.5 -1.5t20.5 -0.5l1 -1q-20 -1 -21 -2h2.5t7 -0.5t10 -0.5h9.5h6.5h2.5q0 -1 -19.5 -1.5t-19.5 -1.5h2h6h8l12 -1h-2q-6 -1 -19 -1q-13 -1 -11.5 -1.5t17.5 -0.5
q17 0 17.5 -1t-16.5 -1l1 -2l18 -1l-2.5 -0.5t-8 -0.5h-11.5v-1q23 -1 24 -1.5t-18 -0.5l-15 -1l15 -1q13 -1 15 -1l-12 -1l-13 -1q1 -1 23 -1v-1l-22 -2q3 -1 15 -1q18 0 19 -1h-2h-5h-7l-20 -2q3 0 14 -1l-1 -1v0l-16 -2h22t21 -0.5t-17 -1.5l-26 -1q2 -1 21 -1
q20 0 20 -0.5t-20 -1.5l-21 -1h13q18 0 17.5 -1t-17.5 -2l-1 -1l12 -2q-3 0 -14 -1v-1q14 0 20 -1l-14 -1v-2v0v-1q-6 0 -11 -0.5t-7.5 -0.5h-2.5q1 -1 20.5 -1.5t19.5 -1.5q1 0 -1.5 0h-7h-10.5q-14 0 -14 -1t20 -1l13 -1q1 0 -1 -0.5t-5 -0.5h-7q-23 0 -25 -2h2.5h7h9.5
l1 -1q-19 -1 -19 -2q-1 0 1.5 -0.5t7 -0.5h10h10h7t1.5 0q0 -1 -21 -1.5t-21 -1.5q-1 0 2 0t8 -0.5t10 -0.5h20q-2 -1 -23 -2q-16 0 -16 -0.5t12 -0.5q19 0 19 -1t-19 -1l2 -2l24 -1q-2 -1 -23 -1l-19 -1h13q20 -1 21 -2t-14 -1h-11q2 0 16 -1v0v-2l-15 -1h2q8 -1 20.5 -1.5
l12.5 -0.5q1 0 -2 -0.5t-7.5 -0.5h-9.5q-20 0 -19.5 -1t17.5 -1v-1q-11 0 -14 -1l17 -2l14 -1h-8l-23 -2q4 0 18 -1l1 -1q-17 -1 -19 -1l16 -1q15 0 15 -0.5t-15 -1.5l-16 -1h10q15 -1 14.5 -1.5t-19.5 -1.5l1 -1l16 -2q-3 0 -16 -1v-1q15 -1 16 -1.5t-15 -0.5v-2l20 -1
q-2 -1 -15 -1l1 -2v0l16 -1h-13l-14 -2q3 -1 20 -1h6h4.5h1.5q0 -1 -16 -1q-19 0 -17 -1q1 -1 15 -1q5 0 9.5 -0.5t6.5 -0.5h2q0 -1 -16.5 -1t-20.5 -1l18 -1h10h8t2 0q0 -1 -21 -2l-21 -1q-1 0 2 -0.5t8 -0.5h10q17 0 17.5 -0.5t-22.5 -1.5l2 -1l14 -2h-23q-4 -1 -8 -1h-6
h-2q1 -1 19 -1l21 -1q-4 -1 -18 -1h-12.5t-8.5 -0.5l-3 -0.5h21l23 -2q-3 -1 -15 -1h-13q2 -1 10 -1q16 -1 17 -2h-13q-5 0 -9 -0.5t-6 -0.5h-2q1 -1 21 -2v-1q-11 0 -15 -1l18 -1q17 -1 18 -1h-2.5t-7.5 -0.5t-11 -0.5l-17 -1q2 -1 19 -1q16 0 16 -1q1 0 -1.5 0h-6.5h-9
q-18 0 -20 -1l15 -2h8h6.5t1.5 0l-16 -1t-16.5 -1.5t14.5 -0.5h7.5t5.5 -0.5l2 -0.5q-1 0 -17.5 -1t-17.5 -1l2.5 -0.5t6.5 -0.5h9q17 0 16.5 -0.5t-19.5 -1.5l-2 -1l14 -2q-3 -1 -14 -1h-8q-3 0 1 0q2 -1 10 -1q15 -1 16 -1.5t-14 -0.5q-4 0 -7 -0.5t-5 -0.5h-2l14.5 -1
t15.5 -1q0 -1 -2 -1h-5h-7q-26 0 2 -2l2 -1q-12 -1 -11 -1.5t13 -1.5l10 -1h-10q-12 0 -13 -1.5t16 -1.5h7.5h6t1.5 0q0 -1 -16 -1q-20 0 -19 -1t14 -1v-2q-16 0 -17 -1l2.5 -0.5t6 -0.5h8.5h8.5h6h2.5q-1 -1 -22.5 -1.5t-21.5 -1.5q-1 0 2.5 0t9 -0.5t12.5 -0.5h20
q-2 -1 -26 -2l-16 -1h13t15 -1l-18 -1l-12 -1l16 -1q21 0 21.5 -1t-16.5 -1q-13 0 -13 -0.5t13 -0.5q17 -1 18 -2h-2t-6 -0.5t-8.5 -0.5h-8h-5.5h-2q0 -1 20 -1.5t20 -1.5h-2.5h-7h-10.5h-10.5t-7 -0.5l-2.5 -0.5q1 -1 22 -2l1 -1q-21 0 -20.5 -1t19.5 -1l-1 -1
q-18 0 -18 -1.5t17 -1.5h7.5h6t1.5 0q0 -1 -18 -1.5t-18 -1.5q-1 0 1 0t5.5 -0.5t7.5 -0.5h11q-2 -1 -17 -2h-10l13 -1q18 0 17 -1t-20 -1q-8 -1 -11 -1q-5 0 1 0h13q6 0 10.5 -0.5t7.5 -0.5h3q-1 -1 -17 -2q-12 -1 -13 -1h9q12 0 12 -1.5t-12 -1.5h-9l13 -1q16 -1 17 -2h-3
h-7.5h-10.5l-1 -1q21 -1 21.5 -2t-15.5 -1l-12 -1q3 0 17 -1l-1 -1q-15 0 -16 -1q-2 -2 20 -2v-1q-20 0 -20 -1t20 -2l-2 -1q-21 0 -22 -1l2.5 -0.5t7.5 -0.5h11h11h8t2 0q0 -1 -26 -2l-26 -1l3 -0.5t8.5 -0.5h12.5h19l-12 -1l-22 -2h15h9.5t7 -0.5l2.5 -0.5q-1 -1 -21 -2
h-15l12 -1q10 0 14.5 -0.5t-0.5 -1.5h-11v-1q14 -1 14.5 -2t-15.5 -1l-12 -1q2 0 22 -1l12 -1h-16q-17 -1 -16.5 -1.5t23.5 -1.5h20q0 -1 -3 -1h-8h-11q-19 0 -18 -1t16 -1l11 -1q-2 -1 -13 -1q-14 0 -14 -1t17 -1h13l-16 -1q-21 -1 -22 -2h3t8 -0.5t11 -0.5h17q-1 0 -15 -1
q-16 -2 -15.5 -2h11.5q16 0 15.5 -1t-21.5 -2l1 -1h10.5h7.5t2 -1l-25 -1q-17 -1 -18 -1h15q20 0 20 -1.5t-20 -1.5h-15l18 -1q25 -1 25 -2q1 0 -2 0h-7.5h-10.5t-11 -0.5t-7.5 -0.5h-2.5l15 -1l20 -1q-2 -1 -11 -1l-12 -1q2 0 18 -1l-2 -1q-17 -1 -16 -1.5t21 -1.5v-1
q-21 0 -22.5 -1.5t17.5 -1.5h10.5h7h2.5q-1 0 -22.5 -1t-21.5 -2q-1 0 2.5 0h9h12.5l19 -1q-1 0 -14 -1l-25 -1q3 -1 15 -1h18q-1 -1 -15 -2l-17 -1h12q18 0 17 -1t-18 -2l-1 -1q16 0 16 -1t-16 -1q-4 0 -8 -0.5t-6 -0.5t-1 0q0 -1 13 -1l17 -1q-2 -1 -10 -1l-11 -1
q1 0 17 -1l11 -1q-2 0 -18 -1h-16q4 -1 26 -2q11 0 13 -1h-16l-18 -1q3 -1 18 -1q11 -1 11.5 -1.5t-15.5 -0.5q-10 0 -13 -1l16 -1l10 -1h-14q-19 -1 -20 -2l2.5 -0.5t7 -0.5h10h10h7h2.5q0 -1 -19.5 -1.5t-19.5 -1.5h2h5.5t7.5 -1l13 -1q-5 -1 -21 -1h-19q0 -1 2.5 -1h7.5
h11h11t8 -0.5t2 -0.5q-1 -1 -15 -1l-11 -1q1 0 13 -1l12 -1h-1q-1 0 33 0t93.5 -0.5t129.5 -0.5q261 1 262.5 2.5t-0.5 1.5t0 1.5t-0.5 1.5t0 1.5t0.5 3t0 1.5v2q-3 2 0 2t0 1.5t0 2t0 2.5v1q5 0 0 2q-2 0 -4 1v0q5 1 5 2t-2 1l1 2q3 2 0.5 2t0 1.5t0 1.5t-0.5 2t0 2t0 1.5
t0 1.5t0 2t0 3t0.5 1t0 1.5t0 2.5t-0.5 2t0 1.5t0.5 2t-1 2t0 1.5t1 2.5t0 1.5t0 2t0 2t-0.5 1.5t0 1.5t0 2t0.5 2.5t0 1.5t0 2t0 2t0 1.5t0 1.5t0 2.5t0.5 1.5l-1 2l-1 2q2 0 1.5 3t0.5 4.5t-1 1.5t0 1.5t0.5 2.5t0 2t0 2t0 2t0 1.5t0 1.5t-0.5 2.5t0 1.5t0 2t0.5 2t0 1.5
t-1 2t0 2t0 2t0 1.5t1 2.5t0 1.5t-0.5 1.5t0.5 2.5t0 2t0 1.5t0 2t0 2t0 1.5t0 1.5t0 2t0 2t0.5 1.5t-0.5 2t-1 2t0.5 2l-1 2q2 0 1.5 4t0.5 4v1q-2 1 -0.5 2.5t0 2t0 1.5t0 1.5t0 2t0 2t0 1.5t0 2t0 2t-0.5 2l-1 2q1 0 1 4.5t-1 4.5l1 2q2 1 0.5 2t0 2t0 1.5t0 2t0 2t0 1.5
t0 2t0 1.5t-0.5 2.5t0 2t1 1v2q1 0 0 1.5t-1 5.5t1 5t-0.5 2t0 2t0 1.5t0 1.5t0 2t0 2t0 1.5t0 2t0 2t0 1.5t0.5 1.5t-1 6.5t1 7.5t-0.5 1.5t0 1.5t0 2.5t0 2t0 1.5t0 2t0 2t0 1t0 2.5t0 2t0 1.5t0 1.5t0.5 2q-2 3 0 6q1 2 0 2v2q1 2 -0.5 2t0 1.5t0 2t0.5 1.5v2q-1 1 1 3
q-1 0 -1.5 0.5t-0.5 1.5t2 1.5t0 0.5q-1 1 -1 2v2q-2 2 -0.5 2t0.5 1.5t-1 5t1 5t-0.5 1.5t0 2t0 2.5t0 1.5t0 1.5t0 2t0 2t0 1.5t0 2.5t0 1.5t0 2t0 2t0.5 1v2q1 0 0 1.5t-1 4t1 3t-0.5 1.5t0 2t0 1.5t0 2t0 2t0.5 1.5v2q-1 1 1 2t0 1l-2 2l1 1l-1 1v2q2 0 0.5 2t0.5 2
l-1 2q-2 1 -0.5 2t0 1.5t1 2t0 1.5t-0.5 2t0.5 2.5t0.5 2t-0.5 1.5t-0.5 1.5t0.5 2t0 1.5t-0.5 2.5t0 1.5v2q-3 2 0 2t0 2l-1 1q2 0 2 1.5t-1.5 2t-0.5 0.5q1 1 0 3q2 1 2 2t-2 1l1 2q2 1 2 1.5t-3 0.5h-3l3 1l1 2q-2 0 0 2v2l-1 1l2 1l-1 2q-3 1 0 2t-1 2l-3 1l3 0.5l3 0.5
l-3 1l-1 2q3 0 3 1t-3 2q3 1 3 2t-3 1.5t0 0.5q2 0 2 1q2 1 -1 1q-1 1 -2 1v1q10 2 2 2v2q3 1 3 1.5t-3 0.5h-3l3 1.5l3 1.5l-3 0.5l-3 0.5l3 1l1 2q-3 0 -3 1t3 1v2q-3 1 0 2t-1 2l-1 2l3 1l-2 1q-2 1 0 1q3 0 1 2q0 1 -2 1q-3 0 0 0.5t3 1.5t-3 1v1q2 2 2 3q-2 0 0 1.5
t0 1.5t0 2t0 2t0 1.5t0.5 2.5t0 1.5t-0.5 2.5t0.5 2t0 1.5t0 1.5t-0.5 2v2h2q1 2 -2 3l2 2l-2 1v2l1 1v2l1 2l-2 2h2l-1 1q-2 1 0 3l1 1q-1 0 -2 1q0 2 2 2l-1 1q-2 2 0.5 2t0 1.5t-0.5 2.5t0 2t0 1.5t0 2t0 2t0 1.5t0.5 2t0.5 2t-0.5 2t0 2t0 2t0 1.5t0 2t0 2t0 1t0.5 2.5
t0 2t0 1.5t0 1.5t0 2t0 2t0 2q-2 3 0 6q1 2 0 2v1q1 2 0 2t0 2t-0.5 2.5t0 1.5t0 1.5t0 2t0 2t0 1.5t0.5 2.5t0 1.5t0 2t0 2t0 1q-2 3 0 7q1 1 0 1v2q1 2 0 2t0 1.5t-0.5 2t0 2t0 2t0 1.5t0 2t0 2t0 1.5t0 1.5t0.5 2.5t0 1.5t0 2q-2 3 0 6q1 2 0 2v2q1 1 0 1t0 2t0 2t0 1.5
t-0.5 2.5t0 1.5t0.5 2.5t0 2t0 1.5t0 1.5t0 2t0 2t0 1q-2 3 0 7q1 1 0 1v2q1 2 0 2t0 1.5t-0.5 2.5t0 2t0 1.5t0 2t0 2t0 1.5t0 2t0 1.5t0.5 2t0.5 1.5t0 1.5t-1 3t-0.5 1.5v2l1 2q-1 0 0 1.5t-0.5 2.5t0.5 2t-0.5 1t-0.5 2t0.5 2.5t0 1t-0.5 2.5t0 2v2v1q3 0 0 2v2
q1 0 0.5 1t-16.5 2l1 1h12q5 1 0 2h-14l1 1q16 0 16.5 1.5t-16.5 1.5h-8.5h-6t-1.5 0q0 1 15 1t17 1t-21 1h-11.5t-8 0.5l-2.5 0.5q1 1 23 2l-1 1l-19 1q3 1 21 1q19 0 20 1h-3h-8h-11q-22 0 -22 1.5t21.5 1.5h22.5q0 1 -3.5 1h-9h-12.5q-26 0 -28 1t26 1q7 0 13.5 0.5
t10 0.5h3.5q-1 1 -24 1t-37 1q-9 0 1 1h23h18h13h5q-1 1 -36 1.5t-36 1.5h2.5t7.5 0.5t11 0.5h11h8h3q-1 1 -22 1.5t-21 1.5h2.5h7h10.5h10.5t7 0.5l2.5 0.5q0 1 -23.5 1.5l-23.5 0.5l2 0.5t6.5 0.5h9.5q18 0 24 1q4 1 -2 1h-13h-10t-7.5 0.5l-2.5 0.5l20 1l20 1
q1 0 -2.5 0.5t-9.5 0.5h-13h-13h-9.5h-3.5q1 1 26 1.5t25 1.5q1 0 -2.5 0t-9.5 0.5t-13 0.5h-20l25 2l15 1h-19h-13t-9.5 0.5t-2.5 0.5q0 1 25 1l19 1h-14q-11 1 -17 1q-9 1 1 2h15l15 1h-19q-26 1 -27 2h3.5t9 0.5t12.5 0.5h13h9h3l-24.5 1t-25.5 2h3h7.5h10.5h10.5
t7.5 0.5l3 0.5q-1 0 -25 1l-24 1l3 0.5t8.5 0.5h12h11.5h8t3 1q-1 0 -24 1l-19 1h14q18 1 22 1l-18 2l-2 1l23 2h-17l-18 1q2 0 12 1l25 1q0 1 -18 1q-26 0 -24 0.5t25 1.5q13 1 15 1q5 0 -1 0h-17q-7 0 -13 0.5t-9 0.5h-3q1 1 26 1.5t25 1.5h-2.5h-7.5h-11q-22 0 -22.5 1.5
t20.5 1.5h10.5h7.5h3q-1 1 -19 1l-25 1q4 1 19 1q18 0 19 1l-15 1l-26 1q1 0 19 1h12.5h8.5h3q-1 1 -24 2t-24 1h3t7.5 0.5t10.5 0.5l15 1q-3 1 -21 1h-11l16 1q20 1 21 2h-2.5h-7.5h-10.5t-10 0.5t-7.5 0.5h-3q1 0 20.5 1t20.5 2h-2.5h-7.5h-10.5h-10h-7.5t-3 1q1 0 25.5 1
l24.5 1q1 0 -2.5 0t-9.5 0.5t-13 0.5h-13h-9.5h-3.5q1 1 27 2v1h-13t-9.5 0.5t-2.5 0.5q1 1 26 2l-1 1q-26 0 -26 1t26 1v1q-26 1 -27 2l3.5 0.5t9.5 0.5h13h13h9.5t2.5 0q0 1 -23 1l-28 2h17l21 1l-16 1l-25 1q4 1 15 1h10.5t7 0.5l2.5 0.5q-1 0 -21 1l-20 1q-1 0 1.5 0
t6.5 0.5t9 0.5q17 0 16.5 1t-17.5 1h-8.5h-6t-1.5 0q0 1 20.5 1.5t20.5 1.5h-2.5t-7.5 0.5t-10.5 0.5h-10.5h-8t-2 0q0 1 26 1.5t26 1.5h-3.5h-9.5h-13h-13.5t-9.5 0.5l-3 0.5q1 1 27 2l-1 1l-21 1q3 1 21 1h7.5t5.5 0.5l2 0.5l-20 0.5t-20 1.5t20 1v1q-20 1 -21 2h3
t9.5 0.5t13.5 0.5l1 1q-26 0 -27 1l2.5 0.5t7.5 0.5h10l2 1q-40 2 -2 2q6 0 11 0.5t7.5 0.5h2.5q0 1 -21 1.5t-21.5 1t11.5 0.5t11.5 1.5t-12.5 1.5h-9q4 1 20 2q21 0 21 1h-2.5h-7.5h-10.5h-10.5t-8 0.5t-2 0.5q0 1 21 1l15 1l-18 1h-12.5h-8.5t-3 1q1 0 24 1l18 1h-16
q-12 0 -17 1q-7 1 1 1q6 1 18 1l-2 1q-22 0 -22 1t22 2v1q-22 0 -23 1l3 0.5t8 0.5h11h14q6 0 -2 1h-14q-26 1 -27 2h3t8 0.5t11 0.5h11h8h3q-1 1 -16 1l-20 2h10l11 1q-1 0 -19 1l-12 1q2 1 9.5 1h11.5q5 1 -1 2h-13v2q14 1 15.5 1.5t-14.5 0.5l-11 1q3 0 22 1l11 1h-17
q-6 0 -11 0.5t-8 0.5h-3q1 1 22 1.5t21 1.5h-2.5h-8h-11.5l-16 1q6 1 22 1q5 0 8.5 0.5t5.5 0.5h2q-1 1 -21.5 1t-20.5 1t22 1l-1 1q-22 1 -23 2h3.5t9.5 0.5t14 0.5l1 1q-27 1 -28 1q0 1 2.5 1h7.5h11l1 1q-21 1 -22 2t17 1h8h6h2q0 1 -20.5 1.5t-20.5 1.5q-1 0 1 0h5.5
h7.5q16 0 15 1.5t-15 1.5h-7.5h-5.5t-1 0q0 1 14 1t16 1l-14 1q-5 0 -8.5 0.5t-6 0.5t-1.5 0l20 1t20 2h-2.5h-7.5h-10.5h-10h-7.5t-2 1l20 1l20 1h-2.5t-7.5 0.5t-10 0.5q-21 0 -19.5 0.5t25.5 1t25 1.5h-3.5h-9h-12.5q-25 0 -25 1t2 1h16.5t21 0.5l10.5 0.5q-1 1 -25 1
t-26 1l20 1h11t7.5 0.5l2.5 0.5l-19 1l-20 1q4 1 17 1l1 1l-20 2h9q11 0 11 1t-11 2l-1 1q12 0 12 1t-212 1l-192 -1l15 -2h-13zM696 849q1 1 2 1l2 -1h-4zM697 842l1 1l2 -1q-2 -1 -3 0zM346 819l1 1l2 -1h-3zM707 812q0 1 2 1l2 -1q-2 -1 -4 0zM338 782l1 1l1 -1
q0 -1 -2 0zM726 778l1 1l1 -1h-2zM348 768h1h1q-1 -1 -2 0zM338 760l1 1l1 -1h-2zM337 752l1 1l2 -1q-2 -1 -3 0zM338 741l1 1l1 -1h-2zM328 727h2h2q-2 -1 -4 0zM285 681l1 1l1 -1h-2zM233 660h1h3q-2 -1 -4 0zM242 660h1h3h4q-4 -1 -8 0zM762 618h1h1q-1 -1 -2 0zM762 610
l1 1l1 -1h-2zM780 599q0 1 1.5 1h1.5q0 -1 -1 -1.5t-2 0.5zM791 595h1h3q-2 -1 -4 0zM792 591v1l2 -1h-2zM792 588h2q-1 -1 -2 0zM792 584v1l2 -1q-1 -1 -2 0zM799 584h2h3q-3 -1 -5 0zM801 580l2 1l1 -1h-3zM812 573l1 1l1 -1h-2zM822 573q1 1 2 1q2 -1 3 -1h-5zM163 570h2
h2q-2 -1 -4 0zM174 566l2 1l2 -1q-2 -1 -4 0zM176 561q-2 0 -2 1t3 1l2 -1q-1 -1 -3 -1zM206 562l1 1h3q4 0 4 -1h-8zM204 558.5q-2 1.5 6 0.5l2 -1q-6 -1 -8 0.5zM234 554l-1 1q3 2 3 0q0 -1 -2 -1zM288 547v1l2 -1q-1 -1 -2 0zM338 529l1 1l1 -1q0 -1 -2 0zM346 506l2 1
l1 -1q-1 -1 -3 0zM348 495l1 1l1 -1h-2zM347.5 486q-0.5 0 -1.5 1.5t0.5 1.5t1.5 -1.5t-0.5 -1.5zM347 484l0.5 0.5l0.5 0.5q2 0 2 -1l-1 -0.5t-2 0.5zM339 479q-2 0 -2 1.5t2 1.5t2 -1.5t-2 -1.5zM328.5 461q-1.5 1 0.5 2l2 -1q-1 -2 -2.5 -1zM455 397q-9 4 -22 -8l-1 1
q5 6 14 9t11 -1q0 -2 -2 -1zM489 387q-1 0 -7 2q-15 4 -27 -2q-6 -3 -15 -14v1q1 0 2 2q5 10 15 14q4 1 13.5 1t14.5 -2zM509 371l-4 3q-5 7 -11 11l-3 2q1 0 4 -2q3 -1 8.5 -7t5.5 -7zM425 380l2 2q0 -1 -1 -3zM493 361l-3 4q-7 11 -21 13q-13 3 -19 -2v0q2 3 5 4
q10 2 21 -2q6 -3 11.5 -8.5t5.5 -8.5zM422 366l1 1q1 0 0 -2zM431 342l-4 7.5t-4 8.5q0 2 2 0q0 -2 3 -8q1 -2 2 -3.5t1 -3v-1.5zM435 357l1 2q1 -1 0 -2h-1zM493 357l1 2v-2h-1zM435 351l1 2q1 -1 0 -2h-1zM493 347l1 2v-3zM438 342q-1 2 -1 4l2 -4h-1zM488 336l-1 -1
q-1 -1 2 3l4 5q0 -1 -1 -3t-4 -4zM444 334.5q0 0.5 5 -2.5l5 -4l-5 3t-5 3.5zM465 327l1 1q11 1 12 1l-1 -1q-1 -1 -12 -1zM444 323q-4 3 -4 4q0 2 4 -3v-1zM499 323v1q5 5 5 4t-5 -5zM463 313h1h2q-2 -1 -3 0zM472 313l1 1l2 -1q-1 -1 -3 0zM325.5 258q-0.5 0 -1 1.5
t0.5 1.5t1 -1.5t-0.5 -1.5zM340.5 237q-1.5 0 -1.5 1t0.5 1t1.5 -1t-0.5 -1zM338 170l1 1l1 -1q0 -1 -2 0zM338 166l1 1l1 -1h-2zM348 166l1 1l1 -1h-2zM345 159q1 1 3 1l2 -1h-5zM345 156h2h3q-2 -1 -5 0zM338 143q-1 0 -1 1.5t1 1.5t1 -1.5t-1 -1.5zM338 141q-1 1 1 1
t2 -1l-1.5 -0.5t-1.5 0.5zM338 66h1h1q0 -1 -2 0zM338 -2l1 1l1 -1h-2zM338 -9l1 1l1 -1h-2zM338 -90h1h1q0 -1 -2 0zM338 -106l1 1l1 -1q0 -1 -2 0zM338 -113l1 1l1 -1q0 -1 -2 0zM337 -158l1 1l2 -1h-3zM338 -173l1 1l1 -1q0 -1 -2 0zM823 -173l1 1l1 -1q-1 -1 -2 0z
M832 -177l1 1l2 -1h-3zM832 -196l1 1l2 -1q-1 -1 -3 0zM731 850l-1 2h-2t-1 -1t4 -1zM734 847h-2h-3q3 -1 5 0zM753 843l-1 1l-1 -1h2zM755 840h-2h-2q2 -1 4 0zM308 836q-1 1 -2 1l-2 -1q2 -1 4 0zM754 829h-2h-2q2 -1 4 0zM744 822h-2h-1q2 -1 3 0zM755 813l-1 1l-1 -1h2z
M308 806q1 1 1 1.5t-1 0.5t-1 -1.5t1 -0.5zM776 806l-2 1v-1q1 -1 2 0zM768 802q1 1 -1 1h-2q-2 0 -2 -1h5zM777 802l-3 1l-1 -1h4zM766 799h-2h-2q2 -1 4 0zM776 799l-2 1v-1q1 -1 2 0zM766 795q1 0 0 1h-2l-2 -1h4zM766 792h-2h-1q1 -1 3 0zM754 788q0 1 -2 1l-2 -1
q2 -1 4 0zM776 776l-1 1l-1 -1q1 -1 2 0zM785 769h-2h-2q2 -1 4 0zM784 765q-1 1 -2 1l-2 -1h4zM764 749q1 0 2 1q-1 2 -2 2t-2 -2l0.5 -0.5t1.5 -0.5zM787 735l-1 1h-2q-2 -1 -3 -1h6zM786 732h-3h-2q2 -1 5 0zM284 728l-1 1l-1 -1q1 -1 2 0zM277 724l-1 1l-2 -1h3z
M277 721h-2h-3q3 -1 5 0zM786 721q1 0 -1 0h-2h-2q2 -1 5 0zM774 716l3 1q-1 1 -2.5 1t-2.5 -1zM256 691l-1 1l-1 -1q2 -1 2 0zM225 684h-1h-1q1 -1 2 0zM239 684h-1h-1q2 -1 2 0zM172 664v1h-3q-3 0 -3 -1h6zM155 657l-2 1l-2 -1h4zM130 642h-2h-1q1 -1 3 0zM805 642h-2h-1
q2 -1 3 0zM122 556l-2 1v-1h2zM173 549l-1 1l-1 -1h2zM233 546h-1h-1q2 -1 2 0zM308 500l-1 1l-1 -1q1 -1 2 0zM319 455q1 0 0.5 1.5t-1 1.5t-0.5 -1.5t1 -1.5zM309 456h-3h-1q2 -1 4 0zM316 456h-2h-2q2 -1 4 0zM306 441q-1 1 -3 1l-2 -1h5zM305 438h-3h-2q2 -1 5 0z
M291 385l-1 1l-1 -1q1 -1 2 0zM298 314l-1 1l-1 -1q2 -1 2 0zM302 310l-1 1l-1 -1h2zM306 294l3 2q-1 2 -4 0zM307 291l-2 1l-1 -1h3zM304 277h-3h-3q3 -1 6 0zM308 261q1 0 1 1t-1 1t-1 -1t1 -1zM305.5 194q2.5 0 2.5 1t-2.5 1t-2.5 -1t2.5 -1zM296 -36h-1h-1q1 -1 2 0z
M297 -40l-1 1l-1 -1q1 -1 2 0zM287 -63l-2 1l-2 -1h4zM286 -96h-2h-2q2 -1 4 0zM297 -123l-3 1l-1 -1h4zM297 -171l-1 1l-1 -1h2z" />
  </g>

</svg>
