<?xml version="1.0" standalone="no"?>
<!DOCTYPE svg PUBLIC "-//W3C//DTD SVG 1.1//EN" "http://www.w3.org/Graphics/SVG/1.1/DTD/svg11.dtd" >
<svg viewBox="0 -200 1000 1000">
  <g transform="matrix(1 0 0 -1 0 800)">
   <path fill="currentColor"
d="M166 -171h-1l-1 7l-2 14q-2 13 -3 23q-1 8 -2 18q0 3 -0.5 6.5t-1 8t-1.5 10.5t-1 9l-1 11q-2 14 -3 27q-1 16 -2 27q-1 8 -1 11t-0.5 4.5t-0.5 9.5q-1 12 -1 19q-1 4 -1 8.5t-0.5 6.5t-0.5 8.5t-0.5 6.5t-0.5 13l-2 29q-1 23 -1 51q-1 13 -1 17q0 5 -1 50q-1 49 -1 60
v25v16v1v0l-1 -1v4v4v55q1 130 0 166q-1 14 -1 89v39v26q1 26 1 27l-1 4q-2 3 -1 4l2 1l1 -1l2 -1l6 1l6 1l8 1l13 1q4 0 18 0.5t18 1.5q8 0 33 1q17 1 29 1l21 1q8 0 20 0.5t28 1t18 0.5q8 1 24 1q11 0 14 1q6 0 31 1q14 1 20 1q15 1 87 1q22 1 24.5 1t18 0.5t17.5 0.5
t13 1q23 0 28 1q3 0 16.5 0.5t14.5 0.5h14q34 1 47 1q10 1 19.5 1h23.5l14 1h19h26h26h19v1v0q1 -1 3 -1h1v1l1 -1h1h3h3l1 1v-1h2h3l1 1v-1h3h3q0 1 5 0h2h1l1 1v-1v-1l1 1v1v-1h1h1h1v1h2h3h1l1 -1v1h1h1v1h1v-1h-1h4h6l2 1v-1l1 -1h2h2v1v1h1q1 -1 5 -1h3l1 1h1v-1l-1 -1
h1h3l2 1h-1v1h3l3 -1l1 -1l1 -1v1v1h1v-1h2h2v-1h1v1h1h2v-1h1h-1l1 -2l1 -1h-1h-1v-2v-3v-2v-1.5t1 -1.5v-1l-1 -1v1l1 1h-1v-0.5t-0.5 -1.5t-0.5 -5t-1 -4v-1h1v-1v-3l-1 -2h1h1l-1 -2v-4.5t-1 -1.5v-1l1 1v-2v-1h-1v-1v-1h1v-1h-1v0l1 -1l-1 -1v-2h1v-2v-1v-1h-1v-1l1 -1
v-2v-1v1l-1 2v-4v-4l1 1v1v-2q-1 -2 -0.5 -5.5t0.5 -11.5v-8h1v1l-1 -2v-1v-4v-3.5v-5.5v-5l1 -1v-7v-7v0v-2v-8v-6v-2l1 -2l-1 -1v-1v-1h1l-1 -2v-2v-25v-29v-4l1 1v1v-2q0 -2 -1 -9v-6h1v-2l-1 -2v-12q1 -11 1 -12q-1 -6 -1 -61q0 -53 -1 -100l-1 -46l1 -42v-93v-74v-34
l1 -30l1 -1v-1l-1 -1v-18q1 -18 1 -26q2 -66 2 -106v-8l-1 -1l-1 -2h-2h-1l-1 -1l-1 1h-1l-1 -1h-3l-3 1l-2 -1h-2v-1l-1 -1h-1h-1q-1 1 -4 1l-3 1l-6 -1q-14 -1 -17 -1q-2 0 -12 -0.5t-13.5 -1t-5.5 -0.5q-10 0 -25 -2q-3 -1 -9 -1t-12 -1q-31 -2 -39 -3h-8l-1 -1l-2 -1v-1
l-2 1l-1 1h-5q-5 -1 -13 -1.5t-11.5 -1t-12 -1t-9 -0.5t-15 -1t-16 -1t-4.5 -0.5t-18 -1.5l-15 -1h-1l-2 -1h-3l-3 1l-6 -1h-9.5t-12.5 -1q-22 -2 -27 -2t-12.5 -0.5t-13 -0.5t-10 -0.5t-12 -1t-16.5 -1l-26 -1.5q-16 -1 -22 -1h-5l-3 -1l-4 -1h-1l-1 1h-3h-7l-4 -1h-15
q-16 -1 -29.5 -1.5t-19.5 -0.5l-14 -1q-9 0 -12 -0.5t-12.5 -1t-12.5 -0.5q-11 -1 -45 -1q-26 0 -74 -1q-18 0 -41 -1h-24v1zM252 -75l3 1l4 2l3 1q1 0 10 6.5t11 8.5q1 1 3 2.5t3 2.5t5 3l5 4q1 0 3.5 2.5t5.5 4.5t9.5 7l9 7t4.5 4q6 5 13 10q1 1 4 3l7 6q4 3 5 4.5t3 3
t7.5 6.5t7 6.5l10 10t8.5 9t3 2.5l3 2v1v1h1l4 4q12 12 12 13h-1h-1v1l2 1l2 1h1l1 2v1l1 1h1l8 8l13 13l4 4l3 1l3 2h2l3 -1l1 -1l1 -1v-1v-2l1 -2l-1 -2l-1 -1v-2q0 -1 0.5 -5t1 -9.5t1.5 -10.5q0 -4 1 -13q2 -17 3 -35l1 -13l1 -4v-5v-25v-26h1l1 -1h1v1l1 1v1l1 1h1h1
v-1h1v0v-1h1v1v1l1 1l2 2l1 2q0 2 2 4l1 2v2v4v2l1 1q1 0 4 2l2 1l1 2v2l1 1h-1h-1v1v1l2 3l2 2l2 1l2 1l2 2l1 3l1 2v2h-1l1 2q1 2 2 2.5t1 1t2.5 3.5t2.5 3.5t2 2.5l1 2v1v1l2 2l2 1l-1 1h-1l3 2l2 2v2v2l1 1q2 1 2 2l2 3l3 2v1l3 4l3 4v1v2l1 1l4 5l5 6q0 1 6 9l3 4v1
l-1 -1l3 3l2 3v1l3 3l2 2v1v1l2 1q1 2 5 7l7 11l9 11q13 19 16 23q1 1 2 3q15 19 17 19l1 2l1 2l2 3q10 11 14 17l2 2l2 3q8 8 12 14q1 1 3.5 4t5 6.5t8 9t7.5 8t3.5 4t8 9t10.5 10.5l24 26l3 2l-1 1v1l2 1l1 1l2 2l2 2v1l3 3q2 2 4.5 4t3 2.5l3 3l3.5 3.5v2l19 19l24 23
l3 4v1q0 2 2 2q1 0 4 3l3 3l2 2l1 3h1h2l1 3l2 2h1h1l3 3l5 5q1 1 1.5 1t1.5 2l1 1l2 1l3 2q1 1 7 6q10 9 13 11l5 4q2 2 5.5 4.5t4 2.5t1.5 1.5t5 4.5l4 3h-2h-2v1l1 1l-1 1l-1 2h-1h-2l-1 1l-8 2q-8 1 -13 1.5t-10 1.5h-4h-12h-19h-9l-2 -1l-2 -1h-3l-3 1h-2q-1 -1 -5 -1
q-7 0 -21 -3l-10 -2l-4 -1l-2 -2l-2 -1h-2l-1 1l-2 -1l-1 -1l-2 -1h-2l-3 2l-3 1h-1l-1 -1v2l-1 1v1q1 1 4 5l3 5l6 7q6 7 6 7.5t2.5 3.5t12.5 14l8 9l31 32q10 11 12 13l1 2l3 1l2 1l1 -1v-1h-1v-2v-2l1 -1q1 -1 3 -2.5t14 -13.5l12 -12v1v1l3 -1h2v1q1 1 1 2v1l1 1l1 2v2
q0 2 1 7l2 6v10l1 10l2 10q2 12 4 20q5 20 7 27l5 17q2 7 4 11q2 5 4 12q1 3 1.5 3.5t1 2t2.5 5.5l2 5l-1 1l1 2q3 3 4 7v2l1 1q5 8 8 18l1 2v2q1 1 1 1.5t1 2.5q8 15 8 17q0 3 5 8q0 1 0.5 3t2.5 4.5t2 3.5l1 1h1v1v1h1v1l-1 3l-1 2l1 1h-2l-2 -1v-1v-2l-1 -1l-1 -2l-1 -1
h-2v-2l-1 -2l-1 1v4v3q-1 0 -1.5 -0.5t-3.5 -1.5q-9 -3 -11 -5q-1 -1 -2 -1h-1h-1v-1h-2l-2 -1l-2 -1l-3 -2h-1h-1v-1h-3h-3v-1l-1 -1l-2 -1h-3l-1 -2l-1 -1h-2q-6 -1 -10 -3q-1 -1 -5 -2.5t-6 -2.5l-14 -7q-15 -7 -17 -8q-1 -1 -6.5 -3.5t-6.5 -3t-9 -5t-13 -6.5l-9 -5
l-19 -11l-13 -9l-17 -11q-8 -4 -11 -6q-14 -10 -23 -17q-4 -3 -5 -4h-1v-1v-1h-1l-2 -1v-1v-1h-1q-1 0 0 -1v-1v-1v-1l-2 1h-2v-1v-2h1q1 -1 10 -4q15 -5 23 -9q3 -1 5 -2t7 -3l5 -3h1h1l1 -1l1 -1l3 -1l3 -1l5 -4q5 -3 6 -4t3 -2l2 -1v-1q0 -1 -1 -2v-2l-7 -7
q-12 -12 -22 -25l-7 -7l-2 -2h1v-1l-1 -1h-1l-5 -5q-9 -10 -9 -10.5t-3 -2.5l-12 -15l-5 -6q-3 -2 -7.5 -8t-6.5 -8l-5 -6l-5 -6l-7 -8l-7 -7q-2 -3 -5 -6l-2 -3l1 -1h-1l-1 1l-4 -5q-3 -4 -3 -4.5t-2.5 -3.5t-2.5 -4v-1h-1l-3 -3q-2 -3 -3 -5v-2h-1v-1v-1l-3 -2l-3 -2l1 -1
h-1h-1l-2 -4q-15 -19 -20 -26q-3 -4 -4 -5.5t-5 -6.5l-6 -9l-2 -4q0 -2 4 0l3 1v1v1h1l1 -1l3 2q3 1 5.5 2.5t3.5 1.5q2 0 13 5l1 1q0 1 1 2h1l1 -1l6 2q14 4 26 6q4 0 10.5 1t12 1.5t9.5 0.5q18 3 28 3q12 -1 16 -1l2 -1v-1v-1h-1q-1 0 -6 -5l-7 -7q-1 -2 -16 -16l-14 -15
l-2 -3q-2 -2 -2 -3t-1 -1v1v1l-1 -1l-1 -1l-1 -2v-2h1v-2v-1h-1h-4h-3l-11 -12q-12 -11 -14 -14l-9 -12l-5 -5l-3 -5q-9 -11 -14 -18l-4 -5l-3 -5l-23 -32l-9 -14q-20 -27 -27 -41q-1 -2 -1.5 -2.5t-1.5 -2.5t-3 -5l-1 -3h-1l-1 -1l-1 3l-1 2v2q-1 3 -2 10l-1 7l-1 3
q-2 7 -2 10q0 2 -3 10l-2 8q-2 5 -2.5 6t-0.5 4v3l-3 9q-3 9 -4 11l-1 2v1v1l-3 5l-2 4l-2 9q-2 9 -2 10l-1 2h-2h-2l-1 -1q0 -1 -1 -2h-3h-2l-2 -2l-3 -3l1 -1l-1 -2l-2 -1v-2q0 -1 -0.5 -1t-2.5 -4.5t-2 -5.5t-1 -2t-2 -4l-2 -3v-2l1 -1l-2 -2q-1 -3 -2.5 -3.5t-1.5 -1
t-2.5 -5.5t-3.5 -6.5t-2 -2.5q-3 -3 -8 -13q-2 -4 -4 -7l-2 -3l-3 -5q-8 -12 -8 -15l-1 -1l-1 -2l-2 -2l-2 -3q-1 -3 -2.5 -5t-2.5 -4t-2 -2.5t-3 -4t-4.5 -6.5t-4.5 -6q-4 -7 -8 -11l-4.5 -6.5t-5.5 -6.5l-3 -4v-1q-1 -3 -2 -3h-1l-2 -2q-2 -2 -6 -7q-6 -8 -20 -24l-8 -9
q-6 -8 -19 -21l-8 -9q-2 -2 -2 -2.5t-2 -1.5l-2 -1v-1v-1h-1q0 -1 -10 -11l-6 -7l-3 -3v-2v-1l-3 -1q-2 -2 -3 -3.5t-5 -4.5q-8 -8 -15 -17q-2 -3 -7 -8l-6 -6l-2 -2h3h2zM855 549h1v0h-1h-1h1zM829 642h1v0h-1zM331 -30v1l-1 -1h1zM443 176h-1l1 -1v1zM488 241v1l-1 1v-1
v-1h1zM660 297v1l-1 -1h1zM149 315h-1v-1zM672 592q0 1 -1 1v1l-1 -1v-1h1h1zM533 660q7 2 13 7l4 3l3 4l3 5l2 4l1 4l1 4v4v4v4l-1 3l-1 4l-2 3q-2 4 -4 7l-2 2l-3 4l-4 3l-4 2l-4 1l-4 1l-4 1h-5h-5l-3 -1q-6 -1 -11 -4l-3 -2l-3 -2q-3 -3 -5 -6l-3 -3l-1 -4l-2 -4l-1 -4
l-1 -4v-5v-5l1 -3l1 -4l2 -3l1 -4l3 -4l3 -3l3 -3l3 -2l4 -2q4 -2 7 -3l4 -1h7h7zM965 732h-1h1zM966 754v-1v0h1zM897 765v1l-1 -1h1zM962 765v1l-1 -1h1zM930 766v1h-1v-1h1zM943 766h-1h1zM910 766v1l-1 -1h1zM926 766v1v-1v0zM941 767v0l-1 -1h1h1zM952 766v1v-1v0z
M955 766v1l-1 -1h1zM967 684v0v0zM966 712h-1h1l1 -1zM967 713v1l1 -1h-1zM967 735v1v-1v0zM981 740h1h-1zM966 742v1l1 -1h-1zM986 754h1v0h-1zM967 756v1l1 -1h-1zM985 758v0v0zM968 761v0v-1v1zM980 764h1h-1zM856 766v1l1 -1h-1zM902 766v1v-1v0zM968 766v1v-1v0z
M980 767v1v-1v-1h-1zM932 767v0v0zM947 767h1h-1v0zM949 767v0v0zM981 767h1h-1zM966 774h1h-1zM980 782v0h1l-1 -1v1zM982 783v1v-1v0z" />
  </g>

</svg>
