<?xml version="1.0" standalone="no"?>
<!DOCTYPE svg PUBLIC "-//W3C//DTD SVG 1.1//EN" "http://www.w3.org/Graphics/SVG/1.1/DTD/svg11.dtd" >
<svg viewBox="0 -200 1000 1000">
  <g transform="matrix(1 0 0 -1 0 800)">
   <path fill="currentColor"
d="M880 -199q0 -1 0 69.5v191.5t1 264q0 526 -1.5 526t-0.5 -525t1 -526zM452 392q-10 -4 -21 -15q-14 -15 -23 -31q-5 -10 -7 -29q-2 -11 -5 -25q-7 -37 4 -67q8 -20 22.5 -40.5t27.5 -28.5q34 -23 65 -19q32 4 42 10q6 2 17 10.5t19.5 16t8.5 9.5q0 1 3 5q4 6 16 30t13 31
q4 14 -1 49q-3 26 -15 43q-11 15 -32 30q-26 20 -80 27q-20 3 -35 0q-9 -2 -19 -6zM529 341q0 -2 -6.5 -7.5t-10.5 -6.5q-5 -2 -9 0q-8 4 -7 13t9 13q9 6 17 1q7 -4 7 -13zM542.5 207q2.5 -6 -0.5 -11t-3 -6t-2.5 -1t-5.5 0.5t-5 1.5q-3 1 -7 5.5t-4 6.5q0 1 4 6q9 9 18 5
q3 -1 5.5 -7zM394 303l2 2q-2 1 -4 0t-1.5 -1.5t3.5 -0.5z" />
  </g>

</svg>
