<?xml version="1.0" standalone="no"?>
<!DOCTYPE svg PUBLIC "-//W3C//DTD SVG 1.1//EN" "http://www.w3.org/Graphics/SVG/1.1/DTD/svg11.dtd" >
<svg viewBox="0 -200 1000 1000">
  <g transform="matrix(1 0 0 -1 0 800)">
   <path fill="currentColor"
d="M564 44l-3 3l-1 2l-1 2l-1 2l-1 1v1v0l-1 1v1l-1 1q-1 1 -2 3l-1 1l1 1v0h-1q0 1 -1 2.5t-2 2.5v2l-1 1l-1 1v1l-1 1q-2 2 -2 3v1l-1 1q-2 2 -2 3.5t-1 1.5v1l-2 4l-2 4q-1 1 -1 1.5v1t-1 1.5h-1v1h1h-1l-1 1l-1 2l-1 3v1h-1v1q0 1 -0.5 1t-2 3t-2.5 4t-1.5 3t-1 2
t-1.5 2l-1 2h-1v1l-0.5 1t-0.5 2v1h-1v1l-1 1l-1 1h1l-1 1q-1 1 -1 2l-1 2h-1v1q0 2 -3 4q-1 1 -1 1.5t-1 1.5t-1 3v1h-1l-1 2l-1 2h-1v1l-1 2q-1 1 -1 1.5t-1 2t-2 2.5v1h-1v1h1l-2 2l-2 2v2q-3 3 -3 4v1h-1v1v1l-1 1l-1 2h-1l-1 1l-1 2q-1 2 0 4l-1 2l-2.5 5t-1.5 3.5
t-0.5 1.5t-0.5 1.5t-1 1.5v1l3 -1l15 -2q10 -2 16 -2l14 -3q9 -1 15 -2t8 -1q11 -2 39 -5l11 -1l13 -2q15 -2 26 -2q13 -1 23 -3q3 0 9 -0.5t8 -1.5h3v-1v0l-3 -4q-3 -3 -3 -4h-1v-2v-1v-1l-1 1v-1v-1l-2 -1l-1 -1l-1 -1v-1h-1q0 -1 -2 -3l-1 -1v-1h-1q0 -1 -0.5 -1.5
l-2.5 -2.5l-3 -3l-1 -1v-1h-1v-1v-1l-1 1v-1v-1h-1l-1 -1l-1 -1h-1l-1 -1v-1l-2 -3q-3 -2 -4 -3.5l-1 -1.5l-2 -1l-2 -2h1l-1 -2l-1.5 -1.5t-3.5 -4t-4.5 -5l-3 -3t-4 -4.5t-3.5 -4q-5 -5 -8 -9q-1 -1 -1 -1.5t-1 -1t-2.5 -2t-4 -4.5l-2.5 -3l-2 -2q-4 -5 -4 -6h-1v-1l-1 -1
l-1 -1q-1 0 -1 -0.5t-2 -2.5q-10 -11 -13 -16h-1v0v-1l-1 -1q-1 -1 -1.5 -1t-2.5 -3q0 -1 -1 -2h-1zM580 94q3 0 4.5 0.5t2.5 1l5 2.5l5 2l2 2q11 9 14 23l1 4v4v5l-1 3q-2 10 -4 11h-1l1 1h-1v1q-1 1 -2 2.5l-1 1.5l-1.5 1.5t-2 1.5t-1 1t-3 2t-3 2t-1 1t-2.5 1q-5 2 -13 4
h-2h-5h-4l-3 -1l-3 -1l-5 -1l-6 -3l-2 -1l-3 -3q-3 -3 -5 -6l-2 -2l-1 -3q-2 -4 -4 -10v-2l-1 -4v-4l1 -3q1 -7 3 -13q1 -1 2 -3l2 -2l3 -4l4 -3l3 -2q3 -2 3 -3q5 -3 14 -4q3 0 3 -0.5t4.5 0t5.5 0.5zM570 94h1v0h-1zM564 172l-1 1v-1v0h1zM649 138h1h-1zM484 179v0h1h-1
h-1h1zM638 298h1l-1 1h-3h-3l-1 1v-1h-1v0l-1 -1v1h-1h-1h-1l-1 1h-1v-1h1h-1h-1l-1 1l-1 1v-1l-1 -1l-1 1v0l-1 -1v1l-1 1v-1h-1l-2 1l-1 -1l-1 1h-1v1h1h-1v1l-1 1h-1v1q1 1 1 5q0 8 2 22v7q2 24 2 33v7l1 3v4v1v1h-1v1h-3q-7 0 -10 -1v-1v0h-1v1l-1 -1h-1q-1 0 -2 1v-1
h-1h-1v-1v1h-1h-1v-1h-1h1v1h-2l-1 -1h-1v1l-1 -1h-1h-2v-1l-1 1l-2 -1h-1.5h-1.5h-1v-1h-1v1h-1v-1v1h-1l-1 -1l-3 1h-3v-1h-1h-1v0h-1h-1l-1 -1v0l-1 1v-1h-3h-3h-1v1v-1l-1 -1l-1 1h-2v-1h-1h-1l-2 1v-1h-1l-1 -1h-1v1v0h-1v-1h-1h-1l-1 1l-1 -1h-2h-2h-2h-6q-2 -1 -3 -1
v0q-1 1 -2 1v1l-1 -1l-1 -1h-1v1v1v1l-1 -1q0 -1 -2 -2h-2l-1 1h-1q-1 -1 -2 1v-1h-1q0 -1 -1 -1h-2v1v0v-1h-1l-1 1l1 -1h-1h-1l-1 -1h-1v1v-1h-1h-1h-2l-1 1v0v1h-1v-1v-1l-1 1h-1v-1h-1l-1 1l-1 -1v0h-2v0h-1v1v0h-1v0h-1v-1v0l-1 -1v1v1h-1v0v-1h-1v1h-1l-1 -1h-2h-2
l-1 1v0l-1 -1v-1l-1 1l-2 1l1 1h-1l-1 -1h-1h-1h-1l-1 -1h1h-2q-3 0 -4 1h-1h-1v-1v-1l-1 1h-1l-1 1v1h-1l1 -1l-1 -1l-1 -1h1v1l-1 1v1h1h-1h-1v1v1l-1 1v1v2h-1q-1 0 -2 1h-1l-1 1v4q1 3 1.5 5.5t0.5 8.5l2 8q0 2 1 9v8q1 2 4 5l26 28l5 6l7 8l5 5t2.5 3t8 8.5t7 7.5
t1.5 1t7 7l10 9q3 4 6 7q6 6 16 15l9 9l9 9q5 5 8.5 8t4.5 3l11 11l7 7l10 9l7 7l3 3q4 3 5 4h1q1 0 6 -1h2v-1h1v0v1v-1l1 -1h-1q-1 0 -2.5 -1t-2.5 -1h-1l-1 -1l-1 -1q-1 0 -6 -5.5t-5 -6.5v-1h-1v1l-1 -3q-3 -7 -4 -10q-1 -13 2 -23q1 -3 1.5 -4l2.5 -5l1 -3h1l1 -1l3 -2
q2 -2 3 -2.5l1 -0.5l2 -1l2 -2h1h1h1v-1h1q1 0 3 -1l2 -1h2l1 -1l1 1h1v-1h2h2h-1l-1 1l1 -1h1h1h1l1 -1q0 1 2 1h1l1 -1l1 1h1h1l1 1v0v-1h1q1 0 2 1h1h1l2 1h1l2 1q2 1 5 3l3 2v-1h1v-1h-1h1h1l-1 -1h-1v-2q-1 -2 -1 -5v-5q-1 -4 -2 -25q-1 -6 -1 -17q-1 -3 -1 -6.5
t-0.5 -8l-1 -9t-0.5 -8.5q0 -9 -1 -12v-8v-7l1 -1l1 -1l1 -1h1h5q5 0 8 1q4 0 21 1h11h9h1v-1l1 -1l-1 -4q0 -4 -0.5 -6.5t-1 -10.5t-0.5 -10l-2 -14v-2l-1 -1l-2 -1v1v-1h-2l-1 -1v-1l-1 1h-1h-1h-1v1h-1l-1 -1l-2 1h-3v0v-1v1h-1h-1l-1 1h-2v-1l-1 1h-1l-1 -1v1h-1h-1v1
h-1l-1 -1l-1 1h-1.5t-1.5 1h-1h-1h1v1h-2h-1v-1v0l-1 1v1h-3h-3l-1 1v0h-1l-1 1v-1h-1v0v1h-2h-2v0h-2q-2 1 -3 1h-1l-1 -1l-1 -1v-3q-1 -4 -1 -12.5v-12.5t-1 -13q0 -20 -1 -30l-1 -5q-1 0 -1 -0.5t-1 -1.5l-1 -1h-1v1l-1 -1v-1v1l-1 -1h-1l-1 1l-1 -1h-1l-1 1h-1l-1 -1v1
h-1h-1v0h-1h-1h1h-1h-2l-2 1v0h-1v-1h-1h-2h-1v-1v0l-1 -1v1zM653 299h-1v1v-1v0h1zM651 300v0h-1h1v0zM652 300v0v0zM646 301h-1v-1h1v1zM649 301v0v-1v1zM612 301v1v-1v0zM715 373h-1v-1zM705 373v1v-1v0zM694 377v0v-1v1zM692 377v1v-1v0zM497 380v0v0zM461 380v0v0z
M462 380v0v0zM467 381h-1v-1h1v1zM468 381v0v-1v1zM461 381h-1v0h1zM489 381v0v0zM508 381v0v0zM515 381h-1v1v-1h1zM516 382q-1 0 -1 -0.5t0.5 -0.5t0.5 1zM525 381v1l-1 -1h1zM457 382v0v0zM503 382h-1v0h1zM453 382v0v0zM540 382v0v0zM547 384h-1v0h1zM578 385v0v0z
M616 437q0 2 0.5 4.5t1.5 8.5l1 11q1 6 1 10v4l1 1v4q0 4 0.5 5t0.5 3.5v6.5l1 10q1 5 1 6t0.5 4.5t0.5 5.5l1 2v4q0 3 -1 5v3v1q-1 1 -1 2t-2 3v1v1v-1v1h-1v1l1 2h-1h-1v-1l-1 1v1.5t-1 0.5v1v-1h1v1h-1l-1 -1v1h-1l1 -1h-1h-1h-1v-1v0q-3 0 -12 -12l-4 -4t-3 -4l-1 -2h-1
l-1 -1.5t-2 -2.5t-2 -2.5l-1 -1.5l-2.5 -2.5t-2.5 -3.5l-1 -1q-1 0 -1 -0.5t-2 -2.5l-4 -4q-3 -3 -6 -7l-4 -4v-1h-1h-1v-1q0 -1 -1 -2l-8 -8l-2 -2l-2 -3h1h-1l-1 -1v-1l-1 -1h-1v-1l-1 -1q-2 0 -5 -6l-1 -2h-1l-1 -1q0 -1 -3 -4l-2 -2l-1 -2h-1v0v-1v0l-1 -1v-1v1h-1v-1
l-2 -3q-3 -3 -3 -4l-1 -2v-1q1 0 5 -1q11 -1 18 -2q3 0 7 -1h4h7h6l1 -1h17h17h4h6h2v2zM622 540v0v0zM621 543v0v-1v1zM620 544v0v0zM563 492v0v0zM623 541v0v0zM617 587v0v-1v1zM647 298v1v-1v0zM661 299v0v-1v1zM615 300h1h-1zM724 370v0v0zM711 371v0v0zM707 372v0v0z
M708 372v0v0zM480 378v0v0zM452 380v0v-1v1zM482 379l1 1v-1h-1zM514 379v1l1 -1h-1zM517 380h1v0h-1zM520 380.5q0 0.5 1 0.5q0 -1 -0.5 -1t-0.5 0.5zM450 381l1 1v-1h-1zM450 383h1v0h-1zM596 386v1v-1v0zM316 442l-1 1h-1v1v0h-1l-1 1l-2 2v1v-1h-1l-1 1l-1 2q-1 0 -1 1
v1h-1v0v1h-1h-1v1l-1 1q-1 0 -1.5 0.5l-0.5 0.5l-3 3l-2 2l-1 1h-1v1h-1h-1l1 1l-3 2q-2 1 -2.5 1.5l-1.5 1.5l-1 1v0v-1l-1 1l-1 1v1l-1 -1v0v1h1l-1 1l-1 1h-1l-2 2l-2 1h-1h1v1h-1l-1 1v1h-1v-1l-1 1l-1 1l-2 2l-2 2h-1v1q-2 1 -6 4l-1 1l-3 4h-1h-1v1h-1h-1l1 1h-1h-1v1
h-1h-1l-1 1t-1 2l-1 1v0l-2 2q-2 2 -3 2v0v1h-1h-2l1 1h-1h-1v1v1l-1 -1l-1 1l-1 1q-1 1 -2 1l-1 1h-1v1l-1 2h-1v0v1h-1l-1 1v1h-1l-1 1v1h-1v1v1h-2l-1 1q0 2 -2 3l-3 1h1h-1v1l-1 -1v-1v1v1h-1l-2 2l-1 2v0l-1 1l-1 1h-1h1v1v1v2l-1 1l-2 2l1 1q3 1 7 3l3 1l1 1h1h1l4 2
q11 6 12 6t1 1h2h1v1q1 1 1.5 1t2 0.5t3 1.5t2 1t2.5 1l6 3q2 1 2.5 1t3.5 1t6.5 2.5t5.5 2.5q13 7 16 7v1q0 1 0.5 0.5t4 1.5t5.5 2.5t2.5 1t4.5 2t4.5 2t2 1t2.5 0.5l1 1h1l3 1l3 1.5l4 2t3.5 1.5t1.5 1q4 1 7 2l1.5 1.5t1 0.5h1.5h1v1h1q1 0 3 1q5 3 8 4q6 2 7 3l1 1h1v0
l2 1q1 1 2 1h1l1 -1v-1v-2v-4v-1h-1v-2q-1 -2 -1 -2.5v-1.5q-1 -4 -2 -6v-1v0h-1l1 -1h-1q0 -1 -1 -5.5t-2 -5.5q0 -1 -3 -10q-2 -6 -2.5 -8t-1 -3.5t-0.5 -2.5l-1 -2l-1 -2q0 -3 -1 -6l-1 -3v-1h-1v-1q0 -1 -0.5 -2t-0.5 -2.5t-0.5 -2t-0.5 -1.5t-1 -3l-1 -3h1h-1h-1l-1 1
l1 2v1l-1 3q-1 3 -1 4t-3 7t-4 6v0v1l-2 2q-3 3 -4 3v1h-1l-1 1l-1.5 1.5t-1 0.5t-1.5 1l-1 1h-2h-2h1v1h-1h-1v1l-1 -1h-1v1l-3 1h-4h-5h-5h-1v-1h-1h-2h-2l-1 -1h-2h-1l-1 -1q-1 -1 -2 -1t-7 -4q-3 -2 -6.5 -7t-3.5 -6v-1h-1l-1 -2q-1 -2 -2 -5l-1 -2v-3v-3v-4v-4v-3l1 -4
l1 -3l1 -3l2 -3q2 -4 5 -8l3 -2l2 -2q4 -3 7 -4q1 -1 2 -1t1 -1q2 0 7 -1l2 -1h1v1v-1h2h1v1l1 -1h2q3 0 7 1q5 1 10 3q0 1 2 1.5t3.5 2t2 1.5t2.5 2l1 2h1l1 2q2 2 2.5 3t1.5 2h1v-1v-1l-1 -1h1l-1 -1l-2 -5l-2 -7q-1 -3 -1 -4t-2 -6.5t-3 -7.5q-1 -5 -4 -14q-2 -6 -2.5 -7
t-0.5 -1.5t-0.5 -2.5t-1.5 -3v-1l-1 -1v-1h-2l-1 -1v1h-1v-1v1zM290 466v0v0zM289 467v1l-1 -1h1zM280 475h-1v0h1zM277 477v0h-1h1v0zM249 499h-1v-1zM248 500v0v0zM251 501v1v-1v0zM249 504v0v0zM242 510l-1 1v-1h1zM233 512h-1h1zM235 514h-1v1v-1h1zM230 515h-1v0h1z
M232 516v1v-1v0zM218 527h-1h1zM213 530v0v0zM210 533v0v0zM214 533v1l-1 -1h1zM314 442v1l1 -1v0h-1zM928 448l-1 1h-1h-1h1v1h-1v0h-2h-1l-1 2q-1 1 -2 1v1l-1 -1v1h-1l-2 1l-2 2v1v0h-1q-1 1 -2 1l-1 1q-1 0 -2 1l-1 1h1v1h-1v-1v1l-3 1l-2.5 2.5l-0.5 0.5l-2 1h-1v1h1
h-1v0h-1l-1 1l-1 0.5t-2 1.5l-2 1h-1v1l-1 1q-1 0 -2.5 1l-1.5 1q-1 0 -1 1l-1 1h-1v0q-1 0 -3 2l-3 2v-1l-1 1l-1 1h-1v1v-1h-1l-1 1l-1 1v1h-1l-1 -1v1v1h-1l-1 -1v1h1h-1l-1 1v1v-1h-1l1 1h-1h-1v1h-1l-1 1l-1 1l-1 -1v1v1h-1l-1 1h-1h-2v1v0l-1 1h-1h-1l-1 1l-1 2h-1v0
l-1 1l-1 1l-2 1l-1 1t-2 1.5t-2 0.5l-1 1l-2 1h-1v1v1l-1 -1v0v1l-1 1v-1l-1 1l-1 1h-1h-1l1 1h-1h-1l1 1h-1h-1l-1 1h-1v0v0l-0.5 1t-1.5 1q-3 -1 -3 2v0h-1l-1 1h-1h-1v1q-1 0 -1 1h-1h1v1h-2h-1l-1 1l-1 1l-1 1h-2l1 1h-1h-1v1v1v-1h-1l-1 1l-2 1v1v-1h-1v1
q-1 0 -2.5 0.5l-1.5 0.5h-1l-1 1v1h-1h-1l-1 1h-1v-1v1q1 0 1 0.5t-1.5 1l-1.5 0.5l-1 1h-1l-1 1h1v-1v1h1h-1h-2h-1v1l-1 1h-1l-1 2l-1 1v1q0 2 -1 3v1v-1l1 -1v1v1l-1 1l-1 1l1 1q1 0 2 1q4 2 9 5t8 5l4 2q3 2 13 7q6 3 6.5 3.5t8.5 4.5l29 15l9 5l10 5l8 5q3 2 5.5 3.5
l6 3.5t4.5 3q4 3 8 4l1 1l1 -1v-1t0.5 -5t1 -10t1.5 -11t1 -7v-6q1 -5 1.5 -8.5t1.5 -12.5l1 -10v-1q1 -1 2 -13q0 -3 1 -6q1 -8 2 -12q0 -3 0.5 -5t1 -5t0.5 -6l2 -14q0 -3 0.5 -5t0.5 -5t0.5 -6.5l1.5 -10.5t1 -7.5v-3.5l1 -3h-2l-1 -1v-1h-1h-1zM931 459v1h-1h-1l1 -1h1z
M880 481h-1h1zM872 486v0v0zM866 489.5q0 0.5 -1 0.5v0v-1q1 0 1 0.5zM853 497v0v0zM854 497v0v0zM877 515h2h2v0h1h1v1h2q1 0 4 1h2q1 1 1.5 1t1.5 1l2 1h1l3 2l3 2l2 2l3 3v1q1 1 4 7t3 7v1h1v2v4v9v3h-1v1v1h1l-1 1l-0.5 1.5t-1 2l-0.5 0.5q0 2 -1 3l-1 3l-2 2l-0.5 1
t-2 2.5t-2.5 3.5l-1 1h-1v0v1l-1 1l-2 1h-1v1h-1h-1v1l-1 1h-2h-1l-1 1q0 1 -1 1h-1l-1 1h-2h-1h-1q-1 1 -12 1h-2v-1v0h-1h-1q-1 0 -2 -1q-2 0 -4 -1l-1 -1h-1v0l-2 -1l-1.5 -1.5t-1 -0.5t-2 -1l-1.5 -1q-1 0 -5 -5q-1 -3 -2 -3q-1 -2 -5 -9q0 -2 -1 -6l-1 -4v-5v-4h1v-1
v-2v-1q1 0 1 -2l1 -1l-1 -1h1v-1l1 -3l1 -3h1v-1l1 -1l1 -1q0 -3 6 -8q5 -4 6 -4v-1q1 -2 5 -2v0v-1h1h2q1 -1 4 -1q1 0 2 -1h2h3v-1v1zM864 519h1v0h-1zM821 519v0v0zM806 528h-1v-1h1v1zM810 530h-1v0h1zM795 535v0v-1v1zM924 449v1v-1v0zM909 460h1h-1zM879 479v0v0z
M842 503h1h-1zM836 507h1l-1 -1v1zM812 522v1v-1v0zM346 528h1v-1h-1v1zM345 528l1 1v-1h-1zM211 529v0v0zM210 531v0v-1v1zM787 535l1 1v-1h-1zM683 540v0v0zM781 540h1h-1zM684 601v1h-1v1h-1h-1l-1 1h1v1h-1h-1l-2 1l-2 2v0l-2 1q-1 0 -1.5 0.5t-2 0.5h-1.5h8l4 -1h1h2
q1 -1 2 -1v-3v-3v-1l-1 -1v1z" />
  </g>

</svg>
