<?xml version="1.0" standalone="no"?>
<!DOCTYPE svg PUBLIC "-//W3C//DTD SVG 1.1//EN" "http://www.w3.org/Graphics/SVG/1.1/DTD/svg11.dtd" >
<svg viewBox="0 -200 1203 1000">
  <g transform="matrix(1 0 0 -1 0 800)">
   <path fill="currentColor"
d="M386 85l-28.5 0.5t-34.5 1t-56.5 0.5t-84 1t-67.5 1l-34 1l-9 1q-13 1 -13 2q-1 1 0 1l1 1l-1 19q-1 19 -1 30q-5 98 -6 148q0 16 -1 20v57t0.5 54.5t0.5 18t0.5 36.5t1.5 34v15l3 1q2 0 17.5 0.5t25.5 1.5q12 0 47 2q21 0 48 1q11 0 29 1q18 0 36 0.5t28.5 1t39 0.5
t48.5 1q23 0 90 1h36q11 1 33 1q27 0 55 1q11 1 11.5 0.5t-2.5 -2.5q-5 -4 -8 -10q-5 -6 -6 -15v-5v-4q2 -12 11 -20q6 -7 14 -9l5 -1h5h5l3 1q6 2 11 5q8 6 13 17l1 3v6v7l-1 4q-3 12 -11 19l-4 3q-1 1 -2 1q0 2 57 2q36 0 47 1h90.5h113.5q77 -1 119 -2q37 -1 46 -2
q4 0 12 -0.5t18 -0.5l26 -2q39 -2 39 -2.5v-17.5q-1 -20 -1 -35q-1 -41 -2 -69l-3 -57q-1 -17 -1 -27q0 -8 -1 -14q0 -5 -1 -25.5t-1 -23.5t-1 -23q-2 -30 -4 -67l-2 -45l-1 -24l-1 -4q-1 -5 -3 -6l-1 -1h-39q-39 0 -68 -1t-59 -1q-98 -1 -110 -2q-6 0 -24.5 -0.5
t-26.5 -0.5q-22 -1 -88 -2q-35 -1 -55 -1.5t-82 -0.5q-123 0 -212 -1h-30zM604 229q1 1 6 1q8 1 19 8q17 9 25 23q10 16 15 34q8 33 10 64l1 7h-6q-5 0 -20 1t-22 1h-7h-1l-1 -1l-2 -6q-3 -17 -7 -23l-5 -5q-10 -7 -17 -8l-3 -1l-6 3q-20 9 -24 14l-2 2l-1 5q-1 5 -3 7l-1 2
l1 1v1l-2 2l-2 2h-6q-7 0 -22.5 1t-22.5 1h-7v-2q1 -2 1 -9q2 -39 5 -54q2 -10 5 -17l3 -6q0 -3 6.5 -12.5t11.5 -13.5l4 -5l6 -3q6 -3 8 -5q18 -6 29 -8q8 -1 24 -1l9 -1zM284 234q12 3 16 5l4 1l9 9q13 12 17 17q7 11 11 19t7 33q1 5 2 21l1 16l-1 1l-1 2h-17q-17 1 -24 1
h-7l-1 -1l-1 -1l-1 -4q-4 -20 -12 -28l-2 -2l-6 -3l-6 -4h-7q-13 0 -18 2l-2 1l-6 7l-6 6l-5 10q-5 10 -6 12.5t-2 3.5l-1 1h-17q-17 0 -24 1h-7v-1v-2h-1h-1l1 -5l1 -14q1 -16 5 -33q4 -16 10 -28q6 -13 22 -23l6 -5l7 -3q24 -10 43 -13l8 -2zM940 253q1 1 2 1l1 1l3 -1
q4 -1 7 -2h4l10 1l9 1l9 3q20 5 31 10q3 2 8 5l6 3l3 4q17 18 22 39q4 19 6 43l1 2l-1 1q-3 2 -39 2h-7l-1 -2l-1 -2h-1h-1v2h-1l-2 -6q-2 -12 -7 -18q-6 -9 -22 -13l-7 -2h-8h-7l-4 1q-5 1 -11 3l-2 1l-5 5q-4 4 -6 7q-3 6 -10 27l-1 3l-1 1l-16 -1h-18.5h-6.5h-4l-1 -1
q0 -1 3 -23l2 -22l2 -8l2 -8l3 -6q6 -12 19 -25q16 -16 28 -22q3 -2 5 -3q4 -3 5 -1z" />
  </g>

</svg>
