<?xml version="1.0" standalone="no"?>
<!DOCTYPE svg PUBLIC "-//W3C//DTD SVG 1.1//EN" "http://www.w3.org/Graphics/SVG/1.1/DTD/svg11.dtd" >
<svg viewBox="0 -200 1007 1000">
  <g transform="matrix(1 0 0 -1 0 800)">
   <path fill="currentColor"
d="M507 -159v0v0zM54 -86h-1v1l-1 1v6q0 7 -0.5 8.5t-0.5 5t-0.5 6.5t-0.5 6l-1 8v7q-1 13 -1 16q-1 6 -1 17q0 8 -0.5 13.5t-0.5 39v48.5q-1 70 -1 131q1 17 1 29v13h1h2q5 2 8 2h1.5t3.5 1q6 0 11 1q3 1 4.5 1t3.5 1h2h1h1l1 -2l2 -1h19h25q9 0 33 1q30 0 36 1h13l24 1h23
q16 1 53 1h24l1 1h1h2h14q8 0 17 1h8t6.5 0.5t7 0.5t4.5 0.5t4.5 0.5h6.5q12 1 26 3q2 0 7.5 0.5t10 1t5.5 0.5q3 0 17 2h6l2 1v-1h1v-13v-12.5v-1.5v-2t1 -91v-32q1 -19 1 -20v-1v0v-5v-25t0.5 -30t0.5 -17v-6v-9.5v-9.5q1 -1 1 -34q0 -11 0.5 -20t0.5 -18v-9h-1v-1h-5
q-7 -1 -16 -1q-6 -1 -10 -1q-7 0 -9 -1h-6l-8 -1h-3t-7 -0.5t-8 -0.5h-4.5h-4t-8 -0.5t-6 -0.5h-2.5v-1h-3l-2 1l-3 -1q-6 -1 -12 -1h-4v0h-4h-4l-1 -1v0v1v-1h-7.5h-8.5q-4 -1 -17 -1h-16h-1h-1v0h-7h-7l-1 -1v1h-1h-1l-10 -1h-11v1h-1l-1 -1l-1 1v-1h-5h-6h-7h-7v-1h-1v0
h-8h-9v0h-12h-11v-1v-1v1v1l-4 -1h-4h-1h-1h1h-7h-9t-11.5 -0.5l-8.5 -0.5h-8.5h-11t-11.5 -1h-10h-1h-1v1v-1h-13q-14 -1 -16 0q-2 0 -5.5 -0.5l-3.5 -0.5h-1l-1 1v-1h-8q-4 0 -6.5 -0.5t-4.5 -0.5zM185 -81v0v0zM488 29v0v0zM246 97l1 1h-1l1 1l3 1l3 1v1l1 1h1l1 1l3 2
l1 1v1l1 1l1 1l1 1l1 1h-1h1l1 2l1 2v1v0l1 3q1 3 1 4v1h-1v0l1 1v2q0 2 -1 4l-1 2l-2 3l-2 3l-2 1l-1 1l-3 2q-2 1 -4 1l-2 1h-2h-3v-1v1l-3 -1q-2 -1 -2.5 -1t-3.5 -1l-3 -2l-3 2l-4 2h-4h-5l-3 -1l-3 -1l-2 -3l-2 -2l-2 -3l-1 -2l-1 -3v-2v-2v-2v-3l1 -2l1 -3
q6 -11 17 -11h3h2l2 1l3 -3l2 -2h1l0.5 -0.5t1 -0.5h1.5q1 -1 3 -1h1l1 -1q2 -2 3 -1zM248 98v1v-1v0zM267 117v0v0zM269 -80v1l1 -1h-1zM582 -68l1 1v-1h1h-1h-1zM586 -65h-1v4q-2 23 -2 37q0 11 -1 18v3v53q0 58 -2 138v42q0 51 -1 55v1h28q46 0 88 -1h29l114 -1
q34 -1 62 -1q12 0 27 -0.5t23 -0.5t25 -0.5t21.5 -0.5h6.5h2v-3v-3v-41q1 -62 1 -95q0 -13 1 -54v-65v-10.5v-29.5v-19l-1 -2l-1 -1h-1q-2 0 -6 -1l-4 -1h-3q-2 0 -4 -0.5t-5.5 -0.5t-5 -0.5t-4.5 -0.5h-3v-1v1h-1l-3 -1h-6l-9 -1l-2.5 -0.5t-5.5 -0.5h-6q-4 0 -8 -1
q-1 0 -4 -0.5t-4 -0.5h-3q-6 -1 -8 -1q-2 -1 -4 -1t-13 -1q-6 -1 -9.5 -1h-5.5q-1 -1 -10.5 -1h-10.5h-7q-12 -1 -31 -1h-20l-9 -1l-1 -1v1h-3h-10q-31 -1 -34 -1q-1 -1 -11 -1q-12 0 -22 -1h-13t-13 -1h-30l-17 -1l-1 1h-2l-1 1q-1 1 -2 1v1l-4 -1l-13 -2q-9 -1 -12 -2
q-1 0 -6 -0.5t-6 -1.5h-2v1zM820 132v1l1 -1h1h2q2 1 3 1q4 0 4 1q1 1 2 1l1 1v1l2 1l2 2v1v2h1v-1v1v1h1v0v1l2 1h1h2h3l2 1q2 0 3 1l2 1l2 2l1 2l1 2l1 2l1 3v3v3l-1 3l-1 2l-1 3l-2 2l-2 2l-2 1l-2 1l-2 1l-3 1h-3h-3l-2 -1q-3 0 -5 -2l-2 -1h-1l-1 -2l-1 -2h-2
q-1 1 -4 1h-3h-2l-2 -1l-3 -1l-2 -1l-3 -3l-3 -3v-1v0v-1l-1 -1l-1 -1v-3l-1 -3v-3q1 -5 2 -8l2 -3l3 -4l3 -4h2l2 -1h1q2 0 3 -1h2zM835.5 141q-0.5 0 -0.5 0.5v1.5h-1h-1v1q-1 1 0 2l1 1v1h-1h2h1l1 -1h1v0v-1v-1l-1 -1h1v1h1v-1h-1l-1 -1v-1v-1h-1.5zM835 147v0v0z
M832 143v0h1h-1v-1v1zM836 137v1v-1v0zM737 -60v0v-1v1zM488 58v0v0v-1v1zM51 347q-1 1 -2 1.5t-2 0.5h-2v5v4v17q1 55 1 60v53v82v32v10q1 12 1 27q1 6 1.5 14.5t0.5 10.5q0 6 1 14v1h1h1v0q1 0 2.5 -1.5l1.5 -1.5h1v-1h1q3 -2 4.5 -3.5t3.5 -2.5h1v-1q1 0 2 -1t1.5 -1
t2 -1.5t2 -1.5t1 -0.5t2.5 -2t3 -1.5q2 -4 4 -4q1 0 2 -1v-1h1l4 -2.5t5 -2.5q0 -1 1.5 -2t3.5 -2.5t3 -1.5l3 -3l3 -2h1q1 0 1 -0.5t2 -1.5q2 -2 8 -5l3 -3h1v0q0 -1 4.5 -4t6.5 -4.5t3.5 -2t1.5 -1t3 -2.5t4 -2.5t1.5 -0.5t1.5 -1q6 -5 8 -5q1 0 1 -0.5t5 -4.5l2 -1
q1 -1 2 -1.5t2 -1.5t2.5 -1.5t3.5 -2.5q5 -3 6 -4t4 -3l14 -9q3 -2 3.5 -2.5l2.5 -2.5l7 -5q5 -3 5.5 -3t0.5 -0.5t2.5 -2t4.5 -3t3 -1.5q2 0 5 -4l2 -1.5t2.5 -2t5.5 -3.5l9 -6q4 -3 4.5 -3t2.5 -2q6 -5 8 -6q1 0 1 -1q2 -1 6 -4l2 -1v-1h1l1 -1q5 -4 16 -11l2 -1.5
t3.5 -2.5t2 -1.5t3.5 -2.5t3.5 -2.5l0.5 -0.5q2 -1 7 -5q8 -6 9 -6q1 -1 8 -6q1 -1 3 -2q2 -2 7 -6q3 -1 6 -4t6 -4q6 -4 8 -6l1 -1h1v-1h1q1 -2 8 -6l4 -3l9 -7q1 -1 2.5 -2t2 -1.5t5.5 -4.5q6 -5 17 -13l8 -6q6 -4 8 -6l7 -5q9 -6 9.5 -6.5l1.5 -1.5l1 -1q4 -4 6 -4
q1 0 19 -13l5 -4h1h1l2 -2q6 -6 9 -7v-1q-1 0 -1 -1h-1h-2l-1 -1h-1l-1 1v-1h-3h-3v-1l-1 1h-1v-1h-1v1h-4q-4 -1 -11 -1h-7v1h-1v-1h-1h-6h-4v-1l-2 1h-2h-1h-6h-5v0h-1v-1h-6h-6.5h-6h-9.5h-5v-1h-5h-4v0h-9h-9v-1h-8h-22h-1v-1v0l-1 1h-2h-2h-1l-1 -1h-1q-2 1 -2 0.5
t-14 -0.5h-3.5h-6.5h-11h-3v-1h-1l-1 1l-2 -1h-21q-25 -1 -25 -2h-1l-1 1l-1 -1l-1 1h-1h-1v-1h-1q-1 1 -1.5 0.5t-6.5 -0.5h-11h-4l-1 -1l-1 1h-2l-8 -1h-6.5h-3h-3.5h-3v0h-4q-8 0 -24 -1l-6 -1h-2h-1v0h-2h-6h-3h-1v1v-1h-1v1l-3 -1h-2h-6h-6l-1 -1v1h-1h-2l-2 -1h-5h-5
v0h-1h-1h-2h-9.5h-8.5h-1v-1h-2h-6h-9l-6 -1zM75 347v1v-1v0zM74 348h-1v0h1zM171 351h-1v0h1zM240 353v0v0zM294 356v0v-1v1zM198 459h2q4 0 6 1v1v1h-1h1h1l1 -1l1 1l1 1l1 -1l-1 1l1 1v1v1v1q1 -1 2 -1l1 1l1 1h-1v0v1v-1l1 1h1h1v-1v1h1l2 2l1 2v1h1v1h1v0l-1 1h1v1v-1
h1v1v2v0v2v4l-1 2l-1 2q-4 6 -11 8l-3 1h-2h-4h-1v-1v-1v1q-1 0 -1 1v5l-1 4l-1 3l-2 4l-2 2l-2 1q-2 1 -3.5 2.5t-2.5 1.5h-1v0h-1h-4q-6 -1 -10 -4q-4 -4 -4 -5l-1.5 -1.5t-1.5 -2v-1.5l-1 -2v-5v-5l1 -3l1 -2l1 -2q2 -3 3 -3l1 -1t1.5 -1t2.5 -1l1 -1h4h4h1v-1l-1 -1
l1 -4v-4l2 -3l1 -3l1 -1l1 -1l1 -1l1 -1l2 -1l3 -1h1h1h1zM205 461v0v-1v1zM210 464h1v1v-1h-1zM210 465h1v0h-1zM207 470v0v0zM199 484v0v0zM205 459v0v-1v1zM207 461v1v-1v-1v1v0zM212 463v0v0zM212 465v1v-1v0h1h-1zM213 465v0v0zM216 466v0v-1v1zM216 468v0h-1h1z
M606 352l-2.5 0.5l-2.5 0.5h-2l-1 -1l-2 1l-1 1h-1v-1l-2 1l-2 1h-4l-3 1h-2l-2 1h1q6 1 13 9l1.5 1.5t4 3.5t3.5 3l1 1v1h-1v1l1 -1v1v1h2h2h1v1h1l1 -1l2 3l3 2l5 4l7 6l12 10l21 17q4 3 6 4q1 2 16 14l10 8l4 3l3 2q1 2 8 8l11 8l18 15l14 11l32 25l3 2l16 13q8 6 9 6.5
t3.5 2.5t3.5 2.5t5 3.5q7 6 9 7l9 7l12 9l16 12l8 6l10 8l14 10l13 10l14 11l34 26q15 12 17 13h1v-1v-1v-1l1 -1v-4v-8t0.5 -4t1.5 -11v-7q0 -4 0.5 -7.5l0.5 -3.5v-4q0 -11 1 -14v-2h-1l1 -2q0 -3 0.5 -7t1 -11t0.5 -11t0.5 -4.5t0.5 -10.5q1 -4 1 -5.5v-5t0.5 -4.5
t0.5 -4.5t0.5 -7.5t0.5 -8q1 -16 2 -20v-5t0.5 -6t0.5 -5v-3l0.5 -3.5t0.5 -4t0.5 -6t0.5 -6.5q0 -2 1 -12v-10.5v-7.5q0 -1 1 -20q0 -4 0.5 -7t0.5 -10q0 -12 1 -17v-7t1 -8v-2l-1 -2v-1h-1v-1h-1q-1 -1 -5 -1h-3l-1 1h-8q-2 1 -3 1l-6 0.5t-6.5 0t-29.5 -1.5h-10h-2v1
l-1 -1h-8h-8v-1h-1l1 1h-1h-1l-2 1v-1h-10h-14h-4h-1h-1v0h-10h-10.5h-3.5h-11h-7h-1h-1h-1h-5h-6h-1v0h-4h-11h-10h-9h-8v1v-1h-1h-1h-2h-1l-2 1v-1h-6h-6l-1 -1v1h-1h-1l1 1l-2 -1h-1h-3q-2 1 -4 0h-20h-10.5h-6.5q-12 1 -33 0h-10l-1 -1v1h-4h-5h-1h-1h-1v-1l-1 1h-1h-2
h-9h-6v0h-3h-4q-2 -1 -5 0h-4h-1h-1v-1l-1 1h-1v-1h-2h-2zM784 354h-1v-1zM610 354h-1h1zM782 354v0v0zM866 484l1 1v-1h1v0h1h1v1v1h1v-1h-1h1v0v1h1v0v1h2v1h1v0v1v1v1v-1h1v1h-1l-1 3v1v1l-1 -1v-1v1q0 1 -1 1v1h1l1 1v1v1h-1l1 1l1 1h1v0v1h1h1h1q1 -1 2 -1h1h1v-1h-1h1
v-1v1h1l1 1l-1 -1v-1h1l1 1l1 1l2 1h2l2 2q4 2 6 6l1 2v5v4l-2 3l-1 3l-2 2q-3 4 -8 5l-2 1h-4h-4l-3 -1l-2 -1l-2 -2l-2 -2v-1l-2 -4l-1 -3l-3 -1q-4 -1 -5 -1h-2l-1 1h-1v-2v-1l-2 -2l-2 -2l-1 -2l-2 -2v-2l-1 -2v-4v-4q1 -1 2 -4l1 -2l1 -1l1 -2l1 -1q1 0 2 -1l4 -2l4 -1
h2h3zM874 490v1v-1v0zM872 498h1v0h-1zM873 499h-1h1v0v-1v1zM875 503h1v0h-1zM876 504h1h-1zM858 484h-1v0h1zM881 490l-1 1v-1h1v0zM884 494v0v0zM876 499v0h-1h1v-1v1zM885 499v1v-1v0zM853 352v0v0zM593 353v0v-1v1zM594 353h1l-1 -1v1zM791 353h1v-1zM372 356h1v0h-1z
" />
  </g>

</svg>
