<?xml version="1.0" standalone="no"?>
<!DOCTYPE svg PUBLIC "-//W3C//DTD SVG 1.1//EN" "http://www.w3.org/Graphics/SVG/1.1/DTD/svg11.dtd" >
<svg viewBox="0 -200 1000 1000">
  <g transform="matrix(1 0 0 -1 0 800)">
   <path fill="currentColor"
d="M503.5 -135.5q-0.5 0.5 -8.5 0.5t-8.5 0.5t-3.5 0.5q-9 1 -12 1t-4.5 0.5t-3.5 0.5q-6 1 -9 2q-2 0 -4 1q-8 1 -10.5 1.5t-5 1.5t-7.5 2q-18 5 -25 8q-1 1 -1.5 1t-2 0.5t-2 0.5t-2.5 1t-3 1h-1v1h-1h-1q0 1 -1 1q-6 2 -12 5q-2 1 -2.5 0.5t-2.5 1.5t-4 2t-2 0.5t-1 0.5
h-1l-1 1l-1 1h-1h-2v1v1q-3 0 -20 10q-7 3 -12 7q-2 2 -2.5 2t-2 1.5t-2.5 1.5t-9 7q-3 3 -4 3t-1 0.5t-1 1.5l-1 1q0 1 -1 2q-4 2 -8 6q0 1 -3 3l-3 3l-2 2q-2 1 -14 12l-5 5l-5 7q-9 12 -11 14l-2 2l-14 20t-5.5 8l-1.5 2l-2.5 3.5t-2.5 4.5q-1 0 -1 0.5t-1 3.5q-5 7 -6 9
q-3 6 -7 15t-7 18q-2 4 -2.5 4.5t-1 3t-1.5 4.5l-1 1l-1 1h-1v2q-1 2 -1.5 4.5t-2.5 11.5q-5 16 -5 18q-1 4 -3 9v1v3v3l-1 5l-1 5l-1 7q0 7 -1 11q-1 10 -2 12l-1 1v8v7v2q1 1 1 2.5t1 7.5v7v6q-1 9 0 20v5v2l-1 2l2 2l1 3l1 5q2 6 2 8.5v3.5q1 1 2 10q1 19 4 29v2l1 9v9
l-1 3l-3 21v8v30q0 30 1 36v6l1 1q0 2 1 11q0 4 0.5 4.5t0.5 6t1 8.5q1 6 2 9q0 5 2 12q1 4 1 5.5t1.5 6t2 6.5t1 3t1 4t1 4t0.5 1.5t0.5 1t1.5 3.5q4 16 6 18q1 1 2.5 4t3.5 6.5t2.5 5t1 1.5t0.5 0.5t1 2t2 4.5q4 10 6 12q1 1 1 2.5t2 3.5q6 8 6 10q1 0 4 5q7 10 12 15
q1 1 1 2t0.5 1t4.5 4q4 5 13 15l9 10l6 6l2 2l3 2q5 3 5 6l1 1l1 1l4 4q8 7 10 9q2 1 7 5q3 3 5 4l2 1l1 1v1h2h1l2 1q1 2 2.5 2t2.5 1t4 2.5t3 2.5q1 1 19 10q13 6 15 7q3 2 3.5 2h1.5q4 4 36 13q5 2 10 3q10 4 17 5q1 0 3.5 0.5l5 1t3.5 1t4 0.5t4.5 0.5t4 1t6.5 1t8.5 1
t10.5 1.5t13 1l6 1h5q5 -1 12.5 -1.5t15.5 -0.5h8l3 -1q3 0 9 -1.5t9 -2l9 -1.5l7 -1l4 -1q5 -2 10 -3q8 -2 17 -5q14 -6 20 -8q4 -1 24 -11q12 -6 12 -6.5t1 -0.5t1.5 -1t2.5 -2t2.5 -1.5t6 -4l5.5 -3.5q3 -4 5 -4t8 -5q11 -9 22 -20q39 -37 53 -59l8 -12q1 -1 2 -4l3 -4
q2 -4 8 -13q2 -4 2 -4.5t3 -4.5l3 -4v-1q1 -2 2 -3.5t1 -3.5q0 -1 1 -4q1 -1 1 -2.5t1.5 -3t2.5 -4.5t1 -3.5t0.5 -1.5l1 -2t1 -3.5t0.5 -3v-1.5t1 -2.5t1 -2.5t1 -5.5t1.5 -6l0.5 -1.5q1 -1 2 -9v-3q1 -1 2 -8q1 -5 3 -10l2 -6v-1q-1 -1 -0.5 -1.5t0.5 -3.5t0.5 -4t0.5 -6
t1 -9v-4h-1h1v-5t1 -8q2 -19 0 -30q0 -4 -1 -18v-4v-1l-1 -1h1h1l-1 -1v-7l-1 -15q0 -8 -0.5 -11t-0.5 -10.5t-0.5 -8t-1 -5.5t-0.5 -9q-2 -10 -3 -25q0 -3 -0.5 -9.5t-0.5 -17.5v-11v-6q1 -6 1 -19v-14l1 -3v-12.5v-9.5q-1 -1 -1 -10v-14q-1 -1 -1 -2q-1 -10 -1 -13
q-1 -4 -1 -7l-2 -12l-1 -4v-1v-1v-1q-1 -1 -2 -5.5t-1 -5t-0.5 -2.5t-1.5 -3.5t-1 -3t-1 -4.5q-2 -5 -4 -14q0 -2 -1 -3q-1 -2 -3 -9q-1 -5 -1.5 -6.5t-0.5 -2.5v-2l-3 -6q-3 -6 -3.5 -7.5t-1.5 -1.5v-1v-1l-1 -1q-1 0 -1.5 -1.5t-1.5 -3t-1 -2t-3 -3.5q0 -1 -0.5 -2
t-1.5 -1h-1l-1 1q-2 1 -3 1h-1l-1 -1l-2 -1q0 -2 -5 -8l-4 -6l-1 -1q-2 -3 -2 -3.5t-1 -1.5t-1 -2t-0.5 -1t-1.5 -1v-1l-2 -2l-2 -2q0 -2 -6 -8q-1 0 -1 -0.5t-3 -4.5l-3 -3v-1v-1h-1q-1 0 -2 -1t-1 -1.5t-1.5 -1.5t-1.5 -1.5t-1.5 -2.5t-1.5 -2.5t-1 -0.5h-1v-1l-2 -2
q-3 -2 -4 -3.5t-2 -1.5l-8 -8l-4 -4q-2 0 -6 -4q-1 -1 -1.5 -1t-0.5 -1q-1 -1 -7 -6q-2 -1 -4 -3l-1 -1h-1h-1v-1h-1l-3 -3l-3 -2l-2 -1q-1 -2 -2 -2q-2 0 -3 -3l-1 -1h-1h-2l-2 -2q-2 -2 -7 -4l-3 -2v-1h-1h-1l-1 -1l-6 -3l-1.5 -1.5t-3 -1.5t-3 -2t-1.5 -1t-2 -1t-3 -2
t-4 -2.5l-2 -1.5q-3 0 -5 -4h-1h-1v-1v-1l-1 1h-1v-1h-6h-5l-2 -1q-2 -1 -4 -1q-4 0 -4.5 -0.5t-4 -0.5t-4.5 -1t-6 -1l-1 -1l-1 -1h-1h-1h-1l-1 -1h-2q-2 0 -4 -1t-3 -1h-1v-1h-2q-3 0 -4 -1l-6 -2q-2 0 -5 -0.5t-4.5 -1t-2.5 -1.5h-1h-1l-1 1v-1v-1l-1 1h-1h-1
q-1 -1 -2 -1t-6 -1q-2 0 -20.5 -0.5t-19 0zM538 329q5 1 6.5 2t4.5 2t6 2.5t4 1.5h1v1v1h1h1l3 1q2 2 2.5 2t4 2l3.5 2q1 0 9 5t8 5.5t2 0.5q3 2 4 3l5 4q6 4 15.5 13t12.5 15q1 2 1.5 2t0.5 1t1 3q7 13 7 21v2q1 1 5 17q1 5 1.5 5.5t1.5 6.5l2 11q2 7 2 9t0.5 3.5t0.5 9.5
l1 8v13q-1 12 -1 17q0 10 -2 13l-1 2v2v2v3l-2 3l-1 3q1 0 1 2v1h-1q0 1 -0.5 2.5t-1 2t-2 4t-1.5 4t-1 1t-1 1.5q1 3 -1 3v1v1h-1h-1v1q-1 2 -1 3v1l-1 1l-1 1l-1 3q0 2 -2 7l-1 5l-1 1q-2 1 -2 3l-1 1h-1l-2 1l-2 2l-1 2l-3 2q-3 1 -2 4l2 2l1 1h2v1q0 1 -0.5 1.5
l-1.5 1.5q-1 4 -3 4q0 1 -1 1q-7 3 -7 4t-1 1h-1v1l-1 -1l-1 1v1h-1h-1v1h-1l-2 1l-1 1t-3 2t-3 2l-2 1v1h-1h-1l-1 1q-1 1 -2 1h-1l-1 1q-2 0 -7 3q-1 1 -2.5 1t-1.5 0.5t-1.5 1l-1.5 0.5l-1 1v1h-1h-2v1h-1h-2h-1v1v1l-1 -1v1v1h-1h-1h-1q-1 1 -2 1h-1v1h-1h-1v0l-3 1
l-3 1v1h-1l-1 -1l-3 1q-6 2 -14 2q-3 1 -5 1h-1l-1 1q-1 1 -29 2h-2v0h-5h-6.5h-7.5h-6v-1h-1h-1v-1l-1 1l-1 -1l-2 -0.5t-4 -1.5h-3l-3 -1h-3l-2 -1q-4 -2 -5 -2q0 -1 -1 -1t-2 -1t-3 -2q-6 -4 -8 -6l-2 -1l-1 -1l-1 -2l-1 -2h-1h-2h-2l-2 -1l-1 -1h-1l-2 -2q-1 -1 -3 -1
l-1 -1q-1 -1 -1.5 -1t-0.5 -1l-5 -2.5t-1 -1.5t-1 -1q-2 0 -6 -4q0 -1 -2 -2l-2 -1v-1v-1h-2l-1 -1v-1v-1h-1h-1l-1 -1l-1 -1q0 -3 -3 -4v-1t-1.5 -2.5t-1.5 -2.5h-1v-1v-2v1h-1v-1v-2h-1h-1v-2v-1l-2 -2q-1 -1 -1.5 -2.5t-1.5 -3t-1.5 -3.5t-1.5 -2q0 -1 -1 -1l-1 -1v-1v-2
l-1 -1v-1v-1h1l-1 -1q-1 0 -1 -2v-1h-2q-2 0 -2 -1h-1h-1v-1q-1 0 -2 -2.5t-1.5 -2.5t-0.5 -1t-1 -1.5t-1 -1t-0.5 -0.5h-0.5l-1 -1h1h1l-1 -1l-1 -2h-1v-1q0 -1 -1 -4l-1 -2h-2q-2 0 -2 -1h-1v-2v-1l-1 -2l-1 -2l-1 -2q-1 -13 0 -27l1 -11l1 -1v-1v-1h-1l1 -3q0 -3 1 -5
q1 -11 2 -13v-1v-1q-1 -2 -1 -3v-1q-1 -1 -1 -18v-6v-1l1 -4q2 -4 3 -5l1 -1l1 -2v-3v-1l2 -2q1 -2 4 -7t4 -6q1 -4 5 -7l3 -3l5 -6q5 -5 5.5 -5t6.5 -6l6 -6h1v-1l-1 -1h1q1 0 9 -6q4 -4 6 -4q3 0 6 -7v-3l2 -1l2 -1l2 -1q2 0 4 -1q5 -2 8 -3l10 -4q7 -3 9 -3.5t2.5 -1
t1.5 -0.5t8 -2l6 -2l4 -1h3v-1q1 -1 7 -3l4 -1l2 -1l2 -1l3 -1h23q2 -1 6 0h4v1l1 1h3h3h2q2 -1 5 -3q4 -2 8 0z" />
  </g>

</svg>
