<?xml version="1.0" standalone="no"?>
<!DOCTYPE svg PUBLIC "-//W3C//DTD SVG 1.1//EN" "http://www.w3.org/Graphics/SVG/1.1/DTD/svg11.dtd" >
<svg viewBox="0 -200 1000 1000">
  <g transform="matrix(1 0 0 -1 0 800)">
   <path fill="currentColor"
d="M475 -128q-8 4 -10 8q-4 8 -1 20q2 6 3 7.5t7 3.5q9 3 11 2q1 -1 2 0q2 2 -2 14l-4.5 15t-3.5 10q-7 23 5 45q4 7 10 10l4 2l12 1h13l5 -4q5 -5 8 -6q4 -2 5 -11q0 -5 1 -5q0 -1 6 5q3 3 3 7q3 15 -1 35q-4 17 -6 32q-3 21 -2 26q4 12 9 22q1 2 6.5 8t6 6t5.5 5
q14 12 35 19q20 6 25 11q1 1 1 4.5t-1 5t-8 6.5q-9 7 -15 17l-4 6v7q-1 18 2 39l2 10.5t1.5 7.5t0 3.5t-5.5 5.5q-7 6 -12 15q-3 7 -3 20q0 8 2 12t4 7q4 5 0 6q-7 1 -21 10q-9 5 -13 12l-7 9.5t-4 6.5q-1 10 1 13l4 6q2 2 10 5q3 2 3 3q1 3 -5 5q-1 0 -3.5 2.5t-3.5 3l-2 1
t-3 1t-2 2t-1.5 2.5t-3 3t-2.5 2t-1.5 1t-5 4.5t-9.5 11.5l-11 15q-5 8 -10 24q-6 16 -6 34q0 22 -3 25q-3 2 -6 3t-5 3t-4 2.5t-2 1.5q0 3 -8 4q-3 1 -7 3.5t-5 2.5q-2 0 -5 3q-1 1 -2 0.5t-3 1t-3 1.5t-4 1t-4 1t-7 3t-14 4q-1 0 -3 2t-4.5 2t-4.5 1t-4 1q-5 0 -7 3
q0 1 -2.5 2t-4.5 2q-5 4 -8 5q-4 2 -16 11q-10 8 -20 26l-5 9q-6 11 -12 31q-6 17 -9 24q-1 3 -4 6t-7 9q-6 7 -8 5l-1 -7q-2 -11 -5 -13q-2 -2 -12 -3q-8 -1 -18 8q-7 6 -7.5 16t6.5 17l5 4l8 2q9 2 14 3q6 0 21 -5q16 -7 24.5 -14.5t17.5 -23.5q4 -8 6.5 -12t6.5 -12
q10 -18 19 -27q3 -4 8 -7q8 -4 11 -4q3 -1 3 0t-2.5 2.5t-3 4t-2 4t-1.5 3.5l-1 3q0 4 -6 13q-2 3 1 9q4 11 12 14t16 2q11 -2 17 -5q13 -7 16 -12q0 -1 4 -4t8 -9q2 -3 4 -5q3 -3 8 -20q3 -9 15 -26q8 -12 14 -18q9 -8 16 -11q5 -3 8 -2t4.5 4.5t1 7t-1.5 5.5q-1 7 -11 14
q-4 3 -6 5.5t-3 2.5t-2 2.5t-2 3.5q-5 5 3 4q4 0 9 -1q5 -2 6 -2t4 -2t6.5 -4t5.5 -6q7 -17 9 -36q1 -11 8 -18q3 -3 6.5 -7t9.5 -9q20 -18 33 -35q4 -5 5 -7q6 -4 1 -31q-2 -8 -2 -11t2 -5t4 -6q6 -8 14 -13q6 -3 11 -2q11 1 12 3q1 1 1 4q1 4 -4 5q-6 2 -17 0q-4 -1 -5 0
q-3 2 1 9q7 12 11 12q1 0 5.5 0.5t6 -1t7.5 -3.5q10 -3 12 -7q1 -2 4 -6q4 -7 6 -15q2 -12 -1 -18q-2 -2 -1 -14q1 -15 3 -22q1 -3 3 -11q4 -15 0 -27q-1 -7 0 -9t4 -4q12 -6 13 -20q0 -4 -1 -6l-3 -6q-3 -6 -9 -8q-2 -1 -5 -1q-7 1 -9 10l-1 4q-3 2 -13 -3l-6 -2
q-1 -1 -1 -2.5t1.5 -2t7 -1.5t9.5 -3t6 -2q6 -3 18 -22q6 -12 8 -21q6 -23 4 -29q-1 -2 -3 -7q-3 -9 -11 -23l-3 -5q-6 -11 -13 -18q-10 -10 -31 -22q-2 -1 -4 -2.5t-3 -1.5q-3 0 -6 -5q-2 -2 -4 -2t-2.5 -0.5t-6.5 -2.5q-10 -3 -9 -6q1 -1 11 -3.5t12 -7.5q4 -9 4 -21
q0 -9 -7 -27q-3 -7 -16 -20t-17 -18l-4 -6q-9 -11 -16 -31l-7 -17q-1 -2 -1 -3q-2 -5 -14 -16t-18 -13q-3 -1 -9 -6l-6 -4q-9 -8 -16 -26q-2 -8 -3.5 -9t-5.5 -5l-9 -7q-5 -3 -6 -3t-7 2zM631 215q1 2 0 4t-1 4v8l1 6l2 3q3 2 5 3q6 4 15 2q5 0 11 -8q2 -3 3 -5l2 -1l-1 4
q0 4 -1.5 5.5t-1.5 3.5q0 7 -11 12q-4 1 -11 1q-11 0 -14 -2q-2 0 -3 -1q-6 -2 -8 -18q-2 -12 6 -20q4 -5 7 -1zM609 290q1 1 0 2.5t-2 2.5q0 4 -2 4q-1 0 -1 -3q-1 -5 3 -6h2zM641 317q3 3 -1 4q-6 1 -6 4q-1 3 2.5 8.5t4.5 11.5q0 7 -1 9.5t-5 2.5q-3 0 -3.5 -0.5
t-2.5 -0.5t-2.5 -1t-1.5 -1t-2.5 -1t-2.5 0q-2 0 -2.5 -1t-1.5 -6l-1 -6l4 -7q7 -12 11 -15q3 -2 8 -3q1 0 3 2zM536 464.5q0 2.5 0.5 5t0.5 4.5q-2 4 -2 13q0 2 1 4.5t2 4.5l1 3l6 2q8 3 20 1q7 -2 10 -3q6 -4 6 -1q0 4 -8 9q-3 2 -3.5 3t-1.5 1t-3 2q-6 5 -8 5
q-1 0 -4 1.5t-9 0.5q-11 0 -17 -3q-4 -1 -5 -8q-1 -2 -1 -2.5t1 -9.5q1 -16 5 -25q5 -10 8 -10q1 0 1 2.5z" />
  </g>

</svg>
