<?xml version="1.0" standalone="no"?>
<!DOCTYPE svg PUBLIC "-//W3C//DTD SVG 1.1//EN" "http://www.w3.org/Graphics/SVG/1.1/DTD/svg11.dtd" >
<svg viewBox="0 -200 1000 1000">
  <g transform="matrix(1 0 0 -1 0 800)">
   <path fill="currentColor"
d="M691 -48q-12 5 -14 6q-7 4 -35 14q-8 3 -9.5 4t-7.5 3t-8.5 3t-3.5 1t-4 1q-7 3 -35 13l-18 5q-5 2 -12 4l-14 4q-7 2 -12 3l-11 3l-9 1.5t-13 3.5q-26 6 -55 9h-49h-41l-19 -2l-23.5 -2.5t-13.5 -2.5q-37 -5 -44 -8q-5 -1 -5.5 -0.5t-1.5 -0.5t-7 -2t-7 -2l-4 -2l-2 -1
l-1 1h-1l-2 -2l-3 -2h-3h-4q-3 -3 -9 -3q-2 0 -2 -1v-1h-2h-2v-1q0 -1 -1.5 -1t-3.5 -1.5t-6 -1.5h-4l-6 -3q-5 -2 -6 -2t-3.5 -1.5t-5 -2t-3.5 -1.5l-2 -2l-6 -1l-7 -1l-1 -1l-1 -2h-2h-3l-5 -2l-5 -3l-1 1h-1v-1q0 -1 -1 -1q-6 0 -13 -3q-1 -1 -2.5 -1t-6 -2.5t-5.5 -2
t-5 -1.5l-4 -2l-7 -1l-8 -1l-3 -2q-3 -1 -8 -3l-4 -1l-3 1q-14 5 -15 10l-1 1l3 4q2 5 3.5 7.5t3 6.5t3 6t1.5 3t1 2t6.5 12t8.5 15t5 9.5t4 7.5t2 3.5v1.5q1 0 4.5 6.5t3.5 7.5t2 4t5.5 10t4 7t4 6.5t3.5 7.5t2 2.5t2 3.5t1 3l2 1v2v3q3 1 10 15q4 8 4.5 8t4 7t4.5 8
q5 7 5 11q0 1 2 3q3 5 9 16q2 5 3.5 7t1.5 3q0 5 6 11q2 2 2 3t2.5 5t2.5 5t3.5 5.5t5.5 9.5t2 6q5 6 6 11q1 2 4.5 7t5 8t2.5 4.5t3 6t4 7.5t3.5 6t4.5 8.5l6 11t4 6.5t1 2q0 2 13 25l2 4q1 2 4.5 8t3.5 7t1.5 1.5t2 3.5t2.5 4l1 2l1 3l1 3l1 2q2 1 2 2.5t1.5 3t3.5 6.5
q10 18 14 24q5 8 5 9q0 2 2 4t2 3.5t1.5 4t1.5 3.5t1 1t1 1.5t1 2.5h2v2v2l3 5q3 4 3 4.5t3 5t3 6t1 1.5t2 3l2 4l2 2l2 1l7 -3l16 -8l59 -33l14 -8l15 -8q9 -5 10 -5q4 -3 30 -15.5t35 -15.5l8 -3l3 2q2 2 2 3t1.5 2t2 3.5t2.5 5.5l2 3l1 6v5l-1 3l-1 2l-6 4q-6 4 -25 13
l-63 33l-71 37l-16 8l-3 3l-4 3l1 2l2 4l3 5l3 4.5t2.5 6t4 6.5t2.5 4q0 3 5 11q3 4 3 5q0 4 8 14q1 1 2.5 5.5t3.5 7t3.5 6.5t2.5 4.5t3 5t6.5 12t4.5 8t4.5 8.5t5.5 11t2 3.5t4 7t4.5 8t4 6.5l3.5 7q5 6 5 9q0 1 3.5 6.5t5.5 10.5t4 6t3 4q4 11 8 11q6 0 36 -16l17 -10
q12 -6 16 -8.5t8 -4.5l8 -4l10 -6l10 -5l9 -5q4 -2 5.5 -3t4 -2t4.5 -2.5t16.5 -9t20.5 -11t6.5 -3.5t6 -3l16.5 -9q23 -12 31 -17q22 -12 28 -13l3 -1l7 -4q7 -4 13 -7q10 -4 28 -16q11 -7 13 -8q11 -6 15 -9q7 -4 23 -12q3 -1 12.5 -6.5l9.5 -5.5q2 0 32 -19l26 -13
q10 -5 16 -9t20 -9q6 -2 11 -5l15 -8l20 -10q9 -4 11 -8l1 -3l-3 -5q-3 -6 -3 -7.5t-2.5 -3.5t-2.5 -3.5t-1 -3t-2 -4.5t-2.5 -5.5t-6.5 -11.5l-9 -16t-4 -8t-2 -4q-4 -5 -5 -7t-2 -5q-10 -18 -11 -19t-1 -3t-1 -2.5t-2 -2.5l-2 -4l-3 -5q-2 -3 -3 -5t-3 -5.5t-2 -5.5t-1 -3
t-12 -20q-1 -1 -3.5 -6.5t-3.5 -7.5q-3 -3 -18 -31q-4 -9 -8 -15q-2 -4 -2 -5.5t-2 -3.5t-2 -3t-2 -4.5l-6 -11t-5.5 -9t-2 -4t-4 -8.5t-3.5 -7t-2.5 -4.5t-6 -10.5t-5.5 -10l-11 -20q-4 -8 -4.5 -9.5t-2 -4t-3 -4t-1.5 -2.5t-4.5 -9.5t-5.5 -9t-1 -2.5v-2l-2 -2l-1 -1v-2
q0 -1 -3 -5.5t-7 -12t-4.5 -8t-4.5 -8.5l-8 -16l-6 -11l-5 -10q-4 -6 -5.5 -9t-3.5 -6t-2 -4t-1.5 -3.5t-5 -9t-6.5 -9.5l-2 -4l-2 1q-2 0 -13 4v0v0v0v0v0v0v0v0v0zM524 293q1 3 3 5.5t2 4t3 5.5q7 9 7 13l2 4q2 2 3 4l3 3l2 1l1 3q1 4 4 7t3.5 5.5t2 3t1.5 2.5l1 2l1 1
l1 1q1 1 1 3l2 2l1 1v1l3 5q2 3 2 4t3 4l2 3v3q0 2 1.5 3t-0.5 2l3 5l1 3l1 3v1l1 8v1q0 4 -5 10l-1 2h-2l-4 3l-2 3l-6 3q-7 2 -7 3t-1 1q-5 0 -28 17q-4 3 -6 4t-6.5 4t-5 3t-9.5 6l-24 14q-5 2 -10 5q-7 5 -29 17l-12 7q-27 15 -32 15q-3 0 -8 1l-5 1h-3l-3 -1v-2l-1 -1
l3 -3q15 -12 51 -31q10 -6 11 -6.5t2.5 -0.5t3.5 -2t6.5 -3.5t6.5 -3t4 -1.5l18 -9t23 -12q4 -2 8.5 -4.5t6 -3.5t15.5 -8l20 -10t12 -5l6 -2h4q2 -2 3 -5q1 -6 0.5 -6.5l-3.5 -3.5l-3 -7l-2 -3q-2 -2 -2 -3.5t-1 -1.5t-4.5 -7t-5 -8.5t-1.5 -3t-1.5 -2.5t-3 -4t-3.5 -4
l-2 -2v-2l-2 -3h-2v-3q-1 -2 -3 -5l-2 -2v-2v-2l-2 -1q-2 -2 -2 -5q0 -1 -2 -3.5t-3.5 -5t-2.5 -3.5t-1 -2v-2l-4 -5l-5 -4h-2q-6 0 -11 4q-2 1 -3 1q-2 0 -15 7q-15 9 -16.5 10t-7.5 4t-7.5 4.5t-5.5 3t-5.5 2.5t-5.5 3q-15 8 -25 14l-34 20l-11 6q-3 2 -8 4.5t-6.5 3.5
t-10.5 6l-8 5l-6 1q-5 1 -6 1l-2 -1v-2v-3l3 -2q6 -6 25 -15q54 -26 79 -42l14 -9l27 -17q21 -14 35 -21l6 -4q2 -1 12 -3q1 0 3 3v0v0v0v0v0v0v0v0v0z" />
  </g>

</svg>
