<?xml version="1.0" standalone="no"?>
<!DOCTYPE svg PUBLIC "-//W3C//DTD SVG 1.1//EN" "http://www.w3.org/Graphics/SVG/1.1/DTD/svg11.dtd" >
<svg viewBox="0 -200 1000 1000">
  <g transform="matrix(1 0 0 -1 0 800)">
   <path fill="currentColor"
d="M478 -163h-5q-18 1 -38 4l-13 2l-6 1.5t-8.5 2l-13.5 3t-9 2.5q-4 0 -20 5q-12 4 -16 6q-1 0 -8 3q-19 7 -37 16l-11 5q-8 3 -17 9l-9 5q-5 3 -20 13q-10 6 -26 18q-17 13 -19 15q0 1 -3 3q-9 8 -21 20l-13 13l-8 9q-41 46 -69 103q-6 12 -11 23q-3 6 -3.5 8t-0.5 2.5
t-2 3.5q-3 7 -8 22q-3 10 -3 10.5t-1 2.5q-13 36 -18 91q0 5 -0.5 7t-0.5 26v24l1 14l1 14l1 10q12 69 26 104l4 10q4 11 9 21l3 6q0 3 12 24l3 6q1 2 2 3q1 2 7 12l3 5q10 17 29 39q6 8 11 14l8 8q21 24 35 35q6 6 11 10q1 1 2 1l7 6q5 4 18 13q5 4 6 4q7 7 17 12
q4 2 5.5 3l4.5 3l3 1l1 -1h3q2 1 3 2q7 7 38 20q4 1 7 3q4 2 19 7q4 1 7 2q12 5 22 7q2 0 7 1.5t11 2.5q23 5 27 6q2 0 10 2q17 3 46 6h16.5h17.5l10 -1q7 -1 13 -1l14 -1q30 -3 57 -9q8 -2 19 -4q31 -6 56 -18q2 -1 7 -3q17 -7 43 -22l7 -3.5t3 -2t3 -1.5t5.5 -2.5t5 -2.5
t6.5 -3.5t6.5 -4t3.5 -2.5t3 -2.5t2.5 -2t3.5 -1.5h2l2 -1q3 -2 9 -5l7 -4v-1l-1 -1v-2v-2l1 -2q1 -1 11 -10q52 -48 88 -107q27 -46 27 -53l1.5 -3.5l4 -9.5t2.5 -8q4 -8 11 -30q4 -15 10 -41q3 -14 4 -26q0 -3 1 -10.5t1.5 -12.5l1.5 -15l1 -10l-1 -22v-21l-1 -14
q-2 -22 -10 -59q-3 -16 -12 -42q-3 -10 -3 -11l-6 -15q-2 -8 -4 -14l-3 -6l-2 -1l-1 -2l-4 -7q-4 -7 -4 -8v-2l-1 -1v-1v-2l-1 -1q-1 -1 -3 -4l-2 -4v-5l-1 -5l-2 -2l-2 -3h-1h-2l-1 -1q-1 -1 0 -2h1h1v-1q-3 -7 -9 -10q-4 -2 -4 -2.5t-2 -4t-3 -4.5q-6 -9 -33 -41
q-2 -2 -3 -4t-3 -5l-3 -2l-1 -2l-1 -3l-3 -1q-3 -2 -12 -11q-4 -3 -14 -12l-11 -10q-1 -1 -7 -6l-5 -4l-2 -2l-1 -2l-3 -2q-3 -2 -5 -3h-2l-3 -2q-3 -2 -3.5 -2.5t-2.5 -1.5t-5 -3q-12 -9 -14 -9q0 -1 -4 -3t-5 -3q-8 -6 -52 -27l-7 -3q-4 -2 -5 -2t-1.5 -0.5t-5.5 -2t-6 -2
t-7.5 -3t-8.5 -3t-5 -1.5t-4 -1.5t-3.5 -1t-6 -1.5t-5.5 -1l-1 -1v-1l-1 1h-2q-2 -2 -16 -4l-3 -1h-4l-6 -1q-3 -1 -6 -1.5l-3 -0.5h-2.5t-7.5 -1q-15 -2 -47 -3.5t-33 0.5zM676 96h11l7 1q17 2 25 6q2 0 5 1l3 2h7h8l4 2q4 2 6 4l4 2q2 2 4 3t2.5 1t5.5 4l5 4l10 10l19 18
l9 10l6 7q8 10 14 19q5 7 6 9q19 27 25 79q2 11 3 17q1 4 1.5 7t1.5 7v3v11q-1 13 -3 26q-2 12 -14 33l-3 5q-1 2 -5 7q0 2 -2.5 6t-5.5 8l-6 9l-7 7q-8 10 -24 25t-26 21q-24 15 -35 21l-6 3l-5 2q-5 1 -6 1.5t-2.5 0.5t-5 1t-9 2t-20.5 4l-14 2l-13 1h-13l-5 -1
q-5 0 -9 -1q-14 -1 -24 -4q-13 -3 -14 -4h-1l-4.5 -2l-10.5 -4.5t-8 -3.5q-7 -4 -10 -5q-1 -2 -2 -2q-1 1 -12 -9l-4 -4l-7 -6q-4 -4 -5 -4t-2 -2l-2 -1h-1h-2l-3 -4q-10 -10 -18 -20q-18 -21 -27 -43q-2 -6 -2 -7q-4 -8 -9 -34l-3 -12l-1 -8v-8v-15v-14l1 -12q1 -11 2 -16
q2 -17 6 -26q0 -2 2 -6q7 -25 13 -39l2 -6l6 -8l5 -8l9 -9q31 -30 61 -44q15 -8 18 -8l2 -1l2 1l2 1l1 -1q2 -2 20 -7q26 -7 51 -6q5 0 16 1z" />
  </g>

</svg>
