<?xml version="1.0" standalone="no"?>
<!DOCTYPE svg PUBLIC "-//W3C//DTD SVG 1.1//EN" "http://www.w3.org/Graphics/SVG/1.1/DTD/svg11.dtd" >
<svg viewBox="0 -200 1000 1000">
  <g transform="matrix(1 0 0 -1 0 800)">
   <path fill="currentColor"
d="M613 36zM611 37zM604 37q-30 0 -44 1q-19 2 -27 2q-30 2 -32 3v14q0 14 3 16q2 1 2 1.5t2 2.5t2.5 1t0.5 -4v-3h1q6 -1 17 -1h7v1l1 1h2q3 0 3.5 1t0.5 29t0.5 43t0.5 38v23l-1 1q-4 1 -29 0.5t-31 -1.5q-6 -2 -6 -5v-18.5v-27.5l1 -22q1 -11 1.5 -13t3.5 -3h13h11v-1
q1 -1 1.5 -4.5t1 -9t-0.5 -7.5q-2 -4 -4 -1l-1 2h-7q-25 -1 -51 0q-15 1 -16 2q-1 0 -0.5 8.5t0 10l-0.5 1.5q0 2 8 1q2 0 9.5 0.5t9 1.5t2 1t1.5 1t0.5 27.5t-1.5 35t-1 13.5q0 6 -2 7q-5 1 -40 0q-16 0 -17.5 -1t-5 -2t-4.5 -1q-1 -1 -1 -9v-4l3 -1q4 -1 5 0t1.5 0
t-1.5 -16v-10l-1 -13q-1 -6 -2 -13.5t-1 -11.5t-0.5 -4.5t-11.5 -0.5l-10 2v2.5t1 5.5t1 8.5t-1 5.5t-8 2q-4 0 -13 1q-31 4 -38 2q-6 -2 -6 -4q0 -1 -0.5 -2t-0.5 -3l-1 -2l-2 -3q0 -2 -1 -10t-1.5 -11t-0.5 -9q-2 -18 -2 -22q1 -3 2 -3q8 -2 15 -2q2 0 3 -0.5t1 -2.5
q-2 -8 -3 -11q-1 -4 -2 -5t-4 0q-3 0 -17 1q-20 1 -30 2q-4 0 -8 0.5t-4.5 1t0 4t1.5 6.5q0 3 1 4t3 1t8.5 -0.5t8.5 0.5t3 7q1 15 1 21v6q1 1 1 18.5v18.5q-1 0 -2 1q-2 1 -33 3q-9 0 -13 1q-10 1 -13 -1t-4 -9q0 -5 -1 -11t-1 -7.5t-1 -1.5t-9 1.5t-8.5 2t0.5 8.5
q2 21 3 25q0 1 1 9t1 11t1 7q2 18 3 19h1q7 0 18 -3q1 0 0 -10q-1 -13 -1 -14q1 -3 29 -4l20 -1h10l1 1q2 1 2.5 2.5t1.5 8.5q3 17 4 25q0 1 1 6l1 10q1 6 1.5 11.5t1.5 9.5v5l-1 1q-2 3 -7 3q-3 0 -4.5 0.5t-3.5 1.5q-5 0 -6 2l1 2q2 4 4 16q0 2 5 2h3v4q1 5 2 23
q2 28 1 30t-36 2q-17 1 -19 -2q-1 -2 -2 -7.5t-1 -9.5q-2 -8 -2 -11q0 -2 -0.5 -4.5t-0.5 -3v-1.5t-0.5 -3.5t-0.5 -8.5q-2 -10 0 -12q1 -1 13 -2q9 -1 10 -1t1 -5q-3 -15 -3.5 -15.5t-3.5 -0.5q-69 6 -70 8q-1 1 1 12l2 5q0 3 0.5 3.5t1.5 -0.5q3 -2 18 -2q4 0 4 1
q3 4 4 20q2 11 4 26q2 8 0 9l-1 2q0 2 -3 3q-8 2 -31 3q-10 0 -13 -1l-4.5 -1.5t-2.5 -0.5q-2 2 -3 -1q0 -1 -1 -3.5t-1.5 -4.5t-1.5 -4l-1 -2h-3q-15 2 -17 4q-1 0 1.5 12t4.5 20t3 15l2 9l1 3h2q7 0 16 -2q2 0 2.5 -2.5t0 -2.5t-0.5 -4t-0.5 -5t0 -1t0.5 -1q-1 0 -1 -1
t2 -2t12 -2q23 -1 31 -2h9t4 1t2 12q2 30 2 36q1 5 0.5 7t-1.5 3q-4 2 -15 4h-2v4q1 15 3 15l2 -1q3 0 32 -2q12 0 19.5 -0.5t8.5 -0.5t1.5 -1.5t0.5 -4.5q0 -13 -1 -15q0 -1 -10 -1h-11q-3 -2 -4 -10q0 -6 -0.5 -8t-1 -8.5t-1.5 -10.5q-1 -11 -1 -17q0 -5 2 -6t26.5 -1.5
t25 0t0.5 5.5q2 12 2 14q1 1 2 1q2 1 2.5 3.5t1.5 3t9 0.5q8 -1 9 -1.5t1 -2t0.5 -2t3 0t3.5 1.5q2 1 2 0q1 -7 0 -17v-11q0 -5 -0.5 -9.5t0 -5t2.5 -2t12.5 -2t11.5 0t8.5 0t8.5 -1t16 -1t17 -1t13.5 -0.5t11.5 0.5t1 9.5t1.5 12.5t1.5 13t0.5 11.5l-1 4t-1.5 2q-2 2 -15 2
q-11 0 -13 -2q-1 -1 -5 -1t-6 -0.5l-2 -0.5q-1 1 -15 1q-6 0 -8 -1q-3 -1 -4 -6q0 -4 -1 -4.5t-7 -0.5t-7 0.5t0 8l1.5 11.5t0.5 9t0.5 11t1 6h2.5q7 -1 10 0t4 -1t2 -2t1.5 2t0.5 20.5v27.5q-1 9 -1.5 10t-2.5 1t-2.5 0.5t-3.5 0.5t-6 1q-2 1 -14 1q-15 1 -20 2
q-15 2 -19 1q-1 -1 -4 -1q-6 -2 -8 -5q-1 -1 -1.5 -5.5t-1.5 -5.5v-1h-8h-9q-2 2 0 3q1 0 1.5 2t1.5 3q1 4 1 28q0 18 1 18t2 -0.5t6 0t6 0t1.5 -6.5t2 -9t3.5 -3.5t14 -2.5h9q6 0 27 -2q5 0 14.5 -0.5t11 0.5t1.5 1.5t1 5.5q1 11 1 31q0 11 1 11.5t1 5.5q1 18 1 19h-1t-2 2
l-1 1h-7h-8q-1 -2 -1 2v2q0 5 0.5 9t0.5 5l1 1h19q28 0 30 -1v-2t-1 -6v-5l-7 -1q-7 0 -7 -2t-1 -3t-2 -14q0 -7 -1 -14q-2 -35 -2 -40q0 -7 1 -9q0 -1 5 -1q19 -1 20 -1h11q9 -1 25 -1t18 1q3 1 3 9q1 12 2 13l7 0.5t7.5 0t0.5 -8.5q-1 -22 -2 -35q-1 -4 0 -5.5t1 -4
t-1 -4.5v-1h-5q-5 1 -6 0q-3 -2 -5 -2q-1 0 -1 4v4.5v7v6.5h-2t-2.5 -2t-0.5 -4q-1 -1 -1.5 -2t-1.5 -1q0 1 -2 0l-4 -2q-3 -1 -2 -6q0 -2 -0.5 -4t1.5 -4q2 -5 0 -6t-3 -8q-1 -14 2 -21v-4t3 -2q2 0 4 -0.5t19.5 -2t18.5 -1t10.5 0.5t10 1t1.5 1q2 0 2 4q1 4 1.5 4.5
t2.5 0.5q4 1 9.5 1t6.5 -1t1.5 -3.5t1.5 -3.5q2 -4 -2 -7q-1 -1 -2 -17q0 -7 -2 -8h-9h-8l-2 2q-1 2 -2.5 3t-2.5 3q-3 3 -6 3h-14t-18.5 -1t-9.5 -1h-8q-6 0 -9 -4q-2 -3 -3 -11l-2 -24q-1 -5 -1 -11v-6h4h9q6 -1 38 -3h30h21l2 1l2 2q1 2 2 31q2 54 2 54.5v9t0.5 10.5
t0.5 12q2 30 2 35q2 14 2 59l-1 16q-1 -2 -3 0q-1 3 -12 3q-15 0 -26 1l-16 3q1 1 1 9l1 14q0 6 0.5 6.5t7.5 0.5q9 -1 39 -2q7 0 16 -0.5t10 -0.5h14.5t15 0.5t4.5 0.5t3.5 -0.5t1.5 0.5q1 2 5 0q1 -1 6.5 -1.5t6.5 0.5q4 1 8 1q2 0 3 -1l1.5 -1.5t-0.5 -9.5q-2 -19 -2 -20
q-1 -1 -25 -1q-16 0 -22 -2h-4q-2 0 -3 -3q0 -1 -1 -1t-1 -1t1 -1l1 -1l-2 -1v-1t1 -1v-2q-1 0 -1 -5q-2 -12 -3 -62q-1 -21 0 -21q1 -2 35 -2q22 0 22.5 0.5t0.5 2t0.5 3.5t1.5 59q0 3 -1 3t-2 1q-1 2 -9 1q-8 -2 -9 0l-0.5 5.5t-0.5 7.5q-1 4 0 4t11 1q33 4 38 6
q2 0 4.5 0.5t4 1.5t2.5 1t1.5 -3.5t0.5 -12.5v-8h-2q-2 0 -10 -1q-7 -1 -8 -2t-1 -5q1 -5 -1 -15v-25q0 -24 2 -25t37 -2h16l1 1l2 2v8q0 8 0.5 8.5t10.5 0.5t10.5 -0.5t1 -10t0.5 -10.5t0.5 -5t0.5 -10q2 -23 1 -24q-1 0 -4 -0.5t-4 -0.5t-8.5 0.5t-8 1t-0.5 5.5t-3 7l-3 2
q-1 1 -9 2q-4 1 -5.5 1.5t-3.5 0.5q-4 0 -5 1q0 1 -1.5 0.5t-2 -0.5t-2.5 0.5l-2 0.5l-1 -0.5t-4.5 -0.5t-6 -0.5t-4.5 -0.5q-4 -1 -5 -2.5t-2 -17.5t-1.5 -22.5t0 -7t0.5 -6.5v-6q1 -1 16 -1h6v-11v-10l-1 -1q-1 0 -13 -0.5t-12.5 -0.5t-17 0.5t-18.5 0.5h-2v8v9.5t1 3.5
l1 2h7h8q3 2 4 5q2 15 2 45q0 6 -1 7q-2 1 -8 2q-2 0 -4 1h-11q-4 0 -6 1t-5 1t-3 -1t-1 -1t-3 -0.5t-3 -0.5q-1 1 -5 -1q-2 -1 -3 -1q-3 1 -4 -2v-11.5t-1 -24.5q-1 -46 0 -55q0 -4 2 -6q2 -3 31 -3q12 -1 15 -0.5t6 -0.5h11h11q1 0 2 0.5t2.5 0t2.5 -1.5q15 -2 27 -1
q7 1 10 0q2 -1 6.5 -0.5t5 1.5t0.5 2q0 3 3 2q4 -2 10 -2q5 0 5.5 -1t0.5 -1.5t1 -1.5l1 -1h10q11 0 15.5 0.5t5.5 -0.5t9 -1t10 1q4 2 6 0q1 -1 2 -1t2 -0.5t12 -0.5h10l1 1q4 3 3.5 5.5t-0.5 13.5v12q2 2 4 1t12 -2q6 -1 8 -1q2 1 2.5 0.5t0.5 -3.5q0 -4 1 -10l1 -18
q3 -28 5 -51q1 -5 1 -8q2 -8 -1 -8h-11.5h-11.5q-3 0 -3 7q-1 3 -1.5 6t-0.5 8t-0.5 7t-0.5 4q0 5 -2 5q-13 3 -35 2q-5 -1 -6 0q-4 1 -38 1q-9 0 -10 -0.5t-1 -15t0.5 -22.5t1.5 -9.5t2 -2.5q0 -2 5 -3q14 -1 25 -2l10 -1h3q9 -2 17 -2h5v14q-1 8 -0.5 8.5t9 0.5t8.5 -0.5
v-3.5t1 -11.5t2 -13.5l1 -9q0 -8 1 -21q1 -6 1 -8t-0.5 -3t-9.5 -1q-10 0 -10 3l-0.5 0.5l-0.5 0.5l-0.5 1.5t-1 3.5t-0.5 4q-1 10 -3 11q0 1 -13 3q-9 1 -19 1l-6 1q-1 1 -16 1q-8 0 -10 -2h-1l1 -13q1 -13 1 -19l2 -12q2 -19 3 -22v-3q0 -9 2 -11q0 -1 2 -3l3 -1h4
q20 0 22 2q2 0 3 -0.5t1 -1t1 -0.5q0 -3 1 -16q0 -4 -2 -8q-2 -3 -4 -3t-5 3l-3 3h-3h-9.5t-9 -1t-3 -1.5t-5.5 -0.5q-11 1 -20 0q-5 -1 -8 -1t-8 -1q-8 -2 -10 0q-2 3 -2 21q0 3 1 3t9 1q16 1 21 2l2 1l-1 5q0 12 -1 18q-1 3 -1 8q0 10 -2 26q-1 6 -1.5 12t-0.5 7v3t-2.5 4
t-5.5 3q-7 2 -22 1q-9 0 -17 1h-16t-15 -0.5t-4.5 -1t-0.5 -5.5q-1 -17 -2 -17.5t-7.5 -0.5h-11h-5t-1 25t-0.5 38v14v2h5q11 1 15 3l3 1l1 -1q1 -2 2 -19q0 -12 0.5 -12.5t3.5 -0.5h3l2 -3q2 -3 3 -3t25 -1q40 -1 43 -1q4 1 4.5 2.5t0.5 10.5t-0.5 16.5t-0.5 14.5
q0 10 -1 11q-1 0 -6 1q-19 1 -48 1h-38h-34q-6 -1 -7 -2t-2 -5t-1 -92.5v-108.5q1 -8 1 -9t1.5 -3t4.5 -2t6.5 -0.5t14.5 -0.5q10 0 11.5 -1t1.5 -7t-1 -12v-8l-2 -7v1zM371 169q1 1 1 3t1 2.5t1 4.5v3h-2q-2 0 -5 1h-3l-1 4q0 4 0.5 6.5t0 11.5t-0.5 11t0.5 23t1 21.5
t2.5 -0.5h10t9.5 0.5t2 -1t-0.5 -5t-1 -11.5v-7l2 -4q2 -3 3 -4t17 0q36 1 43 2q2 0 2 2t0.5 3t0.5 18q1 39 -1 41l-7 0.5t-8.5 1t-8 0.5h-6.5q-1 1 -5 1h-2.5h-6t-5.5 0.5t-4 0.5q-12 0 -14 1q-1 1 -1.5 0.5t-1.5 -0.5t-4 0.5t-6.5 0.5h-9t-9.5 1t-5.5 1h-11t-12.5 -0.5
t-5 -2.5t-3 -4q-1 -5 -1 -9q0 -3 1 -3.5t6 -1.5q9 0 11 -1q1 0 1 -2q0 -14 -3 -18h-3.5t-5.5 -1t-3 -1t-4 -3q-4 -4 -4 -6q0 -3 -2 -17q-1 -6 -1.5 -9.5t-1 -6.5t-0.5 -4.5t-1 -10.5t-1.5 -10.5t-1 -6.5t0 -6.5t2.5 -2.5q7 -2 13 -3q5 0 8.5 -0.5t11.5 -1t17 -1.5
q12 -2 14 0zM543 228q2 0 2 2.5v22.5t0.5 28t0.5 9q-3 4 -36 4q-22 0 -25 -1q-5 -1 -7 -2q-1 -1 -1 -6q-1 -9 -1 -44v-7l2 -3q1 -2 2 -2.5t12 -0.5q18 -1 34.5 -1t16.5 1zM390 403q3 1 26 0q6 0 8 1l2 2q4 2 4 8q2 18 2 28q0 4 0.5 14t0 12t-0.5 3q0 2 -10 2q-9 0 -10 2
q0 2 -2.5 2t-2.5 -0.5t-0.5 -0.5t-1 -1t-1 -1.5t-1.5 0t-1.5 0.5t-2.5 -1q-3 -3 -9 -3q-3 0 -3.5 -0.5t-0.5 -3t0.5 -3.5t0.5 -5q-1 -9 -2 -17q-1 -15 -2 -28q0 -7 1 -8q2 -3 3 -3zM855 70v1q1 2 2 0q1 -1 0 -1q-1 -1 -2 0zM586 546v1l1.5 0.5t2 0.5t-0.5 -2q-1 -3 -3 0z
M589 553h1h-1zM592 554v1h1t1 -1h-2zM590 555v0v0z" />
  </g>

</svg>
