<?xml version="1.0" standalone="no"?>
<!DOCTYPE svg PUBLIC "-//W3C//DTD SVG 1.1//EN" "http://www.w3.org/Graphics/SVG/1.1/DTD/svg11.dtd" >
<svg viewBox="0 -200 1000 1000">
  <g transform="matrix(1 0 0 -1 0 800)">
   <path fill="currentColor"
d="M120.5 316q-0.5 1 -1.5 20q0 20 -2 54q-1 21 -2 48q-1 26 -5 81q-3 59 -4 63v3l7 8l30 34l17 21l14 16l13 16q9 10 38 48l14 16l3 4h16q16 -1 28 -0.5t37 0.5h24q6 -1 21 -1q0 -1 32 -1t48 0.5t60 -0.5h44v-3q1 -10 1 -107q-1 -44 1 -101q0 -35 1 -47v-13l-5 -6
q-5 -5 -15 -17l-40 -46q-13 -14 -35 -41l-17 -22q-20 -22 -22 -22q-1 0 -12.5 -0.5t-49.5 -1t-43.5 -1t-18.5 -0.5l-31 -1q-44 -2 -104 -2h-36t-5.5 1zM176 332q19 1 41.5 1t34.5 0.5t37 0.5l40 1h30t14.5 0.5t1.5 -0.5t1 0v3l-1 4q-4 -1 -24 -1q-21 0 -101 -2
q-34 -2 -49 -2l-32 -1q-27 0 -27 -1q-1 0 -1 -2l-1 -3l9 1q8 0 27 1zM403 343q3 4 45 46l37 40l18 21q21 23 21 24t-2.5 2t-3.5 0q-3 -1 -48 -52q-29 -33 -50 -53q-26 -25 -26 -27l2.5 -1.5t3.5 -1.5t3 2zM150 354l9 10l52 58l34 37l1 2l-1 2l-2 1q-3 0 -45 -48l-33 -37
q-20 -22 -22 -24l1 -2.5t1.5 -2.5t4.5 4zM137 355zM140 357zM139 361q-3 57 -9 117v22q1 38 -1 52v4h-3q-3 0 -3 -0.5t0.5 -18.5t1.5 -25q2 -22 3 -60q0 -19 1 -35t2 -36q1 -28 1.5 -28t4.5 2zM392 356q0 3 -1 30q-1 21 -1 52q0 18 -0.5 45t-0.5 42q0 19 -2 21q-1 1 -3 1.5
t-3 -0.5q0 -1 0.5 -15.5l1 -28t1.5 -16.5q1 -4 1 -31q1 -18 1 -26t1 -38q0 -37 2 -38q3 -1 3 2zM309 471q58 1 67 1q1 0 1 4v3h-6q-7 -1 -21 -1h-32q-30 -1 -48 -1h-7v-3l-1 -3h16h31zM426.5 473.5q1.5 0.5 31.5 0.5t33.5 0.5t5 3t1.5 3.5q-1 1 -53 -1q-35 -1 -46 -1h-8v-3
v-3h17q17 0 18.5 0.5zM254 481zM256 482zM256 491v36v27.5t-3 0.5t-3.5 -1t0.5 -21q1 -47 0 -51q0 -2 0.5 -2t3.5 1zM535.5 499q0.5 0 1 49.5t1.5 65.5q1 57 0 83l-1 17q-2 2 -4 -3q-1 -2 -2.5 -28t-2 -95t-0.5 -78q-1 -9 -0.5 -10.5t4.5 -1.5q3 1 3.5 1zM235 562q16 1 22 0
q11 -1 77 -1l47 -1v5v4h-3q-42 -1 -77 0q-34 1 -45.5 0t-31.5 0t-37 0.5t-32 -1.5h-14l-1 -2v-2l9 -1q49 -2 86 -1zM401 566l16 20q24 31 51 58q12 11 32 35l14 16q6 6 9 10l3 3l-2 2q-3 3 -3.5 3t-6.5 -8q-8 -13 -36 -43l-16 -18l-17 -19q-23 -25 -34 -38q-19 -23 -19 -24
q0 -3 3 -3q1 0 6 6zM140 586l40 49l21 26q16 20 29 38q5 8 10 14t5 9v3l-5 -7q-6 -7 -12 -15q-22 -26 -27 -35q-19 -28 -34 -44q-4 -5 -4 -5.5t-8 -7.5q-28 -28 -28 -31l2 -2.5t2.5 -2t8.5 10.5zM257 600v44.5v34.5q1 27 -1 28q-1 1 -2 0.5t-1.5 -46.5t-0.5 -66l-1 -19h3h3
v24zM272 720q10 1 10.5 1.5t26.5 0.5t42 0.5t34 0.5q62 -2 76 -2q10 1 37.5 0t28.5 -0.5t0 2.5v2l-36 1q-38 1 -63.5 1t-44 -0.5t-20.5 -0.5q-8 1 -9 0q-4 0 -8.5 0.5t-18 0.5t-27.5 -1h-28h-15v-3q0 -3 0.5 -3.5t3.5 -0.5q1 0 11 1z" />
  </g>

</svg>
