<?xml version="1.0" standalone="no"?>
<!DOCTYPE svg PUBLIC "-//W3C//DTD SVG 1.1//EN" "http://www.w3.org/Graphics/SVG/1.1/DTD/svg11.dtd" >
<svg viewBox="0 -200 1000 1000">
  <g transform="matrix(1 0 0 -1 0 800)">
   <path fill="currentColor"
d="M880 298q1 185 0 370v-185v-209v24zM366 389l-16 -16q-12 -14 -13.5 -16t-4 -18.5t-2.5 -35.5q1 -28 -7 -35q-4 -3 -20 -4q-13 -2 -15.5 -3t-3.5 -7q-1 -3 0 -8q1 -4 4 -4.5t19 -0.5q23 -1 25 -4l5 -7q4 -4 4 -13q0 -11 -2 -14t-15 -11q-28 -19 -33 -30q-5 -14 1 -28
q8 -21 16 -30l12 -15q7 -8 23.5 -25.5t17.5 -17.5q4 0 29 23q36 34 45 52q5 11 5 22q1 23 -8 36q-8 10 -26 16q-7 3 -8.5 5t-2.5 18q-1 9 3 12q7 7 22 7q8 0 9.5 1.5t1.5 9.5q0 14 -2.5 15.5t-20 1t-22 1t-15.5 12.5q-16 15 -16 36q0 35 33 65q7 7 12.5 12t8 8l2.5 3l-7 2
q-12 1 -14.5 1t-10.5 -6q-10 -6 -13 -10zM880 22q1 14 0 29v-15v-17v3zM880 -10q1 3 0 6v-3v-3zM880 -122q1 34 0 68v-34v-38v4zM880 -173q1 3 0 6v-3v-3z" />
  </g>

</svg>
