<?xml version="1.0" standalone="no"?>
<!DOCTYPE svg PUBLIC "-//W3C//DTD SVG 1.1//EN" "http://www.w3.org/Graphics/SVG/1.1/DTD/svg11.dtd" >
<svg viewBox="0 -200 1000 1000">
  <g transform="matrix(1 0 0 -1 0 800)">
   <path fill="currentColor"
d="M567 -126q-7 1 -10 2h-3l-1 -1h-1h1v1l-2 1h-3h-3v1l-3 1h-3l-2 1l-1 1h-3h-2l-1 1q-2 1 -3 1h-1l-1 1v1l-4 2l-4 2h-2h-2v1v1h-1h-2l-1 1h-1l-1 -1v1l-3.5 2t-4.5 2h-1l-1 1l-1 1v-1h-1l-4 2l-8 4q-8 2 -14 7q-2 1 -4.5 2.5t-3.5 2.5l-1 1v-1l-2 2q-3 2 -3.5 2t-1.5 1
t-2 1q-2 0 -8 7q-1 2 -4 5l-3 3h-1v-1l-1 2q-1 2 -1.5 2t-2 1.5t-2.5 1.5t-1 0.5t-2 1.5t-6 5l-4 3h-1v1v1l-4 3l-3 4v1q-1 2 -3.5 6l-4 6.5t-2 3.5t-2.5 6t-3 6l-1 1v2v3h-1v3q-1 3 -2.5 9.5t-1.5 9.5v3h-4h-4l-2 1l-2 2h-2h-2l1 1v1l-2 -1h-2l-4 -2l-4 -3l-2 -2l-2 -2
l-1 1v-1l1 -1h-2q-2 -1 -2.5 -1h-0.5q-1 -1 -9 -2q-5 0 -6 -1q-2 -2 -21 -4q-5 0 -7 -1h-1l-1 1h-1h1v-1h-2q-2 0 -4 -1l-3 -1v1v1v-1l-1 -1l-5 1h-6l-1 1q-1 1 -1.5 1t-3 1t-6 2t-6.5 2.5t-4 1.5h-1l-3 3l-2 2h-1q-1 0 -4.5 3t-5.5 3l-1 1l-3 2l-2 3h-2l-2 1l-1 1
q-1 1 -2 1t-2 1l-1 1h-2h-1v1q1 0 0 1v1h-1h-1v1q0 1 -3.5 5t-3.5 5q-1 0 -2 2l-1 3v1h-1l-2 1v1v2h-1v1l1 1h-1l-1 1.5t-3.5 6.5t-2 5t-1 1.5t-1.5 2t-3 4.5l-2 3h1v0l-1 1l-1 3q-1 4 -2.5 7t-2.5 8t-2 6q-2 7 -4 19q-1 6 -1 7t-2 15l-1 14v8v8l2 5l3 12q2 6 4 11l1 4l1 4
v4l2 4q2 4 10 13q4 5 11 13l5 7q3 4 5 6l1 3l5 5l5 5l-1 1q-1 1 -4 2h-3v1v1h-1q-1 0 -4 1l-2 2v1v1l-1 -1h-1l-1 1v1h-1v-1l-2 2q-4 4 -7 4h-1v1v1h-1h-1l1 1v1l-4 2l-3 2v1v1h-1h-1v1l-1 1l-1 1v1h1l-2 1h-2v1v2l-1 -1h-1v2v3l-2 1l-1 1h-1v1l1 2h-1h-2v1v1h-1l-1 1h1v1
h-1v1v1v0h-1l-1 1v2.5t-1 1.5l-1 1l-1 -1h-1l1 2l1 1h-1l-1 -1l-1 2q-1 2 -2 3l-1 1v1l1 1h-1l-1 1v1q0 2 1 2l1 1h-2h-1l-1 4q-1 3 -1 4v1h-1h-1v2l1 1h-1l-1 -1l1 3v2h-1l1 2v2h-1h-1v2v2h-1h-1v1v1h1l1 -1l-1 2q0 1 -1 8.5t-1.5 8t-1.5 11.5l-2 11v10v10l5 13q8 25 13 35
q1 2 4 7l7 10l7 9l4 5l2 3l1 3l4 3l4 4l6 3q7 4 8 4h1v1q1 0 5.5 2t9 3.5t9.5 3.5t14 4t11 3l3 1h18h19h6q5 -1 7 -1q6 0 17 -2q3 -1 6.5 -1.5t11.5 -1.5l8 -2l8 -3q30 -9 32 -10q1 -1 3 -1h2l-1 3v3l-2 2q-1 2 -1 2.5t-1 1.5h-1v3v7l-1 2h-1l1 2v1h-1h-1l1 1v1h-1v1l1 1h-1
h-2l1 2v2l-1 1h-1v3v3h-1v2v2l1 -1q1 -1 1 0v3q-1 3 -1.5 6t-1 5.5t-1.5 9.5l-1 8v7q0 44 6 55q1 1 2 5q4 13 5 14q3 1 5 11l2 4l1 2q6 9 14 11q5 2 11 8q3 3 7 5q2 1 8 5l6 4l5 3q5 2 5.5 2.5t1.5 0.5t5 3l4 2l8 2q7 3 12 4l5 1v1h2q2 0 8 1t9 1t10 1l8 1h9h10l4 -1l4 -2
l1 2l2 1v-1l1 -2l1 -2l3 -1q4 -1 7 -3l2 -1l1 -2v-2l7 -4q6 -3 9 -5l5 -4q12 -7 17 -12q2 -1 3.5 -2.5t1.5 -2t1 -0.5h1l5 -6l10 -12l5 -7l2 -4l4 -8q2 -5 3 -5l1 -2q0 -2 4 -11q8 -16 9 -30v-6l1 -2l1 -2l-1 -3l-1 -3v-5l1 -5l-1 -2q-2 -2 -2 -10l-1 -2l-1 -1l-1 -1h1h1
l-1 -4q0 -3 -1 -5q-2 -4 -2 -9v-2h-1v-3l-1 -3l2 -2l1 -1v-3l-1 -2h1q1 0 6.5 3.5t11 6.5t7.5 4q5 4 17 8q5 2 8 3q6 3 23 9l7 2l3 2l4 2l10 1l11 1l13 1h18l5 1l5 -1q6 -1 11 -2l4 -1l5 -2q5 -3 6 -3t1.5 -1t2.5 -1.5t5.5 -3t6 -3.5t4.5 -2.5t2.5 -1.5t5.5 -3l9 -6
q4 -2 6.5 -4.5t4.5 -4t7 -6.5l4 -4l2 -5q2 -4 2.5 -5.5t2.5 -4.5l2 -3l2 -5q2 -5 2.5 -7t3.5 -7l3 -5v-2v-1l1 1v-2l-1 -1l1 -5q2 -6 2 -8q3 -10 5 -28v-8v-7l-2 -11q0 -6 -1.5 -9t-1.5 -4l-1 -2h-1q0 -1 -0.5 -3t-0.5 -2.5t-1 -1.5t-3 -3.5l-2 -2.5h-1l1 -1v-1l-3 -5
q-3 -4 -3 -4.5t-3 -5.5l-4 -5h-1l-1 -1v-1q0 -1 -1 -2h-1l1 -1l-1 -2q-2 -2 -2 -2.5t-4 -4.5t-4 -5h-1h-1v-1v-1l-2 -2l-4 -4q-2 -2 -2 -2.5t-8 -9.5l-9 -8l-2 -2q-3 -1 -4 -2v-1h-1l-1 1l-3 -4l-4 -4h-1l-1 1v-1v-1h-1h-1l-2 -1l-1 -1l1 -2q1 -1 7 -6t15 -14l9 -9l7 -9
q9 -11 17 -26q8 -17 11 -26l1 -5l1 -13l1 -12l-1 -10q0 -10 -1 -16l-1 -7v-11v-10v-1l-1 -1l-1 -7q-1 -8 -1.5 -10t-1.5 -8q-2 -16 -6 -25q-5 -11 -8 -11l-3 -3l-2 -4l-5 -5q-7 -6 -8 -6l-2 -2q-2 -3 -9 -7.5t-8 -4.5t-1.5 -0.5t-6.5 -3t-7.5 -3t-5 -1t-4.5 -0.5h-5h-5
l-5 -1q-11 -3 -50 -5q-6 0 -9 -1l-13 -1l-10 -1l-3 1h-4l-1 2q-4 3 -9 3q-2 1 -4 1.5t-3.5 1t-2.5 1.5v1h-2h-3l-3 1q-2 1 -2.5 0.5t3.5 -6.5q7 -10 8 -25l2 -22l1 -13v-11q0 -10 -1 -14q-2 -16 -5 -29v-3l-3 -3q-3 -2 -3 -3q0 -2 -8 -8q-3 -2 -4 -3q-4 -4 -11 -8
q-2 -1 -3.5 -2.5t-7 -5t-6 -3.5t-2.5 -1t-3 -2q-3 -3 -17 -8l-7 -2h-29h-28h-6zM333 12h-1l1 -1v1zM261 16l-1 1h-1h1zM387 31l-1 1l-1 1l1 -1zM235 33v1l-1 -1h1zM388 36v3h-1v-3v-2h1v2zM386 36v1v-1v0zM797 44l-1 1v-1h-1l1 -1v-2l1 1l1 1zM219 48l-1 1v-1h1zM196 92v1
v-1v0zM194 97v1l-1 -1h1zM191 105v0v-1v1zM564 294h6v1h1h3l2 1h1l1 1l-1 -1h1h1l1 1v-1h1l1 1l1 1h2l2 1l1 1h1h1l1 1q1 1 5 4t6.5 5.5t3.5 2.5v1v1l1 1l1 1l1 -1v-1h2h1v1h-1l3 2l2 2v1q0 2 1 4l1 2v2v2h1l1 1l-1 -1v-1q1 0 1 0.5v1.5h-1v5v4h1v1l-1 1q-1 2 -0.5 2.5
t-0.5 3.5l-1 3h-1v1v1l-1 1q0 1 -2 6t-5 10l-2 5l-5 4l-4 5l-6 3l-5 4l-7 2l-7 3h-9h-10l-2 -1l-4 -2q-5 0 -14 -6l-3 -3l-6 -6q-6 -6 -6 -6.5t-0.5 -0.5t-2.5 -2l-2 -2v-1l-2 -1l-1 -1l-2 -2l-1 -3h1l-2 -6q-2 -5 -2 -6h-1v-7q0 -7 1 -12v-4l1 -1l1 -2l-1 -1h2h1
q0 -1 -1 -1h-1l1 -2q2 -1 2 -1.5t1 -1.5l1 -2l-1 -1v-1l1 1l3 -3l3 -2h2q1 0 2 -1h1v-1v-1h2h1v2v1q-1 0 -2 2l-1 2q1 0 4 -3t4 -3h1l1 -2l1 -2h1l2 -1l1 1l-1 -2v-1l1 1h1l1 -1l1 -1l5 -1l5 -1h3h4l-1 -1v-2l1 1v1h7zM524 306v0v0zM514 311h1v0h-1zM514 313v0v-1v1z
M519 315q-1 1 -0.5 1t1.5 -1t0.5 -1t-1.5 1zM609 317h1v-1zM517 319v1v-1v-1v1zM509 319v0v0zM516 320v1l1 -1h-1zM611 322l-1 1l1 -1l1 -1zM515 323q-1 0 -1 1v1l1 -1v-1zM611 324h1v0h-1zM505 325h1l1 -1h-1h-1v1zM612 326q0 1 1 2l1 1v-1v-1l-1 -1h-1zM613 331h1l1 -1h-1
h-1v1zM614 333v1l1 -1v0l-1 -1v1zM522 300v1v-1v0zM522 303v1v-1v0zM520 304h-1h1zM599 304v0v0zM516 305l-1 1v-1h1zM518 305v1l-1 -1h1h1h-1zM608 309v1q-1 0 -1 -1h1zM604 311v1v-1v-1l1 1h-1zM607 312h-1l1 -1v1zM610 314h1l-1 1h-2l-1 -1h1q2 -2 2 0zM508 315h-1l1 -1
v1zM616 318h-1v-1zM184 325h-1l1 -1v1zM503 330h-1v-1zM499 335h-1v-1zM498 338v1v-2v-1l1 1zM170 348v1v-1v0zM414 529v0v0zM670 561l-1 1v-1h1zM761 27l-1 2h1l1 -1l2 -1l-1 -1q-1 -1 -2 1zM202 297v1l1 -1h-1zM399 566v0v-1v1zM399 577v1v-1v0zM397 580h1h-1zM398 583v1
l1 -1l-1 -1v1zM888 722h1h-1v0zM576 761l1 -1h-1v1zM576 764q0 1 1 2l1 1v-1q0 -1 -1 -2l-1 -1v1z" />
  </g>

</svg>
