<?xml version="1.0" standalone="no"?>
<!DOCTYPE svg PUBLIC "-//W3C//DTD SVG 1.1//EN" "http://www.w3.org/Graphics/SVG/1.1/DTD/svg11.dtd" >
<svg viewBox="0 -200 1000 1000">
  <g transform="matrix(1 0 0 -1 0 800)">
   <path fill="currentColor"
d="M329 605q8 1 16 -1q2 0 11 -1q6 0 7 -1h2.5t7.5 -1q6 -1 8 -1q3 0 11 -1t8 -0.5t2 0t5 -1.5h4q2 0 7 -1q5 0 7 -1h4q1 0 5 -1q3 -1 6 -1q9 0 13 -1q0 -1 3 -1q2 0 5 -0.5t5 -0.5q4 0 5 -0.5t7 -1t7 -0.5q2 -1 4 -1q3 0 6 -1q6 -1 11 -1q2 0 4 -0.5t4.5 -0.5t3.5 -1h1h3
q4 -1 7 -1q3 -1 12 -2h4q1 -1 8 -1q3 -1 8 -1q2 -1 3 -1q2 -1 8 -1h3q3 -1 7 -2h4.5t7 -0.5t9.5 -1.5l12 -2q3 0 7 -1h4.5t2.5 -0.5t1 -0.5q8 0 9 -1h3t4 -1l7 -1h2h2q10 -1 11 -1l3.5 -0.5t6.5 -0.5q6 -1 10 -1q6 -1 13 -1q2 0 8 -1q5 0 6.5 -0.5t4.5 -0.5h6q2 -1 4 -1h5
q1 0 6 -1q2 0 3.5 -0.5t5.5 -0.5q5 0 9 -1q1 0 1 -1t0.5 -3.5t0.5 -4t-1 -1.5v-1q1 -1 1 -9q0 -16 1 -36q1 -6 1 -10v-3v-4.5t0.5 -4.5t0 -1t-0.5 -2q1 -3 1 -17q1 -8 1.5 -11.5t0 -5.5t0 -2t0.5 -1t-0.5 -1t-0.5 -2q1 -3 2 -30q1 -19 1 -24q1 -8 1 -21q0 -3 0.5 -3t0.5 -1
l-1 -3q1 0 1 -4v-13q1 0 1 -5.5v-7t-0.5 -1.5t0.5 -1l1 -13v-10q1 -4 1 -5q-1 -6 0 -7v-2v-2v-6l1 -3v-7q0 -16 1 -16v-27v-4t0.5 -3l0.5 -1q-1 -1 -1 -4t1 -3q0 -1 -0.5 -6t0.5 -5q-1 0 -1 -7t1 -8q0 -1 -0.5 -1t-0.5 -6t1 -7q-1 -2 -1 -4.5t0.5 -3l0.5 -0.5v-1.5t-0.5 -4
t-0.5 -5.5v-13t0.5 -3.5t0 -1t-0.5 -5.5v-7q0 -3 -0.5 -6l-0.5 -3v-1v-4l-1 -14v-2v-4v-2q2 -1 -2 -4l-1 -1q0 1 -0.5 1t-0.5 -0.5t-1 -1.5l-1 1h-1q-1 0 -3.5 -0.5t-3.5 -0.5t-1 -1t-1 0l-1 1q-1 1 -1.5 0t-3 -1t-6 -0.5t-6.5 -0.5q-2 0 -2 -0.5t-1.5 -0.5t-1.5 -0.5t-1 0
t-2 0t-1.5 0t-0.5 -0.5q-1 1 -1.5 0.5t-3.5 -0.5t-3.5 -0.5t-2.5 -0.5h-1h-1q-1 1 -2 0t-7 -1q-2 0 -2 -0.5t-1 -0.5h-1v1l-0.5 -0.5t-3 -1t-3 -1t-1.5 0t-1 0t-2 -0.5t-2.5 -0.5t-1.5 -0.5t-2 -0.5t-1 0.5h-1v-1q-9 -1 -10 -2q-1 0 -1 1q0 -1 -0.5 -0.5t-1.5 -0.5t-2 -0.5
t-1 0t-1.5 -0.5t-1.5 -0.5t-1 0t-1 -0.5q-1 1 -1.5 1t-0.5 -1v-1q-1 0 -1 0.5t-1 0.5h-1l-2 -1q-2 0 -2 -0.5t-0.5 0t-1.5 0.5h-1l-3 -1h-1q-2 -1 -4 -1t-2.5 -0.5t-2.5 -0.5h-2h-1h-1q1 -1 0 -1q0 2 -4 -1q-2 -1 -2.5 0t-1 0.5t-2 -0.5t-1.5 -1q-1 0 -1 -0.5t-0.5 0t0 0.5
t0.5 0.5t-1 0.5l-3 -2h-2h-2h-1h-1l-1 -0.5l-1 -0.5h-4q0 -1 -4 -1q-1 -1 -1 -0.5t-2.5 0t-4.5 0.5l-1 -1l-0.5 -0.5t-1 0t-1.5 -0.5v0l1 -1h-2t-1 -0.5t-1.5 -0.5t-1.5 1t-0.5 1t-0.5 -0.5t-1 -0.5h-2q0 -1 -7 -1q-2 0 -2 -1.5t-1 -1.5v1q1 1 0.5 1t-1 -1t-1.5 0l-2 -1h-1
h-1q-1 0 -1 -1h-1v1l-1 -1q-1 0 -3 -1h-2q1 0 0 1l-1 1q0 -1 -1 -2h-1h-2h-1q0 -1 -0.5 -1t-0.5 -1q-1 1 -1.5 0.5t-0.5 0.5q0 -1 -1.5 -0.5l-1.5 0.5l-3 -2q0 1 1 1v1l-1 -1q-1 0 0 -1h-2h-2l-3 -1q0 1 -1 1l-1 -1t-1 -0.5t-1 0t-2 -0.5q-1 1 -1 0q0 -2 -3 -1q-1 0 -2 -1
t-1 0.5t-0.5 1t-1.5 -0.5t-1 -1h-1h-1l-1 -0.5t-1 0.5q1 0 0 1h-1v-2q0 -1 -1 -1q0 1 -1 1h-1q-1 1 -2 0t-1 0t-1 0.5t-1.5 -0.5t-0.5 -1t-1 -2l-1 1q1 2 0 2t-0.5 -1t-0.5 -1t-1 1q-2 2 -3 1q0 -1 1 -1v-1v-1q-1 0 -1 1t-0.5 0t-1 -0.5t-1 0.5t-1.5 1l-1 -1l-1 -1h-1
q0 -1 -1.5 -1t-1.5 -0.5t-1 0t-2.5 0t-0.5 0.5h-1l-1 -0.5t-1 0.5v1q-1 0 -1 -1t1 -1.5t0 -1t-1.5 0.5t-0.5 2q-1 -1 -0.5 -1.5t0 -1t-1 0t-2.5 1.5l-3 -1v-1v0.5t-1 0.5t0 1h-1h-1v-1q-1 0 -0.5 -0.5t1.5 -0.5v-1q-1 -1 -1.5 0t-1 0.5t-1 0.5t-0.5 2q-1 0 -1 -1.5
t-0.5 -1.5t-0.5 1v1q-1 -1 -1.5 0t-1.5 0q1 0 2 -1l-1 -1q-1 2 -2 1v-1v-1q-1 -1 -1 0.5t0.5 1.5t0 0.5t-1 0t-0.5 -2.5l1 -1l-2 1l-1 1q1 -1 0 -1h-1q1 0 0 1l-1 1q0 -1 -0.5 -1t-0.5 1l-1 -1q1 -1 1 -2l-2 1q-1 2 -2 1v-2h-1h-1h-1h-1.5t-1.5 -1q-1 -2 -2 -1q0 1 -1 0.5
t-1 0.5t-0.5 0.5t-1.5 0.5q-1 -1 0 -1h-1q0 1 -1.5 1.5t-1.5 -0.5v0q1 0 1 -0.5t1 -0.5v-1q-1 -1 -3 0l-1 1h-1q0 2 -1 1q-3 -2 -3 -3q1 -1 0 -1t-0.5 0.5t-0.5 1.5t-4 0v1q2 0 1 0.5t-1.5 -0.5t-1.5 0v-1l-1 -1l-1.5 -0.5t-2.5 0t-1 0t-2 -0.5t-3 -0.5t-1 0.5t-1 0.5
t-2 -1.5t0 -1h-1q-1 1 -1 0v1q0 1 -0.5 1t-0.5 -0.5t-1 -0.5h-1v-1h-1v2l-1 -1l-1 -1h-1l1 1h1q-1 1 -3 0.5t-2 0t1 0.5q-1 1 -4 -3q-1 -1 -1 -0.5t-3 0.5h-1l-1 1l-1 -1q-1 0 -1 1q-1 0 -1 -0.5t-1 0t-2 -0.5h-1h-1q0 -1 -3 -1h-3q1 -1 0 -1t-1 0.5t-2 -0.5h-1.5t-0.5 -1v0
q-1 0 -1 1q1 2 -3 0q-2 -1 -3 -1l1 1q-1 0 -1.5 -1t-0.5 0l-1 -1h-2q-2 0 -2.5 -0.5t-0.5 0v0.5q0 1 -1 1t-1.5 -1t0.5 -2q-1 0 -1 1l-1 -1l-0.5 -0.5t-0.5 0.5t-1 1v1q1 0 0 0.5t-1 -0.5t-1 -2q0 1 -1.5 1h-1.5h-1t-1 0.5t-0.5 0.5t-0.5 -1t-0.5 -1h-0.5q-1 0 0 1h-2
q-7 -2 -7 -1q-1 0 -2 1q0 -1 -2 -1t-2 -1q0 1 -1.5 1t-1.5 -0.5t-1.5 0t-2 0t-1 -0.5h-1.5h-1h-2h-1l-1.5 -0.5t-1.5 0.5v0q0 1 -0.5 0t-2 -0.5t-3 0t-2.5 0t-1 -0.5h-1q0 1 -1 0.5t-2.5 -0.5t-2.5 -0.5t-1 0t-1 0.5v0h-5l-1.5 1t-4.5 1h-3q-1 2 -1 108q-1 67 1 82v11t1 13
v15q1 11 1 15q1 17 2 24v9q0 2 1 8q1 19 2 29v6q1 4 1 5q0 3 1 9q3 24 3 30q1 3 2 11l6 42q1 8 2 12q1 5 2 12l3 17l2 13q1 4 1.5 6.5t1.5 8.5q2 7 2 12l2.5 10.5t2.5 14.5q1 7 2 11t1 7q1 3 1 7q1 3 1 5q1 6 3 14l2 9q4 18 5 18h3zM538 529q-7 0 -16 -1l-5 -1q-9 -1 -15 -5
q-2 0 -3 -1q-16 -7 -28 -19q-11 -12 -11 -18q0 -1 -1 -3t-1.5 -3.5t-1 -2t-0.5 -1t-1 -2.5t-1 -3q0 -3 -2 -7q-3 -7 -3 -20q0 -15 2 -20q1 0 1.5 -2.5t0.5 -3t1 -2.5q2 -6 7 -11v-1.5t1 -1t2.5 -3t2.5 -3t2.5 -3.5t2 -3t0.5 -0.5t2 -2.5t2 -2.5t1 -1.5q4 -5 4 -5.5t1 -0.5
t1 -0.5t2.5 -3.5l2.5 -3q0 -2 -3 -1h-2.5t-1 0.5t-6 0.5h-5.5v1q0 -1 -8 -1t-8.5 -0.5t-3.5 -0.5t-4 -1q-1 1 -23 -3q-3 -1 -6.5 -2t-5.5 -1t-2.5 -0.5t-1.5 -0.5t-1 -0.5t-0.5 -0.5h-1.5t-2.5 -0.5t-7 -2.5t-7 -2.5t-1.5 -1t-1 -0.5t-1.5 -0.5t-2 -0.5t-3 -1t-3 -1.5
t-1.5 -1t-2.5 -2t-4.5 -3l-2 -1.5l-1 -1q-2 -2 -3 -2t-1 -0.5t-1.5 -0.5t-3 -2t-1.5 -1q-1 0 -2.5 -2.5l-4 -6.5t-3.5 -9q-1 -2 -2 -3v-1.5t-1 -2l-1 -1.5q0 -3 -2 -5v-2t-1 -4q-5 -14 -4 -28q0 -9 2 -12v-3.5t0.5 -0.5t1 -1.5t1 -1.5t1 -1.5t4.5 -5.5t8 -6.5l4 -2.5h0.5
t3.5 -2q11 -6 12 -6t2 -1q10 -4 29 0l4.5 1.5l4.5 1.5q15 4 38 17l20 12q0 1 3 3q6 4 12 10q11 11 11 13l1 1l1 -7q0 -7 -1 -8l-1 -3q-1 -2 -1 -4l-1 -2q0 1 -0.5 1t0 -1t-0.5 -1.5t-2.5 -3.5t-2.5 -6q-2 -2 -2.5 -3.5t-1.5 -3t-1.5 -3t-1 -1.5t-0.5 -1t-1 -1t-9 -16
q-5 -11 -5 -11.5t-0.5 -0.5t-0.5 -1t-2 -4.5t-2 -4t-2 -4.5q-8 -18 -10 -29q0 -1 -0.5 -1.5t-1.5 -9.5l1 -3q1 0 2.5 0.5t6.5 1.5q13 3 20 4q14 2 33 0q1 -1 5 -1q3 0 4 -0.5t3 -0.5q8 -1 9 -2q1 0 9 -2q12 -2 18 -4l19 -4l10 -2v1l-1 1q-2 2 -11 20q-3 4 -4 6q-2 3 -3 7
q-2 4 -3 5q-3 6 -4 9l-2 4t-2 5l-2 5q-8 17 -11 30q-2 7 -2 16q-1 3 -1 5t-1 13v12h1q2 0 6 -2q11 -5 19 -7h0.5t3.5 -1h3l2 -1h3q2 -1 4 -1q6 -1 21 -1q18 -1 32 1l5 1q17 2 26 7q5 2 5.5 2t1.5 1q7 6 10 9l3 5q5 7 7 25q3 19 0 23q-1 1 -2 3t-1.5 2.5t-1 2.5t-1.5 2
q0 1 -1 2l-1 1v1h-1q1 0 -0.5 1.5t-1.5 2t-2 2.5l-4 4q-3 3 -5.5 5t-2.5 3q-3 2 -6 2v1t-1 1t-3 1t-4 1t-2.5 0.5t-1.5 0.5q-2 1 -5 2h-4t-2.5 0.5t-5.5 0.5h-10t-5 -0.5t-2 -0.5h-4l-2.5 -0.5t-3 -1t-2.5 0t-2 -0.5h-0.5h-0.5q0 -1 -5 -1h-1q0 -1 -3 -1q-5 -1 -7 -2
q-2 0 -3.5 -0.5t-2.5 -1t-1.5 -0.5t-1.5 -0.5t-3 -0.5q-7 0 -8 -1h-1q0 1 -1 0l-1 1q1 0 0 1q1 0 2 1l1 1h-2q-2 -1 -8 1q-3 1 -3.5 1t0 1t5 3.5t7.5 3.5q3 2 5 3t3 2t2 1t1.5 1t1 1t2.5 2l3 3q8 5 9 9q1 0 3 3q4 6 7 12q1 3 2 5q3 6 3 19q0 7 -1 12l-1 3t-1 5v3q0 5 -2 7v2
t-0.5 1.5l-1.5 1.5q-1 5 -6 13q0 1 -1 3q-3 7 -12 13q-1 2 -4 4.5t-3.5 2.5t-1.5 1q-5 4 -8 4v0.5t-1.5 1t-3.5 1.5l-5 2q-1 0 -2 0.5t-2 0.5t-4 1h-6zM679 66v-1t-0.5 -1t0 1zM595 50h-1q0 -1 1 -1v1v0zM589 50v-1h-1v0zM582 48v-1t0.5 -0.5t-0.5 0.5v1zM553 41
q-1 -1 -0.5 -1t0.5 1zM538 41v-1v-1v1v1zM530 39h1q0 -1 -1 -1q-1 1 0 1zM539 39v-1h1h-1v1zM510 34v-1h-1h1v1zM473 31q1 0 1 -1h-1v1zM458.5 30q0.5 0 0.5 -0.5t-1 -0.5q0 1 0.5 1zM466 26l-0.5 -0.5t0.5 -0.5v1zM390 20l-0.5 -1l-0.5 -1v1zM411 20q-1 0 -0.5 -1t1 -0.5
t1 0l0.5 -0.5l-1 1q0 1 -1 1zM422 20v-1q0 -1 1 -1v1zM419 19v-1l0.5 0.5t-0.5 0.5zM409 19h-1q0 -1 -0.5 -1t0.5 -1q1 1 1 2v0zM392 18v-1h1zM378 17q-1 -1 -0.5 -1t0.5 1zM385 16q-1 0 -2 -1h1zM328 12q1 -1 0.5 -1t-0.5 1zM350 11v-1v1zM343.5 11q-0.5 0 -0.5 -1
q1 -1 1 0t-0.5 1zM342 10v-1v1z" />
  </g>

</svg>
