<?xml version="1.0" standalone="no"?>
<!DOCTYPE svg PUBLIC "-//W3C//DTD SVG 1.1//EN" "http://www.w3.org/Graphics/SVG/1.1/DTD/svg11.dtd" >
<svg viewBox="0 -200 1058 1000">
  <g transform="matrix(1 0 0 -1 0 800)">
   <path fill="currentColor"
d="M163 100q-1 1 -1 10q-1 25 -3 39q-1 7 -1 22q-1 25 -7 85q-1 10 -2 27l-2 27l-1 22l-2 28q-1 16 -2 25q0 8 -2 25q-1 18 -1 30l-3 65q-5 104 -5 296q0 162 2 165q1 0 20 1q25 0 89 0.5t76 -0.5q14 -1 30 -1t23 -1t18 -1q15 -1 33 -3q10 -1 17.5 -1.5t12.5 -1.5t12.5 -1.5
t17.5 -2.5q11 -1 16 -2q24 -3 34 -7l-8 -5q-10 -5 -17 -11q-12 -10 -16.5 -19t-6.5 -27q-3 -20 7 -39t31 -29q14 -7 33 -7h14l8 3q22 8 35 24q9 11 13 25q6 23 -4 45q-3 5 -3 6t-2 5l-3 3h3l30 -15q22 -11 37 -21l12 -9q30 -20 66 -55l19 -17q21 -19 54 -57q27 -31 39 -48
q2 -5 5 -8q8 -10 32 -46l15 -22l9 -15l9 -16l8 -13l8 -14l11 -21q6 -13 7.5 -15t3.5 -7.5t7 -16.5q19 -45 38 -117t22 -114q1 -8 2 -21q4 -45 5 -108q0 -16 -2 -17q-1 -2 -27 -3q-8 -1 -13.5 -1.5t-10.5 -0.5t-13.5 -1t-22.5 -1t-14.5 -0.5t-28 -1t-36.5 0.5q-11 0 -41 -2
q-66 -2 -112 -2q-70 0 -96 -3q-8 0 -30 -1q-32 0 -110 -2q-26 -1 -60 -2q-34 0 -55 -1q-61 -2 -131 -4q-88 -2 -89 -1zM443 393h22q23 0 40 3q34 6 37 9q1 2 5 3.5t5.5 4.5t4.5 4q4 2 12.5 9.5t10.5 11.5q4 6 7 17q5 21 5 29q0 7 -5 19q-6 14 -14 28l-3.5 3.5t-4.5 5.5
q-11 14 -29 33q-6 7 -8 10q-4 6 -14 8q-28 5 -61 3q-11 -1 -17 -4t-31 -24l-22 -16q-6 -5 -7 -7t-4.5 -6.5t-5.5 -8.5t-4 -6.5t-4 -7.5q-3 -6 1 -25q3 -16 7 -27q2 -7 4 -12q4 -13 17 -23l14 -11q8 -7 11 -9t8 -7q8 -9 17 -8q3 1 6 1zM330 688q6 1 8 1.5t6 2.5q11 3 14 6
q3 5 14 15q4 2 7.5 6.5t3.5 10.5q2 13 6 24q2 4 1 6.5t-8 13t-11 15.5t-8.5 7.5t-4.5 4.5q0 4 -13 9l-7 3.5t-5 3t-8.5 5t-7.5 1.5q-9 -1 -17 -9q-4 -3 -8 -7q-11 -7 -19 -14q-6 -5 -10 -7q-5 -3 -6 -7t-1 -17q0 -37 6 -40q2 -1 6.5 -5t5.5 -4t6.5 -3.5t11.5 -6.5
q10 -5 11 -6q0 -2 3 -4t4.5 -2t4.5 -2q4 -3 15 -1zM330 688zM167.5 98.5q-4.5 0.5 -5.5 1t-1.5 16.5t-1.5 24q-2 20 -2 32q0 7 -1 15t-2 23l-3 36q-2 26 -5 75q-2 23 -3 33t-2 29.5t-1.5 31t-1.5 23.5q-2 43 -3 67l-1 26q-2 44 -3 112q-1 40 -1 136v130q1 55 3 57t114 2
h74.5t8 -1t20.5 -1q47 -1 66 -4q5 0 17 -1t15.5 -2t13 -1.5t15.5 -1.5l15 -2.5t13 -2.5t6 -1q7 -1 16 -3q5 -1 7 -1l2 -1q-1 -1 -2.5 -1t-10.5 -4q-22 -11 -33 -31q-7 -13 -5 -20v-6q-2 -12 2 -26q3 -12 11 -23q14 -18 37 -25q7 -1 20 -1q15 0 30 6q31 14 39 45q4 16 0 34
q-2 6 -2 7.5t-1.5 3.5t-1.5 5q-1 8 -7 11h1h3q14 -6 18 -9q1 -1 12 -7q17 -7 31 -17l21 -14l5 -4q8 -5 17 -13q5 -5 8 -6q7 -5 36 -32l16 -15q18 -16 52 -54q18 -21 37 -46l9 -12l14 -20l15 -21q13 -20 24 -39l10 -16q4 -6 4.5 -7.5t2.5 -4.5q12 -19 25 -46q2 -3 4.5 -7.5
t5 -10.5l6.5 -16q10 -23 23 -63q17 -53 28 -113l3 -14q2 -8 3 -15l1 -12q1 -5 2 -14l2 -21q3 -29 4 -80q1 -35 0.5 -40.5t-3.5 -6.5q-5 -2 -55 -4q-12 -1 -12.5 -1.5t-16.5 -0.5t-41 -0.5t-43 -1.5q-46 0 -62 -2q-7 0 -9.5 0.5t-11.5 -0.5t-14 -0.5t-8.5 0t-44.5 -1.5
q-76 0 -94 -2q-9 0 -39 -1l-93 -2q-31 -1 -50 -1q-47 -1 -90 -3q-36 -1 -80 -2q-32 -1 -46 -1q-12 -1 -39 -1q-27 -1 -29 -1t-6.5 0.5zM440 394h14q30 -2 52 3q35 6 35 9l3.5 2t7 5.5t6.5 4.5q3 2 11 9t10 10q5 7 11 37q3 13 -2 25q-7 16 -12 24t-5 8.5t-3 3.5q-9 10 -22 26
l-10 10.5t-8 10.5q-5 6 -13 8l-9 1q-4 1 -10.5 1.5t-18 1.5t-13.5 0t-11 -2q-14 0 -22 -7l-7 -5q-2 -1 -10 -8q-11 -9 -27 -21q-9 -6 -9.5 -7.5t-4 -5.5t-5.5 -8.5t-4 -8.5q-7 -10 -7 -13q-1 -3 0 -4t1 -5.5t0.5 -4.5t1.5 -4q3 -18 5 -22q1 -2 1 -3t2 -5.5t3 -10.5
q2 -7 8.5 -13.5t28.5 -24.5l14 -11q3 -4 10 -6q5 -2 8 0zM337 690l9 2q12 4 12 7q0 1 6 7q12 11 15 14.5t3 8.5q0 13 7 27q1 2 0 5.5t-2 3.5q0 1 -6 10q-11 16 -20 21l-6 4l1 1q2 1 -6 6q-3 1 -10 5q-6 2 -12.5 6t-11 3.5t-7.5 -2.5l-14 -10t-4.5 -3t-4.5 -3.5t-5.5 -4
t-2.5 -2.5t-3 -3t-5 -3.5t-7.5 -5t-4.5 -4.5q-2 -4 -2 -12q0 -1 0.5 -18t2 -20t1.5 -4t0.5 -1t6.5 -5.5t7.5 -5.5t8 -4.5t7.5 -4.5t2 -1t6 -3t6 -3q2 -6 6 -6q2 0 4.5 -2t11.5 -1.5t11 1.5zM337 690zM167.5 98.5q-4.5 0.5 -5.5 1t-1.5 16.5t-1.5 24q-2 20 -2 32q0 7 -1 15
t-2 23l-3 36q-2 26 -5 75q-2 23 -3 33t-2 29.5t-1.5 31t-1.5 23.5q-2 43 -3 67l-1 26q-2 44 -3 112q-1 40 -1 136v130q1 55 3 57t114 2h74.5t8 -1t20.5 -1q47 -1 66 -4q5 0 17 -1t15.5 -2t13 -1.5t15.5 -1.5l15 -2.5t13 -2.5t6 -1q3 0 15 -3q15 -3 15 -4l-5 -2
q-25 -7 -39 -27t-12 -45q1 -12 7 -23q10 -21 32 -32q12 -6 31 -6q15 0 30 6q31 14 39 45q2 7 2 17q0 21 -13 39q-3 5 -2.5 5.5t3.5 -0.5q14 -5 20 -9q1 -1 12 -7q17 -7 31 -17l21 -14l5 -4q8 -5 17 -13q5 -5 8 -6q7 -5 36 -32l16 -15q18 -16 52 -54q18 -21 37 -46l9 -12
l14 -20l15 -21q13 -20 24 -39l10 -16q4 -6 4.5 -7.5t2.5 -4.5q12 -19 25 -46q2 -3 4.5 -7.5t5 -10.5l6.5 -16q10 -23 23 -63q17 -53 28 -113l3 -14q2 -8 3 -15l1 -12q1 -5 2 -14l2 -21q3 -29 4 -80q1 -35 0.5 -40.5t-3.5 -6.5q-5 -2 -55 -4q-12 -1 -12.5 -1.5t-16.5 -0.5
t-41 -0.5t-43 -1.5q-46 0 -62 -2q-7 0 -9.5 0.5t-11.5 -0.5t-14 -0.5t-8.5 0t-44.5 -1.5q-76 0 -94 -2q-9 0 -39 -1l-93 -2q-31 -1 -50 -1q-47 -1 -90 -3q-36 -1 -80 -2q-32 -1 -46 -1q-12 -1 -39 -1q-27 -1 -29 -1t-6.5 0.5zM440 394h14q30 -2 52 3q35 6 35 9l3.5 2t7 5.5
t6.5 4.5q3 2 11 9t10 10q5 7 11 37q3 13 -2 25q-12 27 -34 52l-13 15l-9 11q-10 12 -15 12q-4 1 -10 2q-21 4 -55 1q-15 -1 -22 -7q-2 -2 -7.5 -6t-10.5 -9q-10 -8 -25 -19q-11 -8 -20 -24q-3 -6 -4 -7q-5 -6 -5 -14q0 -21 9 -46q2 -4 4 -9q2 -8 9 -16q3 -4 30 -26l12 -9
q3 -4 10 -6q5 -2 8 0zM337 690l9 2q12 4 12 7q0 1 6 7q12 11 15 14.5t3 8.5q0 13 7 27q1 2 0 5.5t-2 3.5q0 1 -6 10q-11 16 -21 22q-7 4 -4 4q1 0 1 1q0 3 -13 7q-3 1 -13 7t-13 6q-8 0 -17 -9q-4 -4 -21 -16l-9 -7q-6 -5 -8.5 -6.5t-4 -5t-1 -25t1.5 -25.5l8 -8t8 -6
q1 0 7.5 -4.5t7.5 -4.5t2 -1t6 -3t6 -3q2 -6 6 -6q2 0 4.5 -2t11.5 -1.5t11 1.5zM337 690zM167 98.5q-5 0.5 -5.5 1.5t-1 17t-1.5 25.5t-2 27t-2 31.5l-4 44q-1 10 -2 26.5t-2 25.5t-1 23q-1 13 -2 23q-5 56 -7 123q-1 22 -2 47l-2 52t-1 36q-3 42 -2 241q1 123 3 125
q1 1 90 1q79 1 98.5 0t30.5 -1q60 -2 96 -7l14 -2q35 -3 63 -10q4 -1 6 -1q10 -2 10 -4l-5 -2q-25 -7 -39 -27t-12 -45q1 -12 7 -24q10 -20 32 -30q13 -6 30 -6q16 0 25 4l6 3q23 9 35 33q6 13 6 28q0 20 -13 38q-3 5 -2 6t15 -6q40 -19 64 -36q19 -13 31 -23q51 -41 95 -89
q22 -24 26 -29l15 -20l18 -23q1 -2 9 -12q9 -12 25 -37l25 -38q4 -8 6 -11t8.5 -14t6.5 -12q4 -5 18 -33q1 -2 4 -7.5t6 -12.5l7 -17q19 -45 32 -98q2 -6 4 -16q11 -38 16 -67q1 -7 2 -11q4 -19 7 -59q2 -29 4 -75t0 -48q-2 -5 -11 -5q-4 0 -8.5 -0.5t-12.5 -1.5
q-31 -1 -34 -2q-2 -1 -48 -2h-25q-18 -1 -36 -1q-11 0 -23 -0.5t-22 -0.5t-24 -1q-34 -1 -45 -1q-3 0 -23.5 0.5t-57.5 -1t-38.5 -1t-6.5 -0.5t-32 -1q-60 0 -86 -1q-10 -1 -46 -2q-59 -1 -108 -3q-36 -1 -80 -2q-33 -1 -46 -1q-12 -1 -39 -1q-27 -1 -29 -1t-7 0.5z
M496.5 395.5q5.5 1.5 12.5 2.5l11 2l10 2q10 2 11 4q1 1 4 3t8 6.5t10 7.5q14 10 18 19q5 10 9 34q3 11 -2 23q-12 27 -34 52l-13 15l-9 11q-10 12 -15 12q-4 1 -10 2q-21 4 -55 1q-15 -1 -22 -7q-2 -2 -7.5 -6t-10.5 -9q-10 -8 -25 -19q-11 -8 -20 -24q-3 -6 -4 -7
q-5 -6 -5 -14q0 -21 9 -46q2 -4 4 -9q2 -8 9 -16q3 -4 27 -23q9 -7 13.5 -11.5t8.5 -5.5q5 -1 33.5 -1t34 1.5zM327 689q6 1 10 2l8 2q11 3 11 5q0 3 15 15q4 3 7.5 7.5t3.5 10.5q3 19 7 26q2 4 -3 10l-7 10q-9 14 -20 20l-4 4l1 1q0 3 -11 7q-4 1 -14 7t-13 6q-8 0 -17 -9
q-4 -4 -21 -16l-9 -7q-6 -5 -8.5 -6.5t-4 -5t-1 -25t1.5 -25.5q4 -8 16 -14q3 -2 8 -5t11 -6q9 -4 10 -6t4 -4l7 -3q5 -2 12 -1zM327 689zM167 98.5q-5 0.5 -5.5 1.5t-0.5 10q0 10 -3 44q-1 9 -2 25.5t-2 25.5q-3 35 -6 81l-2 27l-2 34q-2 15 -2 28q-1 12 -2 31q-2 18 -2 40
q-1 22 -2 35t-1 25q-2 54 -3 60q0 11 -1 88q-1 39 -1 159t1 136q1 17 2 18q1 2 109 2q78 0 98 -1l37 -2q18 0 32 -2q41 -3 43 -4q1 0 12 -1t12 -1.5t8 -1.5q12 -1 32 -5.5t21.5 -5.5t2.5 -1t1 -0.5t-5 -2.5q-25 -7 -39 -27t-12 -45q1 -13 7 -24q4 -7 11 -14q12 -12 28 -17
q19 -6 37 -2q25 5 40 22q19 21 18 45q-1 19 -13 36q-3 5 -3 5.5t4 0.5q6 -1 32.5 -15t39.5 -24l16 -11q9 -6 12.5 -9l10.5 -9q15 -12 32 -27q43 -40 46 -45l3.5 -3.5l7.5 -7.5l21 -24q5 -5 10 -11l8 -11q12 -14 33 -44q35 -48 48 -72q3 -6 5 -9l7 -11l9 -16l10 -19l12 -23
q3 -5 6 -12l7 -17q20 -46 32 -97q1 -5 5 -20q9 -34 15 -62q7 -38 7 -48q0 -5 1 -8q2 -10 4 -56q0 -6 1 -13q1 -10 1 -39.5v-31.5q-2 -3 -14 -4q-7 0 -8 -1t-10 -1q-28 -1 -34 -3q-5 -2 -7 -1t-13.5 0.5t-13.5 -1.5q-3 -1 -16 0q-6 1 -9 0q-3 -2 -19 -1h-7q-12 -1 -15 0
t-15 0q-13 -1 -19 -1q-4 1 -21 0q-33 -2 -46 -1q-3 0 -8 -1q-10 -1 -22 0q-7 1 -8 0t-17 0q-42 2 -75 -1q-8 -1 -11 0q-6 2 -15 -1q-3 -1 -11 -1q-10 1 -44.5 0.5t-55.5 -0.5q-9 -1 -46 -2q-59 -1 -108 -3q-36 -1 -80 -2q-33 -1 -46 -1q-12 -1 -39 -1q-27 -1 -29 -1t-7 0.5z
M460 395q29 -1 46 3l21 4q10 2 13.5 4.5t6 4t6 5t8.5 6.5q16 10 21 21q2 6 6 22q5 21 1 30q-8 21 -14 30t-21 26l-13 15l-9 11q-10 12 -15 12q-4 1 -10 2q-21 4 -55 1q-15 -1 -22 -7q-2 -2 -7.5 -6t-10.5 -9q-10 -8 -25 -19q-11 -8 -20 -24q-3 -6 -4 -7q-5 -6 -5 -14
q0 -21 9 -46q2 -4 4 -9q2 -8 9 -16q3 -4 27 -23q9 -7 14 -12t7.5 -5t4 -0.5t3.5 0t24 0.5zM328 690q8 1 18 4.5t10 4.5t15 16q11 10 11 16q0 12 6 26q2 4 -1 9q-2 2 -7 10q-10 15 -21 21q-5 3 -5 5q0 3 -9 7q-5 2 -14.5 7.5t-12.5 5.5q-8 0 -17 -9q-4 -4 -21 -16l-9 -7
q-6 -5 -8.5 -6.5t-4 -5t-1 -25t1.5 -25.5q5 -9 15 -13q2 -1 6 -4t10 -5q12 -6 14 -9q1 -2 5.5 -4t6.5 -3q3 -2 12 0zM328 690zM167 97.5q-5 0.5 -5.5 1.5t-1.5 17.5t-2 23.5q-2 21 -2 32q0 8 -1 16t-3 33l-3 40l-1.5 23l-1 15.5t-1.5 21t-2 28.5l-2 29l-2 32q-1 18 -1.5 31
t-1.5 20q0 8 -1 26q-1 20 -1 36q-3 54 -4 121q-1 38 -1 134.5t1 129.5q1 56 2 59q2 2 110 2q78 0 98 -1l37 -2q18 0 32 -2q41 -3 43 -4q1 0 12 -1t12 -1.5t8 -1.5q32 -4 53 -10q10 -3 1 -5q-18 -5 -32 -18q-23 -22 -20 -54q4 -42 45 -55q19 -6 37 -2q25 5 40 22q19 21 17 46
q-1 20 -13 36q-4 6 0 6q4 -1 29 -14q27 -13 46 -26l11 -8q25 -17 62 -51t65 -65l10 -12l8 -8l5 -7q20 -25 26 -34l12 -17q20 -27 27 -39q2 -2 10 -14.5t11 -18.5l7 -11q3 -5 7 -13l8 -13l12 -23t11.5 -21t2.5 -6l7 -17q19 -43 36.5 -109t22.5 -112l4 -31q0 -4 1 -14
q2 -24 3 -66t0 -45q-2 -5 -20 -7q-14 -1 -17 -1q-17 0 -28 -2q-3 -1 -19 -1.5t-18 -0.5q-15 -2 -75 -1q-10 0 -25 -1l-38 -1q-22 -1 -24.5 -0.5t-10.5 -0.5q-10 -1 -37 0h-26q-36 1 -59 -1q-8 -1 -11.5 -0.5t-7.5 0t-31 -1.5q-65 0 -89 -1q-10 -1 -44 -1q-62 -2 -99 -3
q-82 -3 -176 -5q-25 0 -27 -0.5t-7 0zM460 395q26 -1 42 2l14 3q19 3 22 5q9 5 14 10q3 3 7 6q13 8 19 18q5 6 9 25q3 12 3 20t-3 15q-11 27 -31 48q-6 7 -10.5 13t-10.5 12t-8 9q-4 6 -13 8q-35 5 -62 2q-15 -2 -21 -7l-17 -13q-2 -2 -5 -4q-4 -5 -20 -16
q-9 -7 -14.5 -14.5t-5.5 -8t-4 -7.5l-6 -9q-2 -4 1 -22q4 -19 8 -30q2 -4 4 -9q2 -10 11 -18q15 -13 31 -25q3 -2 7.5 -6.5t9.5 -6t6.5 -1t22.5 0.5zM328 690q8 1 18 4.5t10 4.5t15 16q11 9 11 15q0 12 6 27q1 4 -8 17q-12 18 -25 25q-2 1 -1.5 3t-3 3.5l-7 3t-10.5 5.5
q-11 6 -15 6q-8 0 -17 -8q-2 -3 -6 -5.5t-7 -5.5q-16 -13 -24 -18q-3 -1 -4.5 -3.5t-1.5 -25t2 -25.5q1 -2 7.5 -8.5t7.5 -6.5t6 -3t14 -7.5t10 -6.5q1 -4 6 -4q1 0 4 -2q4 -3 13 -1zM328 690zM164 97l-3 1.5t-1 13.5q-1 18 -3 38q-1 8 -1.5 21t-1.5 20q-1 15 -8 106
q-3 40 -4 49q0 10 -1 25t-2 25q-1 9 -1 26l-2 34q-8 156 -7 232v129q1 127 1.5 138.5t2 13t27 1.5h42.5q25 1 72.5 0.5t54.5 -0.5q9 -1 17.5 -1t20.5 -1l32 -2q21 -1 45 -4q24 -2 28 -3q1 -1 12.5 -2t16.5 -2t9 -2q27 -5 29 -7q1 -1 2.5 -1.5t1.5 -1.5t-1 -1q-18 -5 -29 -13
q-18 -13 -25 -35q-2 -7 -2 -19t2 -19q5 -14 14 -23q11 -11 27 -16q15 -5 29 -4q15 1 26 6q32 16 39 45q2 7 1.5 16t-1.5 14q-4 13 -11 23q-5 5 -0.5 5t26.5 -10q31 -16 51 -30l13 -10q10 -6 13 -9t9 -7.5t7 -5.5q3 -4 14 -12q3 -2 38 -35q27 -26 38 -39l6 -8l8 -8q5 -5 7 -8
q5 -8 12 -15q1 -1 2.5 -3l7.5 -10l10 -14l10 -13q31 -42 52 -78l9 -15l6 -10l7 -14q6 -10 10 -18l8 -15.5l6 -11.5q17 -39 27 -70q27 -82 37 -149q1 -8 2.5 -15t2 -17.5t1 -12t0.5 -6.5q2 -30 3 -35q0 -1 0.5 -13t0.5 -18q1 -8 1.5 -31.5t-0.5 -26.5q0 -4 -3.5 -6.5t-9.5 -3
t-7.5 -1t-11.5 -0.5t-14 -1t-9 -1t-7 -2q-6 -3 -12 -1q-3 1 -7.5 0t-5.5 0q-3 2 -9 0q-3 -1 -9 -1h-30q-12 -1 -24 0q-13 0 -40.5 -0.5t-31.5 -0.5q-3 -1 -21.5 -1t-23.5 -1t-23 -1q-40 2 -54 2h-10q-13 0 -33 -2q-10 -1 -13 0t-8 0t-14 -1h-32q-34 1 -98 -1q-27 -1 -50 -2
q-24 0 -43.5 -1t-32.5 -1l-36 -1q-25 -1 -65 -2q-99 -3 -105 -2zM487 396q8 1 19.5 3l19.5 3.5t10 2.5q10 5 17 12q3 3 7 5q14 8 20 20q3 5 6.5 20t3.5 22t-3 13q-11 28 -32 51q-7 8 -11.5 14t-10 11t-6.5 8q-4 8 -31 9q-8 1 -18 2t-12.5 0t-5.5 -1l-9 -1q-14 -1 -24 -10
l-11 -9q-6 -4 -15 -12q-1 -1 -5 -4q-15 -9 -20 -17q-8 -10 -13 -21q-1 -3 -3 -4q-2 -3 0 -16q3 -19 6 -30q8 -23 14 -30q6 -6 30 -25q10 -8 13 -11.5t6 -4.5q5 0 28.5 -0.5t29.5 0.5zM327 690q10 2 24 8q3 1 5 3.5t11.5 11t11 11t2.5 9t4 15.5q3 14 0 18l-7 10
q-12 18 -17 18q-2 0 -2.5 1.5t-3.5 3t-3 3.5q0 4 -7 5q-2 0 -2.5 1t-1.5 1t-9 4.5t-11.5 5.5t-9.5 -2t-12 -8t-9.5 -7.5t-11.5 -9t-11 -8t-6 -4.5q-4 -3 -3 -20q0 -9 0.5 -19t1.5 -12t6.5 -7t7.5 -6t6.5 -4t7.5 -4q17 -8 18 -11q0 -1 4 -2.5t6 -3.5q3 -2 11 -1zM327 690z
" />
  </g>

</svg>
