<?xml version="1.0" standalone="no"?>
<!DOCTYPE svg PUBLIC "-//W3C//DTD SVG 1.1//EN" "http://www.w3.org/Graphics/SVG/1.1/DTD/svg11.dtd" >
<svg viewBox="0 -200 1000 1000">
  <g transform="matrix(1 0 0 -1 0 800)">
   <path fill="currentColor"
d="M412 -150q-18 5 -39 26.5t-27 43.5l-2 6l-1 13v14l2 12l2 13l2 6l1 6l5 6q11 18 30 26q22 10 36 29l4 5l4 8q3 8 5 14l2 6l-1 12v11l-3 7l-2 7l-2 2l-2 2l-8 2q-63 22 -87 46l-2 1h-2q-3 -1 -12 -12t-14 -20l-6 -11q-4 -7 -7 -20q-1 -5 -2 -24q-3 -41 -12 -61l-3 -7
l-4 -7l-5 -6l-5 -6l-6 -5l-6 -3l-6 -3l-10 -2l-14 -3q-4 -1 -11 -2l-7 -1l-7 1q-22 5 -37 16l-6 4q-21 14 -39 43l-5 9l-2 11q-1 10 -1 16v7l2 7q2 13 6.5 21t16.5 22l9 10l6 4q19 11 38 14l7 1h26q37 1 39 3q1 0 5 2l12 6l7 4l4 5q9 10 15 22q3 4 5 7t2 3.5t2 5.5
q3 6 -2 23q-5 15 -7 25q-1 4 -3 5l-1 2h-18q-27 0 -40 -2q-25 -6 -41 -11l-25 -7l-17 -5l-21 -6q-12 -4 -14 -5q-11 -3 -35 -3h-14l-6 1q-7 1 -10 3l-4 2l-7 7q-6 6 -8.5 9.5t-4.5 5.5q-5 6 -11 22l-2 6v11v11l2 4l1 5l4 6q11 16 23 27q6 5 20 10l6 2h13l14 1l12 -1l12 -2
l8 -1l9 -2l3 -2q3 -2 5 -3t6.5 -4.5t5.5 -3.5t2 -2q5 -6 22 -13q7 -3 8.5 -4t3.5 -1t3 -1t6 -2l5 -2h24h24l9 -3l10 -2h6q7 1 8 1t8 1l6 2l1 5q5 18 18 39l8 12q6 11 14 23q5 7 7 12v3l-8 9q-9 9 -9 9.5t-2 0.5h-1v2q0 3 -31 29l-8 7q-11 10 -21 14q-3 2 -7 4q-6 4 -17 8
l-7 4q-5 2 -26 6l-13 2l-1 1q-2 2 -17 14l-10 7l-4 7q-7 11 -12 22l-3 5v11v10l2 6q2 6 6 17l5 10l5 8l9 12l4 4l8 5q13 8 27 13l8 3l11 1h10l7 -2q7 -2 13 -5l5 -2l11 -11l10 -10l5 -8q8 -14 12 -29l2 -8l-1 -19v-20l1 -10l1 -11l6 -11q5 -10 13 -22l7 -12l11 -15
q11 -14 18.5 -22t9.5 -11q4 -5 11 -8l3 -2l5 2q27 10 41 13q3 1 8.5 2.5t7 1.5t3.5 2l3 2v2q1 5 2 51l1 33l-1 10q-1 10 -3.5 20.5t-3.5 16t-2 7.5t-2 8l-1 6l-3 7q-13 26 -18 46l-1 7v9l1 8l2 7q3 8 10 21l7 14l4 6q7 10 18 18q12 9 32 11l11 2h16h16l8 -5l11 -7
q30 -20 36 -72l2 -10l-2 -9q-1 -9 -2 -16l-2 -7l-7 -9q-7 -10 -8.5 -11.5t-1.5 -2.5t-7 -7.5t-7 -7.5v-1l-2 -1l-2 -1v-2v-1l-1 1l-2 -2l-3 -4q-3 -2 -5.5 -4.5t-2.5 -3.5t-1 -1t-2.5 -3t-4.5 -6t-7.5 -11t-5.5 -9q-9 -8 -19 -43q-8 -26 -13 -61q-1 -3 -1 -6v-2l3 -1l15 -5
l12 -4l11 -6q12 -7 16.5 -10.5t5.5 -3.5q2 0 12.5 13.5t15.5 21.5q1 1 1 2q11 11 29 55l10 22q8 18 14 43q3 11 8 25l4 14l4 7q11 18 25 32l6 5l4 2q4 1 12 4l8 2h11h10l6 -1q17 -2 36 -11t28 -18l4 -4l3 -7l6 -14l2 -7v-4q0 -3 -3 -15l-3 -12l-4 -8q-12 -27 -16 -32
q-1 0 -4 -5l-3 -5l-8 -4q-8 -5 -22 -12l-13 -6l-13 -1l-13 -1l-9 -3l-8 -2v-1q0 -2 -0.5 -2t-1.5 1v2l-3 -2q-4 -3 -7 -4l-4 -2.5t-5 -2.5h-1v-2l1 -1h-2l-2 1l-1 -1v-2h-1q-2 0 -4 -1l-4 -4q-2 -2 -3 -2t-6 -5.5t-4.5 -6t-2 -2.5t-3 -3.5t-21.5 -22.5q-28 -29 -34 -39
l-2 -4l2 -3l6 -9q12 -17 20 -37q4 -11 6 -15l2 -4l15 1q18 0 42 4q16 1 37 6q29 5 38.5 8.5t23.5 11.5l18 10l9 5l6 2l5 2h9q17 0 42 -4l12 -2l12 -3l18 -5l6 -2l3 -3q4 -2 12 -10l8 -8l6 -11q9 -19 9 -24q0 -8 -4 -27l-2 -12l-4 -7l-3 -7l-5 -4l-4 -5l-11 -5q-10 -5 -15 -7
l-5 -2h-6q-6 -1 -25 -1h-19l-4 1q-11 3 -23 8q-4 2 -20 13.5t-22 17.5q-1 1 -5.5 4.5t-6.5 5.5q-13 12 -16 12q-1 0 -5 3l-4 3h-34h-35l-9 -2q-9 -1 -23 -3l-14 -1l-5 -3l-5 -2l-2 -10q-2 -13 -7 -28q-3 -8 -10 -23q-4 -8 -4 -8.5t-2 -5.5q-7 -15 -7 -19v-2l3 -2
q14 -11 42.5 -26t41.5 -19q2 -1 7 -3l18 -7l12 -4l12 -2q12 -1 23 -4l11 -3l5 -3q14 -7 17 -9q3 -3 6 -4q5 -2 19 -12q10 -8 17 -16l5 -6l3 -7l3 -8v-13l1 -12l-2 -8q-3 -18 -14 -33q-3 -4 -3 -5t-1 -1t-1 -2q-4 -7 -22 -22l-6 -6q-9 -8 -22 -15q-16 -8 -26 -12l-8 -3
l-13 -1h-12l-9 2l-9 2l-5 2q-5 3 -8 5l-6 4q-17 13 -28 31q-3 3 -4 4.5t-5 8.5l-4 7l-2 6q-2 6 -3.5 13t-2.5 9l-1 2v16q1 15 1 16q2 3 2 36v13l-2 7q-1 6 -3 9.5t-4 7.5q-7 14 -23 22q-3 1 -13.5 7.5t-11.5 6.5t-19 -9t-23 -11q-5 -3 -14 -5q-26 -7 -27 -8q-2 -1 -3 -1h-2
v-4q-5 -27 17 -87l3 -10l7 -13l7 -13l3 -8q3 -8 7.5 -23t5.5 -17t2 -7l1 -5l-1 -6l-1 -7l-3 -9q-14 -40 -47 -50q-3 -1 -14 -2t-17.5 -2t-15.5 -1h-9zM482 162q3 1 10 2l7 1l17 8l16 8l6 7l7 7l3 6q4 7 7 15l11 26q10 22 12 48v6l-1 13l-2 12l-3 10q-4 10 -8 19t-5 12v3
l-6 6q-24 27 -49 36l-10 3h-3h-4l-2 -2l-2 -2v-3l-1 -2h-1h-2v-1v-4q-1 -11 -2 -25l-1 -10h1q1 -1 1 -3t2 -5.5t3 -6.5v-4l10 -14q10 -15 11 -15q9 -8 13 -23l2 -8l1 -11l1 -11l-1 -4q-1 -4 -5 -11l-5 -8l-7 -9l-8 -8l-6 -3l-6 -3l-3 1l-3 1h-11h-11l-5 3l-5 2h-3l-2 -1
l-3 3q-7 6 -9 6h-2l-6 5q-6 6 -9 11l-3 4v7v7l1 6q1 7 2 7v1l1 -2v-1l2 6q8 25 22 46q5 8 11 22q5 12 6 18q0 3 0.5 4t2.5 18l2 16l2 3l2 4v3v3l-2 2l-1 1l-12 -2q-26 -3 -41 -7q-8 -3 -20 -9l-6 -5l-5 -4q-23 -28 -35 -53l-5 -10v-4v-3l-2 -3l-2 -2v-14v-14l1 -10l4 -18
l4 -16q1 -6 4 -19l3 -12l2 -3q2 -3 14.5 -14t17.5 -15q10 -7 26 -13q18 -7 23 -7q4 -1 10 -2l6 -1l17 1h16z" />
  </g>

</svg>
