<?xml version="1.0" standalone="no"?>
<!DOCTYPE svg PUBLIC "-//W3C//DTD SVG 1.1//EN" "http://www.w3.org/Graphics/SVG/1.1/DTD/svg11.dtd" >
<svg viewBox="0 -200 1000 1000">
  <g transform="matrix(1 0 0 -1 0 800)">
   <path fill="currentColor"
d="M467 310q-7 0 -15 3q-31 11 -43 19q-11 7 -24 21q-11 11 -19 24q-1 1 -2.5 1.5t-4.5 3.5t-5.5 4t-0.5 2q4 3 -2 3q-2 0 -3 -1q-22 -31 -41 -46q-19 -14 -33 -19q-20 -7 -27 -5q-18 3 -34 13q-6 3 -12 5q-9 3 -21 10q-11 7 -19 18q-17 23 -20 38q-1 4 -1 16.5t3 24.5
q3 18 7 29q3 9 9 20.5t8.5 14t8.5 5.5q13 7 29 10q12 3 27 3q21 0 51 -13l15 -5l-1 1v3h1q-1 2 -3 5q-17 21 -30 48q-5 11 -8 30l-2 12q-3 20 1 54q2 9 2 12q0 4 18 28q17 22 37 32l12 6h13q17 0 34 -5q45 -15 71 -46q7 -8 11 -17q11 -29 5 -58q-4 -17 -10 -31
q-14 -35 -44 -66q-3 -2 -4.5 -4t-2.5 -3l-1 -1q1 0 4 2l14 8q11 7 20 9.5t17.5 3.5t22.5 1q42 -2 70 -16q13 -6 22 -15q8 -10 17.5 -25.5t11.5 -23.5q0 -4 0.5 -20t-1.5 -29q-2 -17 -5 -23q-11 -25 -42 -47q-22 -16 -46 -23q-11 -3 -35 -1z" />
  </g>

</svg>
