<?xml version="1.0" standalone="no"?>
<!DOCTYPE svg PUBLIC "-//W3C//DTD SVG 1.1//EN" "http://www.w3.org/Graphics/SVG/1.1/DTD/svg11.dtd" >
<svg viewBox="0 -200 1000 1000">
  <g transform="matrix(1 0 0 -1 0 800)">
   <path fill="currentColor"
d="M880 63q1 264 0 527v-264v-296v33zM483 428.5q-6 -0.5 -6 0.5t-4 1t-9 -1t-8 -3q-15 -7 -30 -23q-7 -7 -9 -8t-6 1q-6 2 -8.5 4.5t-6.5 0.5t-6.5 -2t-5.5 -2t-9 -8t-6 -9q-1 -4 -9 -3.5t-40 6.5q-14 3 -22 4.5l-13 2.5t-6.5 0.5l-1.5 -0.5q0 -2 5 -6t10 -5q9 -5 8 -8
q-2 -1 -4 -1t-2 -3q0 -1 -2.5 -2.5t-11.5 -4.5q-11 -3 -13.5 -4.5t-0.5 -4.5q0 -2 10 -1l22 2q-2 -2 -17 -9.5t-15 -10.5t5.5 -2.5t7.5 -3t-1 -5.5q-3 -1 -3.5 -3.5t2 -3.5t15.5 3t17 7q6 4 20 6q28 4 38 -2q10 -5 17 -18q5 -8 6 -9q12 -4 30 -2q7 0 11 -3.5t6 -3.5t5 -3
t2 -5q0 -2 1 -5.5t6 -3.5q11 0 12 -6q0 -2 3 -2t12 -4q19 -7 42 -11q10 -1 31 1q33 2 49 10q7 3 10 2q6 -1 12 10q31 60 -3 102q-20 25 -48 42q-21 12 -39 12q-13 0 -28 -1t-21 -1.5zM564 341q0 -16 -8 -31q-4 -6 -10.5 -13t-14.5 -8q-12 -1 -30 8q-15 7 -22 14
q-13 13 -22 29q-6 9 -15 9q-3 0 -4.5 2t5.5 10t11 9.5t6 4.5q8 9 61 9q24 0 27 -3q5 -6 10.5 -19.5t5.5 -20.5z" />
  </g>

</svg>
