<?xml version="1.0" standalone="no"?>
<!DOCTYPE svg PUBLIC "-//W3C//DTD SVG 1.1//EN" "http://www.w3.org/Graphics/SVG/1.1/DTD/svg11.dtd" >
<svg viewBox="0 -200 1000 1000">
  <g transform="matrix(1 0 0 -1 0 800)">
   <path fill="currentColor"
d="M565 42.5q0 0.5 -0.5 9t-0.5 12.5t-1 18v25q-1 17 1 34v2.5v5.5v4v2q1 0 0 3q-1 1 -0.5 3t-0.5 3q-2 2 1 4q1 1 0 2q-2 2 -1 2.5t0 1.5q-2 1 0 2t-2 2q-2 0 -1 1t1.5 0.5t1.5 -0.5l-1 1q-1 0 -1 1.5v1.5q-2 0 -2.5 3.5t-1.5 3.5q-2 0 -2 1t-1 3t-2.5 2t-1.5 1t-1 1
q-4 0 -7 2h-2t-4 -0.5t-3.5 0.5t-2.5 1t-2.5 0.5t-1.5 0t-6 -0.5h-9t-13 -0.5t-11 -0.5t-7 -0.5t-11 -1t-9 -0.5h-9l-13 -1q-17 -1 -32 -3l-26 -3q-10 -1 -30 -4q-12 -2 -33 -11q-17 -7 -23 -11q-15 -9 -41 -17q-21 -6 -53 -9q-16 -2 -32 -3q-20 -1 -47 -3l-11 -1
q-5 -1 -10 -1.5t-14 -1t-14 -0.5q-12 -1 -13.5 -1t-0.5 4q1 9 2 14q1 4 2 12.5t1 9.5t0.5 2.5t1.5 9.5q1 6 4 21q1 6 3 13l2 13l2 10q0 3 2 10l2 14l6 31q1 4 1.5 8.5t1.5 9.5t2 8q1 6 4 22l1 4q0 2 1 7.5t1.5 7.5l2.5 10q3 16 4 20l4 23q1 3 2 7l2 10l3 16l2 9l2 8
q2 8 4 20q4 23 5 24q1 0 6.5 0.5t12.5 1t16 1.5q14 0 24 2q8 1 29 5l16 3q27 5 41 13q9 5 14 9l9 6l8 5q1 1 3 2l11 7q12 9 26 15q15 6 28 9q5 1 6.5 1.5t7.5 1.5l9 2q7 2 26 4l13 1q5 1 12 1.5t19 0.5q28 2 102 0h29q22 -1 24 -1q1 0 1 -2q1 -5 2 -20v-16q2 -46 1 -84
q0 -23 -0.5 -44.5t-0.5 -29.5v-20l-2 -43q0 -9 -1 -39v-25q-1 -36 -3 -59q-1 -7 -1.5 -18t-1 -14t-0.5 -8.5t-0.5 -5.5t-0.5 -6t-0.5 -13.5t-1 -29.5t-0.5 -31.5v-24v-14.5q-1 -2 -27 -5l-13 -2h-5q-2 0 -2 0.5zM561 187h-1h1zM561 159q0 1 1 1v-1h-1z" />
  </g>

</svg>
