<?xml version="1.0" standalone="no"?>
<!DOCTYPE svg PUBLIC "-//W3C//DTD SVG 1.1//EN" "http://www.w3.org/Graphics/SVG/1.1/DTD/svg11.dtd" >
<svg viewBox="0 -200 1534 1000">
  <g transform="matrix(1 0 0 -1 0 800)">
   <path fill="currentColor"
d="M1119 13q-1 1 -1 2v1l-1 -1h-1h-1l-1 1h-1v-1v-1h1l1 -1v-1h-7h-1v1v0h1l-1 1v1h1h1h-2h-1v-1v-2l-1 1h-1v1h1h-1l-1 -1v1v1h-1l-1 -1h-2h-2l-1 1v1h-1v-1v1h1l-2 2q-3 1 -4 2h-1l-1 2q-1 4 -3 4q-1 0 -1 1v1v1h-1v1l-1 -1h-1v1h-1l-2 2l-1 1v-1h-1l-1 1q1 0 1 1v1h-1v-1
h1h-2l-1 1v-1v0h-1v2q0 3 -0.5 3t0.5 1h-1l-1 -1v2l1 1l-1 -1h-1l-1 1l-1 1h1v1h-1l1 1l1 1h-1h-1v-1v0h-1v1h-1l-1 1v-1v0h-1h1v1h-1l-1 -1v1h1h1l-1 1h-1l1 1l2 1l-1 1l-1 1l-1 -1v1v1v1h-1h-1v1h1h-1h-1l1 -1v-1q-1 0 -1 1l-1 1v-1v-1h-1v1q-1 1 -1 2l-1 1l1 1h-1h-1h1v1
l-1 1h-1v1v1h-1h1l1 -1v-1h1v2v1v0h-1l-1 1v-1h-1v1h-1q0 -1 -1 -1h-1h-1q-1 1 -1 2v1h-1l-2 1h1h1l-1 1h-1h-1v1h1l-1 1h-1v1l-1 1l-2 2t-2 1l-1 2l-1 2h-1.5h-0.5h-1v2l-1 2l-1 1l-2 1h-1h-1h1v1h-1l-2 1v1q0 1 -1 2l-1 1v-1v-1v1h-1h-1v1v1h-1h-1v1v2h-1h-1v1h-1h-2h-1
q0 1 -1 1h-2v1l1 1h-1h-1v1h-1h-1l-1 1l-1 1h-1h-2v-1v1l-1 1h-1l-1 -1h1v-1h-1l-1 1v1l-1 -1h-2l-1 1l-1 -1l1 1v1h-2h-2l-1 1v-1l-1 -1l-1 1l1 1l-1 -1l-2 -1l-1 1l-1 1v-1l-1 -1h-1v-1l-1 1l-1 1v-1l-1 1h-2h-2v-1v1l-1 1v-1q-1 0 -1 -1h1v1v-1l-1 -1l-1 2v0v1h-3h-1v-1
l-1 -1h-1h-4l-1 -1v1v1l-1 -1l-1 -1v1v1l-1 -1h-1v1h1h-1l-0.5 -0.5l-0.5 -0.5h-1v1q0 1 -0.5 1h-1.5h-1v-1l-2 -1l-1 -1l1 1l1 1h-1q0 1 -3 1h-3l-1 -1v1h-1h-1v-1v-1h1h-1q-3 1 -4 1v1l-1 -1v-1l-1 1h-1h-1l-1 -1l-1 1h-1h-1v1h-2l-1 -1v1v1l-2 -1h-2.5t-1.5 -0.5t-2.5 -1
l-1.5 -0.5l-1 1v-1v-1h-1v1h1l-1 1l-1 1h-1h-1v1h-1l-1 1v-1h-2l-2 1l-1 -1l-1 -1v1h-2q-3 0 -4 -1l-2 1l-1 1l1 -1v-1l-1 1q-3 2 -4 2h-1v1h1h-1q-1 0 -2 1l-1 1h1v1h-1h-1l1 -1v-1h-1h1h1v-1l-1 -1h-1v1l-1 1l-1 -1h-1v1l-1 1l-1 -1l1 -1l1 -1h1h1q0 -1 -1 -1h-1h-1l-1 1
v-1h-2h-2q0 1 -1 2h-2h1l1 -1h-1h-1.5t-1.5 -1h-2l-1 1q0 1 -1 1v1v-1v-2l-1 1v1l-1 -1h-2l-1 1l1 1h-1h-1v-1l1 -1h-1v-1v1h-1h-1v-1h1h-2h-5h-2v1l1 1h-1h-1v-1l-1 -1l-1 1h-2h-1h-1l-1 1l-1 -1h-1h-1v1h-1h-2h1v1l-1 -1v-1l-1 1h-2l1 -1h-1v1h-1h-1v-1v0q-1 0 -2 1h-2
l-1 -1v1h-1h-1v-1h-1l-1 1v-1h-1l-1 1h-1h-1l-2 1v1l-1 -1l-1 -1v1l1 1h-1h-1l-1 1l-1 1h-1l-1 -1h1l1 -1v-1l-1 -1l-2 -1h-2v1h-1h-2h-2l-1 1h-1h-1l-1 1l-1 1v-1h-2h-2v-1l-2 1h-2l1 -1v-1l-1 1h-1h-4h-3l-1 1v1h-1h-1l1 1l-1 1h-2h-1v1l-1 1v-1l1 -1l-1 -1l-1 -1l-2 1h-2
v1h-1h-1v-1l-1 1q-1 1 -3 1h-2v-2l-1 -1v1l-1 1l-1 -1v0v1h-1h-1l1 -1l1 -1l-1 1h-1h-1h-1l-1 1v1v-1h-1v1h-1h-1l1 -1h-1v1h-2q-1 1 -3 1h-1v-1h-1v1h-1h-1v1h-1l-1 -1l-2 -1l-3 -1l-1 1v1v0l-1 -1l-2 1l-1 1v-1h-1v1h-1l-1 -1h-2h-2l1 1v1h-1h-1v-2v0q-1 0 -2 -1h-1l-2 1
l-2 1v-1h-1h-1h-5.5t-4 0.5t-2.5 0.5h-3v1l-1 1l-1 -1h-1h-2l1 -1v-1h-1v1h-2h-2l-1 2l-2 2l1 -2l1 -1h-1h-1l-1 1h-1v-1v-1q-1 1 -2 1h-1v-1h-1h-1v1v1l-1 -1l-1 -1h-1v1v1l-1 -1h-1q-1 0 0 1v1h-1h-2v-1v0h-1l-1 -1v-1h-1q-1 0 -1 0.5t-2 0.5l-1 1l-1 -1l-1 -1l-1 1l-1 1
v-1h-3l-2 1v-1h-1h-1q-2 0 -4 1h-3h1v1l-2 -1h-2v1h-1h-1h-3l-1 -1v1h-2h-1v1h-1l-1 -1l-1 1l-1 1l-2 -1h-2v-1h-1l-1 -1l1 1v1h-1v-1h-3h-3l-2 3l-3 2h-1h-1l-1 1l-1 1l-1 -1h-1q-1 0 -16 31l-8 17l-6 12l-4 9l-9 19q-14 28 -18 32l-1 2h-2h-3t-2 1h-2h-2l-2 -1v1h-2
q-2 -1 -3 0l-1 1l-1 -1h-1h-1l-4 -1h-4l-1 1h-1h-1v-1h-4h-14h-5v-1l-2 1h-2h-1h-4q-6 0 -9 -1h-2h-4l-4 1v-1h-2h-1v-1l-1 1h-1l-7 -1q-12 0 -14 -1h-1l1 1h-1l-3 -1h-3l-1 -1h-1l-1 1l-1 -1h-2q-6 1 -9 0l-2 -1v1h-1v-1h-2l-2 1l-1 -2l-1 -1v1l-1 1l-3 -1h-4.5t-1.5 -1h-1
h-1l-2 -1l-2 -1q-5 -4 -5 -5l-1 -2q-2 -2 -5 -6l-1 -2q-1 0 -1 -1l-9 -11l-2 -1h1v-1h-1l-1 -2l-1 -2h-1l1 1v1h-1v-1v-1l-2 -1l-1 -2q0 -1 -3 -3l-2 -3v-1v0h-1l-1 -1q0 -1 -2 -3l-4 -4l-2 -2v-1l1 -1h-1h-1h-1l-1 -1l1 -1h-1h-1v-1v-1l-1 -1l-2 -1h1v-1h-1v0v-1h-1h-1v-2
l-1 -1h-2h1l1 -1l-1 -1q-2 0 -2 -1l-1 -1h-1v1v-1v-1h-1l-0.5 -1t-0.5 -2v-1h-1q-2 0 -2 -3v-1h-1h-2l-1 -1h1h1h-1v-1h-1v1l-1 -2v-1h-1h-1l-1 -1v-1l1 -1h-2l-1 -1v-1l-1.5 -2t-2 -2t-0.5 -1h-1v-1v-1h-2l-1 -1l-1 -1v0h-1l-221 6q-11 1 -14 1h-2v1v6l1 17q1 10 1 11
q1 1 2 22t4 51q1 22 3 57q2 29 2 34q1 3 1 12q1 14 2 15h8h9v-1v1h1h12q16 0 43 1q33 1 56 1h6h1l1 -1v1v1h4h9h5l1 -1l2 1h1h2h2h3l3 1l1 -1h1q1 1 13 1h7l1 -1h1v1h1l1 -1l1 1h5h4h2h1h1h1h-1v1h2q2 -1 5.5 -1t4 -0.5t0.5 0.5l1 1h5l5 -1v1h1h1h3l2 1l14 13l16 17l5.5 5.5
l13.5 13.5q36 35 36.5 35t2.5 3q8 10 14 14l1 1v1h1l9 8l6 6l6.5 6.5l3.5 3.5l6.5 6.5t7 6.5t1.5 2l1 1h7q8 1 15 1h7h1l1 -1q1 1 16 1h15q0 1 1 1v-1h-1h7h14h5l3 1h2h2q2 0 17 -1h15l1 1h2l1 -1h6h7h1h1v1v-1h1l1 1l2 -1h4.5h5.5h25h5h8.5h9.5t4.5 0t6.5 0h6v0h1l1 1l3 -1
h8h5v1h1h2q2 0 5 -1h3l1 1h1v-1h1v1h8h8h-1v1h8l8 -1h1h1h1l10 1h17h7v1v-1q0 -2 -1 -4l-1 -3v-6v-6v-3q1 -4 1 -5.5t1.5 -4.5t1.5 -3.5t0.5 -1t1.5 -2t5 -5.5l4 -5l2 -1q11 -7 25 -8h2h5l4 1l5 1l4 2l2 1q1 1 2 1t1.5 1t2.5 2t3.5 2.5t2 1.5t1.5 1l1 2h1l3 5l3 4l2 5l1 4
l1 5l1 4v2q0 3 -0.5 4t-1 5t-0.5 5l-1 1h2l2 1h2l2 -1h9.5t14.5 -0.5t11 -0.5h6l-1 1l1 -1h1h2h3l1 -1l2 1h2l2 -1h2h1l2 1v-1h1h2h2v-1h5h7.5t9.5 -1h11q5 0 9 -1h4l1 1h1l-1 -1h4q4 0 7 -1h2v1h1v-1h6l5 1v-1h7q7 0 17 -1h10h1v-1l3 1h2l1 -1h5h13q8 -1 10 0h2v-1h4
q18 0 23 -1h2h1l1 1l1 -1h2h10q10 -1 13.5 -1h6.5h2l2 -2l1.5 -1.5t1 -0.5t10.5 -10q6 -6 6.5 -6t2 -1.5t2 -1.5t3.5 -3l7 -7q1 0 5.5 -4.5t6.5 -5.5l2 -1v-1v-1h1q1 -1 9 -8l8.5 -8.5t2.5 -1.5v-1v-1h1l1 -1l2 -1h1v-1l3 -3q11 -11 13 -12l4 -4l9 -8q7 -7 8 -7.5t3.5 -3
l4.5 -4.5q4 -3 9 -8l3 -2l1 -1h1v-1l2 -1l1 -1h11q27 -1 34 -1q2 0 10.5 -0.5t18 -1l19.5 -1t13.5 -0.5h8.5h4l2 -2l3 -3l1 -1h1v-1q1 -2 16 -18l9 -9l15 -16q2 -1 7 -8l9.5 -9.5l3.5 -3.5q1 -2 14 -15l12 -14l5 -5q4 -4 13 -14l5 -6l2 -2v-2v-3q0 -1 0.5 -8.5t0.5 -8.5
t0.5 -9.5t0.5 -13.5q1 -7 1 -11v-10q1 -12 1 -19q1 -4 1 -12v-8l-1 -2l-1 -2h-1v-1h-1h-7l-1 -1v1h-1h-3t-7 -1l-6 -1h-1v1l-1 1v-1v-1h-6l-6 1l-1 -1h-1l-1 1v-1h-1q-1 0 -10 -0.5t-11 -0.5t-4.5 -0.5l-2.5 -0.5h-5h-4v-1h-3q-2 1 -3 1h-2v-1h-2h-8q-6 0 -6 -0.5t-4 -0.5
h-3h-1v-1l-4 1h-3h-1l-1 1l1 -1h-2q-3 0 -10 -1q-3 -1 -4 -1h-1v1h-3l-2 -1h-1v-1v1h-2h-1h-3l-2 -1l-1 1h-3q-4 -1 -5 -1v0l-1 1q-1 -1 -3.5 -1h-4.5h-1l-1 1v1h1v1v1l-1 1v-1l1 -1h-1h-1v1h1l-2 1h-2v0v-1l1 -2v1h1l1 -1v-1h-1h-1l-1 -1h-3h-3v-1h-1h-1h-2v1l-1 -1
q-2 -1 -3.5 -1t-2.5 -1l-1 -1l-3 1h-5h-5l-2 1v-1l-1 -1h-3h-4v-1v1v1l-3 -1l-3 -1l-1 1v-1h-2h-2q-1 -1 -2 -1q-2 1 -5 -1h-1l1 1h-1q-1 0 -2.5 -1.5t-1.5 -2.5h-1v1h-1h-1v-1h1h-2l-1 -1v-1v-1h-1h-1l-1 -1q0 -1 -1 -2q-3 -5 -2 -8h-1v-2v-2h-1v-1v-2v-2h-1v-1v-1l-1 -2
q-1 -2 -1 -3q-1 -5 -3 -8v-2l-1 -1h1h1l-2 -1l-1 -1l1 -1v-1l-2 -4q-1 -4 -1 -5l-0.5 -1t-1.5 -2v-1l1 -1h-1v-1l-1 -2v-3h-1v0l1 -1h-1v-1v-1v-1h1h-1q0 -1 -1 -3l-2 -2h1l1 -1h-1h-1v-2l-1 -2h-1v-1q0 -2 -1 -3l-1 -1l1 -1v-1h-1h1v-1h-1h-1v-1q-1 -1 0 -2l-1 -1l-1 -1v-1
v-1l-1 -1l-1 -1h1v-1h-1l1 -1v0h-1v-1q0 -1 -0.5 -1t-1.5 -2v-1h-1h-1v-2l-1 -2h-1h-1h1v-1v0l-3 1q-2 1 -3 1v-1l-1 -1l-1 -1v-1l-1 -1l-67 -5l-51 -4v0zM1112 12zM1109 14h-1h1zM1100 16v0v-1v1zM1109 16h-1h1zM1178 16zM1106 17h-1v-1zM1116 17h-1v-1zM1167 18v0h-1h1h1
h-1zM1170 19l1 1l-1 -1v-1v1zM1094 19v1v-1v0zM1089 22v0v0zM1236 24h2h-1l-1 1l-1 -1h-1v-1h1zM1235 24h1v0h-1zM1237 23v0v0zM1233 25h-1v-1h1v1zM1230 25h-1h1zM1088 27h-1l1 -1v1zM1082 32h-1v0h1zM1080 33l-1 1h-1h1v-1h-1v-1h1h1v1zM1078 35h-1v-1h1v1zM1249 34v0v0z
M1251 35h-1l1 -1v1zM1080 36h-1h-1h1h1l-1 -1h1h1zM1254 40l-1 1v-1h1zM1068 47q0 1 -0.5 1t-0.5 -1h-1h1h1zM1057 54v1v-1v0zM1056 60v1v-1h-1h1h1h-1zM1056 63v0v-1l1 1h-1zM1053 63l-1 1v-1h1zM1051 64l-1 1l-1 1l1 -1zM1051 67v0v-1v1zM1034 80v1h-1h1v-1zM1030 86v1v-1
v0zM1270 88h-1h1zM995 103v1l-1 -1v-1zM938 105v0v-1v1zM986 105h-1v0h1zM928 105v1v-1v0zM931 105l-1 1v-1h1zM956 105l-1 1v-1h1zM988 105v1v-1v0zM922 106v1v-1v0zM936 106v1l-1 -1h1v0zM943 106v1v-1v0zM926 107h-1h1zM856 108h-1v0h1zM855 109v1h-1h-1l1 -1v-1z
M859 109v0v-1v1zM932 109h-1v-1zM934 109h-1v-1zM942 109v0v-1v1zM839 109v1h-1v-1h1zM846 109v1h-1v-1h1zM858 109l1 1h-1v-1v0zM876 110h-1v-1h1v1zM824 110q-1 0 -1 -0.5t0.5 -0.5t0.5 1zM842 110v0v-1v1zM845 110h-1v-1zM847 110v0v-1v1zM867 110h-1v-1zM869 110v1v-1
v-1v1zM806 110v0v0zM868 110h-1v0h1zM872 110l-1 1v-1v0h1zM920 110v1l-1 -1h1v0zM805 111v0v-1v1zM809 111h-1l1 -1v1zM826 111v0v-1v1zM835 111v0v-1v1zM845 111v0v-1v1zM847 111v0v-1v1zM853 111l-1 1v0v1l-1 -1q0 -2 1 -2h1v1zM851 111h1v0h-1zM867 111h-1h-1v-1h1
q1 0 1 1zM977 111h-1v-1zM781 112v1v-1v-1v0v1zM825 111v0v0zM854 111h-1h1zM859 111v1h-1v-1h1zM864 112h1h1q0 2 -2 1q0 -1 -1 -1l-1 -1h1zM888 111v0v0zM824 112h-1v-1h1v1zM827 112h-1l-1 -1h1h1v1zM847 112h-1v-1zM887 112h-1v-1h1v1zM918 112v0v-1v1zM920 112z
M784 113v0h-1q0 -1 0.5 -1t0.5 1zM834 114l-1 1v-1h1zM716 116v1v-1v0zM746 116v1v-1v0zM718 117v0v0zM689 119v-1v0v1zM751 118l-1 1v-1h1zM666 119v0v0zM675 119v1h-1v-1q0 -1 1 0zM700 120v-1v0v1zM660 120v0v-1v1zM656 121v0v-1v1zM616 123h-1h1zM1288 133h-1v0h1z
M1348 143h-1h1zM304 145h-1l1 -1v1zM1353 145h-1v-1zM1357 145h-1v-1h1v1zM1362 146l-1 1v-1h1zM1432 148v0v0zM315 157h-1l1 -1v1zM326 170l-1 1v-1v0h1zM394 243h-1v-1zM526 250l-1 1v-1h1zM553 266v1h-1v-1v-2v1q1 0 1 1zM1014 330v0v0zM1201 370q10 1 14.5 1t6.5 1h2
l1 1v1l-1 1l-1 2v0v1l-5 5q-5 5 -5 5.5t-1 1.5l-1 1v0h-1v1q0 1 -4 5l-4 4h-1v1q-2 3 -4 3v1q-1 2 -11 12l-6 6l-1 2l-3.5 3t-3.5 3.5t-4 4.5l-3 4h-1h-1h1v1l-2 1l-2 2l-5.5 6t-8.5 10l-8.5 8.5l-8.5 8.5l-4 4l-3 3q-3 2 -4 3h-2h-7h-9h-11h-11h-2h-9t-19 -1h-3v-1h-1v1h-4
h-3v0h-4h-4h-2l-2 -1h-10h-9h-1h-1v1l-1 -1h-5q-14 0 -16 -1h-2v1h-4q-4 -1 -13 -1h-8l-2 -1h-1v1h1h-1q-2 -2 -6 -1q-1 0 -2 -1l-3 -1h-2l-1 -2v-2v-6q1 -6 1 -9q1 -4 1.5 -10.5t1 -10.5t1 -6.5t0.5 -6.5t0.5 -8.5l1.5 -13.5q1 -15 2 -17q0 -3 1 -10l1 -7v-1h10h15l11 -1
h21l31 -1h77h78h9zM1127 496h-1v-1zM691 525h-1v0h1zM779 525v1l-1 -1h1zM932 527h-1v0h1zM1100 13l1 1v-1h1v1v-1h-2zM1103 12q0 1 -0.5 1t-0.5 -1h1zM1104 12zM1115 14h1l-1 -1v1zM1239 22zM1241 22v1h1zM1077 30v1l1 -1h-1v0zM1253 38h1v-1h-1v1zM1257 43v0v0zM1066 44v0
v-1v1zM1256 44v0v0zM1257 44v0v0zM1063 45v0v-1v1zM1060 46h1l-1 -1v1zM1046 65v0v0zM1034 77h1v-1zM1020 89h1l-1 -1v1zM1016 93h1h-1zM973 98h1h-1zM1004 99h1v0h-1zM1003 100h1v0h-1zM936 102v0v-1v1zM934 102l1 1v-1h-1zM968 102l1 1v-1h1h-1h-1zM966 103v1l1 -1v0
l-1 -1v1zM928 103v1v-1v0zM902 104h1v0h-1zM905 104h1v0h-1zM988 104h1v0h-1zM899 104v1v-1v0zM884 106v0h1h-1h-1h1zM838 107v1v-1v0zM772 109h1h-1zM810 110h1q1 0 1 -0.5t-1 -0.5h-1v1zM789 110v0v0zM759 112v1h1v-1l-1 -1h-1zM769 112h1v-1h-1v1zM763 112v0v0zM768 112
h1h-1zM774 112h1v0h-1zM761 113v0v-1v1zM775 113v1l1 -1v0l-1 -1v1zM745 113v0v0zM774 113h1v0h-1zM737 114h1l-1 -1v1zM713 115h1h-1v0zM727 115v1v-1h1h-1h-1h1zM738 115v1l1 -1h-1zM1280 115v1v-1v0zM694 116v1v-1v0zM620 119v0h1q0 -1 -0.5 -1t-0.5 1zM623 119h1h-1z
M638 119v1h1h1l-1 -1h-1zM304 143v0v-1v1zM305 145h1v-1zM333 175v0v0zM365 215h1h-1zM392 241h1v-1zM434 245v0v0zM1001 524v1v-1h1h-1v-1v1zM951 527h1h-1z" />
  </g>

</svg>
