<?xml version="1.0" standalone="no"?>
<!DOCTYPE svg PUBLIC "-//W3C//DTD SVG 1.1//EN" "http://www.w3.org/Graphics/SVG/1.1/DTD/svg11.dtd" >
<svg viewBox="0 -200 1443 1000">
  <g transform="matrix(1 0 0 -1 0 800)">
   <path fill="currentColor"
d="M889 -12l1 4l1 3l2 3q2 3 2.5 4.5l0.5 1.5q1 1 4 7q13 27 13 27.5t3 8.5q1 2 1 2.5t1.5 3t3.5 7.5q4 13 6 16l2 3v1v2q2 2 8 21q2 6 3 8.5t2.5 7t3.5 8.5l4 8q0 2 2 6.5t3 7.5l5 12q2 4 2 4.5t3.5 7.5t3.5 8l5 10q5 11 5 13q0 1 0.5 1t0.5 1t2 4.5t2 4t1 3.5q4 9 2 10
l-1 1l-2 -1l-1 -1l-2 1l-1 1h-7q-6 -1 -10 -1l-11 -1l-10 -1q-3 0 -11.5 -1.5t-12.5 -1.5q-5 -1 -18 -3q-5 0 -17 -2q-2 0 -6 -0.5t-6 -1.5l-9 -1q-7 -1 -9 -2q-6 0 -7 -1l-1 -1v1v1l-1 -1q-3 -1 -19 -2q-3 -1 -7 -2h-5h-1h-1q-1 -1 -5 -1h-3v-1h-2l-3 1l-1 -1v-1l-3 -1h-2
h-4h-14h-9v1l2 6l11 22q8 15 8 15.5t4 8.5q1 2 3 8l5 12q2 5 2 5.5t1 1.5t2 4t3 7.5t3 8.5q4 11 9 18q0 2 1 4q2 5 6 13q5 10 5 11t0.5 1t0.5 1t1 3.5t1 3t2 4.5t2 5t1 1q2 1 8 20l1 3v2v1l1 2l2 4l2 1l1 3q3 6 -3 10l-3.5 3.5t-2 1.5l-4.5 3q-7 6 -16 12q-2 2 -3.5 3t-2 1
t-0.5 0.5t-5 4t-6 4.5q-8 7 -14 10q-9 6 -10 8h-1t-1 0.5t-4 3.5t-5 4t-1.5 1t-2.5 1.5l-2 1.5q-2 0 -8 6q-1 1 -1.5 1t-2.5 1.5t-2.5 1.5t-1.5 1l-1 1l-1 1q-2 0 -4 2l-2 2l-1 1t-2 1l-4 3l-4.5 3t-8.5 7l-5 3l-3.5 2.5t-3.5 3.5q-1 0 -3 3l-2 2l1 1v1l3 1l3 1l7 1q7 1 8 1
q1 1 29 6q29 5 51 11q6 1 11 2t12 3q14 3 17 3q3 1 13 2l19 4q13 2 24 5l13 3l10 2l4 1h1l1 1l-2 2q-1 1 -4.5 3.5t-4.5 3.5q-2 2 -17 13l-8 6q-4 2 -9 5t-9 6l-4 3l-6 4l-9 6q-4 2 -6 4q-3 2 -5 3q-1 0 -7 4.5t-7.5 5t-1.5 1t-0.5 0.5t-2.5 1q-9 6 -10 7q-1 0 -3 2
q-14 11 -28 19q-1 1 -1 2l-1 1h-1h-1q-4 6 -8 6l-1.5 2t-2.5 2t-2 1q-5 5 -10 7q-1 1 -2 1l-1 1h-1l-1 -1l-1 2q0 1 -0.5 1t-0.5 1t-0.5 1t-1.5 2v1l-1 1q-1 0 -2 1h-1l2 1h4l2 1l4 -1q5 -1 10 -1q8 -1 12 -2q2 0 3.5 -0.5t3.5 -0.5l2 -1h4h4l2 -1q3 0 5.5 -0.5t3.5 -1.5
q2 -2 13 -2l4 -1l2 -1l1 -1l4 -1q3 -1 3.5 -1t1 -0.5t5.5 -1.5t5.5 -1.5t4 -1.5t11.5 -4l12 -3l9 -3l13 -4q8 -3 9 -3q9 -4 13 -4l1 -0.5t4 -1.5l9 -3l13 -4l15 -5q9 -3 10.5 -3t5.5 -2q2 0 8.5 -2t7.5 -3t2 -1t6 -2l11 -3q6 -2 7 -2q4 -2 15 -5q3 -1 4.5 -2t4.5 -1.5
t4.5 -1t3.5 -1.5h2l2 1q2 1 2 1.5t2 1.5q3 2 21 15q6 4 10 7l13 11l17 12q15 12 16 13q0 1 1 1q2 0 14 9q1 1 2 1t1 0.5t3 2.5t3 2.5v0.5h1l-2 -5q-1 -4 -3.5 -11t-3 -7.5t-2.5 -5.5l-4 -11l-6 -15q-3 -11 -4.5 -14t-4 -9.5t-3 -7.5t-1.5 -5q-2 -4 -3 -9q-5 -13 -9 -26
l-2 -7q-1 -3 -2 -6.5t-1 -4.5v-2h-2q-2 0 -2 -1v-1l1 -2v-5q-1 -4 -1 -8q-1 -4 -1 -6v-2v-1q1 0 2 -1h2l1 1l1 1v1v2h1l3 -3q3 -3 4 -5l1 -1h2q2 0 9 1q10 1 16 1q3 0 10 1.5t11 1.5l5 1l1 -1h1v1l3 1h2.5t3.5 0.5l9 1.5t11 2l4 1h9q9 1 9.5 1t3.5 1q8 0 16 2l14 2t10.5 2
t10.5 2q12 2 17 4q3 1 11 2q3 1 6 1q12 3 22 5q5 1 8.5 1.5t5 1t2.5 0.5t5 0.5t5 1.5q8 2 31 5l9 2h2l1 -1v1h3h3l1 1q2 1 4.5 1h3.5l1 1v-1h2q2 1 4 1h2v-1h1v1h1h1v0l3 1h4h1l-1 -1h-1l-3 -3q-5 -5 -6 -4l-1 -2l-1 -2l-2 -1q-2 -2 -4 -3t-4.5 -2.5l-2.5 -1.5l-1 -1h1l1 1
l-3 -3q-3 -3 -3 -4q-2 -2 -9 -7l-20 -17q-5 -4 -10 -7l-9 -7l-23 -16q-4 -3 -5.5 -4t-3.5 -1.5t-3.5 -2t-16.5 -11.5q-16 -11 -31 -23q-6 -5 -6.5 -5t-7.5 -6l-12 -9q-5 -4 -6 -5l-7 -6q-16 -13 -18 -14l-4 -4q-3 -3 -7 -6.5t-6 -5t-2.5 -1.5t-0.5 -1t16 -5q5 -1 6 -2
q3 -1 13 -2q7 -1 9 -2v-1h1l1 1v-1q1 0 4 -1l3 -1l2 -1q2 -1 3 -1l2 -1h2h3l1 -1l1 -2l1 -2h1l2 -1q4 -4 7 -4q0 -1 2.5 -2t3 -1.5t3.5 -2l3 -1.5v-1h1l1 1v-1q1 -1 1.5 -1t2.5 -1l3 -1.5t3 -2t2.5 -1.5t2.5 -1.5l2 -1.5q2 -1 3.5 -2t3 -1.5t4 -2.5t3 -2h0.5v-1h1h1
q1 -1 2.5 -1.5t2.5 -1.5q2 -2 3 -2t2.5 -1.5t2 -1.5t1.5 -1t3 -2l2 -2v-1l1 1l1 -1l2 -2h1v1v-1v-1h-1h1h1l2 -2l3 -2l-1 -2q0 -1 -0.5 -1.5t-0.5 -1.5l1 -1l-6 -1l-20 -3.5t-17 -3t-8 -1.5q-16 -3 -27 -4q-7 0 -7.5 -0.5t-9.5 -1.5t-20.5 -3t-14.5 -2q-7 -1 -9 -2t0 -5
q1 -2 1 -2.5t3 -6t4 -8.5t2 -4.5t1 -2.5v-1l1 -3q2 -3 9 -17q3 -7 3 -8l15 -32q2 -4 2 -4.5t1 -0.5q2 0 2 -5h1v-2q1 -3 8 -15l3 -6q3 -8 3.5 -8t0.5 -0.5t1 -2.5q3 -6 3 -7l0.5 -1.5t2.5 -5.5t3 -5q0 -2 2 -6l3 -7q3 -7 8 -16q4 -9 4 -10t6 -13q3 -5 3 -5.5v-0.5h1v-2l2 -4
q3 -5 4 -9v-2h-7q-6 0 -8 1h-1l-1 2l-1 1l1 1l1 1l-1 1h-1h-2q-1 0 -2 1h-1v1v1l-2 1q-2 1 -2 2v1h-1h-1l-1 1q-1 1 -1.5 1t-2.5 2q-7 6 -9 6q-1 0 -3.5 1.5t-5.5 2.5q-4 1 -8 5q-1 2 -2 2q-3 1 -10 5l-8 6l-6 4q-3 2 -3.5 2t-2.5 1.5t-3 2l-4 2t-5 3t-5 2.5q-5 3 -7 5
q-4 4 -28 15l-10.5 7l-9 6l-9.5 6.5l-11 7.5l-4 1l-2 -2q-2 -2 -16 -15q-32 -32 -35 -33q-1 0 -2 -2q-4 -5 -12 -11q-2 -1 -4 -3t-7 -6l-7 -6q-3 -3 -3.5 -3t-3.5 -2q-12 -10 -17 -13l-3 -3t-4.5 -3.5t-2.5 -2t-1 -0.5q-4 -2 -7 -5q-2 -2 -10 -7q-1 0 -3 -2t-5 -4l-6 -4
l-4 -3l-4.5 -3t-9 -5.5l-7 -4t-4.5 -2.5t-4 -3l-1 -1v-1h-2h-1l-5 -3l-12 -6q-6 -4 -7 -4.5l-4 -2t-6 -3.5t-4.5 -2.5t-8.5 -4.5l-7 -3h-1h-2v0v0v0v0v0zM961 68l3 1h4h4l2 2q2 1 5 3.5t5.5 4t3 2t2.5 2t5 4l3 2.5q1 0 11 9l4 3l2 3l1 3h2l3 1l5 6l20 20q3 4 4.5 5.5t6.5 7
l9 10t7 7.5t8 9l10 10q6 6 6 8v1l1 1l2 1l6 5q5 6 6 7q6 7 9 10l2 1l1 -1h1v-1v-1l3 -2q3 -2 6 -6q4 -5 9 -7q3 -2 5.5 -4t6.5 -4l6 -3q3 -1 7.5 -3.5t6.5 -4.5l2 -1h1l2 -2q3 -2 4 -2q2 -1 5 -3q2 -1 8.5 -4.5t7.5 -3.5q3 -3 15 -8q6 -4 7.5 -4.5t5.5 -2.5l5 -3h2h2l3 2
q4 5 4 7l-2 3t-2.5 3.5t-0.5 1t-1.5 2t-1.5 2t-1 2.5l-3 4q-1 2 -1 2.5t-2.5 3.5t-2.5 4v1h-1v1l-1 1l-2 3q-3 6 -7 12l-2 3l-1 1t-4.5 7t-4.5 8l-2 2v1v2q-1 0 -6 7q0 1 -1.5 3t-3.5 5t-2 4q-1 0 -1 1t-0.5 1t-1.5 3q-4 6 -7 11q-6 10 -6 11l-7 11q-2 2 -2 2.5t-1.5 3
t-1.5 3.5v1h2q3 0 5 1t8.5 2.5t7.5 2t3 0.5q16 3 27 6q15 5 29 6q5 1 8 2l2 1l1 -1v-1h5q4 0 7.5 1t4.5 1q5 1 9 3l4 2v1l1 2l-1 1l-1 2h-1q-1 1 -2 1q-4 2 -23 7q-2 1 -13.5 5t-15 4.5t-4.5 1t-3 1t-11 3.5l-37 11l-8 2q-5 2 -18 4q-21 6 -21 7l-1 1h1h1v1h1l3 3q5 5 17 13
l14 10q2 1 2.5 1t0.5 1q1 1 6 4.5l5 3.5q1 0 4 2.5t3.5 2.5t1.5 1q5 5 13 10q2 0 3 1q6 5 7 5t1.5 1t1 1t0.5 1l4 3q1 0 4 2q8 6 11 8q1 0 6.5 4t6.5 4.5t3 2l2 1.5l4.5 3t5 3t3.5 2t5 3t3 2l2 1h2h1v1q0 1 0.5 1t4 2t4 2t0.5 0.5t6 4.5t8 4q7 3 10 6q1 1 2 1h1q0 2 3 2
q1 0 2.5 1.5t2.5 1.5t1 1v1l1 -1l2 1q3 3 9 5q10 4 11 7q1 1 1.5 1t1 0.5t3 2.5t5.5 5l4 3v3v6v4l-1 1l-1 1h-4h-4h-2q-2 -1 -5 -1.5t-6.5 -1t-10.5 -2.5q-12 -2 -24 -5q-13 -4 -46 -9l-10 -2q-4 -1 -9.5 -1.5t-6 -1t-13 -2.5t-18 -3.5t-8.5 -2t-6 -1.5q-9 -2 -14 -2
q-2 -1 -3.5 -1.5t-4.5 -1l-3 -0.5h-3q-5 -1 -10 -3q-2 -1 -5.5 -2.5l-7 -3t-5.5 -2.5t-3.5 -1.5t-6.5 -2.5l-10 -4l-6 -3l-3 -1h-2h-2h-2q-2 1 -4.5 3t-5.5 3.5t-5 3t-3 1.5q-2 0 -5 3q0 1 -3 1l-2 1v1q1 1 2 4t1 5v1h1v2v1l1 1v2v1l1 1v1q0 2 0.5 2t1.5 3v2h1v2q0 1 0.5 2
t1.5 4q1 5 1.5 6.5t1.5 1.5v1h-1l2 5q4 10 5 17q0 1 0.5 2t1.5 3.5l1 2.5l1 1h-1v1h1l1 3l3 9l2 7q1 2 1.5 2.5t1 3.5t1 3.5t0.5 1.5v1l1 3l1 2l1 5v6l-2 1l-2 2h-3l-3 1l-2 -1l-2 -1l-3 -3q-2 -3 -7 -7t-7 -6.5t-5 -3.5q-12 -9 -12 -11q0 -1 -1 -2l-2 -1v-1l-1 -2h-1h-1
l-5 -5q-6 -5 -13 -9l-1 -1l-4 2l-3 2v1h-1q-1 0 -5 2l-8 4q-10 5 -15 9q-2 1 -2.5 1t-1.5 1t-12.5 8t-14.5 8.5t-5.5 3t-3 2t-2 1t-3.5 1.5l-5 3q-4 3 -4 3.5t-0.5 0.5t-4.5 2l-4 2l-1 1l-2 1h-1h-1l-1 2l-2 2h-2h-1l-1 1q-1 1 -5 3l-7 3q-3 2 -6.5 3t-7.5 3q-7 4 -8 3
l-1 -1l1 -3l1 -3v-1q1 -1 6 -5q11 -10 15 -14q12 -12 14 -12q1 0 3 -2l3 -2h1h1l1 -2q4 -6 8 -6h1l2 -2q5 -5 6 -4l3 -3q10 -10 12 -10l4.5 -4.5t5 -4.5t5.5 -5l5 -5h1l2 -1v-1q1 -4 4 -3l2 -1l4 -4l2 -3l-1 -1q-1 -1 -1.5 -1t-1.5 -1l-2 -2h-5q-5 -1 -7 -2q-6 -2 -34 -6
q-12 -2 -17 -3t-9.5 -1t-7.5 -1l-7 -1q-4 0 -8.5 -1t-6 -1t-9 -1.5t-11.5 -2l-8 -1t-10 -1t-12 -1.5t-14 -2t-15 -2t-15.5 -2t-10.5 -2h-2v-1v-2v-1l3 -2q3 -2 5 -3t2 -2q1 0 5 -3.5t6.5 -5t6.5 -4.5l9 -5l5 -2h1h1l3 -2l3 -4q3 -3 11 -8q3 -1 5 -2.5t4 -2.5t5.5 -3.5
t4 -2.5t3.5 -2.5t4 -2.5t4 -2.5l3 -2.5l5.5 -3.5l5.5 -3.5l4 -2.5t4.5 -2.5t0.5 -1q1 0 5 -3l4 -2v-1q0 -1 -4 -8l-3 -5q-2 -3 -2 -4q-4 -4 -4 -6v-1l2 -1l1 -1l-8 -16l-14 -27l-10 -20q-7 -12 -10 -18q-1 -3 -3 -6t-3 -6l-1 -2l-2 -2l-1 -2l-5 -10q-7 -12 -10 -19
q-2 -4 -2.5 -5.5t-0.5 -2.5t-1 -2.5t-3 -6.5q-2 -6 -6 -10l-4 -4v-2l-1 -2l2 -2l1 -2h3h3l5 1q4 1 7.5 1.5t4.5 1t5 1t5.5 1t7.5 1.5t19 3.5t15.5 2.5t7.5 2q5 1 12 2q9 1 15 3l14 3q21 4 54 12l12.5 2.5l2.5 0.5q2 1 21 5q10 2 16 4h2q0 -2 -2 -7q-1 -1 -4 -10l-8 -19
l-7 -17q0 -1 -3 -7l-5 -10l-3 -7l-15 -32l-6 -13q-8 -17 -9 -20q-1 -1 -4 -9l-9 -18q0 -1 -1 -3t-1 -2.5t-0.5 -2.5t-1.5 -3.5t-3 -5.5t-2 -5t-1 -3.5t-1.5 -4.5t-1.5 -4t-2 -5v-3q1 -1 5 0v0v0v0v0v0zM1083 510l1 1l1 2v3v1l1 1l1 -1l1 1h1h1l3 2q2 2 2 2.5t1 1.5l1 1v1
l1 1h1v1l-1 1h1l2 2l1 2v5q0 5 -1 6v1l-3 -3q-2 -3 -3 -3h-1v-2v-2l-1 1h-1v0v-1h-1h-1q0 -1 -0.5 -1t-2 -1.5l-1.5 -1.5q-3 0 -3 -3v0q-1 0 -3 -2l-1 -1v-2q0 -6 1 -7l1 -1v-1l-1 -1q1 -1 1 -3v-1h1zM280 -5q-1 2 -1 11q-1 9 -2 36q0 19 -1 29q-1 11 -1 34q-1 42 -1 47
q-2 19 -2 31q0 10 0.5 15.5t0.5 16.5t1 16q0 6 2 29q2 19 2 22q0 2 0.5 5t1 7t0.5 5t0.5 4t1 7.5t0.5 10.5v5h-4q-11 -1 -20 -4q-1 0 -7 -1t-9.5 -2t-11.5 -3t-9 -3q-8 -2 -10 -1l-1 -0.5t-3 -1t-7.5 -2t-8 -2t-3.5 -0.5q-3 -1 -12 -2q-17 -4 -17 -5h-1l-1 -1v1l-1 1v-1v-1
h-1v1l-1 -1q-3 -2 -9 -2q-2 0 -2.5 -0.5t-5.5 -0.5h-5l-2 -1l-3 -1h-4q-4 0 -7 -1q-2 -1 -9 -2q-2 0 -9 -2l-10 -2q-16 -2 -18 -3l-3 -1h-1v1q2 1 17 6q4 1 7.5 2t8.5 3q34 9 42 12l6 3q2 0 3.5 0.5l1.5 0.5l1 1q2 0 15 7l3 1q1 0 16 7q4 2 9 5q31 17 65 33q20 9 29 15
q3 2 6.5 3.5t6.5 3.5t8 4l8 5l9 5q6 3 9.5 5t9.5 5l13 7l11 6q11 6 16 10l3 3v1v1l2 1l2 2l-1 1v1l1 2q0 2 1 3l1 2v2v3v2h-1q0 1 -2.5 1.5t-3.5 1t-3 0.5h-3v1h-2h-2v1h-3q-3 1 -4 1t-2 0.5t-3 0.5q-5 0 -5 1h-2.5t-3 0.5t-4 1t-8.5 1.5q-28 5 -37 6q-1 0 -8.5 1.5t-11 2
t-4 1t-2.5 0.5q-7 1 -11 2h-5q-4 2 -10 3q-12 2 -14 3h-2t-2 1l-12 4l-2 1v1h3q2 0 9 0.5t11.5 1t11 1t15.5 1.5t11.5 1.5t4.5 0.5q3 1 12 2q16 2 23 3q2 1 3 1t1.5 0.5t8 1.5t11.5 2q15 3 16 4l2 1l-1 7v13l-1 12v11t-1 12q-1 9 -1 18q-1 6 -1 7.5t-0.5 7t-0.5 12.5
q-2 13 -2 16q0 1 -1 4l-1 3l1 4v12v4l1 1v-1q1 0 12 -10l34 -31l33 -31q4 -2 12 -10l11 -10l8 -7l8 -7q3 -2 3 -3v-1h1l2 -2q7 -6 14 -11q3 -2 3 -3q2 -2 8 -6q3 -2 4.5 -3.5l1.5 -1.5h1v-1v-1l1 -1q1 0 5 -1.5t7 -2t5.5 -1.5t16.5 -5.5t18.5 -6.5t5.5 -2t3 -0.5t5 -1.5h3
l2 -1l1 -1v1h1l1 -1h2v-1v-1h1l1 -1l1 1q1 1 2 -1l1 -1h3q3 -1 6.5 -2t4.5 -1.5t5 -0.5h4l2 -1q1 -1 2 -1q2 0 15 -4q4 -1 5 -1t3 -1q2 0 19 -5q2 0 3 -1v-1v-1h-3q-3 -1 -9.5 -2.5t-8.5 -1.5t-3 -1h-2h-16q-15 -1 -25 -1h-10h-4l-5 1l-1 -1l-1 -1l-1 1l-1 1v-1h-4
q-4 0 -4 -0.5t-14 -0.5h-7l-1 1v-1h-1h-8q-10 0 -11 -1l-1 -1h1q0 -1 5.5 -1h10.5q4 -1 9.5 -1t8 -0.5t9.5 -0.5q16 -1 17 -2h1l-2 -1q-5 -2 -13 -4q-11 -3 -24 -4q-3 -1 -3.5 -1.5t-2 -0.5h-3.5h-2l1 -1h-2l-2 -1v1h-1v-1h-1v1l-1 -1v-1h-2q-1 1 -2 1l-1 -1v-1l-1 1h-2
l-2 -1q-3 -2 -4 -2h-1v-1v-1h-1h-1v1h-1v-1v-1l-1 1q-2 0 -3 -1h-1l-1 1v-1l1 -1h-1h-1v1l-1 -1l-2 -1h-1v-1l1 -1l-1 -1l-1 -1v-7l-1 -12q0 -4 -0.5 -7t-0.5 -5t-0.5 -27.5t0 -26t0.5 -31.5t0.5 -34.5t0.5 -16.5q1 -46 3 -48q0 -1 0.5 -9t0.5 -10t0.5 -11.5t1 -10t1 -4
t1 -6.5t0.5 -8v-4h1v-1v-2q0 -3 1 -9q2 -14 2 -19q0 -13 1 -21q0 -2 -1 -5q-3 -13 -3 -24v-2l-3 -1q-3 -1 -5 -1h-1l-2 3l-2 4t-1 2.5t-3 3.5l-2 3v1v2v1h-1v2v1l-1 4q-2 3 -3.5 7t-1.5 4.5t-2 1.5l-1 2l-1 3q-1 9 -3 13q-1 2 -2 5q-1 6 -4 13q-6 18 -11 23v2t-0.5 1.5
t-1.5 2.5q-3 8 -8 18q-3 6 -3 6.5t-3 8.5q-2 4 -2 4.5t-1 3.5q-5 10 -5 11t-1.5 4l-1.5 3l-1.5 3t-1.5 3.5t-1.5 4t-1.5 4t-2 4.5l-3.5 7l-2 4t-2 6t-2.5 7t-1 2.5t-1 2.5t-1 3t-1 2q-1 3 -2.5 7t-3.5 7.5t-2 4v1.5q-3 6 -3 8l-1.5 2.5t-3.5 6.5q-2 6 -7 17l-4 7q-1 4 -3 5
l-1 2l-1 -1v1v1l-1 -1h-1q0 1 -1 1v1l-2 -1l-1 -1v-1v-1l-1 -1q-1 -1 -2 -1h-1v-1h1h1v-1h-1h-1v-1l1 -1h-1.5t-0.5 -1v-2v-1l1 -1v1h-1h-1l-1 -1l1 -1h1l-1 -1h-1v-1l1 -1h-1v-2v-1h-1v-2v-2l-1 -1l-1 -1v-2v-2h-1l1 -1h1l-1 -1q-1 0 -1 -3v-1h-1v-2v-2h-1v-1l1 -1l-1 -1
h-1v-4v-3h-1v-1q0 -1 -0.5 -2t-0.5 -4l-1 -3h1l-1 -2q0 -2 -1 -4l-1 -1v-2v-2v-2l-1 -2v-2v-2h-1v-1q0 -2 -1 -5l-1 -2l1 -1v-1q-1 0 -1 -1t-1 -2l-1 -2h1l-1 -2l-1 -2v-1h1h-1v-1v-2v-3l-1 -4l-2 -5q-1 -5 -2 -7v-2v-2l-1 -1v-2q0 -4 -3 -7v-1l1 -1h-1q-1 -1 -0.5 -1
t-0.5 -3q-3 -6 -3 -15l-1 -3l-1 -2l-1 -1l-2 -9l-2 -9v-2v-2l-1 -1l-1 -2v-1l1 -1l-1 -1l-1 -1v-2q-1 -1 -1.5 -2.5t-0.5 -4.5l-1 -7q-2 -7 -3 -13v-4l-2 -3q-1 -3 -1 -5q-1 -4 -3 -8v-1.5t-1 -4.5q-4 -12 -3 -12q0 -1 -0.5 -1.5t-1.5 -4.5l-1 -7q-1 -2 -1 -4t-2 -6
q-2 -6 -2 -9l-1 -3t-1 -5.5t-1 -5.5q-2 -6 -5 -20l-2 -7v-3v-4l-1 -1q-1 -1 -1 -4q-1 -8 -4 -13l-1 -1l-2 -1q-2 -1 -3 -1v1v0v0v0v0v0zM479 501l4 3v2v1h-1v1l-1 -1l-8 1l-6 -1q-2 0 -3 -1h-1l-4 -3q-2 -2 0 -2l7 -1l4 -1l4 1q4 0 5 1zM1189 865q-1 2 1 1h2l-2 -1l-1 -1v1z
" />
  </g>

</svg>
