<?xml version="1.0" standalone="no"?>
<!DOCTYPE svg PUBLIC "-//W3C//DTD SVG 1.1//EN" "http://www.w3.org/Graphics/SVG/1.1/DTD/svg11.dtd" >
<svg viewBox="0 -200 1000 1000">
  <g transform="matrix(1 0 0 -1 0 800)">
   <path fill="currentColor"
d="M880 305q1 183 0 365v1v-183v-206v23zM338 359q-9 -11 -8 -56q1 -19 -0.5 -25t-7.5 -10q-5 -3 -16 -4q-13 -1 -16.5 -2t-4.5 -5q-2 -4 -1 -10q1 -4 3.5 -5t19.5 -1.5t20.5 -1.5t7.5 -6q6 -8 5.5 -19.5t-1.5 -12.5q-5 -1 -22 -14t-21 -17q-7 -8 -7 -22q0 -20 25 -51
q10 -12 28 -31.5t20 -19.5q3 0 27 22q38 37 46 55q4 9 5 20q1 23 -8 36q-8 12 -27 17q-7 2 -8 4.5t-2 17.5q0 10 3 13q8 6 20 6q10 0 11.5 1.5t1.5 9.5q0 14 -2 15.5t-19 1.5q-18 -1 -22.5 0.5t-14.5 10.5q-18 17 -18 39q0 24 17 47q4 5 18.5 19l19.5 19q4 2 -5 4h-3
l-10.5 1.5t-13.5 -6.5q-19 -14 -40 -40zM880 22q1 14 0 29v-15v-17v3zM880 -10q1 3 0 6v-3v-3zM880 -122q1 34 0 68v-34v-38v4zM880 -198q1 2 0 3v-1v-2z" />
  </g>

</svg>
